<svg width="33" height="33" viewBox="0 0 33 33" fill="none" xmlns="http://www.w3.org/2000/svg">
<g clip-path="url(#clip0_1580_10698)">
<path d="M25.1016 32.3526V30.1837C25.1016 25.753 21.5098 22.1611 17.0791 22.1611C12.6484 22.1611 9.05652 25.753 9.05652 30.1837V32.3526H25.1016Z" fill="white"/>
<path d="M17.6409 24.9775C19.1898 25.6742 20.2794 27.3277 20.2794 29.2572V29.7215C20.2794 30.4442 19.6935 31.03 18.9709 31.03H11.7238V32.3525H22.4342V30.3032C22.4341 27.5355 20.3343 25.2585 17.6409 24.9775Z" fill="#E1BDFC"/>
<path d="M29.4748 16.4174C29.5115 16.0656 29.5307 15.7085 29.5307 15.347V15.3469C29.5307 9.7204 24.9695 5.15918 19.343 5.15918H14.8151C9.18858 5.15918 4.62742 9.7204 4.62742 15.3469V15.347C4.62742 15.7085 4.64656 16.0656 4.6833 16.4174C3.57632 16.7381 2.76672 17.7586 2.76672 18.9689C2.76672 20.4362 3.95621 21.6257 5.42355 21.6257C5.84165 21.6257 6.23701 21.5288 6.58892 21.3568C8.44234 23.8894 11.4364 25.5346 14.8151 25.5346H19.343C22.7218 25.5346 25.7158 23.8893 27.5693 21.3568C27.9212 21.5289 28.3165 21.6257 28.7346 21.6257C30.2019 21.6257 31.3914 20.4362 31.3914 18.9689C31.3915 17.7586 30.5818 16.7381 29.4748 16.4174Z" fill="#A07575"/>
<path d="M28.8051 9.36059C29.5063 8.55912 30.3937 7.32368 30.4388 6.16191C30.5074 4.39345 30.0658 3.48266 29.482 3.26912C28.8892 3.05224 28.0212 3.53783 26.9192 4.95812C26.5233 5.46839 26.3374 6.07187 26.2643 6.64698C24.3791 5.20639 22.0238 4.35 19.468 4.35H14.4885C12.0145 4.35 9.72824 5.15251 7.8745 6.5106C7.79014 5.97738 7.60335 5.42824 7.23867 4.95818C6.13672 3.53783 5.26873 3.05224 4.67589 3.26912C4.09214 3.48266 3.6505 4.39345 3.71915 6.16191C3.76181 7.262 4.55987 8.42815 5.23985 9.22949C4.00667 11.0294 3.28467 13.2072 3.28467 15.5538V15.5539C3.28467 16.9548 4.66023 18.127 4.71572 18.0283C6.63507 14.6132 10.2921 12.3058 14.4885 12.3058H19.468C23.6564 12.3058 27.3073 14.6043 29.2297 18.0085C29.5043 18.4948 30.6718 16.9548 30.6718 15.5539V15.5538C30.6718 13.2639 29.9842 11.1347 28.8051 9.36059Z" fill="white"/>
<path d="M16.4431 0.865206L14.9161 8.88653C14.9161 10.9884 19.1216 10.9884 19.1216 8.88653L17.5947 0.865206C17.4738 0.229827 16.564 0.229827 16.4431 0.865206Z" fill="#FAF1A9"/>
<path d="M26.2539 15.043C25.8375 19.2147 22.3179 22.4723 18.0366 22.4723H12.8868C9.5949 22.4723 6.75399 20.5458 5.42716 17.7593C5.23838 17.8576 5.11083 18.0377 5.02014 18.2485C6.23953 22.5091 10.1629 25.6277 14.8152 25.6277H19.3431C24.144 25.6277 28.1682 22.3064 29.2461 17.8364C28.6286 16.5048 27.621 15.376 26.2539 15.043Z" fill="#925873"/>
<path d="M15.3347 9.87633C15.3908 9.93105 15.4513 9.98119 15.5148 10.0275C16.3102 10.6042 17.7078 10.6072 18.5098 10.0367C18.8858 9.78016 19.1303 9.34478 19.1216 8.88626L18.2289 4.19678L18.2269 4.18621L17.5947 0.865006C17.5396 0.490469 17.1028 0.28235 16.7686 0.441871C16.891 0.497494 16.9894 0.628528 17.0024 0.831619L17.4253 7.41976C17.3135 8.68008 15.7772 8.87369 15.047 8.19919L14.9532 8.69142C14.8413 9.11578 15.025 9.57946 15.3347 9.87633Z" fill="#DFB5A7"/>
<path d="M28.805 9.36042C28.8438 9.31607 28.8833 9.27018 28.9231 9.22326C28.2133 8.14889 27.3239 7.20369 26.2969 6.43122C26.2842 6.5034 26.2733 6.57533 26.2642 6.64681C24.4397 5.25256 22.1746 4.40558 19.7138 4.35254C24.2402 5.11715 27.6462 8.435 27.6462 12.4125C27.6343 13.1283 26.954 12.9035 26.6321 12.5682C24.8745 10.7373 21.8966 10.1165 18.5095 10.037C17.7075 10.6074 16.3101 10.6044 15.5147 10.0277H13.3103C9.59286 10.0277 6.98064 12.2901 4.65304 14.2293C4.11724 14.6757 3.73832 14.1952 3.54135 13.5214C3.43926 14.1292 3.38538 14.7533 3.38538 15.3901C3.38538 16.751 4.68295 17.8956 4.80818 17.8697C4.93277 17.6564 5.06412 17.4475 5.20205 17.2434C5.20089 17.2405 5.19954 17.2376 5.19838 17.2345C7.19733 14.1688 10.6563 12.1421 14.5891 12.1421H19.5687C22.1395 12.1421 24.5071 13.0092 26.3975 14.4653H26.2915C26.29 14.517 26.2874 14.5684 26.2849 14.6198C27.4699 15.5301 28.4681 16.6711 29.2112 17.9769C29.2313 17.8984 29.2507 17.8196 29.269 17.7404C29.2893 17.7753 29.3104 17.8096 29.3303 17.8448C29.467 18.0869 29.8249 17.8268 30.1499 17.3318C30.4351 16.8423 30.6717 16.1842 30.6717 15.5537C30.6717 13.2637 29.9842 11.1346 28.805 9.36042Z" fill="#E1BDFC"/>
<path d="M20.9245 12.4229C19.7915 11.1223 17.8633 9.91666 17.1529 10.3557C17.1307 10.353 17.1085 10.3508 17.0862 10.3508C17.0596 10.3508 17.0331 10.3528 17.0068 10.3566C16.2976 9.91486 14.3674 11.1213 13.2336 12.4229C12.0835 13.7432 12.1892 14.6603 12.8726 15.1568C13.5171 15.6251 14.4456 15.5514 15.5142 14.4332C15.5985 15.8859 16.2701 16.4606 17.0862 16.4606C17.8997 16.4606 18.5694 15.8895 18.6572 14.4474C19.7202 15.5523 20.6436 15.6232 21.2856 15.1568C21.9689 14.6603 22.0747 13.7432 20.9245 12.4229Z" fill="#E8C2D8"/>
<path d="M19.6597 30.8331C20.4263 30.8331 21.0477 30.2117 21.0477 29.4451C21.0477 28.6786 20.4263 28.0571 19.6597 28.0571C18.8932 28.0571 18.2717 28.6786 18.2717 29.4451C18.2717 30.2117 18.8932 30.8331 19.6597 30.8331Z" fill="#D789B9"/>
<path d="M3.48094 23.257L4.01249 24.7517C4.03524 24.8157 4.08029 24.8665 4.13714 24.892L5.46513 25.4904C5.65276 25.5749 5.65276 25.8738 5.46513 25.9584L4.13714 26.5567C4.08029 26.5823 4.03524 26.633 4.01249 26.697L3.48094 28.1917C3.40586 28.4028 3.14024 28.4028 3.06516 28.1917L2.53355 26.697C2.5108 26.633 2.46574 26.5823 2.4089 26.5567L1.0809 25.9584C0.89328 25.8739 0.89328 25.5749 1.0809 25.4904L2.4089 24.892C2.46574 24.8665 2.5108 24.8157 2.53355 24.7517L3.06516 23.257C3.14024 23.0458 3.40579 23.0458 3.48094 23.257Z" fill="#E8C2D8"/>
<path d="M30.4692 27.701L30.8635 28.8097C30.8804 28.8572 30.9138 28.8948 30.956 28.9138L31.9411 29.3576C32.0802 29.4203 32.0802 29.642 31.9411 29.7047L30.956 30.1486C30.9138 30.1676 30.8804 30.2052 30.8635 30.2527L30.4692 31.3614C30.4135 31.518 30.2164 31.518 30.1608 31.3614L29.7664 30.2527C29.7495 30.2052 29.7162 30.1676 29.6739 30.1486L28.6888 29.7047C28.5497 29.642 28.5497 29.4203 28.6888 29.3576L29.6739 28.9138C29.7161 28.8948 29.7495 28.8571 29.7664 28.8097L30.1608 27.701C30.2164 27.5443 30.4134 27.5443 30.4692 27.701Z" fill="#E8C2D8"/>
<path d="M28.774 26.364C28.774 26.6405 28.5499 26.8647 28.2734 26.8647C27.9969 26.8647 27.7727 26.6405 27.7727 26.364C27.7727 26.0874 27.9969 25.8633 28.2734 25.8633C28.5499 25.8633 28.774 26.0874 28.774 26.364Z" fill="#D789B9"/>
<path d="M32.0598 24.1541C32.0598 24.4306 31.8356 24.6547 31.5591 24.6547C31.2826 24.6547 31.0585 24.4306 31.0585 24.1541C31.0585 23.8776 31.2826 23.6533 31.5591 23.6533C31.8356 23.6534 32.0598 23.8776 32.0598 24.1541Z" fill="#D789B9"/>
<path d="M6.37836 29.5222C6.37836 29.7987 6.15419 30.0229 5.87762 30.0229C5.60112 30.0229 5.37695 29.7987 5.37695 29.5222C5.37695 29.2457 5.60112 29.0215 5.87762 29.0215C6.15419 29.0215 6.37836 29.2457 6.37836 29.5222Z" fill="#D789B9"/>
<path d="M31.1305 16.6979C31.2491 16.3174 31.3188 15.9233 31.3188 15.5534C31.3188 13.308 30.6911 11.2065 29.6019 9.41505C30.2973 8.54797 31.0398 7.35784 31.0852 6.18653C31.1859 3.59539 30.2632 2.86546 29.7042 2.66095C29.7042 2.66095 29.7042 2.66095 29.7041 2.66095C28.7626 2.31664 27.6533 2.95569 26.4078 4.56103C26.161 4.8791 25.9828 5.22386 25.8561 5.57565C24.0115 4.39048 21.8185 3.70245 19.4678 3.70245H18.5299L17.9759 0.792193C17.8871 0.325746 17.4935 0 17.0186 0C16.5439 0 16.1502 0.325746 16.0614 0.792258L15.5074 3.70251H14.4883C12.2064 3.70251 10.0736 4.35142 8.26326 5.47349C8.1397 5.15728 7.97264 4.84829 7.74982 4.56109C6.50433 2.95582 5.39509 2.31677 4.45343 2.66101C3.8945 2.86546 2.97166 3.59539 3.07227 6.1866C3.11532 7.2948 3.78241 8.42028 4.44312 9.27274C3.29972 11.0949 2.63734 13.2481 2.63734 15.5535C2.63734 16.0205 2.75445 16.4502 2.91552 16.8217C2.41968 17.3997 2.11926 18.1498 2.11926 18.9692C2.11926 20.791 3.60136 22.2731 5.42313 22.2731C5.75371 22.2731 6.07256 22.2231 6.37388 22.1321C7.36961 23.3685 8.6307 24.3824 10.07 25.0866C9.02587 26.5183 8.40899 28.2804 8.40899 30.184V32.3529C8.40899 32.7103 8.69877 33 9.0561 33C9.41349 33 9.7032 32.7102 9.7032 32.3529V30.184C9.7032 28.4524 10.3036 26.8588 11.3065 25.5991C11.9113 25.8066 12.5402 25.9618 13.1876 26.0597C12.0494 27.1098 11.3352 28.6128 11.3352 30.2799V32.5984C11.3352 32.8128 11.509 32.9867 11.7234 32.9867C11.9379 32.9867 12.1117 32.8128 12.1117 32.5984V30.2799C12.1117 28.5717 12.979 27.0634 14.296 26.1695C14.4679 26.1776 14.6408 26.1821 14.8147 26.1821H16.6904V32.5726C16.6904 32.787 16.8642 32.9609 17.0786 32.9609C17.2931 32.9609 17.4669 32.787 17.4669 32.5726V26.1821H19.3426C19.5164 26.1821 19.6892 26.1775 19.8611 26.1694C21.1781 27.0633 22.0455 28.5717 22.0455 30.2799V32.5984C22.0455 32.8128 22.2194 32.9867 22.4338 32.9867C22.6482 32.9867 22.8221 32.8128 22.8221 32.5984V30.2799C22.8221 28.6129 22.1079 27.11 20.9698 26.0599C21.6172 25.962 22.2458 25.8063 22.8505 25.5988C23.8534 26.8586 24.454 28.4523 24.454 30.184V32.3529C24.454 32.7103 24.7438 33 25.1011 33C25.4585 33 25.7482 32.7102 25.7482 32.3529V30.184C25.7482 28.2803 25.1312 26.5182 24.0869 25.0865C25.5259 24.3825 26.7867 23.3688 27.7823 22.1326C28.0839 22.2236 28.4032 22.2731 28.7341 22.2731C30.5559 22.2731 32.038 20.791 32.038 18.9693C32.0383 18.09 31.6926 17.2904 31.1305 16.6979ZM27.4304 5.35438C28.4567 4.03135 29.0757 3.80931 29.2596 3.87647C29.4297 3.93873 29.8568 4.46602 29.792 6.13632C29.765 6.83106 29.3303 7.61971 28.8309 8.29718C28.2826 7.59129 27.6566 6.94876 26.9655 6.38266C27.0475 6.01973 27.1915 5.66221 27.4304 5.35438ZM19.4679 4.99673C25.2888 4.99673 30.0246 9.73242 30.0246 15.5534C30.0246 16.1632 29.7378 16.8029 29.4864 17.1777C27.5611 14.1368 24.3533 12.1412 20.8051 11.7367C20.2067 11.1607 19.4742 10.646 18.7924 10.3048C19.2246 9.97593 19.5097 9.50116 19.5097 8.88622C19.5097 8.86185 19.5075 8.83755 19.5029 8.81364L18.7763 4.99679L19.4679 4.99673ZM13.5261 12.6783C14.307 11.7818 15.464 11.0365 16.2604 10.7644C16.2874 10.7708 16.3144 10.7769 16.3417 10.7825C15.764 12.0814 15.2478 13.3012 15.1534 14.2468C14.6671 14.7325 13.8219 15.3671 13.1004 14.843C12.8934 14.6925 12.7805 14.512 12.7554 14.291C12.7221 13.9971 12.8288 13.4788 13.5261 12.6783ZM18.4777 7.58059L15.346 8.70323L15.6869 6.91253L18.1836 6.03571L18.4777 7.58059ZM18.0367 5.26421L15.8548 6.03049L16.2204 4.11018L17.7081 3.53803L18.0367 5.26421ZM15.4968 9.47416L18.6247 8.35287L18.7326 8.92012C18.7167 9.43858 18.3366 9.77251 17.8478 9.94157C17.7132 9.9087 17.5858 9.8873 17.4683 9.87983C17.3364 9.87158 16.817 9.87319 16.6979 9.88047C16.5594 9.88898 16.4072 9.91656 16.2457 9.95988C15.9375 9.86281 15.6676 9.70239 15.4968 9.47416ZM15.9144 14.5392C15.9151 13.7078 16.4822 12.3764 17.0741 11.0464C17.1092 11.1271 17.1443 11.2076 17.1789 11.2872C17.7009 12.4848 18.2926 13.8423 18.2516 14.5695C18.2506 14.5874 18.2512 14.6049 18.2526 14.6222C18.1765 15.3248 17.9034 16.0726 17.0859 16.0726C16.2462 16.0726 15.9804 15.2847 15.913 14.5632C15.9136 14.5553 15.9144 14.5473 15.9144 14.5392ZM19.0186 14.2614C18.9369 13.3771 18.4269 12.207 17.8908 10.9769C17.8595 10.9051 17.8279 10.8326 17.7963 10.76C17.8139 10.7558 17.8315 10.7514 17.8489 10.7469C18.6441 11.0038 19.8336 11.7624 20.6315 12.6783C21.3288 13.4788 21.4354 13.9971 21.4021 14.2909C21.377 14.5119 21.2642 14.6925 21.057 14.843C20.3407 15.3632 19.5023 14.7406 19.0186 14.2614ZM17.0186 0.776531C17.0798 0.776531 17.1864 0.797478 17.213 0.937406L17.5605 2.76272L16.3912 3.21241L16.8243 0.937406C16.8509 0.797478 16.9575 0.776531 17.0186 0.776531ZM4.36552 6.13639C4.30074 4.46609 4.72787 3.93873 4.89797 3.87653C5.08198 3.80957 5.70086 4.03154 6.72721 5.35444C6.9363 5.62399 7.07249 5.93169 7.15821 6.24776C6.44484 6.81089 5.79792 7.45452 5.23029 8.16415C4.77254 7.51781 4.39078 6.78595 4.36552 6.13639ZM14.4883 4.99673H15.2611L14.5345 8.81358C14.5299 8.83755 14.5276 8.86179 14.5276 8.88615C14.5276 9.52462 14.835 10.0121 15.2952 10.342C14.6432 10.6774 13.9521 11.1658 13.3795 11.7113C9.7937 12.0492 6.53508 14.0111 4.55849 17.0394C4.26394 16.6772 3.93162 16.1257 3.93162 15.5534C3.93162 9.73242 8.66738 4.99673 14.4883 4.99673ZM5.42319 20.9788C4.31505 20.9788 3.41355 20.0773 3.41355 18.9692C3.41355 18.6144 3.50733 18.2818 3.66936 17.9923C3.89172 18.2456 4.2098 18.5572 4.49475 18.6482C4.7583 19.4701 5.11717 20.2498 5.55887 20.9738C5.51394 20.9768 5.46883 20.9788 5.42319 20.9788ZM19.3427 24.8878H14.8149C10.4074 24.8878 6.68886 21.8833 5.59851 17.815C7.12089 15.4429 9.52106 13.7938 12.2312 13.1986C12.0255 13.618 11.9424 14.0125 11.9839 14.3785C12.0336 14.8157 12.2618 15.1935 12.6441 15.4713C13.0197 15.7442 13.9609 16.1994 15.2361 15.2107C15.4927 16.2499 16.1528 16.8493 17.086 16.8493C18.0159 16.8493 18.6752 16.2533 18.9335 15.2201C20.2029 16.1967 21.1398 15.743 21.5136 15.4713C21.8959 15.1936 22.1242 14.8156 22.1737 14.3785C22.2135 14.0279 22.138 13.6508 21.9508 13.251C24.6511 13.9071 27.0248 15.6144 28.4966 18.038C27.332 21.9927 23.6694 24.8878 19.3427 24.8878ZM28.7343 20.9788C28.6885 20.9788 28.643 20.9768 28.5978 20.9738C29.0296 20.2661 29.3824 19.5051 29.6442 18.7035C29.9357 18.6097 30.2309 18.3494 30.4908 17.9941C30.652 18.283 30.7441 18.6155 30.7441 18.9693C30.744 20.0773 29.8425 20.9788 28.7343 20.9788Z" fill="#3C122C"/>
<path d="M12.0987 15.8419C12.048 15.816 11.5861 15.5889 11.0008 15.5889C10.4155 15.5889 9.95364 15.816 9.90292 15.8419C9.71259 15.9391 9.63737 16.1714 9.73366 16.3622C9.83002 16.553 10.0635 16.6297 10.2544 16.5343C10.2578 16.5326 10.5978 16.3654 11.0008 16.3654C11.4038 16.3654 11.7439 16.5326 11.7457 16.5335C11.8022 16.5624 11.8625 16.576 11.9219 16.576C12.0631 16.576 12.1994 16.4987 12.268 16.3642C12.3655 16.1733 12.2897 15.9394 12.0987 15.8419Z" fill="#3C122C"/>
<path d="M24.2547 15.8419C24.2039 15.816 23.7421 15.5889 23.1568 15.5889C22.5714 15.5889 22.1095 15.816 22.0588 15.8419C21.8685 15.9391 21.7933 16.1714 21.8895 16.3622C21.9859 16.553 22.2193 16.6297 22.4103 16.5343C22.4137 16.5326 22.7537 16.3654 23.1568 16.3654C23.5598 16.3654 23.8998 16.5326 23.9015 16.5335C23.9581 16.5624 24.0184 16.576 24.0778 16.576C24.219 16.576 24.3553 16.4987 24.4239 16.3642C24.5214 16.1733 24.4456 15.9394 24.2547 15.8419Z" fill="#3C122C"/>
<path d="M18.2161 19.165C18.0017 19.165 17.8278 19.3389 17.8278 19.5533C17.8278 19.9664 17.4918 20.3024 17.0788 20.3024C16.6657 20.3024 16.3298 19.9664 16.3298 19.5533C16.3298 19.3389 16.1559 19.165 15.9415 19.165C15.7271 19.165 15.5532 19.3389 15.5532 19.5533C15.5532 20.3945 16.2377 21.0789 17.0788 21.0789C17.92 21.0789 18.6044 20.3945 18.6044 19.5533C18.6044 19.3389 18.4305 19.165 18.2161 19.165Z" fill="#3C122C"/>
<path d="M19.6593 27.6685C18.6799 27.6685 17.8831 28.4653 17.8831 29.4447C17.8831 30.4241 18.6799 31.221 19.6593 31.221C20.6387 31.221 21.4356 30.4241 21.4356 29.4447C21.4355 28.4653 20.6387 27.6685 19.6593 27.6685ZM19.6593 30.4444C19.1081 30.4444 18.6597 29.9959 18.6597 29.4447C18.6597 28.8935 19.1081 28.4451 19.6593 28.4451C20.2106 28.4451 20.659 28.8935 20.659 29.4447C20.659 29.9959 20.2106 30.4444 19.6593 30.4444Z" fill="#3C122C"/>
<path d="M24.951 10.8877C25.1654 10.8877 25.3393 10.7139 25.3393 10.4995V9.7662C25.3393 9.55176 25.1654 9.37793 24.951 9.37793C24.7366 9.37793 24.5627 9.55176 24.5627 9.7662V10.4995C24.5627 10.7139 24.7366 10.8877 24.951 10.8877Z" fill="#3C122C"/>
<path d="M26.8305 12.4765C27.045 12.4765 27.2188 12.3027 27.2188 12.0883V11.3551C27.2188 11.1406 27.045 10.9668 26.8305 10.9668C26.6161 10.9668 26.4423 11.1406 26.4423 11.3551V12.0883C26.4423 12.3027 26.6161 12.4765 26.8305 12.4765Z" fill="#3C122C"/>
<path d="M11.0007 18.416C10.3726 18.416 9.8634 18.9252 9.8634 19.5533C9.8634 20.1814 10.3726 20.6906 11.0007 20.6906C11.6288 20.6906 12.138 20.1815 12.138 19.5533C12.138 18.9252 11.6288 18.416 11.0007 18.416Z" fill="#3C122C"/>
<path d="M24.2484 19.8896C24.4305 19.2886 24.0909 18.6536 23.4898 18.4714C22.8886 18.2893 22.2537 18.6289 22.0715 19.23C21.8894 19.8311 22.229 20.466 22.8301 20.6482C23.4313 20.8303 24.0662 20.4907 24.2484 19.8896Z" fill="#3C122C"/>
</g>
<defs>
<clipPath id="clip0_1580_10698">
<rect width="33" height="33" fill="white"/>
</clipPath>
</defs>
</svg>
