<svg width="25" height="25" viewBox="0 0 25 25" fill="none" xmlns="http://www.w3.org/2000/svg">
<g opacity="0.5">
<path d="M12.9771 3.28101L1 15.2581" stroke="#A4C2F7" stroke-width="2" stroke-dasharray="2 2"/>
<path d="M21.8967 11.8892L9.91956 23.8663" stroke="#A4C2F7" stroke-width="2" stroke-dasharray="2 2"/>
<path d="M12.646 10.2141L2.2074 20.3411" stroke="#A4C2F7" stroke-width="2" stroke-dasharray="2 2"/>
<path d="M14.6715 12.3176L4.23291 22.4446" stroke="#A4C2F7" stroke-width="2" stroke-dasharray="2 2"/>
<mask id="mask0_1585_25763" style="mask-type:luminance" maskUnits="userSpaceOnUse" x="9" y="0" width="16" height="16">
<path d="M9.91492 0.866211H24.3264V15.2777H9.91492V0.866211Z" fill="white"/>
</mask>
<g mask="url(#mask0_1585_25763)">
<path d="M17.6396 7.69445L17.6396 7.69446L20.9507 12.3301C21.1657 12.6311 21.5995 12.667 21.8611 12.4054C21.8611 12.4054 21.8611 12.4054 21.8611 12.4054M17.6396 7.69445L22.2178 11.6478C22.3545 11.9668 22.2832 12.3368 22.0379 12.5822L21.8611 12.4054M17.6396 7.69445C17.5658 7.59119 17.4754 7.50074 17.372 7.42692C17.372 7.4269 17.372 7.42689 17.372 7.42687L12.7364 4.11575L12.5989 4.30831L12.7364 4.11574C12.4354 3.90075 12.3995 3.46693 12.6611 3.20538C12.8341 3.0323 13.0952 2.98203 13.3201 3.07845L19.3877 5.67883M17.6396 7.69445L19.3877 5.67883M21.8611 12.4054C22.0342 12.2323 22.0844 11.9713 21.988 11.7463L19.3877 5.67883M21.8611 12.4054L19.3877 5.67883" fill="url(#paint0_linear_1585_25763)" stroke="#428DFF" stroke-width="0.5"/>
<path d="M14.1166 10.0828L14.1166 10.0828C13.9412 10.2951 13.6578 10.3851 13.392 10.3126L13.392 10.3126L12.3497 10.0283C12.3497 10.0283 12.3497 10.0283 12.3497 10.0283C12.2803 10.0094 12.2061 10.0291 12.1553 10.0799L12.1552 10.08L12.1117 10.1235L14.1166 10.0828ZM14.1166 10.0828C14.6353 9.45482 15.2908 8.66742 16.0164 7.80989C17.1838 6.43019 18.8526 4.69108 19.8293 3.69118C20.2872 3.22239 20.9158 2.9624 21.5739 2.9624C21.8665 2.9624 22.1038 3.19967 22.1038 3.49237C22.1038 4.15044 21.8438 4.77904 21.375 5.23696C20.3751 6.21363 18.636 7.88239 17.2563 9.04981L17.2563 9.04981C16.3988 9.77543 15.6114 10.4309 14.9834 10.9496L14.9834 10.9496C14.7711 11.125 14.6812 11.4084 14.7536 11.6742L14.7536 11.6742L15.0379 12.7165C15.0379 12.7165 15.0379 12.7165 15.0379 12.7165C15.0568 12.7859 15.0371 12.8601 14.9863 12.9109L14.9863 12.9109L14.9426 12.9545C14.8644 13.0328 14.7376 13.0328 14.6593 12.9545C14.6593 12.9545 14.6593 12.9545 14.6592 12.9545L13.3863 11.6816L13.3862 11.6814L13.3859 11.6812L13.3856 11.6808L13.3854 11.6806L13.3848 11.68L13.3847 11.6799M14.1166 10.0828L13.3847 11.6799M13.3847 11.6799L12.1117 10.407C12.1117 10.407 12.1117 10.4069 12.1117 10.4069M13.3847 11.6799L12.1117 10.4069M12.1117 10.4069C12.0334 10.3287 12.0334 10.2019 12.1116 10.1236L12.1117 10.4069Z" fill="url(#paint1_linear_1585_25763)" stroke="#428DFF" stroke-width="0.5"/>
</g>
</g>
<defs>
<linearGradient id="paint0_linear_1585_25763" x1="10.4074" y1="2.04476" x2="13.7991" y2="-0.960939" gradientUnits="userSpaceOnUse">
<stop stop-color="#1C92FF"/>
<stop offset="1" stop-color="#24CAFF"/>
</linearGradient>
<linearGradient id="paint1_linear_1585_25763" x1="21.7405" y1="1.06978" x2="25.1146" y2="8.27959" gradientUnits="userSpaceOnUse">
<stop stop-color="#A0F9FF"/>
<stop offset="1" stop-color="#18ACFF"/>
</linearGradient>
</defs>
</svg>
