<svg width="35" height="27" viewBox="0 0 35 27" fill="none" xmlns="http://www.w3.org/2000/svg">
<g opacity="0.5">
<path d="M34.0096 18.8536C33.9986 18.9399 26.0706 23.3893 26.0156 23.4568C23.3267 21.2104 25.5619 18.7023 26.0156 23.7328C25.9324 23.7433 25.8479 23.7337 25.7691 23.7048C25.1251 23.4626 24.5252 23.1163 23.9933 22.6797C23.8697 22.5746 23.7053 22.5307 23.5457 22.56C23.3861 22.5893 23.2481 22.6888 23.1699 22.8309C21.966 25.038 19.6307 26.3882 17.1174 26.3304C14.604 26.2726 12.3333 24.8165 11.2321 22.5564C11.171 22.4261 11.0594 22.3262 10.9232 22.2797C10.7869 22.2333 10.6376 22.2442 10.5095 22.31C9.40416 22.8728 8.15308 23.0839 6.92427 22.915C3.7128 22.479 1.38792 19.6298 1.60497 16.3962C1.82203 13.1625 4.50682 10.6496 7.74775 10.6467C7.83178 10.6467 7.94382 10.6523 8.05026 10.6579C8.29766 10.6751 8.52549 10.5232 8.60485 10.2882C9.0642 8.90454 10.9521 4.48462 16.1506 4.48462C18.5152 4.48477 20.7532 5.5533 22.2399 7.39202C22.4089 7.61447 22.7189 7.67261 22.957 7.52647C24.507 6.52864 26.4785 6.45787 28.0961 7.34199C29.7136 8.22611 30.7186 9.9237 30.7157 11.7671C30.7157 11.8568 30.7045 11.98 30.6988 12.0976C30.68 12.3131 30.7897 12.5195 30.9789 12.6242C33.185 13.8696 34.3913 16.3492 34.0096 18.8536Z" fill="#E7ECFB"/>
<path d="M30.9531 12.5979C30.7639 12.4932 30.6541 12.2868 30.673 12.0714C30.6786 11.9537 30.6898 11.8305 30.6898 11.7408C30.7001 10.2545 30.0496 8.84047 28.9142 7.88125C27.7788 6.92204 26.276 6.51684 24.8123 6.7753C27.2342 7.18692 29.0068 9.2842 29.0092 11.7408C29.0092 11.8305 28.998 11.9537 28.9924 12.0714C28.9735 12.2868 29.0833 12.4932 29.2725 12.5979C31.3058 13.7462 32.5039 15.9556 32.3569 18.2861C32.916 18.431 33.4367 18.6959 33.8829 19.0626C33.9378 18.9951 33.9728 18.9136 33.9837 18.8273C34.3655 16.3229 33.1591 13.8433 30.9531 12.5979Z" fill="#C9D8FB"/>
<path d="M8.55154 22.8806C5.28583 22.4285 2.95562 19.4844 3.2656 16.2022C3.57557 12.9199 6.41573 10.4642 9.70833 10.6314C9.95574 10.6485 10.1836 10.4967 10.2629 10.2617C11.4645 6.64229 14.4814 4.49524 17.2824 4.19329C10.2629 2.94599 6.54898 9.87181 8.58235 10.2617C8.50299 10.4967 7.94522 9.59351 7.69782 9.57639C5.36341 9.45778 2.34788 12.6947 2.34788 13.7639C1.20266 15.8016 1.31001 18.312 2.62498 20.2444C3.93996 22.1768 6.23578 23.198 8.55154 22.8806Z" fill="white"/>
<path d="M12.8901 22.53C12.8289 22.3996 12.7174 22.2997 12.5811 22.2533C12.4449 22.2068 12.2955 22.2177 12.1675 22.2835C11.8799 22.4265 11.5818 22.5471 11.2756 22.6442C12.5548 25.1737 15.2943 26.6168 18.1038 26.2412C15.843 25.9839 13.8734 24.5819 12.8901 22.53Z" fill="white"/>
<path d="M10.5396 6.08765L11.3143 6.89713C10.3092 7.88535 9.55455 9.09935 9.11332 10.4381L8.04895 10.0852C8.54743 8.57263 9.40154 7.20174 10.5396 6.08765Z" fill="white"/>
<path d="M9.53997 8.79128C9.23058 8.79299 8.97839 8.54356 8.97669 8.23417C8.97499 7.92479 9.22442 7.6726 9.53381 7.6709H9.53997C9.84935 7.6709 10.1002 7.92171 10.1002 8.23109C10.1002 8.54048 9.84935 8.79128 9.53997 8.79128Z" fill="#428DFF"/>
<path d="M16.1266 6.13867C13.2003 6.14457 10.6794 8.20245 10.0877 11.0684C10.0258 11.3716 10.2215 11.6675 10.5247 11.7294C10.8279 11.7913 11.1238 11.5956 11.1857 11.2924C11.6695 8.94742 13.7322 7.26355 16.1266 7.25906C16.436 7.25906 16.6868 7.00825 16.6868 6.69886C16.6868 6.38948 16.436 6.13867 16.1266 6.13867Z" fill="#428DFF"/>
<path d="M8.2841 12.3008C5.7742 12.3645 3.66298 14.2012 3.25245 16.6781C3.22495 16.8243 3.25674 16.9755 3.34082 17.0982C3.42489 17.221 3.55434 17.3052 3.70061 17.3324C3.73417 17.3392 3.76833 17.3426 3.80256 17.3425C4.07144 17.3421 4.3021 17.1507 4.35211 16.8865C4.66326 14.9385 6.31247 13.4851 8.2841 13.4212C8.59349 13.4212 8.8443 13.1704 8.8443 12.861C8.8443 12.5516 8.59349 12.3008 8.2841 12.3008Z" fill="#428DFF"/>
<path d="M15.0059 13.4211C14.6966 13.4211 14.4458 13.6719 14.4458 13.9813C14.4458 14.6001 13.9441 15.1017 13.3254 15.1017C12.7066 15.1017 12.205 14.6001 12.205 13.9813C12.205 13.6719 11.9542 13.4211 11.6448 13.4211C11.3354 13.4211 11.0846 13.6719 11.0846 13.9813C11.0846 15.2189 12.0878 16.2221 13.3254 16.2221C14.5629 16.2221 15.5661 15.2189 15.5661 13.9813C15.5661 13.6719 15.3153 13.4211 15.0059 13.4211Z" fill="#428DFF"/>
<path d="M22.2889 16.2221C23.5264 16.2221 24.5296 15.2189 24.5296 13.9813C24.5296 13.6719 24.2788 13.4211 23.9694 13.4211C23.6601 13.4211 23.4093 13.6719 23.4093 13.9813C23.4093 14.6001 22.9076 15.1017 22.2889 15.1017C21.6701 15.1017 21.1685 14.6001 21.1685 13.9813C21.1685 13.6719 20.9177 13.4211 20.6083 13.4211C20.2989 13.4211 20.0481 13.6719 20.0481 13.9813C20.0481 15.2189 21.0513 16.2221 22.2889 16.2221Z" fill="#428DFF"/>
<path d="M19.6104 18.6729C19.188 19.2455 18.5187 19.5835 17.8071 19.5835C17.0956 19.5835 16.4263 19.2455 16.0039 18.6729C15.8105 18.4313 15.4579 18.3921 15.2162 18.5855C14.9746 18.7789 14.9355 19.1315 15.1288 19.3731C15.7643 20.2112 16.7554 20.7035 17.8071 20.7035C18.8589 20.7035 19.85 20.2112 20.4854 19.3731C20.6788 19.1315 20.6397 18.7789 20.398 18.5855C20.1564 18.3921 19.8038 18.4313 19.6104 18.6729Z" fill="#428DFF"/>
<path d="M9.9373 2.67014C9.02253 3.35392 7.63036 5.15387 7.66318 6.57623C1.5973 7.04889 1.13565 12.3094 1.46392 14.5852C3.22327 20.6773 8.28032 20.0777 10.5889 19.0164C16.3659 25.9225 21.4208 22.1128 23.2261 19.3447C26.1146 21.8393 32.8763 20.1653 33.861 15.734C34.6488 12.1891 31.9791 9.88047 30.5458 9.16929C29.9418 2.10561 24.5374 3.30471 22.0865 4.63954C17.675 -0.29716 13.1869 0.241144 9.9373 2.67014Z" stroke="#428DFF"/>
</g>
</svg>
