<svg width="19" height="23" viewBox="0 0 19 23" fill="none" xmlns="http://www.w3.org/2000/svg">
<path d="M1.1532 7.8897C1.1532 7.8897 1.87438 10.2726 6.07226 9.32155L6.73796 8.5983L6.62403 6.82869L4.29968 5.65869L2.31713 5.95491L1.1532 7.8897Z" fill="#D4D2D3"/>
<path d="M9.94916 22.9998H13.2984C11.4979 19.9243 10.6334 16.5051 13.9917 12.9406L11.8354 10.9092C9.21783 13.6876 8.25623 16.8055 8.97745 20.1764C9.18948 21.1671 9.5295 22.1053 9.94916 22.9998Z" fill="#FF98C9"/>
<path d="M11.8353 10.9092C10.7451 12.0664 9.94322 13.2826 9.42944 14.5513C10.2909 14.87 11.2244 15.0451 12.1993 15.0451C12.2893 15.0451 12.3787 15.0431 12.4679 15.0402C12.8273 14.347 13.3263 13.6467 13.9915 12.9406L11.8353 10.9092Z" fill="#EB6DA8"/>
<path d="M15.2224 1.95958C14.2432 1.22501 13.8689 0.657065 13.7322 0.288703C13.6306 0.015083 13.2949 -0.0864858 13.0568 0.0823314C12.7619 0.291444 12.4586 0.645789 12.3938 1.23319C12.3292 1.23135 12.2644 1.23014 12.1994 1.23014C8.65027 1.23014 5.77319 4.01198 5.77319 7.44362C5.77319 10.8753 8.65027 13.6571 12.1994 13.6571C15.7485 13.6571 18.6255 10.8753 18.6255 7.44367C18.6255 5.06873 17.2473 3.00537 15.2224 1.95958Z" fill="#FF98C9"/>
<path d="M15.2224 1.95958C14.2432 1.22497 13.8689 0.657065 13.7322 0.288703C13.6306 0.015083 13.2949 -0.0864858 13.0568 0.0823314C12.9733 0.141584 12.8893 0.21292 12.81 0.297418C12.9494 0.665959 13.3253 1.23072 14.2969 1.95958C16.3219 3.00537 17.7 5.06873 17.7 7.44353C17.7 10.7247 15.0696 13.4115 11.7366 13.6409C11.8894 13.6515 12.0437 13.6571 12.1994 13.6571C15.7485 13.6571 18.6256 10.8753 18.6256 7.44362C18.6255 5.06873 17.2473 3.00537 15.2224 1.95958Z" fill="#EB6DA8"/>
<path d="M2.40036 7.24929C2.96503 7.0971 3.63361 7.08524 4.40569 7.33725C7.29247 8.27927 8.9938 6.91566 6.41101 4.74125C6.65529 4.25312 6.96386 3.80058 7.32576 3.39399C7.32576 3.39399 6.04647 3.14422 5.31725 4.39027C5.31725 4.39027 3.07765 3.27867 1.54038 4.12002L1.01807 5.11936V6.82869L2.40036 7.24929Z" fill="#EFEDEE"/>
<path d="M10.1247 7.45078C9.93293 7.45078 9.77759 7.2954 9.77759 7.10371V5.87734C9.77759 5.68566 9.93293 5.53027 10.1247 5.53027C10.3164 5.53027 10.4717 5.68566 10.4717 5.87734V7.10371C10.4717 7.2954 10.3164 7.45078 10.1247 7.45078Z" fill="#3A484A"/>
<path d="M2.40044 7.24796C0.852205 7.66453 0.0797695 9.13528 0.0797695 9.13528C-0.0509987 8.32627 -0.049651 7.24617 0.303976 5.87748C0.541883 4.9573 0.997169 4.4163 1.54041 4.11914C1.54041 4.11914 1.20772 5.96733 2.40044 7.24796Z" fill="#3A484A"/>
</svg>
