<svg width="16" height="20" viewBox="0 0 16 20" fill="none" xmlns="http://www.w3.org/2000/svg">
<mask id="path-1-inside-1_656_126619" fill="white">
<path d="M5.83007 12.8209C7.27384 12.6935 8.72595 12.6935 10.1697 12.8209L10.6307 12.8599C11.2612 12.922 11.8873 13.0194 12.5034 13.1509C14.0737 13.4744 15.214 14.0483 15.7188 15.1127C16.0938 15.9047 16.0938 16.8241 15.7186 17.6164C15.2126 18.6836 14.0576 19.2623 12.5151 19.5666L12.0478 19.6636C11.4231 19.7835 10.7932 19.8653 10.1675 19.9081C8.99344 20.0081 7.81387 20.0263 6.67603 19.9637C6.5506 19.9637 6.46641 19.9633 6.39224 19.9615L6.24798 19.9561C6.0726 19.9472 5.91191 19.9288 5.84448 19.909C5.05286 19.8553 4.2665 19.7407 3.51215 19.5705L3.25626 19.5171C1.82782 19.1997 0.769963 18.6271 0.280638 17.6153C0.0953188 17.2227 -0.000536545 16.7935 1.9797e-05 16.3627C-0.00159053 15.9288 0.0950472 15.5002 0.287259 15.0999C0.796872 14.0763 1.9942 13.4604 3.49082 13.1521C4.26623 12.9859 5.05235 12.8749 5.83007 12.8209ZM10.0436 14.263C8.68374 14.143 7.31605 14.143 5.94296 14.264C5.21964 14.3144 4.50075 14.4159 3.78607 14.569C2.67921 14.7971 1.83295 15.2324 1.5812 15.7379C1.4885 15.931 1.44075 16.1428 1.44154 16.3609C1.44127 16.5803 1.48966 16.797 1.58026 16.989C1.83917 17.5243 2.63773 17.9244 3.80777 18.1537L4.16029 18.2283C4.75068 18.3454 5.35874 18.4261 6.03449 18.4771C6.11983 18.4942 6.21192 18.5048 6.32118 18.5103L6.71479 18.5171C7.82497 18.5771 8.93795 18.5599 10.0576 18.4647C10.7792 18.4152 11.496 18.3112 12.2195 18.1498L12.4445 18.1021C13.472 17.8691 14.183 17.4879 14.4169 16.9944C14.6057 16.5958 14.6057 16.133 14.4171 15.7348C14.1667 15.2067 13.3751 14.8083 12.2087 14.568C11.4991 14.4165 10.7799 14.3149 10.0563 14.264L10.0436 14.263ZM8.00429 0C10.9383 0 13.3168 2.38864 13.3168 5.33517C13.3168 8.28171 10.9383 10.6703 8.00429 10.6703C5.07027 10.6703 2.69177 8.28171 2.69177 5.33517C2.69177 2.38864 5.07027 0 8.00429 0ZM8.00429 1.44767C5.8664 1.44767 4.1333 3.18816 4.1333 5.33517C4.1333 7.48218 5.8664 9.22268 8.00429 9.22268C10.1422 9.22268 11.8753 7.48218 11.8753 5.33517C11.8753 3.18816 10.1422 1.44767 8.00429 1.44767Z"/>
</mask>
<path d="M5.83007 12.8209C7.27384 12.6935 8.72595 12.6935 10.1697 12.8209L10.6307 12.8599C11.2612 12.922 11.8873 13.0194 12.5034 13.1509C14.0737 13.4744 15.214 14.0483 15.7188 15.1127C16.0938 15.9047 16.0938 16.8241 15.7186 17.6164C15.2126 18.6836 14.0576 19.2623 12.5151 19.5666L12.0478 19.6636C11.4231 19.7835 10.7932 19.8653 10.1675 19.9081C8.99344 20.0081 7.81387 20.0263 6.67603 19.9637C6.5506 19.9637 6.46641 19.9633 6.39224 19.9615L6.24798 19.9561C6.0726 19.9472 5.91191 19.9288 5.84448 19.909C5.05286 19.8553 4.2665 19.7407 3.51215 19.5705L3.25626 19.5171C1.82782 19.1997 0.769963 18.6271 0.280638 17.6153C0.0953188 17.2227 -0.000536545 16.7935 1.9797e-05 16.3627C-0.00159053 15.9288 0.0950472 15.5002 0.287259 15.0999C0.796872 14.0763 1.9942 13.4604 3.49082 13.1521C4.26623 12.9859 5.05235 12.8749 5.83007 12.8209ZM10.0436 14.263C8.68374 14.143 7.31605 14.143 5.94296 14.264C5.21964 14.3144 4.50075 14.4159 3.78607 14.569C2.67921 14.7971 1.83295 15.2324 1.5812 15.7379C1.4885 15.931 1.44075 16.1428 1.44154 16.3609C1.44127 16.5803 1.48966 16.797 1.58026 16.989C1.83917 17.5243 2.63773 17.9244 3.80777 18.1537L4.16029 18.2283C4.75068 18.3454 5.35874 18.4261 6.03449 18.4771C6.11983 18.4942 6.21192 18.5048 6.32118 18.5103L6.71479 18.5171C7.82497 18.5771 8.93795 18.5599 10.0576 18.4647C10.7792 18.4152 11.496 18.3112 12.2195 18.1498L12.4445 18.1021C13.472 17.8691 14.183 17.4879 14.4169 16.9944C14.6057 16.5958 14.6057 16.133 14.4171 15.7348C14.1667 15.2067 13.3751 14.8083 12.2087 14.568C11.4991 14.4165 10.7799 14.3149 10.0563 14.264L10.0436 14.263ZM8.00429 0C10.9383 0 13.3168 2.38864 13.3168 5.33517C13.3168 8.28171 10.9383 10.6703 8.00429 10.6703C5.07027 10.6703 2.69177 8.28171 2.69177 5.33517C2.69177 2.38864 5.07027 0 8.00429 0ZM8.00429 1.44767C5.8664 1.44767 4.1333 3.18816 4.1333 5.33517C4.1333 7.48218 5.8664 9.22268 8.00429 9.22268C10.1422 9.22268 11.8753 7.48218 11.8753 5.33517C11.8753 3.18816 10.1422 1.44767 8.00429 1.44767Z" fill="#FFCD2F" stroke="#FFCD2F" stroke-width="3" mask="url(#path-1-inside-1_656_126619)"/>
</svg>
