<svg width="19" height="23" viewBox="0 0 19 23" fill="none" xmlns="http://www.w3.org/2000/svg">
<g opacity="0.5">
<path d="M11.347 19.1756C11.0356 19.1756 10.737 19.0519 10.5168 18.8318C10.2967 18.6116 10.173 18.313 10.173 18.0016V17.1016H7.825V18.0016C7.825 18.313 7.70131 18.6116 7.48114 18.8318C7.26097 19.0519 6.96236 19.1756 6.651 19.1756L8.99899 19.567L11.347 19.1756Z" fill="#F4AA51"/>
<path d="M3.4672 13.3061H2.34799C2.14061 13.3054 1.94189 13.2228 1.79525 13.0761C1.6486 12.9295 1.56595 12.7308 1.56533 12.5234V10.1754C1.56533 10.0716 1.60656 9.97208 1.67995 9.8987C1.75333 9.82531 1.85287 9.78408 1.95666 9.78408H3.52199V8.21875H1.174C0.862632 8.21875 0.564022 8.34244 0.343855 8.56261C0.123688 8.78277 0 9.08138 0 9.39275V12.5234C0 13.1461 0.247377 13.7433 0.68771 14.1837C1.12804 14.624 1.72526 14.8714 2.34799 14.8714H4.30465L3.4672 13.3061Z" fill="#F4AA51"/>
<path d="M14.5365 13.3061H15.6558C15.8631 13.3054 16.0619 13.2228 16.2085 13.0761C16.3551 12.9295 16.4378 12.7308 16.4384 12.5234V10.1754C16.4384 10.0716 16.3972 9.97208 16.3238 9.8987C16.2504 9.82531 16.1509 9.78408 16.0471 9.78408H14.4818V8.21875H16.8298C17.1411 8.21875 17.4397 8.34244 17.6599 8.56261C17.8801 8.78277 18.0037 9.08138 18.0037 9.39275V12.5234C18.0037 13.1461 17.7564 13.7433 17.316 14.1837C16.8757 14.624 16.2785 14.8714 15.6558 14.8714H13.6991L14.5365 13.3061Z" fill="#F4AA51"/>
<path d="M14.8752 7.82812V11.3501C14.8752 12.9069 14.2568 14.4 13.1559 15.5008C12.0551 16.6016 10.562 17.2201 9.00523 17.2201C7.44842 17.2201 5.95536 16.6016 4.85453 15.5008C3.7537 14.4 3.13525 12.9069 3.13525 11.3501V7.82812H14.8752Z" fill="#F9C55D"/>
<path d="M13.308 21.9171V19.9604C13.308 19.7528 13.2256 19.5537 13.0788 19.407C12.932 19.2602 12.7329 19.1777 12.5254 19.1777H5.48139C5.27382 19.1777 5.07475 19.2602 4.92797 19.407C4.78119 19.5537 4.69873 19.7528 4.69873 19.9604V21.9171H13.308Z" fill="#416572"/>
<path d="M14.09 21.1338H3.91538C3.69925 21.1338 3.52405 21.309 3.52405 21.5251V22.3078C3.52405 22.5239 3.69925 22.6991 3.91538 22.6991H14.09C14.3061 22.6991 14.4813 22.5239 14.4813 22.3078V21.5251C14.4813 21.309 14.3061 21.1338 14.09 21.1338Z" fill="#324E56"/>
<path d="M5.09263 6.65433C4.60449 6.08573 4.32798 5.36584 4.30997 4.61666C4.30671 3.86948 4.58038 3.14759 5.07815 2.59035C5.11039 2.55286 5.15287 2.5256 5.20038 2.51192C5.2479 2.49823 5.29837 2.49871 5.34561 2.51329C5.39286 2.52787 5.43481 2.55593 5.46634 2.59402C5.49787 2.63211 5.51759 2.67857 5.52309 2.72771C5.5904 3.23252 5.77276 3.96353 6.26662 4.21477C6.16532 3.63888 6.26571 3.04568 6.55085 2.53519C6.836 2.0247 7.28847 1.62816 7.83195 1.41244C8.6334 1.12933 9.36415 0.676244 9.9741 0.0842593C10.0011 0.0540658 10.035 0.0308072 10.0729 0.0164391C10.1109 0.00207109 10.1517 -0.00298634 10.1919 0.00169202C10.2322 0.00637037 10.2707 0.0206477 10.3043 0.0433237C10.3379 0.0659997 10.3656 0.0964114 10.385 0.132002C11.2041 1.62611 10.2062 3.09321 10.5713 4.21633C10.9634 4.19569 11.3346 4.03296 11.6155 3.75856C11.8963 3.48417 12.0677 3.11689 12.0975 2.72536C12.1043 2.67834 12.1243 2.6342 12.1551 2.59803C12.1859 2.56186 12.2263 2.53513 12.2717 2.5209C12.317 2.50667 12.3654 2.50553 12.4114 2.51761C12.4574 2.52969 12.499 2.55449 12.5315 2.58917C13.2622 3.3519 13.68 4.36124 13.7019 5.41733C13.7051 5.83569 13.6479 6.25232 13.5321 6.65433L9.00595 7.04566L5.09263 6.65433Z" fill="#C74C5E"/>
<path d="M15.2633 6.65527H2.7407C2.52457 6.65527 2.34937 6.83048 2.34937 7.04661V7.82927C2.34937 8.0454 2.52457 8.2206 2.7407 8.2206H15.2633C15.4794 8.2206 15.6546 8.0454 15.6546 7.82927V7.04661C15.6546 6.83048 15.4794 6.65527 15.2633 6.65527Z" fill="#FFD37B"/>
</g>
</svg>
