<svg width="24" height="23" viewBox="0 0 24 23" fill="none" xmlns="http://www.w3.org/2000/svg">
<g opacity="0.5">
<path d="M8.95901 5.32702C8.88225 5.25574 8.78032 5.21787 8.67564 5.22174C8.57096 5.22561 8.4721 5.27091 8.40081 5.34766L3.30377 10.8367L1.88696 11.6869L1.58705 9.58732L3.14828 3.34218C3.16128 3.29171 3.16417 3.23918 3.15677 3.18759C3.14938 3.13601 3.13185 3.0864 3.1052 3.04162C3.07855 2.99684 3.0433 2.95777 3.00148 2.92667C2.95966 2.89558 2.91211 2.87306 2.86155 2.86042C2.811 2.84779 2.75844 2.84528 2.70691 2.85304C2.65538 2.86081 2.60589 2.87869 2.56131 2.90566C2.51672 2.93263 2.47791 2.96816 2.44711 3.0102C2.41631 3.05224 2.39414 3.09995 2.38186 3.1506L0.801812 9.4708C0.789414 9.52036 0.786748 9.57185 0.793962 9.62243L1.18176 12.3371L0.00260365 22.5567C-0.00940128 22.6608 0.0204249 22.7654 0.0855213 22.8474C0.150618 22.9295 0.245653 22.9824 0.349721 22.9944C0.364914 22.9962 0.380197 22.997 0.395493 22.9971C0.492336 22.9969 0.585759 22.9612 0.658011 22.8967C0.730262 22.8323 0.776306 22.7435 0.787394 22.6473L1.95036 12.5703L3.75833 11.4854C3.79023 11.4662 3.81926 11.4427 3.84454 11.4154L8.9797 5.88527C9.015 5.84725 9.04246 5.80266 9.06053 5.75403C9.07859 5.70541 9.0869 5.6537 9.08498 5.60186C9.08306 5.55002 9.07094 5.49907 9.04933 5.45191C9.02772 5.40475 8.99703 5.36231 8.95901 5.32702Z" fill="#AD6643"/>
<path d="M13.8254 20.6264L4.34509 22.6015V20.6264L13.8254 18.6514V20.6264Z" fill="#7A4830"/>
<path d="M9.87537 20.6264L19.3557 22.6015V20.6264L9.87537 18.6514V20.6264Z" fill="#7A4830"/>
<path d="M5.92354 5.22148L3.55387 7.59115C3.22667 7.91835 3.22667 8.44884 3.55387 8.77604L5.52861 10.7508C5.85581 11.078 6.38631 11.078 6.7135 10.7508L9.08318 8.38111C9.41037 8.05391 9.41037 7.52342 9.08318 7.19622L7.10843 5.22148C6.78123 4.89428 6.25074 4.89428 5.92354 5.22148Z" fill="#F7CCA9"/>
<path d="M4.34515 4.03622C4.13713 4.40028 3.53538 4.61887 3.16012 4.43124L1.58007 3.64121C1.22367 3.48849 1.09099 3.22739 1.18506 2.85119L1.97508 0.481111C2.11185 0.0252179 2.72516 -0.10721 3.16012 0.0860992L5.12076 0.876124C5.55113 1.06055 5.75772 1.65188 5.53019 2.06116L4.34515 4.03622Z" fill="#F7CCA9"/>
<path d="M14.7418 5.32702C14.8186 5.25574 14.9205 5.21787 15.0252 5.22174C15.1299 5.22561 15.2287 5.27091 15.3 5.34766L20.3971 10.8367L21.8139 11.6869L22.1138 9.58732L20.5525 3.34218C20.5395 3.29171 20.5367 3.23918 20.5441 3.18759C20.5515 3.13601 20.569 3.0864 20.5956 3.04162C20.6223 2.99684 20.6575 2.95777 20.6994 2.92667C20.7412 2.89558 20.7887 2.87306 20.8393 2.86042C20.8898 2.84779 20.9424 2.84528 20.9939 2.85304C21.0455 2.86081 21.0949 2.87869 21.1395 2.90566C21.1841 2.93263 21.2229 2.96816 21.2537 3.0102C21.2845 3.05224 21.3067 3.09995 21.319 3.1506L22.899 9.4708C22.9114 9.52035 22.9141 9.57186 22.9069 9.62243L22.5191 12.3371L23.6982 22.5567C23.7046 22.6085 23.7007 22.661 23.6867 22.7112C23.6727 22.7614 23.6489 22.8084 23.6167 22.8494C23.5845 22.8904 23.5444 22.9246 23.4989 22.95C23.4534 22.9755 23.4033 22.9916 23.3515 22.9976C23.2997 23.0036 23.2472 22.9993 23.1971 22.9849C23.147 22.9705 23.1002 22.9463 23.0595 22.9137C23.0188 22.8811 22.9849 22.8408 22.9598 22.7951C22.9348 22.7494 22.919 22.6991 22.9134 22.6473L21.7505 12.5703L19.9423 11.4854C19.9104 11.4662 19.8814 11.4427 19.8561 11.4154L14.7209 5.88527C14.6856 5.84724 14.6582 5.80264 14.6402 5.754C14.6221 5.70537 14.6138 5.65366 14.6158 5.60182C14.6177 5.54998 14.6298 5.49903 14.6515 5.45188C14.6731 5.40473 14.7038 5.3623 14.7418 5.32702Z" fill="#AD6643"/>
<path d="M14.6167 8.38456L16.9864 10.7542C17.3136 11.0814 17.8441 11.0814 18.1713 10.7542L20.146 8.77949C20.4732 8.45229 20.4732 7.9218 20.146 7.5946L17.7764 5.22493C17.4492 4.89773 16.9187 4.89773 16.5915 5.22493L14.6167 7.19967C14.2895 7.52687 14.2895 8.05737 14.6167 8.38456Z" fill="#F7CCA9"/>
<path d="M19.3555 4.03622C19.5635 4.40028 20.1653 4.61887 20.5405 4.43124L22.1206 3.64121C22.477 3.48849 22.6094 3.22739 22.5156 2.85119L21.7256 0.481111C21.5888 0.0252179 20.9755 -0.10721 20.5405 0.0860992L18.5798 0.876124C18.1495 1.06055 17.9429 1.65188 18.1704 2.06116L19.3555 4.03622Z" fill="#F7CCA9"/>
<path d="M10.2703 17.072C9.1796 17.072 7.90025 15.6574 7.90025 13.9119C7.90025 13.824 7.90272 13.6033 7.90717 13.5169C7.40353 14.2694 7.11023 15.3083 7.11023 16.282C7.11023 17.5392 7.60964 18.7448 8.49859 19.6338C9.38754 20.5227 10.5932 21.0222 11.8504 21.0222C13.1075 21.0222 14.3132 20.5227 15.2022 19.6338C16.0911 18.7448 16.5905 17.5392 16.5905 16.282C16.5905 15.0422 16.1856 13.5717 15.4055 12.7269C15.1754 13.8966 14.339 15.097 13.4304 15.097C12.3397 15.097 11.4554 14.2541 11.4554 12.7269C11.4554 11.9591 12.2558 10.3635 12.2454 10.3682C7.90025 12.3319 10.2703 17.072 10.2703 17.072Z" fill="#EB423F"/>
<path d="M14.2177 20.3889C13.5625 20.7658 12.8267 20.9809 12.0716 21.0162C11.3166 21.0515 10.564 20.906 9.87646 20.5918C9.90807 18.6513 12.6643 18.6375 12.2456 16.2812C12.2456 16.2812 14.1322 17.0357 14.2177 20.3889Z" fill="#F7B030"/>
<path d="M11.8508 22.603C12.5053 22.603 13.0358 21.984 13.0358 21.2204C13.0358 20.4569 12.5053 19.8379 11.8508 19.8379C11.1963 19.8379 10.6658 20.4569 10.6658 21.2204C10.6658 21.984 11.1963 22.603 11.8508 22.603Z" fill="#AD6643"/>
<path d="M19.3561 22.603C19.7924 22.603 20.1461 22.1609 20.1461 21.6155C20.1461 21.0701 19.7924 20.6279 19.3561 20.6279C18.9197 20.6279 18.566 21.0701 18.566 21.6155C18.566 22.1609 18.9197 22.603 19.3561 22.603Z" fill="#AD6643"/>
<path d="M4.34557 22.603C4.78189 22.603 5.13559 22.1609 5.13559 21.6155C5.13559 21.0701 4.78189 20.6279 4.34557 20.6279C3.90925 20.6279 3.55554 21.0701 3.55554 21.6155C3.55554 22.1609 3.90925 22.603 4.34557 22.603Z" fill="#AD6643"/>
</g>
</svg>
