<svg width="23" height="24" viewBox="0 0 23 24" fill="none" xmlns="http://www.w3.org/2000/svg">
<g opacity="0.5">
<path d="M17.5645 2.02148L16.666 2.69531L17.5645 3.36914V6.06445H5.43555V3.36914L6.13947 2.86018L5.43555 2.02148V0H10.8262L11.5 0.934824L11.5225 0.96582L12.1738 0H17.5645V2.02148Z" fill="#FF6C6C"/>
<path d="M17.5645 2.02148L16.666 2.69531L17.5645 3.36914V6.06445H11.5V0.934824L11.5225 0.96582L12.1738 0H17.5645V2.02148Z" fill="#E63950"/>
<path d="M17.5645 2.02148V3.36914H15.3184V6.06445H13.9707V3.36914H9.0293V6.06445H7.68164V3.36914H5.43555V2.02148H10.8262V0H12.1738V2.02148H17.5645Z" fill="#FFD396"/>
<path d="M17.5645 2.02148V3.36914H15.3184V6.06445H13.9707V3.36914H11.5V0H12.1738V2.02148H17.5645Z" fill="#FFB64C"/>
<path d="M21.6074 8.75977V23H18.9121L11.5 21.6074L4.08789 23H1.39258V8.75977H21.6074Z" fill="#FF6C6C"/>
<path d="M21.6074 8.75977V23H18.9121L11.5 21.6074V8.75977H21.6074Z" fill="#E63950"/>
<path d="M18.9121 12.2188V23H4.08789V12.2188H6.63227C7.01455 12.2188 7.37527 12.1285 7.6758 11.9578C8.38871 11.5517 9.83385 10.8711 11.5 10.8711C13.1662 10.8711 14.6113 11.5517 15.3242 11.9578C15.6247 12.1285 15.9854 12.2188 16.3677 12.2188H18.9121Z" fill="#61729B"/>
<path d="M18.9121 12.2188V23H11.5V10.8711C13.1662 10.8711 14.6113 11.5517 15.3242 11.9578C15.6247 12.1285 15.9854 12.2188 16.3677 12.2188H18.9121Z" fill="#47568C"/>
<path d="M0 5.39062V9.43359H23V5.39062H0Z" fill="#E63950"/>
<path d="M11.5 5.39062H23V9.43359H11.5V5.39062Z" fill="#AE2538"/>
<path d="M11.4857 13.7641C11.2644 13.6796 11.251 13.6815 10.138 13.3086V14.6374C10.138 15.4815 9.6659 16.3062 8.84248 16.9001C7.79894 17.653 7.2801 18.9153 7.48853 20.1947C7.74863 21.7957 9.23959 23.0032 10.9561 23.0032H12.1029C14.0372 23.0032 15.5664 21.4094 15.5273 19.5042C15.4747 16.9446 13.8625 14.6711 11.4857 13.7641Z" fill="#FFD396"/>
<path d="M15.5416 19.5009C15.5807 21.406 14.0516 22.9998 12.1172 22.9998H11.5V13.7607C13.8768 14.6677 15.4891 16.9412 15.5416 19.5009Z" fill="#FFB64C"/>
<path d="M12.5648 19.1327C12.015 18.5186 12.0195 18.4719 11.5078 17.8848C11.0424 18.4701 10.9683 18.6161 10.294 19.3286C9.87895 19.7674 9.48633 20.1825 9.48633 20.9754C9.48633 22.0899 10.3933 22.9969 11.5078 22.9969C12.6223 22.9969 13.5293 22.0899 13.5293 20.9754C13.5293 20.2095 13.2072 19.8496 12.5648 19.1327Z" fill="#FFB64C"/>
<path d="M12.557 19.1356C12.0072 18.5215 12.0117 18.4748 11.5 17.8877V22.9998C12.6145 22.9998 13.5215 22.0928 13.5215 20.9783C13.5215 20.2124 13.1994 19.8526 12.557 19.1356Z" fill="#FF9100"/>
</g>
</svg>
