<svg width="18" height="23" viewBox="0 0 18 23" fill="none" xmlns="http://www.w3.org/2000/svg">
<g opacity="0.5">
<path d="M13.235 3.33048C13.0374 3.14483 12.7133 3.25467 12.6682 3.52193C12.5615 4.15189 12.3407 5.17246 11.9235 6.11143C11.9235 6.11143 11.0982 1.57308 5.60332 0.0132714C5.3659 -0.0541116 5.13778 0.144879 5.17393 0.388967C5.37327 1.7375 5.73264 5.54236 4.19512 9.18613C3.3953 7.55999 2.11677 6.92582 1.30291 6.68015C1.03022 6.59785 0.781397 6.86475 0.88756 7.12902C1.59877 8.90186 0 11.1169 0 14.1377C0 19.0323 3.9677 23 8.86227 23C13.7567 23 17.7244 19.0323 17.7244 14.1379C17.7244 8.12432 14.4817 4.50126 13.235 3.33048Z" fill="#FEC37C"/>
<path d="M14.9013 15.6205C14.8627 12.7242 13.7175 10.7221 13.0958 9.84538C12.9359 9.61989 12.5944 9.64797 12.4706 9.89486C12.2802 10.2741 11.9745 10.7535 11.5584 11.003C11.5584 11.003 9.79472 9.58164 9.71242 7.45223C9.70312 7.20919 9.46026 7.04495 9.22986 7.12321C8.29597 7.44082 6.31397 8.50772 5.83492 11.9069C5.44115 11.1981 4.50726 10.9911 3.90713 10.9328C3.65708 10.9084 3.4551 11.1395 3.5174 11.3829C3.97469 13.1687 2.82251 14.2358 2.82251 15.7703C2.82251 19.1002 5.5173 21.8008 8.84487 21.8102C12.2233 21.8199 14.9462 18.9986 14.9013 15.6205Z" fill="#F26365"/>
<path d="M5.83019 16.9439C5.63857 16.9439 5.48328 16.7886 5.48328 16.5968V16.0483C5.48328 15.8565 5.63857 15.7012 5.83019 15.7012C6.02199 15.7012 6.17729 15.8565 6.17729 16.0483V16.5968C6.17729 16.7886 6.02199 16.9439 5.83019 16.9439Z" fill="#57565B"/>
<path d="M11.8935 16.9439C11.7019 16.9439 11.5464 16.7886 11.5464 16.5968V16.0483C11.5464 15.8565 11.7019 15.7012 11.8935 15.7012C12.0851 15.7012 12.2406 15.8565 12.2406 16.0483V16.5968C12.2406 16.7886 12.0851 16.9439 11.8935 16.9439Z" fill="#57565B"/>
<path d="M8.86174 17.2371C8.4699 17.2371 8.10193 17.0732 7.85205 16.7874C7.72606 16.6431 7.74062 16.4238 7.88504 16.2976C8.02946 16.1716 8.24863 16.1862 8.37479 16.3306C8.49271 16.4655 8.6703 16.5429 8.86174 16.5429C9.05319 16.5429 9.23059 16.4655 9.34851 16.3306C9.47468 16.1862 9.69403 16.1716 9.83827 16.2976C9.98269 16.4238 9.99743 16.6431 9.87126 16.7874C9.62138 17.0732 9.25341 17.2371 8.86174 17.2371Z" fill="#57565B"/>
</g>
</svg>
