<svg width="23" height="23" viewBox="0 0 23 23" fill="none" xmlns="http://www.w3.org/2000/svg">
<circle cx="11.5" cy="11.5" r="11.5" fill="#CC9100"/>
<path d="M11.4986 22.4858C17.5655 22.4858 22.4837 17.5676 22.4837 11.5007C22.4837 5.43381 17.5655 0.515625 11.4986 0.515625C5.43174 0.515625 0.51355 5.43381 0.51355 11.5007C0.51355 17.5676 5.43174 22.4858 11.4986 22.4858Z" fill="#FFE666"/>
<path d="M22.4837 11.5007C22.4837 5.46706 17.5323 0.515625 11.4987 0.515625V22.4858C17.5323 22.4858 22.4837 17.5343 22.4837 11.5007Z" fill="#FABE2C"/>
<path d="M17.2954 10.8569H19.9129V12.1442H17.2954V10.8569Z" fill="#FF9100"/>
<path d="M3.0918 10.8569H5.70933V12.1442H3.0918V10.8569Z" fill="#FABE2C"/>
<path d="M16.5429 17.3473C16.1255 16.8746 15.5938 16.5119 15.0796 16.1612C14.0569 15.4628 13.4296 14.9479 13.4296 14.0754V13.4318H14.4711L14.7848 12.8044C15.5824 11.2085 16.0042 9.42271 16.0042 7.63884C16.0042 5.15471 13.9827 3.09033 11.4986 3.09033C9.01447 3.09033 6.993 5.15471 6.993 7.63884C6.993 9.4906 7.89562 11.2418 9.37968 12.3242C9.08111 12.9886 8.46638 13.6134 7.82147 14.2684C6.97292 15.1301 6.0948 16.0643 5.80378 17.2065L5.70569 17.5899L6.00426 17.8508C7.52792 19.1796 9.47902 19.9112 11.4986 19.9112C13.2894 19.9112 14.9985 19.3512 16.4411 18.292L17.0087 17.8753L16.5429 17.3473Z" fill="#FABE2C"/>
<path d="M17.0087 17.8753L16.543 17.3473C16.1256 16.8746 15.5938 16.5119 15.0796 16.1612C14.0569 15.4628 13.4296 14.9479 13.4296 14.0754V13.4318H14.4711L14.7848 12.8044C15.5825 11.2085 16.0043 9.42271 16.0043 7.63884C16.0043 5.15471 13.9828 3.09033 11.4987 3.09033V19.9112C13.2894 19.9112 14.9986 19.3512 16.4411 18.292L17.0087 17.8753Z" fill="#FF9100"/>
</svg>
