<svg width="27" height="45" viewBox="0 0 27 45" fill="none" xmlns="http://www.w3.org/2000/svg">
<g opacity="0.5">
<g clip-path="url(#clip0_1580_19531)">
<path d="M12.7168 20.9665C12.903 21.2458 12.8472 21.6182 12.5865 21.8044C12.3258 22.0092 11.9535 21.9347 11.7486 21.674C11.4321 21.283 11.5252 20.5941 11.9535 20.2031C11.9348 20.4266 11.9721 20.6127 12.0466 20.7617C12.2886 20.6686 12.5493 20.7617 12.7168 20.9665Z" fill="#F25900"/>
<path d="M14.4485 19.7191C14.2623 19.6074 14.0947 19.5329 13.9272 19.5329C13.8713 19.775 13.6665 19.9611 13.4058 19.9984C13.0707 20.0356 12.7914 19.7936 12.7541 19.4584C12.7169 19.1233 12.959 18.8626 13.2941 18.8068C13.7782 18.7137 14.3181 19.1605 14.4485 19.7191Z" fill="#F25900"/>
<path d="M14.6905 20.7802C14.9884 20.9106 15.1001 21.2643 14.9884 21.5809C14.8022 22.065 14.1505 22.307 13.6106 22.1394C13.7968 22.0463 13.9457 21.916 14.0388 21.7857C13.8526 21.6181 13.7968 21.3388 13.8899 21.0968C14.0388 20.7802 14.3926 20.6313 14.6905 20.7802Z" fill="#F25900"/>
<path d="M15.9938 20.6872C15.9938 20.8734 15.9752 21.0596 15.938 21.2458C15.8262 21.8043 15.5283 22.307 15.1187 22.6608C14.6532 23.089 14.0202 23.3311 13.3499 23.3311C12.6796 23.3311 12.0466 23.0704 11.5811 22.6608C11.1715 22.2884 10.8736 21.8043 10.7432 21.2458C10.706 21.0596 10.6874 20.8734 10.6874 20.6872C10.6874 20.3334 10.7619 20.0169 10.8736 19.7004C11.097 19.1418 11.5066 18.6577 12.0466 18.3598C12.4376 18.1364 12.8658 18.0247 13.3499 18.0247C13.8154 18.0247 14.2622 18.155 14.6532 18.3598C15.1746 18.6577 15.5842 19.1232 15.8262 19.7004C15.9193 19.9983 15.9938 20.3334 15.9938 20.6872ZM14.9884 21.5623C15.1001 21.2458 14.9884 20.9106 14.6905 20.7617C14.3926 20.6313 14.0388 20.7617 13.8899 21.0596C13.7781 21.3016 13.8526 21.5809 14.0388 21.7485C13.9457 21.8788 13.7968 22.0091 13.6106 22.1022C14.1505 22.307 14.8208 22.0464 14.9884 21.5623ZM13.9271 19.5328C14.0947 19.5328 14.2622 19.6073 14.4484 19.719C14.3367 19.1604 13.7781 18.7136 13.2754 18.8067C12.9403 18.8625 12.6982 19.1418 12.7355 19.4583C12.7727 19.7935 13.0706 20.0355 13.3871 19.9983C13.6664 19.961 13.8712 19.7749 13.9271 19.5328ZM12.5679 21.8043C12.8286 21.6181 12.903 21.2458 12.6982 20.9665C12.5493 20.7617 12.27 20.6686 12.028 20.743C11.9535 20.5941 11.9162 20.4079 11.9349 20.1845C11.5066 20.5755 11.3949 21.2644 11.73 21.6554C11.9535 21.9347 12.3072 22.0091 12.5679 21.8043Z" fill="#FFAA00"/>
<path d="M9.6261 31.0022C9.73781 31.2256 10.4826 31.5422 11.3763 31.3001C10.9667 31.6725 10.4453 31.7656 10.2405 31.747C10.073 31.6539 9.924 31.5608 9.88677 31.5235C9.86815 31.4863 9.77505 31.3001 9.6261 31.0022Z" fill="#1C592C"/>
<path d="M17.0365 31.0208C16.8876 31.3 16.7945 31.4862 16.7572 31.5235C16.72 31.5607 16.5897 31.6538 16.4035 31.7469C16.1987 31.7655 15.6773 31.6724 15.2677 31.3C16.18 31.5607 16.9248 31.2256 17.0365 31.0208Z" fill="#1C592C"/>
<path d="M18.9542 24.7649C19.0473 24.8579 19.1777 24.9697 19.308 25.0814C19.1218 25.0441 18.8053 25.0069 18.2653 25.0069C18.2653 24.9697 18.2653 24.9324 18.2467 24.8952C18.1536 24.5414 17.6881 24.3738 17.6136 24.3738C17.7626 24.318 17.8929 24.2621 18.0233 24.1877C18.3398 24.0201 18.6005 23.8339 18.8239 23.6477C18.6936 24.0387 18.6005 24.4111 18.9542 24.7649Z" fill="#277D3E"/>
<path d="M8.65795 24.1876C8.76966 24.2435 8.9 24.3179 9.04895 24.3738C8.97447 24.3738 8.509 24.5414 8.4159 24.8951C8.4159 24.9324 8.39728 24.9696 8.39728 25.0068C7.85733 25.0068 7.54081 25.0255 7.35461 25.0813C7.48495 24.9696 7.61528 24.8579 7.70838 24.7648C8.06214 24.411 7.95043 24.0386 7.85733 23.6663C8.08076 23.8525 8.34143 24.0386 8.65795 24.1876Z" fill="#277D3E"/>
<path d="M7.85723 23.6663C7.96895 24.0387 8.06204 24.4111 7.70828 24.7649C7.61518 24.8579 7.48485 24.9697 7.35452 25.0814C7.57794 24.8021 7.3359 24.2435 7.26142 23.8711C7.26142 23.8339 7.2428 23.8153 7.2428 23.778C7.22418 23.4615 7.44761 23.2939 7.44761 23.2939C7.57794 23.4057 7.70828 23.536 7.85723 23.6663Z" fill="#1C592C"/>
<path d="M19.1962 23.2754C19.1962 23.2754 19.4197 23.443 19.4011 23.7595C19.4011 23.7967 19.4011 23.8153 19.3824 23.8526C19.308 24.225 19.0659 24.7835 19.2893 25.0628C19.159 24.9511 19.0473 24.8394 18.9356 24.7463C18.5818 24.3925 18.6935 24.0202 18.7866 23.6478C18.9542 23.5361 19.0845 23.4057 19.1962 23.2754Z" fill="#1C592C"/>
<path d="M18.3398 28.4701C18.3398 28.4701 18.3026 28.5446 18.2467 28.6563C18.0978 28.9728 17.7626 29.6245 17.4461 30.2203C17.9302 29.2707 15.9007 28.0791 15.9007 28.0791L15.8076 27.7253C15.8076 27.744 17.353 28.3956 18.3398 28.4701Z" fill="#1C592C"/>
<path d="M10.8736 27.7439L10.7805 28.0977C10.7805 28.0977 8.75105 29.3079 9.23515 30.2389C8.93724 29.643 8.6021 28.9914 8.43453 28.6749C8.37867 28.5445 8.34143 28.4887 8.34143 28.4887C9.30962 28.3956 10.8736 27.7439 10.8736 27.7439Z" fill="#1C592C"/>
<path d="M13.3312 31.989C13.7967 31.989 14.5229 32.6221 13.9643 33.0503C13.6292 33.1248 13.3312 33.1993 13.3312 33.1993C13.3312 33.1993 13.0147 33.1434 12.6982 33.0503C12.1582 32.6221 12.8658 31.989 13.3312 31.989Z" fill="#277D3E"/>
<path d="M14.765 30.6113C14.4112 30.4623 13.834 31.1326 13.3313 31.1326C12.8472 31.1326 12.27 30.481 11.9163 30.6113C12.028 30.5741 12.1397 30.5368 12.2328 30.5182C12.6052 30.4996 13.3499 30.481 13.3499 30.481C13.3499 30.481 14.0761 30.481 14.4671 30.5182C14.5416 30.5368 14.6533 30.5741 14.765 30.6113Z" fill="#277D3E"/>
<path d="M15.8076 27.7439L15.9007 28.0977C15.9007 28.0977 15.5469 28.5259 15.1559 28.619C14.7649 28.7121 14.7091 28.7307 14.4857 28.861C14.2622 28.9914 13.6664 29.3638 13.3313 29.3638C12.9961 29.3638 12.4003 28.9914 12.1769 28.861C11.9535 28.7307 11.8976 28.7121 11.5066 28.619C11.1156 28.5259 10.7618 28.0977 10.7618 28.0977L10.8549 27.7439H10.8736C10.8922 27.8742 10.948 27.9673 11.0597 28.079C11.2087 28.228 11.7114 28.3211 11.879 28.3397C12.0466 28.3583 12.4562 28.7307 12.6982 28.7866C12.9403 28.8424 13.3313 28.861 13.3313 28.861C13.3313 28.861 13.7223 28.861 13.9643 28.7866C14.2064 28.7307 14.616 28.3397 14.7836 28.3397C14.9511 28.3211 15.4352 28.228 15.6028 28.079C15.7145 27.9673 15.7704 27.8742 15.8076 27.7439Z" fill="#277D3E"/>
<path d="M14.5416 25.0442L14.132 25.4166C14.132 25.4166 13.9644 26.1427 13.3313 26.4965C12.6983 26.1427 12.5307 25.4166 12.5307 25.4166L12.1211 25.0442C12.5307 25.0814 12.9217 25.1 13.3313 25.1C13.741 25.1187 14.1506 25.0814 14.5416 25.0442Z" fill="#277D3E"/>
<path d="M19.7176 25.5283C19.8479 25.7145 19.941 25.9007 19.9038 26.0869C19.8665 26.3103 19.7735 26.6827 19.5873 27.0923C19.3452 27.595 18.9356 28.135 18.3212 28.4701C17.3344 28.3957 15.789 27.744 15.789 27.744H15.7704C15.789 27.6881 15.789 27.6323 15.789 27.5764C15.789 27.3716 15.5097 26.8689 15.2863 26.7572C15.2863 26.7572 17.0737 26.9061 18.0605 26.813C19.0473 26.7199 19.941 25.9379 19.7176 25.5283Z" fill="#277D3E"/>
<path d="M14.8394 26.3103C14.8394 26.3103 14.858 26.6454 15.1932 26.7013C14.9325 26.7013 14.5043 26.9061 14.1877 27.2226C14.3367 26.7572 14.8394 26.3103 14.8394 26.3103Z" fill="#277D3E"/>
<path d="M11.8231 26.3103C11.8231 26.3103 12.3258 26.7385 12.4748 27.2226C12.1583 26.9061 11.73 26.7013 11.4694 26.7013C11.8045 26.6454 11.8231 26.3103 11.8231 26.3103Z" fill="#277D3E"/>
<path d="M11.3763 26.7384C11.1342 26.8687 10.8736 27.3714 10.855 27.5576C10.855 27.6321 10.855 27.688 10.8736 27.7252H10.855C10.855 27.7252 9.29095 28.3769 8.32276 28.4513C7.70833 28.1162 7.29871 27.5762 7.05666 27.0735C6.87047 26.6825 6.77737 26.2915 6.74014 26.0681C6.72152 25.8819 6.79599 25.6771 6.92633 25.5095C6.7029 25.9191 7.59661 26.7011 8.58342 26.7942C9.58886 26.8873 11.3763 26.7384 11.3763 26.7384Z" fill="#277D3E"/>
<path d="M15.9007 28.0792C15.9007 28.0792 17.9302 29.2894 17.4461 30.2204C17.2971 30.4996 17.1668 30.7789 17.0551 31.0024C16.9248 31.2258 16.1986 31.5423 15.3049 31.2816C15.7145 31.654 16.2359 31.7471 16.4407 31.7285C16.1241 31.9147 15.7145 32.1381 15.7145 32.1381C15.6959 32.1009 15.6773 32.0637 15.6587 32.045C15.398 31.7285 14.9325 31.6913 14.616 31.9519C14.3367 32.194 14.2809 32.585 14.467 32.9015C14.3367 32.9387 14.1691 32.976 14.0016 33.0132C14.5415 32.585 13.834 31.9519 13.3685 31.9519C12.903 31.9519 12.1769 32.585 12.7355 33.0132C12.5679 32.976 12.4003 32.9387 12.27 32.9015C12.4562 32.6036 12.4003 32.194 12.121 31.9519C11.8045 31.6913 11.339 31.7285 11.0784 32.045C11.0597 32.0637 11.0411 32.1009 11.0225 32.1381C11.0225 32.1381 10.6129 31.9147 10.2964 31.7285C10.5012 31.7471 11.0225 31.654 11.4321 31.2816C10.5384 31.5423 9.79365 31.2072 9.68194 30.9837C9.57022 30.7603 9.42127 30.4996 9.29094 30.2017C8.80684 29.2522 10.8363 28.0605 10.8363 28.0605C10.8363 28.0605 11.1901 28.4888 11.5811 28.5819C11.9721 28.675 12.0279 28.6936 12.2514 28.8239C12.4748 28.9543 13.0706 29.3266 13.4058 29.3266C13.7409 29.3266 14.3367 28.9543 14.5601 28.8239C14.7836 28.6936 14.8394 28.675 15.2304 28.5819C15.5469 28.5074 15.9007 28.0792 15.9007 28.0792ZM15.9007 30.8348C16.5896 30.7045 16.8689 29.6246 16.7758 29.3453C16.7572 29.308 16.7386 29.2708 16.72 29.2522C16.571 29.0846 16.2731 28.9915 15.9007 28.9543C15.8449 28.9543 15.7704 28.9356 15.6959 28.9356C15.5283 28.9356 15.3794 28.9729 15.2304 29.0287C14.9325 29.1591 14.6719 29.3825 14.3926 29.4942C13.9829 29.6804 13.3313 29.6432 13.3313 29.6432C13.3313 29.6432 12.6796 29.6618 12.27 29.4942C11.9907 29.3825 11.73 29.1591 11.4321 29.0287C11.2832 28.9729 11.1342 28.9356 10.9667 28.9356C10.8922 28.9356 10.8363 28.9356 10.7618 28.9543C10.4081 28.9915 10.0916 29.0846 9.96122 29.2522C9.9426 29.2894 9.92399 29.3266 9.90537 29.3453C9.81227 29.6059 10.0916 30.6858 10.7805 30.8348C11.2832 30.9279 11.6369 30.7417 11.9162 30.6114C12.27 30.4624 12.8472 31.1327 13.3313 31.1327C13.8154 31.1327 14.3926 30.481 14.7649 30.6114C15.0629 30.7417 15.398 30.9465 15.9007 30.8348Z" fill="#33A150"/>
<path d="M19.7176 25.5282C19.6059 25.3606 19.4383 25.2116 19.2893 25.0813C19.1032 25.0441 18.7866 25.0068 18.2467 25.0068C18.2653 25.3047 18.0605 25.9378 16.7572 26.1612C15.9565 26.2916 15.398 26.1985 14.9697 26.0123C14.5973 25.8447 14.3367 25.6213 14.1319 25.4351C14.1319 25.4351 13.9643 26.1612 13.3312 26.515C12.6982 26.1612 12.5306 25.4351 12.5306 25.4351C12.0838 25.8447 11.3762 26.4219 9.90533 26.1612C8.60199 25.9378 8.39718 25.3047 8.4158 25.0068C7.87585 25.0068 7.55932 25.0255 7.37313 25.0813C7.22418 25.2116 7.07523 25.3606 6.94489 25.5282C6.72147 25.9378 7.61518 26.7198 8.60199 26.8129C9.5888 26.8874 11.3762 26.757 11.3762 26.757C11.1342 26.8874 10.8735 27.3901 10.8549 27.5763C10.8549 27.6507 10.8549 27.7066 10.8735 27.7438C10.8921 27.8742 10.948 27.9673 11.0597 28.079C11.2087 28.2279 11.7114 28.321 11.879 28.3397C12.0465 28.3583 12.4561 28.7307 12.6982 28.7865C12.9402 28.8424 13.3312 28.861 13.3312 28.861C13.3312 28.861 13.7222 28.861 13.9643 28.7865C14.2063 28.7307 14.616 28.3397 14.7835 28.3397C14.9511 28.321 15.4352 28.2279 15.6028 28.079C15.7145 27.9673 15.7703 27.8742 15.789 27.7438C15.8076 27.688 15.8076 27.6321 15.8076 27.5763C15.8076 27.3715 15.5283 26.8687 15.3049 26.757C15.3049 26.757 17.0923 26.906 18.0791 26.8129C19.0473 26.7198 19.941 25.9378 19.7176 25.5282ZM11.4693 26.7198C11.7859 26.6453 11.8231 26.3288 11.8231 26.3288C11.8231 26.3288 12.3258 26.757 12.4748 27.2411C12.1582 26.9246 11.73 26.7198 11.4693 26.7198ZM14.1877 27.2411C14.3367 26.757 14.8394 26.3288 14.8394 26.3288C14.8394 26.3288 14.858 26.6639 15.1931 26.7198C14.9325 26.7198 14.5042 26.9246 14.1877 27.2411Z" fill="#33A150"/>
<path d="M12.0652 31.989C12.3444 32.2311 12.4003 32.6221 12.2141 32.9386C12.1955 32.9758 12.1769 33.0131 12.1396 33.0317C12.0279 33.162 11.7672 33.2924 11.488 33.4227C11.0597 33.6089 10.5942 33.7764 10.557 33.7951C11.4135 32.9944 12.0652 31.989 12.0652 31.989Z" fill="#D1C2BA"/>
<path d="M16.1056 33.7951C16.0497 33.7764 15.6029 33.6089 15.1746 33.4227C14.8953 33.2924 14.6347 33.1434 14.5229 33.0317C14.5043 32.9944 14.4671 32.9758 14.4485 32.9386C14.2623 32.6407 14.3181 32.2311 14.5974 31.989C14.5974 31.989 15.2491 32.9944 16.1056 33.7951Z" fill="#D1C2BA"/>
<path d="M15.9007 28.9727C15.9007 28.9727 15.789 29.5127 15.8076 30.3692C15.5283 30.1271 15.2863 29.6616 15.249 29.0472C15.398 28.9913 15.5469 28.9541 15.7145 28.9541C15.7704 28.9541 15.8448 28.9541 15.9007 28.9727Z" fill="#D1C2BA"/>
<path d="M11.4322 29.0473C11.3949 29.6617 11.1343 30.1272 10.8736 30.3693C10.8736 29.4942 10.7805 28.9728 10.7805 28.9728C10.855 28.9728 10.9109 28.9542 10.9853 28.9542C11.1343 28.9356 11.2832 28.9728 11.4322 29.0473Z" fill="#D1C2BA"/>
<path d="M12.0652 31.9889C12.0652 31.9889 11.4135 32.9944 10.5757 33.795C10.5757 33.795 10.6315 33.4412 10.706 33.0502C10.7805 32.7151 10.8736 32.3613 10.9667 32.1565C10.9853 32.1193 11.0039 32.082 11.0225 32.0634C11.2832 31.7469 11.7673 31.7096 12.0652 31.9889Z" fill="#F5ECE7"/>
<path d="M16.1056 33.7951C15.2491 32.9945 14.5974 31.9891 14.5974 31.9891C14.9139 31.7284 15.3794 31.7656 15.6401 32.0822C15.6587 32.1008 15.6773 32.138 15.6959 32.1753C15.8077 32.3801 15.9007 32.7338 15.9566 33.069C16.0497 33.4414 16.1056 33.7951 16.1056 33.7951Z" fill="#F5ECE7"/>
<path d="M16.72 29.252C16.72 29.252 16.18 29.8851 15.8076 30.3505C15.8076 29.4754 15.9007 28.9541 15.9007 28.9541C16.2545 29.01 16.571 29.1031 16.72 29.252Z" fill="#F5ECE7"/>
<path d="M10.7619 28.9727C10.7619 28.9727 10.8736 29.5126 10.855 30.3691C10.4826 29.885 9.94263 29.2706 9.94263 29.2706C10.0916 29.103 10.4081 28.9913 10.7619 28.9727Z" fill="#F5ECE7"/>
<path d="M26.6066 32.5476C26.7556 32.9386 26.588 33.4413 26.197 33.3855C25.806 33.3296 22.9201 32.9759 22.2498 32.7897C21.6912 32.6407 21.3933 32.4545 21.2071 31.9704C21.1699 31.8773 21.1512 31.7842 21.114 31.6725C21.0582 31.5049 20.9464 31.1139 20.7975 30.6671C20.7602 30.5181 20.7044 30.3878 20.6485 30.2202C20.5554 29.6989 20.8161 28.9355 21.1699 28.4514C21.4492 29.3265 21.8215 30.5181 21.9705 30.9278C22.2125 31.598 22.5104 31.8215 23.1807 31.9518C23.8696 32.1194 26.6066 32.5476 26.6066 32.5476Z" fill="#FFAA00"/>
<path d="M26.5881 32.4918C26.6067 32.5104 26.6067 32.529 26.6067 32.5476C26.6067 32.5476 23.8697 32.1194 23.1808 31.9891C22.5105 31.8401 22.194 31.6353 21.9705 30.965C21.8216 30.5554 21.4492 29.3638 21.1699 28.4887C21.2816 28.3583 21.3934 28.228 21.5051 28.1535C22.0264 27.7998 23.8325 27.0364 23.8325 27.0364C24.5772 28.4887 26.1785 31.6353 26.5881 32.4918Z" fill="#31363D"/>
<path d="M25.6199 24.0946C25.9365 24.7276 25.6758 25.2303 25.1917 25.491C24.9683 25.6027 24.2421 25.9192 23.4415 26.273C22.5105 26.664 21.4865 27.1109 21.0396 27.3715C20.9838 27.4088 20.9093 27.446 20.8721 27.4832C20.2018 28.0046 20.2204 28.9355 20.3507 29.3079C20.2576 29.0286 20.1645 28.7493 20.0714 28.4887C19.997 28.2466 19.9039 28.0232 19.848 27.8184C19.848 27.4832 20.0156 26.8688 20.8162 26.4219C21.6168 25.9937 23.7208 25.0255 24.0745 24.8393C24.4283 24.6531 24.5773 24.4856 24.4469 24.1132C24.3166 23.7408 23.6277 21.9534 23.4974 21.7113C23.367 21.4693 23.1622 21.3389 22.8084 21.4134C22.4361 21.5065 20.7604 22.1582 19.4198 23.778C19.4384 23.4615 19.215 23.2939 19.215 23.2939C19.5315 22.9402 19.6618 22.6795 19.6618 22.6795C20.0156 22.2885 20.4438 21.9347 20.8534 21.6368C21.6541 21.0783 22.4547 20.7059 22.8271 20.5756C23.4043 20.3894 23.907 20.6128 24.0745 20.9479C24.2607 21.2458 25.3034 23.4615 25.6199 24.0946Z" fill="#FFAA00"/>
<path d="M25.4709 10.4653C25.4709 10.4653 24.1117 12.5507 23.1807 15.0456C22.4546 17.0379 21.5981 18.8812 20.0713 20.2962C19.699 20.6314 19.2893 20.9479 18.8425 21.2458C18.0605 21.7299 17.1295 22.1395 16.031 22.4374C16.3103 22.0092 16.4965 21.5065 16.5337 20.9665C19.0101 19.7004 20.1458 17.0937 20.2762 14.394C21.263 12.0852 23.069 10.7446 25.4709 10.4653Z" fill="#FF7B00"/>
<path d="M24.4468 24.1133C24.5772 24.4857 24.4282 24.6719 24.0744 24.8394C23.7207 25.0256 21.5981 25.9752 20.8161 26.4221C20.0155 26.8503 19.8479 27.4833 19.8479 27.8185C19.699 27.3902 19.6059 27.0923 19.6059 27.0923C19.7921 26.7013 19.8851 26.3103 19.9224 26.0869C19.941 25.9007 19.8665 25.7145 19.7362 25.5283C19.6245 25.3794 19.4755 25.2304 19.308 25.0815C19.0845 24.8022 19.3266 24.2436 19.4011 23.8712C19.4011 23.834 19.4197 23.8154 19.4197 23.7781C20.7789 22.1583 22.4546 21.5066 22.8083 21.4135C23.1621 21.3204 23.3669 21.4694 23.4973 21.7114C23.6276 21.9535 24.3165 23.7409 24.4468 24.1133ZM21.7471 24.9511C22.3987 24.8767 22.9387 24.2622 22.9387 23.6106C22.9387 22.9403 22.4173 22.4748 21.7471 22.5493C21.0954 22.6238 20.5554 23.2382 20.5554 23.9085C20.5554 24.5601 21.0954 25.0442 21.7471 24.9511Z" fill="#31363D"/>
<path d="M20.2948 11.5825C20.9092 10.5026 23.3855 9.29239 25.4709 10.4654C23.069 10.7261 21.263 12.0666 20.2948 14.394C19.6617 12.5507 17.8371 11.9549 17.0551 12.2156C17.595 11.3963 19.2893 10.9495 20.2948 11.5825Z" fill="#FFC85C"/>
<path d="M23.4414 26.2544C23.4414 26.2544 23.5904 26.5523 23.8324 27.0178C23.8324 27.0178 22.0264 27.7812 21.5051 28.1349C21.3933 28.2094 21.2816 28.3211 21.1699 28.4701C21.0023 27.9115 20.8534 27.4646 20.8534 27.4646C20.9093 27.4274 20.9651 27.3902 21.021 27.3529C21.5051 27.0923 22.5291 26.6454 23.4414 26.2544Z" fill="#25272B"/>
<path d="M22.9201 23.6106C22.9201 24.2809 22.3988 24.8767 21.7285 24.9511C21.0768 25.0256 20.5369 24.5601 20.5369 23.8899C20.5369 23.2196 21.0582 22.6238 21.7285 22.5307C22.3988 22.4748 22.9201 22.9403 22.9201 23.6106Z" fill="#FFAA00"/>
<path d="M21.1886 28.47C20.8348 28.9541 20.5741 29.6989 20.6672 30.2388C20.5741 29.9409 20.4624 29.6244 20.3507 29.2893C20.2204 28.9355 20.2204 27.9859 20.872 27.4646C20.872 27.4832 21.021 27.9115 21.1886 28.47Z" fill="#F25900"/>
<path d="M21.1327 31.6911C21.1699 31.8029 21.1885 31.896 21.2258 31.989C20.2576 31.2629 18.6377 31.0953 17.8557 31.3188C18.0233 30.9836 18.2281 30.6299 18.3957 30.2947C18.4515 30.2947 19.6431 30.1458 20.7975 30.6857C20.9651 31.1326 21.0768 31.505 21.1327 31.6911Z" fill="#F25900"/>
<path d="M20.6672 30.239C20.7231 30.3879 20.7603 30.5369 20.8162 30.6858C19.6618 30.1272 18.4702 30.2762 18.4143 30.2948C18.7122 29.699 18.9729 29.2149 19.0101 29.1404C19.1032 29.1777 19.1963 29.1591 19.2335 29.1404C19.2894 29.1032 20.0714 28.4888 20.0714 28.4888C20.1645 28.7494 20.2576 29.0287 20.3507 29.308C20.4624 29.6059 20.5741 29.9411 20.6672 30.239Z" fill="#141517"/>
<path d="M20.0714 20.2964C20.0714 20.2964 20.6113 20.9853 20.8534 21.6183C20.4252 21.9162 20.0155 22.27 19.6618 22.661C19.6618 22.661 19.2149 21.6556 18.8425 21.246C19.2894 20.9481 19.699 20.6315 20.0714 20.2964Z" fill="#25272B"/>
<path d="M18.9915 29.1218C18.9543 29.1218 18.9357 29.1031 18.8984 29.0845C18.7681 29.0101 18.2281 28.6563 18.2281 28.6563C18.284 28.526 18.3212 28.4701 18.3212 28.4701C18.9357 28.135 19.3453 27.595 19.5873 27.0923C19.5873 27.0923 19.6804 27.3716 19.8294 27.8184C19.9039 28.0046 19.9783 28.2467 20.0528 28.4887C20.0528 28.4887 19.2708 29.0845 19.215 29.1404C19.1777 29.1404 19.1032 29.159 18.9915 29.1218Z" fill="#BD4D3C"/>
<path d="M18.8426 21.2458C19.1963 21.6741 19.6618 22.6609 19.6618 22.6609C19.6618 22.6609 19.5129 22.9402 19.215 23.2753C19.1033 23.387 18.9729 23.5174 18.824 23.6477C18.6005 23.8339 18.3399 24.0201 18.0233 24.1877C17.9116 24.2435 17.7813 24.318 17.6137 24.3739C16.869 24.6718 15.7332 24.9324 14.5602 25.0441C14.1506 25.0814 13.7596 25.1 13.35 25.1C12.9403 25.1 12.5493 25.0814 12.1397 25.0441C10.9667 24.9324 9.83095 24.6718 9.08619 24.3739C9.08619 24.3739 9.08619 24.3739 9.06757 24.3739C8.91861 24.318 8.78828 24.2621 8.67657 24.1877C8.36004 24.0201 8.09937 23.8339 7.87594 23.6477C7.72699 23.5174 7.59666 23.387 7.48494 23.2753C7.16842 22.9216 7.03809 22.6609 7.03809 22.6609C7.03809 22.6609 7.48494 21.6555 7.85733 21.2458C8.63933 21.7486 9.57028 22.1396 10.6688 22.4561C11.246 23.3312 12.2328 23.927 13.3686 23.927C14.5043 23.927 15.4912 23.3498 16.0683 22.4561C17.1296 22.1396 18.0606 21.7299 18.8426 21.2458Z" fill="#31363D"/>
<path d="M20.2762 14.3941C20.1459 17.0752 19.0101 19.7005 16.5338 20.9666C16.5338 20.8735 16.5524 20.7804 16.5524 20.6873C16.5524 20.2777 16.4779 19.8867 16.329 19.5143C17.0737 19.142 17.7254 18.3041 18.0978 17.2987C18.1723 17.0939 18.2467 16.8704 18.284 16.647C18.675 14.8596 18.6191 12.8115 17.0365 12.2157C17.8185 11.955 19.6432 12.5508 20.2762 14.3941Z" fill="#FFAA00"/>
<path d="M18.3956 30.276C18.2281 30.6112 18.0232 30.9836 17.8557 31.3001C17.7067 31.5794 17.5578 31.84 17.4461 32.0449C16.9992 32.4545 16.4779 32.771 15.9751 33.0503C15.9007 32.7151 15.8076 32.3614 15.7145 32.1566C15.7145 32.1566 16.1241 31.9331 16.4406 31.747C16.6082 31.6539 16.7571 31.5608 16.7944 31.5235C16.813 31.5049 16.9247 31.3001 17.0737 31.0208C17.1854 30.7974 17.3343 30.5367 17.4647 30.2388C17.7626 29.643 18.0977 28.9913 18.2653 28.6748C18.2653 28.6748 18.8052 29.0099 18.9356 29.103C18.9728 29.1217 18.9914 29.1403 19.0287 29.1403C18.9542 29.1961 18.7122 29.6802 18.3956 30.276Z" fill="#DB8660"/>
<path d="M18.2653 25.0068C18.2839 25.3047 18.0791 25.9378 16.7758 26.1612C15.9752 26.2916 15.4166 26.1985 14.9884 26.0123C14.616 25.8447 14.3553 25.6213 14.1505 25.4351C16.1428 25.1186 17.4461 25.0255 18.2653 25.0068Z" fill="#25272B"/>
<path d="M18.2468 24.8952C18.2468 24.9325 18.2654 24.9697 18.2654 25.0069C17.4462 25.0069 16.1428 25.1187 14.132 25.4352L14.5416 25.0628C15.7146 24.9511 16.8503 24.6904 17.5951 24.3925C17.6882 24.3739 18.1537 24.5415 18.2468 24.8952Z" fill="#141517"/>
<path d="M16.3289 19.5144C16.1614 19.6075 15.9752 19.6633 15.789 19.7006C15.5655 19.142 15.1559 18.6579 14.616 18.36C14.616 18.1738 14.6346 17.969 14.6718 17.7456C14.7463 17.0939 14.9511 16.2933 15.249 15.5671C15.249 15.5671 16.8503 16.1257 18.0977 17.2987C17.744 18.3041 17.0737 19.1234 16.3289 19.5144Z" fill="#25272B"/>
<path d="M16.7758 29.3636C16.8689 29.6243 16.5896 30.7042 15.9007 30.8532C15.398 30.9463 15.0629 30.7601 14.765 30.6297C14.6533 30.5925 14.5415 30.5553 14.4484 30.5366C14.0761 30.518 13.3313 30.4994 13.3313 30.4994C13.3313 30.4994 12.6052 30.4994 12.2142 30.5366C12.1211 30.5366 12.0093 30.5739 11.8976 30.6297C11.5997 30.7601 11.246 30.9463 10.7619 30.8532C10.073 30.7228 9.79367 29.6429 9.88677 29.3636C9.90539 29.3264 9.92401 29.2892 9.94263 29.2705C9.94263 29.2705 10.4826 29.9036 10.855 30.3691C11.1342 30.127 11.3763 29.6615 11.4135 29.0471C11.7114 29.1775 11.9721 29.4009 12.2514 29.5126C12.661 29.6988 13.3127 29.6615 13.3127 29.6615C13.3127 29.6615 13.9643 29.6802 14.374 29.5126C14.6533 29.4009 14.9139 29.1775 15.2118 29.0471C15.2491 29.6615 15.5097 30.127 15.7704 30.3691C16.1428 29.885 16.6827 29.2705 16.6827 29.2705C16.7386 29.2892 16.7572 29.3264 16.7758 29.3636Z" fill="#25272B"/>
<path d="M16.5524 20.6872C16.5524 20.7803 16.5524 20.8734 16.5338 20.9664C16.329 21.0595 16.1242 21.1526 15.9194 21.2457C15.9566 21.0595 15.9753 20.8734 15.9753 20.6872C15.9753 20.3334 15.9008 20.0169 15.7891 19.7004C15.9753 19.6631 16.1428 19.6073 16.329 19.5142C16.478 19.8679 16.5524 20.2589 16.5524 20.6872Z" fill="#FF7B00"/>
<path d="M16.4779 13.854C15.3422 13.8354 13.8526 14.4871 13.3499 15.2505C12.8286 14.4871 11.3391 13.8354 10.2219 13.854C10.2219 13.854 11.0784 13.2024 12.2514 13.6678C12.3631 12.6438 13.3685 11.7314 13.3685 11.7314C13.3685 11.7314 14.3554 12.6438 14.4857 13.6678C15.6215 13.2024 16.4779 13.854 16.4779 13.854Z" fill="#FFC85C"/>
<path d="M13.3313 15.2506C13.8526 14.4872 15.3422 13.8355 16.4593 13.8541C15.9566 14.1893 15.5656 14.841 15.2491 15.5671C14.9512 16.2932 14.7464 17.1125 14.6719 17.7455C14.2623 17.5593 13.7968 17.4476 13.3313 17.4476V15.2506Z" fill="#FF7B00"/>
<path d="M15.938 21.2458C16.1614 21.1527 16.3663 21.0596 16.5524 20.9666C16.4966 21.5065 16.329 22.0092 16.0497 22.4375C15.7518 22.5119 15.4353 22.5864 15.1188 22.6609C15.5098 22.2885 15.8077 21.8044 15.938 21.2458Z" fill="#F25900"/>
<path d="M16.031 22.4375C15.4538 23.3126 14.467 23.9084 13.3312 23.9084C12.1955 23.9084 11.2087 23.3312 10.6315 22.4375C10.9294 22.512 11.2459 22.5865 11.5624 22.6609C12.0279 23.0892 12.6423 23.3312 13.3312 23.3312C14.0015 23.3312 14.6346 23.0705 15.1001 22.6609C15.4166 22.6051 15.7331 22.5306 16.031 22.4375Z" fill="#141517"/>
<path d="M14.6905 17.7454C14.6533 17.9688 14.6346 18.1923 14.6346 18.3598C14.2436 18.1364 13.7968 18.0247 13.3313 18.0247V17.4475C13.8154 17.4661 14.2809 17.5592 14.6905 17.7454Z" fill="#F25900"/>
<path d="M14.5229 33.0318C14.6347 33.1621 14.8953 33.2925 15.1746 33.4228C14.1692 33.8324 13.3499 34 13.3499 34C13.3499 34 12.5121 33.8324 11.5253 33.4228C11.8046 33.2925 12.0652 33.1435 12.1769 33.0318C12.1956 32.9946 12.2328 32.976 12.2514 32.9387C12.3817 32.976 12.5493 33.0132 12.7169 33.0504C13.052 33.1249 13.3499 33.1994 13.3499 33.1994C13.3499 33.1994 13.6665 33.1435 13.983 33.0504C14.1506 33.0132 14.3181 32.976 14.4485 32.9387C14.4671 32.9573 14.4857 32.9946 14.5229 33.0318Z" fill="#DB8660"/>
<path d="M13.3312 17.4661V18.0433C12.8658 18.0433 12.4189 18.1736 12.0279 18.3784C12.0279 18.1922 12.0093 17.9874 11.972 17.764C12.4003 17.5592 12.8471 17.4661 13.3312 17.4661Z" fill="#FF7B00"/>
<path d="M13.3313 15.2504V17.4475C12.8472 17.4475 12.4003 17.5592 11.9907 17.7454C11.9162 17.0937 11.7114 16.2931 11.4135 15.567C11.1156 14.8408 10.706 14.1891 10.2032 13.854C11.3204 13.854 12.8099 14.4871 13.3313 15.2504Z" fill="#FFAA00"/>
<path d="M12.121 25.0441L12.5307 25.4165C10.5198 25.1 9.21646 25.0069 8.39722 24.9883C8.39722 24.951 8.39722 24.9138 8.41584 24.8766C8.50893 24.5228 8.97441 24.3552 9.04888 24.3552C9.04888 24.3552 9.04889 24.3552 9.0675 24.3552C9.81227 24.6717 10.948 24.9324 12.121 25.0441Z" fill="#141517"/>
<path d="M11.9907 17.7456C12.028 17.969 12.0466 18.1924 12.0466 18.36C11.5253 18.6579 11.097 19.1234 10.8736 19.7006C10.6874 19.6633 10.5198 19.5889 10.3336 19.5144C9.58887 19.142 8.9372 18.3041 8.56482 17.2987C9.79368 16.1257 11.4135 15.5671 11.4135 15.5671C11.7114 16.2933 11.8976 17.1125 11.9907 17.7456Z" fill="#25272B"/>
<path d="M11.5625 22.661C11.2274 22.6051 10.9295 22.5306 10.6316 22.4375C10.3523 22.0093 10.1661 21.5066 10.1102 20.948C10.315 21.0411 10.5198 21.1342 10.7247 21.2273C10.855 21.8045 11.1529 22.2886 11.5625 22.661Z" fill="#F25900"/>
<path d="M12.5307 25.4351C12.0839 25.8447 11.3763 26.4219 9.90543 26.1612C8.60209 25.9378 8.39728 25.3047 8.4159 25.0068C9.23514 25.0255 10.5385 25.1186 12.5307 25.4351Z" fill="#25272B"/>
<path d="M8.26695 30.2761C7.95043 29.6803 7.70838 29.1962 7.67114 29.1217C7.70838 29.1217 7.727 29.1031 7.76424 29.0845C7.89457 29.01 8.43452 28.6562 8.43452 28.6562C8.58348 28.9728 8.91862 29.6244 9.23515 30.2203C9.3841 30.4995 9.51443 30.7788 9.62615 31.0023C9.7751 31.2815 9.86819 31.4864 9.90543 31.505C9.94267 31.5422 10.0916 31.6353 10.2592 31.7284C10.5757 31.9146 10.9853 32.138 10.9853 32.138C10.8736 32.3428 10.7805 32.6966 10.7247 33.0317C10.2033 32.7711 9.682 32.4359 9.25376 32.0263C9.14205 31.8215 8.9931 31.5608 8.84414 31.2815C8.63933 30.9836 8.43453 30.6113 8.26695 30.2761Z" fill="#DB8660"/>
<path d="M10.8736 19.7004C10.7433 19.9983 10.6874 20.3334 10.6874 20.6872C10.6874 20.8734 10.706 21.0595 10.7433 21.2457C10.5198 21.1526 10.315 21.0595 10.1288 20.9664C10.1102 20.8734 10.1102 20.7803 10.1102 20.6872C10.1102 20.2775 10.1847 19.8865 10.3337 19.5142C10.5012 19.5886 10.6874 19.6631 10.8736 19.7004Z" fill="#FF7B00"/>
<path d="M10.1287 20.9665C10.1846 21.5065 10.3522 22.0092 10.6501 22.456C9.55155 22.1581 8.6206 21.7485 7.8386 21.2458C7.39174 20.9665 6.98212 20.65 6.60974 20.2962C5.08297 18.8812 4.2265 17.0379 3.50035 15.0456C2.5694 12.5507 1.21021 10.4653 1.21021 10.4653C3.61207 10.7446 5.41812 12.0852 6.38631 14.394C6.51664 17.0751 7.65241 19.7004 10.1287 20.9665Z" fill="#FF7B00"/>
<path d="M10.3336 19.5143C10.1846 19.8867 10.1102 20.2777 10.1102 20.6873C10.1102 20.7804 10.1102 20.8735 10.1288 20.9666C7.65245 19.7005 6.51669 17.0752 6.38635 14.3941C7.0194 12.5508 8.84407 11.955 9.62607 12.2157C8.02483 12.8115 7.96897 14.841 8.37859 16.647C8.43445 16.8704 8.49031 17.0939 8.56479 17.2987C8.93717 18.3041 9.58884 19.1233 10.3336 19.5143Z" fill="#FFAA00"/>
<path d="M9.62603 12.2157C8.86265 11.955 7.03798 12.5508 6.38631 14.3941C5.41812 12.0853 3.61207 10.7448 1.21021 10.4655C3.31416 9.29247 5.7905 10.5213 6.38631 11.5826C7.37312 10.9496 9.08608 11.3964 9.62603 12.2157Z" fill="#FFC85C"/>
<path d="M6.83317 27.7998C6.98212 27.3716 7.07522 27.0923 7.07522 27.0923C7.31727 27.595 7.72689 28.135 8.34132 28.4701C8.34132 28.4701 8.37855 28.5446 8.43441 28.6563C8.43441 28.6563 7.89446 28.9914 7.76412 29.0845C7.72689 29.1031 7.70827 29.1218 7.67103 29.1218C7.57793 29.159 7.48484 29.1404 7.4476 29.1218C7.39174 29.0845 6.60974 28.4701 6.60974 28.4701C6.68422 28.228 6.75869 27.986 6.83317 27.7998Z" fill="#BD4D3C"/>
<path d="M8.26687 30.2762C8.43444 30.6113 8.63925 30.9837 8.80682 31.3002C8.02482 31.0768 6.40496 31.2443 5.43677 31.9705C5.47401 31.8774 5.51124 31.7843 5.52986 31.6726C5.58572 31.505 5.69743 31.114 5.84639 30.6672C7.01939 30.1272 8.19239 30.2762 8.26687 30.2762Z" fill="#F25900"/>
<path d="M7.67104 29.1216C7.70828 29.1961 7.95033 29.6802 8.26685 30.276C8.211 30.276 7.01937 30.1271 5.86499 30.667C5.90223 30.5181 5.95809 30.3877 6.01394 30.2388C6.10704 29.9409 6.21875 29.6244 6.33047 29.2892C6.42356 29.0099 6.51666 28.7306 6.60975 28.47C6.60975 28.47 7.39176 29.0658 7.44761 29.1216C7.48485 29.1403 7.57795 29.1589 7.67104 29.1216Z" fill="#141517"/>
<path d="M7.0194 22.6608C7.0194 22.6608 7.16835 22.9401 7.46626 23.2752C7.46626 23.2752 7.24283 23.4428 7.26145 23.7593C5.90225 22.1394 4.22653 21.4878 3.87277 21.3947C3.50039 21.3016 3.3142 21.4505 3.18387 21.6926C3.05353 21.9346 2.34601 23.7407 2.23429 24.1131C2.10396 24.4854 2.25291 24.6716 2.60667 24.8392C2.96044 25.0254 5.08301 25.975 5.86501 26.4218C6.64702 26.8501 6.81459 27.4831 6.81459 27.7996C6.74011 28.0045 6.66564 28.2279 6.59116 28.4699C6.49806 28.7306 6.40497 29.0099 6.31187 29.2892C6.42359 28.9354 6.44221 27.9858 5.79054 27.4645C5.73468 27.4273 5.67882 27.39 5.62297 27.3528C5.17611 27.0921 4.15206 26.6453 3.2211 26.2543C2.42048 25.9005 1.69434 25.6026 1.47091 25.4723C1.00543 25.2302 0.744766 24.7275 1.04267 24.0758C1.3592 23.4428 2.40186 21.2271 2.58806 20.9106C2.75563 20.5754 3.27696 20.352 3.83553 20.5382C4.20792 20.6685 5.00854 21.0409 5.82778 21.5995C6.2374 21.916 6.66564 22.2698 7.0194 22.6608Z" fill="#FFAA00"/>
<path d="M7.28006 23.8524C7.35454 24.2248 7.59659 24.7834 7.37316 25.0626C7.2242 25.193 7.07525 25.3419 6.94492 25.5095C6.81458 25.6957 6.72149 25.8819 6.75873 26.0681C6.79597 26.2915 6.88906 26.6639 7.07525 27.0735C7.07525 27.0735 6.98216 27.3528 6.8332 27.781C6.8332 27.4459 6.66563 26.8315 5.88363 26.4032C5.08301 25.975 2.97905 25.0068 2.62529 24.8206C2.27153 24.6344 2.12258 24.4668 2.25291 24.0945C2.38324 23.7221 3.07215 21.9346 3.20248 21.6926C3.33282 21.4505 3.53763 21.3202 3.89139 21.3947C4.26377 21.4878 5.93949 22.1395 7.28006 23.7593C7.26144 23.7966 7.26144 23.8338 7.28006 23.8524ZM6.10706 23.8896C6.10706 23.2194 5.58572 22.6235 4.91544 22.5305C4.26377 22.456 3.72382 22.9215 3.72382 23.5917C3.72382 24.262 4.24515 24.8578 4.91544 24.9323C5.58572 25.044 6.10706 24.5599 6.10706 23.8896Z" fill="#31363D"/>
<path d="M7.83862 21.246C7.48486 21.6742 7.01938 22.661 7.01938 22.661C6.66562 22.27 6.23738 21.9162 5.82776 21.6183C6.06981 20.9853 6.60976 20.2964 6.60976 20.2964C6.96352 20.6315 7.37314 20.9481 7.83862 21.246Z" fill="#25272B"/>
<path d="M5.79052 27.4832C6.44219 28.0045 6.44219 28.9354 6.31186 29.3078C6.20014 29.6243 6.08843 29.9409 5.99533 30.2574C6.08843 29.7361 5.82776 28.9727 5.474 28.4886C5.66019 27.9114 5.79052 27.4832 5.79052 27.4832Z" fill="#F25900"/>
<path d="M5.47403 28.47C5.8278 28.9541 6.08846 29.6988 5.99537 30.2388C5.93951 30.3877 5.90227 30.5367 5.84641 30.667C5.69746 31.1325 5.58575 31.5049 5.52989 31.6725C5.49265 31.7842 5.47403 31.8773 5.43679 31.9704C5.2506 32.4358 4.97132 32.622 4.39413 32.7896C3.72384 32.9758 0.837881 33.3296 0.44688 33.3854C0.0744981 33.4226 -0.111693 32.9386 0.03726 32.5476C0.03726 32.5476 2.77427 32.1193 3.46317 31.989C4.13346 31.84 4.44998 31.6352 4.67341 30.9649C4.82236 30.5367 5.21337 29.3451 5.47403 28.47Z" fill="#FFAA00"/>
<path d="M4.93405 22.5491C5.58572 22.6235 6.12567 23.238 6.12567 23.9083C6.12567 24.5786 5.60434 25.044 4.93405 24.9696C4.28239 24.8951 3.74243 24.2806 3.74243 23.629C3.74243 22.9401 4.28239 22.4746 4.93405 22.5491Z" fill="#FFAA00"/>
<path d="M5.79058 27.4832C5.79058 27.4832 5.66024 27.9114 5.47405 28.4886C5.36234 28.3583 5.25062 28.228 5.13891 28.1535C4.61757 27.7997 2.81152 27.0363 2.81152 27.0363C3.05357 26.5709 3.20252 26.2729 3.20252 26.2729C4.13348 26.6639 5.15753 27.1108 5.60439 27.3715C5.67886 27.3901 5.73472 27.4273 5.79058 27.4832Z" fill="#25272B"/>
<path d="M5.474 28.4699C5.19472 29.345 4.82234 30.5366 4.67338 30.9463C4.43134 31.6166 4.13343 31.84 3.46314 31.9703C2.79286 32.1193 0.0372314 32.5289 0.0372314 32.5289C0.0372314 32.5103 0.0558505 32.4917 0.0558505 32.473C0.46547 31.6166 2.06671 28.4699 2.81148 26.999C2.81148 26.999 4.61753 27.7624 5.13886 28.1162C5.26919 28.2279 5.38091 28.3396 5.474 28.4699Z" fill="#31363D"/>
</g>
<path fill-rule="evenodd" clip-rule="evenodd" d="M7.67031 18.3399C7.59633 18.242 7.50896 18.1263 7.4845 18.0098C7.53903 18.9889 6.39237 19.1674 5.53835 19.2826C5.67448 19.2698 5.80747 19.2656 5.93912 19.2614C6.22303 19.2525 6.50068 19.2437 6.79004 19.15C6.90177 19.1125 6.99514 19.0521 7.08238 18.9955C7.26583 18.8767 7.42218 18.7754 7.66528 18.9426C7.84528 18.4644 8.10894 18.541 8.36823 18.6163C8.58043 18.6779 8.78971 18.7387 8.94782 18.4938L8.96452 18.5009C9.21303 18.6051 9.60251 18.7686 9.91963 18.8497C9.95025 18.8772 9.98141 18.905 10.013 18.9332C10.1734 19.0765 10.3446 19.2294 10.5108 19.3894C10.5305 19.4118 10.5514 19.4341 10.5724 19.4564C10.6321 19.52 10.6928 19.5846 10.7305 19.6577C10.7915 19.7639 10.8452 19.8801 10.8915 20.0063C10.9351 20.112 10.9759 20.2215 11.0146 20.334C10.8012 20.2114 10.5449 20.051 10.2392 19.842C10.2392 19.842 10.8974 20.5719 11.223 21.0503C11.2645 21.2248 11.2991 21.3973 11.3235 21.5673C11.322 21.57 11.3206 21.5728 11.3191 21.5755C11.2389 21.7282 11.1613 21.8761 11.0474 21.9805C10.9728 22.0675 10.8982 22.1421 10.8111 22.2043C10.7241 22.2665 10.6371 22.3286 10.5625 22.3411C10.4612 22.3664 10.3314 22.3058 10.1923 22.2409C10.1264 22.2102 10.0585 22.1785 9.99057 22.1546L9.99052 22.1545C9.87864 22.1173 9.76676 22.08 9.65488 22.0551L9.55541 22.0427C9.50568 22.0302 9.45595 22.0178 9.41865 22.0178L9.15756 21.9929C9.16722 22.0509 9.19188 22.1088 9.21407 22.161C9.22044 22.1759 9.22661 22.1904 9.23215 22.2043C9.23592 22.2118 9.23969 22.2205 9.2438 22.23C9.25326 22.2517 9.26455 22.2778 9.28189 22.3038C9.29432 22.3411 9.31919 22.3784 9.33162 22.3908C9.36928 22.4567 9.41407 22.5226 9.45519 22.5831C9.46837 22.6025 9.48118 22.6213 9.49325 22.6394C9.55584 22.7412 9.62335 22.8379 9.6896 22.9329C9.72862 22.9888 9.7672 23.0442 9.80407 23.0995C9.8911 23.2362 9.97813 23.3854 10.0279 23.5222C10.0034 23.5955 9.97902 23.6727 9.95416 23.7514C9.90309 23.9129 9.85018 24.0803 9.79164 24.2309C9.77299 24.2433 9.76056 24.2526 9.74813 24.262C9.73569 24.2713 9.72326 24.2806 9.70461 24.293C9.68596 24.3055 9.6642 24.3179 9.64244 24.3303C9.62069 24.3428 9.59893 24.3552 9.58028 24.3676C9.59271 24.3925 9.60204 24.4174 9.61136 24.4422C9.62069 24.4671 9.63001 24.492 9.64245 24.5168C9.63623 24.523 9.63001 24.5324 9.62379 24.5417C9.61758 24.551 9.61136 24.5603 9.60514 24.5666C9.50222 24.7069 9.36937 24.7892 9.24369 24.867C9.03537 24.996 8.84673 25.1128 8.84673 25.4617C8.5302 25.8475 8.13498 26.0365 7.67984 26.2542C7.5629 26.3101 7.44201 26.368 7.31748 26.4315C7.45654 26.546 7.50949 26.6929 7.56132 26.8366C7.58826 26.9113 7.6149 26.9851 7.65317 27.0532C7.59722 27.0469 7.53506 27.05 7.47289 27.0532C7.41073 27.0563 7.34856 27.0594 7.29261 27.0532C7.591 27.4883 7.42937 28.0727 6.83259 27.9608C6.67096 28.6819 6.55906 29.0424 6.26067 29.2911C5.51616 29.3031 4.80644 29.002 4.09791 28.7013C4.07285 28.6907 4.04779 28.6801 4.02274 28.6694C4.01405 29.0169 4.29664 29.2187 4.59494 29.4317C4.72363 29.5236 4.85523 29.6176 4.96764 29.7262C5.07309 29.8372 5.17357 29.973 5.27684 30.1125C5.40494 30.2856 5.53732 30.4644 5.68876 30.609C5.71148 30.6393 5.7342 30.6684 5.75657 30.6971C5.80765 30.7626 5.85689 30.8258 5.90012 30.8949C5.88006 30.9451 5.86809 30.9952 5.86421 31.0128C5.86993 30.9965 5.89284 30.9644 5.92498 30.9322C5.97471 31.0193 6.02445 31.1187 6.04931 31.2306C6.08542 31.3751 5.91182 31.9585 5.79019 32.3674C5.74429 32.5216 5.70579 32.6511 5.68876 32.7226C4.63195 32.8469 2.94107 36.5644 4.1222 37.2855C4.11087 37.4555 4.19766 37.6229 4.28373 37.7889C4.38652 37.9871 4.48826 38.1834 4.42059 38.3796C4.37847 38.506 4.20597 38.5319 4.03971 38.5569C3.76433 38.5983 3.50609 38.6372 3.88597 39.1256C2.74868 40.3192 2.59042 42.6448 2.47832 44.292C2.46665 44.4636 2.45547 44.6278 2.44375 44.7826C2.52747 44.4291 2.60336 44.0761 2.67882 43.725C3.00681 42.1992 3.32675 40.7107 4.24653 39.3867C4.32627 39.2731 4.5206 39.0482 4.77184 38.7575C5.81328 37.5524 7.83254 35.2158 6.7207 34.9854C6.94449 34.7243 7.28018 34.8735 7.54127 35.0973C7.54635 34.9906 7.56803 34.9234 7.58766 34.8625C7.61608 34.7744 7.6402 34.6996 7.60343 34.5378C7.91426 34.6 8.31211 34.6373 8.61051 34.4259C8.20766 33.6125 8.63026 33.1273 9.10229 32.5854C9.38781 32.2575 9.69142 31.909 9.84137 31.4544C9.9339 31.171 9.95918 30.9388 9.98353 30.7151C10.0115 30.4579 10.0383 30.212 10.1646 29.9127C10.3511 29.4776 10.749 28.6446 11.2214 29.1046C11.6069 28.5078 11.8804 28.371 12.5269 28.371L12.5518 28.3959C12.7507 28.5824 12.9247 28.7689 13.0739 28.9927L13.0864 29.0051C13.1022 29.0071 13.1174 29.0081 13.132 29.0091C13.209 29.0144 13.2684 29.0184 13.3102 29.1543C13.5603 29.0543 14.1566 29.3085 14.529 29.5217C14.3982 29.7119 14.2909 29.9344 14.186 30.1517C14.1016 30.3264 14.0188 30.4979 13.9268 30.6466C14.0943 30.5548 14.2562 30.4617 14.4153 30.3703C14.9878 30.0411 15.5235 29.7331 16.154 29.5793C16.3253 29.9689 16.5877 30.2414 16.8458 30.5095C17.0235 30.6941 17.1991 30.8766 17.3418 31.0938C17.4582 31.2732 17.5425 31.4719 17.6287 31.6752C17.7678 32.003 17.9119 32.3427 18.2041 32.6323C17.8801 32.7806 17.7381 32.9539 17.6798 33.2655C18.2683 32.8897 18.3483 32.9958 18.5059 33.2048C18.5802 33.3034 18.6717 33.4248 18.842 33.5295C19.0261 33.6399 19.2413 33.7143 19.4588 33.7894C19.7977 33.9065 20.1422 34.0255 20.3833 34.2861C20.4657 34.3703 20.531 34.5292 20.598 34.6925C20.6601 34.8436 20.7237 34.9985 20.8038 35.1014C20.8872 35.2086 20.9901 35.2838 21.0918 35.358C21.1934 35.4323 21.2938 35.5056 21.3722 35.6091C21.7715 36.1164 22.0595 36.4808 22.4762 36.9854C23.3401 38.0571 23.9849 39.2903 24.6292 40.5224C25.021 41.2716 25.4125 42.0204 25.853 42.7324C25.3362 41.8698 24.966 40.8715 24.5961 39.8742C24.0971 38.5287 23.5988 37.185 22.7421 36.1788C22.9986 35.9331 23.3684 35.8784 23.7305 35.8248C23.9475 35.7927 24.1619 35.761 24.3474 35.6887C24.0759 35.6735 23.8735 35.6861 23.7115 35.6963C23.2467 35.7253 23.1134 35.7336 22.6304 35.004C22.4241 34.6873 22.1568 34.4036 21.8941 34.1249C21.6208 33.8348 21.3525 33.5502 21.1635 33.2393C20.5615 32.2297 20.6818 30.7163 21.6118 30.1177C21.1775 30.1853 20.6331 30.0032 20.2999 29.8059C20.1547 29.4968 20.0646 29.1165 19.975 28.738C19.8675 28.2842 19.7606 27.8329 19.5599 27.5099C19.5729 27.6576 19.5474 27.7916 19.5218 27.9265C19.5017 28.0322 19.4815 28.1384 19.4797 28.252C19.448 28.171 19.3892 28.0968 19.3312 28.0237C19.2811 27.9605 19.2317 27.8981 19.2009 27.8327C19.1121 27.891 18.9986 27.9621 18.897 27.9957C18.8779 27.9191 18.8349 27.8404 18.7908 27.7596C18.7263 27.6415 18.6593 27.5189 18.6607 27.3919C18.1823 27.2553 18.0308 26.342 17.8829 25.45C17.8063 24.988 17.7307 24.5317 17.611 24.1921C17.6782 24.1001 17.7477 24.0227 17.8229 23.9388C17.8298 23.9312 17.8368 23.9234 17.8438 23.9156C18.1229 23.7654 18.402 23.6152 18.5287 23.3997C18.5223 23.3874 18.5178 23.3725 18.5132 23.3576C18.5087 23.3428 18.5041 23.3279 18.4978 23.3156C18.5303 23.2857 18.5642 23.2642 18.5926 23.2463C18.6049 23.2385 18.6162 23.2313 18.6259 23.2244C18.6306 23.197 18.6398 23.1422 18.6518 23.1047C18.6692 23.102 18.6838 23.082 18.6912 23.0719C18.6898 23.0632 18.6866 23.0571 18.6834 23.0509C18.6803 23.0447 18.6771 23.0385 18.6757 23.0298C18.673 23.0125 18.6877 22.9924 18.695 22.9823L18.6448 22.9457L18.6421 22.9283C18.9487 22.84 19.0583 22.6473 19.1754 22.4415C19.2892 22.2414 19.4101 22.0289 19.7258 21.8877C19.3484 21.9405 19.0195 22.1518 18.6906 22.3632C18.5261 22.4689 18.3617 22.5745 18.1911 22.6604C17.773 22.4319 17.2232 22.2149 16.8877 22.2316C16.8827 22.2279 16.8795 22.2217 16.8763 22.2156C16.8731 22.2094 16.8699 22.2032 16.8649 22.1995C16.4862 21.6516 16.0563 21.4747 15.7493 21.4171C15.7096 21.3535 15.675 21.2878 15.6476 21.2221C15.6425 21.2069 15.6378 21.1915 15.6335 21.1761C15.7995 21.009 15.7608 20.8046 15.6634 20.6174C15.7076 20.5006 15.7708 20.3856 15.8341 20.2772C15.9844 20.0265 16.1833 19.7921 16.3851 19.5542C16.4335 19.4971 16.4822 19.4398 16.5303 19.382L16.5463 19.3625C16.7653 19.0949 16.9945 18.8148 17.1644 18.4993C17.1847 18.5074 17.2049 18.5168 17.2243 18.5258C17.2644 18.5445 17.3009 18.5614 17.326 18.5614L17.5747 18.6236L17.5001 18.3874C17.4939 18.3687 17.4908 18.3501 17.4877 18.3314C17.4845 18.3128 17.4814 18.2941 17.4752 18.2755L17.4628 18.2133L17.525 18.2382L17.5623 18.2506C17.5805 18.2506 17.592 18.2573 17.6066 18.2657C17.612 18.2688 17.6178 18.2721 17.6244 18.2755C17.6741 18.2879 17.7114 18.3128 17.7612 18.3501L18.1217 18.6609L18.0471 18.3501C18.0347 18.2941 18.0223 18.2413 18.0098 18.1884C17.9974 18.1356 17.985 18.0828 17.9725 18.0268L17.9601 17.9522L17.9477 17.9149L17.9352 17.8403L17.9104 17.6787C17.8855 17.4673 17.8731 17.256 17.8855 17.0446C17.8979 16.7959 17.9352 16.5597 17.9974 16.3235C18.0593 16.2822 18.1293 16.2431 18.1994 16.2039C18.467 16.0541 18.7368 15.9031 18.5693 15.6272C18.5693 15.5792 18.5749 15.5423 18.5803 15.5066C18.5889 15.4497 18.597 15.3956 18.5818 15.304C18.8035 15.4287 18.9209 15.3256 19.0503 15.212C19.1532 15.1218 19.2635 15.025 19.4396 15.0305C19.2119 14.8618 19.2874 14.5273 19.3556 14.2247C19.388 14.0812 19.4188 13.9449 19.4148 13.8369L21.4911 14.3715C21.1579 14.1272 20.7717 13.9225 20.4456 13.7497C20.2242 13.6323 20.0304 13.5296 19.8997 13.439C19.963 13.3476 20.1139 13.272 20.2511 13.2034C20.3562 13.1508 20.4533 13.1022 20.4964 13.0536C20.5981 12.9447 20.6574 12.6916 20.7138 12.4503C20.754 12.2785 20.7928 12.1127 20.8446 12.0092C20.9067 11.8849 20.9813 11.7606 21.0559 11.6363C21.0974 11.5907 21.1402 11.5437 21.183 11.4968C21.2687 11.4028 21.3543 11.3089 21.4289 11.226C21.4476 11.2135 21.4631 11.2011 21.4786 11.1887C21.4942 11.1762 21.5097 11.1638 21.5284 11.1514C21.6188 11.0811 21.7335 11.0351 21.8529 10.9873C21.8813 10.9759 21.91 10.9644 21.9387 10.9524C22.1749 11.027 22.4235 11.1016 22.6598 11.1638C22.5943 11.1114 22.508 11.0555 22.4193 10.998C22.3396 10.9464 22.2579 10.8935 22.1873 10.8405C22.3117 10.766 22.3987 10.6665 22.4484 10.5173C22.4235 10.5173 22.3365 10.5546 22.3365 10.5546C22.3746 10.469 22.4563 10.3178 22.4982 10.2404C22.511 10.2167 22.5201 10.1999 22.523 10.194C22.7663 10.2786 23.2255 9.71544 23.5638 9.30044C23.6232 9.2276 23.6789 9.15933 23.729 9.09993C23.7539 9.0875 23.7663 9.07506 23.7787 9.06263C24.1766 8.75181 24.4377 8.51558 24.5745 8.37882L24.6739 8.27935C24.6586 8.28704 24.6337 8.30897 24.5993 8.33928C24.5781 8.35801 24.5532 8.37994 24.5247 8.40368L24.2636 8.59018C24.3261 8.54157 24.3828 8.49781 24.4329 8.45917C24.562 8.35944 24.647 8.2938 24.6739 8.26692C24.6549 8.28214 24.6161 8.31015 24.5586 8.35167C24.4996 8.39424 24.421 8.45102 24.3239 8.52275C24.203 8.62434 24.0516 8.74498 23.8658 8.88857L23.946 8.80836C23.9278 8.82238 23.9094 8.83668 23.8906 8.85127C23.816 8.901 23.7539 8.95074 23.6793 9.0129C23.4058 9.19939 23.1447 9.38589 22.8836 9.58482C22.8338 9.62212 22.7872 9.66252 22.7406 9.70293C22.694 9.74334 22.6473 9.78375 22.5976 9.82104C22.5914 9.82104 22.5883 9.82415 22.5852 9.82726C22.5821 9.83037 22.579 9.83348 22.5727 9.83348C22.4687 9.90662 22.3608 9.98103 22.2498 10.0576C21.8702 10.3194 21.4543 10.6061 21.0311 10.9524C20.7327 11.2011 20.4343 11.4746 20.1359 11.773C19.6261 11.6736 19.1661 11.1887 18.8428 10.7535C18.8056 11.1514 18.8801 11.5244 19.278 11.5617C19.2842 11.5741 19.2935 11.5896 19.3029 11.6052C19.3122 11.6207 19.3215 11.6363 19.3277 11.6487C19.2407 11.9595 19.2158 12.432 19.2034 12.7552C18.731 13.3147 18.2585 13.9239 17.8233 14.5953L17.6493 14.8813C17.5996 14.9683 17.5374 15.0553 17.4628 15.1424C17.326 15.304 17.1395 15.4532 16.9406 15.5153C16.7417 15.5899 16.5054 15.5651 16.3065 15.4656C16.2941 15.4594 16.2848 15.4532 16.2754 15.447C16.2661 15.4408 16.2568 15.4345 16.2444 15.4283C16.2692 15.5278 16.2817 15.6272 16.2941 15.7267C16.2754 15.7205 16.2568 15.7112 16.2381 15.7018C16.2195 15.6925 16.2008 15.6832 16.1822 15.677C16.1076 15.6397 16.0454 15.6024 15.9833 15.5526C15.9957 15.6272 16.0081 15.7018 16.0206 15.7889C16.033 15.9008 16.033 16.0251 16.0206 16.137C16.0206 16.1867 16.0081 16.2489 15.9957 16.2986C15.9957 16.3111 15.9833 16.3359 15.9708 16.3484L15.9211 16.3981C15.8627 16.4564 15.7816 16.4996 15.6954 16.5454C15.6714 16.5581 15.6471 16.5711 15.6227 16.5846C15.5978 16.597 15.573 16.609 15.5481 16.6209C15.4486 16.6686 15.3492 16.7164 15.2497 16.7959C15.2249 16.8084 15.1876 16.8457 15.1627 16.8705L15.1627 16.8705C15.1378 16.8954 15.113 16.9327 15.113 16.9451C15.1067 16.9514 15.1036 16.9607 15.1005 16.97C15.0974 16.9793 15.0943 16.9887 15.0881 16.9949C15.0632 17.0695 15.0384 17.1441 15.0259 17.2062C15.0172 17.2544 15.0207 17.3209 15.0242 17.3849C15.0305 17.5027 15.0363 17.6115 14.9638 17.5792C14.3172 17.3057 14.1805 17.256 14.2302 17.3057L13.9599 17.15C13.9523 17.1201 13.9451 17.0896 13.9382 17.0587C13.9166 16.9197 13.8849 16.7734 13.8259 16.6224C13.795 16.5382 13.7567 16.4641 13.7112 16.4C13.6556 16.3286 13.6227 16.2892 13.5069 16.1738C13.4648 16.1892 13.4227 16.2047 13.388 16.2101C13.3793 16.2115 13.3681 16.211 13.3569 16.2105C13.3457 16.21 13.3345 16.2095 13.3258 16.2109C13.2911 16.2163 13.2463 16.2144 13.2088 16.2024C13.1193 16.1985 13.0444 16.1746 12.9668 16.1333C12.8143 16.0681 12.671 15.948 12.5598 15.8052C12.4486 15.6623 12.3594 15.4894 12.3223 15.3083C12.2987 15.2141 12.2926 15.1172 12.3065 15.035C12.3084 14.9902 12.3203 14.9527 12.3396 14.9052C12.3396 14.9052 12.3516 14.8678 12.3663 14.8477C12.3709 14.8203 12.3856 14.8002 12.4076 14.7701L12.5076 14.6122L12.0763 14.528L11.8195 14.479C11.645 14.4439 11.4779 14.3988 11.3107 14.3536L11.3107 14.3536C11.0887 14.2992 10.8914 14.232 10.684 14.1575L10.5041 14.0877L10.4941 14.0803C10.5041 14.0877 10.5114 14.0776 10.5114 14.0776L10.8956 13.9733L11.2797 13.8691L11.3739 13.8455L11.5276 13.8038L11.8724 13.7323C11.8067 13.6536 11.7337 13.5849 11.6608 13.5161C11.6407 13.5015 11.6224 13.4843 11.6042 13.4671C11.586 13.4499 11.5677 13.4328 11.5476 13.4181L11.4974 13.3814L11.4573 13.3521L11.1862 13.154C10.9982 13.0321 10.8202 12.9174 10.6449 12.8201C10.4805 12.7289 10.3226 12.6289 10.1733 12.5343C10.1634 12.528 10.1536 12.5218 10.1437 12.5155L9.94566 12.3862L9.89547 12.3496L9.86535 12.3275C9.86902 12.3225 9.864 12.3189 9.86023 12.3161C9.85647 12.3134 9.85396 12.3115 9.86265 12.3102C9.89739 12.3048 9.94951 12.2967 9.9916 12.2812C10.0684 12.2604 10.17 12.2268 10.2441 12.1885C10.4097 12.1094 10.5452 12.0082 10.6634 11.9097C10.907 11.7028 11.0683 11.4819 11.183 11.3039C11.3856 11.0054 11.4976 10.8101 11.5242 10.7525L11.5316 10.7425C11.5296 10.7432 11.5274 10.744 11.5249 10.745C11.4751 10.7634 11.3266 10.8185 11.0852 10.8476C10.7872 10.8762 10.364 10.8442 9.86712 10.6813C9.37755 10.5084 8.80959 10.232 8.30145 9.76832C8.17558 9.64556 8.05704 9.51276 7.95587 9.37725C7.86203 9.2317 7.77554 9.07612 7.74849 8.90238C7.72145 8.72864 7.76661 8.56146 7.89671 8.42555C7.92101 8.39228 7.94717 8.37094 7.97782 8.34594C7.98417 8.34076 7.99071 8.33542 7.99747 8.32979C8.00653 8.31738 8.01663 8.31161 8.03059 8.30363C8.03921 8.2987 8.04931 8.29293 8.06155 8.28423C8.10093 8.2514 8.15035 8.22592 8.19976 8.20043C8.3284 8.14184 8.49984 8.07316 8.65932 8.00928C8.75734 7.97002 8.85085 7.93257 8.92712 7.90037L8.26266 7.86144C8.24027 7.86048 8.21971 7.857 8.19915 7.85353C8.17859 7.85006 8.15803 7.84659 8.13564 7.84562C8.11691 7.83964 8.1007 7.83549 8.08448 7.83134C8.06826 7.82719 8.05205 7.82304 8.03332 7.81706C8.01518 7.80969 8.00144 7.80553 7.9897 7.80197C7.9707 7.79622 7.95695 7.79206 7.93834 7.77846C7.83062 7.71515 7.73023 7.64181 7.63447 7.54105C7.44295 7.33953 7.28811 7.08781 7.13326 6.8361C7.12398 6.82098 7.1147 6.80585 7.10541 6.7907C6.8402 6.35818 6.56821 5.91461 6.16792 5.60727L6.08761 5.5486L6.01734 5.49725L6.01927 5.45247C6.02505 5.31811 5.99608 5.18916 5.96711 5.06021C5.93169 4.92571 5.72768 4.83579 5.53058 4.74892C5.36446 4.6757 5.20324 4.60464 5.15203 4.51088C4.90863 4.11126 4.76688 3.7441 4.63715 3.40811C4.5057 3.06764 4.38659 2.75917 4.18661 2.48131C4.05918 2.23423 3.48459 1.22929 3.38805 1.06637C3.34857 0.999749 3.27641 0.847448 3.19992 0.685987C3.08936 0.452619 2.96972 0.200113 2.92659 0.159497C2.9208 0.155263 2.92259 0.161709 2.92619 0.174601C2.92882 0.184039 2.93242 0.196932 2.9347 0.211619C2.93764 0.230471 2.94061 0.252251 2.94397 0.276903C2.9561 0.365845 2.97334 0.492174 3.01235 0.653296C3.0811 0.980691 3.20624 1.44167 3.40705 1.98874C3.60787 2.5358 3.87704 3.179 4.1991 3.87624C4.24731 3.98062 4.29733 4.08631 4.34794 4.19327C4.46637 4.44355 4.58807 4.70074 4.69764 4.96419C4.84671 5.35026 4.98111 5.75642 5.11821 6.17994C5.18357 6.3962 5.24633 6.61056 5.30824 6.82202C5.4896 7.44143 5.66365 8.03591 5.87439 8.58018C6.01072 8.94154 6.16171 9.28283 6.32467 9.58666L6.38568 9.69283C6.40113 9.73491 6.42661 9.78433 6.43665 9.79167L6.47681 9.821C6.48582 9.83848 6.48344 9.83992 6.47868 9.84282C6.47671 9.84403 6.47433 9.84548 6.47218 9.84842L6.44747 9.86116L6.42276 9.8739L6.37334 9.89939C6.3523 9.90711 6.33561 9.91416 6.31891 9.92121C6.30221 9.92826 6.28551 9.9353 6.26447 9.94303C6.19768 9.97122 6.13089 9.99941 6.05406 10.0203C6.04171 10.0266 6.02868 10.0287 6.01564 10.0307C6.00261 10.0327 5.98958 10.0347 5.97723 10.0411C5.84869 10.3014 5.56493 10.479 5.27613 10.4528C5.27112 10.4491 5.26677 10.4498 5.26243 10.4504C5.25809 10.4511 5.25374 10.4518 5.24872 10.4481C4.97964 10.6057 4.70514 10.7285 4.41249 10.7918L4.37582 10.842C4.79008 10.7597 5.20975 10.7122 5.6275 10.7095C5.74911 10.6905 5.87073 10.6716 6.00509 10.6774C6.1742 10.6778 6.34138 10.7229 6.5213 10.7928C6.56751 10.8098 6.61452 10.8319 6.66308 10.8548C6.70378 10.874 6.74556 10.8937 6.78887 10.9113L6.93134 10.9692L6.97883 10.9885L6.99891 11.0032L6.98424 11.0232L6.97691 11.0333L6.96494 11.0707C6.95033 11.1067 6.94302 11.1568 6.93631 11.2029C6.93416 11.2176 6.93207 11.2319 6.92982 11.2452C6.92134 11.3622 6.93294 11.4939 6.99665 11.6174C7.03218 11.6742 7.08508 11.7282 7.14531 11.7722C7.20554 11.8162 7.28778 11.8301 7.35998 11.8367C7.43218 11.8432 7.50901 11.8224 7.56847 11.8042L7.61055 11.7888L7.60321 11.7988L7.63952 11.9177C7.65767 11.9772 7.67119 12.0641 7.67389 12.0814C7.66656 12.0915 7.63181 12.0969 7.52759 12.1131L7.52757 12.1131C7.49155 12.1229 7.45714 12.1305 7.42462 12.1376C7.38778 12.1457 7.35337 12.1533 7.32179 12.1629L6.18246 12.3314C6.24705 12.3866 6.58963 12.4206 6.90788 12.4522C7.19659 12.4809 7.46527 12.5076 7.48823 12.5463C7.50368 12.5884 7.51912 12.6305 7.5172 12.6753C7.51359 12.7591 7.46756 12.86 7.41535 12.9744C7.38392 13.0433 7.35026 13.117 7.32227 13.1949C7.29371 13.2973 7.26785 13.4169 7.26671 13.5239L7.26672 13.524C7.27752 13.5934 7.28023 13.6108 7.28101 13.6729C7.27908 13.7177 7.28719 13.7698 7.29531 13.822C7.35544 14.1589 7.48749 14.4447 7.60977 14.7093C7.62887 14.7507 7.64773 14.7915 7.66605 14.8319L7.77069 15.047L7.81433 15.1558C7.82767 15.1746 7.8332 15.1824 7.83805 15.1906C7.84148 15.1963 7.84458 15.2023 7.84986 15.2126L7.87535 15.262C7.92437 15.3351 8.33079 15.2809 8.61566 15.243C8.802 15.2182 8.93633 15.2003 8.88457 15.2295C8.07261 15.7001 8.31276 16.09 8.45103 16.3146C8.46285 16.3338 8.47393 16.3517 8.48354 16.3685C8.71292 16.8132 8.97549 17.1282 9.19171 17.317C9.34126 17.451 9.46262 17.5147 9.51496 17.5422C9.52776 17.5489 9.53643 17.5535 9.54037 17.5564C9.53254 17.5506 9.51575 17.5571 9.48874 17.5676C9.48116 17.5706 9.47277 17.5738 9.46354 17.5772C9.45375 17.5823 9.44219 17.5872 9.42939 17.5928C9.3776 17.6151 9.30538 17.6462 9.24658 17.7267C9.21724 17.7668 9.1906 17.8243 9.19138 17.8865C9.13463 17.922 9.08521 17.9475 9.01842 17.9757C8.87045 18.0496 8.67855 18.0825 8.48711 18.1153C8.1766 18.1685 7.86731 18.2215 7.74862 18.4492C7.72812 18.4164 7.70032 18.3796 7.67031 18.3399ZM23.946 8.80836L23.9777 8.77667L23.9777 8.77667C24.0398 8.72694 24.102 8.67721 24.1517 8.62748C24.2077 8.59018 24.2605 8.54977 24.3134 8.50936C24.3662 8.46896 24.419 8.42855 24.475 8.39125C24.4311 8.43111 24.3809 8.47481 24.3239 8.52275C24.219 8.60019 24.0926 8.69507 23.946 8.80836ZM12.7794 25.8704C13.1584 25.7664 13.4796 25.9733 13.4121 26.4827C14.1175 26.2128 14.8273 27.686 14.8872 28.2995C14.8872 28.2995 15.0736 28.2972 15.0837 28.3045C14.7853 28.5022 14.6162 28.9022 14.7131 29.2964C14.6618 29.348 14.614 29.4048 14.569 29.4657C14.4366 29.3448 14.2893 29.2502 14.1307 29.1668C13.994 29.0549 13.8324 28.9678 13.6583 28.9305C13.6769 28.943 13.6925 28.9523 13.708 28.9616C13.7236 28.9709 13.7391 28.9803 13.7578 28.9927C13.6832 28.9554 13.621 28.9305 13.5464 28.9057C13.5651 28.9119 13.5837 28.915 13.6023 28.9181C13.621 28.9212 13.6396 28.9243 13.6583 28.9305C13.3475 28.7067 13.0615 28.4581 13.161 28.3089C13.1059 28.2538 13.0321 28.1925 12.9523 28.1261C12.7799 27.9828 12.5791 27.816 12.4772 27.6375V27.5629C12.4896 27.2272 12.5269 26.8045 12.6388 26.3445C12.6714 26.1895 12.7148 26.0291 12.7794 25.8704ZM5.86282 31.0193C5.86282 31.0193 5.86328 31.017 5.86421 31.0128C5.86329 31.0154 5.86282 31.0176 5.86282 31.0193ZM2.98905 0.405275C2.9837 0.38512 2.97863 0.366029 2.97371 0.347904C3.02005 0.47415 3.06447 0.645183 3.05443 0.637848C3.02669 0.546989 3.00639 0.470555 2.98905 0.405275Z" fill="#FF3A3A"/>
</g>
<defs>
<clipPath id="clip0_1580_19531">
<rect width="26.6625" height="24" fill="white" transform="translate(0 10)"/>
</clipPath>
</defs>
</svg>
