<svg width="26" height="45" viewBox="0 0 26 45" fill="none" xmlns="http://www.w3.org/2000/svg">
<g opacity="0.5">
<g clip-path="url(#clip0_1580_19456)">
<path d="M20.5664 23.4995C20.5664 23.4995 20.6731 23.7664 20.6731 23.9799C19.7836 24.14 18.8051 24.2823 18.2002 24.2823C18.2002 24.2645 18.2536 24.1222 18.3069 23.9443C19.1075 23.9265 19.8725 23.7308 20.5664 23.4995Z" fill="#25272B"/>
<path d="M7.08076 24.2823C6.47587 24.2823 5.51516 24.14 4.62561 23.9799C4.62561 23.7842 4.71457 23.5529 4.71457 23.4995C5.39062 23.7486 6.15563 23.9087 6.95623 23.9265C7.02739 24.14 7.08076 24.2823 7.08076 24.2823Z" fill="#25272B"/>
<path d="M2.66863 23.5886C2.98887 23.6598 3.77167 23.8377 4.62564 23.98C5.51519 24.1402 6.4759 24.2825 7.08079 24.2825C6.99184 24.4604 6.90288 24.6205 6.88509 24.7628C6.92067 24.8874 6.97404 25.0119 7.063 25.1542C5.74647 25.2254 4.02075 24.834 2.91771 24.5671C2.65084 24.496 2.52631 24.6917 2.50851 24.8696C2.36619 25.6168 2.08153 27.3425 1.88583 28.5523C1.76129 29.2462 1.65455 29.8866 1.58338 30.2958C1.5478 30.4737 1.45885 31.0253 2.09932 31.1676C3.09562 31.3989 4.75017 31.6479 5.30169 31.6657H5.35507C5.55077 31.6657 6.20903 31.7369 6.63602 31.0075C6.60043 31.3099 6.58264 31.5412 6.58264 31.6302C6.51148 32.235 6.12008 32.5731 5.2839 32.5553C4.44773 32.5375 1.67234 32.0216 1.17419 31.897C0.658255 31.7725 0.498136 31.3277 0.658255 30.5449C0.800582 29.7621 1.65455 24.6027 1.7435 24.3003C1.79688 23.9445 2.01037 23.4463 2.66863 23.5886Z" fill="#FFAA00"/>
<path d="M4.73241 23.4997C3.48704 23.0549 2.52633 22.3789 2.17051 22.0409C1.61899 21.5071 1.63678 20.9556 1.7969 20.7065C1.93923 20.4397 3.25576 18.4471 3.61158 18.0735C3.9674 17.6999 4.28764 17.6821 4.69683 18.287C5.05265 18.8207 5.42626 19.2477 5.76429 19.6035C6.40476 20.244 6.9207 20.582 6.95628 20.5998L6.67162 20.9912C6.67162 20.9912 6.83174 21.2225 6.97407 21.4715C5.46184 20.6354 4.51892 19.4078 4.34101 19.1943C4.1631 18.9808 3.93182 19.0164 3.82507 19.1053C3.73612 19.1943 2.93552 20.5108 2.7754 20.7955C2.63308 21.0801 2.75761 21.3826 2.9889 21.5961C4.02077 22.5568 5.1416 23.0194 6.74279 23.2328C6.81395 23.4463 6.90291 23.7488 6.97407 23.9623C6.17348 23.9267 5.40847 23.7488 4.73241 23.4997Z" fill="#FFAA00"/>
<path d="M24.6582 30.5091C24.8006 31.2919 24.6404 31.7367 24.1423 31.8612C23.6263 31.9858 20.8687 32.5017 20.0326 32.5195C19.1964 32.5373 18.805 32.1993 18.7338 31.5944C18.716 31.5054 18.6983 31.2741 18.6627 30.9717C19.0897 31.7011 19.7479 31.6299 19.9436 31.6299H19.997C20.5307 31.6121 22.1853 31.3631 23.1994 31.1318C23.8398 30.9895 23.7509 30.4379 23.7153 30.26C23.6441 29.8508 23.5374 29.2104 23.4129 28.5165C23.2172 27.3067 22.9147 25.5988 22.7902 24.8338C22.7546 24.6559 22.6478 24.478 22.381 24.5313C21.2779 24.7982 19.5344 25.1896 18.2357 25.1185C18.3246 24.9761 18.3958 24.8516 18.4136 24.727C18.378 24.5847 18.3069 24.4246 18.2179 24.2467C18.8228 24.2467 19.8013 24.1044 20.6908 23.9442C21.527 23.7841 22.3098 23.624 22.6301 23.5528C23.2883 23.4105 23.5018 23.9087 23.6086 24.2111C23.6619 24.5669 24.5159 29.7263 24.6582 30.5091Z" fill="#FFAA00"/>
<path d="M20.9399 19.1765C20.762 19.39 19.8013 20.6175 18.3069 21.4537C18.467 21.2224 18.6093 20.9734 18.6093 20.9734L18.3246 20.582C18.3246 20.582 18.8584 20.2617 19.5166 19.5857C19.8547 19.2476 20.2283 18.8029 20.5841 18.2691C20.9933 17.6642 21.3135 17.682 21.6693 18.0556C22.0252 18.4293 23.3239 20.4218 23.484 20.6887C23.6263 20.9556 23.6619 21.5071 23.1104 22.023C22.7546 22.3611 21.8117 23.0193 20.5663 23.4641C19.8902 23.7132 19.1074 23.8911 18.2891 23.9089C18.3602 23.6776 18.4492 23.3929 18.5203 23.1794C20.1215 22.9659 21.2602 22.5034 22.2742 21.5427C22.4877 21.3292 22.6301 21.0267 22.4877 20.7421C22.3454 20.4574 21.5448 19.1409 21.4381 19.0519C21.3491 18.9986 21.1 18.963 20.9399 19.1765Z" fill="#FFAA00"/>
<path d="M10.6035 16.2765C10.2299 16.0986 9.87404 15.8673 9.53601 15.5827C11.2262 14.4618 12.6316 14.2839 12.6316 14.2839C12.6316 14.2839 14.0193 14.4618 15.7095 15.5827C15.3714 15.8673 15.0156 16.0986 14.642 16.2765C14.4463 16.3655 14.2684 16.4544 14.0727 16.5256C13.3966 15.8317 12.6316 15.1735 12.6316 15.1735C12.6316 15.1735 11.8666 15.8317 11.1906 16.5256C10.9949 16.4544 10.7992 16.3655 10.6035 16.2765Z" fill="#25272B"/>
<path d="M6.93844 20.5818L7.84577 19.3542C8.36171 19.6745 8.91323 19.9591 9.50033 20.2082C10.0519 20.4395 10.639 20.653 11.2616 20.8131C11.742 21.0444 12.1868 21.2223 12.6315 21.3824C13.0763 21.2223 13.5211 21.0444 14.0014 20.8131C14.6241 20.653 15.2112 20.4573 15.7627 20.2082C16.3499 19.9591 16.9014 19.6745 17.4173 19.3542L18.3246 20.5818L18.6093 20.9732C18.6093 20.9732 18.4492 21.2045 18.3069 21.4536C18.2179 21.5959 18.1289 21.7382 18.0578 21.8094C18.04 21.8272 18.0222 21.845 18.0222 21.8628C17.9688 21.9161 17.7731 22.1118 17.3639 22.3431C17.2038 22.4321 17.0259 22.521 16.8302 22.61C16.0652 22.948 14.9266 23.286 13.2542 23.3928C13.0585 23.4106 12.8628 23.4106 12.6671 23.4284C12.4536 23.4284 12.2579 23.4106 12.0622 23.3928C10.3899 23.286 9.25126 22.948 8.48625 22.61C8.27276 22.521 8.09485 22.4321 7.95252 22.3431C7.54333 22.1118 7.32984 21.9161 7.29425 21.8628C7.27646 21.845 7.27646 21.8272 7.25867 21.8094C7.2053 21.7204 7.09855 21.5959 7.0096 21.4536C6.84948 21.2223 6.70715 20.9732 6.70715 20.9732L6.93844 20.5818Z" fill="#31363D"/>
<path d="M7.22315 10.3877C7.16978 12.6649 8.20166 14.4796 9.53598 15.5827C9.87401 15.8673 10.2476 16.0986 10.6034 16.2765C10.4255 16.2765 8.57527 16.2231 7.73909 16.1698C7.73909 16.1698 7.73909 16.1698 7.73909 16.1875C7.02745 15.387 6.44035 14.3729 6.44035 14.3729C6.44035 14.3729 6.1379 12.4514 7.22315 10.3877Z" fill="#FFAA00"/>
<path d="M16.8302 16.8279C16.8302 16.8279 16.0296 18.9628 15.1401 20.1192C14.7309 20.4039 14.3572 20.6352 13.9836 20.8131C13.5033 21.0444 13.0585 21.2223 12.6137 21.3824C12.169 21.2223 11.7242 21.0444 11.2438 20.8131C10.888 20.6352 10.4966 20.4039 10.0874 20.1192C9.23345 18.9628 8.43286 16.8279 8.43286 16.8279C8.43286 16.8279 9.90951 16.8813 10.7101 17.0236C10.8524 16.8635 11.0125 16.6856 11.1727 16.5255C11.8487 15.8316 12.6137 15.1733 12.6137 15.1733C12.6137 15.1733 13.3787 15.8316 14.0548 16.5255C14.2149 16.6856 14.375 16.8635 14.5352 17.0236C15.3713 16.8813 16.8302 16.8279 16.8302 16.8279Z" fill="#FFAA00"/>
<path d="M7.75684 16.1519C8.59301 16.2052 10.4433 16.2586 10.6212 16.2586C10.8169 16.3476 10.9948 16.4365 11.1905 16.5077C11.0304 16.6678 10.8703 16.8457 10.7279 17.0058C9.89175 16.8813 8.43289 16.8279 8.43289 16.8279C8.20161 16.65 7.97033 16.4187 7.75684 16.1519C7.75684 16.1696 7.75684 16.1696 7.75684 16.1519Z" fill="#FF7B00"/>
<path d="M9.51816 20.2262C8.93106 19.9771 8.37954 19.6924 7.8636 19.3722C7.41883 19.1053 7.00964 18.8029 6.61824 18.4826C3.18458 15.725 1.53002 11.562 0 9.03564C3.11342 10.2454 6.45812 14.3551 6.45812 14.3551C6.45812 14.3551 7.04522 15.3692 7.75686 16.1698C7.79244 16.4189 8.21942 18.8029 9.51816 20.2262Z" fill="#FF7B00"/>
<path d="M9.51814 20.226C8.2194 18.8027 7.79242 16.4365 7.75684 16.1697C7.97033 16.4188 8.20161 16.65 8.43289 16.8279C8.43289 16.8279 9.23349 18.9629 10.123 20.1193C10.5322 20.4217 10.9058 20.6352 11.2794 20.8131C10.639 20.653 10.0697 20.4573 9.51814 20.226Z" fill="#F25900"/>
<path d="M17.5241 16.1519C17.5063 16.3298 17.0793 18.7671 15.7628 20.2082C15.2113 20.4395 14.6241 20.653 14.0015 20.8131C14.3573 20.6352 14.7487 20.4039 15.1579 20.1192C16.0474 18.945 16.848 16.8279 16.848 16.8279C17.0615 16.65 17.2928 16.4187 17.5241 16.1519Z" fill="#F25900"/>
<path d="M15.7628 20.2262C17.0793 18.7673 17.5063 16.3299 17.5241 16.1698C18.218 15.3692 18.8051 14.3551 18.8051 14.3551C18.8051 14.3551 22.1498 10.2454 25.2632 9.03564C23.7332 11.5798 22.0786 15.725 18.645 18.4826C18.2536 18.8029 17.8444 19.0875 17.3996 19.3722C16.9014 19.6746 16.3499 19.9771 15.7628 20.2262Z" fill="#FF7B00"/>
<path d="M18.04 10.3877C19.1253 12.4514 18.7873 14.3373 18.7873 14.3373C18.7873 14.3373 18.2002 15.3336 17.5063 16.152C16.6523 16.2053 14.7131 16.2587 14.642 16.2587C15.0156 16.0808 15.3714 15.8495 15.7094 15.5649C17.0615 14.4796 18.0934 12.6649 18.04 10.3877Z" fill="#FFAA00"/>
<path d="M17.5241 16.1519C17.3106 16.4009 17.0793 16.65 16.8481 16.8279C16.8481 16.8279 15.3892 16.8813 14.5708 17.0236C14.4285 16.8635 14.2684 16.6856 14.0905 16.5255C14.2862 16.4543 14.4641 16.3831 14.6598 16.2764C14.7309 16.2764 16.6524 16.223 17.5241 16.1519Z" fill="#FF7B00"/>
<path d="M2.89991 24.5493C4.00295 24.8161 5.74646 25.2075 7.0452 25.1364C7.08078 25.1898 7.11636 25.2431 7.16974 25.2965C7.16974 25.3499 7.06299 26.3462 6.93845 27.5204C6.86729 28.1786 6.79613 28.8903 6.74275 29.5307C6.68938 30.0823 6.63601 30.5804 6.60043 30.954C6.17344 31.6835 5.51518 31.6123 5.31948 31.6123H5.2661C4.73237 31.5945 3.07782 31.3454 2.06373 31.1141C1.42326 30.9718 1.51221 30.4203 1.54779 30.2424C1.61896 29.8332 1.7257 29.1927 1.85024 28.4989C2.04594 27.2891 2.34839 25.5812 2.47292 24.8161C2.50851 24.6738 2.63304 24.4781 2.89991 24.5493ZM6.04891 27.9651C6.04891 27.04 5.30169 26.2928 4.37656 26.2928C3.45143 26.2928 2.70421 27.04 2.70421 27.9651C2.70421 28.8903 3.45143 29.6375 4.37656 29.6375C5.30169 29.6375 6.04891 28.8903 6.04891 27.9651Z" fill="#31363D"/>
<path d="M13.788 24.9762C13.5745 24.9762 13.3254 25.2431 13.0941 25.4388C13.1831 24.7983 13.4677 24.5137 13.4677 24.5137C13.4677 24.5137 13.4144 24.8873 13.788 24.9762Z" fill="#FF7B00"/>
<path d="M11.4218 30.8472C11.1194 30.9361 10.8169 31.0607 10.5679 31.1674C10.5679 31.1674 10.3899 31.0607 10.1409 30.9006C10.728 30.5269 11.1905 30.438 11.1905 30.438C11.3151 30.4914 11.4574 30.5447 11.5997 30.5981C11.7065 30.6337 11.8132 30.6693 11.9378 30.7049C11.7598 30.7404 11.5819 30.7938 11.4218 30.8472Z" fill="#BD4D3C"/>
<path d="M12.6316 23.4284C12.8451 23.4284 13.0408 23.4106 13.2187 23.3928C13.2187 23.3928 13.1654 23.6419 13.1298 23.8376L12.6316 24.3357L12.1157 23.8376C12.0979 23.6241 12.0267 23.3928 12.0267 23.3928C12.2224 23.4106 12.4181 23.4284 12.6316 23.4284Z" fill="#FF7B00"/>
<path d="M13.5744 31.5946C13.5033 31.2921 13.2186 30.705 13.2186 30.705C13.2542 30.705 13.2898 30.6873 13.3254 30.6873C13.5033 30.7406 13.6634 30.7762 13.8413 30.8296C13.8769 31.2744 13.8057 31.9326 13.8057 31.9326C13.6634 31.7725 13.5744 31.6658 13.5744 31.6658C13.5744 31.648 13.5744 31.6302 13.5744 31.5946Z" fill="#BD4D3C"/>
<path d="M10.8703 25.6346C10.7102 25.9192 10.0163 26.3996 9.28688 26.4885C8.78873 26.453 8.30838 26.2395 7.88139 25.9548C7.59674 25.7591 7.34767 25.5456 7.16976 25.3143C7.11638 25.261 7.0808 25.2076 7.04522 25.1542C6.95626 25.0119 6.8851 24.8874 6.86731 24.7628C6.90289 24.6205 6.97406 24.4604 7.06301 24.2825C7.06301 24.2825 7.50778 24.8518 8.53966 25.1364C9.28688 25.3499 10.4077 25.4033 11.2617 25.0653C11.1016 25.1898 10.8881 25.4389 10.8703 25.6346Z" fill="#FF7B00"/>
<path d="M14.0727 30.438C14.0727 30.438 14.5353 30.5269 15.1224 30.9006C14.8911 31.0607 14.7132 31.1674 14.7132 31.1674C14.4463 31.0607 14.1616 30.9539 13.8592 30.8472C13.6813 30.7938 13.5212 30.7404 13.3433 30.7049C13.4678 30.6693 13.5745 30.6337 13.6813 30.5981C13.8058 30.5447 13.9482 30.4914 14.0727 30.438Z" fill="#BD4D3C"/>
<path d="M16.5456 27.5915C16.688 27.3068 16.2254 27.0578 15.9408 26.9866C15.6561 26.9154 14.9445 26.5596 14.4819 26.0615C14.4641 25.8836 14.3929 25.6523 14.3929 25.6167C14.5531 25.9014 15.2469 26.3817 15.9763 26.4707C16.4745 26.4351 16.9726 26.2216 17.3818 25.9369C17.364 25.9725 17.0616 26.5774 16.7058 27.2713C16.6702 27.378 16.599 27.4847 16.5456 27.5915Z" fill="#CD6300"/>
<path d="M7.25871 21.8627C7.31208 21.9161 7.50779 22.1118 7.91698 22.3431C7.59674 22.7879 7.54337 23.2504 7.50779 23.5885C7.50779 23.5885 7.25871 23.9265 7.06301 24.2823C7.06301 24.2823 7.00964 24.14 6.95627 23.9443C6.8851 23.713 6.79615 23.4283 6.72498 23.2148C6.67161 23.0547 6.65382 22.948 6.63603 22.9124C6.61824 22.7701 7.18755 21.8271 7.18755 21.8271C7.22313 21.8271 7.24092 21.8449 7.25871 21.8627Z" fill="#CD6300"/>
<path d="M11.4574 31.9326C11.4574 31.9326 11.3862 31.2921 11.4218 30.8296C11.5997 30.7762 11.7599 30.7228 11.9378 30.6873C11.9733 30.6873 12.0089 30.705 12.0445 30.705C12.0445 30.705 11.7599 31.2921 11.6887 31.5946C11.6887 31.6302 11.6887 31.648 11.6887 31.6658C11.6887 31.6835 11.5997 31.7903 11.4574 31.9326Z" fill="#BD4D3C"/>
<path d="M11.4218 30.8472C11.404 31.2919 11.4573 31.9502 11.4573 31.9502C11.1905 32.2704 10.7457 32.7686 10.639 32.8753C10.4788 33.0355 10.0519 33.1244 9.80278 32.8042C9.55371 32.4661 9.60708 31.8435 9.7672 31.6122C9.85615 31.5054 10.1586 31.3453 10.5678 31.1674C10.8169 31.0607 11.1193 30.9361 11.4218 30.8472Z" fill="#DB8660"/>
<path d="M16.5456 27.5915C16.5989 27.4847 16.6523 27.378 16.7057 27.2712C16.7057 27.2712 17.364 27.6271 17.4707 27.6626C17.4707 27.6626 17.1505 28.2675 16.8124 28.8902C16.6345 29.2105 16.4566 29.5129 16.3143 29.762C16.2609 29.8687 16.1898 29.9399 16.1542 30.011C15.9229 30.3491 15.4603 30.6871 15.1223 30.9184C14.5352 30.5448 14.0726 30.4558 14.0726 30.4558C14.9088 30.1 15.4781 29.6374 15.5849 29.4595C15.6738 29.3172 16.1186 28.4454 16.5456 27.5915C16.5456 27.6093 16.5456 27.6093 16.5456 27.5915Z" fill="#DB8660"/>
<path d="M7.84579 19.3544L6.93845 20.582C6.90287 20.5642 6.38693 20.2261 5.74646 19.5857C6.08449 19.0519 6.60043 18.4648 6.60043 18.4648C6.99183 18.7851 7.41881 19.0875 7.84579 19.3544Z" fill="#25272B"/>
<path d="M19.5167 19.5857C18.8584 20.2617 18.3247 20.582 18.3247 20.582L17.4174 19.3544C17.8621 19.0875 18.2713 18.7851 18.6627 18.4648C18.6627 18.4826 19.1787 19.0519 19.5167 19.5857Z" fill="#25272B"/>
<path d="M18.3246 27.5381C18.3958 28.1964 18.467 28.908 18.5203 29.5485C17.6486 28.8546 16.8302 28.8724 16.8302 28.8724C17.1682 28.2497 17.4885 27.6448 17.4885 27.6448C17.5774 27.6804 18.3246 27.5381 18.3246 27.5381Z" fill="#141517"/>
<path d="M8.45076 28.8724C8.45076 28.8724 7.61459 28.8368 6.76062 29.5485C6.83178 28.908 6.90295 28.1964 6.95632 27.5381C6.95632 27.5381 7.70354 27.6982 7.7925 27.6626C7.7925 27.6626 8.09494 28.2675 8.45076 28.8724Z" fill="#141517"/>
<path d="M18.5204 29.5484C18.5738 30.0999 18.6272 30.5981 18.6628 30.9717C17.5241 29.673 16.3322 29.7441 16.3322 29.7441C16.4745 29.495 16.6524 29.1926 16.8303 28.8724C16.8303 28.8724 17.6487 28.8368 18.5204 29.5484Z" fill="#F25900"/>
<path d="M8.93108 29.7441C8.87771 29.7441 7.7035 29.7085 6.60046 30.9717C6.63605 30.5981 6.68942 30.0999 6.74279 29.5484C7.59676 28.8546 8.43293 28.8724 8.43293 28.8724C8.61084 29.1926 8.78875 29.495 8.93108 29.7441Z" fill="#F25900"/>
<path d="M18.0934 25.2964C18.0934 25.3498 18.2002 26.3461 18.3247 27.5203C18.3247 27.5203 17.5775 27.6804 17.4885 27.6448C17.3996 27.6092 16.7235 27.2534 16.7235 27.2534C17.0793 26.5595 17.3818 25.9724 17.3996 25.9191C17.6664 25.7412 17.9155 25.5277 18.0934 25.2964Z" fill="#BD4D3C"/>
<path d="M8.53969 27.2712C8.53969 27.2712 7.88143 27.627 7.79247 27.6626C7.70352 27.6982 6.9563 27.5381 6.9563 27.5381C7.08084 26.3461 7.16979 25.3498 7.18758 25.3142C7.36549 25.5455 7.61456 25.759 7.89922 25.9547C7.89922 25.9903 8.20167 26.5774 8.53969 27.2712Z" fill="#BD4D3C"/>
<path d="M8.93107 29.7442C8.78874 29.4951 8.61083 29.1926 8.43292 28.8724C8.0949 28.2497 7.77466 27.6448 7.77466 27.6448C7.86361 27.6092 8.52188 27.2534 8.52188 27.2534C8.57525 27.3602 8.62862 27.4669 8.682 27.5737C9.10898 28.4098 9.55375 29.2816 9.64271 29.4239C9.74945 29.6018 10.3188 30.0644 11.1549 30.4202C11.1549 30.4202 10.6924 30.5092 10.1053 30.8828C9.76725 30.6515 9.30468 30.3135 9.0734 29.9754C9.05561 29.9221 9.00223 29.8331 8.93107 29.7442Z" fill="#DB8660"/>
<path d="M13.5744 31.5944C13.5744 31.63 13.5744 31.6478 13.5744 31.6655C13.5389 31.8968 13.0051 31.9324 12.6315 31.9324C12.2579 31.9324 11.742 31.8968 11.6886 31.6655C11.6886 31.6478 11.6886 31.6122 11.6886 31.5944C11.7598 31.2919 12.0444 30.7048 12.0444 30.7048C12.2401 30.7582 12.4358 30.7938 12.6315 30.8116C12.845 30.7938 13.0407 30.7582 13.2186 30.7048C13.2186 30.7226 13.5033 31.3097 13.5744 31.5944Z" fill="#DB8660"/>
<path d="M15.4959 31.5944C15.656 31.8078 15.7272 32.4483 15.4603 32.7864C15.2113 33.1244 14.7843 33.0176 14.6242 32.8575C14.5174 32.7508 14.0727 32.2526 13.8058 31.9324C13.8058 31.9324 13.877 31.2919 13.8414 30.8293C14.1438 30.9183 14.4463 31.0428 14.6953 31.1496C15.1045 31.3275 15.407 31.4876 15.4959 31.5944Z" fill="#DB8660"/>
<path d="M14.7487 27.4849C14.9266 27.983 15.229 28.6591 15.229 28.6591C15.0511 28.8192 14.8376 28.9437 14.5886 28.9793C14.4818 28.072 14.7487 27.4849 14.7487 27.4849Z" fill="#D1C2BA"/>
<path d="M10.5144 27.4849C10.5144 27.4849 10.7813 28.072 10.6745 28.9793C10.4255 28.9437 10.212 28.8192 10.0341 28.6591C10.0341 28.6591 10.3365 27.983 10.5144 27.4849Z" fill="#D1C2BA"/>
<path d="M14.7487 27.4849C14.7487 27.4849 14.4819 28.072 14.5886 28.9793C14.5175 28.9971 14.4463 28.9971 14.3573 28.9971C14.1616 28.9971 14.0015 28.9615 13.8236 28.9259C13.877 28.4278 14.3395 27.6806 14.7487 27.4849Z" fill="#F5ECE7"/>
<path d="M10.5144 27.4849C10.9236 27.6806 11.3862 28.4278 11.4573 28.9259C11.2794 28.9615 11.1015 28.9971 10.9236 28.9971C10.8346 28.9971 10.7635 28.9971 10.6923 28.9793C10.7813 28.072 10.5144 27.4849 10.5144 27.4849Z" fill="#F5ECE7"/>
<path d="M15.8695 27.5204C15.745 27.983 15.5315 28.3921 15.229 28.659C15.229 28.659 14.9266 27.983 14.7487 27.4848C14.3395 27.6805 13.8769 28.4277 13.8058 28.9259C13.4322 28.8369 13.0763 28.7124 12.6138 28.7124C12.1512 28.7124 11.7954 28.8369 11.4218 28.9259C11.3684 28.4277 10.9058 27.6805 10.4789 27.4848C10.301 27.983 9.99851 28.659 9.99851 28.659C9.69606 28.3921 9.50036 27.983 9.35803 27.5204C9.76722 27.1468 10.212 27.0578 10.5856 27.0756C10.977 27.0934 11.2617 27.5204 11.5107 27.7161C11.7598 27.9118 12.258 27.9652 12.596 27.9652C12.9518 27.9652 13.4322 27.9118 13.6812 27.7161C13.9303 27.5204 14.215 27.0934 14.6064 27.0756C15.0333 27.0578 15.4781 27.1468 15.8695 27.5204Z" fill="#25272B"/>
<path d="M17.0793 23.1438C17.0971 23.2328 17.1326 23.3039 17.1326 23.3929C16.9903 23.6419 16.759 23.9088 16.4744 24.1401C16.083 24.4603 15.5848 24.7094 15.1578 24.7094C14.6597 24.7094 14.126 24.5493 13.6812 24.2646C13.4855 24.1401 13.3076 23.9978 13.1475 23.8376C13.1475 23.8554 15.3713 23.9444 17.0793 23.1438Z" fill="#25272B"/>
<path d="M8.18387 23.1438C9.8918 23.9444 12.1157 23.8376 12.1157 23.8376C11.5997 24.3536 10.8169 24.7094 10.1053 24.7094C9.67831 24.7094 9.19795 24.4603 8.78876 24.1401C8.5041 23.9088 8.27282 23.6419 8.13049 23.3929C8.14828 23.3217 8.16607 23.2328 8.18387 23.1438Z" fill="#25272B"/>
<path d="M16.8124 22.6101C16.8124 22.6101 16.9903 22.8592 17.0793 23.1438C15.3713 23.9444 13.1475 23.8377 13.1475 23.8377C13.1653 23.6242 13.2364 23.3929 13.2364 23.3929C14.891 23.2862 16.0474 22.9481 16.8124 22.6101Z" fill="#141517"/>
<path d="M12.1156 23.8555C12.1156 23.8555 9.89177 23.9445 8.18384 23.1617C8.27279 22.877 8.4507 22.6279 8.4507 22.6279C9.21571 22.966 10.3543 23.304 12.0267 23.4107C12.0267 23.3929 12.0978 23.642 12.1156 23.8555Z" fill="#141517"/>
<path d="M8.78879 24.1401C8.36181 23.8911 7.86366 23.5886 7.52563 23.5886C7.54343 23.2506 7.61459 22.788 7.93483 22.3433C8.07715 22.4322 8.25506 22.5212 8.46856 22.6101C8.46856 22.6101 8.29065 22.8592 8.20169 23.1439C8.1839 23.2328 8.14832 23.304 8.14832 23.3929C8.27285 23.6598 8.52193 23.9267 8.78879 24.1401Z" fill="#FF7B00"/>
<path d="M17.3461 22.3433C17.6664 22.788 17.7197 23.2506 17.7553 23.5886C17.3995 23.5886 16.9013 23.8911 16.4744 24.1401C16.759 23.9089 16.9903 23.642 17.1326 23.3929C17.1326 23.304 17.1148 23.2328 17.0793 23.1439C16.9903 22.8592 16.8124 22.6101 16.8124 22.6101C17.0081 22.5212 17.186 22.4322 17.3461 22.3433Z" fill="#FF7B00"/>
<path d="M18.04 21.8096C18.04 21.8096 18.6093 22.7703 18.5915 22.8948C18.5915 22.9304 18.5559 23.0549 18.5025 23.1973C18.4314 23.4108 18.3424 23.7132 18.2713 23.9267C18.2179 24.1224 18.1645 24.2469 18.1645 24.2647C17.9688 23.9089 17.7197 23.5709 17.7197 23.5709C17.6842 23.2328 17.6308 22.7703 17.3105 22.3255C17.7197 22.0942 17.9332 21.8985 17.9688 21.8452C18.0222 21.8452 18.0222 21.8274 18.04 21.8096Z" fill="#CD6300"/>
<path d="M19.2499 11.3484C20.2284 10.1742 22.6479 8.76868 25.2632 9.01775C22.1498 10.2275 18.8051 14.3372 18.8051 14.3372C18.8051 14.3372 19.1253 12.4336 18.0579 10.3877C18.0934 10.4232 18.8229 10.8146 19.2499 11.3484Z" fill="#FFC85C"/>
<path d="M23.7153 30.2601C23.7509 30.438 23.8399 30.9895 23.1994 31.1319C22.2031 31.3631 20.5485 31.6122 19.997 31.63H19.9436C19.7479 31.63 19.0897 31.7012 18.6627 30.9717C18.6271 30.5981 18.5737 30.1 18.5204 29.5485C18.4492 28.908 18.378 28.1963 18.3247 27.5381C18.2001 26.3461 18.1112 25.3498 18.0934 25.3142C18.1468 25.2608 18.1823 25.2075 18.2001 25.1541C19.5167 25.2253 21.2424 24.8339 22.3454 24.567C22.6301 24.4958 22.7368 24.6915 22.7546 24.8694C22.8969 25.6167 23.1816 27.3424 23.3773 28.5522C23.5374 29.2104 23.6442 29.8509 23.7153 30.2601ZM22.5411 27.9651C22.5411 27.0399 21.7939 26.2927 20.8688 26.2927C19.9436 26.2927 19.1964 27.0399 19.1964 27.9651C19.1964 28.8902 19.9436 29.6374 20.8688 29.6374C21.7939 29.6374 22.5411 28.8902 22.5411 27.9651Z" fill="#31363D"/>
<path d="M22.4878 20.7598C22.6301 21.0444 22.5056 21.3469 22.2743 21.5604C21.2424 22.5211 20.1216 22.9836 18.5204 23.1971C18.5738 23.037 18.5916 22.9303 18.6094 22.8947C18.6272 22.7524 18.0579 21.8094 18.0579 21.8094C18.129 21.7205 18.218 21.5959 18.3069 21.4536C19.8014 20.6174 20.7621 19.3899 20.94 19.1764C21.1179 18.9629 21.3492 18.9985 21.4381 19.0874C21.5271 19.1764 22.3277 20.4751 22.4878 20.7598Z" fill="#31363D"/>
<path d="M20.8866 26.2927C21.8117 26.2927 22.5589 27.0399 22.5589 27.9651C22.5589 28.8902 21.8117 29.6374 20.8866 29.6374C19.9615 29.6374 19.2142 28.8902 19.2142 27.9651C19.2142 27.0399 19.9615 26.2927 20.8866 26.2927ZM21.2068 27.9651C22.381 27.9651 21.6338 26.6663 21.0467 27.6804C21.6338 26.6663 20.1394 26.6663 20.7087 27.6804C20.1216 26.6663 19.3744 27.9651 20.5486 27.9651C19.3744 27.9651 20.1216 29.2638 20.7087 28.2497C20.1216 29.2638 21.616 29.2638 21.0467 28.2497C21.6338 29.2638 22.381 27.9651 21.2068 27.9651Z" fill="#FFAA00"/>
<path d="M21.0467 27.6805C21.6338 26.6664 22.381 27.9651 21.2068 27.9651C22.381 27.9651 21.6338 29.2639 21.0467 28.2498C21.6338 29.2639 20.1394 29.2639 20.7087 28.2498C20.1216 29.2639 19.3744 27.9651 20.5486 27.9651C19.3744 27.9651 20.1216 26.6664 20.7087 27.6805C20.1216 26.6664 21.6338 26.6664 21.0467 27.6805Z" fill="white"/>
<path d="M18.3958 24.745C18.3602 24.8695 18.3069 24.9941 18.2179 25.1364C18.1823 25.1898 18.1468 25.2432 18.1112 25.2965C17.9333 25.5278 17.6842 25.7413 17.3995 25.937C16.9903 26.2217 16.4922 26.4351 15.9941 26.4707C15.2646 26.3818 14.5708 25.9014 14.4107 25.6168C14.3751 25.4389 14.1794 25.1898 14.0015 25.0474C14.8554 25.3677 15.9763 25.3143 16.7235 25.1186C17.7554 24.834 18.2001 24.2646 18.2001 24.2646C18.2891 24.4426 18.3602 24.6205 18.3958 24.745Z" fill="#FF7B00"/>
<path d="M17.7554 23.5886C17.3996 23.5886 16.9014 23.8911 16.4744 24.1401C16.083 24.4604 15.5849 24.7095 15.1579 24.7095C14.6598 24.7095 14.126 24.5493 13.6813 24.2647C13.4856 24.1401 13.3076 23.9978 13.1475 23.8377L12.6316 24.3358L12.1157 23.8377C11.5997 24.3536 10.8169 24.7095 10.1053 24.7095C9.67829 24.7095 9.19793 24.4604 8.78874 24.1401C8.36176 23.8911 7.86361 23.5886 7.52558 23.5886C7.52558 23.5886 7.27651 23.9267 7.08081 24.2825C7.08081 24.2825 7.52558 24.8518 8.55746 25.1364C9.30468 25.3499 10.4255 25.4033 11.2795 25.0653C11.1016 25.2076 10.8881 25.4389 10.8703 25.6346C10.8703 25.6524 10.8703 25.6702 10.8703 25.688C10.8881 25.9192 11.1194 26.2751 11.3151 26.364C11.5108 26.453 11.6887 26.4174 11.6887 26.4174C11.6887 26.4174 12.0623 26.8444 12.6316 26.9155C13.2009 26.8444 13.5745 26.4174 13.5745 26.4174C13.5745 26.4174 13.7524 26.453 13.9659 26.364C14.1616 26.2751 14.3929 25.9192 14.4107 25.688C14.4107 25.6702 14.4107 25.6524 14.4107 25.6346C14.3751 25.4567 14.1794 25.2076 14.0015 25.0653C14.8555 25.3855 15.9763 25.3321 16.7235 25.1364C17.7554 24.8518 18.2002 24.2825 18.2002 24.2825C17.9867 23.9267 17.7554 23.5886 17.7554 23.5886ZM11.493 24.9763C11.8666 24.8874 11.8132 24.5138 11.8132 24.5138C11.8132 24.5138 12.0801 24.7984 12.1868 25.4389C11.9555 25.2432 11.6887 24.9763 11.493 24.9763ZM13.0764 25.4389C13.1653 24.7984 13.45 24.5138 13.45 24.5138C13.45 24.5138 13.4144 24.8874 13.7702 24.9763C13.5745 24.9763 13.3076 25.2432 13.0764 25.4389Z" fill="#FFAA00"/>
<path d="M11.4396 28.9259C11.8132 28.8369 12.169 28.7124 12.6316 28.7124C13.0942 28.7124 13.45 28.8369 13.8236 28.9259C14.0015 28.9614 14.1794 28.997 14.3573 28.997C14.4463 28.997 14.5175 28.997 14.5886 28.9792C14.8377 28.9437 15.0512 28.8191 15.2291 28.659C15.5315 28.3921 15.7272 27.9829 15.8696 27.5204C15.4604 27.1468 15.0156 27.0578 14.642 27.0756C14.2506 27.0934 13.9659 27.5204 13.7169 27.7161C13.4678 27.9118 12.9696 27.9652 12.6316 27.9652C12.2758 27.9652 11.7954 27.9118 11.5464 27.7161C11.2973 27.5204 11.0126 27.0934 10.6212 27.0756C10.2298 27.0578 9.78506 27.1468 9.39366 27.5204C9.5182 27.9829 9.73169 28.3921 10.0341 28.659C10.212 28.8191 10.4255 28.9437 10.6746 28.9792C10.7458 28.997 10.8169 28.997 10.9059 28.997C11.0838 28.997 11.2617 28.9614 11.4396 28.9259ZM15.9407 26.9867C16.2076 27.0578 16.688 27.3069 16.5456 27.5915C16.1186 28.4277 15.6739 29.2995 15.5849 29.4418C15.4782 29.6197 14.9089 30.0823 14.0727 30.4381C13.9481 30.4915 13.8058 30.5448 13.6635 30.5982C14.1972 30.2958 13.2009 29.6375 12.6316 29.6375C12.0445 29.6375 11.066 30.3136 11.5997 30.5982C11.4574 30.5448 11.3329 30.5093 11.1905 30.4381C10.3544 30.0823 9.78506 29.6197 9.67832 29.4418C9.58936 29.3173 9.14459 28.4455 8.7176 27.5915C8.57528 27.3069 9.03784 27.0578 9.3225 26.9867C9.60715 26.9155 10.3188 26.5597 10.7814 26.0615C10.8169 26.2572 11.1905 26.6308 11.5819 26.5953C11.7243 26.8087 12.2046 27.2535 12.6316 27.2713C13.0408 27.2535 13.539 26.8087 13.6813 26.5953C14.0727 26.6308 14.4463 26.2572 14.4819 26.0615C14.9444 26.5775 15.6739 26.9155 15.9407 26.9867Z" fill="#FFAA00"/>
<path d="M14.3929 25.6345C14.3929 25.6701 14.4641 25.9014 14.4819 26.0793C14.4463 26.275 14.0727 26.6486 13.6813 26.613C13.539 26.8265 13.0586 27.2713 12.6316 27.2891C12.2046 27.2713 11.7243 26.8265 11.582 26.613C11.1728 26.6486 10.817 26.275 10.7814 26.0793C10.7992 25.9014 10.8525 25.6701 10.8703 25.6345C10.8703 25.6523 10.8703 25.6701 10.8703 25.6879C10.8881 25.9192 11.1194 26.275 11.3151 26.364C11.5108 26.4529 11.6887 26.4173 11.6887 26.4173C11.6887 26.4173 12.0623 26.8443 12.6316 26.9155C13.2009 26.8443 13.5746 26.4173 13.5746 26.4173C13.5746 26.4173 13.7525 26.4529 13.966 26.364C14.1617 26.275 14.3929 25.9192 14.4107 25.6879C14.4107 25.6701 14.4107 25.6523 14.3929 25.6345Z" fill="#FF7B00"/>
<path d="M12.6316 29.6375C13.2187 29.6375 14.1972 30.3135 13.6634 30.5982C13.5567 30.6337 13.4499 30.6693 13.3254 30.7049C13.2898 30.7049 13.2542 30.7227 13.2187 30.7227C13.023 30.7761 12.8273 30.8117 12.6316 30.8294C12.4181 30.8117 12.2224 30.7761 12.0445 30.7227C12.0089 30.7227 11.9733 30.7049 11.9377 30.7049C11.831 30.6693 11.7064 30.6337 11.5997 30.5982C11.0659 30.2957 12.0622 29.6375 12.6316 29.6375Z" fill="#FF7B00"/>
<path d="M11.8132 24.5137C11.8132 24.5137 12.08 24.7983 12.1868 25.4388C11.9555 25.2253 11.6886 24.9762 11.4929 24.9762C11.8487 24.8873 11.8132 24.5137 11.8132 24.5137Z" fill="#FF7B00"/>
<path d="M10.8702 25.6345C10.8702 25.6701 10.7991 25.9014 10.7813 26.0793C10.3187 26.5774 9.58928 26.9333 9.32242 27.0044C9.03776 27.0756 8.5752 27.3247 8.71752 27.6093C8.66415 27.5026 8.61078 27.3958 8.5574 27.2891C8.20158 26.5952 7.91693 26.0081 7.88135 25.9548C8.29054 26.2394 8.78869 26.4529 9.28683 26.4885C10.0163 26.3995 10.6923 25.9192 10.8702 25.6345Z" fill="#CD6300"/>
<path d="M7.22308 21.8094C7.22308 21.8094 6.65377 22.7701 6.67156 22.8947C6.67156 22.9302 6.70714 23.0548 6.76051 23.1971C5.15933 22.9836 4.0385 22.521 3.00662 21.5603C2.79313 21.3468 2.6508 21.0444 2.79313 20.7597C2.93546 20.4751 3.73605 19.1586 3.8428 19.0696C3.93175 18.9806 4.18083 18.9451 4.35874 19.1586C4.53664 19.372 5.49736 20.5996 6.9918 21.4358C7.06296 21.5959 7.15192 21.7204 7.22308 21.8094Z" fill="#31363D"/>
<path d="M6.01334 11.3484C6.44033 10.7969 7.16976 10.4055 7.20534 10.3877C6.12009 12.4514 6.45812 14.3373 6.45812 14.3373C6.45812 14.3373 3.11342 10.2454 0 9.03557C2.63306 8.7687 5.03484 10.192 6.01334 11.3484Z" fill="#FFC85C"/>
<path d="M4.37657 26.2927C5.3017 26.2927 6.04892 27.0399 6.04892 27.9651C6.04892 28.8902 5.3017 29.6374 4.37657 29.6374C3.45144 29.6374 2.70422 28.8902 2.70422 27.9651C2.72201 27.0399 3.46923 26.2927 4.37657 26.2927ZM4.7146 27.9651C5.8888 27.9651 5.14158 26.6663 4.55448 27.6804C5.14158 26.6663 3.64714 26.6663 4.23425 27.6804C3.64714 26.6663 2.89992 27.9651 4.07413 27.9651C2.89992 27.9651 3.64714 29.2638 4.23425 28.2497C3.64714 29.2638 5.14158 29.2638 4.55448 28.2497C5.12379 29.2638 5.8888 27.9651 4.7146 27.9651Z" fill="#FFAA00"/>
<path d="M4.55444 27.6805C5.14154 26.6664 5.88876 27.9651 4.71456 27.9651C5.88876 27.9651 5.14154 29.2639 4.55444 28.2498C5.14154 29.2639 3.6471 29.2639 4.2342 28.2498C3.6471 29.2639 2.89988 27.9651 4.07408 27.9651C2.89988 27.9651 3.6471 26.6664 4.2342 27.6805C3.62931 26.6664 5.12375 26.6664 4.55444 27.6805Z" fill="white"/>
</g>
<path fill-rule="evenodd" clip-rule="evenodd" d="M7.02187 18.3399C6.9479 18.242 6.86052 18.1263 6.83606 18.0098C6.89059 18.9889 5.74393 19.1674 4.88992 19.2826C5.02604 19.2698 5.15904 19.2656 5.29068 19.2614C5.57459 19.2525 5.85224 19.2437 6.1416 19.15C6.25334 19.1125 6.3467 19.0521 6.43394 18.9955C6.61739 18.8767 6.77375 18.7754 7.01684 18.9426C7.19684 18.4644 7.4605 18.541 7.71979 18.6163C7.932 18.6779 8.14128 18.7387 8.29938 18.4938L8.31609 18.5009C8.56459 18.6051 8.95407 18.7686 9.2712 18.8497C9.30181 18.8772 9.33297 18.905 9.36456 18.9332C9.52495 19.0765 9.69621 19.2294 9.86235 19.3894C9.88205 19.4118 9.90292 19.4341 9.92393 19.4564C9.98362 19.52 10.0444 19.5846 10.0821 19.6577C10.1431 19.7639 10.1967 19.8801 10.2431 20.0063C10.2867 20.112 10.3275 20.2215 10.3661 20.334C10.1528 20.2114 9.89642 20.051 9.59079 19.842C9.59079 19.842 10.2489 20.5719 10.5746 21.0503C10.6161 21.2248 10.6506 21.3973 10.675 21.5673C10.6736 21.57 10.6721 21.5728 10.6707 21.5755C10.5905 21.7282 10.5128 21.8761 10.3989 21.9805C10.3243 22.0675 10.2497 22.1421 10.1627 22.2043C10.0757 22.2665 9.98865 22.3286 9.91405 22.3411C9.8128 22.3664 9.68293 22.3058 9.54386 22.2409C9.47799 22.2102 9.41006 22.1785 9.34213 22.1546L9.34208 22.1545C9.2302 22.1173 9.11832 22.08 9.00644 22.0551L8.90698 22.0427C8.85724 22.0302 8.80751 22.0178 8.77021 22.0178L8.50912 21.9929C8.51878 22.0509 8.54345 22.1088 8.56563 22.161C8.572 22.1759 8.57817 22.1904 8.58372 22.2043C8.58748 22.2118 8.59125 22.2205 8.59536 22.23C8.60482 22.2517 8.61611 22.2778 8.63345 22.3038C8.64588 22.3411 8.67075 22.3784 8.68318 22.3908C8.72084 22.4567 8.76563 22.5226 8.80676 22.5831C8.81993 22.6025 8.83274 22.6213 8.84481 22.6394C8.9074 22.7412 8.97492 22.8379 9.04116 22.9329C9.08018 22.9888 9.11876 23.0442 9.15564 23.0995C9.24267 23.2362 9.3297 23.3854 9.37943 23.5222C9.35501 23.5955 9.33058 23.6727 9.30572 23.7514C9.25465 23.9129 9.20174 24.0803 9.1432 24.2309C9.12455 24.2433 9.11212 24.2526 9.09969 24.262C9.08725 24.2713 9.07482 24.2806 9.05617 24.293C9.03752 24.3055 9.01576 24.3179 8.99401 24.3303C8.97225 24.3428 8.95049 24.3552 8.93184 24.3676C8.94427 24.3925 8.9536 24.4174 8.96292 24.4422C8.97225 24.4671 8.98158 24.492 8.99401 24.5168C8.98779 24.523 8.98158 24.5324 8.97536 24.5417C8.96914 24.551 8.96292 24.5603 8.95671 24.5666C8.85378 24.7069 8.72094 24.7892 8.59525 24.867C8.38693 24.996 8.1983 25.1128 8.1983 25.4617C7.88177 25.8475 7.48654 26.0365 7.0314 26.2542C6.91446 26.3101 6.79357 26.368 6.66904 26.4315C6.80811 26.546 6.86106 26.6929 6.91288 26.8366C6.93982 26.9113 6.96646 26.9851 7.00473 27.0532C6.94879 27.0469 6.88662 27.05 6.82446 27.0532C6.76229 27.0563 6.70012 27.0594 6.64417 27.0532C6.94256 27.4883 6.78094 28.0727 6.18415 27.9608C6.02253 28.6819 5.91063 29.0424 5.61224 29.2911C4.86772 29.3031 4.158 29.002 3.44947 28.7013C3.42441 28.6907 3.39936 28.6801 3.3743 28.6694C3.36561 29.0169 3.6482 29.2187 3.94651 29.4317C4.07519 29.5236 4.2068 29.6176 4.31921 29.7262C4.42465 29.8372 4.52514 29.973 4.62841 30.1125C4.7565 30.2856 4.88888 30.4644 5.04032 30.609C5.06304 30.6393 5.08577 30.6684 5.10814 30.6971C5.15921 30.7626 5.20845 30.8258 5.25168 30.8949C5.23162 30.9451 5.21965 30.9952 5.21577 31.0128C5.22149 30.9965 5.2444 30.9644 5.27654 30.9322C5.32628 31.0193 5.37601 31.1187 5.40087 31.2306C5.43698 31.3751 5.26338 31.9585 5.14175 32.3674C5.09585 32.5216 5.05735 32.6511 5.04032 32.7226C3.98351 32.8469 2.29263 36.5644 3.47376 37.2855C3.46243 37.4555 3.54923 37.6229 3.63529 37.7889C3.73808 37.9871 3.83982 38.1834 3.77216 38.3796C3.73003 38.506 3.55753 38.5319 3.39128 38.5569C3.11589 38.5983 2.85766 38.6372 3.23754 39.1256C2.10025 40.3192 1.94198 42.6448 1.82988 44.292C1.81821 44.4636 1.80704 44.6278 1.79531 44.7826C1.87903 44.4291 1.95492 44.0761 2.03038 43.725C2.35837 42.1992 2.67831 40.7107 3.59809 39.3867C3.67783 39.2731 3.87216 39.0482 4.1234 38.7575C5.16485 37.5524 7.1841 35.2158 6.07226 34.9854C6.29605 34.7243 6.63174 34.8735 6.89283 35.0973C6.89791 34.9906 6.9196 34.9234 6.93923 34.8625C6.96764 34.7744 6.99176 34.6996 6.955 34.5378C7.26582 34.6 7.66368 34.6373 7.96207 34.4259C7.55923 33.6125 7.98182 33.1273 8.45386 32.5854C8.73938 32.2575 9.04298 31.909 9.19293 31.4544C9.28547 31.171 9.31075 30.9388 9.33509 30.7151C9.36309 30.4579 9.38985 30.212 9.51619 29.9127C9.70269 29.4776 10.1005 28.6446 10.573 29.1046C10.9584 28.5078 11.2319 28.371 11.8785 28.371L11.9033 28.3959C12.1023 28.5824 12.2763 28.7689 12.4255 28.9927L12.4379 29.0051C12.4538 29.0071 12.469 29.0081 12.4835 29.0091C12.5605 29.0144 12.6199 29.0184 12.6617 29.1543C12.9119 29.0543 13.5082 29.3085 13.8806 29.5217C13.7498 29.7119 13.6424 29.9344 13.5375 30.1517C13.4532 30.3264 13.3704 30.4979 13.2784 30.6466C13.4459 30.5548 13.6078 30.4617 13.7669 30.3703C14.3393 30.0411 14.875 29.7331 15.5056 29.5793C15.6769 29.9689 15.9392 30.2414 16.1973 30.5095C16.375 30.6941 16.5507 30.8766 16.6933 31.0938C16.8098 31.2732 16.8941 31.4719 16.9803 31.6752C17.1193 32.003 17.2634 32.3427 17.5556 32.6323C17.2317 32.7806 17.0896 32.9539 17.0314 33.2655C17.6199 32.8897 17.6999 32.9958 17.8575 33.2048C17.9318 33.3034 18.0233 33.4248 18.1935 33.5295C18.3777 33.6399 18.5929 33.7143 18.8104 33.7894C19.1493 33.9065 19.4938 34.0255 19.7349 34.2861C19.8173 34.3703 19.8826 34.5292 19.9496 34.6925C20.0116 34.8436 20.0752 34.9985 20.1554 35.1014C20.2388 35.2086 20.3417 35.2838 20.4433 35.358C20.545 35.4323 20.6454 35.5056 20.7238 35.6091C21.123 36.1164 21.4111 36.4808 21.8277 36.9854C22.6917 38.0571 23.3365 39.2903 23.9808 40.5224C24.3725 41.2716 24.7641 42.0204 25.2046 42.7324C24.6878 41.8698 24.3176 40.8715 23.9477 39.8742C23.4487 38.5287 22.9503 37.185 22.0937 36.1788C22.3502 35.9331 22.72 35.8784 23.082 35.8248C23.2991 35.7927 23.5134 35.761 23.699 35.6887C23.4275 35.6735 23.2251 35.6861 23.0631 35.6963C22.5983 35.7253 22.465 35.7336 21.982 35.004C21.7757 34.6873 21.5084 34.4036 21.2457 34.1249C20.9724 33.8348 20.7041 33.5502 20.515 33.2393C19.913 32.2297 20.0334 30.7163 20.9634 30.1177C20.529 30.1853 19.9846 30.0032 19.6514 29.8059C19.5062 29.4968 19.4162 29.1165 19.3265 28.738C19.219 28.2842 19.1121 27.8329 18.9115 27.5099C18.9245 27.6576 18.899 27.7916 18.8734 27.9265C18.8533 28.0322 18.8331 28.1384 18.8312 28.252C18.7995 28.171 18.7408 28.0968 18.6828 28.0237C18.6327 27.9605 18.5832 27.8981 18.5524 27.8327C18.4636 27.891 18.3501 27.9621 18.2486 27.9957C18.2295 27.9191 18.1865 27.8404 18.1423 27.7596C18.0779 27.6415 18.0109 27.5189 18.0123 27.3919C17.5338 27.2553 17.3824 26.342 17.2345 25.45C17.1579 24.988 17.0822 24.5317 16.9626 24.1921C17.0298 24.1001 17.0992 24.0227 17.1745 23.9388C17.1814 23.9312 17.1884 23.9234 17.1954 23.9156C17.4745 23.7654 17.7536 23.6152 17.8802 23.3997C17.8739 23.3874 17.8693 23.3725 17.8648 23.3576C17.8602 23.3428 17.8557 23.3279 17.8493 23.3156C17.8819 23.2857 17.9158 23.2642 17.9442 23.2463C17.9565 23.2385 17.9678 23.2313 17.9775 23.2244C17.9821 23.197 17.9914 23.1422 18.0034 23.1047C18.0207 23.102 18.0354 23.082 18.0427 23.0719C18.0414 23.0632 18.0382 23.0571 18.035 23.0509C18.0318 23.0447 18.0286 23.0385 18.0273 23.0298C18.0246 23.0125 18.0393 22.9924 18.0466 22.9823L17.9964 22.9457L17.9937 22.9283C18.3003 22.84 18.4099 22.6473 18.527 22.4415C18.6408 22.2414 18.7617 22.0289 19.0773 21.8877C18.7 21.9405 18.3711 22.1518 18.0422 22.3632C17.8777 22.4689 17.7132 22.5745 17.5427 22.6604C17.1246 22.4319 16.5747 22.2149 16.2392 22.2316C16.2342 22.2279 16.231 22.2217 16.2278 22.2156C16.2247 22.2094 16.2215 22.2032 16.2165 22.1995C15.8378 21.6516 15.4079 21.4747 15.1009 21.4171C15.0611 21.3535 15.0265 21.2878 14.9991 21.2221C14.9941 21.2069 14.9894 21.1915 14.9851 21.1761C15.1511 21.009 15.1124 20.8046 15.015 20.6174C15.0591 20.5006 15.1224 20.3856 15.1856 20.2772C15.336 20.0265 15.5349 19.7921 15.7367 19.5542C15.7851 19.4971 15.8337 19.4398 15.8819 19.382L15.8979 19.3625C16.1169 19.0949 16.346 18.8148 16.516 18.4993C16.5362 18.5074 16.5565 18.5168 16.5759 18.5258C16.616 18.5445 16.6524 18.5614 16.6776 18.5614L16.9262 18.6236L16.8517 18.3874C16.8454 18.3687 16.8423 18.3501 16.8392 18.3314C16.8361 18.3128 16.833 18.2941 16.8268 18.2755L16.8144 18.2133L16.8765 18.2382L16.9138 18.2506C16.932 18.2506 16.9436 18.2573 16.9582 18.2657C16.9635 18.2688 16.9693 18.2721 16.976 18.2755C17.0257 18.2879 17.063 18.3128 17.1127 18.3501L17.4733 18.6609L17.3987 18.3501C17.3863 18.2941 17.3738 18.2413 17.3614 18.1884C17.349 18.1356 17.3365 18.0828 17.3241 18.0268L17.3117 17.9522L17.2992 17.9149L17.2868 17.8403L17.2619 17.6787C17.2371 17.4673 17.2246 17.256 17.2371 17.0446C17.2495 16.7959 17.2868 16.5597 17.349 16.3235C17.4109 16.2822 17.4808 16.2431 17.5509 16.2039C17.8186 16.0541 18.0884 15.9031 17.9209 15.6272C17.9209 15.5792 17.9264 15.5423 17.9318 15.5066C17.9404 15.4497 17.9486 15.3956 17.9333 15.304C18.155 15.4287 18.2725 15.3256 18.4019 15.212C18.5047 15.1218 18.6151 15.025 18.7912 15.0305C18.5635 14.8618 18.639 14.5273 18.7072 14.2247C18.7396 14.0812 18.7703 13.9449 18.7663 13.8369L20.8426 14.3715C20.5094 14.1272 20.1233 13.9225 19.7972 13.7497C19.5757 13.6323 19.382 13.5296 19.2512 13.439C19.3145 13.3476 19.4655 13.272 19.6026 13.2034C19.7078 13.1508 19.8048 13.1022 19.848 13.0536C19.9497 12.9447 20.0089 12.6916 20.0654 12.4503C20.1056 12.2785 20.1444 12.1127 20.1961 12.0092C20.2583 11.8849 20.3329 11.7606 20.4075 11.6363C20.4489 11.5907 20.4917 11.5437 20.5346 11.4968C20.6202 11.4028 20.7059 11.3089 20.7805 11.226C20.7991 11.2135 20.8147 11.2011 20.8302 11.1887C20.8457 11.1762 20.8613 11.1638 20.8799 11.1514C20.9703 11.0811 21.085 11.0351 21.2044 10.9873C21.2329 10.9759 21.2615 10.9644 21.2902 10.9524C21.5265 11.027 21.7751 11.1016 22.0113 11.1638C21.9458 11.1114 21.8596 11.0555 21.7708 10.998C21.6912 10.9464 21.6095 10.8935 21.5389 10.8405C21.6632 10.766 21.7502 10.6665 21.8 10.5173C21.7751 10.5173 21.6881 10.5546 21.6881 10.5546C21.7261 10.469 21.8079 10.3178 21.8497 10.2404C21.8626 10.2167 21.8717 10.1999 21.8746 10.194C22.1178 10.2786 22.577 9.71544 22.9154 9.30044C22.9748 9.2276 23.0305 9.15933 23.0806 9.09993C23.1054 9.0875 23.1179 9.07506 23.1303 9.06263C23.5282 8.75181 23.7893 8.51558 23.926 8.37882L24.0255 8.27935C24.0101 8.28704 23.9852 8.30897 23.9509 8.33928C23.9296 8.35801 23.9048 8.37994 23.8763 8.40368L23.6152 8.59018C23.6777 8.54157 23.7344 8.49781 23.7844 8.45917C23.9136 8.35944 23.9986 8.2938 24.0255 8.26692C24.0065 8.28214 23.9677 8.31015 23.9102 8.35167C23.8512 8.39424 23.7726 8.45102 23.6754 8.52275C23.5546 8.62434 23.4032 8.74498 23.2173 8.88857L23.2975 8.80836C23.2794 8.82238 23.261 8.83668 23.2422 8.85127C23.1676 8.901 23.1054 8.95074 23.0308 9.0129C22.7573 9.19939 22.4962 9.38589 22.2351 9.58482C22.1854 9.62212 22.1388 9.66252 22.0921 9.70293C22.0455 9.74334 21.9989 9.78375 21.9492 9.82104C21.943 9.82104 21.9398 9.82415 21.9367 9.82726C21.9336 9.83037 21.9305 9.83348 21.9243 9.83348C21.8202 9.90662 21.7123 9.98103 21.6013 10.0576C21.2217 10.3194 20.8059 10.6061 20.3826 10.9524C20.0842 11.2011 19.7858 11.4746 19.4874 11.773C18.9777 11.6736 18.5177 11.1887 18.1944 10.7535C18.1571 11.1514 18.2317 11.5244 18.6296 11.5617C18.6358 11.5741 18.6451 11.5896 18.6544 11.6052C18.6638 11.6207 18.6731 11.6363 18.6793 11.6487C18.5923 11.9595 18.5674 12.432 18.555 12.7552C18.0825 13.3147 17.6101 13.9239 17.1749 14.5953L17.0008 14.8813C16.9511 14.9683 16.889 15.0553 16.8144 15.1424C16.6776 15.304 16.4911 15.4532 16.2922 15.5153C16.0932 15.5899 15.857 15.5651 15.6581 15.4656C15.6456 15.4594 15.6363 15.4532 15.627 15.447C15.6177 15.4408 15.6084 15.4345 15.5959 15.4283C15.6208 15.5278 15.6332 15.6272 15.6457 15.7267C15.627 15.7205 15.6084 15.7112 15.5897 15.7018C15.5711 15.6925 15.5524 15.6832 15.5338 15.677C15.4592 15.6397 15.397 15.6024 15.3348 15.5526C15.3473 15.6272 15.3597 15.7018 15.3721 15.7889C15.3846 15.9008 15.3846 16.0251 15.3721 16.137C15.3721 16.1867 15.3597 16.2489 15.3473 16.2986C15.3473 16.3111 15.3348 16.3359 15.3224 16.3484L15.2727 16.3981C15.2143 16.4564 15.1331 16.4996 15.047 16.5454C15.023 16.5581 14.9986 16.5711 14.9743 16.5846C14.9494 16.597 14.9245 16.609 14.8997 16.6209C14.8002 16.6686 14.7007 16.7164 14.6013 16.7959C14.5764 16.8084 14.5391 16.8457 14.5143 16.8705L14.5143 16.8705C14.4894 16.8954 14.4645 16.9327 14.4645 16.9451C14.4583 16.9514 14.4552 16.9607 14.4521 16.97C14.449 16.9793 14.4459 16.9887 14.4397 16.9949C14.4148 17.0695 14.3899 17.1441 14.3775 17.2062C14.3687 17.2544 14.3723 17.3209 14.3757 17.3849C14.382 17.5027 14.3879 17.6115 14.3153 17.5792C13.6688 17.3057 13.532 17.256 13.5818 17.3057L13.3114 17.15C13.3038 17.1201 13.2966 17.0896 13.2898 17.0587C13.2682 16.9197 13.2365 16.7734 13.1774 16.6224C13.1465 16.5382 13.1083 16.4641 13.0627 16.4C13.0071 16.3286 12.9743 16.2892 12.8585 16.1738C12.8164 16.1892 12.7743 16.2047 12.7396 16.2101C12.7309 16.2115 12.7197 16.211 12.7085 16.2105C12.6973 16.21 12.6861 16.2095 12.6774 16.2109C12.6426 16.2163 12.5979 16.2144 12.5604 16.2024C12.4708 16.1985 12.3959 16.1746 12.3183 16.1333C12.1658 16.0681 12.0226 15.948 11.9114 15.8052C11.8002 15.6623 11.711 15.4894 11.6739 15.3083C11.6503 15.2141 11.6441 15.1172 11.658 15.035C11.6599 14.9902 11.6719 14.9527 11.6912 14.9052C11.6912 14.9052 11.7032 14.8678 11.7178 14.8477C11.7225 14.8203 11.7371 14.8002 11.7591 14.7701L11.8591 14.6122L11.4279 14.528L11.1711 14.479C10.9966 14.4439 10.8294 14.3988 10.6622 14.3536L10.6622 14.3536C10.4402 14.2992 10.2429 14.232 10.0356 14.1575L9.85567 14.0877L9.84563 14.0803C9.85567 14.0877 9.863 14.0776 9.863 14.0776L10.2472 13.9733L10.6313 13.8691L10.7255 13.8455L10.8792 13.8038L11.2239 13.7323C11.1583 13.6536 11.0853 13.5849 11.0123 13.5161C10.9923 13.5015 10.974 13.4843 10.9558 13.4671C10.9375 13.4499 10.9193 13.4328 10.8992 13.4181L10.849 13.3814L10.8088 13.3521L10.5378 13.154C10.3498 13.0321 10.1718 12.9174 9.99647 12.8201C9.83209 12.7289 9.67416 12.6289 9.52491 12.5343C9.515 12.528 9.50513 12.5218 9.4953 12.5155L9.29722 12.3862L9.24703 12.3496L9.21691 12.3275C9.22058 12.3225 9.21556 12.3189 9.2118 12.3161C9.20803 12.3134 9.20552 12.3115 9.21421 12.3102C9.24896 12.3048 9.30108 12.2967 9.34316 12.2812C9.41999 12.2604 9.52153 12.2268 9.59565 12.1885C9.76128 12.1094 9.89678 12.0082 10.0149 11.9097C10.2585 11.7028 10.4199 11.4819 10.5345 11.3039C10.7372 11.0054 10.8491 10.8101 10.8758 10.7525L10.8831 10.7425C10.8811 10.7432 10.8789 10.744 10.8765 10.745C10.8266 10.7634 10.6782 10.8185 10.4368 10.8476C10.1388 10.8762 9.7156 10.8442 9.21869 10.6813C8.72911 10.5084 8.16115 10.232 7.65302 9.76832C7.52714 9.64556 7.4086 9.51276 7.30743 9.37725C7.2136 9.2317 7.1271 9.07612 7.10006 8.90238C7.07301 8.72864 7.11817 8.56146 7.24827 8.42555C7.27257 8.39228 7.29873 8.37094 7.32938 8.34594C7.33573 8.34076 7.34227 8.33542 7.34903 8.32979C7.35809 8.31738 7.36819 8.31161 7.38215 8.30363C7.39078 8.2987 7.40088 8.29293 7.41311 8.28423C7.45249 8.2514 7.50191 8.22592 7.55133 8.20043C7.67997 8.14184 7.8514 8.07316 8.01088 8.00928C8.10891 7.97002 8.20241 7.93257 8.27869 7.90037L7.61423 7.86144C7.59183 7.86048 7.57127 7.857 7.55071 7.85353C7.53016 7.85006 7.5096 7.84659 7.4872 7.84562C7.46848 7.83964 7.45226 7.83549 7.43604 7.83134C7.41983 7.82719 7.40361 7.82304 7.38489 7.81706C7.36674 7.80969 7.353 7.80553 7.34126 7.80197C7.32226 7.79622 7.30852 7.79206 7.2899 7.77846C7.18218 7.71515 7.08179 7.64181 6.98603 7.54105C6.79451 7.33953 6.63967 7.08781 6.48482 6.8361C6.47554 6.82098 6.46626 6.80585 6.45697 6.7907C6.19176 6.35818 5.91977 5.91461 5.51949 5.60727L5.43918 5.5486L5.3689 5.49725L5.37083 5.45247C5.37661 5.31811 5.34764 5.18916 5.31867 5.06021C5.28325 4.92571 5.07924 4.83579 4.88214 4.74892C4.71602 4.6757 4.55481 4.60464 4.50359 4.51088C4.26019 4.11126 4.11844 3.7441 3.98871 3.40811C3.85726 3.06764 3.73816 2.75917 3.53818 2.48131C3.41074 2.23423 2.83615 1.22929 2.73961 1.06637C2.70013 0.999749 2.62798 0.847448 2.55148 0.685987C2.44092 0.452619 2.32129 0.200113 2.27815 0.159497C2.27236 0.155263 2.27415 0.161709 2.27775 0.174601C2.28038 0.184039 2.28398 0.196932 2.28626 0.211619C2.2892 0.230471 2.29217 0.252251 2.29553 0.276903C2.30766 0.365845 2.3249 0.492174 2.36391 0.653296C2.43266 0.980691 2.5578 1.44167 2.75862 1.98874C2.95944 2.5358 3.2286 3.179 3.55066 3.87624C3.59888 3.98062 3.64889 4.08631 3.6995 4.19327C3.81793 4.44355 3.93963 4.70074 4.04921 4.96419C4.19827 5.35026 4.33267 5.75642 4.46977 6.17994C4.53513 6.3962 4.59789 6.61056 4.65981 6.82202C4.84116 7.44143 5.01521 8.03591 5.22596 8.58018C5.36228 8.94154 5.51327 9.28283 5.67623 9.58666L5.73724 9.69283C5.75269 9.73491 5.77818 9.78433 5.78821 9.79167L5.82837 9.821C5.83738 9.83848 5.835 9.83992 5.83024 9.84282C5.82827 9.84403 5.82589 9.84548 5.82374 9.84842L5.79903 9.86116L5.77432 9.8739L5.72491 9.89939C5.70387 9.90711 5.68717 9.91416 5.67048 9.92121C5.65378 9.92826 5.63708 9.9353 5.61603 9.94303C5.54924 9.97122 5.48245 9.99941 5.40562 10.0203C5.39327 10.0266 5.38024 10.0287 5.36721 10.0307C5.35418 10.0327 5.34115 10.0347 5.32879 10.0411C5.20025 10.3014 4.91649 10.479 4.6277 10.4528C4.62268 10.4491 4.61834 10.4498 4.61399 10.4504C4.60965 10.4511 4.6053 10.4518 4.60028 10.4481C4.3312 10.6057 4.0567 10.7285 3.76405 10.7918L3.72738 10.842C4.14164 10.7597 4.56131 10.7122 4.97906 10.7095C5.10068 10.6905 5.22229 10.6716 5.35665 10.6774C5.52576 10.6778 5.69294 10.7229 5.87286 10.7928C5.91907 10.8098 5.96608 10.8319 6.01464 10.8548C6.05534 10.874 6.09712 10.8937 6.14043 10.9113L6.2829 10.9692L6.33039 10.9885L6.35047 11.0032L6.3358 11.0232L6.32847 11.0333L6.3165 11.0707C6.30189 11.1067 6.29458 11.1568 6.28787 11.2029C6.28572 11.2176 6.28363 11.2319 6.28139 11.2452C6.2729 11.3622 6.2845 11.4939 6.34822 11.6174C6.38374 11.6742 6.43664 11.7282 6.49687 11.7722C6.55711 11.8162 6.63934 11.8301 6.71154 11.8367C6.78374 11.8432 6.86057 11.8224 6.92003 11.8042L6.96211 11.7888L6.95477 11.7988L6.99108 11.9177C7.00923 11.9772 7.02275 12.0641 7.02546 12.0814C7.01812 12.0915 6.98338 12.0969 6.87915 12.1131L6.87913 12.1131C6.84311 12.1229 6.8087 12.1305 6.77618 12.1376C6.73934 12.1457 6.70493 12.1533 6.67335 12.1629L5.53402 12.3314C5.59861 12.3866 5.94119 12.4206 6.25944 12.4522C6.54815 12.4809 6.81683 12.5076 6.83979 12.5463C6.85524 12.5884 6.87069 12.6305 6.86876 12.6753C6.86515 12.7591 6.81912 12.86 6.76691 12.9744C6.73549 13.0433 6.70183 13.117 6.67384 13.1949C6.64528 13.2973 6.61942 13.4169 6.61827 13.5239L6.61828 13.524C6.62909 13.5934 6.63179 13.6108 6.63257 13.6729C6.63064 13.7177 6.63876 13.7698 6.64687 13.822C6.70701 14.1589 6.83905 14.4447 6.96133 14.7093C6.98043 14.7507 6.99929 14.7915 7.01761 14.8319L7.12226 15.047L7.1659 15.1558C7.17923 15.1746 7.18476 15.1824 7.18961 15.1906C7.19304 15.1963 7.19614 15.2023 7.20142 15.2126L7.22691 15.262C7.27593 15.3351 7.68235 15.2809 7.96722 15.243C8.15357 15.2182 8.2879 15.2003 8.23614 15.2295C7.42418 15.7001 7.66432 16.09 7.80259 16.3146C7.81441 16.3338 7.82549 16.3517 7.8351 16.3685C8.06448 16.8132 8.32705 17.1282 8.54328 17.317C8.69282 17.451 8.81419 17.5147 8.86652 17.5422C8.87932 17.5489 8.88799 17.5535 8.89194 17.5564C8.8841 17.5506 8.86732 17.5571 8.84031 17.5676C8.83272 17.5706 8.82433 17.5738 8.81511 17.5772C8.80531 17.5823 8.79375 17.5872 8.78095 17.5928C8.72916 17.6151 8.65695 17.6462 8.59814 17.7267C8.5688 17.7668 8.54217 17.8243 8.54294 17.8865C8.48619 17.922 8.43678 17.9475 8.36999 17.9757C8.22201 18.0496 8.03011 18.0825 7.83867 18.1153C7.52816 18.1685 7.21887 18.2215 7.10019 18.4492C7.07968 18.4164 7.05188 18.3796 7.02187 18.3399ZM23.2975 8.80836L23.3292 8.77667L23.3292 8.77667C23.3914 8.72694 23.4536 8.67721 23.5033 8.62748C23.5592 8.59018 23.6121 8.54977 23.6649 8.50936C23.7178 8.46896 23.7706 8.42855 23.8266 8.39125C23.7827 8.43111 23.7325 8.47481 23.6754 8.52275C23.5706 8.60019 23.4441 8.69507 23.2975 8.80836ZM12.1309 25.8704C12.51 25.7664 12.8311 25.9733 12.7637 26.4827C13.4691 26.2128 14.1788 27.686 14.2387 28.2995C14.2387 28.2995 14.4252 28.2972 14.4352 28.3045C14.1368 28.5022 13.9677 28.9022 14.0647 29.2964C14.0133 29.348 13.9655 29.4048 13.9205 29.4657C13.7881 29.3448 13.6408 29.2502 13.4823 29.1668C13.3455 29.0549 13.1839 28.9678 13.0099 28.9305C13.0285 28.943 13.0441 28.9523 13.0596 28.9616C13.0751 28.9709 13.0907 28.9803 13.1093 28.9927C13.0347 28.9554 12.9726 28.9305 12.898 28.9057C12.9166 28.9119 12.9353 28.915 12.9539 28.9181C12.9726 28.9212 12.9912 28.9243 13.0099 28.9305C12.699 28.7067 12.4131 28.4581 12.5125 28.3089C12.4575 28.2538 12.3837 28.1925 12.3039 28.1261C12.1314 27.9828 11.9307 27.816 11.8287 27.6375V27.5629C11.8412 27.2272 11.8785 26.8045 11.9904 26.3445C12.023 26.1895 12.0663 26.0291 12.1309 25.8704ZM5.21438 31.0193C5.21438 31.0193 5.21485 31.017 5.21577 31.0128C5.21486 31.0154 5.21438 31.0176 5.21438 31.0193ZM2.34062 0.405275C2.33526 0.38512 2.33019 0.366029 2.32527 0.347904C2.37161 0.47415 2.41603 0.645183 2.40599 0.637848C2.37825 0.546989 2.35795 0.470555 2.34062 0.405275Z" fill="#FF3A3A"/>
</g>
<defs>
<clipPath id="clip0_1580_19456">
<rect width="25.2632" height="24" fill="white" transform="translate(0 9)"/>
</clipPath>
</defs>
</svg>
