<svg width="33" height="33" viewBox="0 0 33 33" fill="none" xmlns="http://www.w3.org/2000/svg">
<g opacity="0.5">
<g clip-path="url(#clip0_1580_11032)">
<path d="M16.0264 28.5135L22.4365 21.84L19.89 18.9716C19.2078 16.5874 17.6731 15.7886 15.119 15.9276C13.9018 13.7805 12.6933 12.8303 11.1677 13.0591C10.4391 11.4653 9.15262 10.5533 7.509 10.6876C7.05796 9.38098 6.33054 8.92156 4.904 8.96139C4.01887 8.10153 2.19968 7.61768 2.19968 7.61768L1.8158 8.4071C2.398 9.45962 3.07457 10.3007 4.20295 11.2874C4.48899 12.7087 5.21402 13.897 6.54537 14.7639C6.58971 16.9188 7.58738 18.3458 9.44215 19.063C9.80618 22.0148 11.0416 23.6157 12.8865 24.1748C13.2246 25.3998 13.7107 26.5084 14.3515 27.4932L16.0264 28.5135Z" fill="#FFC5DD"/>
<path d="M26.5414 22.4151C25.213 20.1084 23.0333 19.0832 20.3854 18.7256C19.7032 16.3414 18.0371 15.2835 15.4831 15.4225C14.2658 13.2754 12.8744 12.4079 11.3488 12.6368C10.6202 11.0429 9.51534 10.1597 7.87172 10.294C7.42068 8.98741 6.48662 8.3597 5.06015 8.39953C4.17495 7.5396 2.94905 7.19052 1.53076 6.41031C1.24981 6.25582 0.93315 6.54399 1.0607 6.83815C1.31503 7.42468 1.55635 7.93695 1.81648 8.40714C2.1294 8.57961 2.41351 8.7691 2.66243 9.01093C3.76896 8.98006 4.49341 9.46687 4.84326 10.4803C6.11815 10.3762 6.97512 11.0613 7.54024 12.2975C8.7236 12.12 9.80287 12.7928 10.747 14.4582C12.274 14.3751 13.3919 14.8436 14.0664 15.9097C14.4844 16.5704 15.1139 17.0752 15.866 17.2884C17.3245 17.7017 18.5238 18.4919 19.3245 19.882C19.8787 20.8444 20.2485 21.8769 19.4633 22.6622L15.09 27.0355C14.8696 27.2559 14.6169 27.4055 14.3527 27.493C15.0432 28.5542 15.9129 29.472 16.9712 30.2363C16.9733 30.2518 16.9755 30.2673 16.9777 30.2827C17.262 32.2498 19.6768 33.0429 21.0823 31.6375L26.7206 25.9992C27.7328 24.9869 27.2559 23.6557 26.5414 22.4151Z" fill="#FF94DE"/>
<path d="M24.7805 2.30253L24.036 2.99565C23.2036 5.38326 22.5897 7.2455 19.9966 7.93212C17.7588 8.52464 15.9764 7.31988 14.1648 5.87864C12.5957 4.63038 9.38978 2.54442 8.01268 2.08629C5.79427 1.3483 2.97883 2.81409 1.99121 4.30225C4.94942 3.97824 6.36854 4.05739 8.34874 4.97031C9.57077 5.53369 11.8032 7.55758 12.8855 8.35719C14.5123 9.55911 16.0573 10.3483 18.758 10.649C21.4586 10.9498 23.3795 9.42775 24.1657 8.5171C24.9519 7.60644 25.4699 6.36733 26.2469 4.46158L26.9766 2.36124L24.7805 2.30253Z" fill="#FFE35C"/>
<path d="M8.62497 3.03578C10.0021 3.49391 12.2211 5.11864 13.7901 6.36691C15.6017 7.80814 17.9842 8.97713 20.222 8.38461C22.815 7.69806 23.7042 5.45754 24.5366 3.07L24.7814 2.30211L22.839 2.25016C22.215 4.06889 21.5783 5.52141 19.9585 6.34938C19.0387 6.81956 17.9024 6.50065 16.9706 6.05476C16.0387 5.60887 14.8587 4.76241 14.0774 4.12793C12.7601 3.05821 11.7824 2.37036 10.2885 1.56541C8.79461 0.760451 7.06347 0.385141 5.43319 0.855907C3.67871 1.36257 2.18739 2.75006 1.60815 4.34501C1.73938 4.3298 1.86668 4.31562 1.99223 4.30189C3.32261 2.8865 6.40656 2.29779 8.62497 3.03578Z" fill="#A2F4E3"/>
<path d="M27.1086 22.0896C25.8575 19.9171 23.8194 18.6227 20.8855 18.1409C20.0979 15.9026 18.3697 14.738 15.851 14.759C14.682 12.8523 13.3024 11.9101 11.7379 11.9494C10.9294 10.4421 9.77818 9.66372 8.30672 9.62949C7.73792 8.42925 6.71479 7.78433 5.315 7.74753C4.68961 7.2096 3.95052 6.86291 3.17258 6.49797C2.74699 6.29836 2.30697 6.09192 1.84748 5.8392C1.47739 5.63559 1.01887 5.68967 0.70647 5.9741C0.394194 6.25827 0.297386 6.70957 0.465351 7.09706C1.26599 8.94339 1.98445 10.1715 3.61472 11.634C3.95542 13.0866 4.72686 14.2558 5.91164 15.1164C6.04957 17.1855 7.05865 18.6966 8.85038 19.5189C9.26455 22.2234 10.443 23.9574 12.3579 24.6819C13.1072 27.1588 14.4577 29.1491 16.3772 30.6052C16.6096 31.6527 17.3675 32.4976 18.4001 32.8409C18.7223 32.9479 19.0522 33.0001 19.3785 33.0001C20.1788 33.0001 20.9573 32.6862 21.5455 32.098L27.1837 26.4598C28.7331 24.9104 27.5529 22.861 27.1086 22.0896ZM2.03279 7.39961C2.2322 7.49642 2.42705 7.58775 2.61905 7.67779C3.27145 7.98387 3.85056 8.2558 4.31849 8.61661L3.88143 10.09C3.04077 9.23549 2.53294 8.44517 2.03279 7.39961ZM4.87556 11.2963C4.88838 11.2683 4.89985 11.2394 4.90881 11.209L5.54393 9.06778C6.38021 9.15679 6.90957 9.58438 7.22197 10.4101C7.21772 11.4952 6.87876 12.712 6.29591 13.7553C5.57042 13.1121 5.10314 12.3008 4.87556 11.2963ZM7.20096 14.7837C7.92825 13.6344 8.39405 12.2445 8.50149 10.9485C9.43896 11.0521 10.1467 11.6433 10.6941 12.7704C10.598 15.2153 10.1223 17.0201 9.24348 18.2625C7.91323 17.5962 7.24388 16.4533 7.20096 14.7837ZM10.1287 19.2547C11.2125 17.8627 11.8192 15.8936 11.975 13.2589C13.0146 13.3297 13.9548 14.1 14.8339 15.5968C14.8273 18.2454 14.08 20.859 12.6099 23.3755C11.259 22.7656 10.4441 21.4105 10.1287 19.2547ZM13.5963 24.2674C15.1882 21.6243 16.0385 18.8691 16.1293 16.0644C18.0327 16.1208 19.1871 17.006 19.7336 18.8127C19.6534 22.0552 18.6788 25.4738 16.7588 29.2392C15.2694 27.9784 14.2082 26.31 13.5963 24.2674ZM26.2621 25.5382L20.6239 31.1765C20.1399 31.6607 19.462 31.8204 18.8112 31.6041C18.2154 31.4061 17.7925 30.9401 17.6544 30.342C19.7104 26.4447 20.8125 22.8827 21.0099 19.4865C23.3788 19.9403 24.9684 20.9847 25.9792 22.7398C26.9714 24.4628 26.6791 25.1213 26.2621 25.5382Z" fill="#4E0325"/>
<path d="M23.1972 22.2329C22.9813 22.2329 22.8063 22.408 22.8063 22.6239V23.1605C22.8063 23.3764 22.9813 23.5515 23.1972 23.5515C23.4132 23.5515 23.5882 23.3764 23.5882 23.1605V22.6239C23.5882 22.408 23.4132 22.2329 23.1972 22.2329Z" fill="#4E0325"/>
<path d="M17.6902 20.4577C17.9061 20.4577 18.0811 20.2827 18.0811 20.0668V19.5301C18.0811 19.3142 17.9061 19.1392 17.6902 19.1392C17.4742 19.1392 17.2992 19.3142 17.2992 19.5301V20.0668C17.2993 20.2827 17.4743 20.4577 17.6902 20.4577Z" fill="#4E0325"/>
<path d="M22.2412 25.3838C22.0253 25.3838 21.8502 25.5588 21.8502 25.7748V26.3114C21.8502 26.5273 22.0253 26.7024 22.2412 26.7024C22.4571 26.7024 22.6322 26.5273 22.6322 26.3114V25.7748C22.6322 25.5588 22.4571 25.3838 22.2412 25.3838Z" fill="#4E0325"/>
<path d="M0.960504 4.36322C0.960891 4.37701 0.961922 4.39068 0.963211 4.4044C0.963663 4.40956 0.963598 4.41459 0.964178 4.41974C0.9645 4.42258 0.965209 4.42529 0.965596 4.42812C0.967336 4.4414 0.969657 4.45455 0.97217 4.46763C0.973846 4.47633 0.975393 4.4851 0.977391 4.49367C0.980034 4.50469 0.983192 4.51546 0.98635 4.52629C0.98925 4.5364 0.992086 4.54665 0.995502 4.55651C0.998596 4.5656 1.00233 4.57443 1.00581 4.58339C1.01013 4.59428 1.01426 4.60518 1.01909 4.61568C1.02309 4.62438 1.02766 4.63276 1.03198 4.64127C1.03714 4.65126 1.04204 4.66131 1.04758 4.67092C1.05357 4.68123 1.06021 4.69116 1.06672 4.70115C1.07136 4.70817 1.07575 4.71545 1.08065 4.72229C1.08999 4.7355 1.10017 4.74813 1.11055 4.76064C1.11306 4.76373 1.11545 4.76695 1.11803 4.76998C1.13105 4.78513 1.1449 4.7997 1.15941 4.81362L1.15999 4.8142C1.18918 4.8423 1.22128 4.86769 1.25596 4.89032C1.2568 4.89083 1.25757 4.89148 1.25841 4.89199C1.27323 4.90153 1.28864 4.9103 1.30436 4.91874C1.30791 4.92067 1.31145 4.92274 1.315 4.92461C1.32827 4.93137 1.34207 4.9375 1.35592 4.94343C1.3625 4.94626 1.36901 4.94916 1.37571 4.95174C1.38022 4.95348 1.38441 4.95567 1.38892 4.95728C1.39705 4.96025 1.40536 4.96218 1.41355 4.96482C1.42167 4.9674 1.42972 4.97005 1.43797 4.9723C1.45073 4.97585 1.46356 4.97881 1.47645 4.98158C1.48438 4.98326 1.49231 4.98493 1.50036 4.98635C1.51409 4.98874 1.52776 4.99054 1.54148 4.99202C1.54883 4.9928 1.55612 4.99363 1.56353 4.99415C1.57816 4.99525 1.59266 4.9957 1.60716 4.99576C1.61412 4.99583 1.62102 4.99589 1.62805 4.9957C1.64281 4.99531 1.6575 4.99428 1.67207 4.99286C1.67677 4.99241 1.68148 4.99254 1.68618 4.99196C4.78077 4.63431 6.13873 4.66634 8.08013 5.56134C8.84963 5.91609 10.1587 6.98852 11.2106 7.8502C11.7177 8.26553 12.1556 8.62428 12.5024 8.88055C14.201 10.1354 15.8286 10.9773 18.6901 11.2959C18.9449 11.3243 19.195 11.3378 19.4405 11.3378C21.7488 11.3377 23.624 10.1456 24.6631 8.94223C25.5024 7.97014 26.017 6.76081 26.8545 4.70688C26.8588 4.69625 26.8629 4.68555 26.8667 4.67466L27.5963 2.57432C27.7144 2.2344 27.5346 1.86308 27.1946 1.745C26.8549 1.62705 26.4834 1.80675 26.3653 2.14674L25.6413 4.23077C24.8592 6.1487 24.3809 7.27502 23.6768 8.09054C23.3546 8.4636 21.6074 10.3092 18.8343 10.0007C16.263 9.71431 14.8015 8.95873 13.2769 7.83241C12.9563 7.59548 12.5095 7.22951 12.0366 6.84209C10.8694 5.88599 9.54663 4.8024 8.62579 4.37791C7.08026 3.66558 5.84728 3.42987 4.11142 3.48369C5.46694 3.02769 7.15335 2.95692 8.50487 3.40661C9.90989 3.87396 12.2688 5.65357 13.5499 6.67277C14.6933 7.58239 16.7664 8.93243 18.998 8.93224C19.4361 8.93224 19.8808 8.88009 20.3253 8.7624C23.238 7.99128 24.1646 5.33388 24.9091 3.19862C24.9103 3.19533 24.9114 3.19198 24.9124 3.18863L25.2563 2.10974C25.3219 1.90401 25.2083 1.6841 25.0026 1.61848C24.7969 1.55293 24.5769 1.6665 24.5113 1.87223L24.1689 2.94609C23.3002 5.43707 22.45 7.39103 20.1251 8.00656C17.747 8.6362 15.2899 7.05775 14.0368 6.06085C12.4225 4.77656 10.195 3.1448 8.75166 2.66462C6.99267 2.07958 4.78515 2.2732 3.17073 3.02311C3.81778 2.30807 4.67829 1.7528 5.61724 1.48171C6.93821 1.10041 8.4885 1.33373 9.98272 2.13888C11.3498 2.87551 12.2802 3.50496 13.67 4.63354C14.4849 5.2954 15.707 6.17068 16.6927 6.64228C17.5166 7.03654 18.2675 7.2339 18.9391 7.2339C19.4206 7.2339 19.8613 7.13238 20.2585 6.92936C22.1259 5.9748 22.8378 4.27131 23.4587 2.46146C23.5755 2.12102 23.3942 1.75042 23.0538 1.63369C22.7136 1.51678 22.3428 1.69815 22.226 2.03859C21.558 3.98617 20.9784 5.09779 19.6654 5.76901C18.9547 6.1322 17.9623 5.8051 17.2552 5.46685C16.3712 5.04391 15.2139 4.20872 14.4915 3.62201C13.254 2.61699 12.2206 1.86437 10.601 0.991676C8.80458 0.0237188 6.90643 -0.247049 5.25566 0.229711C3.33425 0.784523 1.66955 2.30233 1.00749 4.10012C1.00665 4.10218 1.00594 4.10425 1.00511 4.10631C1.00311 4.11172 1.00092 4.11701 0.998983 4.12242C0.997243 4.12719 0.996211 4.13209 0.994536 4.13686C0.990088 4.15001 0.985963 4.16316 0.982354 4.17663C0.980098 4.18501 0.978229 4.19338 0.976295 4.20176C0.973588 4.21382 0.97101 4.22593 0.969012 4.23824C0.967336 4.24849 0.966047 4.25868 0.964823 4.26892C0.963598 4.2793 0.962502 4.28968 0.961793 4.30012C0.960956 4.31243 0.960569 4.32461 0.96044 4.33686C0.960311 4.34575 0.960247 4.35445 0.960504 4.36322Z" fill="#4E0325"/>
<path d="M8.89115 16.3109C8.6492 16.3109 8.41691 16.1756 8.30431 15.9433C8.18036 15.6876 8.07775 15.4123 7.99938 15.1252C7.90457 14.778 8.10914 14.4197 8.45629 14.325C8.80363 14.23 9.16179 14.4347 9.25654 14.782C9.31384 14.9918 9.38809 15.1914 9.4771 15.3751C9.63404 15.6989 9.49875 16.0887 9.17481 16.2456C9.08335 16.29 8.98648 16.3109 8.89115 16.3109Z" fill="white"/>
<path d="M12.2263 21.4831C12.0231 21.4831 11.8228 21.3883 11.6956 21.2104C11.3412 20.7145 11.0541 20.1208 10.8422 19.4455C10.7344 19.1022 10.9254 18.7365 11.2688 18.6287C11.6123 18.5209 11.9779 18.7119 12.0856 19.0553C12.2562 19.5989 12.4818 20.069 12.7559 20.4525C12.9651 20.7453 12.8975 21.1523 12.6047 21.3616C12.4898 21.4436 12.3573 21.4831 12.2263 21.4831Z" fill="white"/>
<path d="M26.0277 12.469L25.4924 13.9741C25.4696 14.0385 25.4241 14.0896 25.3669 14.1154L24.0297 14.7178C23.8408 14.803 23.8408 15.104 24.0297 15.189L25.3669 15.7915C25.4241 15.8173 25.4695 15.8684 25.4924 15.9328L26.0277 17.4378C26.1033 17.6504 26.3707 17.6504 26.4464 17.4378L26.9817 15.9328C27.0046 15.8683 27.05 15.8173 27.1073 15.7915L28.4444 15.189C28.6333 15.104 28.6333 14.803 28.4444 14.7178L27.1073 14.1154C27.05 14.0896 27.0046 14.0385 26.9817 13.9741L26.4464 12.469C26.3708 12.2564 26.1033 12.2564 26.0277 12.469Z" fill="#FFC5DD"/>
<path d="M30.7174 2.93176L30.3203 4.04815C30.3033 4.09597 30.2697 4.13381 30.2272 4.15295L29.2353 4.5998C29.0952 4.66297 29.0952 4.88623 29.2353 4.94933L30.2272 5.39625C30.2697 5.41539 30.3033 5.45329 30.3203 5.50105L30.7174 6.61744C30.7735 6.77516 30.9718 6.77516 31.0279 6.61744L31.4249 5.50105C31.442 5.45323 31.4756 5.41539 31.5181 5.39625L32.5099 4.9494C32.6501 4.88623 32.6501 4.66297 32.5099 4.59987L31.5181 4.15301C31.4756 4.13387 31.442 4.09597 31.4249 4.04821L31.0279 2.93182C30.9718 2.77404 30.7735 2.77404 30.7174 2.93176Z" fill="#FFC5DD"/>
<path d="M16.8383 1.21176C16.8383 1.85726 17.3615 2.38049 18.007 2.38049C18.6525 2.38049 19.1757 1.8572 19.1757 1.21176C19.1757 0.566264 18.6525 0.0429688 18.007 0.0429688C17.3615 0.0429688 16.8383 0.566264 16.8383 1.21176Z" fill="#FF8CC0"/>
<path d="M32.0402 11.9178C32.231 11.727 32.231 11.4176 32.0402 11.2268C31.8493 11.036 31.54 11.036 31.3492 11.2268C31.1583 11.4176 31.1583 11.727 31.3492 11.9178C31.54 12.1086 31.8493 12.1086 32.0402 11.9178Z" fill="#FF8CC0"/>
</g>
</g>
<defs>
<clipPath id="clip0_1580_11032">
<rect width="33" height="33" fill="white"/>
</clipPath>
</defs>
</svg>
