<svg width="20" height="24" viewBox="0 0 20 24" fill="none" xmlns="http://www.w3.org/2000/svg">
<path d="M19.9314 15.8672H0.882812V20.9193C0.882812 22.2891 1.99325 23.3995 3.36307 23.3995H17.4511C18.8209 23.3995 19.9314 22.2891 19.9314 20.9193V15.8672Z" fill="#6FCCFF"/>
<path d="M3.05469 19.7037C3.05469 21.2921 6.34618 21.0829 10.4062 21.0829C14.4666 21.0829 17.7577 21.2921 17.7577 19.7037C17.7577 18.2249 14.9059 15.7097 11.2361 15.3692L9.76085 15.354C9.25744 15.3902 8.76839 15.4679 8.2988 15.5791C7.12598 15.8559 6.07637 16.341 5.22927 16.907H5.2289C3.8862 17.8043 3.05469 18.9052 3.05469 19.7037Z" fill="#F9CD46"/>
<path d="M4.99842 19.7037C4.99842 18.9052 5.82993 17.8043 7.17267 16.9071H7.17304C8.02011 16.341 9.06971 15.8559 10.2426 15.5791C10.6101 15.4921 10.9897 15.4259 11.3787 15.3838C11.3313 15.3786 11.2839 15.3736 11.2362 15.3692L9.76089 15.354C9.25748 15.3902 8.76843 15.4679 8.29884 15.5791C7.12602 15.8559 6.07641 16.341 5.22931 16.907H5.22894C3.8862 17.8042 3.05469 18.9051 3.05469 19.7037C3.05469 21.1232 5.68361 21.1071 9.14047 21.0876C6.68864 21.0571 4.99842 20.8419 4.99842 19.7037Z" fill="#DB9E00"/>
<path d="M12.3468 21.083C12.0173 21.083 11.693 21.0844 11.375 21.0861C12.1677 21.0903 12.9206 21.0963 13.6127 21.0877C13.2014 21.0854 12.7785 21.083 12.3468 21.083Z" fill="#DB9E00"/>
<path d="M5.23438 16.907C8.02633 16.7026 9.63027 17.7164 9.63027 17.7164H11.3073C10.6612 16.7574 9.38227 16.0433 8.30391 15.5791C7.13108 15.8559 6.08148 16.341 5.23438 16.907Z" fill="#DB9E00"/>
<path d="M17.9814 22.535H16.8541C16.693 22.535 16.5625 22.4045 16.5625 22.2435C16.5625 22.0825 16.693 21.9519 16.8541 21.9519H17.9814C18.1425 21.9519 18.273 22.0825 18.273 22.2435C18.273 22.4045 18.1425 22.535 17.9814 22.535Z" fill="white"/>
<path d="M19.0752 17.0148H17.9478C17.7868 17.0148 17.6562 16.8842 17.6562 16.7232C17.6562 16.5622 17.7868 16.4316 17.9478 16.4316H19.0752C19.2362 16.4316 19.3668 16.5622 19.3668 16.7232C19.3668 16.8842 19.2362 17.0148 19.0752 17.0148Z" fill="white"/>
<path d="M2.90327 17.7531H1.77594C1.61492 17.7531 1.48438 17.6225 1.48438 17.4615C1.48438 17.3005 1.61492 17.1699 1.77594 17.1699H2.90331C3.06433 17.1699 3.19487 17.3005 3.19487 17.4615C3.19487 17.6225 3.06429 17.7531 2.90327 17.7531Z" fill="white"/>
<path d="M7.80174 23.0409H6.67438C6.51336 23.0409 6.38281 22.9104 6.38281 22.7493C6.38281 22.5883 6.51336 22.4578 6.67438 22.4578H7.80174C7.96276 22.4578 8.09331 22.5883 8.09331 22.7493C8.09331 22.9104 7.96276 23.0409 7.80174 23.0409Z" fill="white"/>
<path d="M9.98143 22.3012H8.85407C8.69305 22.3012 8.5625 22.1706 8.5625 22.0096C8.5625 21.8486 8.69305 21.718 8.85407 21.718H9.98143C10.1424 21.718 10.273 21.8486 10.273 22.0096C10.273 22.1706 10.1424 22.3012 9.98143 22.3012Z" fill="white"/>
<mask id="mask0_1420_27944" style="mask-type:luminance" maskUnits="userSpaceOnUse" x="1" y="0" width="18" height="18">
<path d="M1.61719 0.399651H18.9338V17.7163H1.61719V0.399651Z" fill="white"/>
</mask>
<g mask="url(#mask0_1420_27944)">
<path d="M10.2667 3.3395C10.2366 3.3395 10.2116 3.3628 10.2096 3.39284L9.21902 17.6008C9.21465 17.6634 9.26427 17.7166 9.32701 17.7166H11.2065C11.2692 17.7166 11.3188 17.6634 11.3145 17.6008L10.3239 3.39284C10.3218 3.3628 10.2968 3.3395 10.2667 3.3395Z" fill="#3EC3A4"/>
<path d="M10.2579 3.33956L10.0928 17.6599C10.0924 17.6913 10.0668 17.7166 10.0354 17.7166H9.32701C9.26424 17.7166 9.21465 17.6634 9.21902 17.6008L10.2133 3.33956H10.2579Z" fill="#0BB494"/>
<path d="M10.8984 11.4141V11.4125" stroke="black" stroke-width="0.820312" stroke-miterlimit="10" stroke-linecap="round" stroke-linejoin="round"/>
<path d="M13.6941 5.61647C14.6251 4.68546 15.0411 3.43471 14.9427 2.21774C13.7257 2.11932 12.4749 2.53532 11.5439 3.4663C10.613 4.3973 10.197 5.64806 10.2954 6.86503C11.5123 6.96345 12.7631 6.54744 13.6941 5.61647Z" fill="#3EC3A4"/>
<path d="M6.85646 5.61647C5.92545 4.68546 5.50948 3.43471 5.60786 2.21774C6.82487 2.11932 8.07562 2.53532 9.00663 3.4663C9.9376 4.3973 10.3536 5.64806 10.2552 6.86503C9.03822 6.96345 7.78743 6.54744 6.85646 5.61647Z" fill="#3EC3A4"/>
<path d="M11.7735 3.63435C11.7735 4.91271 11.2084 6.05869 10.3143 6.83638C10.3021 6.84717 10.2899 6.85796 10.2774 6.86841C9.36207 6.09004 8.78125 4.93013 8.78125 3.63435C8.78125 2.33892 9.36207 1.17901 10.2774 0.400636C11.1927 1.17901 11.7735 2.33892 11.7735 3.63435Z" fill="#9BE69D"/>
<path d="M10.3143 6.83635C10.3021 6.84713 10.2899 6.85796 10.2774 6.86841C9.36207 6.09004 8.78125 4.93013 8.78125 3.63432C8.78125 2.33888 9.36207 1.17897 10.2774 0.400602C10.2774 0.400602 9.17219 3.03016 10.3143 6.83635Z" fill="#6FD7A3"/>
<path d="M17.5411 4.15761C17.2324 4.82761 16.7526 5.4478 16.1341 5.95932L14.9268 5.28059L15.2098 6.58228C14.9641 6.71574 14.7049 6.83384 14.4331 6.9349C13.5785 7.25266 12.7056 7.36065 11.8879 7.2854C11.3113 7.23243 10.7618 7.08818 10.2656 6.86205C10.8172 5.66453 11.9161 4.62658 13.3736 4.08479C14.1802 3.78513 15.0028 3.6719 15.7801 3.7231C16.4073 3.76494 17.0052 3.91335 17.5411 4.15761Z" fill="#9BE69D"/>
<path d="M15.7822 3.72504C13.3736 4.08602 11.8879 6.37618 11.8879 7.2849V7.28662C11.3113 7.23366 10.7618 7.08941 10.2656 6.86328C10.8172 5.66575 11.9161 4.6278 13.3736 4.08602C14.1802 3.78636 15.0028 3.67312 15.7801 3.72433L15.7822 3.72504Z" fill="#6FD7A3"/>
<path d="M10.2758 6.86218C9.07615 7.4085 7.56571 7.47682 6.10827 6.93499C4.65083 6.39354 3.55153 5.35525 3 4.15773C4.19962 3.61138 5.71002 3.54309 7.16746 4.08488C8.62494 4.6267 9.72421 5.66465 10.2758 6.86218Z" fill="#9BE69D"/>
<path d="M10.2758 6.86218C9.07615 7.4085 7.56571 7.47682 6.10827 6.93499C4.65083 6.39354 3.55153 5.35525 3 4.15773C3 4.15773 6.10827 6.78902 10.2758 6.86218Z" fill="#6FD7A3"/>
<path d="M9.67313 9.67212C9.02407 9.67212 7.95154 8.12876 7.95154 7.42993C7.3012 6.91861 6.88281 6.12495 6.88281 5.23544C6.88281 4.80991 7.22776 4.46491 7.65329 4.46491C8.07883 4.46491 8.42377 4.80991 8.42377 5.23544C8.42377 5.92433 8.98425 6.4848 9.67313 6.4848C10.0987 6.4848 10.4436 6.82975 10.4436 7.25528C10.4436 7.68082 10.0987 9.67212 9.67313 9.67212Z" fill="#FFD15B"/>
<path d="M11.0361 9.97534C11.7068 9.97534 13.1168 8.35568 12.8048 7.39195C13.4282 6.87979 13.8264 6.10322 13.8264 5.23533C13.8264 4.80985 13.4815 4.46485 13.0559 4.46485C12.6304 4.46485 12.2855 4.80985 12.2855 5.23533C12.2855 5.92427 11.725 6.48475 11.0361 6.48475C10.6106 6.48475 10.2656 6.82969 10.2656 7.25523C10.2656 7.68077 10.6106 9.97534 11.0361 9.97534Z" fill="#FFD15B"/>
<path d="M10.388 4.16482H10.341C9.91102 4.16482 9.5625 4.51339 9.5625 4.94334V7.5789C9.5625 8.0089 9.91102 8.35742 10.341 8.35742H10.388C10.8179 8.35742 11.1665 8.0089 11.1665 7.5789V4.94334C11.1665 4.51339 10.8179 4.16482 10.388 4.16482Z" fill="#FFE177"/>
<path d="M9.67313 12.0942C9.02407 12.0942 7.95154 10.5509 7.95154 9.85205C7.3012 9.34073 6.88281 8.54707 6.88281 7.65756C6.88281 7.23203 7.22776 6.88703 7.65329 6.88703C8.07883 6.88703 8.42377 7.23203 8.42377 7.65756C8.42377 8.34644 8.98425 8.90692 9.67313 8.90692C10.0987 8.90692 10.4436 9.25186 10.4436 9.6774C10.4436 10.1029 10.0987 12.0942 9.67313 12.0942Z" fill="#FFC344"/>
<path d="M11.0361 12.3972C11.7068 12.3972 13.1168 10.7776 12.8048 9.81383C13.4282 9.30166 13.8264 8.5251 13.8264 7.65721C13.8264 7.23173 13.4815 6.88673 13.0559 6.88673C12.6304 6.88673 12.2855 7.23173 12.2855 7.65721C12.2855 8.34615 11.725 8.90662 11.0361 8.90662C10.6106 8.90662 10.2656 9.25157 10.2656 9.6771C10.2656 10.1026 10.6106 12.3972 11.0361 12.3972Z" fill="#FFC344"/>
<path d="M10.388 6.58377H10.341C9.91102 6.58377 9.5625 6.93234 9.5625 7.36229V9.99784C9.5625 10.4278 9.91102 10.7764 10.341 10.7764H10.388C10.8179 10.7764 11.1665 10.4278 11.1665 9.99784V7.36229C11.1665 6.93234 10.8179 6.58377 10.388 6.58377Z" fill="#FFC344"/>
<path d="M9.67313 12.8677C8.13457 12.8677 6.88281 11.6159 6.88281 10.0773C6.88281 9.65182 7.22776 9.30682 7.65329 9.30682C8.07883 9.30682 8.42377 9.65182 8.42377 10.0773C8.42377 10.7662 8.98425 11.3267 9.67313 11.3267C10.0987 11.3267 10.4436 11.6717 10.4436 12.0972C10.4436 12.5227 10.0987 12.8677 9.67313 12.8677Z" fill="#FFD15B"/>
<path d="M11.0361 12.8667C12.5747 12.8667 13.8264 11.6149 13.8264 10.0763C13.8264 9.65084 13.4815 9.30584 13.0559 9.30584C12.6304 9.30584 12.2855 9.65084 12.2855 10.0763C12.2855 10.7653 11.725 11.3257 11.0361 11.3257C10.6106 11.3257 10.2656 11.6707 10.2656 12.0962C10.2656 12.5218 10.6106 12.8667 11.0361 12.8667Z" fill="#FFD15B"/>
<path d="M10.388 9.00686H10.341C9.91102 9.00686 9.5625 9.35544 9.5625 9.78539V12.4209C9.5625 12.8509 9.91102 13.1995 10.341 13.1995H10.388C10.8179 13.1995 11.1665 12.8509 11.1665 12.4209V9.78539C11.1665 9.35544 10.8179 9.00686 10.388 9.00686Z" fill="#FFE177"/>
</g>
</svg>
