<svg width="33" height="33" viewBox="0 0 33 33" fill="none" xmlns="http://www.w3.org/2000/svg">
<g opacity="0.5">
<g clip-path="url(#clip0_1580_11085)">
<path d="M6.86616 32.5289C6.36214 32.5289 5.86965 32.2761 5.58438 31.8164C4.31826 29.7758 3.64905 27.4232 3.64905 25.0129C3.64905 21.5617 4.99302 18.317 7.43341 15.8767C9.8738 13.4363 13.1184 12.0923 16.5697 12.0923C20.021 12.0923 23.2656 13.4363 25.706 15.8767C28.1464 18.317 29.4904 21.5617 29.4904 25.0129C29.4904 27.4232 28.8212 29.7757 27.555 31.8164C27.1162 32.5235 26.1875 32.741 25.4803 32.3023C24.7732 31.8635 24.5556 30.9346 24.9944 30.2275C25.9642 28.6644 26.4769 26.8612 26.4769 25.0129C26.4769 19.55 22.0325 15.1057 16.5696 15.1057C11.1068 15.1057 6.66249 19.55 6.66249 25.0129C6.66249 26.8613 7.17515 28.6645 8.14498 30.2275C8.58371 30.9346 8.36618 31.8635 7.65913 32.3022C7.41176 32.4557 7.13725 32.5289 6.86616 32.5289Z" fill="#9781DD"/>
<path d="M8.14499 30.2273C7.9923 29.9811 7.85224 29.7284 7.72244 29.4712C7.75511 29.965 7.51271 30.4597 7.0471 30.7389C6.81146 30.8801 6.97162 30.896 6.71336 30.896C6.34965 30.896 5.99251 30.7623 5.72246 30.5137C5.70048 30.9731 5.66013 31.4324 5.63647 31.8919C5.92716 32.3029 6.39096 32.5287 6.86611 32.5287C7.1372 32.5287 7.41177 32.4555 7.65908 32.302C8.36619 31.8633 8.58379 30.9344 8.14499 30.2273Z" fill="#8962DE"/>
<path d="M27.7325 18.4995C27.4833 18.5738 27.2325 18.6385 26.9796 18.6834C27.8188 20.3085 28.2629 22.1115 28.2629 23.9806C28.2629 26.1983 27.6255 28.3629 26.4195 30.2405C26.0684 30.7872 25.388 31.0142 24.7798 30.8338C24.709 31.3998 24.9638 31.9818 25.4804 32.3022C26.1875 32.7409 27.1163 32.5234 27.555 31.8163C28.8212 29.7757 29.4904 27.4231 29.4904 25.0129C29.4904 22.6865 28.8784 20.4548 27.7325 18.4995Z" fill="#8962DE"/>
<path d="M8.51213 19.2548C8.26547 19.1804 8.02158 19.0965 7.77646 19.0166C6.72542 20.4618 6.09778 22.187 6.09778 24.0318C6.09778 25.158 6.31357 26.2652 6.72678 27.3026C6.7639 27.1418 6.79703 26.9798 6.82835 26.8174C6.71885 26.2254 6.66252 25.6216 6.66252 25.0126C6.66258 22.867 7.34849 20.8787 8.51213 19.2548Z" fill="#8962DE"/>
<path d="M19.0915 11.8972C19.0956 11.8681 19.0984 11.8384 19.0984 11.8079C19.3001 10.6766 19.1685 9.63114 18.5506 8.71088C18.802 7.4505 18.6795 6.40095 18.009 5.64936C17.9067 4.17396 17.6032 2.55806 17.159 0.843797C17.1131 0.584437 16.7408 0.584695 16.6953 0.844119C16.2994 2.21575 16.0144 3.50784 16.0404 4.5766C15.526 5.33077 15.3408 6.16286 15.5975 7.10161C15.1453 7.87911 14.946 8.74517 15.1344 9.74084C14.538 10.5317 14.6691 11.4 14.697 11.8039C14.8733 13.1772 18.91 13.1939 19.0915 11.8972Z" fill="#96B4EB"/>
<path d="M28.0424 12.9942C26.9013 14.976 25.0963 15.4368 23.6699 14.6156C22.2435 13.7943 21.7359 12.0019 22.8769 10.0201C24.018 8.03826 27.1849 7.08339 27.8021 7.43872C28.4193 7.79405 29.1835 11.0124 28.0424 12.9942Z" fill="#C1E5EF"/>
<path d="M27.8022 7.43877C27.7287 7.39642 27.6181 7.37328 27.4801 7.36768C27.9085 8.09174 28.4393 9.42128 27.6505 10.7914C26.74 12.3727 25.2997 12.7404 24.1615 12.0851C23.1318 11.4922 22.7022 10.265 23.304 8.8655C23.2135 8.98609 23.13 9.11087 23.0554 9.24023C21.9144 11.222 22.2436 13.7944 23.67 14.6156C25.0964 15.4369 26.9014 14.9761 28.0425 12.9942C29.1835 11.0124 28.4193 7.7941 27.8022 7.43877Z" fill="#A6AAED"/>
<path d="M5.79307 12.8031C6.81885 14.8203 8.57887 15.3685 10.0307 14.6302C11.4826 13.892 12.0765 12.1467 11.0507 10.1296C10.0249 8.11239 6.94427 7.00598 6.31618 7.32541C5.68808 7.64472 4.7673 10.7859 5.79307 12.8031Z" fill="#C1E5EF"/>
<path d="M11.0508 10.1296C10.025 8.11239 6.94434 7.00598 6.31624 7.32541C6.24586 7.36119 6.1718 7.43266 6.09723 7.53373C6.92816 7.55397 8.17836 7.65657 8.90681 9.08905C9.73909 10.7258 9.25724 12.1419 8.07923 12.741C7.00376 13.2878 5.72011 12.9642 4.87146 11.6585C4.92006 11.789 5.73062 12.6801 5.7932 12.8032C6.81898 14.8203 8.579 15.3685 10.0309 14.6303C11.4827 13.892 12.0765 12.1468 11.0508 10.1296Z" fill="#A6AAED"/>
<path d="M29.1344 14.7155C29.0905 14.6711 29.044 14.631 28.9963 14.5931L29.0048 12.9892L27.378 12.9806C27.3246 12.9009 27.2636 12.8247 27.1936 12.754C26.5957 12.1497 25.6211 12.1445 25.0167 12.7424C24.946 12.8124 24.8843 12.888 24.8299 12.967L23.3235 12.9591L23.3157 14.4223C23.2404 14.4738 23.1679 14.5317 23.1007 14.5982C22.4964 15.1962 22.4912 16.1708 23.0891 16.7751C23.1556 16.8424 23.2274 16.9009 23.3022 16.9533L23.2932 18.6403L24.9516 18.6492C24.9769 18.6788 25.002 18.7085 25.0299 18.7367C25.6278 19.341 26.6024 19.3462 27.2067 18.7483C27.2349 18.7205 27.2604 18.691 27.2859 18.6616L28.9744 18.6706L28.9833 17.0135C29.0314 16.9761 29.0783 16.9365 29.1227 16.8925C29.7272 16.2945 29.7324 15.3199 29.1344 14.7155Z" fill="#E8A284"/>
<path d="M20.2041 14.0801C20.2441 14.0339 20.2821 13.9853 20.3172 13.9335C20.7941 13.2298 20.6103 12.2726 19.9065 11.7957C19.8547 11.7605 19.8014 11.7294 19.747 11.7014L19.4446 10.1272L17.8476 10.434C17.7797 10.3662 17.7047 10.3035 17.6222 10.2476C16.9185 9.77069 15.9613 9.95457 15.4844 10.6583C15.4285 10.7408 15.3821 10.8268 15.3441 10.915L13.8654 11.1991L14.1412 12.635C14.0772 12.7003 14.0177 12.7719 13.9646 12.8504C13.4877 13.5541 13.6716 14.5113 14.3754 14.9882C14.4538 15.0414 14.5355 15.0859 14.6192 15.1228L14.9373 16.7785L16.5646 16.4658C16.5953 16.4902 16.6267 16.5139 16.6597 16.5363C17.3634 17.0132 18.3206 16.8293 18.7975 16.1255C18.8199 16.0926 18.8403 16.0589 18.8597 16.0248L20.5166 15.7065L20.2041 14.0801Z" fill="#E8C2D8"/>
<path d="M11.3739 15.8689L12.0353 14.4087L10.554 13.7377C10.5377 13.643 10.5125 13.5486 10.4775 13.4554C10.1779 12.6597 9.29017 12.2576 8.4945 12.5571C8.4013 12.5922 8.31371 12.6356 8.23179 12.6858L6.86016 12.0645L6.25681 13.3964C6.16684 13.4127 6.07699 13.437 5.9883 13.4703C5.19269 13.7698 4.7905 14.6576 5.09002 15.4533C5.1234 15.5419 5.16446 15.6254 5.21151 15.7039L4.51587 17.2395L6.0253 17.9233C6.03625 17.9609 6.04824 17.9984 6.06229 18.0356C6.36181 18.8313 7.24965 19.2334 8.04526 18.9339C8.08251 18.9199 8.11861 18.9042 8.15412 18.8877L9.691 19.5838L10.3744 18.0752C10.4337 18.0606 10.4928 18.0428 10.5514 18.0207C11.347 17.7212 11.7492 16.8334 11.4497 16.0378C11.4276 15.9793 11.402 15.9231 11.3739 15.8689Z" fill="#FAF1A9"/>
<path d="M24.929 1.03596L25.343 2.20005C25.3607 2.24987 25.3958 2.28938 25.4401 2.30936L26.4744 2.77536C26.6205 2.84116 26.6205 3.07397 26.4744 3.13984L25.4401 3.60584C25.3958 3.62582 25.3607 3.66526 25.343 3.71515L24.929 4.8793C24.8705 5.04379 24.6636 5.04379 24.6052 4.8793L24.1912 3.71515C24.1735 3.66533 24.1384 3.62582 24.0941 3.60584L23.0598 3.13984C22.9137 3.07403 22.9137 2.84116 23.0598 2.77536L24.0941 2.30936C24.1383 2.28938 24.1735 2.24994 24.1912 2.20005L24.6052 1.03596C24.6637 0.871477 24.8705 0.871477 24.929 1.03596Z" fill="#C2B2EB"/>
<path d="M3.1221 3.66145L3.53615 4.8256C3.55387 4.87542 3.58894 4.91493 3.63328 4.93491L4.66756 5.40091C4.81367 5.46672 4.81367 5.69952 4.66756 5.76539L3.63328 6.23139C3.589 6.25137 3.55387 6.29081 3.53615 6.3407L3.1221 7.50485C3.06364 7.66934 2.85675 7.66934 2.79829 7.50485L2.38431 6.3407C2.36658 6.29088 2.33152 6.25137 2.28718 6.23139L1.2529 5.76539C1.10678 5.69959 1.10678 5.46678 1.2529 5.40091L2.28718 4.93491C2.33146 4.91493 2.36652 4.87549 2.38431 4.8256L2.79829 3.66145C2.85675 3.49696 3.06364 3.49696 3.1221 3.66145Z" fill="#C2B2EB"/>
<path d="M31.8435 8.00185C31.8899 7.71526 31.6953 7.44528 31.4088 7.39883C31.1222 7.35238 30.8523 7.54704 30.8058 7.83363C30.7593 8.12021 30.954 8.3902 31.2405 8.43665C31.5271 8.4831 31.797 8.28843 31.8435 8.00185Z" fill="#9781DD"/>
<path d="M10.1562 3.754C10.6652 3.754 11.0779 3.34135 11.0779 2.83232C11.0779 2.32329 10.6652 1.91064 10.1562 1.91064C9.64715 1.91064 9.2345 2.32329 9.2345 2.83232C9.2345 3.34135 9.64715 3.754 10.1562 3.754Z" fill="#9781DD"/>
<path d="M29.2128 19.0613L29.3621 19.0621L29.372 17.1927C29.3803 17.1848 29.3887 17.1773 29.3968 17.1693C29.7631 16.807 29.9664 16.3237 29.9691 15.8084C29.9718 15.2932 29.7738 14.8078 29.4114 14.4416C29.4034 14.4334 29.395 14.4258 29.3869 14.4179L29.3965 12.6017L28.9361 12.5993C29.3523 11.4471 29.3063 10.2279 29.2267 9.53242C29.1853 9.17078 28.9376 7.34308 28.1262 6.87586C27.3148 6.40864 25.6096 7.11208 25.2761 7.25781C24.4986 7.59754 23.08 8.36608 22.3143 9.69588C21.8489 10.5042 21.6179 11.3253 21.6069 12.0924C21.217 11.9494 20.8206 11.8236 20.4179 11.7171C20.3301 11.628 20.2325 11.546 20.1251 11.4732C20.1156 11.4667 20.1059 11.461 20.0963 11.4547L19.7536 9.67113L19.6872 9.68389C19.5873 9.29478 19.4363 8.92637 19.2337 8.58019C19.4497 7.26122 19.2507 6.19221 18.6408 5.39589C18.5291 4.01188 18.251 2.47236 17.7919 0.697898C17.7044 0.291393 17.346 0 16.9272 0H16.9265C16.5115 0.000257813 16.1561 0.286687 16.0647 0.687199C15.6078 2.27442 15.3965 3.42916 15.3898 4.38687C14.8832 5.2102 14.7227 6.09018 14.9093 7.00876C14.4903 7.82635 14.3376 8.69183 14.4538 9.58856C14.2065 9.99365 14.0933 10.4027 14.0462 10.7676L13.4091 10.89L13.5618 11.685C13.103 11.8016 12.6516 11.9421 12.2091 12.1053C12.2114 11.3842 12.023 10.6094 11.6293 9.83522C10.9402 8.47997 9.57635 7.64665 8.8247 7.27057C8.50204 7.10905 6.85056 6.32491 6.02169 6.74657C5.19283 7.16803 4.85355 8.9644 4.79386 9.32024C4.65503 10.1491 4.52496 11.7421 5.21416 13.0973C5.26231 13.192 5.31239 13.2839 5.36395 13.3736C5.11097 13.5651 4.90807 13.8176 4.77349 14.1147C4.56086 14.5839 4.54378 15.1079 4.72528 15.5902C4.74166 15.6336 4.7599 15.6759 4.77904 15.7177L4.00006 17.4334L5.20875 17.9809C4.00077 20.0378 3.35559 22.3865 3.35559 24.8348C3.35559 27.3662 4.05858 29.8371 5.38851 31.9805C5.78464 32.6189 6.47003 33 7.22194 33C7.62284 33 8.01542 32.8879 8.35722 32.6758C9.36733 32.0491 9.67928 30.7173 9.05247 29.707C8.14646 28.2468 7.66757 26.562 7.66757 24.8348C7.66757 22.9698 8.22264 21.2325 9.17519 19.7777L9.88489 20.0992L10.6563 18.3964C10.667 18.3926 10.6778 18.3891 10.6884 18.3851C11.2899 18.1587 11.7118 17.662 11.8693 17.0847C12.6348 16.5834 13.4785 16.1922 14.378 15.9341L14.6279 17.2345L16.4744 16.8797C16.7971 17.0888 17.16 17.1902 17.5199 17.1902C18.1263 17.1902 18.7222 16.9047 19.0965 16.3759L20.1792 16.1679C21.1832 16.5462 22.1042 17.0945 22.9081 17.7771L22.9015 19.0277L24.1347 19.0343C25.4153 20.6226 26.1834 22.6404 26.1834 24.8348C26.1834 26.5621 25.7045 28.2469 24.7985 29.7071C24.4949 30.1965 24.3999 30.7748 24.5313 31.3355C24.6626 31.8962 25.0045 32.3722 25.4939 32.6759C26.504 33.3025 27.8357 32.9907 28.4625 31.9805C29.7925 29.837 30.4955 27.3661 30.4955 24.8348C30.4957 22.8053 30.0521 20.8445 29.2128 19.0613ZM14.8541 11.8242C14.6988 11.8558 14.5501 11.9053 14.4104 11.9715L14.3214 11.5082L14.8332 11.4098C14.8255 11.547 14.832 11.6857 14.8541 11.8242ZM16.7603 10.3724C16.9822 10.3724 17.2064 10.4365 17.4036 10.5701C17.611 10.7106 17.7573 10.9077 17.8369 11.1268C17.0643 10.9129 16.2246 11.0977 15.6134 11.625C15.5892 11.3611 15.6562 11.0992 15.8068 10.8769C16.0289 10.5492 16.3914 10.3724 16.7603 10.3724ZM15.837 12.5353C16.0266 12.2556 16.2884 12.0538 16.5807 11.9367L16.2333 12.846L15.5551 13.4483C15.5553 13.1249 15.6516 12.809 15.837 12.5353ZM16.8931 13.302L17.0679 12.8447L17.4108 13.2289L17.7946 13.3573L17.5112 13.6242L17.3147 14.1015L16.9493 13.7266L16.5791 13.581L16.8931 13.302ZM17.1959 11.8179C17.5107 11.8184 17.8286 11.9094 18.1083 12.0989C18.3816 12.2841 18.5879 12.5414 18.7079 12.8412L17.8543 12.5558L17.1959 11.8179ZM16.6883 4.60782C16.6889 4.59499 16.6895 4.58217 16.6893 4.56928C16.6893 4.56637 16.6896 4.56354 16.6895 4.56057C16.675 3.96529 16.7737 3.28099 16.912 2.62305C17.0897 3.46745 17.2175 4.25004 17.2975 4.98313L16.688 4.61903C16.6882 4.61536 16.6881 4.61156 16.6883 4.60782ZM16.3539 5.32699L17.4521 5.98305C17.4588 5.99427 17.4663 6.0049 17.4737 6.01567C17.4775 6.02108 17.4808 6.02669 17.4847 6.03204C17.4974 6.04944 17.5109 6.06626 17.5252 6.08225C17.9361 6.54335 18.0902 7.19709 17.9938 8.06966L16.2423 7.03093C16.241 7.01933 16.2402 7.00767 16.2382 6.99613C16.2373 6.99046 16.2356 6.98479 16.2345 6.97911C16.2316 6.96358 16.2285 6.94811 16.2244 6.93284C16.2241 6.932 16.224 6.93116 16.2238 6.93032C16.0672 6.35766 16.1082 5.83907 16.3539 5.32699ZM15.9789 7.78059L17.9462 8.94738C17.9478 8.95151 17.9493 8.9557 17.9509 8.95982C17.9553 8.97026 17.9605 8.98032 17.9654 8.9905C17.9696 8.9994 17.9734 9.00836 17.9781 9.01712C17.9882 9.03594 17.9991 9.05425 18.0111 9.07204C18.0113 9.07229 18.0114 9.07255 18.0115 9.07281C18.1904 9.33932 18.322 9.62446 18.4091 9.92946L17.9621 10.0153C17.923 9.98405 17.8827 9.95369 17.8406 9.92507C17.2713 9.53926 16.5677 9.49994 15.9802 9.75801L15.7767 9.64709C15.776 9.64283 15.775 9.63858 15.7743 9.63432C15.7735 9.62955 15.7732 9.62478 15.7723 9.62002C15.6502 8.97407 15.7181 8.36885 15.9789 7.78059ZM6.61724 7.91742C7.22007 7.891 9.64821 8.80391 10.472 10.4238C10.9745 11.412 11.045 12.3413 10.7189 13.0529C10.5193 12.6957 10.2124 12.4124 9.83274 12.2404C9.36352 12.0279 8.83946 12.0107 8.35722 12.1922C8.30965 12.2101 8.26331 12.2302 8.21781 12.2514L6.66603 11.5485L6.3 12.3566C5.5905 10.7367 6.25199 8.37478 6.61724 7.91742ZM9.27194 13.6244C8.88206 13.4478 8.46195 13.3796 8.047 13.4198C8.17482 13.1988 8.37468 13.0182 8.63172 12.9214C8.76469 12.8714 8.9012 12.8476 9.03552 12.8476C9.50062 12.8476 9.93948 13.132 10.1128 13.5923C10.1988 13.8209 10.2087 14.065 10.146 14.2961C9.91357 14.0109 9.61695 13.7807 9.27194 13.6244ZM9.86755 16.1999L9.33504 15.4742L9.22308 14.4908C9.48708 14.6776 9.68972 14.9384 9.80619 15.2477C9.92246 15.5566 9.94244 15.8858 9.86755 16.1999ZM6.12559 13.8346C6.25746 13.785 6.39449 13.7602 6.5312 13.7602C6.6612 13.7602 6.79068 13.7837 6.9154 13.8282C6.55195 14.075 6.26198 14.4173 6.07616 14.8276C5.92927 15.1519 5.85727 15.497 5.86017 15.8428C5.6817 15.7153 5.53759 15.536 5.45464 15.3157C5.23131 14.7224 5.5323 14.058 6.12559 13.8346ZM6.85965 13.0095L7.0543 12.5798L7.529 12.7948C7.4436 12.9024 7.36889 13.0195 7.30695 13.1453C7.162 13.0815 7.01195 13.0362 6.85965 13.0095ZM6.68434 15.4451L7.17702 16.1957L7.32977 17.1581C7.065 16.9712 6.86171 16.7101 6.74499 16.4001C6.62839 16.0903 6.60867 15.7601 6.68434 15.4451ZM6.94254 14.8763C7.12932 14.6124 7.39003 14.4098 7.69941 14.2933C7.8869 14.2227 8.08181 14.1876 8.27633 14.1876C8.40298 14.1876 8.52944 14.2031 8.65357 14.2328L7.84372 14.7758L6.94254 14.8763ZM8.11939 15.5289L8.52608 15.2563L8.58441 15.7681L8.82379 16.0943L8.43824 16.1488L8.00234 16.4252L7.92029 15.9081L7.70199 15.5755L8.11939 15.5289ZM5.0315 17.0451L5.31967 16.4127C5.44523 16.5135 5.58419 16.5995 5.73475 16.6676C5.74223 16.6711 5.74983 16.6739 5.75737 16.6772C5.66649 16.8714 5.60791 17.0807 5.58522 17.296L5.0315 17.0451ZM6.36929 24.8348C6.36929 26.8042 6.91566 28.7257 7.94929 30.3916C8.1986 30.7934 8.07459 31.3231 7.67279 31.5724C7.53673 31.6569 7.38088 31.7015 7.22213 31.7015C6.92256 31.7015 6.64966 31.5498 6.49207 31.2959C5.28983 29.3582 4.65432 27.1239 4.65432 24.8348C4.65432 22.7239 5.18484 20.6949 6.18102 18.8985C6.33371 19.042 6.51051 19.1611 6.70702 19.2501C6.96116 19.3652 7.23122 19.423 7.50212 19.423C7.63238 19.423 7.76257 19.4078 7.89141 19.3809C6.9261 20.9736 6.36929 22.8402 6.36929 24.8348ZM7.90798 18.5691C7.62065 18.6774 7.30831 18.6672 7.02845 18.5404C6.74866 18.4137 6.53506 18.1856 6.42685 17.8982C6.35324 17.7028 6.33739 17.4999 6.36955 17.3076C6.60699 17.6134 6.91656 17.859 7.27924 18.0233C7.59732 18.1674 7.93544 18.2397 8.27446 18.2397C8.3083 18.2397 8.3422 18.2389 8.3761 18.2374C8.25429 18.3814 8.0967 18.4981 7.90798 18.5691ZM7.89618 17.415L8.71351 16.8968L9.60941 16.7703C9.42256 17.0348 9.16159 17.2379 8.85177 17.3545C8.54168 17.4711 8.2113 17.4908 7.89618 17.415ZM9.49688 19.0679L8.91706 18.8053C9.04261 18.6696 9.14915 18.5152 9.23275 18.3452C9.40226 18.4198 9.57873 18.4687 9.75753 18.4925L9.49688 19.0679ZM10.4142 17.656C10.2109 17.7325 9.99529 17.7486 9.78737 17.7073C10.08 17.4729 10.3158 17.1716 10.475 16.8202C10.644 16.4472 10.7139 16.0467 10.6846 15.6494C10.8656 15.7803 11.0046 15.961 11.0851 16.1748C11.3085 16.7681 11.0075 17.4326 10.4142 17.656ZM11.2813 15.1289C11.1402 15.0056 10.9804 14.9023 10.805 14.8229C10.798 14.8197 10.7908 14.8171 10.7839 14.814C10.7871 14.807 10.7907 14.8003 10.7939 14.7933C10.8606 14.6461 10.908 14.4933 10.9361 14.3382L11.5197 14.6026L11.2813 15.1289ZM11.9575 15.5243L12.5509 14.2144L11.7623 13.8572C11.8008 13.7894 11.8366 13.7201 11.8702 13.6497C12.3724 13.4227 12.8897 13.2302 13.419 13.073C13.306 13.3921 13.2789 13.7366 13.3445 14.0778C13.3952 14.3417 13.4984 14.5868 13.6456 14.8022C13.0588 14.9946 12.4944 15.2368 11.9575 15.5243ZM14.5938 14.6657C14.069 14.31 13.9314 13.5937 14.287 13.0689C14.4413 12.8413 14.6668 12.6804 14.9286 12.6075C14.774 13.0189 14.7347 13.4659 14.8197 13.9083C14.887 14.2588 15.0279 14.5828 15.2304 14.8639C15.0049 14.8627 14.7847 14.795 14.5938 14.6657ZM15.2462 16.3223L15.1149 15.6388C15.1548 15.6414 15.1947 15.6433 15.2348 15.6433C15.357 15.6433 15.4801 15.6316 15.6027 15.6081C15.6106 15.6066 15.6182 15.6046 15.626 15.6029C15.6639 15.8141 15.737 16.0187 15.8429 16.2076L15.2462 16.3223ZM16.2733 14.8066C15.9993 14.6209 15.7927 14.3626 15.6727 14.0617L16.5082 14.3904L17.1886 15.0885C16.8644 15.0887 16.5477 14.9925 16.2733 14.8066ZM18.4749 15.9069C18.1192 16.4317 17.403 16.5695 16.878 16.2137C16.7049 16.0963 16.5746 15.9395 16.4898 15.7635C16.7183 15.8327 16.9533 15.8666 17.1872 15.8666C17.717 15.8666 18.2407 15.6926 18.6681 15.3626C18.6514 15.5556 18.5865 15.7422 18.4749 15.9069ZM18.5447 14.3703C18.3588 14.6445 18.1003 14.8512 17.7992 14.9712L18.1676 14.0763L18.8265 13.4558C18.8267 13.7797 18.7304 14.0962 18.5447 14.3703ZM18.6559 11.1826C18.6265 11.0178 18.5754 10.8571 18.5043 10.7045L19.1355 10.5833L19.245 11.1532C19.0476 11.133 18.8488 11.143 18.6559 11.1826ZM19.4353 15.5175C19.4596 15.3337 19.4575 15.1457 19.4274 14.9582C19.6056 14.9219 19.7787 14.8608 19.941 14.7758L20.0604 15.3973L19.4353 15.5175ZM19.9946 13.7149C19.8702 13.8984 19.7015 14.0338 19.5126 14.1177C19.6161 13.7576 19.6348 13.3758 19.5621 12.9972C19.4849 12.5955 19.3111 12.2283 19.0583 11.921C19.2758 11.9236 19.4948 11.9873 19.6879 12.1181C20.2127 12.4737 20.3503 13.1901 19.9946 13.7149ZM24.9988 14.6521C25.2341 14.4194 25.5273 14.2669 25.8455 14.2075L25.3274 15.0338L24.5462 15.4927C24.6078 15.1839 24.7587 14.8898 24.9988 14.6521ZM24.956 13.7151C24.9835 13.4518 25.1 13.208 25.2907 13.0193C25.5076 12.8048 25.7944 12.6868 26.0992 12.6868H26.1055C26.4125 12.6885 26.7006 12.8095 26.9167 13.0279C27.0885 13.2015 27.1971 13.4203 27.234 13.657C26.9053 13.4914 26.5407 13.4022 26.1619 13.4001C26.1575 13.4001 26.1531 13.4001 26.1487 13.4001C25.7239 13.4002 25.3158 13.5099 24.956 13.7151ZM25.8863 15.6091L26.1463 15.1943L26.4083 15.6378L26.7599 15.8381L26.4301 16.045L26.1448 16.4751L25.859 16.0365L25.5241 15.8218L25.8863 15.6091ZM26.9864 16.6158L27.7523 16.1353C27.6909 16.4446 27.5399 16.7393 27.2993 16.9773C27.0638 17.2103 26.7696 17.3635 26.4511 17.4226L26.9864 16.6158ZM26.9739 15.0633L26.4705 14.2108C26.7878 14.2737 27.0792 14.4294 27.3117 14.6644C27.5489 14.9041 27.6966 15.1994 27.755 15.5082L26.9739 15.0633ZM27.9726 13.3733L28.6132 13.3767L28.6101 13.9545C28.4311 13.8994 28.243 13.8703 28.0504 13.8693C28.0469 13.8693 28.0434 13.8693 28.0399 13.8693C28.0357 13.8693 28.0316 13.8697 28.0274 13.8697C28.0275 13.862 28.0282 13.8545 28.0282 13.8469C28.0291 13.6851 28.0101 13.5264 27.9726 13.3733ZM28.0513 17.7259C28.233 17.7249 28.4147 17.6984 28.5905 17.6464L28.5871 18.2788L27.9506 18.2754C28.01 18.1 28.0444 17.9155 28.0513 17.7259ZM28.2968 16.9173C28.6569 16.2147 28.6505 15.3708 28.2761 14.6728C28.4953 14.7183 28.6965 14.8268 28.8575 14.9895C29.0735 15.2078 29.1916 15.4972 29.19 15.8043C29.1883 16.1114 29.0672 16.3995 28.8489 16.6155C28.691 16.7717 28.4988 16.8718 28.2968 16.9173ZM23.4396 10.3438C24.3272 8.80217 26.6867 8.01017 27.3976 8.01017C27.4245 8.01017 27.449 8.01133 27.4709 8.01359C27.8197 8.49363 28.3735 10.9521 27.5405 12.5568C27.5176 12.5309 27.4951 12.5047 27.4705 12.4799C27.1081 12.1137 26.6248 11.9105 26.1097 11.9078C26.1061 11.9077 26.1026 11.9077 26.0991 11.9077C25.5879 11.9077 25.1065 12.1055 24.7428 12.4654C24.7067 12.5011 24.6726 12.5383 24.6396 12.5764L22.9361 12.5673L22.936 12.5892C22.8137 11.9269 22.9767 11.1477 23.4396 10.3438ZM24.2322 13.3534C24.1981 13.4864 24.1776 13.6237 24.1724 13.7638C24.014 13.7646 23.8585 13.7845 23.7085 13.8222L23.711 13.3506L24.2322 13.3534ZM20.7788 15.0069L20.6198 14.1797C20.6263 14.1704 20.6332 14.1614 20.6396 14.152C20.8299 13.8713 20.9356 13.5579 20.9633 13.2419C21.2844 13.3535 21.6001 13.4791 21.9104 13.6173C22.0736 13.9806 22.3022 14.3123 22.5927 14.6023C22.3617 14.9395 22.2493 15.3342 22.2563 15.7277C21.7856 15.451 21.2923 15.209 20.7788 15.0069ZM23.3748 14.8751C23.5705 14.6815 23.8244 14.566 24.0949 14.5464C23.6702 15.2343 23.6218 16.0912 23.9526 16.8176C23.7372 16.7739 23.532 16.6687 23.3661 16.501C22.9202 16.0504 22.9241 15.321 23.3748 14.8751ZM23.685 18.2527L23.6887 17.5557C23.8506 17.5985 24.017 17.6203 24.1836 17.6203C24.1877 17.6203 24.1919 17.6201 24.1961 17.6201C24.196 17.6279 24.1954 17.6358 24.1953 17.6437C24.1943 17.8549 24.2274 18.0609 24.2913 18.256L23.685 18.2527ZM24.5426 16.1183L25.2976 16.6022L25.8296 17.4189C25.5115 17.3563 25.2195 17.2005 24.9864 16.965C24.7486 16.7245 24.6007 16.4282 24.5426 16.1183ZM25.013 17.9463C25.3547 18.1289 25.7378 18.2272 26.1362 18.2292H26.1494C26.5299 18.2292 26.8969 18.141 27.2278 17.9754C27.174 18.1611 27.0741 18.3314 26.9329 18.4712C26.4823 18.917 25.7529 18.9132 25.3069 18.4625C25.1628 18.3169 25.0635 18.1394 25.013 17.9463ZM27.3594 31.2959C27.1102 31.6976 26.5804 31.8216 26.1787 31.5724C25.9841 31.4516 25.8481 31.2623 25.7959 31.0393C25.7436 30.8163 25.7814 30.5864 25.9022 30.3917C26.9359 28.7257 27.4823 26.8042 27.4823 24.8348C27.4823 22.9229 26.9702 21.129 26.0776 19.5809C26.0932 19.5812 26.1088 19.582 26.1244 19.582C26.6026 19.582 27.0809 19.4051 27.4524 19.052L27.7557 19.0536C28.6971 20.8113 29.1972 22.7845 29.1972 24.8348C29.1972 27.1239 28.5617 29.3581 27.3594 31.2959Z" fill="#3C122C"/>
<path d="M7.08809 11.6031C6.79509 11.6031 6.52928 11.4034 6.45748 11.106C6.23293 10.1757 6.54978 9.29626 6.58665 9.199C6.71381 8.86378 7.08848 8.69491 7.42396 8.82221C7.75828 8.94899 7.92701 9.32217 7.80185 9.65668C7.79572 9.67357 7.58844 10.2573 7.71973 10.8014C7.80384 11.1499 7.58947 11.5008 7.24091 11.5849C7.18973 11.5972 7.13856 11.6031 7.08809 11.6031Z" fill="white"/>
</g>
</g>
<defs>
<clipPath id="clip0_1580_11085">
<rect width="33" height="33" fill="white"/>
</clipPath>
</defs>
</svg>
