<svg width="19" height="23" viewBox="0 0 19 23" fill="none" xmlns="http://www.w3.org/2000/svg">
<path d="M14.1412 3.33048C13.9436 3.14483 13.6195 3.25467 13.5744 3.52193C13.4677 4.15189 13.247 5.17246 12.8297 6.11143C12.8297 6.11143 12.0044 1.57308 6.50957 0.0132714C6.27215 -0.0541116 6.04403 0.144879 6.08018 0.388967C6.27952 1.7375 6.63889 5.54236 5.10137 9.18613C4.30155 7.55999 3.02302 6.92582 2.20916 6.68015C1.93647 6.59785 1.68765 6.86475 1.79381 7.12902C2.50502 8.90186 0.90625 11.1169 0.90625 14.1377C0.90625 19.0323 4.87395 23 9.76852 23C14.6629 23 18.6306 19.0323 18.6306 14.1379C18.6306 8.12432 15.388 4.50126 14.1412 3.33048Z" fill="#FEC37C"/>
<path d="M15.8053 15.6204C15.7667 12.7241 14.6216 10.7219 13.9998 9.84525C13.84 9.61976 13.4985 9.64784 13.3746 9.89473C13.1842 10.2739 12.8785 10.7533 12.4625 11.0029C12.4625 11.0029 10.6988 9.58151 10.6165 7.4521C10.6072 7.20906 10.3643 7.04482 10.1339 7.12308C9.20003 7.44069 7.21802 8.50759 6.73897 11.9067C6.3452 11.198 5.41131 10.9909 4.81118 10.9327C4.56113 10.9083 4.35916 11.1394 4.42145 11.3828C4.87874 13.1686 3.72656 14.2357 3.72656 15.7702C3.72656 19.1001 6.42136 21.8006 9.74892 21.8101C13.1274 21.8198 15.8502 18.9985 15.8053 15.6204Z" fill="#F26365"/>
<path d="M6.73754 16.9443C6.54592 16.9443 6.39062 16.789 6.39062 16.5972V16.0487C6.39062 15.8569 6.54592 15.7016 6.73754 15.7016C6.92934 15.7016 7.08463 15.8569 7.08463 16.0487V16.5972C7.08463 16.789 6.92934 16.9443 6.73754 16.9443Z" fill="#57565B"/>
<path d="M12.8002 16.9443C12.6086 16.9443 12.4531 16.789 12.4531 16.5972V16.0487C12.4531 15.8569 12.6086 15.7016 12.8002 15.7016C12.9918 15.7016 13.1473 15.8569 13.1473 16.0487V16.5972C13.1473 16.789 12.9918 16.9443 12.8002 16.9443Z" fill="#57565B"/>
<path d="M9.76726 17.2372C9.37542 17.2372 9.00745 17.0733 8.75757 16.7874C8.63157 16.6432 8.64614 16.4238 8.79056 16.2977C8.93497 16.1717 9.15414 16.1862 9.28031 16.3306C9.39823 16.4656 9.57581 16.543 9.76726 16.543C9.9587 16.543 10.1361 16.4656 10.254 16.3306C10.3802 16.1862 10.5995 16.1717 10.7438 16.2977C10.8882 16.4238 10.9029 16.6432 10.7768 16.7874C10.5269 17.0733 10.1589 17.2372 9.76726 17.2372Z" fill="#57565B"/>
</svg>
