<svg width="13" height="13" viewBox="0 0 13 13" fill="none" xmlns="http://www.w3.org/2000/svg">
<path d="M12.6667 10.5468L2.47854 0.35864C2.03421 -0.0856924 1.31384 -0.0856924 0.870197 0.35864L0.333249 0.894754C-0.111083 1.33923 -0.111083 2.0596 0.333249 2.50324L10.5214 12.6914C10.9658 13.1357 11.6862 13.1357 12.1299 12.6914L12.666 12.1552C13.1111 11.7116 13.1111 10.9911 12.6667 10.5468Z" fill="#F44336"/>
<path d="M10.5213 0.359512L0.333248 10.5476C-0.111083 10.992 -0.111083 11.7125 0.333248 12.1561L0.869362 12.6922C1.31383 13.1366 2.0342 13.1366 2.47784 12.6922L12.6666 2.5048C13.1111 2.06047 13.1111 1.3401 12.6666 0.89646L12.1305 0.360345C11.6862 -0.0848199 10.9658 -0.0848199 10.5213 0.359512Z" fill="#F44336"/>
</svg>
