<svg width="44" height="41" viewBox="0 0 44 41" fill="none" xmlns="http://www.w3.org/2000/svg">
<path d="M5.5 32.9237C8.53757 32.9237 11 30.4613 11 27.4237C11 24.3861 8.53757 21.9237 5.5 21.9237C2.46243 21.9237 0 24.3861 0 27.4237C0 30.4613 2.46243 32.9237 5.5 32.9237Z" fill="#E1E8ED"/>
<path d="M31.1666 28.0348C34.8791 28.0348 37.8888 25.0251 37.8888 21.3126C37.8888 17.6 34.8791 14.5903 31.1666 14.5903C27.454 14.5903 24.4443 17.6 24.4443 21.3126C24.4443 25.0251 27.454 28.0348 31.1666 28.0348Z" fill="#E1E8ED"/>
<path d="M37.8889 34.757C41.264 34.757 44.0001 32.021 44.0001 28.6459C44.0001 25.2708 41.264 22.5348 37.8889 22.5348C34.5139 22.5348 31.7778 25.2708 31.7778 28.6459C31.7778 32.021 34.5139 34.757 37.8889 34.757Z" fill="#E1E8ED"/>
<path d="M14.6668 31.7015C18.0418 31.7015 20.7779 28.9654 20.7779 25.5904C20.7779 22.2153 18.0418 19.4792 14.6668 19.4792C11.2917 19.4792 8.55566 22.2153 8.55566 25.5904C8.55566 28.9654 11.2917 31.7015 14.6668 31.7015Z" fill="#E1E8ED"/>
<path d="M40.3333 32.9237C38.3081 32.9237 36.6667 34.5652 36.6667 36.5904H7.33333C7.33333 34.5652 5.69189 32.9237 3.66667 32.9237C1.64144 32.9237 0 34.5652 0 36.5904C0 38.6156 1.64144 40.257 3.66667 40.257H39.1111V40.0322C39.4949 40.169 39.9019 40.257 40.3333 40.257C42.3586 40.257 44 38.6156 44 36.5904C44 34.5652 42.3586 32.9237 40.3333 32.9237Z" fill="#E1E8ED"/>
<path d="M0 27.4236H11V36.5903H0V27.4236ZM24.4444 24.368H35.4444V29.2569H24.4444V24.368ZM37.8889 28.6458H44V36.5903H37.8889V28.6458Z" fill="#E1E8ED"/>
<path d="M37.8891 40.257V34.757C37.8891 30.7066 33.538 28.0348 29.4863 28.0348H14.8197C10.7704 28.0348 6.11133 30.7066 6.11133 34.757V40.257H37.8891Z" fill="#F7DECE"/>
<path d="M26.0698 1.11541C23.9652 0.434629 19.0115 0.620407 17.7734 2.23007C14.554 2.29241 10.7774 5.2013 10.2824 9.0403C9.79227 12.839 10.8849 14.6039 11.2724 17.4602C11.7124 20.6966 13.5323 21.7318 14.9867 22.1657C17.0792 24.9304 19.3048 24.8131 23.0412 24.8131C30.3366 24.8131 33.8114 19.9315 34.1182 11.6412C34.3052 6.62518 31.3633 2.82774 26.0698 1.11541Z" fill="#292F33"/>
<path d="M18.8735 22.728V28.9809C18.8735 30.7079 20.273 32.1074 22 32.1074C23.727 32.1074 25.1264 30.7079 25.1264 28.9809V22.728H18.8735Z" fill="#F7DECE"/>
<path d="M18.8735 26.4434C19.745 27.4273 20.8254 27.695 22 27.695C23.1745 27.695 24.2538 27.4273 25.1264 26.4434V23.9415H18.8735V26.4434Z" fill="#EEC2AD"/>
<path d="M30.2425 11.9943C29.5361 11.0165 28.6329 10.2294 26.6516 9.95077C27.3948 10.2918 28.1061 11.4675 28.199 12.1178C28.2919 12.768 28.3848 13.2948 27.7969 12.6445C25.4404 10.04 22.875 11.0654 20.3315 9.47532C18.5556 8.36432 18.0154 7.13477 18.0154 7.13477C18.0154 7.13477 17.7991 8.77499 15.1053 10.447C14.3243 10.9322 13.393 12.0102 12.876 13.604C12.5044 14.7492 12.6193 15.771 12.6193 17.5163C12.6193 22.6118 16.8189 26.8957 21.9986 26.8957C27.1784 26.8957 31.378 22.5739 31.378 17.5163C31.3792 14.3471 31.048 13.109 30.2425 11.9943Z" fill="#F7DECE"/>
<path d="M21.9329 23.6984C19.97 23.6984 18.9421 22.728 18.8321 22.6167C18.5045 22.2904 18.5045 21.7612 18.8321 21.4348C19.1572 21.111 19.6779 21.1085 20.0066 21.4263C20.0494 21.4654 20.6801 22.0264 21.9329 22.0264C23.2015 22.0264 23.8334 21.4483 23.8591 21.4251C24.1928 21.1122 24.7183 21.122 25.0361 21.4495C25.3539 21.7783 25.3539 22.2941 25.0312 22.6167C24.9224 22.728 23.8958 23.6984 21.9329 23.6984ZM23.0219 19.9792H20.9563C20.6715 19.9792 20.4393 19.747 20.4393 19.4622V19.2752C20.4393 18.9904 20.6703 18.757 20.9563 18.757H23.0219C23.3066 18.757 23.5401 18.9892 23.5401 19.2752V19.4622C23.5401 19.7482 23.3066 19.9792 23.0219 19.9792Z" fill="#C1694F"/>
<path d="M17.8311 16.4751C17.2555 16.4751 16.7886 16.0082 16.7886 15.4325V14.39C16.7886 13.8143 17.2555 13.3474 17.8311 13.3474C18.4068 13.3474 18.8737 13.8143 18.8737 14.39V15.4325C18.8737 16.0082 18.4068 16.4751 17.8311 16.4751ZM26.1691 16.4751C25.5935 16.4751 25.1266 16.0082 25.1266 15.4325V14.39C25.1266 13.8143 25.5935 13.3474 26.1691 13.3474C26.7448 13.3474 27.2117 13.8143 27.2117 14.39V15.4325C27.2105 16.0082 26.7448 16.4751 26.1691 16.4751Z" fill="#662113"/>
<path d="M18.8737 26.7955L14.8196 28.0349C12.2994 28.0349 9.5445 29.0701 7.82239 30.8276C7.51805 31.4656 7.3335 32.1709 7.3335 32.9238V40.2571H27.4048C27.4048 40.2571 21.6775 35.3511 18.8737 26.7955Z" fill="#EEC2AD"/>
<path d="M29.4861 28.0348H27.5709C25.5909 37.2882 19.2329 40.257 19.2329 40.257H37.8889V34.757C37.8889 30.7066 33.5378 28.0348 29.4861 28.0348Z" fill="#DD551F"/>
<path d="M19.2329 40.2571H27.2421C27.2421 40.2571 26.2839 39.4076 25.6398 38.601C23.8407 39.6936 19.2329 40.2571 19.2329 40.2571Z" fill="#C63900"/>
<path d="M30.0154 28.0348C29.0657 28.0348 26.5809 26.8126 25.1265 26.8126C23.1465 36.0661 19.2329 40.2571 19.2329 40.2571H24.1218C24.1218 40.2571 28.0354 37.2883 30.0154 28.0348Z" fill="#FA743E"/>
<path d="M22.6466 34.575C21.5661 36.8458 19.2329 40.2571 19.2329 40.2571H24.1792C24.1792 40.2571 24.9602 39.547 25.641 38.601C24.6241 37.3384 23.3188 35.6358 22.6466 34.575Z" fill="#DD551F"/>
<path d="M16.4293 28.0348H14.8197C10.7704 28.0348 6.11133 30.7066 6.11133 34.757V40.257H24.9604C24.9604 40.257 19.2331 36.5903 16.4293 28.0348Z" fill="#FA743E"/>
<path d="M18.8738 26.8126C17.5941 26.8126 15.0201 28.0348 13.9849 28.0348C16.7899 36.5904 20.0715 40.2571 20.0715 40.2571H24.9604C24.9604 40.2571 21.6775 35.3682 18.8738 26.8126Z" fill="#FA8C56"/>
<path opacity="0.7" d="M39.1111 30.4792C35.475 30.4792 32.4647 33.129 31.8866 36.6014C31.8487 36.6001 31.8144 36.5904 31.7778 36.5904C29.2734 36.5904 27.126 38.101 26.1824 40.257H40.3333C42.35 40.257 44 38.607 44 36.5904V32.3578C42.702 31.193 40.9921 30.4792 39.1111 30.4792ZM16.5953 40.257C15.6518 38.101 13.5043 36.5904 11 36.5904C10.0467 36.5904 9.15567 36.8275 8.35267 37.2161C8.47244 36.8226 8.55556 36.4131 8.55556 35.9792C8.55556 33.6167 6.64033 31.7015 4.27778 31.7015C2.12422 31.7015 0.360556 33.2977 0.0611111 35.3681H0V36.5904C0 38.607 1.65 40.257 3.66667 40.257H16.5953Z" fill="white"/>
</svg>
