<svg width="13" height="12" viewBox="0 0 13 12" fill="none" xmlns="http://www.w3.org/2000/svg">
<path d="M12.2497 1.51448C11.7843 0.829158 11.1268 0.339057 10.3828 0.122912C9.6389 -0.0932325 8.85172 -0.0228746 8.14776 0.322683C7.51769 0.627384 6.95574 1.14111 6.5 1.82285C6.04426 1.13944 5.48231 0.625717 4.85224 0.322683C4.14828 -0.0228746 3.3611 -0.0932325 2.61717 0.122912C1.87323 0.339057 1.21571 0.829158 0.750252 1.51448C0.259405 2.23523 0 3.13599 0 4.1191C0 5.53393 0.752929 7.0861 2.23767 8.73428C3.44753 10.0768 4.87723 11.1762 5.62153 11.7119C5.88379 11.9 6.18863 12 6.5 12C6.81137 12 7.11621 11.9 7.37847 11.7119C8.12217 11.1762 9.55247 10.0768 10.7623 8.73428C12.2471 7.08676 13 5.53393 13 4.1191C13 3.13599 12.7406 2.23523 12.2497 1.51448Z" fill="#00853D"/>
</svg>
