<svg width="36" height="39" viewBox="0 0 36 39" fill="none" xmlns="http://www.w3.org/2000/svg">
<path d="M28.4062 2.35547H3.53103L3.13867 38.2166L29.5833 37.8242V33.4552L29.0749 28.8973L29.5833 25.5503V3.53253C29.5833 2.88248 29.0563 2.35547 28.4062 2.35547Z" fill="#CDE2FF"/>
<path d="M27.2415 36.6472L27.2292 35.4701L3.53106 2.35547C2.88101 2.35547 2.354 2.88248 2.354 3.53253V37.8242C2.354 38.4743 2.88101 39.0013 3.53106 39.0013H28.4063C29.0563 39.0013 29.5833 38.4743 29.5833 37.8242H26.0645C26.7146 37.8242 27.2415 37.2972 27.2415 36.6472Z" fill="#9EC8FC"/>
<path d="M29.5833 25.5488L27.2292 18.7821L23.9951 17.4023L29.5833 33.4537V25.5488Z" fill="#9EC8FC"/>
<path d="M26.0522 0H1.17702L0.784668 35.8611L27.2293 35.4688V26.6921L26.2244 18.3229L27.2293 15.1253V1.17706C27.2293 0.527009 26.7023 0 26.0522 0Z" fill="#EDF6FF"/>
<path d="M27.2295 15.1259L24.82 12.1145C24.5163 11.7313 23.8994 11.946 23.8994 12.435V16.8359C23.8994 17.029 23.9318 17.2207 23.9953 17.4031L27.2295 26.6926V15.1259Z" fill="#CDE2FF"/>
<path d="M22.521 32.5247H4.70816C4.38313 32.5247 4.11963 32.2612 4.11963 31.9362C4.11963 31.6112 4.38313 31.3477 4.70816 31.3477H22.521C22.846 31.3477 23.1095 31.6112 23.1095 31.9362C23.1095 32.2612 22.846 32.5247 22.521 32.5247Z" fill="#7E8B96"/>
<path d="M22.521 28.9896H4.70816C4.38313 28.9896 4.11963 28.7261 4.11963 28.401C4.11963 28.076 4.38313 27.8125 4.70816 27.8125H22.521C22.846 27.8125 23.1095 28.076 23.1095 28.401C23.1095 28.7261 22.846 28.9896 22.521 28.9896Z" fill="#7E8B96"/>
<path d="M22.521 25.4583H4.70816C4.38313 25.4583 4.11963 25.1948 4.11963 24.8698C4.11963 24.5448 4.38313 24.2812 4.70816 24.2812H22.521C22.846 24.2812 23.1095 24.5448 23.1095 24.8698C23.1095 25.1948 22.846 25.4583 22.521 25.4583Z" fill="#7E8B96"/>
<path d="M20.9516 21.9271H4.70816C4.38313 21.9271 4.11963 21.6636 4.11963 21.3385C4.11963 21.0135 4.38313 20.75 4.70816 20.75H20.9516C21.2766 20.75 21.5401 21.0135 21.5401 21.3385C21.5401 21.6636 21.2766 21.9271 20.9516 21.9271Z" fill="#7E8B96"/>
<path d="M22.521 18.3997H4.70816C4.38313 18.3997 4.11963 18.1362 4.11963 17.8112C4.11963 17.4862 4.38313 17.2227 4.70816 17.2227H22.521C22.846 17.2227 23.1095 17.4862 23.1095 17.8112C23.1095 18.1362 22.846 18.3997 22.521 18.3997Z" fill="#7E8B96"/>
<path d="M22.521 14.8646H4.70816C4.38313 14.8646 4.11963 14.6011 4.11963 14.276C4.11963 13.951 4.38313 13.6875 4.70816 13.6875H22.521C22.846 13.6875 23.1095 13.951 23.1095 14.276C23.1095 14.6011 22.846 14.8646 22.521 14.8646Z" fill="#7E8B96"/>
<path d="M4.70816 11.3335C4.384 11.3335 4.12073 11.0713 4.11963 10.7469C4.11853 10.4219 4.38118 10.1575 4.7062 10.1564L16.3983 10.1172C16.7257 10.1158 16.9877 10.3787 16.9888 10.7038C16.9899 11.0288 16.7273 11.2932 16.4023 11.2943L4.71012 11.3335C4.7095 11.3335 4.70879 11.3335 4.70816 11.3335Z" fill="#7E8B96"/>
<path d="M19.4195 5.4505H7.80972C7.4847 5.4505 7.22119 5.18699 7.22119 4.86197C7.22119 4.53694 7.4847 4.27344 7.80972 4.27344H19.4195C19.7445 4.27344 20.008 4.53694 20.008 4.86197C20.008 5.18699 19.7445 5.4505 19.4195 5.4505Z" fill="#7E8B96"/>
<path d="M1.17706 34.2917V0C0.527009 0 0 0.527009 0 1.17706V35.4688C0 36.1188 0.527009 36.6458 1.17706 36.6458H26.0523C26.7023 36.6458 27.2293 36.1188 27.2293 35.4688H2.35412C1.70407 35.4688 1.17706 34.9418 1.17706 34.2917Z" fill="#CDE2FF"/>
<path d="M25.9968 10.9375L25.6045 12.3996L25.9968 14.1071L27.6177 12.9832L25.9968 10.9375Z" fill="#7E8B96"/>
<path d="M25.0767 11.2553V13.8653L25.9972 14.1044V10.9349C25.6934 10.5516 25.0767 10.7663 25.0767 11.2553Z" fill="#5F6C75"/>
<path d="M27.6178 12.9844L25.9969 13.5432L25.3438 15.4324C25.3496 15.7303 26.3874 16.3898 26.3874 16.3898L29.0071 14.8922C28.9436 14.7098 28.8499 14.5394 28.73 14.3881L27.6178 12.9844Z" fill="#E0BBA4"/>
<path d="M26.2053 15.8633C26.126 15.6355 26.0025 15.3163 25.9967 15.0185V13.5391L25.0762 13.865V15.6558C25.0762 15.8489 25.1086 16.0406 25.1721 16.223L26.3871 16.3857L26.2053 15.8633Z" fill="#D8AB8C"/>
<path d="M26.2056 15.8659L32.1361 34.4885C32.2659 34.8613 32.8669 34.8609 33.7213 34.5635C34.9882 34.1224 35.4307 33.3414 35.4307 33.3414L29.0071 14.8906L26.2056 15.8659Z" fill="#FFD064"/>
<path d="M32.5403 34.0263L26.2055 15.8672L25.1724 16.2269L31.596 34.6777C31.8073 35.2848 32.8371 35.4781 33.896 35.1095C34.9549 34.7408 35.642 33.9498 35.4307 33.3427C35.4307 33.3427 35.0656 33.6677 34.2113 33.9652C33.3567 34.2627 32.6701 34.3992 32.5403 34.0263Z" fill="#EBB044"/>
</svg>
