<svg width="24" height="25" viewBox="0 0 24 25" fill="none" xmlns="http://www.w3.org/2000/svg">
<path d="M21 5.15625H19.5V3.65625C19.5 2.829 18.8269 2.15625 18 2.15625H6C5.17313 2.15625 4.5 2.829 4.5 3.65625V5.15625H3C2.17313 5.15625 1.5 5.829 1.5 6.65625V10.4062C1.5 12.4738 3.18244 14.1562 5.25 14.1562H6.01425C7.24256 15.7858 9.11231 16.905 11.25 17.1182V18.6562H9C7.75931 18.6562 6.75 19.6656 6.75 20.9062V22.4062C6.75 22.8204 7.08544 23.1562 7.5 23.1562H16.5C16.9146 23.1562 17.25 22.8204 17.25 22.4062V20.9062C17.25 19.6656 16.2407 18.6562 15 18.6562H12.75V17.1182C14.8877 16.905 16.7574 15.7858 17.9858 14.1562H18.75C20.8176 14.1562 22.5 12.4738 22.5 10.4062V6.65625C22.5 5.829 21.8269 5.15625 21 5.15625ZM15.75 20.9062V21.6562H8.25V20.9062C8.25 20.4928 8.58619 20.1562 9 20.1562H15C15.4138 20.1562 15.75 20.4928 15.75 20.9062ZM3 10.4062V6.65625H4.5V9.65625C4.5 10.7181 4.72481 11.7274 5.12456 12.6435C3.94312 12.5769 3 11.604 3 10.4062ZM12 15.6562C8.69156 15.6562 6 12.9647 6 9.65625V3.65625H18V9.65625C18 12.9647 15.3084 15.6562 12 15.6562ZM21 10.4062C21 11.604 20.0569 12.5769 18.8756 12.6435C19.2752 11.7274 19.5 10.7181 19.5 9.65625V6.65625H21V10.4062Z" fill="#9B9B9B"/>
</svg>
