<svg width="24" height="25" viewBox="0 0 24 25" fill="none" xmlns="http://www.w3.org/2000/svg">
<mask id="mask0_10531_10689" style="mask-type:alpha" maskUnits="userSpaceOnUse" x="2" y="3" width="20" height="19">
<path fill-rule="evenodd" clip-rule="evenodd" d="M2 3.8291H22V21.9951H2V3.8291Z" fill="white"/>
</mask>
<g mask="url(#mask0_10531_10689)">
<path fill-rule="evenodd" clip-rule="evenodd" d="M3.5 15.8081V17.8531C3.5 18.5591 3.774 19.2221 4.273 19.7211C4.772 20.2201 5.436 20.4951 6.141 20.4951H17.857C19.313 20.4951 20.499 19.3111 20.5 17.8551V15.8071C19.214 15.4741 18.261 14.3031 18.26 12.9141C18.26 11.5251 19.213 10.3541 20.499 10.0201L20.5 7.9751C20.501 6.5171 19.318 5.3301 17.861 5.3291H6.144C4.687 5.3291 3.501 6.5141 3.5 7.9711V10.0881C3.986 10.2041 4.437 10.4431 4.812 10.7931C5.381 11.3241 5.709 12.0441 5.737 12.8221C5.74 14.2881 4.787 15.4721 3.5 15.8081ZM17.857 21.9951H6.142C5.035 21.9951 3.995 21.5651 3.212 20.7821C2.43 19.9991 2 18.9591 2 17.8531V15.1531C2 14.7391 2.336 14.4031 2.75 14.4031C3.574 14.4021 4.24 13.7341 4.239 12.9141C4.225 12.4961 4.065 12.1481 3.789 11.8901C3.514 11.6321 3.158 11.4911 2.776 11.5121C2.569 11.5141 2.375 11.4431 2.229 11.3021C2.083 11.1611 2 10.9651 2 10.7621V7.9721C2.001 5.6871 3.86 3.8291 6.144 3.8291H17.856C20.146 3.8301 22.002 5.6921 22 7.9761V10.6751C22 11.0891 21.664 11.4251 21.25 11.4251C20.429 11.4251 19.76 12.0931 19.76 12.9131C19.761 13.7351 20.429 14.4031 21.25 14.4031C21.664 14.4031 22 14.7391 22 15.1531V17.8531C21.999 20.1371 20.14 21.9951 17.857 21.9951Z" fill="#9B9B9B"/>
</g>
<path fill-rule="evenodd" clip-rule="evenodd" d="M10.1038 12.2101L10.6128 12.7061C10.8888 12.9771 11.0138 13.3631 10.9478 13.7401L10.8278 14.4381L11.4568 14.1071C11.7958 13.9261 12.2028 13.9271 12.5448 14.1091L13.1698 14.4371L13.0498 13.7381C12.9868 13.3551 13.1128 12.9721 13.3858 12.7061L13.8948 12.2101L13.1898 12.1081C12.8118 12.0531 12.4838 11.8151 12.3148 11.4701L11.9998 10.8331L11.6848 11.4711C11.5158 11.8151 11.1878 12.0531 10.8078 12.1081L10.1038 12.2101ZM13.6178 16.2161C13.4318 16.2161 13.2458 16.1711 13.0738 16.0801L11.9998 15.5171L10.9248 16.0811C10.5288 16.2881 10.0578 16.2551 9.69783 15.9931C9.33683 15.7301 9.15983 15.2941 9.23483 14.8541L9.43983 13.6581L8.57083 12.8111C8.25183 12.5001 8.13783 12.0431 8.27483 11.6191C8.41283 11.1941 8.77283 10.8891 9.21383 10.8251L10.4178 10.6491L10.9548 9.56013C11.1518 9.16013 11.5518 8.91113 11.9998 8.91113C12.4458 8.91113 12.8468 9.16013 13.0438 9.56113L13.5818 10.6491L14.7838 10.8251C15.2258 10.8891 15.5868 11.1941 15.7238 11.6191C15.8608 12.0431 15.7478 12.5001 15.4278 12.8121L14.5578 13.6591L14.7638 14.8541C14.8388 15.2951 14.6608 15.7321 14.2988 15.9941C14.0948 16.1411 13.8568 16.2161 13.6178 16.2161Z" fill="#9B9B9B"/>
</svg>
