<svg width="44" height="45" viewBox="0 0 44 45" fill="none" xmlns="http://www.w3.org/2000/svg">
<path d="M41.5556 18.8333H37.4464C37.0504 17.1601 36.3904 15.5932 35.5129 14.1718L38.4206 11.2641C39.3751 10.3096 39.3751 8.761 38.4206 7.80644L36.6923 6.07822C35.7378 5.12367 34.1904 5.12367 33.2359 6.07822L30.3282 8.98589C28.9056 8.10833 27.3399 7.44956 25.6667 7.05356V2.94444C25.6667 1.59511 24.5716 0.5 23.2222 0.5H20.7778C19.4284 0.5 18.3333 1.59511 18.3333 2.94444V7.05356C16.6601 7.44956 15.0932 8.10956 13.6718 8.98711L10.7653 6.07944C9.81078 5.12489 8.26222 5.12489 7.30889 6.07944L5.57944 7.80767C4.62489 8.76222 4.62489 10.3108 5.57822 11.2653L8.48589 14.173C7.60833 15.5944 6.94956 17.1613 6.55356 18.8333H2.44444C1.09511 18.8333 0 19.9284 0 21.2778V23.7222C0 25.0716 1.09511 26.1667 2.44444 26.1667H6.55356C6.94956 27.8387 7.60956 29.4056 8.48711 30.827L5.57944 33.7347C4.62611 34.688 4.62611 36.2378 5.58067 37.1923L7.30889 38.9206C8.26222 39.8739 9.81078 39.8739 10.7653 38.9206L13.673 36.0129C15.0944 36.8917 16.6613 37.5504 18.3346 37.9464V42.0556C18.3346 43.4049 19.4297 44.5 20.779 44.5H23.2234C24.5728 44.5 25.6679 43.4049 25.6679 42.0556V37.9464C27.3399 37.5504 28.9068 36.8904 30.3282 36.0129L33.2359 38.9206C34.1904 39.8751 35.7378 39.8751 36.6923 38.9206L38.4206 37.1923C39.3751 36.2378 39.3751 34.6892 38.4206 33.7347L35.5129 30.827C36.3917 29.4056 37.0504 27.8387 37.4464 26.1654H41.5556C42.9049 26.1654 44 25.0703 44 23.721V21.2766C44 19.9284 42.9049 18.8333 41.5556 18.8333ZM22 32.2778C16.6002 32.2778 12.2222 27.8998 12.2222 22.5C12.2222 17.1002 16.6002 12.7222 22 12.7222C27.3998 12.7222 31.7778 17.1002 31.7778 22.5C31.7778 27.8998 27.3998 32.2778 22 32.2778Z" fill="#728089"/>
</svg>
