<svg width="54" height="39" viewBox="0 0 54 39" fill="none" xmlns="http://www.w3.org/2000/svg">
<path d="M21 20.25C16.029 20.25 12 24.2805 12 29.25C12 34.2195 16.029 38.25 21 38.25C25.971 38.25 30 34.2195 30 29.25C30 24.2805 25.9695 20.25 21 20.25ZM21 35.25C17.6865 35.25 15 32.5635 15 29.25C15 25.9365 17.6865 23.25 21 23.25C24.3135 23.25 27 25.9365 27 29.25C27 32.5635 24.3135 35.25 21 35.25Z" fill="#3B88C3"/>
<path d="M2.6745 12.7842V12.8142C1.173 13.1442 0 15.6582 0 18.7497C0 21.8412 1.173 24.3552 2.6745 24.6837V24.7152L45.726 36.6732V0.845703L2.6745 12.7842Z" fill="#55ACEE"/>
<path d="M46.5 36.75C50.6421 36.75 54 28.6911 54 18.75C54 8.80887 50.6421 0.75 46.5 0.75C42.3579 0.75 39 8.80887 39 18.75C39 28.6911 42.3579 36.75 46.5 36.75Z" fill="#226699"/>
</svg>
