<svg width="26" height="26" viewBox="0 0 26 26" fill="none" xmlns="http://www.w3.org/2000/svg">
<path d="M4.27553 21.8558C1.2537 18.834 1.23974 13.9323 4.24439 10.9277L11.8723 3.29978C12.274 2.89806 12.9261 2.90072 13.3293 3.30393C13.7326 3.70728 13.7353 4.35934 13.3336 4.76106L5.70567 12.389C3.503 14.5916 3.51257 18.1869 5.7285 20.4028C7.94444 22.6188 11.5397 22.6283 13.7424 20.4257L21.7335 12.4345C23.1356 11.0325 23.1291 8.74491 21.719 7.33487C20.3088 5.92469 18.0213 5.91818 16.6193 7.32021L9.35452 14.585C8.7538 15.1857 8.75646 16.1663 9.36074 16.7706C9.96503 17.3749 10.9457 17.3775 11.5464 16.7768L18.4478 9.87533C18.8496 9.47361 19.5016 9.47627 19.9048 9.87949C20.3082 10.2828 20.3108 10.9349 19.9091 11.3366L13.0076 18.2381C11.6056 19.6401 9.31794 19.6335 7.9079 18.2234C6.49786 16.8134 6.49121 14.5257 7.89324 13.1237L15.158 5.85893C17.3605 3.65638 20.9559 3.66583 23.172 5.88189C25.3879 8.09782 25.3974 11.6932 23.1948 13.8958L15.2037 21.8869C12.199 24.8916 7.29735 24.8776 4.27553 21.8558Z" fill="white"/>
</svg>
