<svg width="24" height="24" viewBox="0 0 24 24" fill="none" xmlns="http://www.w3.org/2000/svg">
<path d="M19.4248 7.52051L15.4873 6.48926L14.3623 2.87988H5.9248C5.30347 2.87988 4.7998 3.34157 4.7998 3.91113V19.4486C4.7998 20.0182 5.30347 20.4799 5.9248 20.4799H18.2998C18.9211 20.4799 19.4248 20.0182 19.4248 19.4486V7.52051Z" fill="#59C36A"/>
<path d="M19.4246 7.52051V19.4486C19.4246 20.0182 18.9209 20.4799 18.2996 20.4799H12.2021V2.87988H14.3621L15.4871 6.48926L19.4246 7.52051Z" fill="#00A66C"/>
<path d="M19.4248 7.52148H15.4873C14.8686 7.52148 14.3623 7.05742 14.3623 6.49023V2.88086C14.5086 2.88086 14.6548 2.93242 14.756 3.03558L19.256 7.16058C19.3686 7.25336 19.4248 7.38742 19.4248 7.52148Z" fill="#A0DEB0"/>
<path d="M9.22383 15.321C8.69716 15.321 8.26216 15.146 7.91883 14.796C7.5755 14.446 7.40383 14.0143 7.40383 13.501C7.40383 12.9843 7.5755 12.5526 7.91883 12.206C8.26216 11.856 8.69716 11.681 9.22383 11.681C9.5405 11.681 9.83216 11.756 10.0988 11.906C10.3688 12.0526 10.5788 12.2526 10.7288 12.506L10.1338 12.851C10.0472 12.6943 9.92383 12.5726 9.76383 12.486C9.60383 12.396 9.42383 12.351 9.22383 12.351C8.88383 12.351 8.60883 12.4576 8.39883 12.671C8.19216 12.8843 8.08883 13.161 8.08883 13.501C8.08883 13.8376 8.19216 14.1126 8.39883 14.326C8.60883 14.5393 8.88383 14.646 9.22383 14.646C9.42383 14.646 9.60383 14.6026 9.76383 14.516C9.92716 14.426 10.0505 14.3043 10.1338 14.151L10.7288 14.496C10.5788 14.7493 10.3705 14.951 10.1038 15.101C9.83716 15.2476 9.54383 15.321 9.22383 15.321ZM12.3477 15.321C12.001 15.321 11.7094 15.2443 11.4727 15.091C11.236 14.9343 11.0694 14.7226 10.9727 14.456L11.5627 14.111C11.6994 14.4676 11.9677 14.646 12.3677 14.646C12.561 14.646 12.7027 14.611 12.7927 14.541C12.8827 14.471 12.9277 14.3826 12.9277 14.276C12.9277 14.1526 12.8727 14.0576 12.7627 13.991C12.6527 13.921 12.456 13.846 12.1727 13.766C12.016 13.7193 11.8827 13.6726 11.7727 13.626C11.666 13.5793 11.5577 13.5176 11.4477 13.441C11.341 13.361 11.2594 13.261 11.2027 13.141C11.146 13.021 11.1177 12.881 11.1177 12.721C11.1177 12.4043 11.2294 12.1526 11.4527 11.966C11.6794 11.776 11.951 11.681 12.2677 11.681C12.551 11.681 12.7994 11.751 13.0127 11.891C13.2294 12.0276 13.3977 12.2193 13.5177 12.466L12.9377 12.801C12.7977 12.501 12.5744 12.351 12.2677 12.351C12.1244 12.351 12.011 12.3843 11.9277 12.451C11.8477 12.5143 11.8077 12.5976 11.8077 12.701C11.8077 12.811 11.8527 12.901 11.9427 12.971C12.036 13.0376 12.2127 13.111 12.4727 13.191C12.5794 13.2243 12.6594 13.251 12.7127 13.271C12.7694 13.2876 12.8444 13.316 12.9377 13.356C13.0344 13.3926 13.1077 13.4276 13.1577 13.461C13.211 13.4943 13.271 13.5393 13.3377 13.596C13.4044 13.6526 13.4544 13.711 13.4877 13.771C13.5244 13.831 13.5544 13.9043 13.5777 13.991C13.6044 14.0743 13.6177 14.166 13.6177 14.266C13.6177 14.5893 13.4994 14.846 13.2627 15.036C13.0294 15.226 12.7244 15.321 12.3477 15.321ZM14.8351 15.251L13.6601 11.751H14.4101L15.2651 14.441L16.1151 11.751H16.8701L15.6901 15.251H14.8351Z" fill="white"/>
</svg>
