<svg width="24" height="24" viewBox="0 0 24 24" fill="none" xmlns="http://www.w3.org/2000/svg">
<path d="M15.0268 12.9102V9.28921C15.8345 9.13024 16.5729 8.71578 17.1358 8.09923C17.7881 7.38461 18.1474 6.4591 18.1474 5.49318V3.23047C18.1474 2.55199 17.5954 2 16.917 2C16.2385 2 15.6865 2.55199 15.6865 3.23047V5.49318C15.6865 6.26964 15.0548 6.90137 14.2783 6.90137H13.6437C13.8561 6.59383 13.981 6.22133 13.981 5.82007V5.54789C13.981 4.49621 13.1254 3.64062 12.0737 3.64062C11.022 3.64062 10.1664 4.49621 10.1664 5.54789V5.82007C10.1664 6.22133 10.2913 6.59383 10.5038 6.90137H9.86913C9.09262 6.90137 8.46094 6.26964 8.46094 5.49318V3.23047C8.46094 2.55199 7.90895 2 7.23047 2C6.55199 2 6 2.55199 6 3.23047V5.49318C6 6.4591 6.3593 7.38461 7.01165 8.09923C7.57451 8.71578 8.31295 9.13024 9.12059 9.28921V12.9102C9.12059 13.1366 9.30426 13.3203 9.53075 13.3203H9.66249L8.62623 20.5391H7.97215C7.29367 20.5391 6.74169 21.0911 6.74169 21.7695V22.5898C6.74169 22.8163 6.92535 23 7.15184 23H16.9956C17.2221 23 17.4057 22.8163 17.4057 22.5898V21.7695C17.4057 21.0911 16.8538 20.5391 16.1753 20.5391H15.5212L14.4849 13.3203H14.6167C14.8432 13.3203 15.0268 13.1366 15.0268 12.9102ZM10.9868 5.54789C10.9868 4.94853 11.4744 4.46094 12.0737 4.46094C12.673 4.46094 13.1607 4.94853 13.1607 5.54789V5.82007C13.1607 6.38186 12.7323 6.84542 12.185 6.90137H11.9624C11.4151 6.84542 10.9868 6.38186 10.9868 5.82007V5.54789ZM16.1753 21.3594C16.4014 21.3594 16.5854 21.5434 16.5854 21.7695V22.1797H7.562V21.7695C7.562 21.5434 7.74599 21.3594 7.97215 21.3594H16.1753ZM11.4278 20.5391L12.0737 15.9646L12.7196 20.5391H11.4278ZM14.6921 20.5365H13.5477L12.8038 15.2681C12.752 14.9005 12.4449 14.6338 12.0737 14.6338C11.7025 14.6338 11.3955 14.9005 11.3436 15.268L10.5997 20.5365H9.45532L10.4912 13.3203H13.6562L14.6921 20.5365ZM14.2065 8.93537V12.5H13.3999V11.208C13.3999 10.9815 13.2162 10.7979 12.9897 10.7979C12.7632 10.7979 12.5796 10.9815 12.5796 11.208V12.5H9.9409V8.93537C9.9409 8.72431 9.7807 8.54765 9.57057 8.52714C8.00267 8.37416 6.82031 7.06982 6.82031 5.49314V3.23047C6.82031 3.00431 7.00431 2.82031 7.23047 2.82031C7.45663 2.82031 7.64063 3.00431 7.64063 3.23047V5.49318C7.64063 6.72196 8.64034 7.72168 9.86913 7.72168H14.2783C15.5071 7.72168 16.5068 6.72196 16.5068 5.49318V3.23047C16.5068 3.00431 16.6908 2.82031 16.917 2.82031C17.1431 2.82031 17.3271 3.00431 17.3271 3.23047V5.49318C17.3271 7.06986 16.1448 8.3742 14.5769 8.52719C14.3667 8.54765 14.2065 8.72431 14.2065 8.93537Z" fill="#9B9B9B"/>
</svg>
