<svg width="103" height="103" viewBox="0 0 103 103" fill="none" xmlns="http://www.w3.org/2000/svg">
<path d="M51.5 0C23.104 0 0 23.104 0 51.5C0 79.896 23.104 103 51.5 103C79.896 103 103 79.896 103 51.5C103 23.104 79.896 0 51.5 0ZM80.2832 37.9474L47.3697 70.6028C45.4336 72.5388 42.3358 72.6679 40.2707 70.7318L22.8459 54.8559C20.7807 52.9198 20.6516 49.693 22.4586 47.6278C24.3947 45.5627 27.6216 45.4336 29.6867 47.3697L43.4975 60.0188L72.9261 30.5902C74.9912 28.5251 78.218 28.5251 80.2832 30.5902C82.3484 32.6554 82.3484 35.8822 80.2832 37.9474Z" fill="white"/>
</svg>
