<svg width="43" height="28" viewBox="0 0 43 28" fill="none" xmlns="http://www.w3.org/2000/svg">
<g opacity="0.5">
<path d="M24.9854 6.9847L24.874 6.62287C24.7264 7.36076 24.3637 8.03845 23.8316 8.57051L23.7429 8.65919C23.75 8.63358 23.9924 7.81602 24.23 7.04019C24.3631 6.60532 24.3848 6.14397 24.2932 5.69851C24.2016 5.25305 23.9995 4.83775 23.7055 4.49076L23.6893 4.47179C23.4944 4.2414 23.3773 3.95521 23.355 3.65423L23.2896 2.77502L22.95 4.69894C22.7359 4.16355 22.6346 3.58973 22.6525 3.01339C22.6704 2.43705 22.807 1.8706 23.0539 1.3495L23.2896 0.851562C22.3947 1.05045 21.583 1.52045 20.965 2.1975C20.347 2.87454 19.9529 3.72569 19.8363 4.63492L19.6684 5.94378L19.3289 4.92515C18.878 5.65363 18.6179 6.48399 18.5728 7.33952C18.5276 8.19506 18.6987 9.04818 19.0704 9.82009L19.3289 10.3569L21.7863 14.0189L21.7868 14.0179L24.3082 11.828C24.7688 11.1195 25.0681 10.3185 25.1851 9.4816C25.3021 8.64472 25.234 7.79235 24.9854 6.9847Z" fill="#FFA6C2"/>
<path d="M19.8363 4.63467L19.6684 5.94353L19.3289 4.9249C18.878 5.65338 18.6179 6.48374 18.5728 7.33927C18.5276 8.1948 18.6987 9.04793 19.0704 9.81984L19.3289 10.3567L19.4447 10.5293L20.1607 10.4347C20.2283 10.4257 20.2929 10.4009 20.349 10.3622C20.4051 10.3235 20.4513 10.272 20.4837 10.212C20.5161 10.152 20.5339 10.0852 20.5355 10.017C20.5371 9.94887 20.5225 9.88129 20.493 9.81984C20.1376 9.08167 19.9653 8.26871 19.9907 7.44982C20.0161 6.63094 20.2385 5.83024 20.639 5.11554C20.7122 4.99023 20.8172 4.88653 20.9434 4.81497C21.0389 4.75809 21.1214 4.68188 21.1858 4.59124C21.2501 4.50059 21.2948 4.39751 21.317 4.28858C21.5296 3.27341 22.0896 2.36417 22.9006 1.71753C22.9457 1.5929 22.9968 1.47006 23.0538 1.34901L23.2895 0.851074C22.3946 1.04999 21.5829 1.52004 20.9649 2.19713C20.3469 2.87422 19.9528 3.72541 19.8363 4.63467Z" fill="#D68BA6"/>
<path d="M25.9391 12.4635L26.0054 11.0356L25.9893 11.0546C25.7814 11.2971 25.5235 11.4917 25.2334 11.6251C24.9432 11.7585 24.6276 11.8276 24.3082 11.8276C23.7805 11.9193 23.2842 12.1417 22.8647 12.4747C22.4452 12.8076 22.1158 13.2404 21.9067 13.7335L21.7867 14.0176L21.9309 19.7974L21.9319 19.7969L23.4029 20.6543L22.8229 19.3203C23.4932 19.0846 24.0687 18.6374 24.4628 18.0461L24.5344 17.9385L24.3357 18.0712C24.0281 18.276 23.6519 18.3504 23.2896 18.278C24.8878 16.7528 25.8367 14.6703 25.9391 12.4635Z" fill="#F498B0"/>
<path d="M21.7864 14.0175C22.0264 15.7109 22.217 17.3959 21.9306 19.7973L20.3471 20.5414L20.9129 19.2965C20.5569 19.1541 20.235 18.9381 19.9682 18.6627C19.7014 18.3873 19.4957 18.0587 19.3646 17.6984L19.3285 17.5988L20.7431 18.3343L20.6241 18.2281C19.3199 17.0611 18.5122 15.439 18.3668 13.695L18.4384 13.7785C18.6209 13.9914 18.8591 14.1493 19.1263 14.2344C19.3935 14.3196 19.6791 14.3287 19.9512 14.2608L19.9142 14.2261C19.2683 13.615 18.7607 12.8727 18.4255 12.0491C18.0903 11.2255 17.9352 10.3397 17.9708 9.45117L18.0528 9.63612C18.16 9.87721 18.3419 10.0774 18.5716 10.2072C18.8013 10.3369 19.0667 10.3892 19.3285 10.3565C20.4205 11.1359 21.229 12.2497 21.6318 13.5295L21.7859 14.0184L21.7864 14.0175Z" fill="#FF99B6"/>
<path d="M19.4319 10.4335C19.3974 10.4078 19.3635 10.3814 19.3285 10.3565C19.0667 10.3892 18.8013 10.3369 18.5716 10.2072C18.3419 10.0774 18.16 9.87721 18.0528 9.63612L17.9708 9.45117C17.9359 10.3232 18.0847 11.1928 18.4074 12.0036C18.7301 12.8145 19.2195 13.5485 19.844 14.1581C19.9652 14.1636 20.0856 14.1355 20.1919 14.0769C20.2981 14.0182 20.3861 13.9313 20.446 13.8258C20.5059 13.7202 20.5355 13.6002 20.5314 13.4789C20.5273 13.3576 20.4897 13.2398 20.4228 13.1385C19.8858 12.3266 19.5465 11.4002 19.4319 10.4335Z" fill="#D8809E"/>
<path d="M22.047 18.2284C20.8942 17.1966 20.1248 15.8047 19.8643 14.2796C19.6036 14.3287 19.3346 14.3083 19.0843 14.2203C18.8341 14.1324 18.6114 13.9801 18.4387 13.7788L18.3671 13.6953C18.5124 15.4393 19.3202 17.0614 20.6244 18.2284L20.7434 18.3346L19.3288 17.5991L19.3648 17.6987C19.496 18.059 19.7017 18.3876 19.9685 18.663C20.2353 18.9384 20.5572 19.1544 20.9132 19.2968L20.3474 20.5417L21.9309 19.7976C21.958 19.57 21.981 19.3487 21.9998 19.1337L22.058 18.2382L22.047 18.2284Z" fill="#D8809E"/>
<path d="M17.2596 14.6499C17.2013 14.6498 17.1451 14.6283 17.1017 14.5894C17.0583 14.5506 17.0307 14.4971 17.0242 14.4392C17.0147 14.3548 17.0068 14.2693 17.0005 14.1852C16.9964 14.1228 17.0171 14.0614 17.0581 14.0143C17.099 13.9671 17.1569 13.938 17.2192 13.9333C17.2815 13.9286 17.3431 13.9486 17.3907 13.9891C17.4383 14.0296 17.468 14.0872 17.4734 14.1494C17.4793 14.2279 17.4868 14.3077 17.4956 14.3865C17.4991 14.4175 17.4964 14.4488 17.4877 14.4787C17.4791 14.5086 17.4647 14.5365 17.4452 14.5609C17.4258 14.5852 17.4018 14.6055 17.3745 14.6205C17.3472 14.6355 17.3173 14.6451 17.2863 14.6485C17.2774 14.6495 17.2685 14.6499 17.2596 14.6499Z" fill="#D4E1F4"/>
<path d="M18.2144 17.4446C18.1736 17.4447 18.1336 17.4343 18.098 17.4143C18.0625 17.3944 18.0327 17.3656 18.0116 17.3308C17.6579 16.7495 17.3899 16.1202 17.2158 15.4624C17.2078 15.4323 17.2059 15.4009 17.21 15.37C17.2142 15.3392 17.2244 15.3094 17.24 15.2825C17.2557 15.2556 17.2765 15.232 17.3012 15.2131C17.326 15.1942 17.3542 15.1804 17.3843 15.1724C17.4144 15.1645 17.4458 15.1625 17.4767 15.1667C17.5076 15.1708 17.5373 15.181 17.5642 15.1967C17.5911 15.2123 17.6147 15.2331 17.6336 15.2579C17.6525 15.2827 17.6663 15.3109 17.6743 15.341C17.8367 15.9547 18.0867 16.5419 18.4167 17.0843C18.4386 17.1202 18.4505 17.1613 18.4512 17.2034C18.452 17.2454 18.4415 17.2869 18.4209 17.3236C18.4003 17.3603 18.3703 17.3909 18.334 17.4121C18.2977 17.4334 18.2564 17.4446 18.2144 17.4447V17.4446Z" fill="#D4E1F4"/>
<path d="M21.1973 23.8509C21.1612 23.851 21.1256 23.8427 21.0932 23.8269C21.0607 23.811 21.0323 23.788 21.0101 23.7595C20.9879 23.731 20.9725 23.6978 20.9651 23.6625C20.9577 23.6272 20.9585 23.5906 20.9673 23.5556C22.2137 18.6327 21.86 16.1831 21.4856 13.5896C21.1459 11.237 20.7948 8.80418 21.4942 4.38152C21.5044 4.31977 21.5386 4.26455 21.5894 4.22793C21.6401 4.19131 21.7033 4.17624 21.7651 4.18602C21.827 4.19579 21.8824 4.22962 21.9194 4.28012C21.9564 4.33062 21.9719 4.3937 21.9626 4.45559C21.2744 8.80741 21.6204 11.2041 21.955 13.5219C22.3362 16.1633 22.6964 18.658 21.427 23.672C21.4141 23.7231 21.3845 23.7685 21.3429 23.8009C21.3013 23.8333 21.2501 23.8509 21.1973 23.8509Z" fill="#E5E5E5"/>
<path d="M15.7735 6.08058L15.5373 5.78474C15.6704 6.52537 15.5812 7.28882 15.281 7.97885L15.231 8.09386C15.2282 8.06742 15.1542 7.21792 15.091 6.40899C15.0555 5.95559 14.9067 5.51835 14.6582 5.13745C14.4097 4.75654 14.0695 4.44417 13.6689 4.22902L13.6469 4.21728C13.3811 4.07435 13.1673 3.85094 13.0363 3.57906L12.6532 2.78497L13.0422 4.69952C12.6468 4.2798 12.3424 3.78299 12.1478 3.24018C11.9533 2.69737 11.8729 2.12025 11.9116 1.54494L11.9485 0.995273C11.1888 1.50819 10.6057 2.24292 10.2787 3.09931C9.95179 3.9557 9.8969 4.89208 10.1215 5.7808L10.4449 7.06015L9.75574 6.23676C9.60312 7.07978 9.66541 7.94767 9.93684 8.76027C10.2083 9.57286 10.6801 10.3039 11.3087 10.886L11.7459 11.2908L15.3742 13.7977L15.3742 13.7967L16.918 10.8352C17.0869 10.0072 17.072 9.15223 16.8742 8.33067C16.6765 7.5091 16.3007 6.74099 15.7735 6.08058Z" fill="#FFA6C2"/>
<path d="M10.1215 5.78054L10.4449 7.05989L9.75571 6.23649C9.60309 7.07952 9.66537 7.94741 9.9368 8.76C10.2082 9.57259 10.6801 10.3037 11.3087 10.8857L11.7459 11.2905L11.9169 11.4087L12.5485 11.0583C12.6081 11.0252 12.659 10.9785 12.6971 10.9219C12.7351 10.8653 12.7592 10.8005 12.7674 10.7328C12.7756 10.6651 12.7676 10.5965 12.7442 10.5324C12.7207 10.4684 12.6824 10.4109 12.6323 10.3645C12.0312 9.8079 11.573 9.1146 11.2966 8.34334C11.0203 7.57209 10.9338 6.74559 11.0446 5.93383C11.0668 5.79045 11.1264 5.65549 11.2177 5.54267C11.2857 5.45475 11.3346 5.35359 11.3613 5.24567C11.3879 5.13776 11.3917 5.02546 11.3725 4.91597C11.1983 3.8935 11.3863 2.84231 11.9039 1.94352C11.9002 1.81103 11.9027 1.67802 11.9114 1.54448L11.9483 0.994819C11.1885 1.50777 10.6055 2.24255 10.2786 3.09897C9.95165 3.9554 9.8968 4.8918 10.1215 5.78054Z" fill="#D68BA6"/>
<path d="M18.6683 10.8292L18.2069 9.47627L18.1989 9.49983C18.0943 9.8016 17.9257 10.0772 17.7045 10.3076C17.4834 10.5381 17.2151 10.718 16.9179 10.835C16.4605 11.1136 16.0802 11.5025 15.8119 11.966C15.5435 12.4295 15.3956 12.9529 15.3817 13.4883L15.3742 13.7965L17.626 19.1216L17.6267 19.1208L19.3096 19.3796L18.2812 18.3509C18.8185 17.8859 19.1901 17.259 19.3402 16.5644L19.3673 16.438L19.2311 16.6344C19.02 16.9376 18.6971 17.1447 18.3335 17.2101C19.2617 15.2054 19.3817 12.92 18.6683 10.8292Z" fill="#F498B0"/>
<path d="M15.374 13.7967C16.2177 15.2845 17.0124 16.7824 17.6258 19.1218L16.4251 20.3943L16.4954 19.0287C16.112 19.0266 15.7333 18.9435 15.3842 18.7851C15.035 18.6266 14.7232 18.3962 14.4692 18.109L14.3992 18.0295L15.9849 18.1956L15.8352 18.1404C14.1942 17.5324 12.8482 16.319 12.074 14.7496L12.1712 14.801C12.419 14.9322 12.6985 14.9918 12.9783 14.9732C13.2581 14.9546 13.5272 14.8584 13.7555 14.6955L13.7084 14.6768C12.8835 14.3448 12.1392 13.8401 11.5255 13.1966C10.9119 12.5531 10.4431 11.7857 10.1506 10.9459L10.2947 11.088C10.4828 11.273 10.7254 11.3927 10.9866 11.4292C11.2479 11.4657 11.514 11.4172 11.7456 11.2908C13.0473 11.616 14.2077 12.3561 15.0513 13.3993L15.3739 13.7977L15.374 13.7967Z" fill="#FF99B6"/>
<path d="M11.8701 11.3246C11.8286 11.3133 11.7873 11.3011 11.7456 11.2908C11.514 11.4172 11.2479 11.4657 10.9866 11.4292C10.7253 11.3927 10.4827 11.273 10.2947 11.088L10.1506 10.9459C10.4377 11.7701 10.8947 12.5247 11.492 13.1609C12.0894 13.7971 12.8137 14.3008 13.6181 14.6392C13.733 14.6 13.8347 14.5297 13.9121 14.4362C13.9895 14.3427 14.0395 14.2296 14.0566 14.1094C14.0736 13.9893 14.0571 13.8667 14.0089 13.7554C13.9606 13.644 13.8825 13.5482 13.7831 13.4784C12.986 12.9197 12.3308 12.1821 11.8701 11.3246Z" fill="#D8809E"/>
<path d="M17.1592 17.6191C15.7084 17.0814 14.4826 16.0682 13.6814 14.7446C13.4568 14.8858 13.199 14.9653 12.934 14.9752C12.6689 14.9851 12.4059 14.925 12.1714 14.8009L12.0742 14.7495C12.8485 16.319 14.1944 17.5324 15.8354 18.1403L15.9851 18.1956L14.3994 18.0295L14.4694 18.1089C14.7235 18.3962 15.0352 18.6265 15.3844 18.785C15.7335 18.9435 16.1122 19.0265 16.4956 19.0286L16.4253 20.3942L17.626 19.1217C17.5679 18.9 17.5082 18.6857 17.4469 18.4787L17.173 17.6242L17.1592 17.6191Z" fill="#D8809E"/>
<path d="M11.3935 16.0435C11.3392 16.0648 11.2791 16.0653 11.2244 16.0451C11.1698 16.0248 11.1245 15.9851 11.0973 15.9336C11.0575 15.8586 11.0188 15.782 10.9822 15.706C10.9555 15.6495 10.9523 15.5848 10.9731 15.5259C10.9939 15.467 11.0372 15.4187 11.0934 15.3915C11.1496 15.3643 11.2143 15.3604 11.2734 15.3806C11.3325 15.4008 11.3812 15.4435 11.409 15.4995C11.4434 15.5704 11.4795 15.6418 11.5166 15.712C11.5312 15.7395 11.5402 15.7696 11.5431 15.8006C11.546 15.8316 11.5428 15.8629 11.5336 15.8926C11.5244 15.9224 11.5095 15.9501 11.4896 15.974C11.4698 15.998 11.4454 16.0179 11.4179 16.0324C11.41 16.0366 11.4018 16.0403 11.3935 16.0435Z" fill="#D4E1F4"/>
<path d="M13.3058 18.2943C13.2679 18.3092 13.2268 18.3142 13.1865 18.3087C13.1461 18.3031 13.1079 18.2873 13.0754 18.2627C12.5334 17.8513 12.0534 17.364 11.6504 16.8157C11.632 16.7906 11.6186 16.7621 11.6112 16.7319C11.6038 16.7017 11.6023 16.6703 11.607 16.6395C11.6117 16.6087 11.6225 16.5791 11.6386 16.5525C11.6547 16.5258 11.6759 16.5026 11.701 16.4842C11.7261 16.4658 11.7546 16.4524 11.7848 16.445C11.8151 16.4376 11.8465 16.4361 11.8773 16.4408C11.908 16.4455 11.9376 16.4563 11.9642 16.4724C11.9909 16.4885 12.0141 16.5097 12.0325 16.5348C12.4085 17.0464 12.8563 17.501 13.3621 17.8848C13.3956 17.9102 13.4217 17.9441 13.4378 17.983C13.4539 18.0219 13.4594 18.0643 13.4537 18.106C13.448 18.1477 13.4313 18.1871 13.4053 18.2202C13.3793 18.2533 13.345 18.2789 13.3058 18.2943L13.3058 18.2943Z" fill="#D4E1F4"/>
<path d="M18.4287 23.1619C18.3951 23.1752 18.359 23.1806 18.323 23.1777C18.287 23.1749 18.2521 23.1638 18.221 23.1455C18.1899 23.1271 18.1635 23.1019 18.1436 23.0717C18.1238 23.0415 18.1111 23.0072 18.1065 22.9714C17.4625 17.9342 16.2359 15.7845 14.9373 13.5085C13.7592 11.444 12.5411 9.30903 11.5715 4.93767C11.5583 4.87646 11.57 4.81255 11.6038 4.75988C11.6376 4.7072 11.6909 4.67003 11.752 4.65648C11.8131 4.64292 11.8771 4.65408 11.93 4.68752C11.9829 4.72096 12.0204 4.77396 12.0344 4.83497C12.9886 9.13631 14.1886 11.2396 15.3492 13.2736C16.6717 15.5916 17.9209 17.7809 18.5769 22.9113C18.5836 22.9636 18.5726 23.0166 18.5458 23.062C18.519 23.1074 18.4778 23.1426 18.4287 23.1619Z" fill="#E5E5E5"/>
<path d="M25.1258 6.08205L25.362 5.78621C25.2289 6.52684 25.3181 7.29029 25.6183 7.98032L25.6683 8.09532C25.6711 8.06889 25.7451 7.21939 25.8083 6.41046C25.8438 5.95705 25.9926 5.51982 26.2411 5.13891C26.4896 4.75801 26.8298 4.44564 27.2304 4.23049L27.2524 4.21874C27.5182 4.07581 27.732 3.8524 27.863 3.58053L28.246 2.78644L27.8571 4.70098C28.2524 4.28126 28.5569 3.78445 28.7515 3.24164C28.946 2.69883 29.0264 2.12171 28.9876 1.5464L28.9508 0.996738C29.7105 1.50966 30.2936 2.24439 30.6206 3.10078C30.9475 3.95717 31.0024 4.89354 30.7778 5.78227L30.4544 7.06162L31.1436 6.23823C31.2962 7.08125 31.2339 7.94914 30.9625 8.76173C30.691 9.57432 30.2192 10.3054 29.5906 10.8875L29.1534 11.2923L25.5251 13.7992L25.525 13.7981L23.9813 10.8366C23.8124 10.0087 23.8273 9.15369 24.0251 8.33213C24.2228 7.51057 24.5986 6.74245 25.1258 6.08205Z" fill="#FFA6C2"/>
<path d="M30.7778 5.782L30.4544 7.06135L31.1436 6.23796C31.2962 7.08098 31.2339 7.94887 30.9625 8.76146C30.6911 9.57405 30.2192 10.3051 29.5906 10.8872L29.1534 11.292L28.9824 11.4102L28.3508 11.0598C28.2912 11.0267 28.2403 10.9799 28.2022 10.9234C28.1642 10.8668 28.14 10.802 28.1319 10.7343C28.1237 10.6666 28.1317 10.5979 28.1551 10.5339C28.1786 10.4699 28.2169 10.4123 28.2669 10.366C28.8681 9.80936 29.3263 9.11607 29.6027 8.34481C29.879 7.57355 29.9655 6.74705 29.8547 5.9353C29.8325 5.79192 29.7728 5.65696 29.6816 5.54414C29.6136 5.45622 29.5647 5.35506 29.538 5.24714C29.5114 5.13922 29.5075 5.02692 29.5268 4.91744C29.701 3.89497 29.513 2.84378 28.9954 1.94498C28.9991 1.81249 28.9966 1.67948 28.9879 1.54595L28.951 0.996284C29.7107 1.50924 30.2938 2.24401 30.6207 3.10044C30.9476 3.95686 31.0025 4.89327 30.7778 5.782Z" fill="#D68BA6"/>
<path d="M22.231 10.8307L22.6923 9.47774L22.7004 9.5013C22.805 9.80307 22.9736 10.0786 23.1947 10.3091C23.4159 10.5396 23.6842 10.7195 23.9814 10.8365C24.4388 11.1151 24.8191 11.5039 25.0874 11.9674C25.3558 12.431 25.5037 12.9543 25.5176 13.4897L25.5251 13.798L23.2733 19.1231L23.2726 19.1223L21.5897 19.3811L22.6181 18.3524C22.0808 17.8874 21.7092 17.2604 21.5591 16.5659L21.532 16.4395L21.6682 16.6359C21.8793 16.9391 22.2022 17.1461 22.5658 17.2115C21.6376 15.2068 21.5176 12.9215 22.231 10.8307Z" fill="#F498B0"/>
<path d="M25.5253 13.7981C24.6816 15.2859 23.8869 16.7838 23.2735 19.1232L24.4742 20.3957L24.4039 19.0302C24.7873 19.028 25.166 18.945 25.5151 18.7865C25.8643 18.628 26.1761 18.3977 26.4301 18.1105L26.5001 18.031L24.9144 18.1971L25.0641 18.1418C26.7051 17.5339 28.0511 16.3205 28.8253 14.751L28.7281 14.8025C28.4803 14.9337 28.2008 14.9933 27.921 14.9747C27.6412 14.956 27.3721 14.8599 27.1438 14.6969L27.1909 14.6783C28.0158 14.3463 28.7601 13.8416 29.3738 13.1981C29.9874 12.5545 30.4562 11.7871 30.7487 10.9474L30.6046 11.0894C30.4165 11.2745 30.1739 11.3941 29.9126 11.4307C29.6514 11.4672 29.3853 11.4187 29.1537 11.2923C27.852 11.6174 26.6916 12.3576 25.848 13.4007L25.5254 13.7992L25.5253 13.7981Z" fill="#FF99B6"/>
<path d="M29.0292 11.3261C29.0707 11.3148 29.112 11.3026 29.1537 11.2923C29.3853 11.4187 29.6514 11.4672 29.9127 11.4307C30.174 11.3941 30.4165 11.2745 30.6046 11.0894L30.7487 10.9474C30.4616 11.7715 30.0046 12.5261 29.4072 13.1624C28.8099 13.7986 28.0856 14.3023 27.2812 14.6407C27.1663 14.6014 27.0646 14.5312 26.9872 14.4376C26.9098 14.3441 26.8598 14.2311 26.8427 14.1109C26.8257 13.9907 26.8422 13.8682 26.8904 13.7568C26.9387 13.6455 27.0168 13.5496 27.1162 13.4799C27.9133 12.9212 28.5685 12.1836 29.0292 11.3261Z" fill="#D8809E"/>
<path d="M23.7401 17.6205C25.1909 17.0829 26.4167 16.0697 27.2179 14.7461C27.4425 14.8873 27.7002 14.9668 27.9653 14.9767C28.2304 14.9866 28.4934 14.9265 28.7279 14.8024L28.8251 14.751C28.0508 16.3205 26.7049 17.5338 25.0638 18.1418L24.9142 18.197L26.4999 18.031L26.4299 18.1104C26.1758 18.3976 25.8641 18.628 25.5149 18.7865C25.1658 18.945 24.7871 19.028 24.4037 19.0301L24.474 20.3957L23.2733 19.1232C23.3314 18.9015 23.3911 18.6871 23.4524 18.4802L23.7263 17.6256L23.7401 17.6205Z" fill="#D8809E"/>
<path d="M29.5058 16.045C29.56 16.0662 29.6202 16.0668 29.6749 16.0466C29.7295 16.0263 29.7748 15.9866 29.802 15.9351C29.8418 15.86 29.8805 15.7834 29.9171 15.7075C29.9438 15.651 29.947 15.5862 29.9262 15.5273C29.9053 15.4685 29.8621 15.4202 29.8059 15.393C29.7497 15.3658 29.685 15.3618 29.6259 15.3821C29.5668 15.4023 29.518 15.445 29.4903 15.5009C29.4559 15.5718 29.4198 15.6433 29.3827 15.7134C29.3681 15.7409 29.3591 15.7711 29.3562 15.8021C29.3533 15.8331 29.3565 15.8643 29.3657 15.8941C29.3749 15.9239 29.3898 15.9515 29.4096 15.9755C29.4295 15.9995 29.4539 16.0193 29.4814 16.0339C29.4893 16.038 29.4975 16.0417 29.5058 16.045Z" fill="#D4E1F4"/>
<path d="M27.5935 18.2957C27.6314 18.3107 27.6725 18.3157 27.7128 18.3101C27.7532 18.3046 27.7914 18.2888 27.8239 18.2641C28.3659 17.8528 28.8459 17.3655 29.2489 16.8172C29.2673 16.7921 29.2807 16.7636 29.2881 16.7334C29.2955 16.7031 29.2969 16.6717 29.2922 16.6409C29.2875 16.6102 29.2768 16.5806 29.2607 16.554C29.2446 16.5273 29.2234 16.5041 29.1983 16.4857C29.1732 16.4672 29.1447 16.4539 29.1145 16.4465C29.0842 16.439 29.0528 16.4376 29.022 16.4423C28.9913 16.447 28.9617 16.4577 28.9351 16.4739C28.9084 16.49 28.8852 16.5112 28.8668 16.5363C28.4908 17.0478 28.043 17.5025 27.5372 17.8863C27.5037 17.9117 27.4776 17.9456 27.4614 17.9845C27.4453 18.0233 27.4399 18.0658 27.4456 18.1075C27.4513 18.1491 27.468 18.1886 27.494 18.2216C27.52 18.2547 27.5543 18.2803 27.5935 18.2958L27.5935 18.2957Z" fill="#D4E1F4"/>
<path d="M22.4706 23.1634C22.5041 23.1767 22.5403 23.1821 22.5763 23.1792C22.6123 23.1764 22.6472 23.1653 22.6783 23.1469C22.7093 23.1286 22.7358 23.1033 22.7557 23.0732C22.7755 23.043 22.7882 23.0087 22.7928 22.9729C23.4367 17.9357 24.6634 15.786 25.962 13.51C27.1401 11.4454 28.3581 9.31049 29.3278 4.93913C29.3409 4.87793 29.3293 4.81402 29.2955 4.76134C29.2617 4.70866 29.2084 4.6715 29.1473 4.65794C29.0862 4.64439 29.0222 4.65554 28.9693 4.68898C28.9164 4.72242 28.8789 4.77543 28.8649 4.83644C27.9107 9.13778 26.7107 11.241 25.5501 13.275C24.2276 15.5931 22.9784 17.7823 22.3224 22.9128C22.3157 22.9651 22.3267 23.0181 22.3535 23.0635C22.3803 23.1089 22.4215 23.144 22.4706 23.1634Z" fill="#E5E5E5"/>
<path d="M10.8426 10.5984L10.4947 10.4491C10.9616 11.0392 11.2434 11.7543 11.3045 12.5043L11.3147 12.6293C11.2998 12.6073 10.8335 11.8934 10.3959 11.2101C10.1506 10.8271 9.81305 10.5119 9.41418 10.2934C9.01532 10.0749 8.56795 9.96009 8.11316 9.95956L8.08827 9.95957C7.78645 9.95905 7.49256 9.86299 7.24869 9.68518L6.53617 9.16593L7.78283 10.6701C7.23615 10.4868 6.73321 10.1925 6.30548 9.80581C5.87775 9.41911 5.53445 8.94829 5.29705 8.42281L5.07008 7.92084C4.64243 8.73165 4.47522 9.65461 4.59125 10.5639C4.70727 11.4732 5.10089 12.3246 5.71844 13.0021L6.60741 13.9773L5.61119 13.5767C5.87459 14.3919 6.33918 15.1276 6.96204 15.7159C7.5849 16.3041 8.34596 16.7259 9.17491 16.9423L9.75138 17.0928L14.1333 17.5901L14.1329 17.5892L14.0959 14.2497C13.854 13.44 13.4372 12.6933 12.8751 12.0624C12.3129 11.4315 11.6191 10.9317 10.8426 10.5984Z" fill="#FFA6C2"/>
<path d="M5.71838 13.0022L6.60734 13.9774L5.61113 13.5768C5.87453 14.3921 6.33911 15.1278 6.96198 15.716C7.58484 16.3042 8.34589 16.726 9.17484 16.9424L9.75132 17.0929L9.95786 17.1164L10.3493 16.5093C10.3862 16.452 10.409 16.3868 10.4159 16.3189C10.4227 16.2511 10.4134 16.1826 10.3886 16.119C10.3639 16.0555 10.3245 15.9987 10.2735 15.9534C10.2226 15.908 10.1617 15.8754 10.0957 15.8581C9.30299 15.6512 8.57181 15.2563 7.9641 14.7068C7.35639 14.1573 6.89004 13.4695 6.60455 12.7016C6.55637 12.5648 6.54529 12.4176 6.57244 12.2751C6.5909 12.1655 6.58627 12.0532 6.55883 11.9455C6.5314 11.8377 6.48176 11.7369 6.41311 11.6495C5.77693 10.8303 5.4464 9.81492 5.47845 8.77822C5.41266 8.66316 5.3521 8.54471 5.29675 8.42288L5.06978 7.92091C4.64214 8.73175 4.47496 9.65474 4.59103 10.5641C4.7071 11.4734 5.10077 12.3248 5.71838 13.0022Z" fill="#D68BA6"/>
<path d="M15.6361 13.4185L14.5907 12.4436L14.5947 12.4682C14.645 12.7836 14.6264 13.1061 14.5402 13.4137C14.4541 13.7212 14.3024 14.0065 14.0957 14.2499C13.824 14.7115 13.6723 15.2338 13.6545 15.7691C13.6367 16.3043 13.7534 16.8355 13.9939 17.3141L14.1327 17.5894L18.6316 21.221L18.6318 21.2199L20.2376 20.6537L18.8454 20.2322C19.0995 19.5687 19.1312 18.8405 18.9356 18.1575L18.8999 18.0332L18.8725 18.2706C18.8295 18.6376 18.6427 18.9725 18.3529 19.2018C18.2249 16.9964 17.2519 14.925 15.6361 13.4185Z" fill="#F498B0"/>
<path d="M14.1326 17.5896C15.5787 18.5029 16.9864 19.4483 18.6314 21.2212L18.1736 22.9097L17.591 21.6727C17.2519 21.8518 16.8789 21.9574 16.4963 21.9825C16.1137 22.0076 15.7301 21.9516 15.3706 21.8184L15.2713 21.7814L16.7477 21.1792L16.5897 21.2012C14.8559 21.4399 13.0967 21.0055 11.6732 19.9874L11.7832 19.9868C12.0636 19.9855 12.3382 19.9062 12.576 19.7577C12.8139 19.6092 13.0058 19.3973 13.1301 19.146L13.0797 19.1518C12.1958 19.2485 11.3014 19.1549 10.4567 18.8772C9.61192 18.5996 8.83639 18.1443 8.18218 17.5421L8.37626 17.5993C8.62938 17.6737 8.89973 17.6646 9.14732 17.5735C9.39491 17.4824 9.6066 17.314 9.75108 17.0932C11.0521 16.7655 12.4244 16.8702 13.6606 17.3916L14.133 17.5906L14.1326 17.5896Z" fill="#FF99B6"/>
<path d="M9.87676 17.0643C9.83485 17.0739 9.79273 17.0827 9.75107 17.0933C9.60658 17.314 9.39489 17.4824 9.1473 17.5735C8.89971 17.6647 8.62937 17.6737 8.37625 17.5993L8.18217 17.5421C8.82427 18.1331 9.58338 18.5827 10.4103 18.8616C11.2372 19.1405 12.1135 19.2426 12.9824 19.1612C13.0651 19.0724 13.1217 18.9624 13.1457 18.8435C13.1698 18.7245 13.1605 18.6012 13.1189 18.4872C13.0772 18.3732 13.0048 18.273 12.9097 18.1976C12.8146 18.1222 12.7005 18.0746 12.58 18.06C11.6135 17.9438 10.6877 17.6027 9.87676 17.0643Z" fill="#D8809E"/>
<path d="M17.5108 20.1167C15.9781 20.3275 14.4191 20.013 13.088 19.2243C12.9567 19.4548 12.767 19.6466 12.5379 19.7804C12.3089 19.9143 12.0487 19.9854 11.7834 19.9868L11.6735 19.9873C13.0969 21.0054 14.8562 21.4398 16.5899 21.2011L16.7479 21.1791L15.2716 21.7813L15.3708 21.8183C15.7303 21.9515 16.1139 22.0075 16.4965 21.9824C16.8792 21.9573 17.2522 21.8517 17.5912 21.6726L18.1738 22.9096L18.6317 21.2211C18.4757 21.053 18.3219 20.8923 18.1702 20.7388L17.5254 20.1147L17.5108 20.1167Z" fill="#D8809E"/>
<path d="M11.684 21.4491C11.6462 21.4935 11.5934 21.5224 11.5357 21.5303C11.478 21.5382 11.4193 21.5246 11.371 21.4921C11.3005 21.4446 11.2302 21.3954 11.1621 21.3457C11.1119 21.3085 11.0785 21.2529 11.0691 21.1912C11.0596 21.1294 11.0749 21.0665 11.1117 21.016C11.1484 20.9654 11.2036 20.9314 11.2652 20.9214C11.3269 20.9113 11.39 20.926 11.4409 20.9622C11.5046 21.0084 11.5702 21.0544 11.636 21.0987C11.6619 21.1161 11.684 21.1384 11.7012 21.1643C11.7184 21.1903 11.7303 21.2194 11.7363 21.2499C11.7423 21.2805 11.7422 21.3119 11.736 21.3425C11.7298 21.373 11.7177 21.402 11.7003 21.4278C11.6952 21.4352 11.6898 21.4423 11.684 21.4491Z" fill="#D4E1F4"/>
<path d="M14.4325 22.5306C14.4062 22.5617 14.3723 22.5854 14.3341 22.5996C14.2959 22.6138 14.2547 22.6179 14.2145 22.6114C13.5424 22.5047 12.8893 22.3017 12.2752 22.0085C12.2471 21.9951 12.2219 21.9763 12.2011 21.9532C12.1802 21.93 12.1642 21.903 12.1538 21.8736C12.1434 21.8443 12.1389 21.8132 12.1405 21.7821C12.1422 21.751 12.1499 21.7205 12.1633 21.6924C12.1767 21.6643 12.1956 21.6391 12.2187 21.6183C12.2419 21.5974 12.2689 21.5814 12.2982 21.571C12.3276 21.5606 12.3587 21.5561 12.3898 21.5577C12.4209 21.5594 12.4514 21.5671 12.4795 21.5805C13.0524 21.854 13.6618 22.0435 14.2888 22.1431C14.3304 22.1496 14.3694 22.1672 14.402 22.1938C14.4345 22.2205 14.4594 22.2553 14.474 22.2948C14.4886 22.3342 14.4925 22.3769 14.4852 22.4183C14.4779 22.4597 14.4598 22.4985 14.4325 22.5306L14.4325 22.5306Z" fill="#D4E1F4"/>
<path d="M21.2465 24.404C21.2231 24.4316 21.1938 24.4534 21.1607 24.4679C21.1276 24.4824 21.0917 24.4891 21.0556 24.4876C21.0195 24.486 20.9842 24.4763 20.9525 24.4591C20.9208 24.4418 20.8934 24.4176 20.8725 24.3882C17.927 20.2515 15.8308 18.9354 13.6117 17.5419C11.5986 16.2779 9.51695 14.9708 6.59864 11.5749C6.55818 11.5271 6.53825 11.4653 6.54319 11.4029C6.54814 11.3405 6.57755 11.2826 6.62503 11.2418C6.6725 11.201 6.73418 11.1806 6.79661 11.1851C6.85905 11.1896 6.91717 11.2186 6.9583 11.2658C9.82985 14.6074 11.8806 15.8951 13.8639 17.1404C16.124 18.5596 18.2587 19.8999 21.2587 24.1132C21.2893 24.1561 21.3047 24.208 21.3025 24.2607C21.3003 24.3134 21.2806 24.3638 21.2465 24.404Z" fill="#E5E5E5"/>
<path d="M32.5136 10.5984L32.8615 10.4491C32.3946 11.0392 32.1128 11.7543 32.0517 12.5043L32.0415 12.6293C32.0564 12.6073 32.5227 11.8934 32.9603 11.2101C33.2056 10.8271 33.5432 10.5119 33.942 10.2934C34.3409 10.0749 34.7882 9.96009 35.243 9.95956L35.2679 9.95957C35.5697 9.95905 35.8636 9.86299 36.1075 9.68518L36.82 9.16593L35.5734 10.6701C36.12 10.4868 36.623 10.1925 37.0507 9.80581C37.4784 9.41911 37.8218 8.94829 38.0592 8.42281L38.2861 7.92084C38.7138 8.73165 38.881 9.65461 38.765 10.5639C38.6489 11.4732 38.2553 12.3246 37.6378 13.0021L36.7488 13.9773L37.745 13.5767C37.4816 14.3919 37.017 15.1276 36.3942 15.7159C35.7713 16.3041 35.0102 16.7259 34.1813 16.9423L33.6048 17.0928L29.2229 17.5901L29.2233 17.5892L29.2603 14.2497C29.5022 13.44 29.919 12.6933 30.4811 12.0624C31.0433 11.4315 31.7371 10.9317 32.5136 10.5984Z" fill="#FFA6C2"/>
<path d="M37.6378 13.0022L36.7489 13.9774L37.7451 13.5768C37.4817 14.3921 37.0171 15.1278 36.3942 15.716C35.7714 16.3042 35.0103 16.726 34.1814 16.9424L33.6049 17.0929L33.3983 17.1164L33.0069 16.5093C32.97 16.452 32.9472 16.3868 32.9403 16.3189C32.9335 16.2511 32.9428 16.1826 32.9676 16.119C32.9923 16.0555 33.0317 15.9987 33.0827 15.9534C33.1336 15.908 33.1945 15.8754 33.2605 15.8581C34.0532 15.6512 34.7844 15.2563 35.3921 14.7068C35.9998 14.1573 36.4662 13.4695 36.7517 12.7016C36.7998 12.5648 36.8109 12.4176 36.7838 12.2751C36.7653 12.1655 36.7699 12.0532 36.7974 11.9455C36.8248 11.8377 36.8744 11.7369 36.9431 11.6495C37.5793 10.8303 37.9098 9.81492 37.8777 8.77822C37.9435 8.66316 38.0041 8.54471 38.0595 8.42288L38.2864 7.92091C38.7141 8.73175 38.8812 9.65474 38.7652 10.5641C38.6491 11.4734 38.2554 12.3248 37.6378 13.0022Z" fill="#D68BA6"/>
<path d="M27.7201 13.4185L28.7655 12.4436L28.7615 12.4682C28.7112 12.7836 28.7298 13.1061 28.816 13.4137C28.9021 13.7212 29.0538 14.0065 29.2605 14.2499C29.5322 14.7115 29.6839 15.2338 29.7017 15.7691C29.7195 16.3043 29.6028 16.8355 29.3623 17.3141L29.2235 17.5894L24.7246 21.221L24.7244 21.2199L23.1186 20.6537L24.5108 20.2322C24.2567 19.5687 24.225 18.8405 24.4206 18.1575L24.4563 18.0332L24.4837 18.2706C24.5267 18.6376 24.7136 18.9725 25.0033 19.2018C25.1313 16.9964 26.1043 14.925 27.7201 13.4185Z" fill="#F498B0"/>
<path d="M29.2236 17.5896C27.7775 18.5029 26.3698 19.4483 24.7248 21.2212L25.1826 22.9097L25.7652 21.6727C26.1043 21.8518 26.4773 21.9574 26.8599 21.9825C27.2425 22.0076 27.6261 21.9516 27.9856 21.8184L28.0849 21.7814L26.6085 21.1792L26.7665 21.2012C28.5003 21.4399 30.2595 21.0055 31.683 19.9874L31.573 19.9868C31.2926 19.9855 31.018 19.9062 30.7802 19.7577C30.5423 19.6092 30.3504 19.3973 30.2261 19.146L30.2765 19.1518C31.1604 19.2485 32.0548 19.1549 32.8995 18.8772C33.7443 18.5996 34.5198 18.1443 35.174 17.5421L34.9799 17.5993C34.7268 17.6737 34.4565 17.6646 34.2089 17.5735C33.9613 17.4824 33.7496 17.314 33.6051 17.0932C32.3041 16.7655 30.9318 16.8702 29.6956 17.3916L29.2232 17.5906L29.2236 17.5896Z" fill="#FF99B6"/>
<path d="M33.4794 17.0643C33.5213 17.0739 33.5635 17.0827 33.6051 17.0933C33.7496 17.314 33.9613 17.4824 34.2089 17.5735C34.4565 17.6647 34.7268 17.6737 34.98 17.5993L35.174 17.5421C34.5319 18.1331 33.7728 18.5827 32.9459 18.8616C32.119 19.1405 31.2427 19.2426 30.3738 19.1612C30.2911 19.0724 30.2345 18.9624 30.2105 18.8435C30.1864 18.7245 30.1957 18.6012 30.2373 18.4872C30.279 18.3732 30.3514 18.273 30.4465 18.1976C30.5416 18.1222 30.6557 18.0746 30.7762 18.06C31.7427 17.9438 32.6685 17.6027 33.4794 17.0643Z" fill="#D8809E"/>
<path d="M25.8454 20.1167C27.3781 20.3275 28.9371 20.013 30.2682 19.2243C30.3995 19.4548 30.5892 19.6466 30.8183 19.7804C31.0473 19.9143 31.3075 19.9854 31.5728 19.9868L31.6827 19.9873C30.2593 21.0054 28.5 21.4398 26.7663 21.2011L26.6083 21.1791L28.0846 21.7813L27.9854 21.8183C27.6259 21.9515 27.2423 22.0075 26.8597 21.9824C26.477 21.9573 26.104 21.8517 25.765 21.6726L25.1824 22.9096L24.7245 21.2211C24.8805 21.053 25.0343 20.8923 25.186 20.7388L25.8308 20.1147L25.8454 20.1167Z" fill="#D8809E"/>
<path d="M31.6722 21.4491C31.71 21.4935 31.7628 21.5224 31.8205 21.5303C31.8782 21.5382 31.9369 21.5246 31.9852 21.4921C32.0557 21.4446 32.126 21.3954 32.1941 21.3457C32.2443 21.3085 32.2777 21.2529 32.2871 21.1912C32.2966 21.1294 32.2813 21.0665 32.2445 21.016C32.2078 20.9654 32.1526 20.9314 32.091 20.9214C32.0293 20.9113 31.9662 20.926 31.9153 20.9622C31.8516 21.0084 31.786 21.0544 31.7202 21.0987C31.6943 21.1161 31.6722 21.1384 31.655 21.1643C31.6378 21.1903 31.6259 21.2194 31.6199 21.2499C31.6139 21.2805 31.614 21.3119 31.6202 21.3425C31.6264 21.373 31.6385 21.402 31.6559 21.4278C31.661 21.4352 31.6664 21.4423 31.6722 21.4491Z" fill="#D4E1F4"/>
<path d="M28.9237 22.5306C28.95 22.5617 28.9839 22.5854 29.0221 22.5996C29.0603 22.6138 29.1015 22.6179 29.1417 22.6114C29.8138 22.5047 30.4669 22.3017 31.081 22.0085C31.1091 21.9951 31.1343 21.9763 31.1551 21.9532C31.176 21.93 31.192 21.903 31.2024 21.8736C31.2128 21.8443 31.2173 21.8132 31.2157 21.7821C31.214 21.751 31.2063 21.7205 31.1929 21.6924C31.1795 21.6643 31.1606 21.6391 31.1375 21.6183C31.1143 21.5974 31.0873 21.5814 31.058 21.571C31.0286 21.5606 30.9975 21.5561 30.9664 21.5577C30.9353 21.5594 30.9048 21.5671 30.8767 21.5805C30.3038 21.854 29.6944 22.0435 29.0674 22.1431C29.0258 22.1496 28.9868 22.1672 28.9542 22.1938C28.9217 22.2205 28.8968 22.2553 28.8822 22.2948C28.8676 22.3342 28.8637 22.3769 28.871 22.4183C28.8783 22.4597 28.8964 22.4985 28.9237 22.5306L28.9237 22.5306Z" fill="#D4E1F4"/>
<path d="M22.1097 24.404C22.1331 24.4316 22.1624 24.4534 22.1955 24.4679C22.2286 24.4824 22.2646 24.4891 22.3006 24.4876C22.3367 24.486 22.372 24.4763 22.4037 24.4591C22.4354 24.4418 22.4628 24.4176 22.4837 24.3882C25.4292 20.2515 27.5254 18.9354 29.7445 17.5419C31.7576 16.2779 33.8393 14.9708 36.7576 11.5749C36.798 11.5271 36.818 11.4653 36.813 11.4029C36.8081 11.3405 36.7786 11.2826 36.7312 11.2418C36.6837 11.201 36.622 11.1806 36.5596 11.1851C36.4972 11.1896 36.439 11.2186 36.3979 11.2658C33.5264 14.6074 31.4756 15.8951 29.4923 17.1404C27.2322 18.5596 25.0975 19.8999 22.0975 24.1132C22.0669 24.1561 22.0515 24.208 22.0537 24.2607C22.0559 24.3134 22.0756 24.3638 22.1097 24.404Z" fill="#E5E5E5"/>
</g>
</svg>
