<svg width="16" height="17" viewBox="0 0 16 17" fill="none" xmlns="http://www.w3.org/2000/svg">
<path fill-rule="evenodd" clip-rule="evenodd" d="M5.45004 15.3675V12.8569C5.45003 12.2183 5.97063 11.6994 6.61566 11.6951H8.97839C9.62649 11.6951 10.1519 12.2153 10.1519 12.8569V15.3753C10.1517 15.9175 10.5888 16.3606 11.1364 16.3733H12.7115C14.2817 16.3733 15.5547 15.1131 15.5547 13.5586V6.41658C15.5463 5.80502 15.2562 5.23075 14.7671 4.85718L9.38006 0.561033C8.43631 -0.187011 7.09473 -0.187011 6.15099 0.561033L0.787578 4.86497C0.296569 5.23703 0.00604724 5.81226 0 6.42437V13.5586C0 15.1131 1.27292 16.3733 2.84316 16.3733H4.41831C4.97942 16.3733 5.43429 15.923 5.43429 15.3675" fill="#FFF62A"/>
</svg>
