<svg width="25" height="45" viewBox="0 0 25 45" fill="none" xmlns="http://www.w3.org/2000/svg">
<g opacity="0.5">
<g clip-path="url(#clip0_1580_19369)">
<path d="M9.62105 25.7551C9.81347 25.7551 9.98839 25.8076 10.1633 25.8776C10.0409 26.4898 9.83096 26.9446 9.41113 27.172C9.53358 26.4024 9.41113 25.7726 9.41113 25.7726C9.4986 25.7551 9.55107 25.7551 9.62105 25.7551Z" fill="#D1C2BA"/>
<path d="M10.4082 26.3674C10.6531 26.4899 10.898 26.8397 10.9505 27.0846C10.828 27.1021 10.6706 27.1546 10.5132 27.2246C10.5481 26.8222 10.4082 26.3674 10.4082 26.3674Z" fill="#D1C2BA"/>
<path d="M12.9622 26.3674C12.9622 26.3674 12.8223 26.8222 12.8572 27.2246C12.6823 27.1546 12.5424 27.1021 12.4199 27.0846C12.4899 26.8572 12.7348 26.4899 12.9622 26.3674Z" fill="#D1C2BA"/>
<path d="M13.207 25.86C13.382 25.79 13.5569 25.7375 13.7493 25.7375C13.8193 25.7375 13.8892 25.7375 13.9417 25.755C13.9417 25.755 13.8193 26.3848 13.9417 27.1545C13.5394 26.9271 13.312 26.4897 13.207 25.86Z" fill="#D1C2BA"/>
<path d="M13.9942 30.2157C13.9942 30.2157 13.1021 29.5859 12.9272 29.271C12.9272 29.271 12.9097 29.2536 12.9097 29.2361C12.7697 28.9212 12.9097 28.5713 13.207 28.4314C13.207 28.4489 13.5044 29.3935 13.9942 30.2157Z" fill="#D1C2BA"/>
<path d="M10.1633 28.449C10.4781 28.5889 10.6006 28.9563 10.4606 29.2536C10.4606 29.2711 10.4432 29.2711 10.4432 29.2886C10.2682 29.6035 9.3761 30.2332 9.3761 30.2332C9.88339 29.3936 10.1633 28.449 10.1633 28.449Z" fill="#D1C2BA"/>
<path d="M14.0467 29.8135C14.0292 30.0409 13.9942 30.2158 13.9942 30.2158C13.5044 29.3937 13.207 28.4316 13.207 28.4316C13.4519 28.3266 13.7318 28.3791 13.9067 28.5715C13.9592 28.624 13.9767 28.6765 14.0117 28.7289C14.0117 28.7289 14.0117 28.7464 14.0292 28.7639C14.0992 28.9738 14.0817 29.4636 14.0467 29.8135Z" fill="#F5ECE7"/>
<path d="M10.1634 28.4491C10.1634 28.4491 9.86598 29.3937 9.37618 30.2334C9.37618 30.2334 9.35869 30.0584 9.3237 29.8135C9.28872 29.4637 9.27123 28.9914 9.3412 28.7815C9.3412 28.764 9.3412 28.764 9.35869 28.7465C9.39367 28.694 9.42866 28.624 9.46364 28.589C9.63857 28.3966 9.91845 28.3267 10.1634 28.4491Z" fill="#F5ECE7"/>
<path d="M10.4083 26.3674C10.4083 26.3674 10.5482 26.8222 10.5132 27.2246C10.4608 27.2421 10.4083 27.2771 10.3558 27.2945C10.2508 27.347 10.1284 27.3995 10.0234 27.4345C10.1984 26.8397 10.4083 26.3674 10.4083 26.3674Z" fill="#F5ECE7"/>
<path d="M12.8572 27.2246C12.8222 26.8222 12.9621 26.3674 12.9621 26.3674C12.9621 26.3674 13.172 26.8397 13.3645 27.4345C13.2595 27.382 13.1371 27.3295 13.0321 27.2945C12.9621 27.2771 12.9097 27.2421 12.8572 27.2246Z" fill="#F5ECE7"/>
<path d="M13.9418 27.1545C13.8193 26.3849 13.9418 25.7551 13.9418 25.7551C14.1866 25.7901 14.3441 25.9126 14.554 26.1924C14.554 26.2099 14.1517 26.7697 13.9418 27.1545Z" fill="#F5ECE7"/>
<path d="M9.42865 27.1545C9.23623 26.7697 8.81641 26.1924 8.81641 26.1924C9.04381 25.9126 9.18375 25.7901 9.42865 25.7551C9.42865 25.7551 9.5511 26.3849 9.42865 27.1545Z" fill="#F5ECE7"/>
<path d="M16.5657 21.8191C15.4462 22.134 13.2246 22.3964 12.9972 22.4314C12.9972 22.4314 13.1546 22.204 13.2771 22.1165C13.382 22.099 13.487 22.064 13.5919 22.0465C14.2392 21.8716 15.2013 21.4868 15.7261 21.2769C16.2159 21.3818 16.5657 21.8191 16.5657 21.8191Z" fill="#141517"/>
<path d="M10.3908 22.449C10.1459 22.414 7.9418 22.1516 6.82227 21.8367C6.82227 21.8367 7.17212 21.3994 7.66192 21.2944C8.1867 21.5043 9.16629 21.8892 9.79603 22.0641C9.90098 22.0991 10.0059 22.1166 10.1109 22.1341C10.2333 22.2215 10.3908 22.449 10.3908 22.449Z" fill="#141517"/>
<path d="M6.80469 21.8193C7.92422 22.1342 10.1458 22.3966 10.3732 22.4316C10.3732 22.4316 9.84842 23.2013 8.58894 23.1138C7.11956 23.0263 6.80469 21.8193 6.80469 21.8193Z" fill="#25272B"/>
<path d="M16.5657 21.8193C16.5657 21.8193 16.2508 23.0263 14.7814 23.1138C13.9418 23.1663 13.417 22.8339 13.1721 22.624C13.0497 22.519 12.9972 22.4316 12.9972 22.4316C13.2421 22.3966 15.4462 22.1517 16.5657 21.8193Z" fill="#25272B"/>
<path d="M10.6881 26.07C11.0554 26.1925 11.3353 26.21 11.6852 26.21C12.035 26.21 12.3149 26.1925 12.6823 26.07C12.8572 26.0175 13.0321 25.9301 13.1896 25.8601C13.312 26.4724 13.5219 26.9272 13.9417 27.1546C14.1342 26.7697 14.554 26.1925 14.554 26.1925C14.8164 26.5248 14.9738 26.8747 14.9738 26.8747C14.9738 26.8747 14.6065 27.5044 13.9417 27.6444C13.8193 27.6269 13.5919 27.5394 13.347 27.4345C13.1721 26.8397 12.9447 26.3674 12.9447 26.3674C12.7173 26.4898 12.4549 26.8397 12.4024 27.0846C12.3849 27.0846 12.3849 27.0846 12.3674 27.0846C11.9826 27.0496 11.6677 27.0496 11.6677 27.0496C11.6677 27.0496 11.3703 27.0496 10.968 27.0846C10.9505 27.0846 10.9505 27.0846 10.933 27.0846C10.863 26.8397 10.6181 26.4724 10.3907 26.3674C10.3907 26.3674 10.1808 26.8397 9.98839 27.4345C9.7435 27.5394 9.51609 27.6269 9.39364 27.6444C8.72892 27.5044 8.36157 26.8747 8.36157 26.8747C8.36157 26.8747 8.51901 26.5423 8.7814 26.1925C8.7814 26.1925 9.18373 26.7697 9.39364 27.1546C9.79597 26.9272 10.0234 26.4898 10.1458 25.8601C10.3382 25.9301 10.5132 26.0175 10.6881 26.07Z" fill="#25272B"/>
<path d="M13.9242 28.589C13.9242 28.589 13.7668 28.3616 13.6094 28.0117C13.9942 28.2566 14.4315 28.4665 14.6589 28.3266C14.519 28.449 14.3091 28.6065 14.0467 28.7639C14.0467 28.7464 14.0467 28.7464 14.0292 28.7289C13.9942 28.6939 13.9592 28.624 13.9242 28.589Z" fill="#003780"/>
<path d="M9.46358 28.5888C9.42859 28.6413 9.3936 28.6938 9.35862 28.7463C9.35862 28.7463 9.35862 28.7637 9.34113 28.7812C9.07874 28.6238 8.86882 28.4664 8.72888 28.3439C8.95629 28.4664 9.3936 28.274 9.77844 28.0291C9.60352 28.3614 9.46358 28.5888 9.46358 28.5888Z" fill="#003780"/>
<path d="M7.25957 25.2478C8.48406 25.2478 9.3587 24.3906 9.3587 24.3906L9.18377 24.9679C9.18377 24.9679 8.44908 25.5451 8.1517 25.8775C7.83683 26.2099 7.73187 26.6122 7.81934 26.8571C7.60943 26.4373 7.39951 26.0174 7.32954 25.825C7.29456 25.7376 7.24208 25.6326 7.1896 25.5626C6.99718 25.2653 6.76978 25.1078 6.76978 25.1078C6.90972 25.1603 7.08464 25.2128 7.25957 25.2478Z" fill="#003780"/>
<path d="M16.1108 25.2479C16.2858 25.2129 16.4607 25.1605 16.6006 25.0905C16.6006 25.0905 16.3732 25.2654 16.1808 25.5453C16.1283 25.6328 16.0759 25.7202 16.0409 25.8077C15.9709 26.0001 15.761 26.4199 15.5511 26.8398C15.6385 26.5949 15.5336 26.1925 15.2187 25.8602C14.9038 25.5278 14.1866 24.9506 14.1866 24.9506L14.0117 24.3733C14.0117 24.3908 14.8864 25.2479 16.1108 25.2479Z" fill="#003780"/>
<path d="M7.31205 21.137C7.36453 21.1544 7.48698 21.2069 7.66191 21.2769C7.17211 21.3644 6.82226 21.8192 6.82226 21.8192C6.82226 21.8192 6.45491 22.1865 6.15753 22.4314C6.10505 22.1165 5.89514 21.7317 5.89514 21.7317C5.98261 21.7317 6.48989 21.3294 6.7173 21.2069C6.92721 21.067 7.06715 21.0495 7.31205 21.137Z" fill="#003780"/>
<path d="M16.5656 21.8193C16.5656 21.8193 16.2157 21.382 15.726 21.277C15.9009 21.2071 16.0233 21.1546 16.0758 21.1371C16.3032 21.0321 16.4606 21.0671 16.6881 21.1896C16.9155 21.312 17.4053 21.7144 17.5102 21.7144C17.5102 21.7144 17.2828 22.1167 17.2478 22.4141C16.9504 22.1867 16.5656 21.8193 16.5656 21.8193Z" fill="#003780"/>
<path d="M11.6852 28.4839C12.2624 28.4839 13.0146 29.0786 12.5248 29.376C12.2624 29.4285 11.9825 29.481 11.6852 29.4985C11.3878 29.481 11.1079 29.446 10.8455 29.376C10.3557 29.0786 11.1079 28.4839 11.6852 28.4839Z" fill="#004AAB"/>
<path d="M11.6852 27.5743C11.2653 27.5743 10.6181 27.1895 10.3557 27.2945C10.4082 27.277 10.4607 27.242 10.5131 27.2245C10.6881 27.1545 10.828 27.102 10.9505 27.0845C10.968 27.0845 10.968 27.0845 10.9855 27.0845C11.3703 27.0496 11.6852 27.0496 11.6852 27.0496C11.6852 27.0496 12 27.0496 12.3849 27.0845C12.4024 27.0845 12.4024 27.0845 12.4199 27.0845C12.5423 27.102 12.6822 27.1545 12.8572 27.2245C12.9096 27.242 12.9621 27.277 13.0146 27.2945C12.7522 27.1895 12.105 27.5743 11.6852 27.5743Z" fill="#004AAB"/>
<path d="M11.1953 25.5451C11.4577 25.6501 11.6851 25.5976 11.6851 25.5976C11.6851 25.5976 11.9125 25.6501 12.1749 25.5451C12.4373 25.4402 12.8746 25.0379 12.9971 25.0029C13.1195 24.9679 13.8192 25.0553 13.8717 25.0029C13.9067 24.9679 14.0641 24.723 14.0292 24.3906L14.2041 24.9679C14.2041 24.9679 14.0991 25.1428 13.9592 25.3177C13.6093 25.3177 13.2245 25.2828 13.1545 25.2828C13.0846 25.2828 12.3848 26 11.7026 26.0174C11.0204 26 10.3207 25.2828 10.2507 25.2828C10.1808 25.2828 9.79592 25.3002 9.44607 25.3177C9.30613 25.1603 9.20117 24.9679 9.20117 24.9679L9.3761 24.3906C9.34111 24.7405 9.48106 24.9854 9.53353 25.0029C9.58601 25.0553 10.2857 24.9679 10.4082 25.0029C10.4956 25.0553 10.933 25.4577 11.1953 25.5451Z" fill="#004AAB"/>
<path d="M12.9972 22.4489C12.7523 22.4839 12.0701 23.0087 11.6852 23.1311C11.4403 23.0437 11.0905 22.8162 10.7931 22.6413C10.6182 22.5364 10.4607 22.4489 10.3733 22.4489C10.3733 22.4489 10.2333 22.2215 10.0934 22.134C10.8631 22.2915 11.6852 22.274 11.6852 22.274C11.6852 22.274 12.4899 22.274 13.2771 22.134C13.1371 22.2215 12.9972 22.4489 12.9972 22.4489Z" fill="#004AAB"/>
<path d="M10.5132 22.9387C10.7581 23.1486 10.8806 23.5685 10.8981 23.8308C10.6707 23.6384 10.2858 23.4985 9.97095 23.5685C10.3558 23.446 10.5132 23.3411 10.5132 22.9387Z" fill="#004AAB"/>
<path d="M13.417 23.5685C13.1021 23.4985 12.7173 23.6384 12.4724 23.8308C12.4899 23.5685 12.6124 23.1486 12.8573 22.9387C12.8573 23.3411 13.0147 23.446 13.417 23.5685Z" fill="#004AAB"/>
<path d="M16.6182 25.0903C16.4782 25.1603 16.3033 25.2302 16.1284 25.2477C14.9039 25.2477 14.0292 24.3906 14.0292 24.3906C14.0118 24.2506 13.9768 24.0932 13.8718 23.9183C13.8193 23.8133 13.7319 23.7259 13.6444 23.6734C14.729 24.1457 15.8485 24.1457 16.2158 24.1457C16.5832 24.1457 17.5103 23.5334 17.4053 23.1311C17.5103 23.4285 17.6153 23.7259 17.5978 23.8833C17.5803 24.0057 17.4578 24.2856 17.2304 24.5655C17.2129 24.583 17.1954 24.6005 17.1779 24.618C17.038 24.7929 16.8456 24.9678 16.6182 25.0903Z" fill="#004AAB"/>
<path d="M5.96509 23.1311C5.86014 23.5334 6.78725 24.1457 7.1546 24.1457C7.52194 24.1457 8.64148 24.1632 9.72603 23.6734C9.63856 23.7259 9.56859 23.8133 9.49862 23.9183C9.41116 24.0932 9.35868 24.2331 9.34119 24.3906C9.34119 24.3906 8.46655 25.2477 7.24206 25.2477C7.06713 25.2127 6.89221 25.1603 6.75226 25.0903C6.52486 24.9678 6.33244 24.7929 6.1925 24.618C6.17501 24.6005 6.15751 24.583 6.14002 24.5655C5.91261 24.2856 5.79017 24.0057 5.77267 23.8833C5.75518 23.7259 5.86014 23.4285 5.96509 23.1311Z" fill="#004AAB"/>
<path d="M12.5248 29.3935C13.0146 29.0786 12.2624 28.5014 11.6852 28.5014C11.1079 28.5014 10.3557 29.0961 10.8455 29.3935C10.8105 29.3935 10.7756 29.376 10.7406 29.376C10.6356 29.3585 10.5482 29.3235 10.4432 29.2885C10.4432 29.2885 10.4607 29.2711 10.4607 29.2536C10.6006 28.9387 10.4607 28.5888 10.1633 28.4489C9.91841 28.3439 9.63853 28.3964 9.4636 28.5888C9.4636 28.5888 9.62104 28.3614 9.77847 28.0116C9.39363 28.2565 8.95631 28.4664 8.72891 28.3264C8.62395 28.2215 8.53649 28.1515 8.5015 28.0815C8.37905 27.9241 8.08168 27.3643 7.81929 26.8221C7.73182 26.5772 7.83678 26.1748 8.15165 25.8425C8.46652 25.5101 9.18372 24.9329 9.18372 24.9329C9.18372 24.9329 9.28868 25.1078 9.42862 25.2827C9.77847 25.2827 10.1633 25.2477 10.2333 25.2477C10.3033 25.2477 11.003 25.9649 11.6852 25.9824C12.3674 25.9649 13.0671 25.2477 13.1371 25.2477C13.207 25.2477 13.5919 25.2652 13.9417 25.2827C14.0817 25.1253 14.1866 24.9329 14.1866 24.9329C14.1866 24.9329 14.9038 25.5101 15.2187 25.8425C15.5336 26.1748 15.6385 26.5772 15.5511 26.8221C15.2712 27.3643 14.9738 27.9241 14.8689 28.0815C14.8339 28.134 14.7464 28.2215 14.6414 28.3264C14.414 28.4664 13.9767 28.2565 13.5919 28.0116C13.7493 28.3614 13.9068 28.5888 13.9068 28.5888C13.7318 28.3964 13.4519 28.3264 13.207 28.4489C12.8922 28.5888 12.7697 28.9562 12.9097 29.2536C12.9097 29.2711 12.9097 29.2711 12.9272 29.2885C12.8222 29.3235 12.7347 29.341 12.6298 29.376C12.5948 29.376 12.5598 29.376 12.5248 29.3935ZM11.6852 26.2098C11.3353 26.2098 11.0554 26.1923 10.6881 26.0699C10.5132 26.0174 10.3382 25.9299 10.1808 25.86C10.0059 25.79 9.83095 25.7375 9.63853 25.7375C9.56856 25.7375 9.49859 25.7375 9.44611 25.755C9.20121 25.79 9.04378 25.9125 8.83386 26.1923C8.57147 26.5247 8.41404 26.8746 8.41404 26.8746C8.41404 26.8746 8.78139 27.5043 9.44611 27.6442C9.56856 27.6267 9.79596 27.5393 10.0409 27.4343C10.1458 27.3818 10.2683 27.3294 10.3732 27.2944C10.6356 27.1894 11.2828 27.5743 11.7027 27.5743C12.1225 27.5743 12.7697 27.1894 13.0321 27.2944C13.1371 27.3469 13.2595 27.3993 13.3645 27.4343C13.6094 27.5393 13.8368 27.6267 13.9592 27.6442C14.624 27.5043 14.9913 26.8746 14.9913 26.8746C14.9913 26.8746 14.8339 26.5422 14.5715 26.1923C14.3441 25.9125 14.2041 25.79 13.9592 25.755C13.9068 25.755 13.8368 25.7375 13.7668 25.7375C13.5744 25.7375 13.3995 25.79 13.2245 25.86C13.0496 25.9299 12.8922 25.9999 12.7172 26.0699C12.3149 26.1923 12.035 26.2098 11.6852 26.2098Z" fill="#2A7EEB"/>
<path d="M17.4052 23.1313C17.3353 22.9214 17.2653 22.729 17.2478 22.6065C17.2303 22.554 17.2303 22.4841 17.2478 22.4316C16.9504 22.2042 16.5831 21.8193 16.5831 21.8193C16.5831 21.8193 16.2682 23.0263 14.7988 23.1138C13.9592 23.1663 13.4344 22.8339 13.1895 22.624C13.0671 22.519 13.0146 22.4316 13.0146 22.4316C12.7697 22.4666 12.0875 22.9913 11.7026 23.1138C11.4577 23.0263 11.1079 22.7989 10.8105 22.624C10.6356 22.519 10.4781 22.4316 10.3907 22.4316C10.3907 22.4316 9.86589 23.2013 8.60641 23.1138C7.11953 23.0263 6.80467 21.8193 6.80467 21.8193C6.80467 21.8193 6.43732 22.1867 6.13994 22.4316C6.15743 22.5016 6.15743 22.554 6.13994 22.6065C6.12245 22.729 6.05248 22.9214 5.96501 23.1313C5.86006 23.5336 6.78717 24.1459 7.15452 24.1459C7.52187 24.1459 8.6414 24.1634 9.72595 23.6736C9.63848 23.726 9.56851 23.8135 9.49854 23.9185C9.41108 24.0934 9.3586 24.2333 9.34111 24.3908C9.30612 24.7406 9.44606 24.9855 9.49854 25.003C9.55102 25.0555 10.2507 24.968 10.3732 25.003C10.4956 25.038 10.9155 25.4403 11.1953 25.5453C11.4577 25.6502 11.6851 25.5978 11.6851 25.5978C11.6851 25.5978 11.9125 25.6502 12.1749 25.5453C12.4373 25.4403 12.8746 25.038 12.9971 25.003C13.1195 24.968 13.8192 25.0555 13.8717 25.003C13.9067 24.968 14.0641 24.7231 14.0292 24.3908C14.0117 24.2508 13.9767 24.0934 13.8717 23.9185C13.8192 23.8135 13.7318 23.726 13.6443 23.6736C14.7289 24.1459 15.8484 24.1459 16.2157 24.1459C16.5831 24.1459 17.5102 23.5336 17.4052 23.1313ZM9.97085 23.5686C10.3732 23.4287 10.5306 23.3412 10.5306 22.9389C10.7755 23.1488 10.898 23.5686 10.9155 23.831C10.6706 23.6386 10.2857 23.4986 9.97085 23.5686ZM12.4723 23.831C12.4898 23.5686 12.6122 23.1488 12.8571 22.9389C12.8571 23.3412 13.0146 23.4287 13.4169 23.5686C13.0845 23.4986 12.7172 23.6386 12.4723 23.831Z" fill="#2A7EEB"/>
<path d="M6.76973 25.0903C6.76973 25.0903 6.99713 25.2652 7.18955 25.5451C7.18955 25.5451 6.64728 25.7026 6.40238 26.0699C6.26244 25.825 6.13999 25.6326 6.08751 25.5451C6.07002 25.5101 6.05253 25.4926 6.05253 25.4926H6.03503C6.07002 25.4227 6.08751 25.3527 6.10501 25.3002C6.1225 25.0728 6.19247 24.6355 6.19247 24.6355C6.33241 24.7929 6.52483 24.9679 6.76973 25.0903Z" fill="#BD4D3C"/>
<path d="M17.2828 25.3002C17.2828 25.3527 17.3003 25.4227 17.3353 25.4927H17.3178C17.3178 25.4927 17.3003 25.5102 17.2828 25.5451C17.2303 25.6326 17.1254 25.825 16.968 26.0699C16.7231 25.7201 16.1808 25.5451 16.1808 25.5451C16.3732 25.2478 16.6006 25.0903 16.6006 25.0903C16.828 24.9679 17.0204 24.8104 17.1779 24.6355C17.1954 24.618 17.2478 25.0553 17.2828 25.3002Z" fill="#BD4D3C"/>
<path d="M12.9272 29.2712C13.1021 29.5861 13.9942 30.2158 13.9942 30.2158C13.0496 30.1984 12.7522 30.0584 12.7522 30.0584C12.6998 29.7435 12.6123 29.3587 12.6123 29.3587C12.7348 29.3412 12.8222 29.3062 12.9272 29.2712Z" fill="#BD4D3C"/>
<path d="M10.7406 29.3587C10.7406 29.3587 10.6706 29.7435 10.6006 30.0584C10.6006 30.0584 10.3032 30.2158 9.35864 30.2158C9.35864 30.2158 10.2508 29.5861 10.4257 29.2712C10.5481 29.3062 10.6531 29.3412 10.7406 29.3587Z" fill="#BD4D3C"/>
<path d="M9.34121 29.8133C9.34121 29.8133 8.20418 28.9911 7.99427 28.6763C7.97677 28.6413 7.94179 28.5888 7.88931 28.5013C7.76686 28.3089 7.57444 27.9941 7.36453 27.6442C7.04966 27.1194 6.68231 26.4897 6.41992 26.0524C6.66482 25.7025 7.20709 25.5276 7.20709 25.5276C7.25957 25.6151 7.31205 25.7025 7.34704 25.79C7.41701 25.9824 7.62692 26.4022 7.83683 26.822C8.11671 27.3643 8.41409 27.9241 8.51905 28.0815C8.55403 28.134 8.6415 28.2215 8.74645 28.3264C8.88639 28.4489 9.09631 28.6063 9.3587 28.7637C9.27123 28.9737 9.30622 29.4634 9.34121 29.8133Z" fill="#DB8660"/>
<path d="M16.1983 25.5452C16.1983 25.5452 16.7406 25.7026 16.9855 26.0699C16.7231 26.5073 16.3557 27.137 16.0234 27.6618C15.8135 28.0116 15.621 28.3265 15.4986 28.5189C15.4461 28.6064 15.4111 28.6589 15.3936 28.6939C15.1837 29.0087 14.0292 29.8309 14.0292 29.8309C14.0642 29.481 14.0992 29.0087 14.0117 28.7988C14.2741 28.6414 14.484 28.4839 14.624 28.3615C14.7289 28.2565 14.8164 28.1866 14.8514 28.1166C14.9563 27.9592 15.2712 27.3994 15.5336 26.8571C15.7435 26.4373 15.9359 26.0175 16.0234 25.825C16.0934 25.7201 16.1458 25.6326 16.1983 25.5452Z" fill="#DB8660"/>
<path d="M14.6939 31.3178C14.8338 31.5977 14.519 31.8251 14.1866 31.9476C13.8542 32.07 13.6443 31.9476 13.5394 31.7551C13.4344 31.5627 13.1195 30.9505 12.8047 30.3907C12.8047 30.3207 12.7872 30.1983 12.7522 30.0583C12.7522 30.0583 13.0496 30.2158 13.9942 30.2158C13.9942 30.2158 14.5539 31.0379 14.6939 31.3178Z" fill="#DB8660"/>
<path d="M10.8456 29.3935C11.1079 29.4459 11.3878 29.4984 11.6852 29.5159C11.9826 29.4984 12.2625 29.4634 12.5249 29.3935C12.5598 29.3935 12.5948 29.376 12.6123 29.376C12.6123 29.376 12.6998 29.7608 12.7523 30.0757C12.7698 30.2156 12.7872 30.3556 12.8047 30.408C12.8047 30.6005 12.6298 30.6879 12.5249 30.6879C12.4199 30.6879 12.175 30.6879 12.0176 30.6879C11.8601 30.6879 11.7727 30.6529 11.6852 30.478C11.5977 30.6704 11.5103 30.6879 11.3528 30.6879C11.1954 30.6879 10.933 30.6879 10.8456 30.6879C10.7406 30.6879 10.5657 30.6005 10.5657 30.408C10.5657 30.3381 10.5832 30.2156 10.6182 30.0757C10.6706 29.7608 10.7581 29.376 10.7581 29.376C10.7756 29.376 10.8106 29.376 10.8456 29.3935Z" fill="#DB8660"/>
<path d="M10.6181 30.0583C10.6006 30.1983 10.5831 30.3382 10.5656 30.3907C10.2683 30.968 9.9534 31.5802 9.83095 31.7551C9.72599 31.9476 9.51608 32.07 9.18372 31.9476C8.85136 31.8251 8.53649 31.5802 8.67643 31.3178C8.81637 31.0379 9.37614 30.2158 9.37614 30.2158C10.3207 30.2158 10.6181 30.0583 10.6181 30.0583Z" fill="#DB8660"/>
<path d="M17.3179 25.5451C17.3179 25.5451 17.4229 25.9824 17.5628 26.5597C17.6852 27.0844 17.8427 27.7317 17.9651 28.3089C17.178 27.8716 16.4608 27.7142 16.0234 27.6442C16.3383 27.1194 16.7057 26.4897 16.9855 26.0524C17.1255 25.8075 17.2479 25.6151 17.3004 25.5276L17.3179 25.5451Z" fill="#141517"/>
<path d="M5.80761 26.5772C5.93006 26.035 6.03501 25.6326 6.0525 25.5627L6.08749 25.5452C6.13997 25.6326 6.24492 25.825 6.40236 26.0699C6.66475 26.5073 7.0321 27.137 7.34696 27.6618C6.90965 27.7318 6.17495 27.8892 5.40527 28.3265C5.54522 27.7492 5.68516 27.102 5.80761 26.5772Z" fill="#141517"/>
<path d="M7.34703 27.6619C7.55694 28.0117 7.74936 28.3266 7.87181 28.519C7.87181 28.519 6.50738 28.5365 5.14294 29.4461C5.21292 29.1662 5.30038 28.7639 5.40534 28.3266C6.17501 27.8893 6.90971 27.7318 7.34703 27.6619Z" fill="#F25900"/>
<path d="M17.9826 28.3266C18.0875 28.7639 18.175 29.1662 18.245 29.4461C16.8805 28.519 15.5161 28.519 15.5161 28.519C15.6386 28.3266 15.831 28.0117 16.0409 27.6619C16.4607 27.7318 17.1954 27.8893 17.9826 28.3266Z" fill="#F25900"/>
<path d="M17.3353 25.4751C17.4403 25.6675 17.7027 25.8774 18.2449 25.9299C18.3149 26.1923 18.3849 26.4897 18.4548 26.7871C18.4374 26.7871 18.4024 26.7871 18.3849 26.7871C18 26.7696 17.7376 26.6821 17.5627 26.5596C17.4228 25.9649 17.3178 25.5451 17.3178 25.5451H17.2828C17.3178 25.5101 17.3178 25.4926 17.3353 25.4751Z" fill="#F25900"/>
<path d="M6.05255 25.5626C6.03506 25.6326 5.9476 26.0349 5.80766 26.5772C5.63273 26.6997 5.37034 26.7871 4.9855 26.8046C4.96801 26.8046 4.93302 26.8046 4.91553 26.8046C4.9855 26.5073 5.05547 26.2099 5.12544 25.9475C5.68521 25.895 5.9301 25.6851 6.03506 25.4927H6.05255C6.05255 25.4927 6.07005 25.5102 6.08754 25.5452L6.05255 25.5626Z" fill="#F25900"/>
<path d="M6.19248 24.6182C6.19248 24.6182 6.14001 25.0555 6.10502 25.2829C6.10502 25.3354 6.08753 25.4053 6.03505 25.4753C5.93009 25.6677 5.6677 25.8776 5.12543 25.9301C5.09044 25.9301 5.03796 25.9301 5.00298 25.9476C4.91552 25.9476 4.81056 25.9476 4.68811 25.9476C5.03796 25.8251 5.21289 25.5103 5.30036 25.1079C5.87761 25.0555 6.14001 24.5657 6.14001 24.5657C6.1575 24.5832 6.17499 24.6007 6.19248 24.6182Z" fill="#FF7B00"/>
<path d="M18.3849 25.9476C18.3324 25.9476 18.2974 25.9476 18.2625 25.9301C17.7027 25.8776 17.4578 25.6677 17.3528 25.4753C17.3178 25.4053 17.3004 25.3354 17.3004 25.2829C17.2829 25.0555 17.2129 24.6182 17.2129 24.6182C17.2304 24.6007 17.2479 24.5832 17.2654 24.5657C17.2654 24.5657 17.5278 25.0555 18.105 25.1079C18.1925 25.5103 18.3499 25.8251 18.7173 25.9476C18.5773 25.9476 18.4724 25.9476 18.3849 25.9476Z" fill="#FF7B00"/>
<path d="M6.13994 22.6064C6.12245 22.7288 6.05248 22.9212 5.96502 23.1312C5.86006 23.4285 5.7551 23.7259 5.7726 23.8833C5.79009 24.0058 5.91254 24.2857 6.13994 24.5656C6.13994 24.5656 5.87755 25.0554 5.30029 25.1078C5.35277 24.8629 5.38776 24.5656 5.40525 24.2682C5.47522 23.4985 5.59767 21.5918 5.59767 21.5918C5.73761 21.6793 5.84257 21.7142 5.87755 21.7142C5.87755 21.7142 6.08746 22.1166 6.13994 22.414C6.13994 22.5014 6.13994 22.5539 6.13994 22.6064Z" fill="#25272B"/>
<path d="M17.7726 21.5918C17.7726 21.5918 17.9126 23.516 17.965 24.2682C18 24.5656 18.0175 24.8454 18.07 25.1078C17.4927 25.0554 17.2303 24.5656 17.2303 24.5656C17.4578 24.2857 17.5802 24.0058 17.5977 23.8833C17.6152 23.7434 17.5102 23.4285 17.4053 23.1312C17.3353 22.9212 17.2653 22.7288 17.2478 22.6064C17.2303 22.5539 17.2303 22.4839 17.2478 22.4314C17.2828 22.1166 17.5102 21.7317 17.5102 21.7317C17.5277 21.7142 17.6327 21.6793 17.7726 21.5918Z" fill="#25272B"/>
<path d="M18.3849 25.9474C18.4724 25.9474 18.5774 25.9474 18.6823 25.9474C19.452 25.9474 20.6065 25.825 21.3762 25.5801C21.3762 25.5801 21.5161 25.8775 21.726 26.2973C20.9564 26.6471 19.312 26.8221 18.4549 26.7871C18.3849 26.4897 18.315 26.1923 18.245 25.9299C18.2975 25.9474 18.3325 25.9474 18.3849 25.9474Z" fill="#25272B"/>
<path d="M5.12546 25.9299C5.05549 26.1923 4.98552 26.4897 4.91555 26.7871C4.0584 26.8221 2.41409 26.6471 1.64441 26.2973C1.85432 25.86 1.99426 25.5801 1.99426 25.5801C2.74645 25.825 3.91846 25.9299 4.68814 25.9474C4.7931 25.9474 4.89805 25.9474 5.00301 25.9474C5.038 25.9474 5.09047 25.9474 5.12546 25.9299Z" fill="#25272B"/>
<path d="M1.74932 19.6152C1.80179 19.6502 2.13416 19.8951 3.00879 20.4723C3.88343 21.0496 4.82803 21.4869 5.59771 21.6094C5.59771 21.6094 5.45777 23.5336 5.40529 24.2858C5.37031 24.5831 5.35281 24.863 5.30034 25.1254C5.28284 25.1254 5.28284 25.1254 5.26535 25.1254C4.47818 25.1779 3.58605 25.1429 2.69392 24.8455C1.95923 24.6006 1.59188 24.1808 1.59188 23.7085C1.59188 23.2362 1.57439 19.9301 1.59188 19.7551C1.60937 19.5802 1.69684 19.5802 1.74932 19.6152Z" fill="#31363D"/>
<path d="M1.66191 26.3149C2.43158 26.6648 4.0759 26.8222 4.93304 26.8047C4.70564 27.8018 4.46074 28.8514 4.40826 29.0438C4.3033 29.4461 4.09339 29.796 3.53363 29.796C3.02634 29.796 0.78727 29.796 0.0700684 29.796C0.21001 29.3412 1.13712 27.382 1.66191 26.3149Z" fill="#31363D"/>
<path d="M23.3178 29.7784C22.6006 29.7784 20.3615 29.7784 19.8543 29.7784C19.2945 29.7784 19.0846 29.4461 18.9796 29.0262C18.9271 28.8338 18.6822 27.7842 18.4548 26.7872C19.312 26.8221 20.9563 26.6472 21.726 26.2974C22.2333 27.3819 23.1779 29.3411 23.3178 29.7784Z" fill="#31363D"/>
<path d="M23.3353 29.8133C23.4927 30.3206 23.2303 30.5655 22.8455 30.5655C22.4432 30.5655 19.7668 30.5655 19.207 30.5655C18.6473 30.5655 18.4373 30.2331 18.3324 29.8133C18.3149 29.7608 18.2799 29.6209 18.2449 29.446C18.175 29.1661 18.0875 28.7637 17.9825 28.3264C17.8426 27.7492 17.6852 27.1019 17.5802 26.5771C17.7551 26.6996 18 26.7871 18.4024 26.8046C18.4198 26.8046 18.4548 26.8046 18.4723 26.8046C18.6997 27.8016 18.9446 28.8512 18.9971 29.0436C19.1021 29.446 19.312 29.7958 19.8717 29.7958C20.379 29.7958 22.6181 29.7958 23.3353 29.7958C23.3178 29.7958 23.3353 29.7958 23.3353 29.8133Z" fill="#FFAA00"/>
<path d="M5.80764 26.5771C5.68519 27.1019 5.52775 27.7492 5.38781 28.3264C5.28285 28.7637 5.19539 29.1661 5.12542 29.446C5.09043 29.6209 5.05545 29.7608 5.03796 29.8133C4.933 30.2156 4.72309 30.5655 4.16332 30.5655C3.60355 30.5655 0.909676 30.5655 0.524837 30.5655C0.122504 30.5655 -0.122394 30.3206 0.0350407 29.8133C0.0350407 29.8133 0.0350407 29.7958 0.0525334 29.7783C0.769735 29.7783 3.0088 29.7783 3.51609 29.7783C4.07586 29.7783 4.28577 29.446 4.39073 29.0261C4.4432 28.8337 4.6881 27.7841 4.91551 26.7871C4.933 26.7871 4.96799 26.7871 4.98548 26.7871C5.38781 26.7696 5.6502 26.6821 5.80764 26.5771Z" fill="#FFAA00"/>
<path d="M5.59767 21.5919C4.81049 21.4694 3.86589 21.0321 3.00875 20.4548C2.13411 19.8776 1.81924 19.6327 1.74927 19.5977C1.69679 19.5627 1.59184 19.5627 1.57434 19.7376C1.55685 19.9126 1.57434 23.2187 1.57434 23.691C1.57434 24.1633 1.94169 24.5831 2.67638 24.828C3.56851 25.1079 4.44315 25.1604 5.24781 25.1079C5.26531 25.1079 5.26531 25.1079 5.2828 25.1079C5.19533 25.5102 5.0379 25.8251 4.67055 25.9476C3.90087 25.9476 2.74635 25.8251 1.97668 25.5802C1.83673 25.5277 1.69679 25.4927 1.59184 25.4228C0.822156 25.0379 0.734692 24.4782 0.699707 23.9359C0.699707 23.4111 0.769678 19.3353 0.787171 18.7755C0.804663 18.2158 1.36443 17.8484 1.87172 18.2857C2.50146 18.8105 3.34111 19.6327 4.44315 20.1225C4.58309 20.1924 4.72303 20.2449 4.88047 20.2974C4.81049 20.5073 4.77551 20.6997 4.75802 20.8922C4.93294 21.1545 5.33528 21.4344 5.59767 21.5919Z" fill="#FFAA00"/>
<path d="M22.6006 18.7755C22.6181 19.3353 22.6881 23.4111 22.6531 23.9708C22.6356 24.5131 22.5306 25.0729 21.761 25.4577C21.656 25.5102 21.5161 25.5627 21.3761 25.6151C20.6239 25.86 19.4519 25.965 18.6822 25.9825C18.3324 25.86 18.1575 25.5452 18.07 25.1428C18.0875 25.1428 18.0875 25.1428 18.105 25.1428C18.8922 25.1953 19.7843 25.1603 20.6764 24.863C21.4111 24.6181 21.7785 24.1982 21.7785 23.7259C21.7785 23.2536 21.7959 19.9475 21.7785 19.7726C21.761 19.5977 21.6735 19.5977 21.6035 19.6326C21.551 19.6676 21.2187 19.9125 20.344 20.4898C19.4694 21.067 18.5248 21.5044 17.7551 21.6268C18.035 21.4694 18.4199 21.1895 18.5948 20.9271C18.5773 20.7347 18.5423 20.5248 18.4723 20.3323C18.6298 20.2799 18.7697 20.2274 18.9096 20.1574C20.0117 19.6676 20.8513 18.8455 21.4811 18.3207C22.0233 17.8484 22.5656 18.2157 22.6006 18.7755Z" fill="#FFAA00"/>
<path d="M18.5073 20.2974C18.3149 19.6676 17.9651 19.0379 17.7027 18.723C17.5452 18.5306 17.2828 18.4606 16.9855 18.4606C17.2129 18.1633 17.4228 17.8309 17.6152 17.4985C18.6998 19.3003 18.9447 20.1399 18.9447 20.1399C18.8047 20.1749 18.6473 20.2449 18.5073 20.2974Z" fill="#25272B"/>
<path d="M5.66764 18.7229C5.42274 19.0203 5.0554 19.6501 4.86298 20.2973C4.70554 20.2448 4.5656 20.1923 4.42566 20.1224C4.42566 20.1224 4.67056 19.2827 5.75511 17.481C5.93003 17.8308 6.13995 18.1457 6.38484 18.4431C6.08747 18.4605 5.84257 18.5305 5.66764 18.7229Z" fill="#25272B"/>
<path d="M10.1983 13.9126C10.933 15.0671 10.898 16.3966 10.898 16.4665C10.7406 16.449 10.6006 16.4141 10.4432 16.3616C9.58604 16.1167 8.81636 15.6269 8.25659 14.9797C9.06126 14.4199 9.81344 14.035 10.1983 13.9126Z" fill="#25272B"/>
<path d="M12.4723 16.4665C12.4723 16.3966 12.4548 15.0671 13.172 13.9126C13.5744 14.035 14.3091 14.4199 15.1137 14.9797C14.5365 15.6444 13.7843 16.1342 12.9271 16.3616C12.7697 16.4141 12.6298 16.449 12.4723 16.4665Z" fill="#25272B"/>
<path d="M18.5073 20.2974C18.5598 20.5073 18.6123 20.6998 18.6298 20.8922C18.4549 21.1546 18.0525 21.4345 17.7901 21.5919C17.6502 21.6794 17.5452 21.7143 17.5277 21.7143C17.4403 21.7143 16.933 21.312 16.7056 21.1896C16.4782 21.0671 16.3207 21.0321 16.0933 21.1371C16.0409 21.1546 15.9184 21.207 15.7435 21.277C15.2187 21.4869 14.2391 21.8718 13.6094 22.0467C13.5044 22.0817 13.3995 22.0992 13.2945 22.1167C12.5248 22.2741 11.7027 22.2566 11.7027 22.2566C11.7027 22.2566 10.898 22.2566 10.1108 22.1167C10.0059 22.0992 9.90091 22.0642 9.79596 22.0467C9.14873 21.8718 8.18663 21.4869 7.66185 21.277C7.48692 21.207 7.36447 21.1546 7.31199 21.1371C7.08459 21.0321 6.92715 21.0671 6.69975 21.1896C6.47234 21.312 5.96505 21.7143 5.87759 21.7143C5.8426 21.7143 5.73765 21.6619 5.59771 21.5919C5.31782 21.4345 4.93298 21.1546 4.75806 20.8922C4.77555 20.6998 4.81053 20.4898 4.88051 20.2974C5.07293 19.6677 5.42278 19.038 5.68517 18.7231C5.8426 18.5307 6.105 18.4607 6.40237 18.4607C7.18954 19.4753 8.27409 20.2624 9.51607 20.6823C10.0933 20.8747 10.7056 20.9971 11.3353 21.0321L11.7027 21.1896L12.07 21.0321C12.6997 20.9971 13.312 20.8747 13.8893 20.6823C15.1312 20.245 16.2158 19.4753 17.003 18.4607C17.3003 18.4607 17.5627 18.5307 17.7202 18.7231C17.9476 19.0205 18.3149 19.6502 18.5073 20.2974Z" fill="#31363D"/>
<path d="M13.9242 13.0378C13.6268 13.3177 13.3819 13.6151 13.172 13.9125C12.4548 15.067 12.4723 16.3964 12.4723 16.4664C12.2974 16.5014 12.105 16.5189 11.9125 16.5364L11.7026 16.4489V13.8425C12.4198 13.2128 13.207 13.0378 13.9242 13.0378Z" fill="#FF7B00"/>
<path d="M11.6852 19.2653C11.6852 20.8222 10.2683 20.2449 11.3703 19.1429C10.2683 20.2449 9.691 18.828 11.2479 18.828C9.691 18.828 10.2683 17.4111 11.3703 18.5131C10.2683 17.4111 11.6852 16.8338 11.6852 18.3907C11.6852 16.8338 13.1021 17.4111 12 18.5131C13.1021 17.4111 13.6793 18.828 12.1225 18.828C13.6793 18.828 13.1021 20.2449 12 19.1429C13.1021 20.2274 11.6852 20.8222 11.6852 19.2653Z" fill="#F25900"/>
<path d="M14.0642 18.8104L13.8717 18.3556C14.0292 18.2856 14.2041 18.2156 14.3615 18.1282L14.6414 18.8279L13.8717 20.6996C13.2945 20.892 12.6822 21.0145 12.0525 21.0495L13.3644 20.5072L14.0642 18.8104Z" fill="#F25900"/>
<path d="M10.0058 20.4898L11.3178 21.0321C10.6881 20.9971 10.0758 20.8747 9.49856 20.6823L8.72888 18.8105L9.02626 18.1108C9.18369 18.1983 9.34113 18.2683 9.51605 18.3382L9.32363 18.7931L10.0058 20.4898Z" fill="#F25900"/>
<path d="M11.9126 16.5364L13.3645 17.1487L13.8718 18.3732L14.0642 18.828L13.3645 20.5073L12.0525 21.0496L11.6852 21.207L11.3178 21.0496L10.0059 20.5073L9.30615 18.828L9.49857 18.3732L10.0059 17.1487L11.4578 16.5364L11.6677 16.449L11.9126 16.5364ZM11.6852 18.3732C11.6852 16.8163 10.2683 17.3936 11.3703 18.4956C10.2683 17.3936 9.69099 18.8105 11.2478 18.8105C9.69099 18.8105 10.2683 20.2274 11.3703 19.1254C10.2683 20.2274 11.6852 20.8222 11.6852 19.2478C11.6852 20.8047 13.1021 20.2274 12 19.1254C13.1021 20.2274 13.6793 18.8105 12.1225 18.8105C13.6793 18.8105 13.1021 17.3936 12 18.4956C13.1021 17.4111 11.6852 16.8163 11.6852 18.3732Z" fill="#FFAA00"/>
<path d="M10.9155 16.4665C11.1079 16.5014 11.2828 16.5189 11.4752 16.5364L10.0233 17.1487L9.51604 18.3732C9.35861 18.3032 9.18368 18.2157 9.02625 18.1458L9.60351 16.7463L10.4606 16.3965C10.6006 16.414 10.758 16.449 10.9155 16.4665Z" fill="#FF7B00"/>
<path d="M12.4724 16.4665C12.6298 16.449 12.7697 16.4141 12.9272 16.3616L13.7843 16.7114L14.3616 18.1108C14.2041 18.1983 14.0467 18.2683 13.8718 18.3382L13.3645 17.1138L11.9126 16.5015C12.105 16.5365 12.2799 16.5015 12.4724 16.4665Z" fill="#FF7B00"/>
<path d="M17.3003 13.1953C17.3003 10.8338 15.8309 8.82216 13.7843 8C16.4607 8.87464 18.3849 11.3936 18.3849 14.3499C18.3849 15.4869 18.105 16.5364 17.6152 17.481C17.4403 17.8309 17.2304 18.1458 16.9855 18.4431C16.1983 19.4577 15.1137 20.2449 13.8718 20.6647L14.6414 18.793L14.3616 18.0933C16.1108 17.1662 17.3003 15.312 17.3003 13.1953Z" fill="#FF7B00"/>
<path d="M5.00293 14.3499C5.00293 11.3761 6.92713 8.87464 9.60351 8C7.53937 8.82216 6.08748 10.8338 6.08748 13.1953C6.08748 15.3294 7.27698 17.1837 9.02625 18.1283L8.72888 18.828L9.49856 20.6997C8.25657 20.2799 7.17203 19.4927 6.38485 18.4781C6.15745 18.1458 5.94754 17.8309 5.77261 17.4811C5.28281 16.5539 5.00293 15.4869 5.00293 14.3499Z" fill="#FF7B00"/>
<path d="M9.6036 8C8.1517 8.75219 7.15462 10.2741 7.15462 12.0233C7.15462 13.1603 7.57444 14.1924 8.25666 14.9971C8.83392 15.6618 9.5861 16.1516 10.4432 16.379L9.5861 16.7289L9.00884 18.1283C7.25957 17.1837 6.07007 15.3294 6.07007 13.1953C6.08756 10.8338 7.53946 8.82216 9.6036 8Z" fill="#FFAA00"/>
<path d="M16.2158 12.0233C16.2158 10.2741 15.2187 8.75219 13.7843 8C15.8484 8.82216 17.3003 10.8338 17.3003 13.1953C17.3003 15.3294 16.1108 17.1837 14.3615 18.1283L13.7843 16.7289L12.9271 16.379C13.7843 16.1341 14.5539 15.6443 15.1137 14.9971C15.7959 14.1924 16.2158 13.1429 16.2158 12.0233Z" fill="#FFAA00"/>
<path d="M11.4753 16.5364C11.2829 16.5364 11.0905 16.5014 10.9156 16.4664C10.9156 16.3964 10.933 15.067 10.2158 13.9125C10.0234 13.5976 9.77853 13.3002 9.44617 13.0553L9.46366 13.0378C10.1809 13.0378 10.968 13.2128 11.6852 13.8425V16.4489L11.4753 16.5364Z" fill="#FFAA00"/>
<path d="M13.9242 13.0379C13.207 13.0379 12.4199 13.2128 11.7027 13.8426C10.968 13.2128 10.1808 13.0379 9.48108 13.0379C9.9184 12.5656 10.6531 12.6356 10.863 12.793C10.9155 12.1283 11.2653 11.3936 11.7027 11.2012C12.14 11.4111 12.4898 12.1283 12.5423 12.793C12.7347 12.6356 13.4869 12.5656 13.9242 13.0379Z" fill="#FFC85C"/>
<path d="M21.796 19.7551C21.8135 19.9301 21.796 23.2362 21.796 23.7085C21.7785 24.1808 21.4286 24.6006 20.694 24.8455C19.8018 25.1254 18.9272 25.1779 18.1225 25.1254C18.105 25.1254 18.0875 25.1254 18.0875 25.1254C18.0351 24.8805 18.0176 24.5831 17.9826 24.2858C17.9126 23.5161 17.7902 21.6094 17.7902 21.6094C18.5773 21.4869 19.5219 21.0496 20.3791 20.4723C21.2537 19.8951 21.5686 19.6502 21.6386 19.6152C21.6735 19.5802 21.7785 19.5802 21.796 19.7551Z" fill="#31363D"/>
</g>
<path fill-rule="evenodd" clip-rule="evenodd" d="M6.13125 18.3396C6.05727 18.2417 5.96989 18.126 5.94544 18.0096C5.99997 18.9887 4.8533 19.1672 3.99929 19.2823C4.13542 19.2696 4.26841 19.2654 4.40006 19.2612C4.68397 19.2522 4.96162 19.2434 5.25097 19.1498C5.36271 19.1123 5.45608 19.0518 5.54332 18.9953C5.72677 18.8765 5.88312 18.7752 6.12621 18.9424C6.30622 18.4642 6.56988 18.5408 6.82917 18.6161C7.04137 18.6777 7.25065 18.7384 7.40876 18.4936L7.42546 18.5006C7.67397 18.6049 8.06345 18.7683 8.38057 18.8495C8.41119 18.8769 8.44235 18.9047 8.47393 18.933C8.63432 19.0762 8.80558 19.2292 8.97172 19.3892C8.99142 19.4116 9.0123 19.4338 9.0333 19.4562C9.09299 19.5197 9.15373 19.5844 9.19143 19.6575C9.25244 19.7637 9.30612 19.8799 9.35246 20.0061C9.39606 20.1118 9.43686 20.2213 9.47549 20.3337C9.26215 20.2112 9.0058 20.0507 8.70016 19.8418C8.70016 19.8418 9.35832 20.5716 9.68393 21.05C9.72548 21.2245 9.76 21.3971 9.7844 21.567C9.78295 21.5698 9.7815 21.5725 9.78005 21.5753C9.69988 21.7279 9.62221 21.8758 9.50831 21.9803C9.43371 22.0673 9.35911 22.1419 9.27208 22.204C9.18505 22.2662 9.09802 22.3284 9.02342 22.3408C8.92218 22.3661 8.79231 22.3056 8.65324 22.2407C8.58737 22.21 8.51944 22.1783 8.45151 22.1543L8.45145 22.1543C8.33957 22.117 8.22769 22.0797 8.11581 22.0549L8.01635 22.0424C7.96662 22.03 7.91689 22.0176 7.87959 22.0176L7.61849 21.9927C7.62815 22.0506 7.65282 22.1086 7.67501 22.1607C7.68138 22.1757 7.68755 22.1902 7.69309 22.204C7.69686 22.2116 7.70062 22.2202 7.70473 22.2297C7.7142 22.2515 7.72549 22.2775 7.74282 22.3035C7.75526 22.3408 7.78013 22.3781 7.79256 22.3905C7.83022 22.4564 7.87501 22.5224 7.91613 22.5829C7.92931 22.6023 7.94211 22.6211 7.95419 22.6392C8.01678 22.7409 8.08429 22.8377 8.15053 22.9327C8.18956 22.9886 8.22814 23.0439 8.26501 23.0992C8.35204 23.236 8.43907 23.3852 8.4888 23.5219C8.46438 23.5952 8.43996 23.6725 8.4151 23.7511C8.36403 23.9127 8.31112 24.0801 8.25258 24.2306C8.23393 24.2431 8.2215 24.2524 8.20906 24.2617C8.19663 24.271 8.1842 24.2804 8.16555 24.2928C8.1469 24.3052 8.12514 24.3177 8.10338 24.3301C8.08162 24.3425 8.05987 24.355 8.04122 24.3674C8.05365 24.3923 8.06297 24.4171 8.0723 24.442C8.08162 24.4668 8.09095 24.4917 8.10338 24.5166C8.09717 24.5228 8.09095 24.5321 8.08473 24.5414C8.07852 24.5508 8.0723 24.5601 8.06608 24.5663C7.96316 24.7067 7.83031 24.7889 7.70463 24.8667C7.4963 24.9957 7.30767 25.1125 7.30767 25.4615C6.99114 25.8473 6.59592 26.0363 6.14078 26.254C6.02384 26.3099 5.90294 26.3677 5.77841 26.4313C5.91748 26.5458 5.97043 26.6926 6.02226 26.8363C6.0492 26.911 6.07583 26.9849 6.11411 27.0529C6.05816 27.0467 5.996 27.0498 5.93383 27.0529C5.87166 27.056 5.8095 27.0591 5.75355 27.0529C6.05194 27.4881 5.89031 28.0724 5.29353 27.9605C5.1319 28.6816 5.02 29.0422 4.72161 29.2908C3.9771 29.3029 3.26738 29.0017 2.55885 28.7011C2.53379 28.6904 2.50873 28.6798 2.48368 28.6692C2.47499 29.0166 2.75758 29.2184 3.05588 29.4315C3.18456 29.5234 3.31617 29.6173 3.42858 29.726C3.53402 29.837 3.63451 29.9728 3.73778 30.1123C3.86588 30.2853 3.99826 30.4642 4.14969 30.6087C4.17242 30.639 4.19514 30.6682 4.21751 30.6969C4.26859 30.7624 4.31783 30.8255 4.36106 30.8947C4.341 30.9448 4.32903 30.995 4.32515 31.0125C4.33087 30.9963 4.35378 30.9641 4.38592 30.932C4.43565 31.019 4.48538 31.1185 4.51025 31.2304C4.54635 31.3748 4.37276 31.9583 4.25113 32.3671C4.20522 32.5214 4.16673 32.6508 4.14969 32.7223C3.09289 32.8467 1.402 36.5641 2.58314 37.2853C2.57181 37.4552 2.6586 37.6226 2.74467 37.7886C2.84745 37.9869 2.9492 38.1831 2.88153 38.3794C2.83941 38.5057 2.6669 38.5317 2.50065 38.5567C2.22527 38.5981 1.96703 38.6369 2.34691 39.1253C1.20962 40.3189 1.05136 42.6445 0.939259 44.2918C0.927584 44.4633 0.91641 44.6275 0.904684 44.7823C0.988403 44.4289 1.06429 44.0758 1.13976 43.7247C1.46774 42.1989 1.78769 40.7105 2.70747 39.3864C2.78721 39.2729 2.98154 39.048 3.23278 38.7573C4.27422 37.5521 6.29347 35.2155 5.18163 34.9852C5.40543 34.7241 5.74111 34.8733 6.00221 35.097C6.00729 34.9904 6.02897 34.9231 6.0486 34.8623C6.07702 34.7741 6.10114 34.6993 6.06437 34.5376C6.3752 34.5997 6.77305 34.637 7.07144 34.4257C6.6686 33.6122 7.0912 33.127 7.56323 32.5851C7.84875 32.2573 8.15236 31.9087 8.30231 31.4542C8.39484 31.1708 8.42012 30.9385 8.44447 30.7148C8.47246 30.4576 8.49922 30.2117 8.62557 29.9125C8.81206 29.4773 9.20992 28.6443 9.68237 29.1044C10.0678 28.5076 10.3413 28.3708 10.9878 28.3708L11.0127 28.3957C11.2116 28.5822 11.3857 28.7687 11.5349 28.9925L11.5473 29.0049C11.5631 29.0069 11.5783 29.0079 11.5929 29.0089C11.6699 29.0141 11.7293 29.0182 11.7711 29.1541C12.0212 29.054 12.6176 29.3082 12.9899 29.5215C12.8592 29.7117 12.7518 29.9341 12.6469 30.1514C12.5625 30.3262 12.4798 30.4977 12.3877 30.6464C12.5553 30.5545 12.7172 30.4615 12.8762 30.37C13.4487 30.0409 13.9844 29.7329 14.615 29.579C14.7863 29.9687 15.0486 30.2412 15.3067 30.5093C15.4844 30.6938 15.6601 30.8763 15.8027 31.0935C15.9192 31.2729 16.0035 31.4716 16.0897 31.6749C16.2287 32.0028 16.3728 32.3425 16.665 32.632C16.3411 32.7803 16.199 32.9537 16.1408 33.2653C16.7293 32.8895 16.8092 32.9955 16.9668 33.2046C17.0411 33.3032 17.1327 33.4246 17.3029 33.5292C17.487 33.6397 17.7022 33.714 17.9197 33.7892C18.2587 33.9063 18.6032 34.0253 18.8442 34.2858C18.9267 34.37 18.9919 34.529 19.059 34.6923C19.121 34.8434 19.1846 34.9982 19.2648 35.1012C19.3482 35.2083 19.4511 35.2835 19.5527 35.3578C19.6544 35.432 19.7547 35.5054 19.8331 35.6088C20.2324 36.1161 20.5205 36.4806 20.9371 36.9851C21.8011 38.0569 22.4459 39.29 23.0901 40.5222C23.4819 41.2714 23.8734 42.0202 24.314 42.7321C23.7972 41.8695 23.4269 40.8712 23.0571 39.874C22.558 38.5284 22.0597 37.1847 21.203 36.1786C21.4596 35.9328 21.8293 35.8781 22.1914 35.8246C22.4085 35.7924 22.6228 35.7607 22.8083 35.6885C22.5368 35.6732 22.3345 35.6859 22.1724 35.696C21.7077 35.725 21.5743 35.7334 21.0913 35.0037C20.8851 34.687 20.6177 34.4034 20.3551 34.1247C20.0817 33.8346 19.8135 33.5499 19.6244 33.2391C19.0224 32.2295 19.1427 30.716 20.0728 30.1175C19.6384 30.1851 19.094 30.0029 18.7608 29.8057C18.6156 29.4965 18.5255 29.1163 18.4359 28.7378C18.3284 28.2839 18.2215 27.8326 18.0208 27.5097C18.0338 27.6573 18.0084 27.7914 17.9827 27.9263C17.9626 28.0319 17.9425 28.1381 17.9406 28.2517C17.9089 28.1708 17.8501 28.0966 17.7922 28.0235C17.7421 27.9602 17.6926 27.8978 17.6618 27.8325C17.573 27.8908 17.4595 27.9618 17.358 27.9954C17.3388 27.9189 17.2959 27.8402 17.2517 27.7594C17.1872 27.6412 17.1203 27.5186 17.1216 27.3916C16.6432 27.2551 16.4918 26.3417 16.3439 25.4498C16.2673 24.9877 16.1916 24.5314 16.0719 24.1918C16.1391 24.0999 16.2086 24.0225 16.2839 23.9386C16.2908 23.9309 16.2977 23.9232 16.3047 23.9154C16.5839 23.7651 16.863 23.6149 16.9896 23.3995C16.9832 23.3871 16.9787 23.3723 16.9742 23.3574C16.9696 23.3425 16.9651 23.3277 16.9587 23.3153C16.9913 23.2854 17.0252 23.264 17.0536 23.246C17.0659 23.2382 17.0772 23.2311 17.0869 23.2242C17.0915 23.1968 17.1008 23.1419 17.1127 23.1045C17.1301 23.1018 17.1448 23.0817 17.1521 23.0717C17.1508 23.063 17.1476 23.0568 17.1444 23.0506C17.1412 23.0445 17.138 23.0383 17.1367 23.0296C17.134 23.0122 17.1486 22.9921 17.156 22.9821L17.1058 22.9454L17.1031 22.9281C17.4097 22.8397 17.5193 22.6471 17.6364 22.4412C17.7502 22.2412 17.871 22.0287 18.1867 21.8874C17.8094 21.9402 17.4805 22.1516 17.1515 22.3629C16.9871 22.4686 16.8226 22.5743 16.6521 22.6602C16.2339 22.4316 15.6841 22.2147 15.3486 22.2313C15.3436 22.2277 15.3404 22.2215 15.3372 22.2153C15.334 22.2091 15.3309 22.203 15.3258 22.1993C14.9471 21.6513 14.5172 21.4745 14.2102 21.4169C14.1705 21.3533 14.1359 21.2876 14.1085 21.2218C14.1034 21.2066 14.0988 21.1913 14.0945 21.1758C14.2604 21.0088 14.2218 20.8044 14.1243 20.6172C14.1685 20.5004 14.2318 20.3854 14.295 20.2769C14.4454 20.0263 14.6443 19.7918 14.846 19.554C14.8945 19.4969 14.9431 19.4395 14.9913 19.3818L15.0072 19.3622C15.2262 19.0946 15.4554 18.8146 15.6253 18.499C15.6456 18.5071 15.6658 18.5165 15.6852 18.5256C15.7254 18.5442 15.7618 18.5612 15.787 18.5612L16.0356 18.6234L15.961 18.3871C15.9548 18.3685 15.9517 18.3498 15.9486 18.3312C15.9455 18.3125 15.9424 18.2939 15.9362 18.2752L15.9237 18.2131L15.9859 18.2379L16.0232 18.2504C16.0414 18.2504 16.0529 18.257 16.0676 18.2655C16.0729 18.2686 16.0787 18.2719 16.0854 18.2752C16.1351 18.2877 16.1724 18.3125 16.2221 18.3498L16.5827 18.6606L16.5081 18.3498C16.4956 18.2939 16.4832 18.241 16.4708 18.1882C16.4583 18.1354 16.4459 18.0825 16.4335 18.0266L16.421 17.952L16.4086 17.9147L16.3962 17.8401L16.3713 17.6784C16.3464 17.4671 16.334 17.2557 16.3464 17.0444C16.3589 16.7957 16.3962 16.5595 16.4583 16.3232C16.5203 16.282 16.5902 16.2428 16.6603 16.2036C16.928 16.0538 17.1978 15.9029 17.0303 15.627C17.0303 15.579 17.0358 15.5421 17.0412 15.5063C17.0498 15.4494 17.058 15.3953 17.0427 15.3037C17.2644 15.4285 17.3819 15.3254 17.5113 15.2118C17.6141 15.1216 17.7244 15.0247 17.9006 15.0302C17.6729 14.8616 17.7483 14.527 17.8166 14.2245C17.849 14.081 17.8797 13.9447 17.8757 13.8367L19.952 14.3713C19.6188 14.1269 19.2327 13.9223 18.9066 13.7494C18.6851 13.632 18.4913 13.5293 18.3606 13.4388C18.4239 13.3473 18.5749 13.2718 18.712 13.2031C18.8172 13.1505 18.9142 13.1019 18.9574 13.0534C19.059 12.9444 19.1183 12.6913 19.1748 12.45C19.215 12.2782 19.2538 12.1124 19.3055 12.009C19.3677 11.8847 19.4423 11.7603 19.5169 11.636C19.5583 11.5904 19.6011 11.5435 19.6439 11.4965C19.7296 11.4026 19.8152 11.3086 19.8898 11.2257C19.9085 11.2133 19.924 11.2009 19.9396 11.1884C19.9551 11.176 19.9707 11.1636 19.9893 11.1511C20.0797 11.0808 20.1944 11.0349 20.3138 10.987C20.3422 10.9756 20.3709 10.9642 20.3996 10.9522C20.6358 11.0268 20.8845 11.1014 21.1207 11.1636C21.0552 11.1111 20.969 11.0553 20.8802 10.9978C20.8005 10.9462 20.7188 10.8932 20.6483 10.8403C20.7726 10.7657 20.8596 10.6662 20.9094 10.517C20.8845 10.517 20.7975 10.5543 20.7975 10.5543C20.8355 10.4687 20.9173 10.3176 20.9591 10.2402C20.9719 10.2164 20.981 10.1996 20.984 10.1938C21.2272 10.2784 21.6864 9.71519 22.0248 9.30019C22.0842 9.22736 22.1398 9.15909 22.1899 9.09969C22.2148 9.08725 22.2272 9.07482 22.2397 9.06239C22.6375 8.75156 22.8986 8.51534 23.0354 8.37857L23.1349 8.27911C23.1195 8.28679 23.0946 8.30873 23.0603 8.33903C23.039 8.35776 23.0142 8.37969 22.9857 8.40344L22.7246 8.58993C22.7871 8.54133 22.8437 8.49757 22.8938 8.45892C23.023 8.35919 23.108 8.29356 23.1349 8.26668C23.1158 8.28189 23.077 8.3099 23.0195 8.35143C22.9606 8.394 22.8819 8.45077 22.7848 8.52251C22.6639 8.62409 22.5125 8.74473 22.3267 8.88833L22.4069 8.80812C22.3888 8.82214 22.3703 8.83644 22.3516 8.85103C22.277 8.90076 22.2148 8.95049 22.1402 9.01266C21.8667 9.19915 21.6056 9.38564 21.3445 9.58457C21.2948 9.62187 21.2481 9.66228 21.2015 9.70269C21.1549 9.74309 21.1083 9.7835 21.0585 9.8208C21.0523 9.8208 21.0492 9.82391 21.0461 9.82702C21.043 9.83012 21.0399 9.83323 21.0337 9.83323C20.9296 9.90637 20.8217 9.98079 20.7107 10.0573C20.3311 10.3191 19.9153 10.6059 19.492 10.9522C19.1936 11.2009 18.8952 11.4744 18.5968 11.7728C18.0871 11.6733 17.627 11.1884 17.3038 10.7533C17.2665 11.1511 17.3411 11.5241 17.7389 11.5614C17.7452 11.5738 17.7545 11.5894 17.7638 11.6049C17.7731 11.6205 17.7825 11.636 17.7887 11.6484C17.7016 11.9593 17.6768 12.4317 17.6643 12.755C17.1919 13.3145 16.7194 13.9237 16.2843 14.5951L16.1102 14.881C16.0605 14.9681 15.9983 15.0551 15.9237 15.1421C15.787 15.3037 15.6005 15.4529 15.4015 15.5151C15.2026 15.5897 14.9664 15.5648 14.7675 15.4654C14.755 15.4592 14.7457 15.4529 14.7364 15.4467C14.7271 15.4405 14.7177 15.4343 14.7053 15.4281C14.7302 15.5275 14.7426 15.627 14.755 15.7265C14.7364 15.7202 14.7177 15.7109 14.6991 15.7016C14.6804 15.6923 14.6618 15.683 14.6431 15.6767C14.5685 15.6394 14.5064 15.6021 14.4442 15.5524C14.4566 15.627 14.4691 15.7016 14.4815 15.7886C14.4939 15.9005 14.4939 16.0249 14.4815 16.1368C14.4815 16.1865 14.4691 16.2487 14.4566 16.2984C14.4566 16.3108 14.4442 16.3357 14.4318 16.3481L14.382 16.3978C14.3237 16.4562 14.2425 16.4993 14.1563 16.5451C14.1324 16.5579 14.108 16.5708 14.0836 16.5843C14.0588 16.5968 14.0339 16.6087 14.0091 16.6206C13.9096 16.6684 13.8101 16.7161 13.7107 16.7957C13.6858 16.8081 13.6485 16.8454 13.6236 16.8703L13.6236 16.8703C13.5988 16.8952 13.5739 16.9325 13.5739 16.9449C13.5677 16.9511 13.5646 16.9604 13.5615 16.9698C13.5584 16.9791 13.5552 16.9884 13.549 16.9946C13.5242 17.0692 13.4993 17.1438 13.4869 17.206C13.4781 17.2541 13.4817 17.3207 13.4851 17.3846C13.4914 17.5024 13.4972 17.6112 13.4247 17.579C12.7782 17.3055 12.6414 17.2557 12.6912 17.3055L12.4208 17.1497C12.4132 17.1198 12.406 17.0894 12.3992 17.0584C12.3776 16.9194 12.3459 16.7731 12.2868 16.6222C12.2559 16.538 12.2177 16.4639 12.1721 16.3998C12.1165 16.3284 12.0837 16.289 11.9678 16.1736C11.9258 16.189 11.8837 16.2044 11.8489 16.2099C11.8402 16.2112 11.829 16.2107 11.8179 16.2102C11.8067 16.2098 11.7955 16.2093 11.7868 16.2106C11.752 16.216 11.7072 16.2141 11.6698 16.2022C11.5802 16.1983 11.5053 16.1744 11.4277 16.1331C11.2752 16.0678 11.1319 15.9478 11.0207 15.8049C10.9095 15.6621 10.8203 15.4891 10.7832 15.3081C10.7597 15.2139 10.7535 15.1169 10.7674 15.0347C10.7693 14.9899 10.7813 14.9525 10.8006 14.905C10.8006 14.905 10.8125 14.8675 10.8272 14.8474C10.8318 14.82 10.8465 14.8 10.8685 14.7698L10.9685 14.6119L10.5372 14.5278L10.2805 14.4788C10.106 14.4437 9.93879 14.3985 9.77162 14.3534L9.77161 14.3534C9.5496 14.2989 9.3523 14.2318 9.14497 14.1573L8.96504 14.0874L8.955 14.0801C8.96504 14.0874 8.97238 14.0774 8.97238 14.0774L9.35653 13.9731L9.74067 13.8688L9.83488 13.8453L9.98853 13.8035L10.3333 13.7321C10.2677 13.6533 10.1947 13.5846 10.1217 13.5159C10.1016 13.5012 10.0834 13.4841 10.0651 13.4669C10.0469 13.4497 10.0287 13.4325 10.0086 13.4178L9.95838 13.3812L9.91822 13.3518L9.64717 13.1538C9.45914 13.0318 9.28114 12.9172 9.10584 12.8199C8.94146 12.7287 8.78353 12.6286 8.63428 12.5341C8.62437 12.5278 8.6145 12.5215 8.60467 12.5153L8.4066 12.386L8.3564 12.3493L8.32629 12.3273C8.32996 12.3223 8.32494 12.3186 8.32117 12.3159C8.31741 12.3131 8.3149 12.3113 8.32358 12.3099C8.35833 12.3045 8.41045 12.2964 8.45253 12.281C8.52936 12.2601 8.6309 12.2265 8.70503 12.1883C8.87065 12.1091 9.00616 12.0079 9.12429 11.9095C9.36789 11.7025 9.52926 11.4817 9.64391 11.3037C9.84657 11.0052 9.95852 10.8098 9.98516 10.7523L9.99249 10.7423C9.99052 10.743 9.9883 10.7438 9.98584 10.7447C9.93601 10.7632 9.78756 10.8182 9.54618 10.8473C9.24813 10.8759 8.82497 10.8439 8.32806 10.681C7.83849 10.5081 7.27052 10.2317 6.76239 9.76808C6.63651 9.64532 6.51797 9.51251 6.41681 9.37701C6.32297 9.23146 6.23647 9.07587 6.20943 8.90214C6.18239 8.7284 6.22754 8.56122 6.35764 8.4253C6.38195 8.39204 6.40811 8.3707 6.43875 8.34569C6.4451 8.34051 6.45164 8.33518 6.4584 8.32955C6.46747 8.31714 6.47757 8.31136 6.49152 8.30339C6.50015 8.29846 6.51025 8.29268 6.52249 8.28398C6.56187 8.25116 6.61128 8.22567 6.6607 8.20019C6.78934 8.14159 6.96078 8.07292 7.12026 8.00904C7.21828 7.96978 7.31179 7.93232 7.38806 7.90013L6.7236 7.8612C6.70121 7.86023 6.68065 7.85676 6.66009 7.85329C6.63953 7.84981 6.61897 7.84634 6.59658 7.84538C6.57785 7.8394 6.56163 7.83525 6.54542 7.8311C6.5292 7.82695 6.51299 7.8228 6.49426 7.81682C6.47612 7.80945 6.46237 7.80528 6.45063 7.80173C6.43164 7.79598 6.41789 7.79182 6.39928 7.77822C6.29156 7.71491 6.19117 7.64156 6.09541 7.5408C5.90389 7.33928 5.74904 7.08757 5.5942 6.83585C5.58492 6.82074 5.57564 6.8056 5.56635 6.79045C5.30114 6.35794 5.02914 5.91436 4.62886 5.60703L4.54855 5.54835L4.47828 5.49701L4.4802 5.45222C4.48598 5.31786 4.45701 5.18891 4.42805 5.05996C4.39263 4.92546 4.18862 4.83554 3.99152 4.74867C3.8254 4.67545 3.66418 4.6044 3.61296 4.51064C3.36957 4.11101 3.22781 3.74386 3.09809 3.40786C2.96663 3.0674 2.84753 2.75892 2.64755 2.48107C2.52012 2.23398 1.94552 1.22905 1.84899 1.06613C1.80951 0.999505 1.73735 0.847204 1.66086 0.685742C1.55029 0.452375 1.43066 0.199869 1.38753 0.159253C1.38173 0.155019 1.38353 0.161465 1.38713 0.174356C1.38976 0.183795 1.39335 0.196688 1.39564 0.211375C1.39857 0.230227 1.40154 0.252007 1.40491 0.276659C1.41704 0.3656 1.43427 0.49193 1.47329 0.653051C1.54204 0.980447 1.66718 1.44142 1.86799 1.98849C2.06881 2.53556 2.33797 3.17875 2.66004 3.876C2.70825 3.98038 2.75826 4.08607 2.80888 4.19303C2.9273 4.4433 3.04901 4.7005 3.15858 4.96395C3.30765 5.35002 3.44204 5.75617 3.57915 6.1797C3.64451 6.39596 3.70727 6.61032 3.76918 6.82177C3.95053 7.44119 4.12459 8.03567 4.33533 8.57993C4.47165 8.9413 4.62265 9.28258 4.7856 9.58642L4.84662 9.69259C4.86206 9.73467 4.88755 9.78409 4.89759 9.79142L4.93775 9.82076C4.94676 9.83823 4.94438 9.83968 4.93962 9.84258C4.93764 9.84378 4.93526 9.84523 4.93312 9.84817L4.90841 9.86092L4.8837 9.87366L4.83428 9.89915C4.81324 9.90687 4.79655 9.91392 4.77985 9.92096C4.76315 9.92801 4.74645 9.93506 4.72541 9.94278C4.65862 9.97097 4.59183 9.99917 4.515 10.02C4.50264 10.0264 4.48961 10.0284 4.47658 10.0304C4.46355 10.0325 4.45052 10.0345 4.43817 10.0409C4.30963 10.3011 4.02587 10.4787 3.73707 10.4525C3.73205 10.4488 3.72771 10.4495 3.72337 10.4502C3.71902 10.4509 3.71468 10.4516 3.70966 10.4479C3.44057 10.6054 3.16607 10.7282 2.87343 10.7916L2.83675 10.8418C3.25102 10.7595 3.67069 10.712 4.08844 10.7092C4.21005 10.6903 4.33167 10.6714 4.46603 10.6771C4.63513 10.6775 4.80231 10.7227 4.98224 10.7925C5.02845 10.8095 5.07546 10.8317 5.12401 10.8546C5.16471 10.8738 5.2065 10.8934 5.24981 10.911L5.39228 10.9689L5.43977 10.9882L5.45985 11.0029L5.44518 11.023L5.43784 11.033L5.42588 11.0705C5.41126 11.1064 5.40396 11.1566 5.39725 11.2026C5.3951 11.2174 5.39301 11.2317 5.39076 11.245C5.38228 11.362 5.39387 11.4936 5.45759 11.6172C5.49311 11.6739 5.54601 11.728 5.60625 11.772C5.66648 11.816 5.74872 11.8299 5.82092 11.8364C5.89312 11.843 5.96995 11.8221 6.0294 11.804L6.07148 11.7885L6.06415 11.7986L6.10045 11.9175C6.1186 11.9769 6.13213 12.0638 6.13483 12.0812C6.1275 12.0912 6.09275 12.0966 5.98852 12.1129L5.98851 12.1129C5.95248 12.1226 5.91807 12.1302 5.88556 12.1374C5.84872 12.1455 5.81431 12.153 5.78273 12.1627L4.6434 12.3311C4.70798 12.3864 5.05057 12.4204 5.36882 12.452C5.65752 12.4806 5.92621 12.5073 5.94917 12.5461C5.96461 12.5881 5.98006 12.6302 5.97814 12.675C5.97453 12.7589 5.92849 12.8598 5.87629 12.9742C5.84486 13.043 5.8112 13.1168 5.78321 13.1947C5.75465 13.297 5.72879 13.4167 5.72764 13.5237L5.72766 13.5237C5.73846 13.5932 5.74117 13.6105 5.74195 13.6727C5.74002 13.7175 5.74813 13.7696 5.75624 13.8217C5.81638 14.1586 5.94843 14.4444 6.0707 14.7091C6.08981 14.7504 6.10867 14.7913 6.12698 14.8317L6.23163 15.0467L6.27527 15.1556C6.28861 15.1743 6.29414 15.1821 6.29899 15.1903C6.30242 15.1961 6.30551 15.2021 6.3108 15.2123L6.33628 15.2618C6.38531 15.3348 6.79173 15.2807 7.0766 15.2428C7.26294 15.218 7.39727 15.2001 7.34551 15.2292C6.53355 15.6999 6.77369 16.0898 6.91196 16.3143C6.92379 16.3335 6.93487 16.3515 6.94448 16.3682C7.17385 16.813 7.43642 17.128 7.65265 17.3168C7.80219 17.4508 7.92356 17.5145 7.9759 17.542C7.9887 17.5487 7.99737 17.5532 8.00131 17.5561C7.99347 17.5504 7.97669 17.5569 7.94968 17.5674C7.9421 17.5703 7.93371 17.5736 7.92448 17.577C7.91469 17.582 7.90313 17.587 7.89033 17.5925C7.83854 17.6148 7.76632 17.6459 7.70751 17.7264C7.67817 17.7666 7.65154 17.8241 7.65232 17.8863C7.59557 17.9218 7.54615 17.9473 7.47936 17.9755C7.33138 18.0494 7.13948 18.0823 6.94805 18.1151C6.63754 18.1683 6.32824 18.2213 6.20956 18.4489C6.18906 18.4162 6.16125 18.3794 6.13125 18.3396ZM22.4069 8.80812L22.4386 8.77643L22.4386 8.77642C22.5008 8.72669 22.5629 8.67696 22.6127 8.62723C22.6686 8.58993 22.7215 8.54953 22.7743 8.50912C22.8271 8.46871 22.88 8.42831 22.9359 8.39101C22.8921 8.43087 22.8418 8.47457 22.7848 8.52251C22.6799 8.59995 22.5535 8.69483 22.4069 8.80812ZM11.2403 25.8702C11.6194 25.7661 11.9405 25.973 11.8731 26.4825C12.5784 26.2125 13.2882 27.6858 13.3481 28.2993C13.3481 28.2993 13.5346 28.2969 13.5446 28.3043C13.2462 28.502 13.0771 28.902 13.1741 29.2962C13.1227 29.3477 13.0749 29.4046 13.0299 29.4654C12.8975 29.3446 12.7502 29.2499 12.5917 29.1665C12.4549 29.0546 12.2933 28.9676 12.1192 28.9303C12.1379 28.9427 12.1534 28.952 12.169 28.9614C12.1845 28.9707 12.2 28.98 12.2187 28.9925C12.1441 28.9552 12.0819 28.9303 12.0073 28.9054C12.026 28.9116 12.0446 28.9147 12.0633 28.9179C12.0819 28.921 12.1006 28.9241 12.1192 28.9303C11.8084 28.7065 11.5225 28.4578 11.6219 28.3086C11.5668 28.2536 11.4931 28.1922 11.4132 28.1259C11.2408 27.9826 11.0401 27.8157 10.9381 27.6373V27.5627C10.9505 27.227 10.9878 26.8043 11.0997 26.3442C11.1324 26.1892 11.1757 26.0288 11.2403 25.8702ZM4.32376 31.019C4.32376 31.019 4.32422 31.0167 4.32515 31.0125C4.32423 31.0151 4.32376 31.0173 4.32376 31.019ZM1.44999 0.405031C1.44464 0.384876 1.43957 0.365784 1.43465 0.34766C1.48099 0.473906 1.52541 0.644938 1.51537 0.637604C1.48763 0.546745 1.46733 0.470311 1.44999 0.405031Z" fill="#FF3A3A"/>
</g>
<defs>
<clipPath id="clip0_1580_19369">
<rect width="23.3703" height="24" fill="white" transform="translate(0 8)"/>
</clipPath>
</defs>
</svg>
