<svg width="29" height="24" viewBox="0 0 29 24" fill="none" xmlns="http://www.w3.org/2000/svg">
<path d="M10.8292 16.2962C10.7787 16.1884 10.6865 16.1059 10.5738 16.0674C10.4611 16.029 10.3377 16.038 10.2318 16.0924C9.99409 16.2107 9.74759 16.3104 9.49451 16.3907C10.552 18.4818 12.8169 19.6749 15.1396 19.3644C13.2705 19.1517 11.6422 17.9926 10.8292 16.2962Z" fill="white"/>
<path d="M8.88486 2.70264L9.52537 3.37185C8.69437 4.18885 8.07053 5.1925 7.70575 6.29927L6.82581 6.0075C7.23791 4.75703 7.94403 3.62369 8.88486 2.70264Z" fill="white"/>
<path d="M8.38643 2.35757C7.63016 2.92286 6.47922 4.41093 6.50635 5.58683C1.49153 5.97759 1.10987 10.3266 1.38126 12.2081C2.83577 17.2446 7.01656 16.7489 8.92515 15.8715C13.7011 21.5809 17.8801 18.4313 19.3726 16.1428C21.7606 18.2052 27.3507 16.8212 28.1648 13.1578C28.8161 10.2271 26.609 8.31854 25.424 7.73058C24.9247 1.89085 20.4567 2.88218 18.4305 3.98572C14.7834 -0.0955783 11.0729 0.349451 8.38643 2.35757Z" fill="#E8EDFC" stroke="#428DFF"/>
<path d="M16.95 9.00898C17.0612 9.00895 17.1615 8.92321 17.2041 8.79172C17.2467 8.66024 17.2231 8.5089 17.1445 8.40825C15.9627 6.89679 14.0469 6.89679 12.8651 8.40825C12.7608 8.54634 12.7623 8.76583 12.8684 8.90158C12.9745 9.03733 13.1461 9.03923 13.2541 8.90587C14.221 7.66918 15.7885 7.66918 16.7555 8.90587C16.807 8.97187 16.877 9.00896 16.95 9.00898Z" fill="#428DFF"/>
<path d="M17.7249 8.01341C17.8362 8.01338 17.9365 7.92764 17.9791 7.79616C18.0216 7.66467 17.9981 7.51333 17.9194 7.41268C17.1457 6.42252 16.0962 5.86621 15.0017 5.86621C13.9073 5.86621 12.8577 6.42252 12.084 7.41268C12.0125 7.50104 11.9838 7.63189 12.009 7.75493C12.0342 7.87797 12.1093 7.97406 12.2055 8.00627C12.3016 8.03847 12.4039 8.00178 12.473 7.9103C13.8697 6.12408 16.1338 6.12408 17.5304 7.9103C17.582 7.9763 17.652 8.01339 17.7249 8.01341Z" fill="#428DFF"/>
<path d="M13.6407 9.4036C13.5364 9.54168 13.5379 9.76118 13.6441 9.89693C13.7502 10.0327 13.9218 10.0346 14.0297 9.90121C14.5672 9.21526 15.4373 9.21526 15.9748 9.90121C16.0827 10.0346 16.2543 10.0327 16.3604 9.89693C16.4666 9.76118 16.468 9.54168 16.3638 9.4036C15.6113 8.44327 14.3932 8.44327 13.6407 9.4036Z" fill="#428DFF"/>
<path d="M12.4446 19.9917C12.4179 19.935 12.3694 19.8915 12.3101 19.8713C12.2507 19.851 12.1857 19.8558 12.13 19.8844C12.0048 19.9467 11.875 19.9992 11.7417 20.0415C12.2986 21.1427 13.4913 21.771 14.7144 21.6074C13.7301 21.4954 12.8727 20.8851 12.4446 19.9917Z" fill="white"/>
<path d="M11.4316 12.8337L11.7689 13.1862C11.3313 13.6164 11.0028 14.1449 10.8107 14.7277L10.3473 14.5741C10.5643 13.9156 10.9361 13.3188 11.4316 12.8337Z" fill="white"/>
<path d="M11.1396 12.6516C10.7413 12.9492 10.1352 13.7329 10.1495 14.3521C7.50872 14.5579 7.6726 16.8306 7.45065 17.8388C5.50705 26.6683 10.4182 20.23 11.4233 19.768C13.9383 22.7746 16.139 21.116 16.9249 19.9109C18.1825 20.9969 22.4493 25.9653 21.5549 18.339C21.3707 16.7688 20.7356 15.7906 20.1116 15.481C19.8487 12.4058 17.4958 12.9278 16.4288 13.5089C14.5082 11.3597 12.5543 11.5941 11.1396 12.6516Z" fill="#E8EDFC" stroke="#428DFF"/>
<path d="M17.014 18.3948H17.014V18.3964C17.014 18.7392 16.7361 19.0171 16.3933 19.0171C16.0505 19.0171 15.7726 18.7392 15.7726 18.3964C15.7726 18.0536 16.0505 17.7757 16.3933 17.7757L16.3949 17.7756C16.5594 17.7746 16.7175 17.8395 16.8338 17.9558C16.9502 18.0722 17.015 18.2302 17.014 18.3948Z" fill="#E8EDFC" stroke="#428DFF" stroke-width="0.5"/>
<path d="M12.882 18.3948H12.882V18.3964C12.882 18.7392 12.6041 19.0171 12.2613 19.0171C11.9185 19.0171 11.6406 18.7392 11.6406 18.3964C11.6406 18.0536 11.9185 17.7757 12.2613 17.7757L12.2629 17.7756C12.4274 17.7746 12.5855 17.8395 12.7019 17.9558C12.8182 18.0722 12.8831 18.2302 12.882 18.3948Z" fill="#E8EDFC" stroke="#428DFF" stroke-width="0.5"/>
<path d="M12.2189 15.2469H11.8346V14.8626C11.8346 14.6503 11.6625 14.4783 11.4503 14.4783C11.238 14.4783 11.066 14.6503 11.066 14.8626V15.2469H10.6817C10.4694 15.2469 10.2974 15.4189 10.2974 15.6312C10.2974 15.8434 10.4694 16.0155 10.6817 16.0155H11.066V16.3998C11.066 16.612 11.238 16.7841 11.4503 16.7841C11.6625 16.7841 11.8346 16.612 11.8346 16.3998V16.0155H12.2189C12.4311 16.0155 12.6032 15.8434 12.6032 15.6312C12.6032 15.4189 12.4311 15.2469 12.2189 15.2469Z" fill="#428DFF"/>
<path d="M18.3677 15.2469H17.9834V14.8626C17.9834 14.6503 17.8113 14.4783 17.5991 14.4783C17.3868 14.4783 17.2148 14.6503 17.2148 14.8626V15.2469H16.8305C16.6182 15.2469 16.4462 15.4189 16.4462 15.6312C16.4462 15.8434 16.6182 16.0155 16.8305 16.0155H17.2148V16.3998C17.2148 16.612 17.3868 16.7841 17.5991 16.7841C17.8113 16.7841 17.9834 16.612 17.9834 16.3998V16.0155H18.3677C18.5799 16.0155 18.752 15.8434 18.752 15.6312C18.752 15.4189 18.5799 15.2469 18.3677 15.2469Z" fill="#428DFF"/>
<path d="M15.2932 14.4783H13.756C13.5438 14.4783 13.3717 14.6503 13.3717 14.8626C13.3717 15.0748 13.5438 15.2469 13.756 15.2469H15.2932C15.5054 15.2469 15.6775 15.0748 15.6775 14.8626C15.6775 14.6503 15.5054 14.4783 15.2932 14.4783Z" fill="#428DFF"/>
<path d="M15.2932 16.0154H13.756C13.5438 16.0154 13.3717 16.1874 13.3717 16.3997C13.3717 16.6119 13.5438 16.784 13.756 16.784H15.2932C15.5054 16.784 15.6775 16.6119 15.6775 16.3997C15.6775 16.1874 15.5054 16.0154 15.2932 16.0154Z" fill="#428DFF"/>
</svg>
