<svg width="22" height="21" viewBox="0 0 22 21" fill="none" xmlns="http://www.w3.org/2000/svg">
<path d="M11.4149 2.09961L1 12.5145" stroke="#A4C2F7" stroke-width="2" stroke-dasharray="2 2"/>
<path d="M19.171 9.58594L8.7561 20.0008" stroke="#A4C2F7" stroke-width="2" stroke-dasharray="2 2"/>
<path d="M11.1269 8.12793L2.0499 16.934" stroke="#A4C2F7" stroke-width="2" stroke-dasharray="2 2"/>
<path d="M12.8882 9.95703L3.81122 18.7631" stroke="#A4C2F7" stroke-width="2" stroke-dasharray="2 2"/>
<mask id="mask0_2268_9786" style="mask-type:luminance" maskUnits="userSpaceOnUse" x="8" y="0" width="14" height="13">
<path d="M8.75208 0H21.2838V12.5317H8.75208V0Z" fill="white"/>
</mask>
<g mask="url(#mask0_2268_9786)">
<path d="M15.4956 5.91851L15.4956 5.9185C15.4294 5.82579 15.3483 5.74457 15.2554 5.67828C15.2554 5.67827 15.2554 5.67825 15.2554 5.67824L11.2245 2.79901L11.0808 3.00012L11.2245 2.79901C10.9791 2.62377 10.9498 2.27018 11.163 2.05699C11.3041 1.91592 11.5169 1.87494 11.7002 1.95353L16.9643 4.20959L19.2204 9.47364C19.299 9.65703 19.258 9.8698 19.1169 10.0109C18.9037 10.2241 18.5501 10.1948 18.3749 9.94945L15.4956 5.91851Z" fill="url(#paint0_linear_2268_9786)" stroke="#428DFF" stroke-width="0.5"/>
<path d="M12.4308 8.03526L12.4308 8.03525C12.8818 7.48926 13.4517 6.80467 14.0825 6.05911C15.0969 4.86035 16.5473 3.34881 17.3965 2.47936C17.7884 2.07813 18.3266 1.85547 18.8902 1.85547C19.1267 1.85547 19.3184 2.04719 19.3184 2.2837C19.3184 2.84733 19.0957 3.38547 18.6945 3.7774C17.8251 4.62665 16.3135 6.07702 15.1148 7.09134L15.1148 7.09135C14.3692 7.72221 13.6846 8.29207 13.1386 8.74308L13.1386 8.7431C12.9441 8.90379 12.8618 9.1634 12.9281 9.40687L12.9281 9.40689L13.1753 10.3132C13.1753 10.3132 13.1753 10.3132 13.1753 10.3132C13.1887 10.3623 13.1748 10.4147 13.1389 10.4506L13.1388 10.4506L13.1009 10.4886L13.2673 10.655L13.1009 10.4886C13.0456 10.5439 12.956 10.5439 12.9006 10.4886C12.9006 10.4886 12.9006 10.4886 12.9006 10.4886L11.7937 9.38164L11.7934 9.38132L11.793 9.38096L11.793 9.38094L11.7923 9.38025L11.7923 9.38023L10.6853 8.27331C10.63 8.21797 10.63 8.1283 10.6853 8.07297L10.7232 8.03515L10.7233 8.03506C10.7592 7.99913 10.8116 7.9852 10.8607 7.99857L11.767 8.24576L11.767 8.24576C12.0105 8.31215 12.2701 8.22976 12.4308 8.03526Z" fill="url(#paint1_linear_2268_9786)" stroke="#428DFF" stroke-width="0.5"/>
</g>
<defs>
<linearGradient id="paint0_linear_2268_9786" x1="9.1803" y1="1.0247" x2="12.1296" y2="-1.58894" gradientUnits="userSpaceOnUse">
<stop stop-color="#1C92FF"/>
<stop offset="1" stop-color="#24CAFF"/>
</linearGradient>
<linearGradient id="paint1_linear_2268_9786" x1="19.0351" y1="0.177105" x2="21.9691" y2="6.44648" gradientUnits="userSpaceOnUse">
<stop stop-color="#A0F9FF"/>
<stop offset="1" stop-color="#18ACFF"/>
</linearGradient>
</defs>
</svg>
