<svg width="21" height="22" viewBox="0 0 21 22" fill="none" xmlns="http://www.w3.org/2000/svg">
<path d="M11.1744 2.9375L0.90625 13.2057" stroke="#A4C2F7" stroke-width="2" stroke-dasharray="2 2"/>
<path d="M18.8228 10.3184L8.55469 20.5865" stroke="#A4C2F7" stroke-width="2" stroke-dasharray="2 2"/>
<path d="M10.8945 8.88086L1.94531 17.5629" stroke="#A4C2F7" stroke-width="2" stroke-dasharray="2 2"/>
<path d="M12.6288 10.6836L3.67969 19.3656" stroke="#A4C2F7" stroke-width="2" stroke-dasharray="2 2"/>
<mask id="mask0_5436_5120" style="mask-type:luminance" maskUnits="userSpaceOnUse" x="8" y="0" width="13" height="14">
<path d="M8.55469 0.867188H20.9099V13.2224H8.55469V0.867188Z" fill="white"/>
</mask>
<g mask="url(#mask0_5436_5120)">
<path d="M15.2009 6.70027L15.2009 6.70028L18.0396 10.6744C18.2111 10.9146 18.5571 10.9432 18.7658 10.7346C18.7658 10.7346 18.7658 10.7346 18.7658 10.7345M15.2009 6.70027L19.0968 10.1103C19.214 10.3837 19.1529 10.701 18.9426 10.9113L18.7658 10.7345M15.2009 6.70027C15.1354 6.60856 15.0551 6.52821 14.9632 6.46262C14.9632 6.46261 14.9632 6.46259 14.9632 6.46258L10.9891 3.62391L10.8519 3.81587L10.9891 3.62391C10.7489 3.4524 10.7203 3.10634 10.9289 2.89769C11.067 2.75963 11.2752 2.71953 11.4547 2.79644L16.6434 5.02016L18.867 10.2088C18.944 10.3883 18.9039 10.5965 18.7658 10.7345M15.2009 6.70027L18.7658 10.7345" fill="url(#paint0_linear_5436_5120)" stroke="#428DFF" stroke-width="0.5"/>
<path d="M12.1829 8.79068L12.1829 8.79067C12.6275 8.25238 13.1894 7.57745 13.8113 6.84241C14.8113 5.66064 16.2411 4.17047 17.0784 3.31327C17.4642 2.91838 17.9938 2.69922 18.5486 2.69922C18.7798 2.69922 18.9672 2.88666 18.9672 3.11789C18.9672 3.67265 18.7481 4.2023 18.3532 4.58803C17.496 5.42532 16.0058 6.85518 14.8241 7.85513L14.824 7.85513C14.089 8.4771 13.4141 9.03892 12.8758 9.48357L12.8758 9.48359C12.683 9.6429 12.6013 9.90027 12.6671 10.1417L12.6671 10.1417L12.9108 11.0352C12.9108 11.0353 12.9108 11.0353 12.9108 11.0353C12.9236 11.0824 12.9102 11.1328 12.8758 11.1673L12.8757 11.1673L12.8383 11.2047L13.0033 11.3697L12.8383 11.2047C12.7852 11.2578 12.699 11.2579 12.6458 11.2047L11.5545 10.1134L11.5542 10.1131L11.5538 10.1127L11.5538 10.1127L11.5531 10.112L11.5531 10.112L10.4618 9.02064C10.4086 8.96746 10.4086 8.88129 10.4618 8.8281L10.4991 8.79082L10.4992 8.79073C10.5337 8.7562 10.5841 8.74281 10.6312 8.75566L11.5248 8.99937L11.5248 8.99937C11.7662 9.06519 12.0236 8.9835 12.1829 8.79068Z" fill="url(#paint1_linear_5436_5120)" stroke="#428DFF" stroke-width="0.5"/>
</g>
<defs>
<linearGradient id="paint0_linear_5436_5120" x1="8.97165" y1="1.87746" x2="11.8794" y2="-0.699369" gradientUnits="userSpaceOnUse">
<stop stop-color="#1C92FF"/>
<stop offset="1" stop-color="#24CAFF"/>
</linearGradient>
<linearGradient id="paint1_linear_5436_5120" x1="18.6914" y1="1.04098" x2="21.5841" y2="7.22204" gradientUnits="userSpaceOnUse">
<stop stop-color="#A0F9FF"/>
<stop offset="1" stop-color="#18ACFF"/>
</linearGradient>
</defs>
</svg>
