<svg width="48" height="48" viewBox="0 0 48 48" fill="none" xmlns="http://www.w3.org/2000/svg">
<circle cx="24" cy="24" r="23.25" stroke="black" stroke-width="1.5"/>
<path d="M22.2321 26.0463L22.5023 26.0474C26.5158 26.0822 28.7963 26.9057 28.7963 29.1129C28.7963 31.2682 26.6246 32.0901 22.7684 32.1575L22.2321 32.1621C18.051 32.1621 15.668 31.3517 15.668 29.0954C15.668 26.8417 18.0405 26.0463 22.2321 26.0463ZM22.2321 27.2963L21.9515 27.2976C18.6291 27.3295 16.918 27.9345 16.918 29.0954C16.918 30.2956 18.7309 30.9121 22.2321 30.9121C25.7378 30.9121 27.5463 30.3056 27.5463 29.1129C27.5463 27.9128 25.7334 27.2963 22.2321 27.2963ZM30.0044 20.5987C30.3208 20.5987 30.5823 20.8338 30.6237 21.1389L30.6294 21.2237L30.6288 22.2693L31.7093 22.2694C32.0545 22.2694 32.3343 22.5493 32.3343 22.8944C32.3343 23.2108 32.0992 23.4723 31.7941 23.5137L31.7093 23.5194L30.6288 23.5193L30.6294 24.5653C30.6294 24.9105 30.3496 25.1903 30.0044 25.1903C29.688 25.1903 29.4265 24.9552 29.3851 24.6502L29.3794 24.5653L29.3788 23.5193L28.301 23.5194C27.9558 23.5194 27.676 23.2396 27.676 22.8944C27.676 22.578 27.9111 22.3165 28.2162 22.2751L28.301 22.2694L29.3788 22.2693L29.3794 21.2237C29.3794 20.8785 29.6592 20.5987 30.0044 20.5987ZM22.2321 15.666C24.6906 15.666 26.6638 17.6392 26.6638 20.0977C26.6638 22.5556 24.6904 24.5293 22.2321 24.5293C19.7745 24.5293 17.8005 22.5554 17.8005 20.0977C17.8005 17.6394 19.7742 15.666 22.2321 15.666ZM22.2321 16.916C20.4645 16.916 19.0505 18.3298 19.0505 20.0977C19.0505 21.865 20.4648 23.2793 22.2321 23.2793C24 23.2793 25.4138 21.8653 25.4138 20.0977C25.4138 18.3295 24.0003 16.916 22.2321 16.916Z" fill="black"/>
</svg>
