<svg width="36" height="36" viewBox="0 0 36 36" fill="none" xmlns="http://www.w3.org/2000/svg">
<g filter="url(#filter0_b_5_19056)">
<rect width="36" height="36" rx="18" fill="white" fill-opacity="0.2"/>
</g>
<path d="M18.8914 8.10156C19.5847 8.10128 20.2485 8.37485 20.7318 8.85995C21.215 9.34504 21.4764 10.0004 21.4554 10.6119L21.4637 10.7558C21.4806 10.8974 21.5278 11.0341 21.6045 11.1601C21.7538 11.4086 21.9982 11.5889 22.2839 11.6613C22.5696 11.7337 22.8731 11.6922 23.1605 11.5281L23.3206 11.4474C24.5233 10.8957 25.9657 11.3341 26.6328 12.4639L27.2323 13.4792C27.2481 13.5059 27.2621 13.5336 27.2741 13.562L27.3297 13.6707C27.8659 14.7876 27.4844 16.116 26.4656 16.791L26.2141 16.9452C26.0826 17.0347 25.9729 17.1516 25.8904 17.292C25.7415 17.5415 25.7007 17.8386 25.7769 18.1175C25.8531 18.3964 26.0401 18.6342 26.3238 18.7943L26.4871 18.8964C26.9802 19.233 27.3364 19.7291 27.4918 20.2977C27.6671 20.9392 27.5731 21.6225 27.2259 22.204L26.5809 23.2525L26.4837 23.4004C25.7259 24.4638 24.2545 24.7887 23.1317 24.1563L22.9986 24.0893C22.8598 24.0288 22.71 23.9955 22.5736 23.9917C22.277 23.9904 21.9921 24.1047 21.7823 24.3094C21.5726 24.5141 21.4554 24.7921 21.4562 25.1154L21.4482 25.2825C21.3396 26.5768 20.2294 27.5796 18.8917 27.5796H17.6838C16.2671 27.5796 15.1187 26.4588 15.1201 25.1208L15.1118 24.977C15.0949 24.8353 15.0477 24.6986 14.9671 24.5661C14.8211 24.317 14.5792 24.1351 14.2951 24.0609C14.011 23.9867 13.7083 24.0264 13.4153 24.1917L13.2413 24.2765C12.6908 24.5181 12.0698 24.5627 11.4879 24.4014C10.8315 24.2193 10.2764 23.7894 9.95249 23.2188L9.32931 22.1688L9.24637 22.0132C8.67887 20.8442 9.1237 19.439 10.2527 18.8022L10.3557 18.7393C10.6573 18.5356 10.8381 18.1997 10.8381 17.8406C10.8381 17.45 10.6246 17.0891 10.2511 16.8779L10.0995 16.783C9.00979 16.0435 8.67683 14.6077 9.3519 13.4648L9.98676 12.4468C10.6928 11.2509 12.2576 10.8384 13.461 11.5119L13.5913 11.5796C13.7241 11.6391 13.8684 11.6707 14.0073 11.6722C14.6198 11.6722 15.1188 11.1923 15.128 10.577L15.1364 10.3881C15.1865 9.80312 15.4466 9.25339 15.8718 8.83644C16.3516 8.36603 17.0037 8.10156 17.6838 8.10156H18.8914ZM18.8917 9.51152H17.6838C17.3881 9.51152 17.1046 9.6265 16.896 9.83103C16.7111 10.0123 16.598 10.2514 16.5781 10.4746L16.565 10.7715C16.4638 12.0662 15.3553 13.0822 13.9997 13.0821C13.6502 13.0785 13.3057 13.0031 12.9544 12.8447L12.7663 12.7479C12.2304 12.4482 11.547 12.6284 11.2299 13.1651L10.595 14.1831C10.3041 14.6758 10.4496 15.3032 10.9001 15.6096L11.155 15.7671C11.8571 16.2304 12.283 17.0059 12.283 17.8406C12.283 18.6631 11.869 19.4319 11.1533 19.9146L11.0009 20.0081C10.4995 20.2912 10.306 20.9025 10.539 21.3839L10.5941 21.4877L11.2093 22.5235C11.3538 22.7779 11.5962 22.9656 11.8829 23.0451C12.137 23.1156 12.4083 23.0961 12.6198 23.004L12.7262 22.9532C13.313 22.6191 14.0123 22.5275 14.6686 22.6989C15.3249 22.8703 15.8839 23.2904 16.2155 23.8562C16.3938 24.1494 16.5067 24.4759 16.5504 24.8511L16.5701 25.1955C16.6309 25.7432 17.1063 26.1696 17.6838 26.1696H18.8917C19.4757 26.1696 19.9609 25.7314 20.0065 25.1946L20.012 25.0884C20.0087 24.4226 20.2783 23.7832 20.7607 23.3124C21.2431 22.8417 21.8984 22.5786 22.5964 22.5821C22.939 22.591 23.2761 22.6659 23.6206 22.8172L23.9296 22.9712C24.4145 23.1789 24.9897 23.0274 25.2812 22.6192L25.3521 22.5111L25.9822 21.4865C26.1311 21.237 26.172 20.9399 26.0957 20.661C26.0282 20.4138 25.8733 20.198 25.6855 20.069L25.4192 19.9048C24.9102 19.569 24.5402 19.064 24.3808 18.4808C24.2055 17.8393 24.2995 17.156 24.6394 16.5868C24.8254 16.2698 25.0811 15.9973 25.4144 15.7713L25.5716 15.6747C26.0722 15.389 26.2656 14.7777 26.0342 14.2944L25.9651 14.1644L25.9527 14.1371L25.3809 13.1679C25.1104 12.7098 24.5477 12.5119 24.0701 12.6683L23.9616 12.7107L23.8607 12.7608C23.2758 13.0971 22.5779 13.1925 21.9208 13.026C21.2637 12.8595 20.7015 12.4448 20.36 11.8766C20.1817 11.5833 20.0688 11.2568 20.0251 10.8816L20.0123 10.6361C20.021 10.3408 19.9068 10.0546 19.6957 9.84273C19.4847 9.63087 19.1948 9.51152 18.8917 9.51152ZM18.2921 14.6577C20.0935 14.6577 21.5538 16.0827 21.5538 17.8406C21.5538 19.5984 20.0935 21.0234 18.2921 21.0234C16.4908 21.0234 15.0305 19.5984 15.0305 17.8406C15.0305 16.0827 16.4908 14.6577 18.2921 14.6577ZM18.2921 16.0676C17.2888 16.0676 16.4753 16.8614 16.4753 17.8406C16.4753 18.8197 17.2888 19.6135 18.2921 19.6135C19.2955 19.6135 20.109 18.8197 20.109 17.8406C20.109 16.8614 19.2955 16.0676 18.2921 16.0676Z" fill="black"/>
<defs>
<filter id="filter0_b_5_19056" x="-10" y="-10" width="56" height="56" filterUnits="userSpaceOnUse" color-interpolation-filters="sRGB">
<feFlood flood-opacity="0" result="BackgroundImageFix"/>
<feGaussianBlur in="BackgroundImageFix" stdDeviation="5"/>
<feComposite in2="SourceAlpha" operator="in" result="effect1_backgroundBlur_5_19056"/>
<feBlend mode="normal" in="SourceGraphic" in2="effect1_backgroundBlur_5_19056" result="shape"/>
</filter>
</defs>
</svg>
