<svg width="59" height="60" viewBox="0 0 59 60" fill="none" xmlns="http://www.w3.org/2000/svg">
<path fill-rule="evenodd" clip-rule="evenodd" d="M42.244 47.2933C41.6932 47.7731 40.9023 47.8532 40.2675 47.4944C37.491 45.1749 36.9876 44.1044 35.478 41.8958C30.8805 46.5949 27.6304 48 21.6861 48C14.6452 47.9992 9.16699 43.6346 9.16699 34.9064C9.16699 28.0888 12.8682 23.4564 18.0506 21.1811C22.5884 19.1811 28.9256 18.8165 33.7749 18.2667V17.1812C33.7749 15.1812 33.9303 12.8166 32.7605 11.0845C31.7387 9.53758 29.7996 8.90598 28.0666 8.90598C24.8755 8.90598 22.0334 10.5488 21.3372 13.9472C21.2491 14.7398 20.6418 15.3739 19.8567 15.4941L11.8172 14.6097C11.4159 14.5521 11.0562 14.3318 10.8211 13.9998C10.586 13.6685 10.4963 13.2547 10.5735 12.855C12.432 2.98117 21.3156 0 29.2737 0C33.3454 0 38.6608 1.0855 41.8593 4.17848C45.9235 7.99986 45.5605 13.1003 45.5605 18.6396V31.7174C45.5605 35.6581 47.1888 37.3827 48.7216 39.502C49.255 40.2454 49.373 41.1749 48.7216 41.7323C47.0119 43.1674 43.9762 45.814 42.3104 47.3083L42.244 47.2933ZM33.8123 26.8172C33.8123 30.0888 33.8863 32.8171 32.2504 35.7391C30.9179 38.1036 28.8076 39.5604 26.454 39.5604C23.2488 39.5604 21.3754 37.1066 21.3754 33.4637C21.3754 26.3116 27.7642 25.01 33.8123 25.01V26.8314V26.8172Z" fill="white"/>
<path fill-rule="evenodd" clip-rule="evenodd" d="M52.9247 51.1982C46.5747 56.9375 37.3565 59.9993 29.4405 59.9993C18.8504 60.0656 8.62188 55.2856 0.758958 46.5956C0.160244 45.9392 0.693107 45.0408 1.40874 45.5503C9.57606 51.3702 19.6716 54.8761 30.1084 54.8761C37.631 54.8259 45.0716 52.9563 52.0028 49.3755C53.0746 48.8179 53.9757 50.241 52.9251 51.2089L52.9247 51.1982ZM55.5652 47.5162C56.3796 48.7886 54.6671 54.0403 53.8977 56.3836C53.6642 57.0914 54.1642 57.3774 54.6883 56.842C58.0924 53.3509 58.9727 46.0383 58.2809 44.9823C57.5895 43.9263 51.6346 43.0312 48 46.1593C47.4402 46.6396 47.536 47.3034 48.1585 47.2116C50.2033 46.9108 54.7602 46.24 55.5716 47.5162" fill="#FF9900"/>
</svg>
