<svg width="159" height="159" viewBox="0 0 159 159" fill="none" xmlns="http://www.w3.org/2000/svg">
<circle opacity="0.5" cx="79.4999" cy="79.4999" r="64.9035" stroke="#616161" stroke-width="27.9184"/>
<path d="M79.5 4C95.6627 4 111.399 9.18677 124.394 18.7974C137.389 28.408 146.956 41.9352 151.69 57.3893L131.58 63.5485C128.166 52.3993 121.263 42.6403 111.888 35.7068C102.513 28.7734 91.1604 25.0314 79.5 25.0314V4Z" fill="#A136F5"/>
<path d="M151.654 57.2726C156.401 72.6824 156.09 89.2072 150.766 104.427C145.443 119.648 135.386 132.764 122.069 141.855C108.752 150.946 92.8739 155.535 76.7601 154.95C60.6464 154.365 45.1432 148.636 32.5206 138.603L45.6073 122.139C54.7137 129.378 65.8983 133.511 77.5234 133.933C89.1484 134.355 100.603 131.044 110.211 124.485C119.818 117.926 127.073 108.464 130.914 97.4836C134.755 86.5032 134.979 74.5815 131.555 63.4643L151.654 57.2726Z" fill="#FFCD2F"/>
</svg>
