<svg width="38" height="38" viewBox="0 0 38 38" fill="none" xmlns="http://www.w3.org/2000/svg">
<path d="M5.13151 9.61132C6.1238 8.91778 7.61961 9.05078 8.51056 9.78655L7.48872 8.30129C6.66639 7.1285 6.9609 5.85964 8.13476 5.03626C9.30861 4.21604 12.6349 6.42123 12.6349 6.42123C11.8051 5.23683 11.9603 3.73573 13.1447 2.90496C14.3291 2.07735 15.9632 2.36343 16.793 3.54994L27.7925 19.0887L26.3907 32.6798L14.6912 28.413L4.48653 13.2828C3.64942 12.091 3.93866 10.4474 5.13151 9.61132Z" fill="#EF9645"/>
<path d="M2.84493 18.256C2.84493 18.256 1.64997 16.5142 3.3928 15.3203C5.13352 14.1264 6.32742 15.8671 6.32742 15.8671L11.8705 23.951C12.0616 23.6322 12.2706 23.3177 12.5039 23.0073L4.8105 11.7892C4.8105 11.7892 3.61659 10.0485 5.35836 8.8546C7.09908 7.66069 8.29299 9.40141 8.29299 9.40141L15.5293 19.9545C15.7985 19.7349 16.074 19.5143 16.3579 19.2979L7.96891 7.06215C7.96891 7.06215 6.77501 5.32143 8.51678 4.12753C10.2575 2.93362 11.4514 4.67434 11.4514 4.67434L19.8404 16.9079C20.1487 16.719 20.4537 16.5554 20.7599 16.3822L12.9187 4.94774C12.9187 4.94774 11.7248 3.20703 13.4655 2.01312C15.2063 0.81921 16.4002 2.55993 16.4002 2.55993L24.691 14.651L25.9514 16.4899C20.7282 20.0727 20.231 26.8128 23.2153 31.1651C23.8117 32.036 24.6826 31.4396 24.6826 31.4396C21.1008 26.2153 22.1945 20.345 27.4187 16.7633L25.8786 9.05516C25.8786 9.05516 25.3033 7.02415 27.3332 6.44778C29.3642 5.87247 29.9406 7.90348 29.9406 7.90348L31.7193 13.1858C32.4245 15.2802 33.175 17.3671 34.1684 19.3411C36.9732 24.9148 35.2979 31.8418 30.0092 35.47C24.2403 39.4254 16.3537 37.9549 12.3972 32.187L2.84493 18.256Z" fill="#FFDC5D"/>
<path d="M12.6674 33.7798C8.44496 33.7798 4.17814 29.513 4.17814 25.2905C4.17814 24.7067 3.75061 24.2349 3.16685 24.2349C2.58309 24.2349 2.06689 24.7067 2.06689 25.2905C2.06689 31.6242 6.33371 35.891 12.6674 35.891C13.2512 35.891 13.7231 35.3748 13.7231 34.7911C13.7231 34.2073 13.2512 33.7798 12.6674 33.7798Z" fill="#5DADEC"/>
<path d="M7.38935 35.8468C4.22248 35.8468 2.11124 33.7355 2.11124 30.5687C2.11124 29.9849 1.63938 29.513 1.05562 29.513C0.471863 29.513 0 29.9849 0 30.5687C0 34.7911 3.16686 37.958 7.38935 37.958C7.9731 37.958 8.44497 37.4861 8.44497 36.9024C8.44497 36.3186 7.9731 35.8468 7.38935 35.8468ZM25.3349 2.06689C24.7522 2.06689 24.2793 2.53981 24.2793 3.12252C24.2793 3.70522 24.7522 4.17814 25.3349 4.17814C29.5574 4.17814 33.7799 7.96676 33.7799 12.6231C33.7799 13.2058 34.2528 13.6787 34.8355 13.6787C35.4182 13.6787 35.8911 13.2058 35.8911 12.6231C35.8911 6.80241 31.6686 2.06689 25.3349 2.06689Z" fill="#5DADEC"/>
<path d="M30.6132 0C30.0305 0 29.5576 0.428582 29.5576 1.01128C29.5576 1.59399 30.0305 2.11124 30.6132 2.11124C33.7801 2.11124 35.847 4.46 35.847 7.34501C35.847 7.92771 36.3632 8.40063 36.947 8.40063C37.5307 8.40063 37.9582 7.92771 37.9582 7.34501C37.9582 3.29459 34.8357 0 30.6132 0Z" fill="#5DADEC"/>
</svg>
