<svg width="26" height="26" viewBox="0 0 26 26" fill="none" xmlns="http://www.w3.org/2000/svg">
<path d="M8.98017 7.69531C7.16859 7.69531 5.6958 9.1681 5.6958 10.9797C5.6958 12.7913 7.16859 14.264 8.98017 14.264C10.7917 14.264 12.2645 12.7913 12.2645 10.9797C12.2645 9.1681 10.7917 7.69531 8.98017 7.69531ZM8.98017 12.3913C8.20378 12.3913 7.57325 11.7608 7.57325 10.9844C7.57325 10.208 8.20378 9.57747 8.98017 9.57747C9.75656 9.57747 10.3871 10.208 10.3871 10.9844C10.3918 11.7561 9.75656 12.3913 8.98017 12.3913Z" fill="white"/>
<path d="M20.7203 3H4.28437C2.47279 3 1 4.47279 1 6.28437V20.3676C1 22.1839 2.47279 23.6567 4.28437 23.6567H20.7156C22.5272 23.6567 24 22.1839 24 20.3723V6.28437C24.0047 4.47279 22.5319 3 20.7203 3ZM21.9955 20.9652C21.7649 21.4593 21.2614 21.7792 20.7156 21.7792H9.82733L15.3985 14.9658C15.6667 14.6976 16.0196 14.5518 16.3961 14.5518C16.7725 14.5518 17.1254 14.6976 17.3936 14.9658L17.4124 14.9846L22.0567 20.8335L21.9955 20.9652ZM22.1272 18.3867L18.7017 13.6248C18.0806 13.0131 17.2619 12.6743 16.3914 12.6743C15.5162 12.6743 14.6927 13.0131 14.0763 13.6295L7.11231 21.7792H4.28907C3.51268 21.7792 2.88216 21.1487 2.88216 20.3723V6.28437C2.88216 5.50798 3.51268 4.87745 4.28907 4.87745H20.7203C21.4967 4.87745 22.1272 5.50798 22.1272 6.28437V18.3867Z" fill="white"/>
</svg>
