<svg width="11" height="10" viewBox="0 0 11 10" fill="none" xmlns="http://www.w3.org/2000/svg">
<path fill-rule="evenodd" clip-rule="evenodd" d="M5.72038 0.833496C6.82413 0.833496 7.88663 1.271 8.66579 2.05433C9.44913 2.83808 9.88704 3.896 9.88704 5.00433C9.88704 6.46266 9.11996 7.81683 7.86996 8.571C6.61996 9.32516 5.06579 9.36683 3.77454 8.67933H3.76163C3.69031 8.65071 3.62691 8.60979 3.56385 8.5691C3.51675 8.53871 3.46984 8.50844 3.41996 8.4835C3.29121 8.42933 3.14496 8.421 3.01204 8.46308C2.70329 8.571 2.39079 8.6585 2.06996 8.7335C1.90329 8.73766 1.85329 8.63766 1.85329 8.47516C1.92829 8.146 2.02829 7.82058 2.14538 7.50433C2.19079 7.36683 2.17871 7.221 2.10788 7.09141L2.02454 6.92933C1.71579 6.34183 1.55371 5.68766 1.55371 5.02558V5.00016C1.55371 3.896 1.99079 2.8335 2.77413 2.05433C3.55746 1.271 4.61579 0.833496 5.72038 0.833496ZM3.79912 5.53766C3.50329 5.53766 3.26579 5.29599 3.26579 5.00432C3.26579 4.70849 3.50329 4.47099 3.79912 4.47099C4.09079 4.47099 4.33287 4.70849 4.33287 5.00432C4.33287 5.29599 4.09079 5.53766 3.79912 5.53766ZM5.18663 5.00432C5.18663 5.29599 5.42455 5.53766 5.72038 5.53766C6.01621 5.53766 6.2533 5.29599 6.2533 5.00432C6.2533 4.70849 6.01621 4.47099 5.72038 4.47099C5.42455 4.47099 5.18663 4.70849 5.18663 5.00432ZM7.10787 5.00432C7.10787 5.29599 7.34912 5.53766 7.64078 5.53766C7.93662 5.53766 8.17412 5.29599 8.17412 5.00432C8.17412 4.70849 7.93662 4.47099 7.64078 4.47099C7.34912 4.47099 7.10787 4.70849 7.10787 5.00432Z" fill="white"/>
</svg>
