<svg width="32" height="32" viewBox="0 0 32 32" fill="none" xmlns="http://www.w3.org/2000/svg">
<path fill-rule="evenodd" clip-rule="evenodd" d="M25.3337 14.6663V10.6663C25.3337 5.51168 21.155 1.33301 16.0003 1.33301C10.8457 1.33301 6.66699 5.51168 6.66699 10.6663V14.6663C6.66699 19.0663 2.66699 20.133 2.66699 22.6663C2.66699 24.933 7.86699 26.6663 16.0003 26.6663C24.1337 26.6663 29.3337 24.933 29.3337 22.6663C29.3337 20.133 25.3337 19.0663 25.3337 14.6663Z" stroke="white" stroke-width="2" stroke-linecap="round" stroke-linejoin="round"/>
<path d="M16 29.3326C14.652 29.3326 13.3854 29.2872 12.1934 29.1992C12.7149 30.8629 14.2565 31.9952 16 31.9952C17.7436 31.9952 19.2851 30.8629 19.8067 29.1992C18.6147 29.2872 17.348 29.3326 16 29.3326Z" fill="white"/>
</svg>
