<svg width="11" height="10" viewBox="0 0 11 10" fill="none" xmlns="http://www.w3.org/2000/svg">
<path fill-rule="evenodd" clip-rule="evenodd" d="M7.77829 1.25C8.33704 1.25 8.87454 1.47083 9.26996 1.86708C9.66579 2.2625 9.88704 2.79583 9.88704 3.35417V6.64583C9.88704 7.80833 8.94121 8.75 7.77829 8.75H3.66204C2.49913 8.75 1.55371 7.80833 1.55371 6.64583V3.35417C1.55371 2.19167 2.49496 1.25 3.66204 1.25H7.77829ZM8.44121 3.975L8.47454 3.94167C8.57413 3.82084 8.57413 3.64584 8.46996 3.525C8.41204 3.46292 8.33246 3.425 8.24954 3.41667C8.16204 3.41209 8.07871 3.44167 8.01579 3.5L6.13704 5C5.89537 5.20042 5.54912 5.20042 5.30371 5L3.42871 3.5C3.29912 3.40417 3.11996 3.41667 3.01204 3.52917C2.89954 3.64167 2.88704 3.82084 2.98246 3.94584L3.03704 4L4.93287 5.47917C5.16621 5.6625 5.44912 5.7625 5.74537 5.7625C6.04079 5.7625 6.32871 5.6625 6.56163 5.47917L8.44121 3.975Z" fill="white"/>
</svg>
