<svg width="24" height="24" viewBox="0 0 24 24" fill="none" xmlns="http://www.w3.org/2000/svg">
<path d="M22.6947 3.72495C22.4393 3.36533 22.0592 3.12666 21.6244 3.05295C21.1895 2.97929 20.752 3.07928 20.3924 3.33457C20.0333 3.58956 19.7948 3.96891 19.7208 4.40294L19.6534 4.78471C14.9052 4.03782 10.0995 4.03684 5.35115 4.7816L5.27892 4.37279C5.12552 3.47656 4.27223 2.87138 3.37534 3.02338C2.47772 3.17559 1.87122 4.0297 2.02339 4.92741L4.59219 20.0771C4.66803 20.5237 5.05674 20.8404 5.4954 20.8404C5.54605 20.8404 5.59745 20.8361 5.64909 20.8274L7.0978 20.5818C7.59597 20.4973 7.93263 20.0232 7.84818 19.5249L6.68346 12.656C10.5541 12.1471 14.4507 12.1467 18.3215 12.6548L17.1516 19.5544C17.1107 19.7958 17.1661 20.0387 17.3079 20.2383C17.4496 20.438 17.6606 20.5704 17.902 20.6114L19.3508 20.857C19.4026 20.8658 19.4544 20.8701 19.506 20.8701C19.6944 20.8701 19.8778 20.812 20.0346 20.7007C20.2342 20.559 20.3667 20.348 20.4076 20.1066L22.9764 4.95698C23.0501 4.52209 22.9501 4.08454 22.6947 3.72495ZM3.23769 4.72151C3.19902 4.49338 3.35315 4.27637 3.58124 4.23769C3.80908 4.19889 4.02638 4.35315 4.06506 4.58124L4.13614 4.98356L3.30599 5.12424L3.23769 4.72151ZM5.75384 19.5604L4.63686 12.9732C4.91253 12.9241 5.1884 12.8779 5.46439 12.8339L6.58121 19.4202L5.75384 19.5604ZM19.2459 19.59L18.4186 19.4497L19.5407 12.8324C19.8167 12.8764 20.0926 12.9224 20.3682 12.9715L19.2459 19.59ZM20.5741 11.7569C15.2162 10.8039 9.79326 10.8041 4.4358 11.7577L3.51233 6.33843L4.99308 6.08749C9.9691 5.24425 15.0151 5.24425 19.9912 6.08749L21.4746 6.33892L20.5741 11.7569ZM21.762 4.751L21.6982 5.12761L20.8683 4.987L20.9347 4.61073C20.9534 4.50023 21.0141 4.40364 21.1055 4.33879C21.1968 4.27395 21.3082 4.24839 21.4185 4.26722C21.529 4.28592 21.6256 4.34663 21.6905 4.43797C21.7553 4.52935 21.7808 4.6405 21.762 4.751Z" fill="#9B9B9B"/>
</svg>
