<svg width="18" height="18" viewBox="0 0 18 18" fill="none" xmlns="http://www.w3.org/2000/svg">
<path d="M15.6667 13.5214L5.47854 3.33325C5.03421 2.88892 4.31384 2.88892 3.8702 3.33325L3.33325 3.86936C2.88892 4.31384 2.88892 5.03421 3.33325 5.47785L13.5214 15.666C13.9658 16.1103 14.6862 16.1103 15.1299 15.666L15.666 15.1299C16.1111 14.6862 16.1111 13.9657 15.6667 13.5214V13.5214Z" fill="#F44336"/>
<path d="M13.5213 3.33412L3.33325 13.5222C2.88892 13.9666 2.88892 14.6871 3.33325 15.1307L3.86936 15.6668C4.31383 16.1112 5.0342 16.1112 5.47784 15.6668L15.6666 5.47941C16.1111 5.03508 16.1111 4.31471 15.6666 3.87107L15.1305 3.33495C14.6862 2.88979 13.9658 2.88979 13.5213 3.33412V3.33412Z" fill="#F44336"/>
</svg>
