<svg width="24" height="25" viewBox="0 0 24 25" fill="none" xmlns="http://www.w3.org/2000/svg">
<path fill-rule="evenodd" clip-rule="evenodd" d="M15.7158 17.6299H8.49585C8.08185 17.6299 7.74585 17.2939 7.74585 16.8799C7.74585 16.4659 8.08185 16.1299 8.49585 16.1299H15.7158C16.1298 16.1299 16.4658 16.4659 16.4658 16.8799C16.4658 17.2939 16.1298 17.6299 15.7158 17.6299Z" fill="#9B9B9B"/>
<path fill-rule="evenodd" clip-rule="evenodd" d="M15.7158 13.4434H8.49585C8.08185 13.4434 7.74585 13.1074 7.74585 12.6934C7.74585 12.2794 8.08185 11.9434 8.49585 11.9434H15.7158C16.1298 11.9434 16.4658 12.2794 16.4658 12.6934C16.4658 13.1074 16.1298 13.4434 15.7158 13.4434Z" fill="#9B9B9B"/>
<path fill-rule="evenodd" clip-rule="evenodd" d="M11.2506 9.2666H8.49561C8.08161 9.2666 7.74561 8.9306 7.74561 8.5166C7.74561 8.1026 8.08161 7.7666 8.49561 7.7666H11.2506C11.6646 7.7666 12.0006 8.1026 12.0006 8.5166C12.0006 8.9306 11.6646 9.2666 11.2506 9.2666Z" fill="#9B9B9B"/>
<mask id="mask0_10531_10340" style="mask-type:alpha" maskUnits="userSpaceOnUse" x="3" y="2" width="19" height="21">
<path fill-rule="evenodd" clip-rule="evenodd" d="M3 2.65625H21.1647V22.566H3V2.65625Z" fill="white"/>
</mask>
<g mask="url(#mask0_10531_10340)">
<path fill-rule="evenodd" clip-rule="evenodd" d="M15.9088 4.15625L8.21976 4.16025C5.89176 4.17425 4.49976 5.61425 4.49976 8.01325V17.2093C4.49976 19.6243 5.90476 21.0662 8.25576 21.0662L15.9448 21.0632C18.2728 21.0492 19.6648 19.6073 19.6648 17.2093V8.01325C19.6648 5.59825 18.2608 4.15625 15.9088 4.15625ZM8.25676 22.5662C5.11276 22.5662 2.99976 20.4132 2.99976 17.2093V8.01325C2.99976 4.78025 5.04676 2.67925 8.21476 2.66025L15.9078 2.65625H15.9088C19.0528 2.65625 21.1648 4.80925 21.1648 8.01325V17.2093C21.1648 20.4412 19.1178 22.5432 15.9498 22.5632L8.25676 22.5662Z" fill="#9B9B9B"/>
</g>
</svg>
