<svg width="24" height="24" viewBox="0 0 24 24" fill="none" xmlns="http://www.w3.org/2000/svg">
<path d="M6.725 9.99312H5.16894C5.43181 6.41 8.43096 3.575 12.08 3.575C14.9675 3.575 17.5804 5.39373 18.5818 8.10072C18.7327 8.50861 19.1857 8.71694 19.5936 8.5661C20.0015 8.41517 20.2099 7.9622 20.059 7.55428C19.4621 5.94085 18.4018 4.5602 16.9927 3.56157C15.5512 2.53999 13.8524 2 12.08 2C9.80826 2 7.67244 2.88468 6.06606 4.49106C4.48062 6.07649 3.59882 8.1777 3.57606 10.4163C2.63492 10.9616 2 11.9793 2 13.1431V15.8206C2 17.5575 3.41309 18.9706 5.15 18.9706H6.725C7.15994 18.9706 7.5125 18.6181 7.5125 18.1831V10.7806C7.5125 10.3457 7.15994 9.99312 6.725 9.99312ZM5.9375 17.3956H5.15C4.28154 17.3956 3.575 16.6891 3.575 15.8206V13.1431C3.575 12.2747 4.28154 11.5681 5.15 11.5681H5.9375V17.3956Z" fill="#9B9B9B"/>
<path d="M19.0099 9.99316H17.4349C16.9999 9.99316 16.6474 10.3457 16.6474 10.7807V16.175V18.1832V19.01C16.6474 19.4443 16.2941 19.7975 15.8599 19.7975H13.458V19.8225C13.1894 19.3381 12.673 19.01 12.0799 19.01C11.21 19.01 10.5049 19.7152 10.5049 20.585C10.5049 21.4549 11.21 22.16 12.0799 22.16C12.673 22.16 13.1894 21.832 13.458 21.3476V21.3725H15.8599C17.1626 21.3725 18.2224 20.3127 18.2224 19.01V18.9707H19.0099C20.7468 18.9707 22.1599 17.5576 22.1599 15.8207V13.1432C22.1599 11.4063 20.7468 9.99316 19.0099 9.99316ZM20.5849 15.8207C20.5849 16.6891 19.8783 17.3957 19.0099 17.3957H18.2224V16.175V11.5682H19.0099C19.8783 11.5682 20.5849 12.2747 20.5849 13.1432V15.8207Z" fill="#9B9B9B"/>
</svg>
