<svg width="36" height="27" viewBox="0 0 36 27" fill="none" xmlns="http://www.w3.org/2000/svg">
<path d="M4 0.5C1.791 0.5 0 2.291 0 4.5V22.5C0 24.709 1.791 26.5 4 26.5H32C34.209 26.5 36 24.709 36 22.5V4.5C36 4.5 36 0.5 32 0.5H4Z" fill="#FFAC33"/>
<path d="M0 5.5H36V10.5H0V5.5Z" fill="#292F33"/>
<path d="M4 14.5H32V20.5H4V14.5Z" fill="#F4F7F9"/>
<path d="M19.0002 19.5C17.2972 19.5 16.6592 18.29 16.5312 17.699C15.9842 17.74 15.4512 18.002 14.7262 18.463C13.9612 18.949 13.0942 19.5 12.0002 19.5C10.8032 19.5 10.0762 18.825 10.0002 17.5C9.99723 17.444 10.0382 17.312 10.0212 17.312C8.16323 17.312 6.81923 19.073 6.80623 19.091C6.61123 19.358 6.30723 19.5 6.00023 19.5C5.79423 19.5 5.58723 19.437 5.40923 19.306C4.96423 18.979 4.86723 18.353 5.19423 17.908C5.27123 17.803 7.11023 15.5 10.0002 15.5C11.9372 15.5 12.0482 16.875 12.0782 17.388L12.0852 17.497C12.5712 17.463 13.0762 17.143 13.6552 16.774C14.6162 16.164 15.8082 15.403 17.4052 15.812C18.2762 16.035 18.4122 16.843 18.4642 17.148C18.4772 17.224 18.4962 17.338 18.5132 17.374C18.5202 17.374 18.6592 17.465 19.0902 17.504C19.9102 17.579 20.8112 17.225 21.7652 16.851C22.7532 16.463 23.7752 16.063 24.8762 16.063C28.2652 16.063 29.6432 17.698 29.7892 17.884C30.1292 18.319 30.0532 18.947 29.6182 19.287C29.4432 19.424 29.2372 19.494 29.0312 19.5C28.7242 19.509 28.4182 19.377 28.2142 19.116C28.1902 19.089 27.2842 18.062 24.8772 18.062C24.1542 18.062 23.3492 18.377 22.4962 18.711C21.4872 19.107 20.0622 19.5 19.0002 19.5Z" fill="#8899A6"/>
</svg>
