<svg width="35" height="35" viewBox="0 0 35 35" fill="none" xmlns="http://www.w3.org/2000/svg">
<path d="M12.5923 33.7191H22.408C30.5878 33.7191 33.8597 30.4472 33.8597 22.2674V12.4517C33.8597 4.27191 30.5878 1 22.408 1H12.5923C4.41253 1 1.14062 4.27191 1.14062 12.4517V22.2674C1.14062 30.4472 4.41253 33.7191 12.5923 33.7191Z" stroke="#7B7B7B" stroke-width="2" stroke-linecap="round" stroke-linejoin="round"/>
<path d="M12.5922 14.0887C14.3992 14.0887 15.8641 12.6239 15.8641 10.8168C15.8641 9.0098 14.3992 7.54492 12.5922 7.54492C10.7852 7.54492 9.32031 9.0098 9.32031 10.8168C9.32031 12.6239 10.7852 14.0887 12.5922 14.0887Z" stroke="#7B7B7B" stroke-width="2" stroke-linecap="round" stroke-linejoin="round"/>
<path d="M2.2373 28.7294L10.3026 23.3144C11.595 22.4474 13.4599 22.5455 14.6215 23.5435L15.1613 24.0179C16.4374 25.114 18.4987 25.114 19.7747 24.0179L26.5803 18.1775C27.8563 17.0814 29.9176 17.0814 31.1937 18.1775L33.8603 20.4679" stroke="#7B7B7B" stroke-width="2" stroke-linecap="round" stroke-linejoin="round"/>
</svg>
