<svg width="155" height="43" viewBox="0 0 155 43" fill="none" xmlns="http://www.w3.org/2000/svg">
<path d="M46.8302 14.0901C46.8271 13.75 46.8918 13.4126 47.0206 13.0978C47.1493 12.7829 47.3395 12.4968 47.5801 12.2563C47.8206 12.0158 48.1067 11.8256 48.4215 11.6968C48.7364 11.5681 49.0738 11.5033 49.4139 11.5064H49.9814C50.4579 11.4991 50.9276 11.6198 51.3415 11.856C51.7554 12.0922 52.0983 12.4351 52.3345 12.849L58.5723 22.9994L64.8517 12.7983C65.0771 12.3876 65.4122 12.0476 65.8195 11.8162C66.2268 11.5848 66.6905 11.4712 67.1586 11.4879H67.7261C68.0663 11.4849 68.4036 11.5496 68.7185 11.6783C69.0334 11.8071 69.3194 11.9973 69.56 12.2378C69.8005 12.4784 69.9907 12.7644 70.1194 13.0793C70.2482 13.3942 70.3129 13.7315 70.3099 14.0717V32.7576C70.3245 33.1039 70.269 33.4497 70.1466 33.774C70.0242 34.0983 69.8374 34.3945 69.5975 34.6448C69.3577 34.895 69.0697 35.0942 68.7508 35.2302C68.432 35.3662 68.0889 35.4364 67.7423 35.4364C67.3956 35.4364 67.0526 35.3662 66.7337 35.2302C66.4149 35.0942 66.1269 34.895 65.887 34.6448C65.6471 34.3945 65.4604 34.0983 65.3379 33.774C65.2155 33.4497 65.16 33.1039 65.1747 32.7576V21.0385L60.6439 28.0192C60.4415 28.4146 60.1338 28.7463 59.7549 28.978C59.3759 29.2097 58.9404 29.3323 58.4962 29.3323C58.052 29.3323 57.6165 29.2097 57.2375 28.978C56.8586 28.7463 56.5509 28.4146 56.3485 28.0192L51.8869 21.14V32.8176C51.8869 33.4857 51.6215 34.1265 51.1491 34.5989C50.6766 35.0713 50.0359 35.3367 49.3678 35.3367C49.0363 35.3398 48.7076 35.2767 48.4008 35.1512C48.094 35.0256 47.8154 34.8401 47.5812 34.6055C47.347 34.3709 47.162 34.0919 47.037 33.7849C46.912 33.4779 46.8496 33.149 46.8533 32.8176L46.8302 14.0901Z" fill="#FFCD2F"/>
<path d="M81.932 35.5263C76.5292 35.5263 72.5337 31.7337 72.5337 26.2295V26.1649C72.5337 21.0297 76.1924 16.7988 81.4291 16.7988C87.4271 16.7988 90.0892 21.7356 90.0892 25.4589C90.1094 25.7804 90.062 26.1026 89.9502 26.4046C89.8383 26.7067 89.6644 26.982 89.4397 27.2128C89.215 27.4435 88.9445 27.6247 88.6455 27.7446C88.3466 27.8645 88.0258 27.9205 87.7039 27.9089H77.6043C78.1072 30.2158 79.7174 31.4338 82.0012 31.4338C83.3093 31.4444 84.5836 31.0191 85.6231 30.225C85.9768 29.9497 86.4162 29.8076 86.8642 29.8236C87.1281 29.8191 87.3902 29.8683 87.6345 29.9682C87.8788 30.0681 88.1003 30.2166 88.2854 30.4048C88.4705 30.5929 88.6155 30.8168 88.7114 31.0627C88.8074 31.3086 88.8523 31.5714 88.8435 31.8352C88.8465 32.1199 88.7883 32.402 88.6729 32.6623C88.5575 32.9226 88.3875 33.155 88.1745 33.3439C86.4302 34.8096 84.2096 35.5859 81.932 35.5263ZM85.2217 24.7207C84.9172 22.4138 83.5745 20.8959 81.4291 20.8959C79.2837 20.8959 77.9365 22.4046 77.5351 24.7207H85.2217Z" fill="#FFCD2F"/>
<path d="M92.5023 14.0909C92.4992 13.7508 92.5639 13.4134 92.6927 13.0985C92.8215 12.7837 93.0117 12.4976 93.2522 12.2571C93.4927 12.0165 93.7788 11.8263 94.0936 11.6976C94.4085 11.5688 94.7459 11.5041 95.086 11.5072H95.6581C96.1339 11.5002 96.6029 11.6212 97.016 11.8573C97.4291 12.0935 97.7712 12.4363 98.0066 12.8498L104.249 23.0002L110.524 12.7991C110.75 12.3891 111.085 12.0497 111.492 11.8184C111.9 11.5871 112.363 11.473 112.831 11.4887H113.403C113.743 11.4863 114.08 11.5514 114.394 11.6804C114.709 11.8094 114.995 11.9996 115.235 12.24C115.476 12.4804 115.666 12.7662 115.795 13.0808C115.924 13.3954 115.989 13.7325 115.987 14.0725V32.7584C116.001 33.1047 115.946 33.4505 115.823 33.7748C115.701 34.0991 115.514 34.3953 115.274 34.6455C115.034 34.8958 114.746 35.0949 114.428 35.231C114.109 35.367 113.766 35.4371 113.419 35.4371C113.072 35.4371 112.729 35.367 112.41 35.231C112.092 35.0949 111.804 34.8958 111.564 34.6455C111.324 34.3953 111.137 34.0991 111.015 33.7748C110.892 33.4505 110.837 33.1047 110.851 32.7584V21.0393L106.321 28.02C106.118 28.4153 105.811 28.7471 105.432 28.9788C105.053 29.2105 104.617 29.3331 104.173 29.3331C103.729 29.3331 103.293 29.2105 102.914 28.9788C102.535 28.7471 102.228 28.4153 102.025 28.02L97.559 21.1408V32.8184C97.559 33.4857 97.2943 34.1257 96.8228 34.598C96.3514 35.0703 95.7118 35.3363 95.0445 35.3375C94.7127 35.3412 94.3834 35.2786 94.0761 35.1533C93.7688 35.028 93.4896 34.8426 93.2549 34.6079C93.0203 34.3733 92.8349 34.0941 92.7096 33.7868C92.5843 33.4795 92.5217 33.1502 92.5254 32.8184L92.5023 14.0909Z" fill="#FFCD2F"/>
<path d="M127.604 35.5263C122.201 35.5263 118.21 31.7337 118.21 26.2295V26.1649C118.21 21.0297 121.869 16.7988 127.101 16.7988C133.099 16.7988 135.761 21.7356 135.761 25.459C135.782 25.7804 135.734 26.1026 135.622 26.4046C135.51 26.7067 135.337 26.982 135.112 27.2128C134.887 27.4436 134.617 27.6247 134.318 27.7446C134.019 27.8645 133.698 27.9205 133.376 27.9089H123.276C123.779 30.2158 125.39 31.4338 127.673 31.4338C128.983 31.4437 130.258 31.0185 131.3 30.225C131.653 29.949 132.093 29.8068 132.541 29.8236C132.805 29.8197 133.066 29.8694 133.31 29.9695C133.555 30.0697 133.776 30.2182 133.961 30.4062C134.146 30.5943 134.291 30.8178 134.387 31.0634C134.483 31.309 134.528 31.5716 134.52 31.8352C134.523 32.1203 134.464 32.4026 134.348 32.6629C134.231 32.9232 134.061 33.1555 133.847 33.344C132.103 34.8104 129.882 35.5868 127.604 35.5263ZM130.894 24.73C130.594 22.4231 129.251 20.9051 127.101 20.9051C124.951 20.9051 123.613 22.4138 123.212 24.73H130.894Z" fill="#FFCD2F"/>
<path d="M146.165 35.5263C140.763 35.5263 136.767 31.7337 136.767 26.2295V26.1649C136.767 21.0297 140.426 16.7988 145.663 16.7988C151.66 16.7988 154.318 21.7356 154.318 25.4589C154.338 25.78 154.291 26.1018 154.179 26.4035C154.068 26.7052 153.894 26.9803 153.67 27.211C153.446 27.4417 153.176 27.623 152.877 27.7432C152.579 27.8634 152.259 27.9198 151.937 27.9089H141.833C142.336 30.2158 143.951 31.4338 146.23 31.4338C147.539 31.4444 148.815 31.0192 149.856 30.225C150.21 29.9497 150.65 29.8076 151.098 29.8236C151.361 29.8197 151.623 29.8694 151.867 29.9695C152.111 30.0697 152.332 30.2182 152.517 30.4062C152.702 30.5943 152.847 30.8178 152.943 31.0634C153.04 31.309 153.085 31.5716 153.077 31.8352C153.08 32.1199 153.022 32.402 152.906 32.6623C152.791 32.9226 152.621 33.155 152.408 33.3439C150.664 34.8096 148.443 35.5859 146.165 35.5263ZM149.45 24.7207C149.151 22.4138 147.808 20.8959 145.663 20.8959C143.517 20.8959 142.17 22.4046 141.768 24.7207H149.45Z" fill="#FFCD2F"/>
<path d="M23.309 23.2217V23.2447L23.2952 23.2309L23.309 23.2217Z" fill="#3D3D3D"/>
<path d="M14.4275 23.0918H14.4229" stroke="#3D3D3D" stroke-miterlimit="10"/>
<path d="M23.3089 3.00781V6.84189L11.456 15.0406L8.68311 13.1259L23.3089 3.00781Z" fill="#0B0213"/>
<path d="M30.6126 8.06445V11.8939L23.3089 16.946L18.7597 20.0927L15.9868 18.1779L23.3089 13.1166L30.6126 8.06445Z" fill="#0B0213"/>
<path d="M33.6254 22.1973V42.4473L33.081 42.821L29.5699 40.3895L28.7625 39.8312V25.9252L33.6254 22.1973Z" fill="#292929"/>
<path d="M34.193 15.6963L33.3856 16.2407V16.2546L30.6127 18.1693L23.309 23.2214V23.2445L23.2952 23.2307L18.9628 26.2296H18.9582L18.6353 26.0082V32.4906L18.9582 32.712L33.0811 22.9446V42.8301L33.3856 42.6179L34.193 42.0642L37.921 39.4851V13.1172L34.193 15.6963Z" fill="#0B0213"/>
<path d="M4.28613 22.1973V42.4473L4.83056 42.821L8.34167 40.3895L9.14909 39.8312V25.9252L4.28613 22.1973Z" fill="#0B0213"/>
<path d="M37.9209 13.1171L34.1929 15.6962L30.6126 18.1692L23.309 23.2213L23.2951 23.2305L18.9628 26.2295H18.9581L14.4274 23.0921L11.6545 21.1774L7.12372 18.04H7.11911L4.35082 16.1253H4.34621L3.72796 15.6962L0 13.1171L4.33237 10.1181L18.9581 0L23.309 3.0082L8.68319 13.1263L11.4561 15.041L23.309 6.84228L26.0819 4.92755L30.6126 8.06033V8.06494L23.309 13.1171L15.9868 18.1784L18.7597 20.0931L23.309 16.9465L30.6126 11.8944L33.3855 9.97967L37.9209 13.1171Z" fill="#FFCD2F"/>
<path d="M18.9581 26.2296L14.4228 23.0922L11.6545 21.1775L7.12372 18.0401H7.11911L4.53076 16.25V16.2407L3.72796 15.6963L0 13.1172V39.4851L3.72796 42.0642L4.53076 42.6179L4.83989 42.8301V22.9446L18.9581 32.712V26.2296Z" fill="#292929"/>
</svg>
