<svg width="16" height="16" viewBox="0 0 16 16" fill="none" xmlns="http://www.w3.org/2000/svg">
<rect width="16" height="16" rx="6" fill="#6C5DD3"/>
<path fill-rule="evenodd" clip-rule="evenodd" d="M9.73271 6.43044C9.73271 7.40947 8.95222 8.1945 7.97884 8.1945C7.00546 8.1945 6.22497 7.40947 6.22497 6.43044C6.22497 5.45103 7.00546 4.66675 7.97884 4.66675C8.95222 4.66675 9.73271 5.45103 9.73271 6.43044ZM7.97885 11.3334C6.54919 11.3334 5.32846 11.1068 5.32846 10.2001C5.32846 9.29316 6.54136 9.05825 7.97885 9.05825C9.40851 9.05825 10.6292 9.28491 10.6292 10.1919C10.6292 11.0985 9.41635 11.3334 7.97885 11.3334ZM10.4822 6.46225C10.4822 6.96134 10.3333 7.42628 10.0722 7.81279C10.0453 7.85257 10.0692 7.90623 10.1166 7.91448C10.1819 7.92574 10.2494 7.93212 10.318 7.934C11.0027 7.95201 11.6171 7.50883 11.7869 6.84163C12.0383 5.85059 11.3 4.96087 10.3598 4.96087C10.2576 4.96087 10.1599 4.97175 10.0647 4.99126C10.0517 4.99426 10.0379 5.00027 10.0304 5.0119C10.0214 5.02616 10.0282 5.0453 10.0371 5.05768C10.3195 5.45583 10.4822 5.9414 10.4822 6.46225ZM11.616 8.63032C12.076 8.72075 12.3786 8.90538 12.5039 9.17368C12.6099 9.39396 12.6099 9.6495 12.5039 9.8694C12.3122 10.2856 11.694 10.4191 11.4537 10.4537C11.4041 10.4612 11.3642 10.418 11.3694 10.3681C11.4921 9.21496 10.5158 8.66822 10.2632 8.54251C10.2524 8.53688 10.2501 8.52825 10.2513 8.52299C10.252 8.51924 10.2565 8.51324 10.2647 8.51211C10.8113 8.50198 11.3989 8.57703 11.616 8.63032ZM5.68222 7.93396C5.75086 7.93208 5.81802 7.92608 5.88368 7.91445C5.93106 7.90619 5.95494 7.85253 5.92808 7.81275C5.66692 7.42624 5.51806 6.9613 5.51806 6.46222C5.51806 5.94137 5.68072 5.45579 5.96315 5.05765C5.9721 5.04526 5.97845 5.02612 5.96986 5.01187C5.9624 5.00061 5.94823 4.99423 5.93554 4.99123C5.84003 4.97171 5.74228 4.96083 5.64006 4.96083C4.69989 4.96083 3.96155 5.85056 4.21338 6.8416C4.38314 7.5088 4.99761 7.95197 5.68222 7.93396ZM5.74881 8.52278C5.74993 8.5284 5.74769 8.53666 5.73724 8.54266C5.48429 8.66837 4.50793 9.21512 4.63067 10.3679C4.6359 10.4182 4.59635 10.461 4.54673 10.4538C4.30646 10.4193 3.68826 10.2857 3.49649 9.86956C3.39017 9.64928 3.39017 9.39411 3.49649 9.17384C3.62185 8.90553 3.92405 8.72091 4.38406 8.6301C4.60157 8.57719 5.18881 8.50214 5.73575 8.51227C5.74396 8.51339 5.74806 8.5194 5.74881 8.52278Z" fill="white"/>
</svg>
