<svg width="23" height="23" viewBox="0 0 23 23" fill="none" xmlns="http://www.w3.org/2000/svg">
<g opacity="0.5">
<path d="M10.6677 1.93777C10.4235 1.30912 9.85629 0.711868 9.15915 0.702637H9.14309C8.21517 0.702637 7.40892 1.51036 7.43071 2.57084C7.43071 2.57084 6.98983 3.91804 8.35106 5.59312C9.71191 7.26803 10.2403 7.82208 10.3666 8.23176C10.4292 8.43595 10.4929 8.64199 10.403 8.83529C10.3566 8.93554 10.2268 9.01715 10.0788 9.02139C10.0788 9.02195 10.0782 9.02195 10.0778 9.02139C9.95082 9.02545 9.8105 8.97284 9.69696 8.82772C9.69696 8.82772 8.4694 6.82401 5.92141 6.81533H5.90517C3.84145 6.81533 1.26318 7.89334 1.26318 9.19752C1.26318 9.75065 1.91712 10.2802 2.83968 10.5456C2.9283 10.5711 3.01895 10.5938 3.11182 10.614L3.10739 10.6152C3.13822 10.6472 3.1696 10.6788 3.20265 10.7103C3.58298 11.0727 4.111 11.3752 4.74481 11.5873C4.82531 11.615 4.90783 11.6403 4.99184 11.6645C5.51949 11.8157 6.11121 11.9069 6.74446 11.9226C8.40552 11.9634 9.86257 11.3534 10.6769 10.4987C11.2807 9.86457 11.4863 8.94348 11.2085 8.11342C11.1944 8.07132 11.1773 8.03089 11.1599 7.99101C11.1313 7.92787 11.1003 7.86787 11.0735 7.80879C10.6343 6.8565 9.75345 6.31869 8.74855 4.78355C7.74365 3.24785 8.30472 2.57121 8.30472 2.57121C8.37783 2.49588 8.49266 2.40172 8.64996 2.36738C8.99927 2.29114 9.23245 2.57952 9.56495 2.65577C9.71671 2.69084 9.91168 2.68641 10.1598 2.57915L10.1633 2.57582V2.57656C10.1633 2.57656 10.7113 2.46228 11.3161 3.21425C11.3791 3.29272 11.5053 3.25118 11.5081 3.15056C11.5172 2.79903 11.4117 2.20787 10.6677 1.93777Z" fill="#EDD7D5"/>
<path d="M12.1734 1.93777C12.4177 1.30912 12.9849 0.711868 13.682 0.702637H13.6982C14.626 0.702637 15.4322 1.51036 15.4104 2.57084C15.4104 2.57084 15.8513 3.91804 14.4901 5.59312C13.1292 7.26803 12.6008 7.82208 12.4746 8.23176C12.412 8.43595 12.3483 8.64199 12.4382 8.83529C12.4845 8.93554 12.6143 9.01715 12.7624 9.02139C12.7624 9.02195 12.7629 9.02195 12.7633 9.02139C12.8903 9.02545 13.0306 8.97284 13.1442 8.82772C13.1442 8.82772 14.3717 6.82401 16.9197 6.81533H16.936C18.9997 6.81533 21.5778 7.89334 21.5778 9.19752C21.5778 9.75065 20.924 10.2802 20.0015 10.5456C19.913 10.5711 19.8222 10.5938 19.7293 10.614L19.7338 10.6152C19.7031 10.6472 19.6715 10.6788 19.6385 10.7103C19.2582 11.0727 18.73 11.3752 18.0963 11.5873C18.0157 11.615 17.9333 11.6403 17.8491 11.6645C17.3215 11.8157 16.7299 11.9069 16.0967 11.9226C14.4356 11.9634 12.9784 11.3534 12.1642 10.4987C11.5603 9.86457 11.3548 8.94348 11.6327 8.11342C11.6467 8.07132 11.6637 8.03089 11.6812 7.99101C11.7097 7.92787 11.7409 7.86787 11.7676 7.80879C12.2067 6.8565 13.0875 6.31869 14.0924 4.78355C15.0973 3.24785 14.5364 2.57121 14.5364 2.57121C14.4633 2.49588 14.3485 2.40172 14.1912 2.36738C13.8419 2.29114 13.6087 2.57952 13.276 2.65577C13.1244 2.69084 12.9295 2.68641 12.6813 2.57915L12.6778 2.57582V2.57656C12.6778 2.57656 12.1297 2.46228 11.525 3.21425C11.4619 3.29272 11.3356 3.25118 11.333 3.15056C11.324 2.79903 11.4294 2.20787 12.1734 1.93777Z" fill="#EDD7D5"/>
<path d="M20.8153 11.5542L20.2441 11.9683L21.5279 13.7106L18.3234 14.3832V12.699H17.5377V14.5481L14.5139 15.1828V16.8907H15.2245L15.2251 15.829L17.5377 15.3318V22.2276H16.2485V23.0001H18.3234V15.1628L22.8218 14.1958L20.8153 11.5542Z" fill="#EF9A60"/>
<path d="M17.8196 7.45465H17.8021C15.0541 7.46406 13.7304 9.6249 13.7304 9.6249C13.608 9.78146 13.4566 9.83814 13.3196 9.83389C13.3191 9.83426 13.3187 9.83426 13.3187 9.83389C13.159 9.82909 13.019 9.74121 12.969 9.63302C12.8721 9.42458 12.9406 9.20248 13.0081 8.98204C13.1444 8.54023 13.7143 7.94279 15.1817 6.13644C16.6498 4.3299 16.1743 2.8771 16.1743 2.8771C16.1979 1.73336 15.3285 0.862305 14.3278 0.862305H14.3103C13.5585 0.87209 12.9469 1.51624 12.6834 2.19436C12.9478 2.09836 13.2866 2.03983 13.7204 2.04076C13.7356 2.04094 13.7415 2.06088 13.7285 2.06863C13.5884 2.1543 13.2029 2.43253 13.2275 2.88245L13.2312 2.88615C13.4987 3.0019 13.709 3.0067 13.8726 2.96886C14.2313 2.88651 14.4827 2.57561 14.8596 2.65777C15.0292 2.69469 15.1529 2.79623 15.2319 2.87765C15.2319 2.87765 15.8369 3.60728 14.7532 5.26335C13.6693 6.91906 12.7194 7.49896 12.2458 8.52602C12.217 8.5899 12.1834 8.65452 12.1526 8.72264C12.1338 8.76566 12.1153 8.80905 12.1002 8.85446C11.8005 9.7497 12.0223 10.7432 12.6736 11.427C13.5517 12.3486 15.1232 13.0066 16.9144 12.9627C17.5975 12.9457 18.2356 12.8473 18.8046 12.6843C18.8952 12.6583 18.9842 12.6307 19.0712 12.601C19.7545 12.3723 20.324 12.0462 20.7343 11.6554C20.7697 11.6212 20.8039 11.5873 20.8369 11.5527L20.8321 11.5513C20.9324 11.5297 21.0302 11.5051 21.1257 11.4776C22.1206 11.1911 22.8257 10.6202 22.8257 10.0237C22.8257 8.61722 20.0453 7.45465 17.8196 7.45465Z" fill="#F6A8A4"/>
<path d="M13.7282 2.06842C13.7411 2.06066 13.7352 2.04072 13.7201 2.04054C13.2862 2.03961 12.9474 2.09814 12.6831 2.19414C11.8807 2.4853 11.767 3.12298 11.7769 3.5022C11.7797 3.61076 11.916 3.65544 11.9839 3.57088C12.6362 2.75983 13.2273 2.88316 13.2273 2.88316C13.2273 2.88279 13.2273 2.88242 13.2273 2.88224C13.2028 2.43231 13.5883 2.15427 13.7282 2.06842Z" fill="#F66E6A"/>
<path d="M15.309 6.97948L15.7609 7.32214C15.8728 7.17445 15.9924 7.01622 16.1204 6.84637L15.6671 6.50537C15.5397 6.67486 15.4203 6.83252 15.309 6.97948Z" fill="#3B596D"/>
<path d="M15.9426 6.13742L16.397 6.47676C17.8651 4.51052 17.3175 2.97538 17.2933 2.91113L16.7612 3.10757C16.7804 3.16093 17.2147 4.43354 15.9426 6.13742Z" fill="#3B596D"/>
<path d="M22.3626 9.98198L21.8505 9.73828C21.8459 9.74807 21.3682 10.7103 19.7788 10.644L19.7554 11.2107C19.8169 11.2132 19.8769 11.2145 19.9359 11.2145C21.7543 11.2145 22.3379 10.0339 22.3626 9.98198Z" fill="#F66E6A"/>
<path d="M20.7343 11.6554C18.9504 11.8795 17.4764 11.2958 16.7798 10.9437C16.696 10.9014 16.6114 10.9422 16.5745 11.0092C16.5743 11.0092 16.5741 11.009 16.5741 11.009C16.451 11.254 16.264 11.5489 15.88 11.7772C14.9668 12.32 13.7053 11.9045 12.9865 11.2241C11.9811 10.2726 12.1314 8.89159 12.1526 8.72266C12.1336 8.76567 12.1153 8.80924 12.1002 8.85466C11.8005 9.74972 12.0223 10.7432 12.6736 11.4272C13.5515 12.3488 15.123 13.0067 16.9144 12.9627C17.5975 12.9457 18.2356 12.8473 18.8046 12.6843C18.8522 12.6706 18.8993 12.6564 18.946 12.642C19.6849 12.4116 20.2991 12.0697 20.7343 11.6554Z" fill="#F66E6A"/>
<path d="M18.2405 10.3784L19.0729 10.5549L18.9555 11.1097L18.123 10.9332L18.2405 10.3784Z" fill="#F26E6A"/>
<path d="M14.2507 1.5957H14.7754V2.12022H14.2507V1.5957Z" fill="#3B596D"/>
<path d="M5.28813 14.5481V12.699H4.50237V14.3832L1.29787 13.7106L2.58174 11.9683L2.01051 11.5542L0.00402832 14.1958L4.50237 15.1628V23.0001H6.57736V22.2276H5.28813V15.3318L7.60072 15.829L7.60146 16.8907H8.31189V15.1828L5.28813 14.5481Z" fill="#EF9A60"/>
<path d="M7.82045 0.519715L7.59355 0C7.2736 0.139575 6.97709 0.326968 6.71216 0.556639L7.0838 0.98515C7.30535 0.792957 7.55312 0.636396 7.82045 0.519715Z" fill="#3B596D"/>
<path d="M6.31469 4.28935C6.16441 3.93376 6.08816 3.55584 6.08816 3.16592C6.08816 2.5321 6.28958 1.9306 6.67083 1.42658L6.2185 1.08447C5.76211 1.68782 5.521 2.40748 5.521 3.16592C5.521 3.63209 5.61238 4.08442 5.79239 4.51016L6.31469 4.28935Z" fill="#3B596D"/>
<path d="M9.09731 2.06863C9.08439 2.06088 9.09011 2.04094 9.10525 2.04076C9.5393 2.03983 9.87808 2.09836 10.1423 2.19436C9.87901 1.51624 9.26735 0.87209 8.51538 0.862305H8.49784C7.49737 0.862305 6.62779 1.73336 6.65142 2.8771C6.65142 2.8771 6.17583 4.3299 7.64396 6.13644C9.11153 7.94279 9.68146 8.54023 9.81753 8.98204C9.8851 9.20229 9.9536 9.42458 9.85667 9.63302C9.80664 9.74121 9.66669 9.82909 9.50699 9.83389C9.50699 9.83426 9.50644 9.83426 9.50607 9.83389C9.36908 9.83814 9.21769 9.78146 9.09547 9.6249C9.09547 9.6249 7.77153 7.46406 5.0236 7.45465H5.00606C2.78043 7.45465 0 8.61722 0 10.0239C0 10.6202 0.705076 11.1912 1.70001 11.4778C1.79565 11.5051 1.8935 11.5297 1.99356 11.5514L1.98876 11.5529C2.02199 11.5873 2.05596 11.6214 2.09141 11.6554C2.50165 12.0462 3.07121 12.3725 3.75468 12.6012C3.84164 12.6309 3.93045 12.6583 4.0211 12.6843C4.59029 12.8473 5.22835 12.9457 5.91127 12.9627C7.70248 13.0066 9.274 12.3488 10.1521 11.4272C10.8034 10.7433 11.0251 9.7497 10.7255 8.85465C10.7104 8.80923 10.6919 8.76566 10.6731 8.72283C10.6422 8.6547 10.6088 8.5899 10.5798 8.5262C10.1063 7.49914 9.15639 6.91924 8.07247 5.26354C6.98873 3.60747 7.59374 2.87765 7.59374 2.87765C7.67276 2.79642 7.79646 2.69488 7.96613 2.65795C8.34294 2.57561 8.5944 2.8867 8.95312 2.96886C9.11651 3.0067 9.32698 3.00209 9.5945 2.88615L9.5982 2.88245C9.62275 2.43253 9.23726 2.15448 9.09731 2.06863Z" fill="#F6A8A4"/>
<path d="M10.1448 2.19561C9.8804 2.09961 9.54162 2.04108 9.10775 2.042C9.09262 2.04219 9.08671 2.06213 9.09963 2.06988C9.23958 2.15555 9.62507 2.43377 9.6007 2.8837V2.88462C9.6007 2.88462 10.1917 2.7613 10.844 3.57235C10.9119 3.6569 11.0481 3.61222 11.0511 3.50385C11.0607 3.12445 10.9472 2.48676 10.1448 2.19561Z" fill="#F66E6A"/>
<path d="M0.465088 9.98345L0.977233 9.73975C0.981849 9.74953 1.45947 10.7118 3.04889 10.6455L3.07252 11.2121C3.01086 11.2147 2.95067 11.216 2.89178 11.216C1.07342 11.216 0.489827 10.0353 0.465088 9.98345Z" fill="#F66E6A"/>
<path d="M10.7278 8.85613C10.7126 8.81071 10.6942 8.76714 10.6754 8.72412C10.6966 8.89305 10.8467 10.274 9.84122 11.2256C9.12248 11.9059 7.86095 12.3215 6.94781 11.7787C6.56379 11.5503 6.37695 11.2555 6.25381 11.0105C6.25362 11.0105 6.25344 11.0107 6.25344 11.0107C6.21651 10.9437 6.13177 10.9029 6.04814 10.9451C5.35137 11.297 3.87752 11.881 2.09351 11.6569C2.52885 12.0712 3.14309 12.4131 3.88195 12.6435C3.92848 12.6581 3.97574 12.6721 4.02337 12.6858C4.59238 12.8488 5.23044 12.9472 5.91336 12.9642C7.70476 13.0081 9.27628 12.3503 10.1543 11.4287C10.8057 10.7446 11.0274 9.75118 10.7278 8.85613Z" fill="#F66E6A"/>
<path d="M4.58588 10.3789L4.70349 10.9337L3.87102 11.1102L3.75342 10.5554L4.58588 10.3789Z" fill="#F26E6A"/>
<path d="M8.05066 1.5957H8.57536V2.12022H8.05066V1.5957Z" fill="#3B596D"/>
</g>
</svg>
