<svg width="23" height="23" viewBox="0 0 23 23" fill="none" xmlns="http://www.w3.org/2000/svg">
<g opacity="0.5">
<path d="M16.1115 10.604C15.9197 10.604 15.7644 10.7594 15.7644 10.9511V19.8562C15.7644 20.0479 15.9198 20.2033 16.1115 20.2033C16.3032 20.2033 16.4585 20.0479 16.4585 19.8562V10.9511C16.4585 10.7594 16.3032 10.604 16.1115 10.604Z" fill="#A295A2"/>
<path d="M20.0593 14.2794L16.8149 10.6174C16.6879 10.474 16.4685 10.4607 16.325 10.5878C16.1815 10.7149 16.1683 10.9343 16.2954 11.0777L19.111 14.2557L14.5311 14.8988C14.443 14.9111 14.363 14.9569 14.3076 15.0266L13.5704 15.9548C13.4512 16.1049 13.4762 16.3233 13.6264 16.4425C13.6902 16.4932 13.7663 16.5178 13.842 16.5178C13.9442 16.5178 14.0455 16.4729 14.114 16.3866L14.7649 15.5669L19.8478 14.8533C19.9744 14.8355 20.081 14.7496 20.1252 14.6296C20.1694 14.5096 20.1441 14.3751 20.0593 14.2794Z" fill="#8D818C"/>
<path d="M8.37495 2.63651C8.37495 2.63651 7.33856 0.131082 10.5194 0L10.7022 1.70011C10.7022 1.70011 9.21027 1.54374 8.37495 2.63651Z" fill="#A295A2"/>
<path d="M10.7021 1.70002C10.7021 1.70002 10.7425 2.40206 12.0111 2.19731C13.2796 1.99255 12.4228 4.88906 11.6075 6.72852C10.7923 8.56798 9.27399 11.6466 13.7721 11.6466C18.2701 11.6466 18.9814 9.90642 19.2545 9.50231C19.467 9.18781 19.896 8.94348 20.43 8.82525C20.6667 8.77282 20.7796 8.5006 20.6511 8.29508C20.1618 7.51277 18.9781 6.00357 17.0992 5.9436C14.5582 5.86247 12.9953 6.77587 12.9953 6.77587C12.9953 6.77587 16.1498 1.35942 12.8227 0.570013C12.8227 0.570013 12.256 0 11.4882 0C10.4279 0 10.5193 0 10.5193 0L10.7021 1.70002Z" fill="#FF9699"/>
<path d="M4.08539 8.23718C5.30453 8.23718 6.29284 7.24887 6.29284 6.02972C6.29284 4.81058 5.30453 3.82227 4.08539 3.82227C2.86624 3.82227 1.87793 4.81058 1.87793 6.02972C1.87793 7.24887 2.86624 8.23718 4.08539 8.23718Z" fill="#FFE589"/>
<path d="M4.08541 3.82227C3.84279 3.82227 3.6096 3.86198 3.39124 3.93426C4.27013 4.2253 4.90452 5.05317 4.90452 6.02968C4.90452 7.00619 4.27018 7.83405 3.39124 8.1251C3.6096 8.19742 3.84279 8.23709 4.08541 8.23709C5.30454 8.23709 6.29287 7.24877 6.29287 6.02963C6.29287 4.81055 5.30454 3.82227 4.08541 3.82227Z" fill="#FFD86D"/>
<path d="M4.08545 1.94336C3.89938 1.94336 3.74854 2.09421 3.74854 2.28027V2.61346C3.74854 2.79952 3.89938 2.95037 4.08545 2.95037C4.27151 2.95037 4.42236 2.79952 4.42236 2.61346V2.28027C4.42236 2.09421 4.27151 1.94336 4.08545 1.94336Z" fill="#FFD86D"/>
<path d="M4.08545 9.10693C3.89938 9.10693 3.74854 9.25778 3.74854 9.44385V9.77703C3.74854 9.9631 3.89938 10.1139 4.08545 10.1139C4.27151 10.1139 4.42236 9.9631 4.42236 9.77703V9.44385C4.42236 9.25778 4.27151 9.10693 4.08545 9.10693Z" fill="#FFD86D"/>
<path d="M2.50275 2.61427C2.40972 2.45309 2.20362 2.39802 2.04253 2.49096C1.88139 2.584 1.82618 2.79005 1.91922 2.95119L2.08583 3.23977C2.14823 3.34785 2.26148 3.40827 2.37791 3.40827C2.43505 3.40827 2.493 3.39367 2.54606 3.36308C2.70719 3.27004 2.7624 3.06399 2.66937 2.90285L2.50275 2.61427Z" fill="#FFD86D"/>
<path d="M6.08503 8.81792C5.99199 8.65678 5.78594 8.60157 5.6248 8.69461C5.46367 8.78764 5.40846 8.9937 5.50149 9.15483L5.66806 9.44341C5.73046 9.55149 5.84371 9.61191 5.96014 9.61191C6.01728 9.61191 6.07523 9.59736 6.12829 9.56672C6.28942 9.47369 6.34463 9.26763 6.2516 9.10649L6.08503 8.81792Z" fill="#FFD86D"/>
<path d="M1.29625 4.0292L1.00767 3.86259C0.846535 3.76955 0.640478 3.82472 0.5474 3.9859C0.454322 4.14708 0.509621 4.35309 0.670711 4.44612L0.959243 4.61273C1.01234 4.64337 1.07025 4.65793 1.12743 4.65793C1.24382 4.65793 1.35712 4.59751 1.41951 4.48942C1.51259 4.32829 1.45738 4.12223 1.29625 4.0292Z" fill="#FFD86D"/>
<path d="M7.49993 7.61122L7.21135 7.44465C7.05012 7.35152 6.84411 7.40682 6.75113 7.56796C6.65809 7.72909 6.7133 7.93515 6.87444 8.02818L7.16301 8.19475C7.21611 8.22539 7.27402 8.23994 7.33116 8.23994C7.44759 8.23994 7.56084 8.17948 7.62324 8.07144C7.71632 7.91026 7.66106 7.70421 7.49993 7.61122Z" fill="#FFD86D"/>
<path d="M1.00706 6.02881C1.00706 5.84274 0.856209 5.69189 0.670143 5.69189H0.336913C0.150847 5.69189 0 5.84274 0 6.02881C0 6.21487 0.150847 6.36572 0.336913 6.36572H0.670098C0.856209 6.36572 1.00706 6.21487 1.00706 6.02881Z" fill="#FFD86D"/>
<path d="M7.83367 5.69189H7.50049C7.31442 5.69189 7.16357 5.84274 7.16357 6.02881C7.16357 6.21487 7.31442 6.36572 7.50049 6.36572H7.83367C8.01974 6.36572 8.17059 6.21487 8.17059 6.02881C8.17059 5.84274 8.01974 5.69189 7.83367 5.69189Z" fill="#FFD86D"/>
<path d="M0.959233 7.44463L0.670701 7.6112C0.509566 7.70423 0.454357 7.91029 0.54739 8.07142C0.609787 8.1795 0.723035 8.23992 0.839472 8.23992C0.896612 8.23992 0.954561 8.22537 1.00761 8.19473L1.29615 8.02816C1.45728 7.93513 1.51249 7.72907 1.41946 7.56794C1.32642 7.4068 1.12037 7.35155 0.959233 7.44463Z" fill="#FFD86D"/>
<path d="M7.04321 4.65793C7.10035 4.65793 7.1583 4.64333 7.21135 4.61273L7.49993 4.44612C7.66106 4.35309 7.71627 4.14703 7.62324 3.9859C7.5302 3.82472 7.3241 3.76955 7.16301 3.86259L6.87444 4.0292C6.7133 4.12223 6.65809 4.32829 6.75113 4.48942C6.81352 4.59751 6.92677 4.65793 7.04321 4.65793Z" fill="#FFD86D"/>
<path d="M2.54606 8.69463C2.38492 8.60155 2.17886 8.6568 2.08583 8.81794L1.91922 9.10651C1.82618 9.26765 1.88139 9.47371 2.04253 9.56674C2.09558 9.59738 2.15353 9.61193 2.21067 9.61193C2.32711 9.61193 2.44035 9.55151 2.50275 9.44343L2.66937 9.15485C2.76244 8.99372 2.70723 8.78766 2.54606 8.69463Z" fill="#FFD86D"/>
<path d="M6.12829 2.49054C5.96706 2.39746 5.76105 2.45267 5.66806 2.61385L5.50149 2.90242C5.40846 3.06356 5.46367 3.26961 5.6248 3.36265C5.6779 3.39328 5.7358 3.40784 5.79294 3.40784C5.90938 3.40784 6.02263 3.34737 6.08503 3.23934L6.2516 2.95076C6.34467 2.78962 6.28942 2.58357 6.12829 2.49054Z" fill="#FFD86D"/>
<path d="M22.9999 17.9772C22.9999 17.8876 22.9227 17.8159 22.8335 17.8256C22.0378 17.9122 21.9825 18.6169 21.083 18.6169C20.1245 18.6169 20.1245 17.8169 19.166 17.8169C18.2077 17.8169 18.2077 18.6169 17.2494 18.6169C16.291 18.6169 16.291 17.8169 15.3326 17.8169C14.3743 17.8169 14.3743 18.6169 13.4159 18.6169C12.4576 18.6169 12.4576 17.8169 11.4993 17.8169C10.5411 17.8169 10.5411 18.6169 9.58288 18.6169C8.62456 18.6169 8.62456 17.8169 7.66629 17.8169C6.70798 17.8169 6.70798 18.6169 5.74962 18.6169C4.7913 18.6169 4.7913 17.8169 3.83299 17.8169C2.87472 17.8169 2.87472 18.6169 1.91645 18.6169C1.01716 18.6169 0.961819 17.9123 0.166345 17.8256C0.0772204 17.8159 0 17.8876 0 17.9772V21.6142C0 22.3795 0.621447 23 1.38799 23H21.6119C22.3785 23 22.9999 22.3795 22.9999 21.6142V17.9772Z" fill="#A6E7F0"/>
<path d="M22.8305 17.8261C22.2281 17.8917 22.0498 18.3113 21.6086 18.5114V21.6147C21.6086 22.38 20.9872 23.0004 20.2206 23.0004H21.6089C22.3755 23.0004 22.9969 22.38 22.9969 21.6147V17.9776C22.9969 17.8881 22.9197 17.8163 22.8305 17.8261Z" fill="#6BD9E7"/>
<path d="M13.0104 6.76597C13.346 6.55263 19.1932 2.95246 22.307 9.01623C22.3226 9.04682 22.3105 9.08451 22.2797 9.0997C21.6706 9.39991 16.2348 12.0023 14.2731 10.2392C12.3184 8.48238 12.9095 6.96775 12.9874 6.79251C12.9924 6.78142 13.0001 6.77248 13.0104 6.76597Z" fill="#FFACAF"/>
<path d="M22.3071 9.01623C20.29 5.08818 17.126 5.21544 15.0562 5.85032C17.1879 5.57037 19.6999 6.15238 21.3429 9.52012C21.3439 9.52232 21.3445 9.52466 21.3453 9.5269C21.8161 9.3248 22.153 9.16223 22.2798 9.09965C22.3106 9.08451 22.3228 9.04682 22.3071 9.01623Z" fill="#FF9699"/>
<path d="M22.0022 9.23362C21.8305 9.31412 21.5996 9.41875 21.3243 9.53676C20.0854 8.33213 18.6499 7.69119 17.0519 7.63059C15.7761 7.58198 14.8676 7.94158 14.8583 7.94527C14.6811 8.01656 14.4784 7.93094 14.4067 7.75368C14.3349 7.57597 14.4201 7.37422 14.5973 7.30199C14.6385 7.28532 15.6293 6.88871 17.0449 6.93547C18.3357 6.97851 20.239 7.41353 22.0022 9.23362Z" fill="#FF7C81"/>
<path d="M20.2278 9.9734C19.9932 10.0599 19.7465 10.146 19.492 10.2293C18.9773 9.78549 17.7551 8.9937 15.8833 9.35464C15.6949 9.39121 15.5131 9.26763 15.4765 9.07977C15.4404 8.89141 15.5635 8.70957 15.7514 8.673C17.2605 8.38191 18.4105 8.76464 19.1102 9.13668C19.622 9.40927 20.0205 9.74479 20.2278 9.9734Z" fill="#FF7C81"/>
</g>
</svg>
