<svg width="20" height="24" viewBox="0 0 20 24" fill="none" xmlns="http://www.w3.org/2000/svg">
<g opacity="0.5">
<path d="M19.9314 16.0674H0.882812V21.1195C0.882812 22.4893 1.99325 23.5997 3.36307 23.5997H17.4511C18.8209 23.5997 19.9314 22.4893 19.9314 21.1195V16.0674Z" fill="#6FCCFF"/>
<path d="M3.05322 19.9043C3.05322 21.4927 6.34471 21.2836 10.4047 21.2836C14.4652 21.2836 17.7562 21.4928 17.7562 19.9043C17.7562 18.4255 14.9044 15.9104 11.2347 15.5699L9.75939 15.5547C9.25598 15.5908 8.76693 15.6686 8.29734 15.7798C7.12451 16.0566 6.07491 16.5417 5.22781 17.1077H5.22744C3.88474 18.005 3.05322 19.1059 3.05322 19.9043Z" fill="#F9CD46"/>
<path d="M4.99952 19.9044C4.99952 19.1059 5.83103 18.005 7.17377 17.1077H7.17414C8.02121 16.5417 9.07081 16.0566 10.2437 15.7798C10.6112 15.6928 10.9908 15.6266 11.3798 15.5845C11.3324 15.5793 11.285 15.5743 11.2373 15.5699L9.76199 15.5547C9.25858 15.5908 8.76953 15.6686 8.29994 15.7798C7.12711 16.0566 6.07751 16.5417 5.23041 17.1077H5.23004C3.8873 18.0049 3.05579 19.1058 3.05579 19.9043C3.05579 21.3239 5.68471 21.3078 9.14157 21.2883C6.68974 21.2578 4.99952 21.0426 4.99952 19.9044Z" fill="#DB9E00"/>
<path d="M12.3506 21.2842C12.0211 21.2842 11.6968 21.2856 11.3788 21.2873C12.1715 21.2915 12.9244 21.2975 13.6165 21.2889C13.2052 21.2866 12.7823 21.2842 12.3506 21.2842Z" fill="#DB9E00"/>
<path d="M5.23218 17.1072C8.02413 16.9028 9.62808 17.9166 9.62808 17.9166H11.3051C10.659 16.9576 9.38007 16.2435 8.30171 15.7793C7.12888 16.0561 6.07928 16.5412 5.23218 17.1072Z" fill="#DB9E00"/>
<path d="M17.9856 22.7355H16.8582C16.6972 22.7355 16.5667 22.6049 16.5667 22.4439C16.5667 22.2829 16.6972 22.1523 16.8582 22.1523H17.9856C18.1466 22.1523 18.2772 22.2829 18.2772 22.4439C18.2772 22.6049 18.1466 22.7355 17.9856 22.7355Z" fill="white"/>
<path d="M19.0737 17.215H17.9464C17.7853 17.215 17.6548 17.0844 17.6548 16.9234C17.6548 16.7624 17.7853 16.6318 17.9464 16.6318H19.0737C19.2347 16.6318 19.3653 16.7624 19.3653 16.9234C19.3653 17.0844 19.2347 17.215 19.0737 17.215Z" fill="white"/>
<path d="M2.904 17.9533H1.77668C1.61566 17.9533 1.48511 17.8227 1.48511 17.6617C1.48511 17.5007 1.61566 17.3701 1.77668 17.3701H2.90404C3.06506 17.3701 3.19561 17.5007 3.19561 17.6617C3.19561 17.8227 3.06502 17.9533 2.904 17.9533Z" fill="white"/>
<path d="M7.80382 23.2413H6.67646C6.51544 23.2413 6.38489 23.1108 6.38489 22.9498C6.38489 22.7888 6.51544 22.6582 6.67646 22.6582H7.80382C7.96484 22.6582 8.09539 22.7888 8.09539 22.9498C8.09539 23.1108 7.96484 23.2413 7.80382 23.2413Z" fill="white"/>
<path d="M9.98009 22.5011H8.85273C8.69171 22.5011 8.56116 22.3706 8.56116 22.2095C8.56116 22.0485 8.69171 21.918 8.85273 21.918H9.98009C10.1411 21.918 10.2717 22.0485 10.2717 22.2095C10.2717 22.3706 10.1411 22.5011 9.98009 22.5011Z" fill="white"/>
<mask id="mask0_1572_20922" style="mask-type:luminance" maskUnits="userSpaceOnUse" x="1" y="0" width="18" height="18">
<path d="M1.62073 0.600334H18.9374V17.917H1.62073V0.600334Z" fill="white"/>
</mask>
<g mask="url(#mask0_1572_20922)">
<path d="M10.2705 3.53994C10.2404 3.53994 10.2154 3.56324 10.2133 3.59328L9.2228 17.8012C9.21844 17.8638 9.26805 17.917 9.33079 17.917H11.2103C11.273 17.917 11.3226 17.8638 11.3183 17.8012L10.3277 3.59328C10.3256 3.56324 10.3006 3.53994 10.2705 3.53994Z" fill="#3EC3A4"/>
<path d="M10.2617 3.54L10.0965 17.8603C10.0962 17.8918 10.0706 17.917 10.0392 17.917H9.33079C9.26802 17.917 9.21844 17.8638 9.2228 17.8012L10.2171 3.54H10.2617Z" fill="#0BB494"/>
<path d="M10.8995 11.6143V11.6127" stroke="black" stroke-width="0.820312" stroke-miterlimit="10" stroke-linecap="round" stroke-linejoin="round"/>
<path d="M13.6943 5.8174C14.6254 4.88639 15.0413 3.63563 14.9429 2.41867C13.7259 2.32024 12.4752 2.73625 11.5442 3.66722C10.6132 4.59823 10.1972 5.84899 10.2956 7.06596C11.5126 7.16438 12.7634 6.74837 13.6943 5.8174Z" fill="#3EC3A4"/>
<path d="M6.85975 5.8174C5.92874 4.88639 5.51277 3.63563 5.61116 2.41867C6.82816 2.32024 8.07892 2.73625 9.00993 3.66722C9.9409 4.59823 10.3569 5.84899 10.2585 7.06596C9.04152 7.16438 7.79073 6.74837 6.85975 5.8174Z" fill="#3EC3A4"/>
<path d="M11.7739 3.8343C11.7739 5.11266 11.2087 6.25864 10.3147 7.03633C10.3025 7.04712 10.2903 7.05791 10.2777 7.06836C9.36243 6.28999 8.78162 5.13008 8.78162 3.8343C8.78162 2.53887 9.36243 1.37896 10.2777 0.600587C11.1931 1.37896 11.7739 2.53887 11.7739 3.8343Z" fill="#9BE69D"/>
<path d="M10.3147 7.0363C10.3025 7.04709 10.2903 7.05791 10.2777 7.06836C9.36243 6.28999 8.78162 5.13008 8.78162 3.83427C8.78162 2.53884 9.36243 1.37892 10.2777 0.600554C10.2777 0.600554 9.17256 3.23012 10.3147 7.0363Z" fill="#6FD7A3"/>
<path d="M17.5452 4.35805C17.2365 5.02805 16.7567 5.64824 16.1383 6.15976L14.931 5.48103L15.2139 6.78272C14.9683 6.91618 14.709 7.03428 14.4373 7.13534C13.5826 7.4531 12.7098 7.56109 11.892 7.48584C11.3154 7.43287 10.7659 7.28862 10.2698 7.06249C10.8213 5.86497 11.9203 4.82702 13.3777 4.28523C14.1843 3.98557 15.0069 3.87234 15.7843 3.92354C16.4114 3.96538 17.0093 4.11379 17.5452 4.35805Z" fill="#9BE69D"/>
<path d="M15.7864 3.92572C13.3777 4.2867 11.8921 6.57686 11.8921 7.48558V7.4873C11.3154 7.43434 10.7659 7.29009 10.2698 7.06396C10.8213 5.86644 11.9203 4.82849 13.3777 4.2867C14.1843 3.98704 15.007 3.8738 15.7843 3.92501L15.7864 3.92572Z" fill="#6FD7A3"/>
<path d="M10.2786 7.06262C9.07896 7.60894 7.56852 7.67725 6.11108 7.13543C4.65364 6.59398 3.55434 5.55569 3.00281 4.35817C4.20243 3.81182 5.71283 3.74353 7.17027 4.28532C8.62775 4.82714 9.72702 5.86509 10.2786 7.06262Z" fill="#9BE69D"/>
<path d="M10.2786 7.06262C9.07896 7.60894 7.56852 7.67725 6.11108 7.13543C4.65364 6.59398 3.55434 5.55569 3.00281 4.35817C3.00281 4.35817 6.11108 6.98946 10.2786 7.06262Z" fill="#6FD7A3"/>
<path d="M9.6785 9.87305C9.02945 9.87305 7.95692 8.32968 7.95692 7.63086C7.30657 7.11953 6.88818 6.32587 6.88818 5.43637C6.88818 5.01083 7.23313 4.66583 7.65866 4.66583C8.0842 4.66583 8.42915 5.01083 8.42915 5.43637C8.42915 6.12525 8.98962 6.68573 9.6785 6.68573C10.104 6.68573 10.449 7.03067 10.449 7.45621C10.449 7.88175 10.104 9.87305 9.6785 9.87305Z" fill="#FFD15B"/>
<path d="M11.0403 10.1758C11.711 10.1758 13.121 8.55612 12.809 7.59239C13.4324 7.08023 13.8306 6.30366 13.8306 5.43577C13.8306 5.01029 13.4856 4.66529 13.0601 4.66529C12.6346 4.66529 12.2896 5.01029 12.2896 5.43577C12.2896 6.12471 11.7291 6.68519 11.0403 6.68519C10.6147 6.68519 10.2698 7.03013 10.2698 7.45567C10.2698 7.88121 10.6147 10.1758 11.0403 10.1758Z" fill="#FFD15B"/>
<path d="M10.3945 4.36502H10.3475C9.91749 4.36502 9.56897 4.71359 9.56897 5.14354V7.77909C9.56897 8.2091 9.91749 8.55762 10.3475 8.55762H10.3945C10.8244 8.55762 11.173 8.2091 11.173 7.77909V5.14354C11.173 4.71359 10.8244 4.36502 10.3945 4.36502Z" fill="#FFE177"/>
<path d="M9.6785 12.2949C9.02945 12.2949 7.95692 10.7516 7.95692 10.0527C7.30657 9.54141 6.88818 8.74775 6.88818 7.85825C6.88818 7.43271 7.23313 7.08771 7.65866 7.08771C8.0842 7.08771 8.42915 7.43271 8.42915 7.85825C8.42915 8.54713 8.98962 9.1076 9.6785 9.1076C10.104 9.1076 10.449 9.45255 10.449 9.87809C10.449 10.3036 10.104 12.2949 9.6785 12.2949Z" fill="#FFC344"/>
<path d="M11.0403 12.5977C11.711 12.5977 13.121 10.978 12.809 10.0143C13.4324 9.5021 13.8306 8.72554 13.8306 7.85765C13.8306 7.43217 13.4856 7.08717 13.0601 7.08717C12.6346 7.08717 12.2896 7.43217 12.2896 7.85765C12.2896 8.54659 11.7291 9.10706 11.0403 9.10706C10.6147 9.10706 10.2698 9.45201 10.2698 9.87754C10.2698 10.3031 10.6147 12.5977 11.0403 12.5977Z" fill="#FFC344"/>
<path d="M10.3945 6.78396H10.3475C9.91749 6.78396 9.56897 7.13254 9.56897 7.56249V10.198C9.56897 10.628 9.91749 10.9766 10.3475 10.9766H10.3945C10.8244 10.9766 11.173 10.628 11.173 10.198V7.56249C11.173 7.13254 10.8244 6.78396 10.3945 6.78396Z" fill="#FFC344"/>
<path d="M9.6785 13.0684C8.13994 13.0684 6.88818 11.8166 6.88818 10.278C6.88818 9.8525 7.23313 9.5075 7.65866 9.5075C8.0842 9.5075 8.42915 9.8525 8.42915 10.278C8.42915 10.9669 8.98962 11.5274 9.6785 11.5274C10.104 11.5274 10.449 11.8723 10.449 12.2979C10.449 12.7234 10.104 13.0684 9.6785 13.0684Z" fill="#FFD15B"/>
<path d="M11.0403 13.0674C12.5788 13.0674 13.8306 11.8156 13.8306 10.277C13.8306 9.85153 13.4856 9.50653 13.0601 9.50653C12.6346 9.50653 12.2896 9.85153 12.2896 10.277C12.2896 10.9659 11.7291 11.5264 11.0403 11.5264C10.6147 11.5264 10.2698 11.8714 10.2698 12.2969C10.2698 12.7224 10.6147 13.0674 11.0403 13.0674Z" fill="#FFD15B"/>
<path d="M10.3945 9.20681H10.3475C9.91749 9.20681 9.56897 9.55539 9.56897 9.98534V12.6209C9.56897 13.0509 9.91749 13.3994 10.3475 13.3994H10.3945C10.8244 13.3994 11.173 13.0509 11.173 12.6209V9.98534C11.173 9.55539 10.8244 9.20681 10.3945 9.20681Z" fill="#FFE177"/>
</g>
</g>
</svg>
