<svg width="21" height="22" viewBox="0 0 21 22" fill="none" xmlns="http://www.w3.org/2000/svg">
<path d="M7.5869 19.7714V16.7047C7.58688 15.9246 8.22281 15.2908 9.0107 15.2856H11.8968C12.6884 15.2856 13.3302 15.9209 13.3302 16.7047V16.7047V19.7809C13.33 20.4432 13.8639 20.9845 14.5327 21H16.4568C18.3748 21 19.9297 19.4607 19.9297 17.5618V17.5618V8.83784C19.9194 8.09083 19.5652 7.38935 18.9677 6.93303L12.3874 1.6853C11.2346 0.771566 9.59589 0.771566 8.44311 1.6853L1.89171 6.94256C1.29195 7.39702 0.937074 8.09967 0.929688 8.84736V17.5618C0.929688 19.4607 2.48456 21 4.4026 21H6.32665C7.01204 21 7.56766 20.4499 7.56766 19.7714V19.7714" stroke="white" stroke-linecap="round" stroke-linejoin="round"/>
</svg>
