<svg width="37" height="31" viewBox="0 0 37 31" fill="none" xmlns="http://www.w3.org/2000/svg">
<g opacity="0.5">
<path d="M12.6469 9.27148C10.9804 9.27148 9.52556 10.1919 8.76172 11.5506C7.99795 10.1919 6.5431 9.27148 4.8766 9.27148C2.42025 9.27148 0.421875 11.2699 0.421875 13.7261C0.421875 14.0406 0.676876 14.2955 0.991344 14.2955C1.30581 14.2955 1.56081 14.0405 1.56081 13.7261C1.56081 11.8978 3.04825 10.4104 4.87653 10.4104C6.70481 10.4104 8.19225 11.8979 8.19225 13.7261V15.3918C7.53506 14.766 6.64701 14.3807 5.67007 14.3807C3.65132 14.3807 2.00903 16.023 2.00903 18.0417C2.00903 18.3562 2.26403 18.6112 2.5785 18.6112C2.89297 18.6112 3.14797 18.3562 3.14797 18.0417C3.14797 16.651 4.27932 15.5196 5.67007 15.5196C7.06083 15.5196 8.19225 16.6509 8.19225 18.0417V22.4297H9.33126V18.0417C9.33126 16.651 10.4626 15.5196 11.8534 15.5196C13.2441 15.5196 14.3755 16.6509 14.3755 18.0417C14.3755 18.3562 14.6305 18.6112 14.9449 18.6112C15.2594 18.6112 15.5144 18.3562 15.5144 18.0417C15.5144 16.0229 13.872 14.3807 11.8534 14.3807C10.8765 14.3807 9.98838 14.766 9.33126 15.3918V13.7261C9.33126 11.8978 10.8186 10.4104 12.6469 10.4104C14.4752 10.4104 15.9626 11.8979 15.9626 13.7261C15.9626 14.0406 16.2176 14.2955 16.5321 14.2955C16.8466 14.2955 17.1016 14.0405 17.1016 13.7261C17.1016 11.2699 15.1032 9.27148 12.6469 9.27148Z" fill="#A4EAFF"/>
<path d="M22.3813 0C20.7148 0 19.2599 0.920427 18.4961 2.2791C17.7323 0.920427 16.2775 0 14.611 0C12.1546 0 10.1562 1.99838 10.1562 4.45458C10.1562 4.76912 10.4113 5.02405 10.7257 5.02405C11.0402 5.02405 11.2952 4.76905 11.2952 4.45458C11.2952 2.6263 12.7826 1.13894 14.6109 1.13894C16.4392 1.13894 17.9266 2.62637 17.9266 4.45458V6.12028C17.2694 5.49453 16.3814 5.10917 15.4044 5.10917C13.3857 5.10917 11.7434 6.75153 11.7434 8.77021C11.7434 9.08476 11.9984 9.33968 12.3129 9.33968C12.6273 9.33968 12.8823 9.08468 12.8823 8.77021C12.8823 7.37953 14.0137 6.24811 15.4044 6.24811C16.7952 6.24811 17.9266 7.37946 17.9266 8.77021V13.1582H19.0656V8.77021C19.0656 7.37953 20.197 6.24811 21.5877 6.24811C22.9784 6.24811 24.1098 7.37946 24.1098 8.77021C24.1098 9.08476 24.3648 9.33968 24.6793 9.33968C24.9938 9.33968 25.2488 9.08468 25.2488 8.77021C25.2488 6.75146 23.6064 5.10917 21.5877 5.10917C20.6109 5.10917 19.7228 5.49453 19.0656 6.12028V4.45458C19.0656 2.6263 20.553 1.13894 22.3813 1.13894C24.2096 1.13894 25.697 2.62637 25.697 4.45458C25.697 4.76912 25.952 5.02405 26.2665 5.02405C26.5809 5.02405 26.8359 4.76905 26.8359 4.45458C26.8359 1.99838 24.8376 0 22.3813 0Z" fill="#A4EAFF"/>
<path d="M32.2094 8.94336C30.5429 8.94336 29.0881 9.86379 28.3242 11.2225C27.5604 9.86379 26.1056 8.94336 24.4391 8.94336C21.9828 8.94336 19.9844 10.9417 19.9844 13.3979C19.9844 13.7125 20.2394 13.9674 20.5538 13.9674C20.8683 13.9674 21.1233 13.7124 21.1233 13.3979C21.1233 11.5697 22.6108 10.0823 24.439 10.0823C26.2673 10.0823 27.7548 11.5697 27.7548 13.3979V15.0636C27.0976 14.4379 26.2095 14.0525 25.2326 14.0525C23.2138 14.0525 21.5715 15.6949 21.5715 17.7136C21.5715 18.0281 21.8265 18.283 22.141 18.283C22.4555 18.283 22.7105 18.028 22.7105 17.7136C22.7105 16.3229 23.8418 15.1915 25.2326 15.1915C26.6233 15.1915 27.7548 16.3228 27.7548 17.7136V22.1016H28.8938V17.7136C28.8938 16.3229 30.0251 15.1915 31.4159 15.1915C32.8066 15.1915 33.938 16.3228 33.938 17.7136C33.938 18.0281 34.193 18.283 34.5074 18.283C34.8219 18.283 35.0769 18.028 35.0769 17.7136C35.0769 15.6948 33.4345 14.0525 31.4159 14.0525C30.439 14.0525 29.5509 14.4379 28.8938 15.0636V13.3979C28.8938 11.5697 30.3811 10.0823 32.2094 10.0823C34.0377 10.0823 35.5251 11.5697 35.5251 13.3979C35.5251 13.7125 35.7801 13.9674 36.0946 13.9674C36.4091 13.9674 36.6641 13.7124 36.6641 13.3979C36.6641 10.9417 34.6657 8.94336 32.2094 8.94336Z" fill="#A4EAFF"/>
<path d="M18.5 13.6357L18.9775 15.2448L18.5 17.4092C18.128 17.4092 17.8262 17.1073 17.8262 16.7354V14.3096C17.8262 13.9376 18.128 13.6357 18.5 13.6357Z" fill="#FFC300"/>
<path d="M19.1738 14.3096V16.7354C19.1738 17.1073 18.872 17.4092 18.5 17.4092V13.6357C18.872 13.6357 19.1738 13.9376 19.1738 14.3096Z" fill="#FF925C"/>
<path d="M22.5785 12.4229H21.6993C21.3272 12.4229 21.0255 12.1212 21.0255 11.749C21.0255 11.3769 21.3272 11.0752 21.6993 11.0752H22.5785C23.2277 11.0752 23.7559 10.547 23.7559 9.89779V9.72754H21.7793C21.4072 9.72754 21.1055 9.42584 21.1055 9.05371C21.1055 8.68158 21.4072 8.37988 21.7793 8.37988H24.4297C24.8018 8.37988 25.1035 8.68158 25.1035 9.05371V9.89779C25.1035 11.2901 23.9708 12.4229 22.5785 12.4229Z" fill="#FF925C"/>
<path d="M15.3007 12.4229H14.4215C13.0292 12.4229 11.8965 11.2901 11.8965 9.89779V9.05371C11.8965 8.68158 12.1982 8.37988 12.5703 8.37988H15.2207C15.5928 8.37988 15.8945 8.68158 15.8945 9.05371C15.8945 9.42584 15.5928 9.72754 15.2207 9.72754H13.2441V9.89779C13.2441 10.547 13.7723 11.0752 14.4215 11.0752H15.3007C15.6728 11.0752 15.9745 11.3769 15.9745 11.749C15.9745 12.1212 15.6728 12.4229 15.3007 12.4229Z" fill="#FFC300"/>
<path d="M18.5 16.2861L19.395 17.6561L18.5 20.3291H16.2539C15.882 20.3291 15.5801 20.0272 15.5801 19.6553V18.1315C15.5801 17.114 16.408 16.2861 17.4255 16.2861H18.5Z" fill="#406A80"/>
<path d="M18.5 7.48145L19.9824 10.8793L18.5 14.9385C16.3451 14.9385 14.5918 13.1852 14.5918 11.0303V8.15527C14.5918 7.78332 14.8937 7.48145 15.2656 7.48145H18.5Z" fill="#FFE100"/>
<path d="M21.4199 18.1315V19.6553C21.4199 20.0272 21.118 20.3291 20.7461 20.3291H18.5V16.2861H19.5745C20.592 16.2861 21.4199 17.114 21.4199 18.1315Z" fill="#284866"/>
<path d="M22.4082 8.15527V11.0303C22.4082 13.1852 20.6549 14.9385 18.5 14.9385V7.48145H21.7344C22.1063 7.48145 22.4082 7.78332 22.4082 8.15527Z" fill="#FFC300"/>
<path d="M21.4347 21.8115V25.2081L29.2439 26.7642L29.9995 26.1159L29.9999 21.8115C29.9999 21.4396 29.6981 21.1377 29.3261 21.1377H22.1085C21.7366 21.1377 21.4347 21.4396 21.4347 21.8115Z" fill="#99EEFF"/>
<path d="M15.5653 21.8115V25.2081L7.75604 26.7642L7.00045 26.1159L7 21.8115C7 21.4396 7.30188 21.1377 7.67383 21.1377H14.8914C15.2634 21.1377 15.5653 21.4396 15.5653 21.8115Z" fill="#CCF7FF"/>
<path d="M18.5001 18.9814L19.9825 22.2607L18.5001 25.8819H14.8915C14.5195 25.8819 14.2177 25.58 14.2177 25.2081V19.6553C14.2177 19.2833 14.5195 18.9814 14.8915 18.9814H18.5001Z" fill="#E6FBFF"/>
<path d="M22.7824 19.6553V25.2148C22.7824 25.5868 22.4805 25.8886 22.1086 25.8886C22.0762 25.8886 22.0443 25.8864 22.0129 25.8819H18.5V18.9814H22.1086C22.4805 18.9814 22.7824 19.2833 22.7824 19.6553Z" fill="#CCF7FF"/>
<path d="M18.5 25.4511L19.668 27.1123L18.5 29.3359L7 29.3584L7.00359 26.168C6.96721 25.8028 7.23 25.4744 7.59566 25.4318C7.88451 25.3981 8.14506 25.2786 8.35035 25.0863C8.8409 24.6245 9.49137 24.3685 10.1818 24.3662H10.1904C10.8768 24.3662 11.5259 24.6178 12.0187 25.0751C12.5254 25.5742 13.3803 25.576 13.8897 25.0809C14.6062 24.4111 15.6767 24.1897 16.6205 24.5171C17.0306 24.6775 17.1173 24.7179 17.5818 25.1025C17.8356 25.337 18.1685 25.4533 18.5 25.4511Z" fill="#00C6CE"/>
<path d="M30 29.3131L18.5 29.3355V25.4507C18.8293 25.4485 19.1581 25.3299 19.4083 25.0945C19.6572 24.8586 19.9514 24.6722 20.2731 24.5487C21.2362 24.1758 22.3408 24.3816 23.0865 25.0729C23.5923 25.5742 24.4495 25.5774 24.9602 25.0819C25.453 24.6205 26.1057 24.3658 26.7962 24.3658C27.483 24.3658 28.1321 24.6174 28.6245 25.0747C28.8213 25.2679 29.111 25.3999 29.4147 25.4413C29.7561 25.4866 30.0031 25.78 29.9996 26.1155L30 29.3131Z" fill="#249BB3"/>
<path d="M18.5 28.1464L19.668 29.5381L18.5 30.4365H7.67383C7.30188 30.4365 7 30.1346 7 29.7627L7.00359 28.8633C6.96721 28.4981 7.23 28.1697 7.59566 28.1271C7.88451 28.0934 8.14506 27.9739 8.35035 27.7816C8.8409 27.3198 9.49137 27.0638 10.1818 27.0615H10.1904C10.8768 27.0615 11.5259 27.3131 12.0187 27.7704C12.5254 28.2695 13.3803 28.2713 13.8897 27.7762C14.6062 27.1064 15.6767 26.885 16.6205 27.2125C17.0306 27.3728 17.1173 27.4133 17.5818 27.7978C17.8356 28.0323 18.1685 28.1486 18.5 28.1464Z" fill="#2EE6E6"/>
<path d="M30 29.7623C30 30.1343 29.6981 30.4361 29.3262 30.4361H18.5V28.146C18.8293 28.1438 19.1581 28.0252 19.4083 27.7898C19.6572 27.5539 19.9514 27.3675 20.2731 27.244C21.2362 26.8711 22.3408 27.0769 23.0865 27.7682C23.5923 28.2696 24.4495 28.2727 24.9602 27.7772C25.453 27.3159 26.1057 27.0612 26.7962 27.0612C27.483 27.0612 28.1321 27.3127 28.6245 27.77C28.8213 27.9632 29.111 28.0953 29.4147 28.1366C29.7561 28.182 30.0031 28.4753 29.9996 28.8109L30 29.7623Z" fill="#00C6CE"/>
</g>
</svg>
