<svg width="24" height="24" viewBox="0 0 24 24" fill="none" xmlns="http://www.w3.org/2000/svg">
<g clip-path="url(#clip0_656_126403)">
<path d="M7.99157 14.1568C6.99088 11.6322 4.88887 9.34743 7.53393 4.74519C8.6233 2.84976 10.2873 1.59969 12.0063 2.02293C13.7253 1.59974 15.3893 2.8498 16.4787 4.74519C19.1237 9.34743 17.0218 11.6322 16.021 14.1568L12.0065 14.1667L7.99171 14.1568H7.99157Z" fill="#666666"/>
<path d="M5.246 18.1031C5.12047 18.3057 4.8073 20.029 4.46094 21.3355C6.52147 23.0016 9.14408 24.0001 12.0001 24.0001C14.8563 24.0001 17.4789 23.0016 19.5394 21.3355C19.1929 20.0291 18.8798 18.3056 18.7542 18.1031C16.8265 14.9903 13.855 16.3491 13.6524 12.7871C13.6524 12.7871 12.6964 13.5005 11.9665 13.507C11.2365 13.5135 10.3469 12.8321 10.3469 12.8321C10.1448 16.391 7.17242 14.9926 5.246 18.1031Z" fill="#FED198"/>
<path d="M13.7033 13.2901C13.6793 13.134 13.6617 12.967 13.6515 12.7871C13.6515 12.7871 12.6956 13.5005 11.9656 13.507C11.2356 13.5135 10.3461 12.8321 10.3461 12.8321C10.3358 13.0153 10.3177 13.1847 10.293 13.343C10.3117 13.3577 10.3302 13.3727 10.3493 13.3873L10.349 13.3899C10.4052 13.4389 11.2597 14.1736 11.9655 14.1662C12.6712 14.1736 13.5256 13.4387 13.5819 13.3899L13.5818 13.3873C13.6232 13.3556 13.6634 13.3229 13.7031 13.2902L13.7033 13.2901Z" fill="#F0B97D"/>
<path d="M10.3497 12.8342C10.4059 12.8766 11.2604 13.5132 11.9662 13.5068C12.6719 13.5132 13.5263 12.8766 13.5826 12.8342C14.6493 12.2123 15.5246 10.3788 15.327 8.39159C15.1652 6.76381 13.4043 9.15059 12.1779 5.79199C10.4421 9.42819 8.79338 7.27728 8.60541 8.65531C8.39822 10.1736 9.25064 12.0841 10.3497 12.8343V12.8342Z" fill="#FED198"/>
<path d="M8.95044 15.3807C7.89992 15.9419 5.97819 15.9588 5.24699 17.1344C5.11963 17.3391 3.50099 22.3247 4.44828 22.3247C6.51069 23.9974 9.13864 24.0003 12.001 24.0003C14.8635 24.0003 17.4913 23.9975 19.5538 22.3247C20.2614 21.7509 18.844 17.3586 18.7551 17.1344C18.2696 15.9098 16.022 15.8586 14.9704 15.2939C13.3354 21.2258 10.8984 21.6297 8.95044 15.3807Z" fill="#FBB429"/>
<path d="M9.64803 14.791C9.57978 16.6365 9.89356 19.2511 11.9643 19.9192C10.0148 20.0008 8.74972 17.1918 7.30859 16.4561L9.64798 14.7912V14.791H9.64803Z" fill="white"/>
<path d="M14.3972 14.791C14.4688 16.6365 14.1394 19.2511 11.9648 19.9192C14.012 20.0008 15.3405 17.1918 16.8535 16.4561L14.3971 14.7912L14.3972 14.791Z" fill="white"/>
</g>
<defs>
<clipPath id="clip0_656_126403">
<rect width="24" height="24" fill="white"/>
</clipPath>
</defs>
</svg>
