<svg width="30" height="24" viewBox="0 0 30 24" fill="none" xmlns="http://www.w3.org/2000/svg">
<path d="M29.3054 1.06839C29.3054 0.72817 29.0075 0.454978 28.6698 0.496303C25.6274 0.868402 25.4162 3.89648 21.9771 3.89648C18.313 3.89648 18.3169 0.458984 14.6527 0.458984C10.9911 0.458984 10.9872 3.89648 7.32555 3.89648C3.88795 3.89648 3.67663 0.868573 0.635618 0.49636C0.297919 0.455035 0 0.728228 0 1.06845V21.7402C0 22.6894 0.769496 23.459 1.71877 23.459H27.5867C28.5359 23.459 29.3055 22.6895 29.3055 21.7402L29.3054 1.06839Z" fill="#A9D8FF"/>
<path d="M29.3054 7.33398C25.6413 7.33398 25.6413 10.7715 21.9771 10.7715C18.313 10.7715 18.3169 7.33398 14.6527 7.33398C10.9911 7.33398 10.9872 10.7715 7.32555 10.7715C3.66278 10.7715 3.66278 7.33398 0 7.33398V21.7402C0 22.6894 0.769496 23.4589 1.71877 23.4589H27.5867C28.5359 23.4589 29.3055 22.6894 29.3055 21.7402L29.3054 7.33398Z" fill="#7AC0F9"/>
<path d="M29.3054 14.209C25.6413 14.209 25.6413 17.6465 21.9771 17.6465C18.313 17.6465 18.3169 14.209 14.6527 14.209C10.9911 14.209 10.9872 17.6465 7.32555 17.6465C3.66278 17.6465 3.66278 14.209 0 14.209V21.7402C0 22.6894 0.769496 23.459 1.71877 23.459H27.5867C28.5359 23.459 29.3055 22.6895 29.3055 21.7402L29.3054 14.209Z" fill="#4EA7D8"/>
</svg>
