<svg width="16" height="24" viewBox="0 0 16 24" fill="none" xmlns="http://www.w3.org/2000/svg">
<path d="M12.7109 23.459H2.81974C2.35641 23.459 1.96 23.1261 1.87989 22.6697L1.52846 20.6673C0.511414 14.8727 0 9.00068 0 3.1175V0.969751C0 0.687689 0.228704 0.458984 0.510766 0.458984H15.0198C15.3019 0.458984 15.5306 0.687689 15.5306 0.969751V3.1175C15.5306 9.00068 15.0192 14.8728 14.0021 20.6674L13.6507 22.6698C13.5706 23.1261 13.1742 23.459 12.7109 23.459Z" fill="#CCEFFD"/>
<path d="M2.33059 7.7373C2.13715 7.7373 1.98258 7.89918 1.99225 8.09239C2.19828 12.2003 2.65809 16.3035 3.36725 20.3439L3.55107 21.3912C3.57138 21.5069 3.6719 21.5913 3.78935 21.5913H11.7409C11.8584 21.5913 11.9589 21.5069 11.9792 21.3912L12.163 20.3439C12.8721 16.3035 13.3319 12.2003 13.538 8.09239C13.5476 7.89918 13.3931 7.7373 13.1996 7.7373H2.33059Z" fill="#75CFF9"/>
<path d="M15.0219 0.458984H13.6336C13.9157 0.458984 14.1443 0.687642 14.1443 0.969751V3.1175C14.1443 9.00068 13.6329 14.8728 12.6159 20.6674L12.2644 22.6698C12.1843 23.1261 11.7879 23.459 11.3246 23.459H12.7129C13.1763 23.459 13.5727 23.1261 13.6528 22.6697L14.0042 20.6673C15.0212 14.8727 15.5327 9.00064 15.5327 3.11745V0.969705C15.5327 0.687642 15.304 0.458984 15.0219 0.458984Z" fill="#AAE2FA"/>
<path d="M13.2009 7.7373H11.8126C12.006 7.7373 12.1606 7.89918 12.1509 8.09235C11.9449 12.2003 11.4851 16.3035 10.7759 20.3439L10.5922 21.3911C10.5719 21.5068 10.4713 21.5912 10.3539 21.5912H11.7422C11.8597 21.5912 11.9602 21.5068 11.9805 21.3911L12.1643 20.3439C12.8734 16.3035 13.3332 12.2003 13.5393 8.09235C13.5489 7.89918 13.3944 7.7373 13.2009 7.7373Z" fill="#6CBFF8"/>
</svg>
