<svg width="18" height="24" viewBox="0 0 18 24" fill="none" xmlns="http://www.w3.org/2000/svg">
<path d="M17.8065 14.5558C17.8065 20.725 13.2658 23.459 8.90323 23.459C4.54065 23.459 0 20.725 0 14.5558C0 7.26253 8.90323 0.458984 8.90323 0.458984C8.90323 0.458984 17.8065 7.26253 17.8065 14.5558Z" fill="#4BB9EA"/>
<path d="M10.7349 18.415L11.2951 20.9376C10.5829 21.1417 9.84463 21.2344 9.13608 21.2344C8.67979 21.2344 8.21237 21.1973 7.74866 21.1157L8.25688 18.5746C8.5685 18.6228 8.86898 18.6376 9.13608 18.6376C9.60721 18.6376 10.1748 18.5857 10.7349 18.415Z" fill="#7CD4F2"/>
<path d="M12.6384 19.8881L11.8965 18.0333C11.8205 17.843 11.9128 17.6271 12.1031 17.551C12.2938 17.475 12.5093 17.5674 12.5854 17.758L13.3273 19.6129C13.4034 19.8032 13.311 20.0191 13.1207 20.0951C12.897 20.1912 12.6963 20.0336 12.6384 19.8881Z" fill="#7CD4F2"/>
<path d="M13.7874 18.4722L13.0454 17.3593C12.9319 17.1886 12.9779 16.9586 13.1482 16.8448C13.3181 16.7309 13.5488 16.7769 13.6627 16.9475L14.4047 18.0604C14.5182 18.2311 14.4811 18.4755 14.3019 18.575C14.1042 18.6848 13.859 18.5794 13.7874 18.4722Z" fill="#7CD4F2"/>
<path d="M6.34545 13.7017C6.15383 13.7017 5.99854 13.5464 5.99854 13.3546V12.8061C5.99854 12.6143 6.15383 12.459 6.34545 12.459C6.53725 12.459 6.69254 12.6143 6.69254 12.8061V13.3546C6.69254 13.5464 6.53725 13.7017 6.34545 13.7017Z" fill="#57565B"/>
<path d="M12.4081 13.7017C12.2165 13.7017 12.061 13.5464 12.061 13.3546V12.8061C12.061 12.6143 12.2165 12.459 12.4081 12.459C12.5997 12.459 12.7552 12.6143 12.7552 12.8061V13.3546C12.7552 13.5464 12.5997 13.7017 12.4081 13.7017Z" fill="#57565B"/>
<path d="M9.37517 13.9939C8.98333 13.9939 8.61536 13.83 8.36548 13.5442C8.23948 13.4 8.25405 13.1806 8.39847 13.0544C8.54288 12.9284 8.76205 12.943 8.88822 13.0874C9.00614 13.2224 9.18372 13.2998 9.37517 13.2998C9.56661 13.2998 9.74402 13.2224 9.86194 13.0874C9.98811 12.943 10.2075 12.9284 10.3517 13.0544C10.4961 13.1806 10.5109 13.4 10.3847 13.5442C10.1348 13.83 9.76683 13.9939 9.37517 13.9939Z" fill="#57565B"/>
</svg>
