<svg width="19" height="19" viewBox="0 0 19 19" fill="none" xmlns="http://www.w3.org/2000/svg">
<circle cx="9.48524" cy="9.48573" r="9.48524" fill="#FFF62A"/>
<path d="M9.48351 0C14.7203 0 18.9688 4.28362 18.9688 9.48524C18.9688 14.708 14.706 18.9705 9.48351 18.9705C4.2607 18.9705 -0.00173378 14.7077 -0.00173378 9.48524C-0.00173378 4.26243 4.26103 0 9.48351 0ZM9.48351 1.11155C8.5584 1.11155 7.66797 1.26269 6.83527 1.54098C6.99133 1.77148 7.08893 2.07619 7.08893 2.46935C7.08893 3.0697 6.8206 3.60632 6.56113 4.1253C6.35004 4.54747 6.15067 4.94622 6.15067 5.28417C6.15067 5.47958 6.19717 5.5246 6.35705 5.57791C6.66224 5.67966 7.22895 5.66762 7.61692 5.66636C8.53276 5.66328 9.57143 5.65995 10.6792 6.76772C10.8322 6.92078 10.9151 6.9286 11.4451 6.6636C11.93 6.42114 12.7417 6.01535 13.494 6.76772C13.9341 7.20778 14.1079 7.82751 13.9862 8.45602C14.53 8.2449 15.282 8.14715 15.374 7.9138C15.4165 7.80587 15.483 7.33606 14.5511 5.82323C14.2056 5.26216 13.7904 4.44009 14.1734 3.78157C14.3592 3.46219 14.6705 3.29219 15.0141 3.2036C13.5379 1.90235 11.6015 1.11155 9.48351 1.11155ZM9.48351 17.8589C14.1008 17.8589 17.8572 14.1025 17.8572 9.48524C17.8572 7.49527 17.159 5.66554 15.9953 4.22719C15.3548 4.22171 15.1818 4.29963 15.1355 4.34105C15.1296 4.37748 15.1126 4.61535 15.4976 5.2403C16.406 6.71499 16.6782 7.63651 16.408 8.32163C16.0431 9.24711 14.8974 9.24848 14.2754 9.54041C13.8991 9.71704 11.9998 10.5919 11.7803 10.918V11.8521C11.7803 12.5485 11.1228 12.9246 10.5944 13.2268C10.3804 13.3493 9.93498 13.6041 9.90375 13.7287C9.90375 15.9458 9.69033 17.1663 9.41522 17.8581C9.43801 17.8583 9.46068 17.8589 9.48351 17.8589ZM8.03775 17.258C8.03427 17.3698 8.15105 17.5975 8.25183 17.6993C8.39359 17.5028 8.79216 16.6865 8.79216 13.7286C8.79216 12.9771 9.4854 12.5806 10.0425 12.262C10.2385 12.1498 10.6019 11.9441 10.6724 11.8306V10.9138C10.6724 10.7642 10.6965 10.6305 10.7446 10.5104C9.82094 10.4255 9.37095 10.1001 9.0297 9.85335C8.79009 9.68006 8.66982 9.5931 8.40968 9.5931C8.40219 9.5931 8.39837 9.59362 8.39845 9.59354C8.34002 9.62215 8.21578 9.82982 8.14149 9.95402C7.51128 11.0071 6.89652 11.3834 5.69119 11.6474C5.52961 11.6827 5.28929 11.7354 5.218 11.7829C5.21559 11.7942 5.21237 11.8161 5.21237 11.8521C5.21237 12.999 6.09516 13.8299 6.87407 14.5629C7.49861 15.1507 8.03801 15.6584 8.03801 16.3026C8.03805 16.3926 8.03923 17.209 8.03775 17.258ZM6.9432 17.4646C6.9305 17.3842 6.92824 17.3048 6.93031 17.2281C6.93113 17.1528 6.93016 16.3082 6.93016 16.3027C6.93013 16.3019 6.92179 16.2217 6.7532 16.0178C6.59636 15.8279 6.3612 15.6066 6.11221 15.3723C5.26335 14.5733 4.10082 13.4792 4.10082 11.852C4.10082 11.2948 4.38186 10.9984 4.61762 10.8479C4.86408 10.6905 5.15031 10.6278 5.45339 10.5614C6.3536 10.3643 6.71619 10.1713 7.1876 9.38331C7.41528 9.00268 7.72711 8.4814 8.40968 8.4814C9.02959 8.4814 9.3908 8.74261 9.68103 8.95247C10.0133 9.19275 10.3271 9.41966 11.2245 9.41966C12.1157 9.41966 12.6459 8.90323 12.8291 8.46102C12.8983 8.29384 13.0252 7.87079 12.708 7.55362C12.5549 7.4006 12.4721 7.39275 11.9421 7.65774C11.4573 7.90021 10.6456 8.30603 9.89323 7.55362C9.11251 6.77291 8.45391 6.77509 7.62051 6.7778C7.08715 6.7795 6.48002 6.79051 6.00554 6.6323C5.38233 6.42455 5.03908 5.94573 5.03908 5.28406C5.03908 4.68371 5.30741 4.14709 5.56688 3.6281C5.77796 3.20594 5.97734 2.80719 5.97734 2.46924C5.97734 2.20847 5.92069 2.06256 5.63302 2.05085C2.94806 3.44726 1.10982 6.25548 1.10982 9.48524C1.10982 13.2172 3.56409 16.3864 6.9432 17.4646Z" fill="#1B1C25"/>
</svg>
