<svg width="17" height="17" viewBox="0 0 17 17" fill="none" xmlns="http://www.w3.org/2000/svg">
<path d="M0.585938 1.75827L2.92928 1.75825L3.28078 0.810059H13.1228L13.4743 1.75825H15.8177C15.7005 2.74894 15.0912 5.4819 14.5288 6.37352C13.8258 7.48803 13.4743 8.23105 11.3653 9.34556C9.67812 10.2372 10.1937 9.96474 10.6623 9.71707L9.37348 11.1316V13.475H9.95932H11.131L11.7168 14.0608V15.6612V16.4042H4.68679V14.9182C4.80396 14.5466 4.61649 13.4321 5.7413 13.4321C6.45686 13.4321 6.87843 13.4495 7.03014 13.4621V11.1316L6.7958 10.4601L5.7413 9.34556L4.68679 9.37413L3.28078 8.60255C2.57778 7.48803 0.585938 5.27327 0.585938 4.1016V1.75827Z" fill="#FFF62A"/>
<path d="M15.9229 1.18391H13.8179C13.8255 0.950758 13.8297 0.716228 13.8297 0.480573C13.8297 0.215131 13.6145 0 13.3492 0H3.05424C2.78893 0 2.57367 0.215131 2.57367 0.480573C2.57367 0.716228 2.57793 0.950758 2.58556 1.18391H0.480569C0.21513 1.18391 0 1.39904 0 1.66448C0 3.8178 0.562791 5.84934 1.58463 7.38505C2.5947 8.90323 3.94016 9.77402 5.39364 9.85875C5.72315 10.2173 6.07144 10.5096 6.43424 10.7327V12.8686H5.62804C4.65338 12.8686 3.86057 13.6615 3.86057 14.6361V15.4423H3.82641C3.56097 15.4423 3.34584 15.6575 3.34584 15.9228C3.34584 16.1883 3.56097 16.4034 3.82641 16.4034H12.577C12.8425 16.4034 13.0576 16.1883 13.0576 15.9228C13.0576 15.6575 12.8425 15.4423 12.577 15.4423H12.5428V14.6361C12.5428 13.6615 11.75 12.8686 10.7754 12.8686H9.96918V10.7327C10.332 10.5098 10.6804 10.2173 11.0099 9.85875C12.4633 9.77402 13.8087 8.90323 14.8189 7.38505C15.8408 5.84934 16.4034 3.8178 16.4034 1.66448C16.4034 1.39904 16.1883 1.18391 15.9229 1.18391ZM2.38482 6.85266C1.54195 5.58603 1.04674 3.92931 0.971275 2.14506H2.63925C2.81258 4.33842 3.32744 6.36584 4.13214 7.97513C4.26029 8.23143 4.39433 8.4736 4.53337 8.70162C3.73405 8.39976 2.99429 7.76876 2.38482 6.85266ZM11.5817 14.6361V15.4424H4.82171V14.6361C4.82171 14.1915 5.18339 13.8297 5.62804 13.8297H10.7754C11.22 13.8297 11.5817 14.1915 11.5817 14.6361ZM9.00804 12.8686H7.39538V11.1503C7.65957 11.2199 7.92876 11.256 8.20171 11.256C8.47466 11.256 8.74385 11.2199 9.00804 11.1503V12.8686ZM9.30564 10.0069C9.28399 10.0158 9.26322 10.0266 9.24332 10.0385C8.90367 10.2074 8.55463 10.2949 8.20171 10.2949C7.84892 10.2949 7.5 10.2074 7.16048 10.0387C7.14033 10.0266 7.11943 10.0158 7.09753 10.0067C6.72071 9.80744 6.35615 9.50658 6.01137 9.11123C5.99322 9.08533 5.97282 9.06142 5.95017 9.03965C5.60789 8.63329 5.28588 8.13344 4.99178 7.54524C4.10861 5.77901 3.59851 3.45662 3.54044 0.961145H12.863C12.8048 3.45662 12.2947 5.77914 11.4116 7.54524C11.1175 8.13344 10.7955 8.63329 10.4534 9.03965C10.4306 9.06142 10.4099 9.08545 10.3919 9.11136C10.0471 9.50683 9.68246 9.80756 9.30564 10.0069ZM14.0186 6.85266C13.4091 7.76876 12.6694 8.39976 11.8701 8.70162C12.0091 8.4736 12.1431 8.23143 12.2713 7.97513C13.076 6.36584 13.5907 4.33842 13.7642 2.14506H15.4321C15.3567 3.92931 14.8615 5.58603 14.0186 6.85266Z" fill="#1B1C25"/>
</svg>
