<svg width="32" height="23" viewBox="0 0 32 23" fill="none" xmlns="http://www.w3.org/2000/svg">
<g opacity="0.5">
<path fill-rule="evenodd" clip-rule="evenodd" d="M11.7807 4.201V4.19838C11.3266 3.80702 10.7311 3.56935 10.0786 3.56935C9.5406 3.56935 9.04178 3.73108 8.62839 4.00671C8.22955 3.50473 7.60723 3.18164 6.90731 3.18164C5.97905 3.18164 5.1866 3.7497 4.87208 4.54922C4.55308 4.41816 4.20275 4.34551 3.83488 4.34551C2.35705 4.34551 1.15905 5.5174 1.15905 6.96347C1.15905 7.7148 1.4829 8.39129 2.00075 8.86881C1.37134 9.30873 0.960938 10.0283 0.960938 10.8424C0.960938 12.1815 2.07015 13.2669 3.43865 13.2669C3.48827 13.2669 3.53752 13.2651 3.5864 13.2621C3.76101 13.9339 4.38258 14.4304 5.12317 14.4304C5.99882 14.4304 6.70882 13.736 6.70882 12.8788C6.70882 12.2691 6.34916 11.742 5.82645 11.4882C6.11411 10.9395 6.11411 10.1637 6.11411 10.1637C6.11411 10.1637 6.63234 10.3576 7.30353 10.3576C8.42692 10.3576 9.36749 9.59568 9.61671 8.5709C9.7667 8.59756 9.92078 8.61216 10.0786 8.61216C10.4424 8.61216 10.7886 8.53805 11.1027 8.4048C11.2617 8.71402 11.4956 8.98052 11.7807 9.18168V9.17933L11.7816 9.1819C12.139 9.4338 12.5781 9.58202 13.0523 9.58202C13.5008 9.58202 13.9175 9.4495 14.2641 9.22242C14.6268 9.67731 15.192 9.9701 15.8274 9.9701C16.6034 9.9701 17.2754 9.5331 17.6003 8.89714C17.7895 8.96358 17.9932 9.00045 18.2059 9.00045C19.1908 9.00045 19.9896 8.21882 19.9896 7.25466C19.9896 6.29085 19.1908 5.50922 18.2059 5.50922C17.5824 5.50922 17.034 5.82246 16.715 6.29669C16.4478 6.16527 16.1464 6.09116 15.8274 6.09116C15.4924 6.09116 15.1767 6.17293 14.8999 6.31641C14.5145 5.71513 13.8313 5.31537 13.0523 5.31537C12.8792 5.31537 12.7109 5.33581 12.5494 5.37305C12.4099 4.91305 12.1401 4.50782 11.7816 4.1986L11.7807 4.201Z" fill="#988393"/>
<path d="M16.1919 14.0932H12.9013C12.6613 14.0932 12.4636 13.9046 12.4524 13.6648C12.4412 13.425 12.6204 13.2188 12.8593 13.1963C13.0408 13.1793 13.1666 12.8001 13.2239 12.4508C13.3119 11.9148 13.2861 11.2917 13.2628 10.968C13.2526 10.8257 13.3107 10.6869 13.4192 10.5942C13.5277 10.5015 13.6738 10.4658 13.8128 10.4981C14.0394 10.5508 14.2852 10.5774 14.5432 10.5774C14.8045 10.5774 15.0527 10.5502 15.2807 10.4964C15.4194 10.4637 15.5655 10.4987 15.6743 10.5908C15.7831 10.6829 15.8417 10.8211 15.8324 10.9634C15.7436 12.3105 15.9721 13.1713 16.2346 13.1964C16.4734 13.2192 16.6523 13.4256 16.6408 13.6652C16.6294 13.9048 16.4318 14.0932 16.1919 14.0932Z" fill="#FFB500"/>
<path d="M16.2385 13.1964C15.9759 13.1714 15.7475 12.3105 15.8362 10.9634C15.8456 10.8211 15.7869 10.6829 15.6782 10.5908C15.5693 10.4987 15.4232 10.4637 15.2846 10.4964C15.0582 10.5498 14.812 10.577 14.5529 10.5774V14.0933H16.1958C16.4357 14.0933 16.6333 13.9048 16.6447 13.6652C16.6561 13.4256 16.4773 13.2192 16.2385 13.1964Z" fill="#FF7403"/>
<path d="M11.8533 10.167C11.7618 10.167 11.6695 10.1391 11.5898 10.0813L10.3519 9.18356C8.7401 8.01447 7.77783 6.12548 7.77783 4.13057V4.09006C7.77783 3.84185 7.97906 3.64062 8.22726 3.64062H10.5585C10.8067 3.64062 11.0079 3.84185 11.0079 4.09006C11.0079 4.33826 10.8067 4.53949 10.5585 4.53949H8.69246C8.81237 6.09387 9.61089 7.53561 10.8797 8.45593L12.1175 9.35372C12.3185 9.49945 12.3632 9.7805 12.2175 9.98142C12.1295 10.1026 11.9924 10.167 11.8533 10.167Z" fill="#FFC12E"/>
<path d="M17.2376 10.167C17.0983 10.167 16.961 10.1025 16.8731 9.98106C16.7276 9.78002 16.7726 9.49903 16.9736 9.35348L18.2141 8.45545C19.4844 7.53585 20.2841 6.0944 20.405 4.53949H18.5055C18.2573 4.53949 18.0561 4.33826 18.0561 4.09006C18.0561 3.84185 18.2573 3.64062 18.5055 3.64062H20.8704C21.1186 3.64062 21.3198 3.84185 21.3198 4.09006V4.1273C21.3198 6.12446 20.3559 8.01465 18.7412 9.18356L17.5007 10.0816C17.4211 10.1392 17.3288 10.167 17.2376 10.167Z" fill="#FF7403"/>
<path d="M14.5481 11.4758C12.8434 11.4758 11.6224 10.5706 10.919 8.7855C10.3592 7.36464 10.23 5.64619 10.1358 4.39143C10.0973 3.87965 10.0507 3.25904 9.98184 3.00194C9.81423 2.93665 9.69543 2.77369 9.69543 2.58301H19.4076C19.4076 2.78366 19.2761 2.95358 19.0946 3.01135C19.0184 3.27459 18.9684 3.9293 18.9272 4.46847C18.8319 5.71711 18.7013 7.4272 18.1455 8.82805C17.4485 10.5849 16.2382 11.4758 14.5481 11.4758Z" fill="#FFE645"/>
<path d="M14.5529 11.4757C16.2399 11.4737 17.4483 10.583 18.1445 8.82805C18.7002 7.42723 18.8308 5.71714 18.9262 4.46847C18.9673 3.9293 19.0173 3.27459 19.0936 3.01135C19.2751 2.95358 19.4065 2.78366 19.4065 2.58301H14.5529V11.4757Z" fill="#FFC12E"/>
<path d="M19.5307 3.03265H9.56674C9.31854 3.03265 9.11731 2.83143 9.11731 2.58322C9.11731 2.33501 9.31854 2.13379 9.56674 2.13379H19.5306C19.7788 2.13379 19.9801 2.33501 19.9801 2.58322C19.9801 2.83143 19.7789 3.03265 19.5307 3.03265Z" fill="#FFC12E"/>
<path d="M19.5324 2.13379H14.5529V3.03265H19.5324C19.7806 3.03265 19.9818 2.83143 19.9818 2.58322C19.9818 2.33501 19.7806 2.13379 19.5324 2.13379Z" fill="#FF9300"/>
<path d="M16.9161 15.6704H12.1964C11.9482 15.6704 11.7469 15.4691 11.7469 15.2209V14.242C11.7469 13.6638 12.2174 13.1934 12.7956 13.1934H16.3169C16.8951 13.1934 17.3655 13.6638 17.3655 14.242V15.2209C17.3655 15.4691 17.1643 15.6704 16.9161 15.6704Z" fill="#FFE645"/>
<path d="M16.3111 13.1934H14.5529V15.6704H16.9104C17.1586 15.6704 17.3598 15.4692 17.3598 15.2209V14.242C17.3598 13.6638 16.8894 13.1934 16.3111 13.1934Z" fill="#FFC12E"/>
<path d="M14.1795 5.75487L14.0405 5.84117C13.9973 5.86993 13.9542 5.87952 13.9206 5.87952C13.7815 5.87952 13.6857 5.7309 13.6857 5.58229C13.6857 5.48162 13.7288 5.38574 13.8247 5.32821L14.4575 4.94469C14.4959 4.92072 14.5438 4.91113 14.5966 4.91113C14.75 4.91113 14.9274 5.00222 14.9274 5.14604V8.19507C14.9274 8.34848 14.7404 8.42518 14.5534 8.42518C14.3665 8.42518 14.1795 8.34848 14.1795 8.19507V5.75487Z" fill="#FF7403"/>
<path d="M14.596 4.91113C14.5812 4.91113 14.5668 4.91212 14.5529 4.91374V8.42518C14.7398 8.42518 14.9268 8.34848 14.9268 8.19507V5.14607C14.9268 5.00222 14.7495 4.91113 14.596 4.91113Z" fill="#E5002E"/>
<path d="M18.3054 17.4749H10.7934C10.5452 17.4749 10.344 17.2737 10.344 17.0255V15.2278C10.344 14.9795 10.5452 14.7783 10.7934 14.7783H18.3054C18.5536 14.7783 18.7549 14.9795 18.7549 15.2278V17.0255C18.7549 17.2737 18.5536 17.4749 18.3054 17.4749Z" fill="#FF3D4A"/>
<path d="M18.3065 14.7783H14.5529V17.4749H18.3065C18.5547 17.4749 18.7559 17.2737 18.7559 17.0255V15.2278C18.7559 14.9795 18.5547 14.7783 18.3065 14.7783Z" fill="#C20020"/>
<g opacity="0.78">
<path fill-rule="evenodd" clip-rule="evenodd" d="M22.8727 14.9325L22.8754 14.9362C22.7243 15.5996 22.3408 16.2128 21.7456 16.642C21.2548 16.9958 20.6911 17.1731 20.1287 17.188C20.1023 17.9183 19.7518 18.6288 19.1133 19.0891C18.2665 19.6996 17.1618 19.6913 16.3375 19.1528C16.1346 19.4848 15.8639 19.7829 15.5283 20.0248C14.1802 20.9968 12.2997 20.6922 11.3278 19.3441C10.8228 18.6437 10.6635 17.8001 10.815 17.0143C9.94513 17.0182 9.08712 16.6173 8.53992 15.8583C7.63987 14.61 7.92218 12.8686 9.17054 11.9686C9.21581 11.936 9.26196 11.9053 9.30851 11.8758C9.01629 11.1348 9.24957 10.2631 9.92514 9.77604C10.7239 9.20013 11.8383 9.3805 12.4144 10.1796C12.8242 10.748 12.8505 11.476 12.5442 12.0563C13.1754 12.3786 13.6968 13.1018 13.6968 13.1018C13.6968 13.1018 14.0393 12.5803 14.6515 12.1389C15.6763 11.4 17.0464 11.4917 17.9625 12.2831C18.0814 12.1596 18.2122 12.0447 18.3561 11.9409C18.688 11.7016 19.0536 11.543 19.4297 11.4606C19.3672 11.0699 19.4008 10.6698 19.524 10.2965L19.5224 10.291C19.6791 9.82113 19.9801 9.39414 20.4126 9.08227C20.8217 8.78732 21.2909 8.63677 21.7597 8.62051C21.7848 7.95794 22.1036 7.31324 22.6832 6.89535C23.3911 6.38497 24.2978 6.35042 25.0217 6.72957C25.1496 6.54322 25.3106 6.37487 25.5046 6.235C26.4031 5.5872 27.6571 5.7905 28.3052 6.68934C28.953 7.58783 28.7497 8.84185 27.8512 9.48965C27.2825 9.89968 26.5716 9.96838 25.9619 9.73608C25.8066 10.0343 25.5814 10.3017 25.2904 10.5114C24.9848 10.7318 24.6419 10.8632 24.2929 10.9115C24.3455 11.7255 23.991 12.5474 23.2804 13.0598C23.1225 13.1737 22.9552 13.2653 22.7828 13.3368C22.9642 13.856 22.9909 14.4096 22.8727 14.9325Z" fill="#988393"/>
</g>
</g>
</svg>
