<svg width="25" height="23" viewBox="0 0 25 23" fill="none" xmlns="http://www.w3.org/2000/svg">
<g opacity="0.5">
<path fill-rule="evenodd" clip-rule="evenodd" d="M19.3451 0.132297C17.5559 -0.347141 15.7232 0.514585 14.9144 2.10125L14.886 2.12079C14.2846 2.09359 13.7241 2.4859 13.5618 3.09132C13.5567 3.11033 13.5521 3.12936 13.5479 3.14839C12.4673 3.31795 11.6408 4.25309 11.6408 5.38127C11.6408 5.95429 11.854 6.4775 12.2054 6.8759C12.0435 6.88983 11.881 6.92954 11.7235 6.99724C10.9327 7.33707 10.5668 8.25349 10.9068 9.04464C11.1486 9.60734 11.6825 9.95431 12.2552 9.98563C12.2131 10.6037 12.5208 11.3197 12.5208 11.3197C12.5208 11.3197 11.9758 11.3419 11.3697 11.6024C10.3551 12.0384 9.80788 13.1066 9.98923 14.1491C9.84321 14.1828 9.69826 14.2291 9.55573 14.2903C9.22721 14.4315 8.94392 14.6343 8.71306 14.8792C8.44727 14.6558 8.13085 14.5007 7.79421 14.4256L7.79165 14.4228C7.36895 14.329 6.91358 14.3626 6.48532 14.5466C6.08031 14.7207 5.7565 15.0047 5.53354 15.3488C5.02561 15.0697 4.39901 15.0189 3.82519 15.2654C3.12434 15.5666 2.69082 16.2307 2.64957 16.9438C2.45239 16.9559 2.25379 17.0009 2.06173 17.0834C1.22432 17.4433 0.810652 18.3784 1.08407 19.2292C1.01769 19.3057 0.961605 19.3933 0.918901 19.491C0.834338 19.6843 0.814138 19.8895 0.848822 20.0827C0.580036 20.1513 0.344462 20.3386 0.224652 20.6125C0.0783198 20.947 0.144138 21.3209 0.36304 21.5836C0.298099 21.6523 0.243442 21.733 0.203341 21.8247C0.0176118 22.2493 0.21134 22.7443 0.636111 22.9301C1.06072 23.1158 1.5557 22.9221 1.74143 22.4975C1.85899 22.2287 1.8244 21.9319 1.67563 21.703C1.7839 21.6132 1.8734 21.4975 1.93355 21.36C1.99672 21.2155 2.02021 21.0637 2.00921 20.9167C2.29909 20.8736 2.5649 20.7071 2.72723 20.4483C2.96715 20.4521 3.21171 20.4065 3.4464 20.3057C4.00943 20.0637 4.38051 19.5618 4.48051 19.0003C4.77389 19.0179 5.07554 18.9693 5.36363 18.8455C5.66621 18.7155 5.91883 18.5175 6.11194 18.2777C6.69848 18.683 7.47398 18.7869 8.17753 18.4845C8.33387 18.4174 8.47773 18.3332 8.60886 18.2361C8.91731 18.6065 9.32164 18.8758 9.76808 19.0221L9.76914 19.0246C10.3344 19.2096 10.9665 19.1978 11.5558 18.9446C12.0417 18.7358 12.428 18.3929 12.692 17.9781C13.2513 18.2866 13.9415 18.3433 14.5736 18.0717C15.4119 17.7114 15.9023 16.8796 15.8692 16.0196C16.2093 16.0168 16.5545 15.9479 16.8867 15.8051C18.0088 15.3229 18.6238 14.153 18.4503 12.9994C18.9426 13.0348 19.4122 12.7877 19.6644 12.3707C19.9705 12.4257 20.2761 12.4426 20.5758 12.4244C20.6977 12.4898 20.829 12.5423 20.9685 12.5797C21.9432 12.8409 22.945 12.2624 23.2062 11.2877C23.2217 11.2297 23.2343 11.1716 23.244 11.1136C23.6205 10.6836 23.9068 10.1629 24.0647 9.57352C24.2796 8.77171 24.2251 7.96119 23.9568 7.238C24.3631 7.00438 24.6801 6.61541 24.8109 6.12691C25.0721 5.15221 24.4937 4.15035 23.519 3.88918C23.3604 3.8467 23.2012 3.82643 23.0445 3.82647C22.9602 3.3383 22.6015 2.91909 22.0916 2.78245C22.0767 2.77848 22.0619 2.77478 22.047 2.77134C21.6804 1.5247 20.6922 0.493225 19.3451 0.132297Z" fill="#A595A2"/>
<path d="M15.5359 7.17902C15.3684 7.17902 15.2327 7.04327 15.2327 6.87563V6.39616C15.2327 6.22852 15.3684 6.09277 15.5359 6.09277C15.7035 6.09277 15.8393 6.22852 15.8393 6.39616V6.87563C15.8393 7.04327 15.7035 7.17902 15.5359 7.17902Z" fill="white"/>
<path d="M20.8352 7.17902C20.6678 7.17902 20.5319 7.04327 20.5319 6.87563V6.39616C20.5319 6.22852 20.6678 6.09277 20.8352 6.09277C21.0027 6.09277 21.1386 6.22852 21.1386 6.39616V6.87563C21.1386 7.04327 21.0027 7.17902 20.8352 7.17902Z" fill="white"/>
<path d="M17.9575 8.91954C17.615 8.91954 17.2933 8.77628 17.0749 8.52642C16.9648 8.40035 16.9775 8.20862 17.1037 8.09834C17.23 7.98821 17.4215 8.00094 17.5318 8.12717C17.6349 8.24512 17.7901 8.31277 17.9575 8.31277C18.1248 8.31277 18.2799 8.24512 18.3829 8.12717C18.4932 8.00094 18.6849 7.98821 18.811 8.09834C18.9372 8.20862 18.9501 8.40035 18.8399 8.52642C18.6214 8.77628 18.2998 8.91954 17.9575 8.91954Z" fill="white"/>
</g>
</svg>
