<svg width="25" height="45" viewBox="0 0 25 45" fill="none" xmlns="http://www.w3.org/2000/svg">
<g opacity="0.5">
<g clip-path="url(#clip0_1580_19617)">
<path d="M15.1532 29.1254C15.1705 29.2637 14.9805 30.3522 15.0496 30.9915C14.6522 30.3695 14.4448 29.6783 14.4448 28.9526C14.6176 28.9526 14.7558 28.9526 14.8595 28.9526C15.015 28.9699 15.136 28.9872 15.1532 29.1254Z" fill="#D1C2BA"/>
<path d="M9.43413 28.9697C9.53781 28.9697 9.67604 28.9697 9.84882 28.9697C9.84882 29.6954 9.64148 30.3866 9.24407 31.0086C9.31318 30.3693 9.12312 29.2807 9.1404 29.1425C9.15768 28.987 9.27863 28.9697 9.43413 28.9697Z" fill="#D1C2BA"/>
<path d="M24.2418 32.3563C24.3973 32.7883 24.2073 33.0993 23.9826 33.082C23.7407 33.0647 20.9243 32.6846 20.4578 32.5982C19.974 32.4945 19.7667 32.2872 19.6457 31.9243C19.6111 31.838 19.542 31.5788 19.4384 31.2505C19.352 30.974 19.2483 30.6284 19.1446 30.3002C19.041 29.9891 18.9546 29.6781 18.8682 29.4189C19.1101 29.5226 19.4211 29.5572 19.7839 29.5399C19.9913 30.2483 20.2677 31.2332 20.3368 31.3887C20.4405 31.6479 20.6306 31.8034 20.9243 31.8552C21.2181 31.9071 23.1705 32.2008 23.5161 32.2526C23.8444 32.3045 24.1727 32.1835 24.0172 31.7688C24.1209 32.0626 24.2073 32.2699 24.2418 32.3563Z" fill="#FFAA00"/>
<path d="M22.4967 28.0368C21.9438 28.2096 21.2872 28.4169 20.6824 28.5725C20.1986 28.5552 19.8876 28.3478 19.6803 28.0541C19.7321 28.0541 19.7666 28.0368 19.8185 28.0195C20.6824 27.8295 22.3239 27.363 23.1878 26.8792C23.3606 26.7755 23.447 26.499 23.3433 26.2744C23.2397 26.0498 21.7191 22.1103 21.6673 22.0066C21.6155 21.9029 21.46 21.7647 21.3044 21.8684C21.1489 21.972 20.0085 22.9396 18.6263 23.3198C18.5053 23.1988 18.2289 22.9569 17.9524 22.6977C18.4016 22.6286 18.8336 22.4558 19.231 22.2139C19.974 21.782 20.5787 21.1772 20.8898 20.918C21.3736 20.5206 22.0474 20.6589 22.2548 21.1772C22.3757 21.4537 23.9999 25.6697 24.2073 26.2744C24.3973 26.8619 24.0863 27.363 23.6371 27.5703C23.4816 27.6912 23.0496 27.8468 22.4967 28.0368Z" fill="#FFAA00"/>
<path d="M24 31.769C24.1555 32.1837 23.8272 32.2874 23.4989 32.2528C23.1533 32.201 21.2008 31.9072 20.9071 31.8554C20.6134 31.8036 20.4233 31.6481 20.3196 31.3889C20.2505 31.2334 19.9741 30.2485 19.7667 29.5401C20.6307 29.4882 21.7365 29.1254 22.7559 28.7107C23.1015 29.5401 23.6717 30.9569 24 31.769Z" fill="#31363D"/>
<path d="M23.3433 26.2917C23.447 26.5163 23.3606 26.7928 23.1878 26.8964C22.3412 27.3803 20.6997 27.8468 19.8185 28.0368C19.7667 28.0541 19.7321 28.0541 19.6803 28.0714C19.5248 27.8641 19.4211 27.6049 19.3347 27.3457C19.1274 26.7409 18.4535 23.9591 18.4535 23.9591C18.5917 23.7345 18.7127 23.4926 18.6954 23.4407C18.6954 23.4407 18.6608 23.4062 18.6263 23.3543C19.9913 22.9742 21.1317 22.0066 21.3045 21.9029C21.46 21.7993 21.6155 21.9375 21.6673 22.0412C21.7192 22.1448 23.2397 26.0671 23.3433 26.2917Z" fill="#31363D"/>
<path d="M22.4967 28.0369C22.514 28.0714 22.6177 28.3306 22.7732 28.7107C21.7538 29.1254 20.6479 29.4883 19.784 29.5401C19.6803 29.1427 19.5939 28.849 19.5767 28.8144C19.8704 28.7798 20.2678 28.6935 20.6825 28.5898C21.2872 28.417 21.9438 28.2097 22.4967 28.0369Z" fill="#25272B"/>
<path d="M22.1338 11.1729C21.5636 12.2096 21.1144 13.35 20.6997 15.1124C20.3714 16.5465 20.0086 18.5681 18.1943 20.5033C17.7623 20.9525 17.2613 21.4191 16.6392 21.851L16.6911 21.4882C16.6911 21.4882 16.3109 20.9698 15.8962 20.4342C17.8487 18.9482 18.5399 17.0649 18.488 14.9914C18.8509 13.661 20.2505 11.8986 22.1338 11.1729Z" fill="#FF7B00"/>
<path d="M17.8488 13.1425C18.1598 12.1058 19.9741 10.4643 22.1339 11.19C20.2505 11.9157 18.851 13.6781 18.4881 15.0258C17.987 14.1792 16.4838 13.6608 15.8445 13.8163C16.2419 13.2461 17.2441 12.9697 17.8488 13.1425Z" fill="#FFC85C"/>
<path d="M19.5767 28.7969C19.5076 28.7969 19.4384 28.8142 19.3693 28.8142C19.0756 28.8315 18.851 28.7969 18.6609 28.7451C18.1771 28.6069 17.9698 28.3131 17.9179 28.1231C17.9006 28.0712 17.8834 27.9848 17.8661 27.8984C18.1253 28.0885 18.8682 28.2095 19.6976 28.0539C19.905 28.3477 20.216 28.555 20.6998 28.5723C20.2678 28.676 19.8704 28.7624 19.5767 28.7969Z" fill="#FF7B00"/>
<path d="M19.784 29.5227C19.4211 29.5399 19.1101 29.5054 18.8682 29.4017C18.7473 29.0216 18.6609 28.7451 18.6609 28.7451C18.851 28.797 19.0929 28.8315 19.3693 28.8142C19.4384 28.8142 19.4903 28.797 19.5767 28.797C19.5767 28.8315 19.663 29.1425 19.784 29.5227Z" fill="#F25900"/>
<path d="M19.3348 27.3457C19.4212 27.6049 19.5248 27.8641 19.6803 28.0714C18.8682 28.2269 18.1253 28.106 17.8488 27.9159C17.7797 27.6222 17.6933 27.2421 17.6933 27.2421C17.8834 26.9483 17.9525 26.7064 17.9525 26.6373C17.9179 26.4818 17.8142 26.3263 17.6933 26.1708C17.4687 25.9289 17.1922 25.7043 17.1404 25.5315C17.054 25.2723 17.365 24.5984 17.3823 24.5639C17.7797 24.4602 18.1598 24.3565 18.2116 24.322C18.2635 24.3047 18.3672 24.1492 18.4708 23.9764C18.4535 23.9418 19.1274 26.7237 19.3348 27.3457Z" fill="#25272B"/>
<path d="M19.1274 30.2829C19.2311 30.6112 19.3347 30.9568 19.4211 31.2332C18.2116 30.6112 16.2937 30.8358 16.2937 30.8358C16.4319 30.5766 16.5874 30.3002 16.7429 30.0237C16.7429 30.041 17.9006 29.8337 19.1274 30.2829Z" fill="#F25900"/>
<path d="M18.8509 29.4017C18.9373 29.6609 19.0237 29.9719 19.1274 30.2829C17.9006 29.8336 16.7429 30.0237 16.7429 30.0237C17.3131 28.9697 17.8488 27.8984 17.8488 27.8984C17.866 27.9848 17.8833 28.0539 17.9006 28.1231C17.9524 28.3131 18.1598 28.6241 18.6436 28.7451C18.6608 28.7624 18.7472 29.0215 18.8509 29.4017Z" fill="#141517"/>
<path d="M17.3823 24.5464C17.0022 24.6501 16.622 24.7364 16.5184 24.771C16.2937 24.8056 16.1728 24.771 16.0691 24.6673L16.0518 24.6501C15.9482 24.5291 15.4816 24.0626 15.4125 24.0799C15.3261 24.0971 13.1145 25.6004 12.9417 25.704C12.9244 25.7213 12.8898 25.7213 12.8726 25.7386C12.7171 25.8077 12.5615 25.8423 12.4752 25.8423C12.3888 25.8423 12.1641 25.8423 12.1641 25.8423C12.1641 25.8423 11.9395 25.8423 11.8531 25.8423C11.7667 25.8423 11.6112 25.8077 11.4557 25.7386C11.4384 25.7213 11.4039 25.7213 11.3866 25.704C11.2138 25.6004 8.98487 24.0971 8.91576 24.0799C8.82937 24.0626 8.38012 24.5291 8.27645 24.6501L8.25917 24.6673C8.1555 24.771 8.03455 24.8056 7.80993 24.771C7.70626 24.7537 7.30885 24.6501 6.946 24.5464C6.54859 24.4427 6.16846 24.339 6.11662 24.3045C6.06479 24.2872 5.96111 24.1317 5.85744 23.9589C5.71921 23.7343 5.59826 23.4924 5.61554 23.4406C5.61554 23.4406 5.6501 23.406 5.68466 23.3542C5.80561 23.2332 6.08206 22.9913 6.35852 22.7321C6.75593 22.3693 7.1879 21.9891 7.23973 21.9546C8.06911 23.1641 10.7646 24.46 12.1641 24.7364C13.5637 24.46 16.2765 23.1814 17.0885 21.9546C17.1404 21.9891 17.5723 22.3693 17.9698 22.7321C18.2462 22.9913 18.5227 23.2332 18.6436 23.3542C18.6782 23.406 18.7127 23.4233 18.7127 23.4406C18.73 23.4924 18.6091 23.7343 18.4708 23.9589C18.3672 24.1317 18.2635 24.2872 18.2117 24.3045C18.1598 24.3218 17.7797 24.4254 17.3823 24.5464Z" fill="#31363D"/>
<path d="M18.5054 15.0086C18.5572 17.0647 17.8661 18.9481 15.9136 20.4513C15.5853 20.0366 15.257 19.5874 15.0497 19.3455C15.0497 19.3455 15.689 19.069 16.1728 18.257C16.2765 18.0669 16.3801 17.8595 16.4665 17.6176C16.7603 16.771 17.0886 14.6457 15.8618 13.8163C16.5011 13.6436 18.0043 14.1619 18.5054 15.0086Z" fill="#FFAA00"/>
<path d="M18.2116 20.5205C18.5571 21.0216 18.9027 21.6091 19.231 22.2656C18.8336 22.4903 18.4016 22.6803 17.9524 22.7494C17.555 22.3866 17.123 22.0065 17.0712 21.9719C17.0021 21.8855 16.812 21.8855 16.6565 21.8855V21.8682C17.2785 21.419 17.7796 20.9698 18.2116 20.5205Z" fill="#141517"/>
<path d="M17.9525 26.6198C17.9698 26.6889 17.8834 26.9308 17.6933 27.2245C17.5205 27.4837 17.2441 27.7947 16.8467 28.0539C16.5875 28.2267 16.2592 28.3649 15.8618 28.4513C15.3089 28.3822 14.4622 27.8293 14.4104 27.7947C14.4277 27.6738 14.2722 27.1727 14.1339 27.0172C14.1166 26.9999 14.1166 26.9999 14.0994 26.9826C15.1015 27.2591 15.8791 27.2418 16.121 27.2073C16.7603 27.0863 17.8834 26.568 17.676 26.136C17.8143 26.3088 17.9352 26.4643 17.9525 26.6198Z" fill="#218D9C"/>
<path d="M17.866 27.8986C17.866 27.8986 17.3304 28.9699 16.7429 30.0239C16.5874 30.3003 16.4492 30.5768 16.2937 30.836C15.9308 31.458 15.6198 31.9591 15.4816 32.0628C15.257 31.8381 14.9978 31.6999 14.7213 31.6826C14.7386 31.6653 14.7559 31.6653 14.7559 31.6481C14.8077 31.5962 14.9632 31.3716 15.1533 31.0433C15.3606 30.6977 15.6198 30.2658 15.8617 29.8165C15.8617 29.8165 15.8617 29.8165 15.8617 29.7993C16.3455 28.9353 16.8293 28.0714 16.8466 28.0196C17.244 27.7604 17.5205 27.4494 17.6932 27.1902C17.7105 27.2247 17.7796 27.6049 17.866 27.8986Z" fill="#BD4D3C"/>
<path d="M16.2592 25.2204C16.2592 25.0131 16.19 24.823 16.0691 24.6502C16.1728 24.7539 16.2937 24.7885 16.5183 24.7539C16.622 24.7366 17.0194 24.633 17.3823 24.5293C17.365 24.5639 17.0713 25.2377 17.1404 25.4969C16.5183 25.2896 16.1555 25.6524 16.1209 25.687C16.2246 25.5315 16.2592 25.3759 16.2592 25.2204Z" fill="#066E85"/>
<path d="M16.6565 21.8855C16.7948 21.8855 16.9848 21.8855 17.0712 21.9546C16.2419 23.1641 13.5464 24.46 12.1468 24.7365C10.7473 24.46 8.03451 23.1814 7.22241 21.9546C7.29153 21.8855 7.48159 21.8855 7.6371 21.8855L7.67166 22.0928C8.41464 22.8013 10.8682 23.9244 12.1641 24.0799C13.4427 23.9244 15.9136 22.8013 16.6565 22.0928V21.8855Z" fill="#25272B"/>
<path d="M16.7084 21.5055L16.6566 21.8684V21.8857L16.622 22.093C15.8791 22.8014 13.4255 23.9245 12.1296 24.08C10.851 23.9245 8.38014 22.8014 7.63716 22.093V21.8857V21.8684L7.58533 21.5055C7.58533 21.5055 7.96546 20.9872 8.38014 20.4515C8.70844 20.0368 9.03673 19.5876 9.24407 19.3457L9.74515 20.0368C10.0907 20.6762 11.473 21.9029 12.1469 22.3349C12.8207 21.9029 14.203 20.6762 14.5486 20.0368L15.0497 19.3457C15.257 19.6049 15.5853 20.0368 15.9136 20.4515C16.3283 20.9872 16.7084 21.5055 16.7084 21.5055Z" fill="#31363D"/>
<path d="M16.2591 25.2204C16.2591 25.3759 16.2246 25.5487 16.1209 25.7042C16.0518 25.8079 15.9654 25.9116 15.8444 25.9979C15.3088 26.4126 14.4967 26.3608 14.1166 26.3781C13.9265 26.3781 13.771 26.2917 13.6501 26.188C13.5464 26.1016 13.4427 25.9807 13.3563 25.8943C14.1166 25.1859 15.6198 24.4429 16.2591 25.2204Z" fill="#25272B"/>
<path d="M16.069 24.6502C16.19 24.8057 16.2591 25.0131 16.2591 25.2204C15.6198 24.4602 14.1166 25.2031 13.3563 25.877C13.339 25.8597 13.3217 25.8424 13.3045 25.8252C13.1144 25.6524 12.9071 25.7042 12.8552 25.7215C12.8725 25.7042 12.9071 25.7042 12.9243 25.6869C13.0971 25.5833 15.3261 24.08 15.3952 24.0627C15.4816 24.0627 15.9481 24.512 16.069 24.6502C16.0518 24.6502 16.0518 24.6329 16.069 24.6502Z" fill="#141517"/>
<path d="M15.4816 32.0627C15.8445 32.4083 16.0864 32.9785 16.0173 33.5833C15.9309 34.3781 15.1879 35.0519 14.4968 34.9828C13.9784 34.931 13.6501 34.6373 13.3045 34.188C13.1663 33.566 13.2009 32.9785 13.2009 32.9785C13.2527 33.0303 13.3218 33.0822 13.3909 33.134C13.6847 33.3586 14.013 33.6178 14.1685 33.7215C14.4968 33.9461 14.9806 33.8079 15.0497 33.445C15.1188 33.0822 14.8596 32.7021 14.2721 32.8057C14.1166 32.8403 13.9611 32.8748 13.8229 32.9267L13.3391 32.2183C13.46 32.1837 13.5983 32.1319 13.7192 32.08C14.0302 31.9764 14.3067 31.8727 14.4968 31.7863C14.5832 31.7517 14.6695 31.6999 14.7041 31.6826C14.9978 31.7172 15.257 31.8554 15.4816 32.0627Z" fill="#DB8660"/>
<path d="M15.879 28.4513C16.2764 28.3649 16.5874 28.2094 16.8638 28.0539C16.8293 28.1057 16.3628 28.9697 15.879 29.8336C16.1036 29.4016 15.6889 28.9524 15.5334 28.8142C15.3779 28.6759 14.5139 28.0366 14.5139 28.0366L14.4448 27.812C14.4794 27.8466 15.326 28.3995 15.879 28.4513Z" fill="#066E85"/>
<path d="M16.1554 18.2397C15.6889 19.0518 15.0323 19.3282 15.0323 19.3282L14.2202 19.1036C13.8401 18.0496 13.3217 16.7537 13.2354 16.6155C13.9783 16.9092 15.015 17.3066 16.1554 18.2397Z" fill="#141517"/>
<path d="M15.0496 19.3284L14.5486 20.0195C14.4794 19.7776 14.3585 19.4493 14.2375 19.1038L15.0496 19.3284Z" fill="#25272B"/>
<path d="M14.3758 30.5768C14.1511 30.3004 13.9265 29.8338 13.7365 29.0909C13.8228 29.0218 13.9092 28.9526 14.0475 28.9526C14.203 28.9526 14.3239 28.9526 14.4449 28.9526C14.4449 29.6783 14.6522 30.3695 15.0496 30.9915C14.8423 30.957 14.6004 30.8533 14.3758 30.5768Z" fill="#F5ECE7"/>
<path d="M14.4275 27.812L14.4967 28.0366C14.4967 28.0366 14.3066 28.3822 14.1511 28.5895C13.9956 28.7969 13.6673 28.7451 13.3217 28.6587C13.1835 28.9351 12.7861 29.3671 12.2504 29.4189C12.2159 29.4189 12.1813 29.4189 12.1468 29.4189C11.5593 29.4189 11.11 28.9697 10.9718 28.6587C10.6435 28.7451 10.298 28.7969 10.1424 28.5895C9.98694 28.3822 9.79688 28.0366 9.79688 28.0366L9.86599 27.812C9.88327 27.933 10.0561 28.1576 10.2116 28.2785C10.3498 28.3995 10.5053 28.4686 10.6608 28.4513C10.8163 28.434 11.0755 28.3649 11.1101 28.3649C11.1446 28.3822 11.4211 28.6414 11.5593 28.7278C11.6975 28.8142 11.8012 28.8833 12.1468 28.8833C12.4923 28.8833 12.596 28.8142 12.7342 28.7278C12.8725 28.6414 13.1489 28.3822 13.1835 28.3649C13.218 28.3476 13.4945 28.4168 13.6327 28.4513C13.7882 28.4686 13.9437 28.3995 14.082 28.2785C14.2375 28.1576 14.4103 27.933 14.4275 27.812Z" fill="#218D9C"/>
<path d="M13.7364 29.0908C13.9265 29.8338 14.1511 30.3003 14.3757 30.5768C14.2548 30.6977 13.9092 30.7323 13.8055 30.6286C13.7537 30.5768 13.6327 30.4904 13.4945 30.4213C13.3563 30.3522 13.1835 30.283 13.0971 30.283C12.907 30.283 12.1468 30.283 12.1468 30.283C12.1468 30.283 11.4038 30.283 11.1965 30.283C11.0928 30.283 10.9373 30.3349 10.7991 30.4213C10.6608 30.4904 10.5399 30.5768 10.488 30.6286C10.3844 30.7496 10.0388 30.715 9.91785 30.5768C10.1425 30.3003 10.3671 29.8338 10.5572 29.0908C10.6608 29.1772 10.7299 29.2982 10.8509 29.3846C11.0755 29.5401 11.1965 29.6265 11.3693 29.6265C11.5248 29.6265 12.1468 29.6265 12.1468 29.6265C12.1468 29.6265 12.1986 29.6265 12.2505 29.6265C12.4405 29.6265 12.8034 29.6265 12.9243 29.6265C13.0798 29.6265 13.2181 29.5401 13.4427 29.3846C13.5636 29.2982 13.6327 29.1772 13.7364 29.0908Z" fill="#25272B"/>
<path d="M13.3909 31.2852C13.6846 31.6998 14.1511 31.9417 14.4967 31.8035C14.3066 31.8899 14.0129 31.9936 13.7192 32.0973C13.5809 31.9936 13.4773 31.7171 13.3909 31.2852Z" fill="#066E85"/>
<path d="M14.2376 19.1037C14.3585 19.4492 14.4795 19.7603 14.5486 20.0194C14.203 20.6587 12.8207 21.8855 12.1468 22.3175C11.473 21.8855 10.0907 20.6587 9.74512 20.0194C9.81423 19.7775 9.93518 19.4492 10.0561 19.1037C10.4363 18.0497 10.9546 16.7538 11.041 16.6155C11.1447 16.4428 12.1468 15.4924 12.1468 15.4924C12.1468 15.4924 13.149 16.4428 13.2527 16.6155C13.3391 16.7538 13.8574 18.0497 14.2376 19.1037Z" fill="#FFAA00"/>
<path d="M13.3391 32.2354L13.8229 32.9438C13.581 33.0302 13.3909 33.1338 13.3909 33.1338C13.3218 33.082 13.2527 33.0302 13.2009 32.9783C12.9935 32.8055 12.8207 32.6846 12.8207 32.6846C12.7862 32.5809 12.7171 32.4773 12.6134 32.4773C12.7171 32.4427 12.838 32.4081 12.959 32.3563C13.0972 32.3217 13.2182 32.2872 13.3391 32.2354Z" fill="#BD4D3C"/>
<path d="M13.7192 26.879C13.6674 26.879 13.6155 26.8963 13.5637 26.9136C13.3909 26.9827 12.9935 27.2419 12.8726 27.4146C13.0972 26.7926 13.46 26.3779 13.46 26.3779C13.46 26.3779 13.4082 26.7581 13.7192 26.879Z" fill="#218D9C"/>
<path d="M13.0971 30.283C13.2008 30.283 13.3563 30.3348 13.4945 30.4212C13.0626 30.1793 12.5097 30.9568 12.1468 30.9568C11.784 30.9568 11.231 30.1793 10.7991 30.4212C10.9373 30.3521 11.1101 30.283 11.1965 30.283C11.3865 30.283 12.1468 30.283 12.1468 30.283C12.1468 30.283 12.8898 30.283 13.0971 30.283Z" fill="#218D9C"/>
<path d="M13.3045 25.825C13.3218 25.8423 13.339 25.8595 13.3563 25.8768C12.9589 26.2397 12.6825 26.8962 12.1468 26.8962C11.7494 26.8962 11.4902 26.5334 11.231 26.1878C11.1447 26.0669 11.041 25.9632 10.9546 25.8768C10.9719 25.8595 10.9891 25.8423 11.0064 25.825C11.1965 25.6522 11.4038 25.704 11.4557 25.7213C11.6112 25.7904 11.7667 25.825 11.8531 25.825C11.9395 25.825 12.1641 25.825 12.1641 25.825C12.1641 25.825 12.3887 25.825 12.4751 25.825C12.5615 25.825 12.717 25.7904 12.8725 25.7213C12.9071 25.704 13.1144 25.6522 13.3045 25.825Z" fill="#218D9C"/>
<path d="M13.2008 32.9786C13.2008 32.9786 13.1663 33.5487 13.3045 34.1881C13.1835 34.0325 13.0453 33.8425 12.9071 33.6524C12.9071 33.6351 12.9071 33.6351 12.9071 33.6179C12.9071 33.5315 12.8725 32.9786 12.8552 32.823C12.8552 32.7712 12.838 32.7194 12.8207 32.6848C12.8207 32.6848 12.9762 32.823 13.2008 32.9786Z" fill="#BD4D3C"/>
<path d="M12.1468 31.6479C12.717 31.6479 13.3563 32.2354 12.9762 32.3564C12.8552 32.3909 12.7343 32.4428 12.6306 32.4773C12.3542 32.5637 12.1641 32.6156 12.1641 32.6156C12.1641 32.6156 11.974 32.5637 11.6976 32.4773C11.5939 32.4428 11.4729 32.4082 11.352 32.3564C10.9373 32.2354 11.5766 31.6479 12.1468 31.6479Z" fill="#218D9C"/>
<path d="M12.9243 33.635C12.9243 33.635 12.9243 33.6523 12.9243 33.6696C12.8898 33.756 12.717 33.8769 12.5269 33.8942C12.3196 33.9288 12.1468 33.756 12.1468 33.756C12.1468 33.756 11.974 33.9115 11.7667 33.8942C11.5939 33.8596 11.4038 33.756 11.3693 33.6696C11.3693 33.6523 11.3693 33.6523 11.3693 33.635C11.3693 33.5486 11.4038 32.9957 11.4211 32.8402C11.4211 32.7884 11.4384 32.7365 11.4557 32.702C11.4902 32.5983 11.5593 32.4946 11.663 32.4946C11.9395 32.581 12.1295 32.6329 12.1295 32.6329C12.1295 32.6329 12.3196 32.581 12.596 32.4946C12.6997 32.4946 12.7688 32.5983 12.8034 32.702C12.8207 32.7538 12.8379 32.8056 12.8379 32.8402C12.8898 32.9957 12.9243 33.5313 12.9243 33.635Z" fill="#DB8660"/>
<path d="M15.5334 28.8144C15.3779 28.6762 14.514 28.0369 14.514 28.0369C14.514 28.0369 14.3239 28.3824 14.1684 28.5898C14.0129 28.7971 13.6846 28.7453 13.339 28.6589C13.2008 28.9354 12.8034 29.3673 12.2678 29.4192C12.2332 29.4192 12.1987 29.4192 12.1641 29.4192C11.5766 29.4192 11.1274 28.9699 10.9892 28.6589C10.6609 28.7453 10.3153 28.7971 10.1598 28.5898C10.0043 28.3824 9.8142 28.0369 9.8142 28.0369C9.8142 28.0369 8.95027 28.6762 8.79477 28.8144C8.63926 28.9526 8.22457 29.4019 8.44919 29.8338C8.44919 29.8338 8.44919 29.8338 8.44919 29.8511C8.69109 30.2658 8.91572 30.6805 9.12306 31.0088C9.3304 31.3544 9.50319 31.6135 9.55502 31.6654C9.5723 31.6654 9.5723 31.6827 9.58958 31.6999C9.64142 31.7345 9.71053 31.769 9.8142 31.8036C10.1598 31.9418 10.6263 31.6827 10.92 31.2852C10.8336 31.7172 10.7127 31.9937 10.5917 32.1146C10.7127 32.1665 10.8509 32.201 10.9719 32.2528C11.0928 32.2874 11.2138 32.3392 11.3347 32.3738C10.9546 32.2528 11.5939 31.6654 12.1641 31.6654C12.7343 31.6654 13.3736 32.2528 12.9935 32.3738C13.1144 32.3392 13.2354 32.2874 13.3563 32.2528C13.4773 32.2183 13.6155 32.1665 13.7365 32.1146C13.6155 31.9937 13.4945 31.7172 13.4082 31.2852C13.7019 31.6999 14.1684 31.9418 14.514 31.8036C14.6004 31.769 14.6868 31.7172 14.7213 31.6999C14.7386 31.6827 14.7559 31.6827 14.7559 31.6654C14.8077 31.6135 14.9632 31.3889 15.1533 31.0606C15.3606 30.7151 15.6198 30.2831 15.8617 29.8338C15.8617 29.8338 15.8617 29.8338 15.8617 29.8166C16.1036 29.4019 15.6889 28.9526 15.5334 28.8144ZM14.3758 30.5768C14.2548 30.6978 13.9092 30.7323 13.8056 30.6287C13.7537 30.5768 13.6328 30.4904 13.4945 30.4213C13.0626 30.1794 12.5097 30.957 12.1468 30.957C11.784 30.957 11.2311 30.1794 10.7991 30.4213C10.6609 30.4904 10.5399 30.5768 10.4881 30.6287C10.3844 30.7496 10.0388 30.7151 9.91788 30.5768C9.69325 30.8533 9.45135 30.957 9.24401 30.9915C9.31312 30.3522 9.12306 29.2636 9.14034 29.1254C9.15762 28.9872 9.27857 28.9526 9.43407 28.9526C9.53775 28.9526 9.67598 28.9526 9.84876 28.9526C9.96971 28.9526 10.0907 28.9526 10.2462 28.9526C10.3844 28.9526 10.4708 29.0045 10.5572 29.0909C10.6609 29.1773 10.73 29.2982 10.8509 29.3846C11.0755 29.5401 11.1965 29.6265 11.3693 29.6265C11.5248 29.6265 12.1468 29.6265 12.1468 29.6265C12.1468 29.6265 12.1987 29.6265 12.2505 29.6265C12.4406 29.6265 12.8034 29.6265 12.9244 29.6265C13.0799 29.6265 13.2181 29.5401 13.4427 29.3846C13.5637 29.2982 13.6501 29.1773 13.7365 29.0909C13.8228 29.0217 13.9092 28.9526 14.0475 28.9526C14.203 28.9526 14.3239 28.9526 14.4449 28.9526C14.6177 28.9526 14.7559 28.9526 14.8596 28.9526C15.0151 28.9526 15.136 28.9872 15.1533 29.1254C15.1706 29.2636 14.9805 30.3522 15.0496 30.9915C14.8423 30.957 14.6004 30.8533 14.3758 30.5768Z" fill="#09D0EB"/>
<path d="M11.6803 32.4773C11.5767 32.4773 11.5075 32.5809 11.473 32.6846C11.473 32.6846 11.3175 32.8055 11.0929 32.9783C11.041 33.0302 10.9719 33.082 10.9028 33.1338C10.9028 33.1338 10.7127 33.0302 10.4708 32.9438L10.9546 32.2354C11.0756 32.2699 11.1965 32.3217 11.3175 32.3563C11.4557 32.4081 11.5594 32.4427 11.6803 32.4773Z" fill="#BD4D3C"/>
<path d="M11.4729 32.6848C11.4557 32.7367 11.4384 32.7885 11.4384 32.823C11.4038 32.9786 11.3865 33.5315 11.3865 33.6179C11.3865 33.6179 11.3865 33.6351 11.3865 33.6524C11.2483 33.8425 11.1274 34.0325 10.9891 34.1881C11.1274 33.566 11.0928 32.9786 11.0928 32.9786C11.3174 32.823 11.4729 32.6848 11.4729 32.6848Z" fill="#BD4D3C"/>
<path d="M11.3693 25.6869C11.3866 25.7042 11.4212 25.7042 11.4384 25.7215C11.4039 25.7042 11.1793 25.6524 10.9892 25.8251C10.9719 25.8424 10.9546 25.8597 10.9374 25.877C10.1771 25.1858 8.67385 24.4429 8.03455 25.2204C8.03455 25.013 8.10366 24.823 8.22461 24.6502L8.24189 24.6329C8.34556 24.512 8.81208 24.0454 8.8812 24.0627C8.96759 24.08 11.1965 25.5832 11.3693 25.6869Z" fill="#141517"/>
<path d="M17.6933 26.1534C17.4687 25.9115 17.1922 25.6868 17.1404 25.5141C16.5183 25.3067 16.1555 25.6696 16.1209 25.7041C16.0518 25.8078 15.9654 25.9115 15.8445 25.9979C15.3088 26.4125 14.4967 26.3607 14.1166 26.378C13.9266 26.378 13.771 26.2916 13.6501 26.1879C13.5464 26.1015 13.4428 25.9806 13.3564 25.8942C12.959 26.257 12.6825 26.9136 12.1469 26.9136C11.7494 26.9136 11.4903 26.5508 11.2311 26.2052C11.1447 26.0843 11.041 25.9806 10.9546 25.8942C10.7473 26.1015 10.5399 26.3953 10.1944 26.3953C9.81424 26.3953 9.00215 26.4298 8.46651 26.0151C8.34556 25.9287 8.25917 25.8251 8.19005 25.7214C8.1555 25.6868 7.79265 25.324 7.17062 25.5313C7.11878 25.7041 6.84232 25.9287 6.6177 26.1706C6.41036 26.6026 7.53347 27.121 8.17278 27.2419C8.41468 27.2938 9.19221 27.2938 10.1944 27.0173C10.1771 27.0346 10.1771 27.0346 10.1598 27.0519C10.0216 27.2074 9.86608 27.7084 9.88336 27.8294C9.90064 27.9503 10.0734 28.175 10.2289 28.2959C10.3672 28.4169 10.5227 28.486 10.6782 28.4687C10.8337 28.4514 11.0929 28.3823 11.1274 28.3823C11.162 28.3996 11.4384 28.6588 11.5767 28.7452C11.7149 28.8316 11.8186 28.9007 12.1641 28.9007C12.5097 28.9007 12.6134 28.8316 12.7516 28.7452C12.8898 28.6588 13.1663 28.3996 13.2009 28.3823C13.2354 28.365 13.5119 28.4341 13.6501 28.4687C13.8056 28.486 13.9611 28.4169 14.0993 28.2959C14.2376 28.175 14.4276 27.9503 14.4449 27.8294C14.4622 27.7084 14.3067 27.2074 14.1685 27.0519C14.1512 27.0346 14.1512 27.0346 14.1339 27.0173C15.1361 27.2938 15.9136 27.2765 16.1555 27.2419C16.7775 27.1037 17.9006 26.5853 17.6933 26.1534ZM10.73 26.8964C10.6782 26.8791 10.6263 26.8618 10.5745 26.8618C10.8855 26.7408 10.8337 26.3607 10.8337 26.3607C10.8337 26.3607 11.2138 26.7754 11.4212 27.3974C11.3002 27.2246 10.9028 26.9827 10.73 26.8964ZM13.5637 26.8964C13.3909 26.9655 12.9935 27.2246 12.8726 27.3974C13.0972 26.7754 13.46 26.3607 13.46 26.3607C13.46 26.3607 13.4082 26.7581 13.7192 26.8618C13.6674 26.8791 13.6155 26.8791 13.5637 26.8964Z" fill="#09D0EB"/>
<path d="M11.4211 27.3976C11.2829 27.2248 10.8855 26.9829 10.73 26.8965C10.6781 26.8792 10.6263 26.8619 10.5745 26.8619C10.8855 26.741 10.8336 26.3608 10.8336 26.3608C10.8336 26.3608 11.2138 26.7755 11.4211 27.3976Z" fill="#218D9C"/>
<path d="M11.0929 32.9785C11.0929 32.9785 11.1274 33.5487 10.9892 34.188C10.6263 34.6545 10.298 34.931 9.79697 34.9828C9.10582 35.0519 8.36284 34.3781 8.27645 33.5833C8.22461 32.9785 8.44924 32.4083 8.81209 32.0627C9.03671 31.8381 9.29589 31.6999 9.57235 31.6826C9.62418 31.7172 9.6933 31.7517 9.79697 31.7863C9.98703 31.8727 10.2808 31.9764 10.5745 32.08C10.6955 32.1319 10.8337 32.1664 10.9546 32.2183L10.4708 32.9267C10.3326 32.8748 10.1771 32.823 10.0216 32.8057C9.41684 32.7021 9.17494 33.0822 9.24405 33.445C9.31317 33.8079 9.79697 33.9288 10.1253 33.7215C10.2808 33.6178 10.6091 33.3586 10.9028 33.134C10.9719 33.0822 11.041 33.0303 11.0929 32.9785Z" fill="#DB8660"/>
<path d="M10.9027 31.2852C10.8163 31.7171 10.6954 31.9936 10.5744 32.1145C10.2634 32.0109 9.98694 31.9072 9.79688 31.8208C10.1424 31.959 10.609 31.6998 10.9027 31.2852Z" fill="#066E85"/>
<path d="M11.0409 16.6328C10.9545 16.771 10.4362 18.0669 10.0561 19.1209L9.24396 19.3456C9.24396 19.3456 8.60465 19.0691 8.12085 18.257C9.27852 17.3067 10.3152 16.9093 11.0409 16.6328Z" fill="#141517"/>
<path d="M9.91788 30.5768C9.69326 30.8533 9.45136 30.957 9.24402 30.9915C9.64143 30.3695 9.84877 29.6783 9.84877 28.9526C9.96972 28.9526 10.0907 28.9526 10.2462 28.9526C10.3844 28.9526 10.4708 29.0045 10.5572 29.0909C10.3671 29.8338 10.1425 30.3004 9.91788 30.5768Z" fill="#F5ECE7"/>
<path d="M10.9374 25.877C10.73 26.0843 10.5227 26.3781 10.1771 26.3781C9.79697 26.3781 8.98487 26.4126 8.44923 25.9979C8.32828 25.9115 8.24189 25.8079 8.17277 25.7042C8.0691 25.5487 8.03455 25.3759 8.03455 25.2204C8.67385 24.4429 10.1771 25.1858 10.9374 25.877Z" fill="#25272B"/>
<path d="M10.1771 27C10.1598 27.0173 10.1598 27.0173 10.1425 27.0346C10.0043 27.1901 9.84881 27.6912 9.86609 27.8121C9.81426 27.8467 8.9676 28.3996 8.41469 28.4687C8.01728 28.3823 7.70626 28.2268 7.42981 28.0713C7.0324 27.8121 6.75594 27.5011 6.58315 27.2419C6.39309 26.9482 6.32397 26.7063 6.32397 26.6372C6.35853 26.4817 6.4622 26.3262 6.58315 26.1707C6.37581 26.6026 7.49892 27.121 8.13823 27.2419C8.39741 27.2765 9.17495 27.2765 10.1771 27Z" fill="#218D9C"/>
<path d="M10.0561 19.1038C9.93516 19.4493 9.81421 19.7603 9.7451 20.0195L9.24402 19.3284L10.0561 19.1038Z" fill="#25272B"/>
<path d="M9.86603 27.812L9.79691 28.0366C9.79691 28.0366 8.93298 28.6759 8.77748 28.8142C8.62197 28.9524 8.20728 29.4016 8.4319 29.8336C7.9481 28.9697 7.4643 28.1057 7.44702 28.0539C7.7062 28.2267 8.03449 28.3649 8.4319 28.4513C8.96754 28.3995 9.81419 27.8466 9.86603 27.812Z" fill="#066E85"/>
<path d="M9.5377 31.6653C9.55498 31.6653 9.55498 31.6825 9.57225 31.6998C9.2958 31.7171 9.03662 31.8553 8.812 32.08C8.67377 31.9763 8.34547 31.4752 7.9999 30.8532C7.86167 30.594 7.70616 30.3175 7.55066 30.0411C6.98046 28.9871 6.44482 27.9158 6.44482 27.9158C6.51394 27.6221 6.60033 27.2419 6.60033 27.2419C6.77312 27.5011 7.04958 27.8121 7.44698 28.0713C7.48154 28.1232 7.94806 28.9871 8.43187 29.851C8.43187 29.851 8.43187 29.851 8.43187 29.8683C8.67377 30.283 8.89839 30.6977 9.10573 31.026C9.31308 31.3543 9.46858 31.6134 9.5377 31.6653Z" fill="#BD4D3C"/>
<path d="M8.13816 18.2397C8.60468 19.0518 9.26127 19.3283 9.26127 19.3283C9.05393 19.5875 8.72563 20.0194 8.39734 20.4341C6.44486 18.9482 5.75371 17.0648 5.80555 14.9914C6.30663 14.1447 7.80987 13.6264 8.44918 13.7819C7.23967 14.6112 7.56797 16.7365 7.84442 17.5832C7.93082 17.8423 8.01721 18.0497 8.13816 18.2397Z" fill="#FFAA00"/>
<path d="M8.38009 20.4515C7.96541 21.0044 7.58528 21.5055 7.58528 21.5055L7.63711 21.8683C7.03236 21.4364 6.514 20.9698 6.08204 20.5206C4.26778 18.5854 3.90493 16.5638 3.57664 15.1297C3.17923 13.35 2.72998 12.2096 2.15979 11.1729C4.04316 11.8986 5.44273 13.661 5.80558 15.0087C5.73646 17.0649 6.44489 18.9482 8.38009 20.4515Z" fill="#FF7B00"/>
<path d="M8.43193 13.7993C7.79262 13.6437 6.28938 14.1621 5.7883 15.0088C5.44273 13.661 4.04316 11.8986 2.15979 11.1729C4.31962 10.4472 6.13387 12.0887 6.44489 13.1254C7.04964 12.9699 8.0518 13.2463 8.43193 13.7993Z" fill="#FFC85C"/>
<path d="M8.03449 25.2203C8.03449 25.3758 8.06904 25.5485 8.17272 25.7041C8.13816 25.6695 7.77531 25.3066 7.15328 25.514C7.23967 25.2548 6.92866 24.5809 6.91138 24.5464C7.29151 24.6501 7.67164 24.7365 7.77531 24.771C7.99993 24.8056 8.12088 24.771 8.22455 24.6673C8.12088 24.8056 8.05177 25.0129 8.03449 25.2203Z" fill="#066E85"/>
<path d="M7.63714 21.8682V21.8855C7.49891 21.8855 7.30884 21.8855 7.22245 21.9546C7.17061 21.9891 6.73865 22.3693 6.34124 22.7321C5.892 22.663 5.46003 22.4902 5.06262 22.2483C5.39092 21.5917 5.73649 21.0043 6.08206 20.5032C6.51403 20.9697 7.01511 21.4189 7.63714 21.8682Z" fill="#141517"/>
<path d="M7.55074 30.041C7.70625 30.3175 7.84448 30.594 7.99999 30.8531C7.99999 30.8531 6.08206 30.6285 4.87256 31.2505C4.95895 30.9741 5.06262 30.6285 5.16629 30.3002C6.39308 29.8337 7.55074 30.041 7.55074 30.041Z" fill="#F25900"/>
<path d="M7.55071 30.041C7.55071 30.041 6.39304 29.8337 5.16626 30.3002C5.26993 29.9892 5.35632 29.6782 5.44272 29.419C5.56367 29.0389 5.65006 28.7624 5.65006 28.7624C6.13386 28.6242 6.34121 28.3305 6.39304 28.1404C6.41032 28.0886 6.4276 28.0022 6.44488 27.9158C6.44488 27.9158 6.98052 28.9698 7.55071 30.041Z" fill="#141517"/>
<path d="M6.91146 24.5464C6.92874 24.581 7.22247 25.2548 7.15336 25.514C7.10152 25.6868 6.82507 25.9114 6.60044 26.1533C6.46222 26.3088 6.35854 26.4643 6.34127 26.6198C6.32399 26.689 6.41038 26.9309 6.60044 27.2246C6.60044 27.2246 6.51405 27.6047 6.44494 27.8985C6.18576 28.0885 5.44278 28.2095 4.6134 28.054C4.76891 27.8466 4.87258 27.5874 4.95898 27.3283C5.16632 26.7235 5.84018 23.9417 5.84018 23.9417C5.94386 24.1144 6.04753 24.2699 6.09936 24.2872C6.13392 24.3218 6.51405 24.4255 6.91146 24.5464Z" fill="#25272B"/>
<path d="M4.71704 28.7969C4.4233 28.7624 4.02589 28.676 3.61121 28.5723C4.09501 28.555 4.40602 28.3477 4.61337 28.0539C5.42546 28.2095 6.16844 28.0885 6.4449 27.8984C6.42762 27.9848 6.41034 28.0539 6.39306 28.1231C6.34123 28.3131 6.13388 28.6241 5.65008 28.7451C5.46002 28.7969 5.21812 28.8315 4.94166 28.8142C4.85527 28.8142 4.80343 28.8142 4.71704 28.7969Z" fill="#FF7B00"/>
<path d="M1.79697 28.0367C1.24406 27.8467 0.794813 27.6912 0.639306 27.6221C0.190062 27.4147 -0.120953 26.8964 0.08639 26.3089C0.276455 25.7214 1.90064 21.5054 2.0216 21.229C2.24622 20.7106 2.90281 20.5724 3.38661 20.9698C3.7149 21.229 4.30237 21.8337 5.04535 22.2657C5.44276 22.4903 5.87473 22.6804 6.32397 22.7495C6.04751 23.0087 5.77106 23.2506 5.65011 23.3715C4.28509 22.9914 3.14471 22.0238 2.97192 21.9201C2.81641 21.8164 2.6609 21.9547 2.60907 22.0583C2.55723 22.162 1.03671 26.1015 0.933042 26.3262C0.829371 26.5508 0.915764 26.8272 1.08855 26.9309C1.9352 27.4147 3.57667 27.8812 4.45788 28.0713C4.50972 28.0886 4.54427 28.0886 4.59611 28.1059C4.38877 28.3996 4.07775 28.6069 3.59395 28.6242C3.00648 28.4169 2.34989 28.2095 1.79697 28.0367Z" fill="#FFAA00"/>
<path d="M5.66737 23.3543C5.63281 23.4061 5.59826 23.4234 5.59826 23.4407C5.58098 23.4925 5.70193 23.7344 5.84016 23.959C5.84016 23.959 5.16629 26.7409 4.95895 27.3456C4.87256 27.6048 4.76888 27.864 4.61338 28.0713C4.56154 28.0713 4.52698 28.0541 4.47515 28.0368C3.61122 27.8467 1.96975 27.3802 1.10582 26.8964C0.93303 26.7927 0.846637 26.5163 0.950309 26.2916C1.05398 26.067 2.5745 22.1275 2.62633 22.0238C2.67817 21.9202 2.83368 21.7819 2.98919 21.8856C3.16197 22.0065 4.30236 22.9741 5.66737 23.3543Z" fill="#31363D"/>
<path d="M5.63275 28.7625C5.63275 28.7625 5.54636 29.0389 5.42541 29.419C5.18351 29.5227 4.87249 29.5573 4.50964 29.54C4.61332 29.1426 4.69971 28.8488 4.71699 28.8143C4.7861 28.8143 4.85522 28.8316 4.92433 28.8316C5.21807 28.8316 5.44269 28.8143 5.63275 28.7625Z" fill="#F25900"/>
<path d="M5.44269 29.4019C5.3563 29.661 5.26991 29.972 5.16624 30.2831C5.06256 30.6114 4.95889 30.9569 4.8725 31.2334C4.76883 31.5617 4.69971 31.8209 4.66516 31.9073C4.54421 32.2701 4.33686 32.4774 3.85306 32.5811C3.36926 32.6848 0.570123 33.0476 0.328222 33.0649C0.0863216 33.0822 -0.103743 32.7712 0.069043 32.3392C0.1036 32.2528 0.189993 32.0455 0.293665 31.7517C0.138157 32.1664 0.466451 32.2701 0.794745 32.2355C1.14032 32.1837 3.0928 31.89 3.38654 31.8381C3.68027 31.7863 3.87034 31.6308 3.97401 31.3716C4.04313 31.2161 4.31958 30.2312 4.52693 29.5228C4.8725 29.5574 5.20079 29.5228 5.44269 29.4019Z" fill="#FFAA00"/>
<path d="M4.71705 28.7971C4.71705 28.8316 4.63066 29.1254 4.50971 29.5228C3.64578 29.4709 2.53995 29.1081 1.52051 28.6934C1.67602 28.3133 1.77969 28.0541 1.79697 28.0195C2.34988 28.1923 3.00647 28.3997 3.61122 28.5552C4.02591 28.6761 4.42332 28.7625 4.71705 28.7971Z" fill="#25272B"/>
<path d="M4.50968 29.5227C4.31961 30.2312 4.02587 31.216 3.97404 31.3888C3.87037 31.648 3.6803 31.8035 3.38657 31.8553C3.09283 31.9072 1.14035 32.2009 0.794773 32.2528C0.466479 32.3046 0.138186 32.1836 0.293693 31.769C0.621987 30.9569 1.19218 29.54 1.53775 28.6934C2.53991 29.108 3.66302 29.4882 4.50968 29.5227Z" fill="#31363D"/>
</g>
<path fill-rule="evenodd" clip-rule="evenodd" d="M5.6664 18.3399C5.59243 18.242 5.50505 18.1263 5.48059 18.0098C5.53512 18.9889 4.38846 19.1674 3.53445 19.2826C3.67058 19.2698 3.80357 19.2656 3.93521 19.2614C4.21912 19.2525 4.49677 19.2437 4.78613 19.15C4.89787 19.1125 4.99124 19.0521 5.07848 18.9955C5.26192 18.8767 5.41828 18.7754 5.66137 18.9426C5.84137 18.4644 6.10503 18.541 6.36432 18.6163C6.57653 18.6779 6.78581 18.7387 6.94391 18.4938L6.96062 18.5009C7.20913 18.6051 7.59861 18.7686 7.91573 18.8497C7.94635 18.8772 7.97751 18.905 8.00909 18.9332C8.16948 19.0765 8.34074 19.2294 8.50688 19.3894C8.52658 19.4118 8.54745 19.4341 8.56846 19.4564C8.62815 19.52 8.68888 19.5846 8.72659 19.6577C8.7876 19.7639 8.84128 19.8801 8.88762 20.0063C8.93121 20.112 8.97202 20.2215 9.01064 20.334C8.7973 20.2114 8.54095 20.051 8.23532 19.842C8.23532 19.842 8.89347 20.5719 9.21908 21.0503C9.26064 21.2248 9.29515 21.3973 9.31955 21.5673C9.3181 21.57 9.31665 21.5728 9.31521 21.5755C9.23504 21.7282 9.15737 21.8761 9.04346 21.9805C8.96887 22.0675 8.89427 22.1421 8.80724 22.2043C8.72021 22.2665 8.63318 22.3286 8.55858 22.3411C8.45734 22.3664 8.32747 22.3058 8.18839 22.2409C8.12253 22.2102 8.05459 22.1785 7.98666 22.1546L7.98661 22.1545C7.87473 22.1173 7.76285 22.08 7.65097 22.0551L7.55151 22.0427C7.50178 22.0302 7.45204 22.0178 7.41474 22.0178L7.15365 21.9929C7.16331 22.0509 7.18798 22.1088 7.21017 22.161C7.21654 22.1759 7.2227 22.1904 7.22825 22.2043C7.23201 22.2118 7.23578 22.2205 7.23989 22.23C7.24935 22.2517 7.26064 22.2778 7.27798 22.3038C7.29041 22.3411 7.31528 22.3784 7.32771 22.3908C7.36538 22.4567 7.41017 22.5226 7.45129 22.5831C7.46447 22.6025 7.47727 22.6213 7.48934 22.6394C7.55193 22.7412 7.61945 22.8379 7.68569 22.9329C7.72471 22.9888 7.76329 23.0442 7.80017 23.0995C7.8872 23.2362 7.97423 23.3854 8.02396 23.5222C7.99954 23.5955 7.97511 23.6727 7.95026 23.7514C7.89918 23.9129 7.84627 24.0803 7.78773 24.2309C7.76908 24.2433 7.75665 24.2526 7.74422 24.262C7.73178 24.2713 7.71935 24.2806 7.7007 24.293C7.68205 24.3055 7.6603 24.3179 7.63854 24.3303C7.61678 24.3428 7.59502 24.3552 7.57637 24.3676C7.58881 24.3925 7.59813 24.4174 7.60746 24.4422C7.61678 24.4671 7.62611 24.492 7.63854 24.5168C7.63232 24.523 7.62611 24.5324 7.61989 24.5417C7.61367 24.551 7.60746 24.5603 7.60124 24.5666C7.49832 24.7069 7.36547 24.7892 7.23979 24.867C7.03146 24.996 6.84283 25.1128 6.84283 25.4617C6.5263 25.8475 6.13107 26.0365 5.67593 26.2542C5.55899 26.3101 5.4381 26.368 5.31357 26.4315C5.45264 26.546 5.50559 26.6929 5.55741 26.8366C5.58435 26.9113 5.61099 26.9851 5.64926 27.0532C5.59332 27.0469 5.53115 27.05 5.46899 27.0532C5.40682 27.0563 5.34465 27.0594 5.2887 27.0532C5.5871 27.4883 5.42547 28.0727 4.82869 27.9608C4.66706 28.6819 4.55516 29.0424 4.25677 29.2911C3.51225 29.3031 2.80253 29.002 2.094 28.7013C2.06894 28.6907 2.04389 28.6801 2.01883 28.6694C2.01015 29.0169 2.29274 29.2187 2.59104 29.4317C2.71972 29.5236 2.85133 29.6176 2.96374 29.7262C3.06918 29.8372 3.16967 29.973 3.27294 30.1125C3.40103 30.2856 3.53341 30.4644 3.68485 30.609C3.70757 30.6393 3.7303 30.6684 3.75267 30.6971C3.80374 30.7626 3.85298 30.8258 3.89621 30.8949C3.87615 30.9451 3.86418 30.9952 3.86031 31.0128C3.86603 30.9965 3.88893 30.9644 3.92108 30.9322C3.97081 31.0193 4.02054 31.1187 4.0454 31.2306C4.08151 31.3751 3.90791 31.9585 3.78628 32.3674C3.74038 32.5216 3.70188 32.6511 3.68485 32.7226C2.62805 32.8469 0.93716 36.5644 2.11829 37.2855C2.10696 37.4555 2.19376 37.6229 2.27983 37.7889C2.38261 37.9871 2.48436 38.1834 2.41669 38.3796C2.37456 38.506 2.20206 38.5319 2.03581 38.5569C1.76042 38.5983 1.50219 38.6372 1.88207 39.1256C0.744778 40.3192 0.586515 42.6448 0.474415 44.292C0.46274 44.4636 0.451567 44.6278 0.43984 44.7826C0.52356 44.4291 0.599449 44.0761 0.674913 43.725C1.0029 42.1992 1.32285 40.7107 2.24262 39.3867C2.32236 39.2731 2.5167 39.0482 2.76793 38.7575C3.80938 37.5524 5.82863 35.2158 4.71679 34.9854C4.94058 34.7243 5.27627 34.8735 5.53736 35.0973C5.54244 34.9906 5.56413 34.9234 5.58376 34.8625C5.61217 34.7744 5.63629 34.6996 5.59953 34.5378C5.91035 34.6 6.30821 34.6373 6.6066 34.4259C6.20376 33.6125 6.62636 33.1273 7.09839 32.5854C7.38391 32.2575 7.68751 31.909 7.83747 31.4544C7.93 31.171 7.95528 30.9388 7.97962 30.7151C8.00762 30.4579 8.03438 30.212 8.16072 29.9127C8.34722 29.4776 8.74507 28.6446 9.21753 29.1046C9.60295 28.5078 9.87647 28.371 10.523 28.371L10.5479 28.3959C10.7468 28.5824 10.9208 28.7689 11.07 28.9927L11.0825 29.0051C11.0983 29.0071 11.1135 29.0081 11.1281 29.0091C11.205 29.0144 11.2645 29.0184 11.3063 29.1543C11.5564 29.0543 12.1527 29.3085 12.5251 29.5217C12.3943 29.7119 12.287 29.9344 12.1821 30.1517C12.0977 30.3264 12.0149 30.4979 11.9229 30.6466C12.0904 30.5548 12.2523 30.4617 12.4114 30.3703C12.9839 30.0411 13.5196 29.7331 14.1501 29.5793C14.3214 29.9689 14.5838 30.2414 14.8419 30.5095C15.0196 30.6941 15.1952 30.8766 15.3379 31.0938C15.4543 31.2732 15.5386 31.4719 15.6248 31.6752C15.7639 32.003 15.9079 32.3427 16.2002 32.6323C15.8762 32.7806 15.7342 32.9539 15.6759 33.2655C16.2644 32.8897 16.3444 32.9958 16.502 33.2048C16.5763 33.3034 16.6678 33.4248 16.8381 33.5295C17.0222 33.6399 17.2374 33.7143 17.4549 33.7894C17.7938 33.9065 18.1383 34.0255 18.3794 34.2861C18.4618 34.3703 18.5271 34.5292 18.5941 34.6925C18.6562 34.8436 18.7198 34.9985 18.7999 35.1014C18.8833 35.2086 18.9862 35.2838 19.0879 35.358C19.1895 35.4323 19.2899 35.5056 19.3683 35.6091C19.7675 36.1164 20.0556 36.4808 20.4722 36.9854C21.3362 38.0571 21.981 39.2903 22.6253 40.5224C23.017 41.2716 23.4086 42.0204 23.8491 42.7324C23.3323 41.8698 22.9621 40.8715 22.5922 39.8742C22.0932 38.5287 21.5949 37.185 20.7382 36.1788C20.9947 35.9331 21.3645 35.8784 21.7266 35.8248C21.9436 35.7927 22.158 35.761 22.3435 35.6887C22.072 35.6735 21.8696 35.6861 21.7076 35.6963C21.2428 35.7253 21.1095 35.7336 20.6265 35.004C20.4202 34.6873 20.1529 34.4036 19.8902 34.1249C19.6169 33.8348 19.3486 33.5502 19.1596 33.2393C18.5576 32.2297 18.6779 30.7163 19.6079 30.1177C19.1736 30.1853 18.6292 30.0032 18.296 29.8059C18.1507 29.4968 18.0607 29.1165 17.9711 28.738C17.8636 28.2842 17.7567 27.8329 17.556 27.5099C17.569 27.6576 17.5435 27.7916 17.5179 27.9265C17.4978 28.0322 17.4776 28.1384 17.4758 28.252C17.4441 28.171 17.3853 28.0968 17.3273 28.0237C17.2772 27.9605 17.2278 27.8981 17.197 27.8327C17.1082 27.891 16.9947 27.9621 16.8931 27.9957C16.874 27.9191 16.831 27.8404 16.7869 27.7596C16.7224 27.6415 16.6554 27.5189 16.6568 27.3919C16.1784 27.2553 16.0269 26.342 15.879 25.45C15.8024 24.988 15.7268 24.5317 15.6071 24.1921C15.6743 24.1001 15.7437 24.0227 15.819 23.9388C15.8259 23.9312 15.8329 23.9234 15.8399 23.9156C16.119 23.7654 16.3981 23.6152 16.5248 23.3997C16.5184 23.3874 16.5138 23.3725 16.5093 23.3576C16.5048 23.3428 16.5002 23.3279 16.4939 23.3156C16.5264 23.2857 16.5603 23.2642 16.5887 23.2463C16.601 23.2385 16.6123 23.2313 16.622 23.2244C16.6267 23.197 16.6359 23.1422 16.6479 23.1047C16.6653 23.102 16.6799 23.082 16.6873 23.0719C16.6859 23.0632 16.6827 23.0571 16.6795 23.0509C16.6764 23.0447 16.6732 23.0385 16.6718 23.0298C16.6691 23.0125 16.6838 22.9924 16.6911 22.9823L16.6409 22.9457L16.6382 22.9283C16.9448 22.84 17.0544 22.6473 17.1715 22.4415C17.2853 22.2414 17.4062 22.0289 17.7219 21.8877C17.3445 21.9405 17.0156 22.1518 16.6867 22.3632C16.5222 22.4689 16.3578 22.5745 16.1872 22.6604C15.7691 22.4319 15.2193 22.2149 14.8838 22.2316C14.8788 22.2279 14.8756 22.2217 14.8724 22.2156C14.8692 22.2094 14.866 22.2032 14.861 22.1995C14.4823 21.6516 14.0524 21.4747 13.7454 21.4171C13.7057 21.3535 13.671 21.2878 13.6437 21.2221C13.6386 21.2069 13.6339 21.1915 13.6296 21.1761C13.7956 21.009 13.7569 20.8046 13.6595 20.6174C13.7037 20.5006 13.7669 20.3856 13.8302 20.2772C13.9805 20.0265 14.1794 19.7921 14.3812 19.5542C14.4296 19.4971 14.4783 19.4398 14.5264 19.382L14.5424 19.3625C14.7614 19.0949 14.9906 18.8148 15.1605 18.4993C15.1807 18.5074 15.201 18.5168 15.2204 18.5258C15.2605 18.5445 15.297 18.5614 15.3221 18.5614L15.5708 18.6236L15.4962 18.3874C15.49 18.3687 15.4869 18.3501 15.4837 18.3314C15.4806 18.3128 15.4775 18.2941 15.4713 18.2755L15.4589 18.2133L15.521 18.2382L15.5583 18.2506C15.5765 18.2506 15.5881 18.2573 15.6027 18.2657C15.6081 18.2688 15.6138 18.2721 15.6205 18.2755C15.6702 18.2879 15.7075 18.3128 15.7573 18.3501L16.1178 18.6609L16.0432 18.3501C16.0308 18.2941 16.0184 18.2413 16.0059 18.1884C15.9935 18.1356 15.9811 18.0828 15.9686 18.0268L15.9562 17.9522L15.9438 17.9149L15.9313 17.8403L15.9065 17.6787C15.8816 17.4673 15.8692 17.256 15.8816 17.0446C15.894 16.7959 15.9313 16.5597 15.9935 16.3235C16.0554 16.2822 16.1254 16.2431 16.1954 16.2039C16.4631 16.0541 16.7329 15.9031 16.5654 15.6272C16.5654 15.5792 16.571 15.5423 16.5764 15.5066C16.585 15.4497 16.5931 15.3956 16.5779 15.304C16.7996 15.4287 16.917 15.3256 17.0464 15.212C17.1492 15.1218 17.2596 15.025 17.4357 15.0305C17.208 14.8618 17.2835 14.5273 17.3517 14.2247C17.3841 14.0812 17.4149 13.9449 17.4109 13.8369L19.4872 14.3715C19.154 14.1272 18.7678 13.9225 18.4417 13.7497C18.2203 13.6323 18.0265 13.5296 17.8957 13.439C17.9591 13.3476 18.11 13.272 18.2472 13.2034C18.3523 13.1508 18.4494 13.1022 18.4925 13.0536C18.5942 12.9447 18.6534 12.6916 18.7099 12.4503C18.7501 12.2785 18.7889 12.1127 18.8407 12.0092C18.9028 11.8849 18.9774 11.7606 19.052 11.6363C19.0935 11.5907 19.1363 11.5437 19.1791 11.4968C19.2647 11.4028 19.3504 11.3089 19.425 11.226C19.4437 11.2135 19.4592 11.2011 19.4747 11.1887C19.4903 11.1762 19.5058 11.1638 19.5245 11.1514C19.6149 11.0811 19.7296 11.0351 19.849 10.9873C19.8774 10.9759 19.9061 10.9644 19.9348 10.9524C20.171 11.027 20.4196 11.1016 20.6559 11.1638C20.5903 11.1114 20.5041 11.0555 20.4154 10.998C20.3357 10.9464 20.254 10.8935 20.1834 10.8405C20.3077 10.766 20.3948 10.6665 20.4445 10.5173C20.4196 10.5173 20.3326 10.5546 20.3326 10.5546C20.3707 10.469 20.4524 10.3178 20.4943 10.2404C20.5071 10.2167 20.5162 10.1999 20.5191 10.194C20.7624 10.2786 21.2216 9.71544 21.5599 9.30044C21.6193 9.2276 21.675 9.15933 21.7251 9.09993C21.75 9.0875 21.7624 9.07506 21.7748 9.06263C22.1727 8.75181 22.4338 8.51558 22.5705 8.37882L22.67 8.27935C22.6546 8.28704 22.6298 8.30897 22.5954 8.33928C22.5742 8.35801 22.5493 8.37994 22.5208 8.40368L22.2597 8.59018C22.3222 8.54157 22.3789 8.49781 22.4289 8.45917C22.5581 8.35944 22.6431 8.2938 22.67 8.26692C22.651 8.28214 22.6122 8.31015 22.5547 8.35167C22.4957 8.39424 22.4171 8.45102 22.32 8.52275C22.1991 8.62434 22.0477 8.74498 21.8619 8.88857L21.9421 8.80836C21.9239 8.82238 21.9055 8.83668 21.8867 8.85127C21.8121 8.901 21.75 8.95074 21.6754 9.0129C21.4018 9.19939 21.1408 9.38589 20.8797 9.58482C20.8299 9.62212 20.7833 9.66252 20.7367 9.70293C20.6901 9.74334 20.6434 9.78375 20.5937 9.82104C20.5875 9.82104 20.5844 9.82415 20.5813 9.82726C20.5782 9.83037 20.5751 9.83348 20.5688 9.83348C20.4648 9.90662 20.3568 9.98103 20.2458 10.0576C19.8663 10.3194 19.4504 10.6061 19.0271 10.9524C18.7288 11.2011 18.4304 11.4746 18.132 11.773C17.6222 11.6736 17.1622 11.1887 16.8389 10.7535C16.8016 11.1514 16.8762 11.5244 17.2741 11.5617C17.2803 11.5741 17.2896 11.5896 17.299 11.6052C17.3083 11.6207 17.3176 11.6363 17.3238 11.6487C17.2368 11.9595 17.2119 12.432 17.1995 12.7552C16.727 13.3147 16.2546 13.9239 15.8194 14.5953L15.6454 14.8813C15.5956 14.9683 15.5335 15.0553 15.4589 15.1424C15.3221 15.304 15.1356 15.4532 14.9367 15.5153C14.7378 15.5899 14.5015 15.5651 14.3026 15.4656C14.2902 15.4594 14.2809 15.4532 14.2715 15.447C14.2622 15.4408 14.2529 15.4345 14.2404 15.4283C14.2653 15.5278 14.2778 15.6272 14.2902 15.7267C14.2715 15.7205 14.2529 15.7112 14.2342 15.7018C14.2156 15.6925 14.1969 15.6832 14.1783 15.677C14.1037 15.6397 14.0415 15.6024 13.9794 15.5526C13.9918 15.6272 14.0042 15.7018 14.0167 15.7889C14.0291 15.9008 14.0291 16.0251 14.0167 16.137C14.0167 16.1867 14.0042 16.2489 13.9918 16.2986C13.9918 16.3111 13.9794 16.3359 13.9669 16.3484L13.9172 16.3981C13.8588 16.4564 13.7777 16.4996 13.6915 16.5454C13.6675 16.5581 13.6432 16.5711 13.6188 16.5846C13.5939 16.597 13.5691 16.609 13.5442 16.6209C13.4447 16.6686 13.3453 16.7164 13.2458 16.7959C13.221 16.8084 13.1837 16.8457 13.1588 16.8705L13.1588 16.8705C13.1339 16.8954 13.1091 16.9327 13.1091 16.9451C13.1028 16.9514 13.0997 16.9607 13.0966 16.97C13.0935 16.9793 13.0904 16.9887 13.0842 16.9949C13.0593 17.0695 13.0345 17.1441 13.022 17.2062C13.0133 17.2544 13.0168 17.3209 13.0203 17.3849C13.0266 17.5027 13.0324 17.6115 12.9599 17.5792C12.3133 17.3057 12.1766 17.256 12.2263 17.3057L11.956 17.15C11.9483 17.1201 11.9412 17.0896 11.9343 17.0587C11.9127 16.9197 11.881 16.7734 11.8219 16.6224C11.7911 16.5382 11.7528 16.4641 11.7073 16.4C11.6517 16.3286 11.6188 16.2892 11.503 16.1738C11.4609 16.1892 11.4188 16.2047 11.3841 16.2101C11.3754 16.2115 11.3642 16.211 11.353 16.2105C11.3418 16.21 11.3306 16.2095 11.3219 16.2109C11.2872 16.2163 11.2424 16.2144 11.2049 16.2024C11.1154 16.1985 11.0405 16.1746 10.9629 16.1333C10.8103 16.0681 10.6671 15.948 10.5559 15.8052C10.4447 15.6623 10.3555 15.4894 10.3184 15.3083C10.2948 15.2141 10.2887 15.1172 10.3025 15.035C10.3045 14.9902 10.3164 14.9527 10.3357 14.9052C10.3357 14.9052 10.3477 14.8678 10.3624 14.8477C10.367 14.8203 10.3817 14.8002 10.4037 14.7701L10.5037 14.6122L10.0724 14.528L9.81564 14.479C9.64112 14.4439 9.47395 14.3988 9.30677 14.3536L9.30676 14.3536C9.08476 14.2992 8.88746 14.232 8.68012 14.1575L8.5002 14.0877L8.49016 14.0803C8.5002 14.0877 8.50753 14.0776 8.50753 14.0776L8.89168 13.9733L9.27583 13.8691L9.37003 13.8455L9.52369 13.8038L9.86846 13.7323C9.80282 13.6536 9.72984 13.5849 9.65686 13.5161C9.63679 13.5015 9.61854 13.4843 9.60029 13.4671C9.58205 13.4499 9.56381 13.4328 9.54373 13.4181L9.49354 13.3814L9.45338 13.3521L9.18233 13.154C8.99429 13.0321 8.81629 12.9174 8.641 12.8201C8.47662 12.7289 8.31869 12.6289 8.16944 12.5343C8.15953 12.528 8.14966 12.5218 8.13983 12.5155L7.94176 12.3862L7.89156 12.3496L7.86144 12.3275C7.86511 12.3225 7.86009 12.3189 7.85633 12.3161C7.85256 12.3134 7.85005 12.3115 7.85874 12.3102C7.89349 12.3048 7.94561 12.2967 7.98769 12.2812C8.06452 12.2604 8.16606 12.2268 8.24018 12.1885C8.40581 12.1094 8.54131 12.0082 8.65945 11.9097C8.90305 11.7028 9.06441 11.4819 9.17906 11.3039C9.38173 11.0054 9.49368 10.8101 9.52031 10.7525L9.52765 10.7425C9.52567 10.7432 9.52346 10.744 9.521 10.745C9.47116 10.7634 9.32272 10.8185 9.08134 10.8476C8.78328 10.8762 8.36013 10.8442 7.86322 10.6813C7.37364 10.5084 6.80568 10.232 6.29755 9.76832C6.17167 9.64556 6.05313 9.51276 5.95196 9.37725C5.85813 9.2317 5.77163 9.07612 5.74459 8.90238C5.71754 8.72864 5.7627 8.56146 5.8928 8.42555C5.9171 8.39228 5.94326 8.37094 5.97391 8.34594C5.98026 8.34076 5.9868 8.33542 5.99356 8.32979C6.00262 8.31738 6.01272 8.31161 6.02668 8.30363C6.03531 8.2987 6.04541 8.29293 6.05765 8.28423C6.09702 8.2514 6.14644 8.22592 6.19586 8.20043C6.3245 8.14184 6.49593 8.07316 6.65541 8.00928C6.75344 7.97002 6.84694 7.93257 6.92322 7.90037L6.25876 7.86144C6.23636 7.86048 6.21581 7.857 6.19525 7.85353C6.17469 7.85006 6.15413 7.84659 6.13173 7.84562C6.11301 7.83964 6.09679 7.83549 6.08057 7.83134C6.06436 7.82719 6.04814 7.82304 6.02942 7.81706C6.01128 7.80969 5.99753 7.80553 5.98579 7.80197C5.96679 7.79622 5.95305 7.79206 5.93443 7.77846C5.82671 7.71515 5.72632 7.64181 5.63056 7.54105C5.43904 7.33953 5.2842 7.08781 5.12935 6.8361C5.12008 6.82098 5.11079 6.80585 5.1015 6.7907C4.83629 6.35818 4.5643 5.91461 4.16402 5.60727L4.08371 5.5486L4.01344 5.49725L4.01536 5.45247C4.02114 5.31811 3.99217 5.18916 3.9632 5.06021C3.92778 4.92571 3.72377 4.83579 3.52668 4.74892C3.36055 4.6757 3.19934 4.60464 3.14812 4.51088C2.90473 4.11126 2.76297 3.7441 2.63324 3.40811C2.50179 3.06764 2.38269 2.75917 2.18271 2.48131C2.05527 2.23423 1.48068 1.22929 1.38414 1.06637C1.34467 0.999749 1.27251 0.847448 1.19601 0.685987C1.08545 0.452619 0.965818 0.200113 0.922684 0.159497C0.916889 0.155263 0.918686 0.161709 0.922281 0.174601C0.924913 0.184039 0.928511 0.196932 0.930796 0.211619C0.933729 0.230471 0.936701 0.252251 0.940063 0.276903C0.952196 0.365845 0.969429 0.492174 1.00844 0.653296C1.0772 0.980691 1.20233 1.44167 1.40315 1.98874C1.60397 2.5358 1.87313 3.179 2.19519 3.87624C2.24341 3.98062 2.29342 4.08631 2.34403 4.19327C2.46246 4.44355 2.58416 4.70074 2.69374 4.96419C2.8428 5.35026 2.9772 5.75642 3.1143 6.17994C3.17966 6.3962 3.24243 6.61056 3.30434 6.82202C3.48569 7.44143 3.65975 8.03591 3.87049 8.58018C4.00681 8.94154 4.1578 9.28283 4.32076 9.58666L4.38177 9.69283C4.39722 9.73491 4.42271 9.78433 4.43274 9.79167L4.4729 9.821C4.48191 9.83848 4.47953 9.83992 4.47477 9.84282C4.4728 9.84403 4.47042 9.84548 4.46827 9.84842L4.44356 9.86116L4.41885 9.8739L4.36944 9.89939C4.3484 9.90711 4.3317 9.91416 4.31501 9.92121C4.29831 9.92826 4.28161 9.9353 4.26056 9.94303C4.19377 9.97122 4.12698 9.99941 4.05015 10.0203C4.0378 10.0266 4.02477 10.0287 4.01174 10.0307C3.99871 10.0327 3.98568 10.0347 3.97332 10.0411C3.84478 10.3014 3.56102 10.479 3.27223 10.4528C3.26721 10.4491 3.26287 10.4498 3.25852 10.4504C3.25418 10.4511 3.24984 10.4518 3.24482 10.4481C2.97573 10.6057 2.70123 10.7285 2.40858 10.7918L2.37191 10.842C2.78617 10.7597 3.20584 10.7122 3.62359 10.7095C3.74521 10.6905 3.86683 10.6716 4.00118 10.6774C4.17029 10.6778 4.33747 10.7229 4.51739 10.7928C4.5636 10.8098 4.61061 10.8319 4.65917 10.8548C4.69987 10.874 4.74165 10.8937 4.78496 10.9113L4.92743 10.9692L4.97493 10.9885L4.995 11.0032L4.98034 11.0232L4.973 11.0333L4.96103 11.0707C4.94642 11.1067 4.93911 11.1568 4.9324 11.2029C4.93025 11.2176 4.92817 11.2319 4.92592 11.2452C4.91743 11.3622 4.92903 11.4939 4.99275 11.6174C5.02827 11.6742 5.08117 11.7282 5.1414 11.7722C5.20164 11.8162 5.28387 11.8301 5.35607 11.8367C5.42827 11.8432 5.5051 11.8224 5.56456 11.8042L5.60664 11.7888L5.59931 11.7988L5.63561 11.9177C5.65376 11.9772 5.66728 12.0641 5.66999 12.0814C5.66265 12.0915 5.62791 12.0969 5.52368 12.1131L5.52366 12.1131C5.48764 12.1229 5.45323 12.1305 5.42071 12.1376C5.38387 12.1457 5.34946 12.1533 5.31788 12.1629L4.17855 12.3314C4.24314 12.3866 4.58572 12.4206 4.90397 12.4522C5.19268 12.4809 5.46136 12.5076 5.48432 12.5463C5.49977 12.5884 5.51522 12.6305 5.51329 12.6753C5.50968 12.7591 5.46365 12.86 5.41144 12.9744C5.38002 13.0433 5.34636 13.117 5.31837 13.1949C5.28981 13.2973 5.26395 13.4169 5.2628 13.5239L5.26281 13.524C5.27362 13.5934 5.27632 13.6108 5.2771 13.6729C5.27518 13.7177 5.28329 13.7698 5.2914 13.822C5.35154 14.1589 5.48358 14.4447 5.60586 14.7093C5.62496 14.7507 5.64383 14.7915 5.66214 14.8319L5.76679 15.047L5.81043 15.1558C5.82376 15.1746 5.82929 15.1824 5.83414 15.1906C5.83758 15.1963 5.84067 15.2023 5.84595 15.2126L5.87144 15.262C5.92046 15.3351 6.32689 15.2809 6.61175 15.243C6.7981 15.2182 6.93243 15.2003 6.88067 15.2295C6.06871 15.7001 6.30885 16.09 6.44712 16.3146C6.45894 16.3338 6.47002 16.3517 6.47963 16.3685C6.70901 16.8132 6.97158 17.1282 7.18781 17.317C7.33735 17.451 7.45872 17.5147 7.51105 17.5422C7.52385 17.5489 7.53252 17.5535 7.53647 17.5564C7.52863 17.5506 7.51185 17.5571 7.48484 17.5676C7.47725 17.5706 7.46886 17.5738 7.45964 17.5772C7.44984 17.5823 7.43829 17.5872 7.42548 17.5928C7.37369 17.6151 7.30148 17.6462 7.24267 17.7267C7.21333 17.7668 7.1867 17.8243 7.18748 17.8865C7.13072 17.922 7.08131 17.9475 7.01452 17.9757C6.86654 18.0496 6.67464 18.0825 6.48321 18.1153C6.1727 18.1685 5.8634 18.2215 5.74472 18.4492C5.72421 18.4164 5.69641 18.3796 5.6664 18.3399ZM21.9421 8.80836L21.9738 8.77667L21.9738 8.77667C22.0359 8.72694 22.0981 8.67721 22.1478 8.62748C22.2038 8.59018 22.2566 8.54977 22.3095 8.50936C22.3623 8.46896 22.4151 8.42855 22.4711 8.39125C22.4272 8.43111 22.377 8.47481 22.32 8.52275C22.2151 8.60019 22.0886 8.69507 21.9421 8.80836ZM10.7755 25.8704C11.1545 25.7664 11.4757 25.9733 11.4082 26.4827C12.1136 26.2128 12.8234 27.686 12.8833 28.2995C12.8833 28.2995 13.0697 28.2972 13.0798 28.3045C12.7813 28.5022 12.6123 28.9022 12.7092 29.2964C12.6578 29.348 12.61 29.4048 12.565 29.4657C12.4327 29.3448 12.2854 29.2502 12.1268 29.1668C11.9901 29.0549 11.8285 28.9678 11.6544 28.9305C11.673 28.943 11.6886 28.9523 11.7041 28.9616C11.7197 28.9709 11.7352 28.9803 11.7539 28.9927C11.6793 28.9554 11.6171 28.9305 11.5425 28.9057C11.5611 28.9119 11.5798 28.915 11.5984 28.9181C11.6171 28.9212 11.6357 28.9243 11.6544 28.9305C11.3436 28.7067 11.0576 28.4581 11.1571 28.3089C11.102 28.2538 11.0282 28.1925 10.9484 28.1261C10.776 27.9828 10.5752 27.816 10.4733 27.6375V27.5629C10.4857 27.2272 10.523 26.8045 10.6349 26.3445C10.6675 26.1895 10.7109 26.0291 10.7755 25.8704ZM3.85891 31.0193C3.85891 31.0193 3.85938 31.017 3.86031 31.0128C3.85939 31.0154 3.85891 31.0176 3.85891 31.0193ZM0.985147 0.405275C0.979794 0.38512 0.974724 0.366029 0.969805 0.347904C1.01615 0.47415 1.06056 0.645183 1.05052 0.637848C1.02279 0.546989 1.00249 0.470555 0.985147 0.405275Z" fill="#FF3A3A"/>
</g>
<defs>
<clipPath id="clip0_1580_19617">
<rect width="24.2937" height="24" fill="white" transform="translate(0 11)"/>
</clipPath>
</defs>
</svg>
