<svg width="25" height="24" viewBox="0 0 25 24" fill="none" xmlns="http://www.w3.org/2000/svg">
<path d="M12.9297 0C19.5548 0 24.9297 5.41931 24.9297 12C24.9297 18.6075 19.5368 24 12.9297 24C6.32219 24 0.929688 18.6071 0.929688 12C0.929688 5.3925 6.32261 0 12.9297 0ZM12.9297 1.40625C11.7593 1.40625 10.6328 1.59745 9.57934 1.94953C9.77678 2.24114 9.90025 2.62664 9.90025 3.12403C9.90025 3.88355 9.56078 4.56244 9.23252 5.21902C8.96547 5.75311 8.71323 6.25758 8.71323 6.68512C8.71323 6.93234 8.77206 6.9893 8.97433 7.05675C9.36044 7.18547 10.0774 7.17023 10.5682 7.16864C11.7269 7.16475 13.0409 7.16053 14.4424 8.562C14.636 8.75564 14.7408 8.76553 15.4113 8.43028C16.0247 8.12353 17.0516 7.61016 18.0034 8.562C18.5602 9.11873 18.7801 9.90277 18.6261 10.6979C19.3141 10.4308 20.2654 10.3072 20.3818 10.0119C20.4357 9.87539 20.5198 9.28102 19.3409 7.36711C18.9037 6.65728 18.3784 5.61727 18.863 4.78416C19.0981 4.38009 19.4918 4.16503 19.9266 4.05295C18.059 2.4067 15.6092 1.40625 12.9297 1.40625ZM12.9297 22.5938C18.7711 22.5938 23.5234 17.8414 23.5234 12C23.5234 9.48244 22.6401 7.16761 21.1679 5.34792C20.3575 5.34098 20.1387 5.43956 20.0801 5.49197C20.0726 5.53805 20.0512 5.83898 20.5382 6.62963C21.6874 8.4953 22.0319 9.66113 21.6901 10.5279C21.2283 11.6987 19.779 11.7005 18.9921 12.0698C18.516 12.2933 16.1131 13.4001 15.8354 13.8126V14.9944C15.8354 15.8754 15.0035 16.3512 14.3351 16.7336C14.0643 16.8885 13.5009 17.2108 13.4613 17.3685C13.4613 20.1734 13.1913 21.7175 12.8433 22.5927C12.8721 22.5929 12.9008 22.5938 12.9297 22.5938ZM11.1006 21.8335C11.0962 21.975 11.244 22.263 11.3715 22.3919C11.5508 22.1431 12.055 21.1105 12.055 17.3684C12.055 16.4177 12.9321 15.916 13.6368 15.5129C13.8849 15.371 14.3446 15.1107 14.4338 14.9672V13.8074C14.4338 13.618 14.4643 13.449 14.5251 13.2969C13.3566 13.1895 12.7873 12.7779 12.3556 12.4657C12.0524 12.2465 11.9003 12.1365 11.5712 12.1365C11.5617 12.1365 11.5569 12.1371 11.557 12.137C11.483 12.1732 11.3259 12.4359 11.2319 12.5931C10.4346 13.9253 9.65683 14.4014 8.13194 14.7353C7.92752 14.7801 7.62349 14.8467 7.5333 14.9068C7.53025 14.9211 7.52617 14.9488 7.52617 14.9943C7.52617 16.4453 8.64301 17.4965 9.62842 18.4239C10.4185 19.1676 11.101 19.8098 11.101 20.6248C11.101 20.7386 11.1025 21.7715 11.1006 21.8335ZM9.71589 22.0949C9.69981 21.9931 9.69695 21.8927 9.69958 21.7957C9.70061 21.7004 9.69939 20.6319 9.69939 20.625C9.69934 20.624 9.6888 20.5225 9.47552 20.2644C9.27709 20.0243 8.97958 19.7443 8.66458 19.4478C7.59067 18.4371 6.11992 17.0528 6.11992 14.9942C6.11992 14.2894 6.47547 13.9144 6.77374 13.7239C7.08555 13.5248 7.44766 13.4455 7.83109 13.3615C8.96997 13.1121 9.42869 12.8679 10.0251 11.871C10.3131 11.3895 10.7076 10.73 11.5712 10.73C12.3554 10.73 12.8124 11.0605 13.1796 11.326C13.5999 11.63 13.997 11.917 15.1322 11.917C16.2598 11.917 16.9305 11.2637 17.1623 10.7042C17.2499 10.4927 17.4103 9.95752 17.0091 9.55627C16.8154 9.36267 16.7107 9.35273 16.0402 9.68798C15.4267 9.99473 14.3999 10.5082 13.448 9.55627C12.4603 8.56856 11.6271 8.57133 10.5728 8.57475C9.898 8.57691 9.12991 8.59083 8.52962 8.39067C7.74119 8.12784 7.30694 7.52208 7.30694 6.68498C7.30694 5.92547 7.64641 5.24658 7.97467 4.59C8.24172 4.05591 8.49395 3.55144 8.49395 3.12389C8.49395 2.79398 8.42228 2.60939 8.05834 2.59458C4.66155 4.3612 2.33594 7.91395 2.33594 12C2.33594 16.7214 5.44089 20.7308 9.71589 22.0949Z" fill="white"/>
</svg>
