<svg width="36" height="36" viewBox="0 0 36 36" fill="none" xmlns="http://www.w3.org/2000/svg">
<g filter="url(#filter0_b_5_19062)">
<rect width="35.6523" height="35.6523" rx="17.8262" fill="white" fill-opacity="0.2"/>
</g>
<path d="M24.2618 14.476L24.2618 14.476C23.6669 14.5194 22.9602 14.8828 22.1073 15.5588C20.5768 16.7718 18.7597 18.8762 17.5723 20.4089C16.7266 20.2758 15.834 20.6112 15.2864 21.2445L15.3621 21.3099L15.2864 21.2445C14.7706 21.8411 14.714 22.4222 14.6663 22.9474L14.6654 22.9567C14.6181 23.4778 14.5768 23.9322 14.1456 24.3533L14.1455 24.3533C14.0967 24.4011 14.0601 24.46 14.0392 24.5249C14.0183 24.5899 14.0137 24.6589 14.0257 24.7261C14.0378 24.7933 14.0661 24.8565 14.1082 24.9104C14.1503 24.9643 14.2049 25.0073 14.2672 25.0358L14.2672 25.0358C15.0131 25.3766 15.8684 25.4614 16.6521 25.349C17.4347 25.2367 18.1561 24.9261 18.6294 24.464L18.5595 24.3925L18.6294 24.464C19.1903 23.9163 19.5198 23.0976 19.4156 22.3004C21.0235 21.1578 23.2298 19.4072 24.5023 17.9305C25.2123 17.1065 25.5972 16.4195 25.6462 15.8361C25.714 15.0309 25.0903 14.4157 24.2618 14.476ZM24.326 15.3169L24.326 15.3169C24.4874 15.3051 24.6088 15.3511 24.6861 15.4264C24.763 15.5013 24.8076 15.616 24.7951 15.765C24.7828 15.911 24.7098 16.0979 24.5776 16.3204C24.4466 16.541 24.2627 16.788 24.0393 17.0523C23.5925 17.581 22.9945 18.1712 22.3643 18.7477C21.1534 19.8554 19.8315 20.9049 19.2554 21.3568L18.2969 20.4888C18.3313 20.452 18.378 20.4021 18.4357 20.3408C18.569 20.1993 18.7609 19.997 18.9956 19.7539C19.465 19.2675 20.1051 18.6183 20.788 17.9661C21.4712 17.3135 22.1957 16.6596 22.8344 16.1632C23.1539 15.9149 23.4499 15.7075 23.7072 15.5595C23.9677 15.4098 24.177 15.3277 24.326 15.3169ZM18.0284 23.8641C17.7388 24.1469 17.2723 24.3703 16.73 24.4798C16.23 24.5808 15.6736 24.5833 15.146 24.4516C15.4292 23.977 15.4703 23.5178 15.508 23.0971C15.509 23.0859 15.51 23.0747 15.511 23.0635C15.553 22.5973 15.5984 22.1836 15.9366 21.7925C16.4999 21.1409 17.5877 21.0006 18.187 21.6262C18.5414 21.9962 18.626 22.4302 18.5607 22.8356C18.4947 23.2447 18.276 23.6223 18.0284 23.8641Z" fill="black" stroke="black" stroke-width="0.2"/>
<path fill-rule="evenodd" clip-rule="evenodd" d="M18.7916 19.4853C18.2346 19.4492 17.6269 19.4311 16.9688 19.4311C12.7364 19.4311 10.5898 20.1726 10.5898 21.6349C10.5898 22.1131 10.7583 22.8063 12.2203 23.3052C12.5885 23.4305 12.7854 23.8318 12.661 24.2015C12.5356 24.5713 12.1381 24.7735 11.7689 24.6453C9.6321 23.9166 9.18359 22.6061 9.18359 21.6349C9.18359 18.457 13.4471 18.0317 16.7629 18.0156L17.3394 18.0158C18.0793 18.0197 19.1542 18.0443 20.2571 18.204C19.7696 18.5764 19.2772 19.0056 18.7916 19.4853Z" fill="black"/>
<path d="M18.283 12.8081C18.283 14.4072 17.0062 15.6866 15.452 15.6866C13.8978 15.6866 12.6211 14.4072 12.6211 12.8081C12.6211 11.2091 13.8978 9.92969 15.452 9.92969C17.0062 9.92969 18.283 11.2091 18.283 12.8081Z" stroke="black" stroke-width="1.5"/>
<defs>
<filter id="filter0_b_5_19062" x="-10" y="-10" width="55.6523" height="55.6523" filterUnits="userSpaceOnUse" color-interpolation-filters="sRGB">
<feFlood flood-opacity="0" result="BackgroundImageFix"/>
<feGaussianBlur in="BackgroundImageFix" stdDeviation="5"/>
<feComposite in2="SourceAlpha" operator="in" result="effect1_backgroundBlur_5_19062"/>
<feBlend mode="normal" in="SourceGraphic" in2="effect1_backgroundBlur_5_19062" result="shape"/>
</filter>
</defs>
</svg>
