<svg width="24" height="24" viewBox="0 0 24 24" fill="none" xmlns="http://www.w3.org/2000/svg">
<path d="M10.793 13.2412H14.1033V16.5516H10.793V13.2412Z" fill="#F1C62F"/>
<path d="M17.0019 4.55176V9.51728C17.0019 12.0311 14.964 14.069 12.4502 14.069C9.93632 14.069 7.89844 12.0311 7.89844 9.51728V4.55176H17.0019Z" fill="#FFD953"/>
<path d="M7.92969 8H7.42969C7.15353 8 6.92969 8.44769 6.92969 9C6.92969 9.55231 7.15353 10 7.42969 10H7.92969V8Z" fill="#F1C62F"/>
<path d="M16.9297 8H17.4297C17.7058 8 17.9297 8.44769 17.9297 9C17.9297 9.55231 17.7058 10 17.4297 10H16.9297V8Z" fill="#F1C62F"/>
<path d="M7.89682 4.96552H17.0003V4.55172C17.0003 2.03788 14.9624 0 12.4485 0H5.41406V2.48276C5.41406 3.85397 6.52561 4.96552 7.89682 4.96552Z" fill="#FAA41B"/>
<path d="M16.9978 7.0343H15.7565C14.6138 7.0343 13.6875 6.10797 13.6875 4.96533H16.9978V7.0343Z" fill="#E0941A"/>
<path d="M10.7931 14.8965H7.31034C5.4821 14.8965 4 16.3786 4 18.2068V23.9999H20.8966V18.2068C20.8966 16.3786 19.4144 14.8965 17.5862 14.8965H14.1034C14.1034 15.8106 13.3624 16.5517 12.4483 16.5517C11.5342 16.5517 10.7931 15.8106 10.7931 14.8965Z" fill="#B1FC91"/>
</svg>
