<svg width="24" height="24" viewBox="0 0 24 24" fill="none" xmlns="http://www.w3.org/2000/svg">
<g clip-path="url(#clip0_656_103398)">
<path d="M1.92969 19.0596H3.37836V22.4377H1.92969V19.0596Z" fill="#A35418"/>
<path d="M2.65594 19.8802C4.12277 19.8802 5.31187 18.6911 5.31187 17.2243C5.31187 15.7575 4.12277 14.5684 2.65594 14.5684C1.1891 14.5684 0 15.7575 0 17.2243C0 18.6911 1.1891 19.8802 2.65594 19.8802Z" fill="#2C911F"/>
<path d="M2.65405 14.5684C2.40294 14.5684 2.15998 14.6032 1.92969 14.6683C3.04447 14.9836 3.86127 16.0086 3.86127 17.2243C3.86127 18.44 3.04447 19.465 1.92969 19.7802C2.15994 19.8454 2.40294 19.8802 2.65405 19.8802C4.12086 19.8802 5.30998 18.6911 5.30998 17.2243C5.30998 15.7575 4.12086 14.5684 2.65405 14.5684Z" fill="#1A710E"/>
<path d="M20.6211 19.0596H22.0698V22.4377H20.6211V19.0596Z" fill="#A35418"/>
<path d="M21.3434 19.8802C22.8103 19.8802 23.9994 18.6911 23.9994 17.2243C23.9994 15.7575 22.8103 14.5684 21.3434 14.5684C19.8766 14.5684 18.6875 15.7575 18.6875 17.2243C18.6875 18.6911 19.8766 19.8802 21.3434 19.8802Z" fill="#2C911F"/>
<path d="M21.3415 14.5684C21.0904 14.5684 20.8475 14.6032 20.6172 14.6683C21.732 14.9836 22.5488 16.0086 22.5488 17.2243C22.5488 18.44 21.732 19.465 20.6172 19.7802C20.8474 19.8454 21.0904 19.8802 21.3415 19.8802C22.8084 19.8802 23.9975 18.6911 23.9975 17.2243C23.9975 15.7575 22.8084 14.5684 21.3415 14.5684Z" fill="#1A710E"/>
<path d="M19.245 9.29252V22.875H4.75781V9.29299L12.0014 3.72705L19.245 9.29252Z" fill="#FFD180"/>
<path d="M17.7969 9V22.6956H19.2455V10.1131L17.7969 9Z" fill="#FFBA63"/>
<path d="M23.6234 11.1734L12.586 2.21048C12.2404 1.92984 11.7596 1.92984 11.414 2.21048L0.37659 11.1734C-0.0451217 11.5159 -0.124667 12.1553 0.198998 12.6015C0.522663 13.0477 1.12695 13.1318 1.54866 12.7895L12 4.3024L22.4513 12.7895C22.6261 12.9313 22.8322 13 23.0367 13C23.3257 12.9999 23.6115 12.8628 23.801 12.6015C24.1247 12.1553 24.0451 11.5159 23.6234 11.1734Z" fill="#FF7043"/>
<path d="M6.83203 14.3745H11.1781V22.0002H6.83203V14.3745Z" fill="#BF6724"/>
<path d="M9.73047 14.3745H11.1791V22.0002H9.73047V14.3745Z" fill="#A35418"/>
<path d="M11.1783 14H6.83203C6.63797 14 6.48047 14.1677 6.48047 14.3743V21.9998H7.18359V14.7487H10.8267V21.9998H11.5298V14.3743C11.5298 14.1677 11.3723 14 11.1783 14Z" fill="#FDEEDF"/>
<path d="M11.9987 10.4213C12.9321 10.4213 13.6888 9.66457 13.6888 8.73114C13.6888 7.79771 12.9321 7.04102 11.9987 7.04102C11.0653 7.04102 10.3086 7.79771 10.3086 8.73114C10.3086 9.66457 11.0653 10.4213 11.9987 10.4213Z" fill="#4DECFF"/>
<path d="M11.9987 6.68945C10.8729 6.68945 9.95703 7.60534 9.95703 8.73114C9.95703 9.85694 10.8729 10.7728 11.9987 10.7728C13.1245 10.7728 14.0404 9.85694 14.0404 8.73114C14.0404 7.60534 13.1245 6.68945 11.9987 6.68945ZM13.2963 8.40189H12.3503V7.43941C12.8137 7.56569 13.1779 7.9353 13.2963 8.40189ZM11.6472 7.43941V8.40184H10.7011C10.8196 7.9353 11.1837 7.56569 11.6472 7.43941ZM10.7133 9.10502H11.6472V10.0229C11.1986 9.90067 10.8431 9.55047 10.7133 9.10502ZM12.3503 10.0229V9.10502H13.2841C13.1544 9.55047 12.7989 9.90067 12.3503 10.0229Z" fill="#FDEEDF"/>
<path d="M13 14H17V18H13V14Z" fill="#4DECFF"/>
<path d="M17.1675 14H12.918C12.7238 14 12.5664 14.1574 12.5664 14.3516V18.249C12.5664 18.4431 12.7238 18.6005 12.918 18.6005H17.1675C17.3616 18.6005 17.519 18.4431 17.519 18.249V14.3516C17.519 14.1574 17.3617 14 17.1675 14ZM13.2695 14.7031H14.6912V17.8974H13.2695V14.7031ZM16.8159 17.8974H15.3943V14.7031H16.8159V17.8974Z" fill="#FDEEDF"/>
<path d="M23.2269 23.2347H0.773109C0.346125 23.2347 0 22.8885 0 22.4615V22.4606C0 22.0336 0.346125 21.6875 0.773109 21.6875H23.2269C23.6539 21.6875 24 22.0336 24 22.4606V22.4615C24 22.8885 23.6539 23.2347 23.2269 23.2347Z" fill="#A35418"/>
<path d="M23.226 21.6875H21.7773C22.204 21.6875 22.55 22.0338 22.55 22.4611C22.55 22.8883 22.204 23.2347 21.7773 23.2347H23.226C23.6527 23.2347 23.9987 22.8883 23.9987 22.4611C23.9987 22.0338 23.6527 21.6875 23.226 21.6875Z" fill="#8C4815"/>
</g>
<defs>
<clipPath id="clip0_656_103398">
<rect width="24" height="24" fill="white"/>
</clipPath>
</defs>
</svg>
