<svg width="24" height="24" viewBox="0 0 24 24" fill="none" xmlns="http://www.w3.org/2000/svg">
<path d="M7.09668 10.376L1.85547 20.2506L6.61495 19.8109L8.91853 23.9994L14.1597 14.1247L7.09668 10.376Z" fill="#F8BF0C"/>
<path d="M16.9029 10.376L22.1441 20.2506L17.3846 19.8109L15.0811 23.9994L9.83984 14.1247L16.9029 10.376Z" fill="#FFD03B"/>
<path d="M11.9995 17.5147C16.8361 17.5147 20.7569 13.5939 20.7569 8.75735C20.7569 3.9208 16.8361 0 11.9995 0C7.16299 0 3.24219 3.9208 3.24219 8.75735C3.24219 13.5939 7.16299 17.5147 11.9995 17.5147Z" fill="#FFD03B"/>
<path d="M12 15C8.69139 15 6 12.3077 6 8.99964C6 5.69156 8.69139 3 12 3C15.3086 3 18 5.69228 18 9.00036C18 12.3084 15.3086 15 12 15Z" fill="#BF6724"/>
<path d="M11.7025 6C11.5225 6.50274 11.1908 6.94169 10.7068 7.31912C10.46 7.51196 10.2274 7.65377 10 7.77908V9.22351C10.5147 8.9864 10.9957 8.70427 11.4039 8.32234V11.3001V12.2779H12.9841V6H11.7025Z" fill="white"/>
</svg>
