<svg width="18" height="22" viewBox="0 0 18 22" fill="none" xmlns="http://www.w3.org/2000/svg">
<mask id="path-1-inside-1_656_103351" fill="white">
<path d="M6.6123 14.103C8.20044 13.9629 9.79776 13.9629 11.3859 14.103L11.893 14.1459C12.5866 14.2142 13.2752 14.3213 13.9529 14.466C15.6803 14.8218 16.9347 15.4531 17.4899 16.624C17.9024 17.4952 17.9024 18.5065 17.4897 19.3781C16.9331 20.552 15.6626 21.1885 13.9658 21.5232L13.4517 21.63C12.7646 21.7618 12.0718 21.8518 11.3835 21.8989C10.092 22.0089 8.79447 22.0289 7.54285 21.9601C7.40488 21.9601 7.31227 21.9596 7.23068 21.9577L7.072 21.9518C6.87907 21.9419 6.70232 21.9217 6.62815 21.8999C5.75737 21.8408 4.89237 21.7147 4.06258 21.5275L3.78111 21.4688C2.20982 21.1196 1.04618 20.4898 0.50792 19.3768C0.304069 18.9449 0.198629 18.4729 0.199241 17.999C0.197469 17.5217 0.303771 17.0502 0.515203 16.6099C1.07578 15.4839 2.39283 14.8064 4.03912 14.4673C4.89207 14.2845 5.7568 14.1624 6.6123 14.103ZM11.2472 15.6893C9.75134 15.5573 8.24687 15.5573 6.73647 15.6905C5.94082 15.7458 5.15005 15.8575 4.3639 16.0259C3.14635 16.2768 2.21546 16.7556 1.93854 17.3117C1.83657 17.5241 1.78404 17.7571 1.78491 17.997C1.78461 18.2383 1.83785 18.4767 1.9375 18.6879C2.22231 19.2767 3.10072 19.7168 4.38777 19.9691L4.77554 20.0512C5.42497 20.1799 6.09384 20.2687 6.83716 20.3248C6.93104 20.3436 7.03233 20.3552 7.15252 20.3614L7.58549 20.3688C8.80668 20.4348 10.031 20.4159 11.2626 20.3112C12.0563 20.2568 12.8448 20.1423 13.6407 19.9647L13.8882 19.9123C15.0184 19.656 15.8005 19.2366 16.0579 18.6938C16.2655 18.2554 16.2655 17.7463 16.058 17.3083C15.7826 16.7273 14.9118 16.2891 13.6288 16.0248C12.8483 15.8582 12.0571 15.7464 11.2611 15.6904L11.2472 15.6893ZM9.00394 0C12.2314 0 14.8477 2.6275 14.8477 5.86869C14.8477 9.10988 12.2314 11.7374 9.00394 11.7374C5.77652 11.7374 3.16017 9.10988 3.16017 5.86869C3.16017 2.6275 5.77652 0 9.00394 0ZM9.00394 1.59244C6.65226 1.59244 4.74584 3.50698 4.74584 5.86869C4.74584 8.2304 6.65226 10.1449 9.00394 10.1449C11.3556 10.1449 13.262 8.2304 13.262 5.86869C13.262 3.50698 11.3556 1.59244 9.00394 1.59244Z"/>
</mask>
<path d="M6.6123 14.103C8.20044 13.9629 9.79776 13.9629 11.3859 14.103L11.893 14.1459C12.5866 14.2142 13.2752 14.3213 13.9529 14.466C15.6803 14.8218 16.9347 15.4531 17.4899 16.624C17.9024 17.4952 17.9024 18.5065 17.4897 19.3781C16.9331 20.552 15.6626 21.1885 13.9658 21.5232L13.4517 21.63C12.7646 21.7618 12.0718 21.8518 11.3835 21.8989C10.092 22.0089 8.79447 22.0289 7.54285 21.9601C7.40488 21.9601 7.31227 21.9596 7.23068 21.9577L7.072 21.9518C6.87907 21.9419 6.70232 21.9217 6.62815 21.8999C5.75737 21.8408 4.89237 21.7147 4.06258 21.5275L3.78111 21.4688C2.20982 21.1196 1.04618 20.4898 0.50792 19.3768C0.304069 18.9449 0.198629 18.4729 0.199241 17.999C0.197469 17.5217 0.303771 17.0502 0.515203 16.6099C1.07578 15.4839 2.39283 14.8064 4.03912 14.4673C4.89207 14.2845 5.7568 14.1624 6.6123 14.103ZM11.2472 15.6893C9.75134 15.5573 8.24687 15.5573 6.73647 15.6905C5.94082 15.7458 5.15005 15.8575 4.3639 16.0259C3.14635 16.2768 2.21546 16.7556 1.93854 17.3117C1.83657 17.5241 1.78404 17.7571 1.78491 17.997C1.78461 18.2383 1.83785 18.4767 1.9375 18.6879C2.22231 19.2767 3.10072 19.7168 4.38777 19.9691L4.77554 20.0512C5.42497 20.1799 6.09384 20.2687 6.83716 20.3248C6.93104 20.3436 7.03233 20.3552 7.15252 20.3614L7.58549 20.3688C8.80668 20.4348 10.031 20.4159 11.2626 20.3112C12.0563 20.2568 12.8448 20.1423 13.6407 19.9647L13.8882 19.9123C15.0184 19.656 15.8005 19.2366 16.0579 18.6938C16.2655 18.2554 16.2655 17.7463 16.058 17.3083C15.7826 16.7273 14.9118 16.2891 13.6288 16.0248C12.8483 15.8582 12.0571 15.7464 11.2611 15.6904L11.2472 15.6893ZM9.00394 0C12.2314 0 14.8477 2.6275 14.8477 5.86869C14.8477 9.10988 12.2314 11.7374 9.00394 11.7374C5.77652 11.7374 3.16017 9.10988 3.16017 5.86869C3.16017 2.6275 5.77652 0 9.00394 0ZM9.00394 1.59244C6.65226 1.59244 4.74584 3.50698 4.74584 5.86869C4.74584 8.2304 6.65226 10.1449 9.00394 10.1449C11.3556 10.1449 13.262 8.2304 13.262 5.86869C13.262 3.50698 11.3556 1.59244 9.00394 1.59244Z" fill="white" stroke="white" stroke-width="3" mask="url(#path-1-inside-1_656_103351)"/>
</svg>
