<svg width="24" height="21" viewBox="0 0 24 21" fill="none" xmlns="http://www.w3.org/2000/svg">
<path d="M18.36 10.9547C19.8149 10.9547 21.1322 11.0313 21.9426 11.1738C21.9552 11.1738 22.6967 11.315 22.9439 11.4061C23.3006 11.5486 23.6026 11.806 23.795 12.128C23.9326 12.3853 24 12.6572 24 12.9409C23.9874 13.2366 23.7809 13.7922 23.684 14.0112C23.0815 15.455 21.1041 18.2146 19.8978 19.273C19.7054 19.4525 19.4722 19.6465 19.4175 19.698C19.1141 19.9171 18.7448 20.0332 18.3473 20.0332C17.9892 20.0332 17.6325 19.9303 17.3446 19.7231C17.195 19.6241 16.9767 19.4271 16.8769 19.3348L16.8236 19.2849C15.5737 18.2027 13.6946 15.5065 13.0907 14.1393C13.0778 14.1393 12.777 13.4573 12.7161 13.0457L12.7059 12.9409V12.8895C12.7059 12.2956 13.0626 11.7413 13.6398 11.4576C13.9558 11.3031 14.8743 11.1606 14.8883 11.1474C15.7113 11.0313 16.9738 10.9547 18.36 10.9547ZM5.64664 11.0227C6.22174 11.0227 6.69512 11.4289 6.75981 11.9529L6.76734 12.0758L7.0749 17.1633C7.0749 17.905 6.43591 18.5054 5.64664 18.5054C4.9067 18.5054 4.2976 17.9777 4.22435 17.3006L4.21697 17.1633L4.52593 12.0758C4.52593 11.4938 5.0273 11.0227 5.64664 11.0227ZM5.65408 0.0332031C6.00939 0.0332031 6.36611 0.13614 6.65541 0.342015C6.78005 0.425321 6.95242 0.57616 7.06417 0.677574L7.17644 0.781478C8.42495 1.86496 10.3054 4.5598 10.9093 5.92702C10.9209 5.92702 11.2228 6.61012 11.2838 7.0218L11.2941 7.12664V7.1781C11.2941 7.77065 10.936 8.32493 10.3602 8.60867C10.0442 8.76439 9.12574 8.9056 9.11169 8.9188C8.28872 9.03493 7.02617 9.11148 5.64004 9.11148C4.18509 9.11148 2.86777 9.03493 2.05743 8.89241C2.04339 8.89241 1.30328 8.7512 1.0561 8.66014C0.699387 8.51893 0.397443 8.26027 0.205041 7.93826C0.0674108 7.68091 0 7.40905 0 7.12664C0.0126395 6.8297 0.219085 6.27542 0.314584 6.05635C0.918472 4.61127 2.89445 1.85176 4.10223 0.794675C4.29463 0.613875 4.52776 0.419878 4.58253 0.368409C4.88447 0.149337 5.25523 0.0332031 5.65408 0.0332031ZM18.3536 1.56098C19.0936 1.56098 19.7015 2.08875 19.7745 2.76585L19.7819 2.90315L19.4743 7.99074C19.4743 8.57274 18.973 9.04389 18.3536 9.04389C17.7785 9.04389 17.3052 8.63765 17.2405 8.11363L17.2329 7.99074L16.924 2.90315C16.924 2.16146 17.5644 1.56098 18.3536 1.56098Z" fill="#73DDFF"/>
</svg>
