<svg width="45" height="33" viewBox="0 0 45 33" fill="none" xmlns="http://www.w3.org/2000/svg">
<g clip-path="url(#clip0_636_12395)">
<path d="M30.9099 32.1622C30.5177 32.1622 30.1271 32.0027 29.8433 31.6889L10.3449 10.1299C9.81241 9.54108 9.85805 8.63204 10.4468 8.09952C11.0355 7.56701 11.9446 7.61258 12.4772 8.20142L31.9755 29.7605C32.508 30.3493 32.4624 31.2583 31.8736 31.7908C31.5986 32.0396 31.2536 32.1622 30.9099 32.1622Z" fill="#F4DAB5"/>
<path d="M5.32719 3.49719C5.32719 3.49719 6.47793 1.01316 8.91194 1.33491C11.2455 1.64339 11.9595 3.88771 11.9595 3.88771C11.9595 3.88771 16.7797 4.34752 20.054 6.49735C24.067 9.13232 20.0663 12.7771 20.0663 12.7771L16.6812 14.3845L5.32719 3.49719Z" fill="#9781DD"/>
<path d="M10.5128 14.6523L13.0484 19.0153L19.8118 13.165L13.9977 6.7953C13.7473 6.54858 13.2109 6.04958 12.7342 5.63489C13.1856 5.40247 13.5433 4.91843 13.6806 4.19578C13.9064 3.00655 12.9647 1.53051 12.5944 1.46019C12.2241 1.38988 10.8069 2.4179 10.581 3.60713C10.5269 3.89233 10.5186 4.15537 10.5486 4.39307C8.39843 3.92901 6.15785 5.50012 4.66235 8.18839C2.74312 11.6382 2.8817 15.3218 4.44269 16.3423C6.05247 17.3947 8.51187 16.6394 10.5128 14.6523Z" fill="#E8C2D8"/>
<path d="M3.47886 11.6145C3.47886 11.6145 2.61325 14.8823 4.72751 16.502C6.84176 18.1218 9.40687 15.0393 9.40687 15.0393L3.47886 11.6145Z" fill="#D789B9"/>
<path d="M10.0054 15.0788C10.4114 14.8173 10.7911 14.5388 11.1251 14.2547L10.6212 13.372C10.4539 13.0789 10.05 13.0246 9.81648 13.2683C9.45883 13.6418 9.04149 13.9737 8.59373 14.2585C9.06108 14.5372 9.54055 14.7956 10.0054 15.0788Z" fill="#D392D8"/>
<path d="M7.94669 14.6273C6.38009 15.4218 4.61962 15.6516 3.71547 15.0605C3.59159 14.9796 3.47828 14.8789 3.37509 14.7619C3.57722 15.2789 4.06538 16.0956 4.44269 16.3422C5.51803 17.0452 7.59477 16.4571 9.37046 15.4606C8.89537 15.1835 8.41172 14.9212 7.94669 14.6273Z" fill="#C668B9"/>
<path d="M13.9977 6.7953C13.7473 6.54857 13.2109 6.04964 12.7342 5.63489C13.1856 5.40247 13.5433 4.91843 13.6806 4.19578C13.9064 3.00655 12.9647 1.53051 12.5944 1.46019C12.3276 1.40953 11.5171 1.92928 11.0005 2.66862C11.3588 2.98689 11.9152 4.05147 11.7347 4.92268C11.7039 5.07144 11.6623 5.20808 11.6113 5.33241C11.358 5.95084 11.4931 6.65924 11.9619 7.13561L11.9682 7.14206L15.874 11.5664C16.3989 12.161 16.33 13.0714 15.7216 13.5803L11.7973 16.8625L13.0484 19.0152L19.8118 13.1649L13.9977 6.7953Z" fill="#D392D8"/>
<path d="M16.0808 16.6947L18.2821 14.7182L19.8449 16.4588L17.6436 18.4353L16.0808 16.6947Z" fill="#DBA2B3"/>
<path d="M0.705443 1.29701L5.70784 7.87478C6.35418 8.40258 8.98084 5.18592 8.3345 4.65811L1.07818 0.869945C0.807537 0.732209 0.532386 1.04751 0.705443 1.29701Z" fill="white"/>
<path d="M27.9215 11.6582L28.4829 13.2368C28.507 13.3044 28.5545 13.358 28.6146 13.385L30.0171 14.0169C30.2152 14.1062 30.2152 14.4218 30.0171 14.5111L28.6146 15.143C28.5545 15.1701 28.507 15.2236 28.4829 15.2912L27.9215 16.8698C27.8422 17.0928 27.5618 17.0928 27.4824 16.8698L26.921 15.2912C26.897 15.2236 26.8494 15.17 26.7894 15.143L25.3869 14.5111C25.1887 14.4218 25.1887 14.1062 25.3869 14.0169L26.7894 13.385C26.8494 13.3579 26.897 13.3044 26.921 13.2368L27.4824 11.6582C27.5618 11.4352 27.8423 11.4352 27.9215 11.6582Z" fill="#E9C3D9"/>
<path d="M8.08294 24.4227L8.49938 25.5937C8.51723 25.6438 8.55249 25.6835 8.59702 25.7036L9.63736 26.1723C9.78431 26.2385 9.78431 26.4727 9.63736 26.5389L8.59702 27.0076C8.55249 27.0277 8.51717 27.0674 8.49938 27.1176L8.08294 28.2886C8.0241 28.454 7.81604 28.454 7.7572 28.2886L7.34077 27.1176C7.32291 27.0674 7.28766 27.0277 7.24312 27.0076L6.20278 26.5389C6.05583 26.4727 6.05583 26.2385 6.20278 26.1723L7.24312 25.7036C7.28766 25.6836 7.32298 25.6438 7.34077 25.5937L7.7572 24.4227C7.81604 24.2572 8.0241 24.2572 8.08294 24.4227Z" fill="#E9C3D9"/>
<path d="M4.40415 21.6373C4.40415 21.9293 4.16742 22.1661 3.87538 22.1661C3.58334 22.1661 3.34654 21.9293 3.34654 21.6373C3.34654 21.3453 3.58328 21.1085 3.87538 21.1085C4.16742 21.1085 4.40415 21.3453 4.40415 21.6373Z" fill="#D88ABA"/>
<path d="M16.1863 24.143C16.2257 23.6325 15.8438 23.1868 15.3333 23.1473C14.8228 23.1079 14.377 23.4898 14.3376 24.0002C14.2981 24.5107 14.68 24.9565 15.1905 24.996C15.7011 25.0354 16.1469 24.6535 16.1863 24.143Z" fill="#D88ABA"/>
<path d="M32.4599 29.3225L19.1475 14.6031L20.2391 13.659C20.2936 13.6118 20.3388 13.5562 20.3746 13.4952C21.1785 12.8401 22.4322 11.5662 22.5587 9.9141C22.6621 8.56245 22.0069 7.27577 20.6113 6.08964C18.5374 4.32711 15.9835 3.49295 14.2896 3.10894C14.2025 2.70295 14.0601 2.35491 13.9495 2.12513C13.7786 1.77025 13.3163 0.932555 12.7163 0.818666C12.2197 0.724307 11.6288 1.12611 11.2761 1.41905C10.5744 0.943383 9.67345 0.571295 8.61397 0.645867C6.94102 0.764332 5.91048 1.64199 5.33988 2.35806L1.38052 0.291053C1.37852 0.290021 1.37646 0.288926 1.37446 0.287959C0.987745 0.0911835 0.518526 0.181998 0.233386 0.50884C-0.0518194 0.835682 -0.0783741 1.31283 0.168868 1.66925C0.174282 1.67712 0.17989 1.68479 0.18569 1.69239L4.43966 7.28609C4.32029 7.47468 4.20389 7.66907 4.09161 7.87087C2.09647 11.4571 2.09363 15.5868 4.08536 16.8889C5.7623 17.9852 8.20959 17.4908 10.3556 15.6815L12.4837 19.3435C12.5814 19.5116 12.749 19.6274 12.9407 19.6595C12.9766 19.6655 13.0126 19.6684 13.0483 19.6684C13.2041 19.6684 13.356 19.6127 13.4756 19.5093L15.9845 17.3392L29.3589 32.1272C29.7545 32.5645 30.3198 32.8154 30.9099 32.8154C31.4288 32.8154 31.9267 32.6236 32.3117 32.2753C32.7259 31.9008 32.9694 31.3874 32.9974 30.8297C33.0253 30.2719 32.8344 29.7367 32.4599 29.3225ZM14.2915 4.45801C15.8381 4.83945 18.0208 5.60231 19.7654 7.08493C20.8228 7.98353 21.3245 8.90044 21.2565 9.81013C21.1814 10.8155 20.4487 11.6789 19.8423 12.2296L14.4801 6.355C14.4724 6.34649 14.4644 6.33817 14.4561 6.33012C14.2936 6.17002 14.0256 5.91729 13.7301 5.64807C13.9928 5.32813 14.1837 4.92439 14.2915 4.45801ZM8.7062 1.94872C9.34351 1.90328 9.91566 2.11237 10.3918 2.4046C10.1913 2.71281 10.0167 3.07775 9.93932 3.48535C9.92817 3.54426 9.9185 3.60291 9.91038 3.66118C9.37832 3.64642 8.844 3.73395 8.31793 3.9128L6.52717 2.97791C6.95527 2.51836 7.65317 2.02329 8.7062 1.94872ZM2.21132 2.19822L7.75223 5.09088C7.67083 5.31743 7.45304 5.73644 7.02062 6.26599C6.59446 6.78786 6.23178 7.08409 6.0245 7.21222L2.21132 2.19822ZM4.80002 15.7956C4.12403 15.3537 3.72604 13.9442 3.98075 12.1229L8.81699 15.2068C7.33715 16.1971 5.80504 16.4525 4.80002 15.7956ZM13.2171 18.0059L11.0774 14.3242C10.9758 14.1492 10.7988 14.0314 10.5982 14.0049C10.5697 14.0011 10.5412 13.9993 10.5128 13.9993C10.3415 13.9993 10.1757 14.0667 10.0526 14.189C9.86726 14.373 9.67802 14.5444 9.48641 14.7042L4.13725 11.2932C4.34434 10.4149 4.69754 9.46847 5.23308 8.50586C5.2557 8.46513 5.27923 8.42633 5.30217 8.3863C5.41522 8.47679 5.61393 8.59113 5.89836 8.59113C6.03185 8.59113 6.18415 8.56593 6.35489 8.50116C7.37563 8.11411 8.9024 6.24446 9.07758 5.16693C9.08435 5.12523 9.08873 5.0854 9.09195 5.04647C9.53578 4.94624 9.97896 4.93832 10.4107 5.03152C10.6178 5.07625 10.8336 5.01779 10.9897 4.87464C11.1459 4.73155 11.2229 4.52163 11.1965 4.31151C11.1741 4.13401 11.1829 3.938 11.2226 3.72905C11.3524 3.04546 12.0781 2.38965 12.4589 2.17341C12.734 2.51417 13.1687 3.39041 13.0389 4.074C12.9481 4.5525 12.7336 4.90068 12.4352 5.05433C12.2427 5.15346 12.1118 5.3416 12.0859 5.55661C12.0599 5.77163 12.1422 5.98555 12.3056 6.12767C12.7479 6.51245 13.2692 6.99527 13.5273 7.24857L18.8772 13.1099L13.2171 18.0059ZM31.6928 30.764C31.6823 30.9733 31.5909 31.166 31.4355 31.3065C31.291 31.4371 31.1044 31.5091 30.9098 31.5091C30.685 31.5091 30.4782 31.4173 30.3276 31.2508L16.9726 16.4844L18.1593 15.4578L31.4911 30.1986C31.6317 30.354 31.7033 30.5548 31.6928 30.764Z" fill="#3C122C"/>
<path d="M10.0055 10.1612C10.3189 9.88455 10.3487 9.40619 10.072 9.09277C9.79539 8.77934 9.31703 8.74953 9.00361 9.02618C8.69018 9.30283 8.66037 9.78118 8.93702 10.0946C9.21367 10.408 9.69202 10.4378 10.0055 10.1612Z" fill="#3C122C"/>
<path d="M5.1897 15.2958C4.90708 15.2958 4.64656 15.1109 4.56315 14.826C4.48136 14.5464 4.4289 14.2404 4.40705 13.9164C4.38281 13.5566 4.65494 13.2452 5.01484 13.221C5.3741 13.1967 5.65196 13.4728 5.71029 13.8288C5.75199 14.0834 5.78731 14.2895 5.81677 14.4592C5.87839 14.8146 5.71951 15.1682 5.37333 15.2694C5.31216 15.2873 5.25042 15.2958 5.1897 15.2958Z" fill="white"/>
<path d="M5.39447 11.7159C5.34259 11.7159 5.28986 11.7097 5.23727 11.6967C4.8871 11.6101 4.67343 11.2561 4.75993 10.906C4.81098 10.6994 4.86293 10.5111 4.91868 10.3301C5.02483 9.98537 5.39035 9.79188 5.73504 9.89817C6.07974 10.0043 6.2731 10.3698 6.16694 10.7145C6.11847 10.8718 6.07303 11.0369 6.02798 11.2193C5.95438 11.5169 5.68773 11.7159 5.39447 11.7159Z" fill="white"/>
</g>
<path d="M13.6136 32.162C14.0057 32.162 14.3964 32.0024 14.6802 31.6887L34.1785 10.1296C34.711 9.54084 34.6654 8.63179 34.0766 8.09928C33.4879 7.56677 32.5789 7.61234 32.0463 8.20118L12.5479 29.7602C12.0154 30.349 12.061 31.2581 12.6498 31.7906C12.9248 32.0394 13.2699 32.162 13.6136 32.162Z" fill="#F4DAB5"/>
<path d="M39.1963 3.49694C39.1963 3.49694 38.0455 1.01292 35.6115 1.33467C33.278 1.64314 32.564 3.88746 32.564 3.88746C32.564 3.88746 27.7437 4.34727 24.4695 6.49711C20.4564 9.13208 24.4571 12.7769 24.4571 12.7769L27.8423 14.3842L39.1963 3.49694Z" fill="#9781DD"/>
<path d="M34.0106 14.6521L31.475 19.015L24.7116 13.1648L30.5257 6.79506C30.7761 6.54833 31.3125 6.04934 31.7892 5.63464C31.3378 5.40223 30.9802 4.91818 30.8429 4.19553C30.617 3.00631 31.5588 1.53027 31.929 1.45995C32.2993 1.38963 33.7166 2.41766 33.9424 3.60688C33.9966 3.89209 34.0048 4.15512 33.9748 4.39283C36.125 3.92876 38.3656 5.49987 39.8611 8.18815C41.7803 11.6379 41.6417 15.3216 40.0807 16.342C38.471 17.3944 36.0116 16.6392 34.0106 14.6521Z" fill="#E8C2D8"/>
<path d="M41.0446 11.6143C41.0446 11.6143 41.9102 14.882 39.7959 16.5018C37.6817 18.1216 35.1166 15.039 35.1166 15.039L41.0446 11.6143Z" fill="#D789B9"/>
<path d="M34.518 15.0785C34.1121 14.8171 33.7324 14.5385 33.3984 14.2544L33.9022 13.3718C34.0696 13.0786 34.4734 13.0243 34.707 13.2681C35.0646 13.6415 35.4819 13.9734 35.9297 14.2583C35.4624 14.537 34.9829 14.7954 34.518 15.0785Z" fill="#D392D8"/>
<path d="M36.5768 14.6271C38.1433 15.4216 39.9038 15.6514 40.808 15.0603C40.9318 14.9793 41.0452 14.8786 41.1483 14.7617C40.9462 15.2786 40.4581 16.0953 40.0807 16.342C39.0054 17.045 36.9287 16.4569 35.153 15.4604C35.6281 15.1833 36.1117 14.9209 36.5768 14.6271Z" fill="#C668B9"/>
<path d="M30.5257 6.79506C30.7761 6.54833 31.3125 6.0494 31.7892 5.63464C31.3378 5.40222 30.9802 4.91818 30.8429 4.19553C30.617 3.00631 31.5588 1.53027 31.929 1.45995C32.1959 1.40929 33.0063 1.92904 33.5229 2.66838C33.1646 2.98665 32.6082 4.05122 32.7887 4.92244C32.8195 5.07119 32.8612 5.20783 32.9121 5.33216C33.1654 5.95059 33.0303 6.659 32.5616 7.13537L32.5552 7.14181L28.6495 11.5661C28.1246 12.1607 28.1935 13.0712 28.8018 13.58L32.7261 16.8622L31.475 19.015L24.7116 13.1647L30.5257 6.79506Z" fill="#D392D8"/>
<path d="M28.4427 16.6945L26.2413 14.718L24.6785 16.4586L26.8799 18.4351L28.4427 16.6945Z" fill="#DBA2B3"/>
<path d="M43.818 1.29677L38.8156 7.87453C38.1693 8.40234 35.5426 5.18568 36.1889 4.65787L43.4453 0.869701C43.7159 0.731965 43.9911 1.04727 43.818 1.29677Z" fill="white"/>
<path d="M16.6019 11.658L16.0405 13.2366C16.0165 13.3042 15.9689 13.3577 15.9088 13.3847L14.5063 14.0166C14.3082 14.1059 14.3082 14.4216 14.5063 14.5109L15.9088 15.1428C15.9689 15.1698 16.0165 15.2234 16.0405 15.2909L16.6019 16.8695C16.6812 17.0925 16.9617 17.0925 17.041 16.8695L17.6024 15.2909C17.6264 15.2233 17.674 15.1698 17.7341 15.1428L19.1366 14.5109C19.3347 14.4216 19.3347 14.1059 19.1366 14.0166L17.7341 13.3847C17.674 13.3577 17.6264 13.3041 17.6024 13.2366L17.041 11.658C16.9617 11.435 16.6812 11.435 16.6019 11.658Z" fill="#E9C3D9"/>
<path d="M36.4405 24.4224L36.0241 25.5934C36.0062 25.6436 35.971 25.6833 35.9264 25.7034L34.8861 26.1721C34.7391 26.2383 34.7391 26.4725 34.8861 26.5387L35.9264 27.0074C35.971 27.0274 36.0063 27.0672 36.0241 27.1173L36.4405 28.2883C36.4993 28.4538 36.7074 28.4538 36.7662 28.2883L37.1827 27.1173C37.2005 27.0672 37.2358 27.0275 37.2803 27.0074L38.3207 26.5387C38.4676 26.4725 38.4676 26.2383 38.3207 26.1721L37.2803 25.7034C37.2358 25.6833 37.2005 25.6436 37.1827 25.5934L36.7662 24.4224C36.7074 24.257 36.4993 24.257 36.4405 24.4224Z" fill="#E9C3D9"/>
<path d="M40.1193 21.637C40.1193 21.9291 40.356 22.1658 40.6481 22.1658C40.9401 22.1658 41.1769 21.9291 41.1769 21.637C41.1769 21.345 40.9402 21.1083 40.6481 21.1083C40.356 21.1083 40.1193 21.345 40.1193 21.637Z" fill="#D88ABA"/>
<path d="M28.3371 24.1428C28.2977 23.6323 28.6796 23.1865 29.1901 23.1471C29.7006 23.1077 30.1465 23.4895 30.1859 24C30.2253 24.5105 29.8434 24.9563 29.3329 24.9957C28.8224 25.0351 28.3765 24.6533 28.3371 24.1428Z" fill="#D88ABA"/>
<path d="M12.0636 29.3222L25.376 14.6029L24.2844 13.6587C24.2299 13.6115 24.1846 13.5559 24.1488 13.4949C23.3449 12.8399 22.0912 11.566 21.9648 9.91385C21.8613 8.56221 22.5165 7.27553 23.9121 6.0894C25.9861 4.32686 28.5399 3.49271 30.2339 3.1087C30.3209 2.70271 30.4634 2.35466 30.574 2.12489C30.7448 1.77001 31.2071 0.93231 31.8072 0.818422C32.3037 0.724062 32.8946 1.12586 33.2474 1.4188C33.9491 0.943139 34.85 0.571051 35.9095 0.645623C37.5824 0.764088 38.613 1.64175 39.1836 2.35782L43.1429 0.290808C43.1449 0.289777 43.147 0.288682 43.149 0.287715C43.5357 0.0909394 44.0049 0.181754 44.2901 0.508596C44.5753 0.835437 44.6018 1.31258 44.3546 1.66901C44.3492 1.67687 44.3435 1.68454 44.3377 1.69215L40.0838 7.28584C40.2031 7.47443 40.3195 7.66882 40.4318 7.87062C42.427 11.4569 42.4298 15.5866 40.4381 16.8886C38.7611 17.9849 36.3138 17.4906 34.1679 15.6812L32.0397 19.3432C31.942 19.5113 31.7745 19.6271 31.5827 19.6592C31.5468 19.6652 31.5109 19.6682 31.4751 19.6682C31.3194 19.6682 31.1674 19.6124 31.0478 19.5091L28.5389 17.3389L15.1645 32.1269C14.7689 32.5643 14.2036 32.8151 13.6136 32.8151C13.0946 32.8151 12.5967 32.6233 12.2117 32.2751C11.7976 31.9006 11.5541 31.3871 11.5261 30.8294C11.4982 30.2716 11.689 29.7364 12.0636 29.3222ZM30.2319 4.45777C28.6853 4.8392 26.5027 5.60207 24.758 7.08468C23.7006 7.98329 23.1989 8.9002 23.2669 9.80989C23.342 10.8152 24.0747 11.6786 24.6812 12.2294L30.0433 6.35475C30.0511 6.34624 30.0591 6.33793 30.0673 6.32987C30.2298 6.16977 30.4979 5.91705 30.7933 5.64783C30.5307 5.32788 30.3397 4.92415 30.2319 4.45777ZM35.8172 1.94848C35.1799 1.90304 34.6078 2.11212 34.1317 2.40436C34.3321 2.71257 34.5067 3.0775 34.5841 3.48511C34.5953 3.54402 34.6049 3.60267 34.6131 3.66093C35.1451 3.64617 35.6794 3.7337 36.2055 3.91256L37.9963 2.97767C37.5682 2.51812 36.8703 2.02305 35.8172 1.94848ZM42.3121 2.19798L36.7712 5.09063C36.8526 5.31719 37.0704 5.7362 37.5028 6.26574C37.929 6.78762 38.2917 7.08385 38.4989 7.21198L42.3121 2.19798ZM39.7234 15.7954C40.3994 15.3535 40.7974 13.9439 40.5427 12.1227L35.7064 15.2066C37.1863 16.1968 38.7184 16.4523 39.7234 15.7954ZM31.3064 18.0056L33.446 14.3239C33.5476 14.149 33.7246 14.0311 33.9252 14.0046C33.9537 14.0009 33.9823 13.999 34.0107 13.999C34.1819 13.999 34.3477 14.0664 34.4708 14.1887C34.6562 14.3728 34.8454 14.5442 35.037 14.7039L40.3862 11.293C40.1791 10.4147 39.8259 9.46822 39.2904 8.50562C39.2677 8.46488 39.2442 8.42608 39.2213 8.38606C39.1082 8.47655 38.9095 8.59089 38.6251 8.59089C38.4916 8.59089 38.3393 8.56569 38.1686 8.50091C37.1478 8.11387 35.621 6.24422 35.4459 5.16669C35.4391 5.12499 35.4347 5.08515 35.4315 5.04622C34.9877 4.946 34.5445 4.93807 34.1127 5.03127C33.9057 5.076 33.6898 5.01754 33.5337 4.87439C33.3776 4.73131 33.3005 4.52138 33.327 4.31127C33.3493 4.13376 33.3406 3.93776 33.3009 3.7288C33.1711 3.04521 32.4454 2.3894 32.0645 2.17316C31.7894 2.51393 31.3547 3.39017 31.4845 4.07376C31.5754 4.55226 31.7898 4.90043 32.0882 5.05409C32.2808 5.15322 32.4117 5.34136 32.4376 5.55637C32.4635 5.77139 32.3812 5.98531 32.2179 6.12743C31.7756 6.51221 31.2543 6.99503 30.9961 7.24833L25.6462 13.1096L31.3064 18.0056ZM12.8307 30.7638C12.8412 30.9731 12.9325 31.1657 13.088 31.3062C13.2324 31.4369 13.4191 31.5088 13.6137 31.5088C13.8385 31.5088 14.0452 31.4171 14.1959 31.2505L27.5509 16.4841L26.3641 15.4576L13.0324 30.1983C12.8918 30.3537 12.8202 30.5546 12.8307 30.7638Z" fill="#3C122C"/>
<path fill-rule="evenodd" clip-rule="evenodd" d="M27.3734 11.6011V11.6012H30.4185C30.7568 11.6012 31.0696 11.7546 31.2766 12.0222C31.4837 12.2898 31.5537 12.6311 31.4688 12.9586L30.7252 15.8277C30.3304 17.3506 29.1378 18.5368 27.6129 18.9234C27.6029 18.9259 27.5929 18.9282 27.5829 18.9302L24.7843 19.4991C24.4559 19.7699 24.1006 20.0133 23.7211 20.2249C23.6939 20.2401 23.6665 20.2547 23.6389 20.2687C23.8445 21.8321 24.9572 23.1513 26.5037 23.5973L26.8599 23.7H27.6677C27.9885 23.7 28.2485 23.96 28.2485 24.2808V26.6709H28.7678C29.1235 26.6709 29.4119 26.9592 29.4119 27.3149C29.4119 27.6706 29.1235 27.959 28.7678 27.959H27.0826H27.0815H16.3159C15.9602 27.959 15.6719 27.6706 15.6719 27.3149C15.6719 26.9592 15.9602 26.6709 16.3159 26.6709H16.8359V24.2808C16.8359 23.96 17.096 23.7 17.4168 23.7H18.228C19.8587 23.2104 21.0576 21.8659 21.391 20.2429L21.375 20.2343L21.3776 20.2328L21.3632 20.2249C20.9839 20.0135 20.6288 19.7703 20.3006 19.4997L17.4993 18.9302C17.4893 18.9282 17.4793 18.9259 17.4694 18.9234C15.9444 18.5368 14.7518 17.3506 14.3571 15.8277L13.6134 12.9586C13.5285 12.6311 13.5985 12.2898 13.8056 12.0223C14.0126 11.7547 14.3254 11.6012 14.6637 11.6012H17.7109V11.6011H17.2807C16.8581 11.6011 16.5156 11.2586 16.5156 10.8361C16.5156 10.4136 16.8581 10.071 17.2807 10.071H26.2307L26.2416 10.0765V10.071H27.8057C28.2283 10.071 28.5708 10.4136 28.5708 10.8361C28.5708 11.2586 28.2283 11.6011 27.8058 11.6011H27.3734ZM27.3734 12.8885V14.0072C27.3734 15.4121 26.9594 16.7571 26.2187 17.8939L27.3107 17.6719C28.3734 17.3971 29.2035 16.5679 29.4791 15.5047L30.1572 12.8885L27.3734 12.8885ZM17.7109 14.0072C17.7109 15.4123 18.125 16.7574 18.8659 17.8943L17.7716 17.6719C16.7089 17.3971 15.8788 16.5679 15.6032 15.5046L14.9251 12.8885H17.7109V14.0072Z" fill="url(#paint0_linear_636_12395)"/>
<path d="M25.9264 25.1114H19.1647C19.0133 25.1114 18.8906 24.9887 18.8906 24.8373C18.8906 24.6859 19.0133 24.5632 19.1647 24.5632H25.9264C26.0777 24.5632 26.2004 24.6859 26.2004 24.8373C26.2004 24.9887 26.0777 25.1114 25.9264 25.1114Z" fill="white"/>
<path d="M22.7459 13.065L23.1501 14.1724C23.1812 14.2576 23.2609 14.3155 23.3516 14.3187L24.5296 14.361C24.7374 14.3684 24.8227 14.6311 24.659 14.7592L23.7308 15.4859C23.6594 15.5418 23.6289 15.6354 23.6539 15.7226L23.9777 16.8561C24.0348 17.056 23.8114 17.2183 23.6389 17.1022L22.661 16.444C22.5857 16.3933 22.4873 16.3933 22.4121 16.444L21.4341 17.1022C21.2617 17.2183 21.0382 17.056 21.0953 16.8561L21.4192 15.7226C21.4441 15.6354 21.4137 15.5418 21.3423 15.4859L20.414 14.7592C20.2503 14.6311 20.3356 14.3684 20.5434 14.361L21.7215 14.3187C21.8122 14.3155 21.8918 14.2576 21.9229 14.1724L22.3272 13.065C22.3984 12.8698 22.6746 12.8698 22.7459 13.065Z" fill="white"/>
<path d="M34.518 10.161C34.2046 9.8843 34.1747 9.40595 34.4514 9.09252C34.7281 8.77909 35.2064 8.74928 35.5198 9.02593C35.8333 9.30258 35.8631 9.78094 35.5864 10.0944C35.3098 10.4078 34.8314 10.4376 34.518 10.161Z" fill="#3C122C"/>
<path d="M39.3337 15.2956C39.6164 15.2956 39.8769 15.1107 39.9603 14.8257C40.0421 14.5462 40.0945 14.2402 40.1164 13.9162C40.1406 13.5563 39.8685 13.245 39.5086 13.2207C39.1493 13.1965 38.8715 13.4725 38.8131 13.8285C38.7714 14.0832 38.7361 14.2892 38.7067 14.459C38.6451 14.8144 38.8039 15.1679 39.1501 15.2692C39.2113 15.2871 39.273 15.2956 39.3337 15.2956Z" fill="white"/>
<path d="M39.129 11.7156C39.1809 11.7156 39.2336 11.7094 39.2862 11.6964C39.6363 11.6099 39.85 11.2558 39.7635 10.9057C39.7125 10.6992 39.6605 10.5108 39.6048 10.3298C39.4986 9.98513 39.1331 9.79164 38.7884 9.89792C38.4437 10.0041 38.2503 10.3696 38.3565 10.7143C38.405 10.8716 38.4504 11.0367 38.4955 11.219C38.5691 11.5167 38.8357 11.7156 39.129 11.7156Z" fill="white"/>
<defs>
<linearGradient id="paint0_linear_636_12395" x1="15.5619" y1="17.9532" x2="31.5078" y2="17.9532" gradientUnits="userSpaceOnUse">
<stop stop-color="#90053E"/>
<stop offset="0.4375" stop-color="#E21EAD"/>
<stop offset="1" stop-color="#90033F"/>
</linearGradient>
<clipPath id="clip0_636_12395">
<rect width="33" height="33" fill="white"/>
</clipPath>
</defs>
</svg>
