<svg width="34" height="23" viewBox="0 0 34 23" fill="none" xmlns="http://www.w3.org/2000/svg">
<path d="M11.9681 5.21289H11.0604V5.68402H11.9681C12.0599 5.68402 12.1346 5.7587 12.1346 5.85049V6.5481C12.1346 6.70002 12.0917 6.84854 12.0108 6.97763C11.7798 7.34575 11.3026 7.89143 10.5836 8.17508C10.3784 8.44359 10.1161 8.6659 9.81482 8.82428C10.4148 8.78234 10.9968 8.58305 11.482 8.23008C11.9368 7.89917 12.2376 7.50251 12.4098 7.22803C12.538 7.02383 12.6057 6.78871 12.6057 6.5481V5.85049C12.6057 5.49891 12.3197 5.21289 11.9681 5.21289Z" fill="#FFEB7E"/>
<path d="M11.368 5.57158V5.32532C11.368 5.26322 11.4184 5.21289 11.4805 5.21289H11.0635V5.68402H11.4805C11.4184 5.684 11.368 5.63367 11.368 5.57158Z" fill="#FFE559"/>
<path d="M10.7277 8.36455C10.8387 8.24767 10.9668 8.14796 11.1109 8.07577C11.7074 7.77691 12.1104 7.30617 12.3168 6.97722C12.3978 6.84813 12.4406 6.69961 12.4406 6.54769V5.85006C12.4406 5.75813 12.3661 5.68359 12.2741 5.68359H11.9696C12.0613 5.68359 12.136 5.75827 12.136 5.85006V6.54768C12.136 6.69959 12.0932 6.84811 12.0122 6.97721C11.7812 7.34532 11.3041 7.891 10.585 8.17466C10.3799 8.44316 10.1176 8.66547 9.81628 8.82385C9.95006 8.8145 10.0829 8.79688 10.214 8.77192C10.4041 8.66061 10.577 8.5233 10.7277 8.36455Z" fill="#FFE559"/>
<path d="M7.32363 8.17508C6.60455 7.89141 6.12741 7.34575 5.89644 6.97763C5.81544 6.84854 5.77264 6.70002 5.77264 6.5481V5.85049C5.77264 5.7587 5.84732 5.68402 5.93911 5.68402H6.84677V5.21289H5.93911C5.58755 5.21289 5.30151 5.49891 5.30151 5.85049V6.5481C5.30151 6.78871 5.36924 7.02383 5.49738 7.22803C5.6696 7.50251 5.97039 7.89917 6.42524 8.23008C6.91043 8.58305 7.49245 8.78234 8.09238 8.82428C7.7911 8.6659 7.52878 8.44357 7.32363 8.17508Z" fill="#FFEB7E"/>
<path d="M6.72981 8.23008C6.27494 7.89917 5.97417 7.50251 5.80195 7.22803C5.67381 7.02383 5.60608 6.78871 5.60608 6.5481V5.85049C5.60608 5.49893 5.89212 5.21289 6.24368 5.21289H5.93911C5.58755 5.21289 5.30151 5.49891 5.30151 5.85049V6.5481C5.30151 6.78871 5.36924 7.02383 5.49738 7.22803C5.6696 7.50251 5.97039 7.89917 6.42524 8.23008C6.91043 8.58305 7.49245 8.78234 8.09238 8.82428C8.06087 8.80771 8.02988 8.79029 7.99925 8.77234C7.54236 8.68537 7.10682 8.50434 6.72981 8.23008Z" fill="#FFE559"/>
<path d="M9.31077 9.80669V8.9834C9.07423 9.03613 8.83054 9.03613 8.59399 8.9834V9.80669H9.31077Z" fill="#FBC700"/>
<path d="M8.96451 9.02278C8.8404 9.0237 8.71625 9.01065 8.59399 8.9834V9.80669H8.96451V9.02278Z" fill="#EAB900"/>
<path d="M9.95329 10.5225V10.2981C9.95329 10.0155 9.722 9.78418 9.43932 9.78418H8.4738C8.19112 9.78418 7.95984 10.0155 7.95984 10.2981V10.5225H9.95329Z" fill="#FFEB7E"/>
<path d="M9.11213 9.78418H8.4738C8.19112 9.78418 7.95984 10.0155 7.95984 10.2981V10.5225H8.59816V10.2981C8.59816 10.0155 8.82944 9.78418 9.11213 9.78418Z" fill="#FFE559"/>
<path d="M11.0727 5.16321H6.83237C6.8257 5.16321 6.81912 5.16281 6.81262 5.16211V6.76448C6.81262 7.77285 7.45415 8.63133 8.35133 8.95417C8.74041 9.09417 9.16468 9.09417 9.55376 8.95417C10.4509 8.63135 11.0925 7.77287 11.0925 6.76448V5.16211C11.086 5.16281 11.0794 5.16321 11.0727 5.16321Z" fill="#FFD500"/>
<path d="M9.34805 8.95417C8.45088 8.63135 7.80934 7.77287 7.80934 6.76448V5.16321H6.83237C6.8257 5.16321 6.81912 5.16281 6.81262 5.16211V6.76448C6.81262 7.77285 7.45415 8.63133 8.35133 8.95417C8.70641 9.08194 9.09071 9.09271 9.45091 8.98728C9.41642 8.97717 9.38206 8.9664 9.34805 8.95417Z" fill="#FBC700"/>
<path d="M11.0776 4.7373H6.83729C6.73636 4.7373 6.65454 4.81913 6.65454 4.92005V5.02945C6.65454 5.13037 6.73636 5.21219 6.83729 5.21219H11.0777C11.1786 5.21219 11.2604 5.13037 11.2604 5.02945V4.92005C11.2604 4.81913 11.1786 4.7373 11.0776 4.7373Z" fill="#FFEB7E"/>
<path d="M7.60578 5.02945V4.92005C7.60578 4.81913 7.6876 4.7373 7.78852 4.7373H6.83729C6.73636 4.7373 6.65454 4.81913 6.65454 4.92005V5.02945C6.65454 5.13037 6.73636 5.21219 6.83729 5.21219H7.78852C7.6876 5.21219 7.60578 5.13037 7.60578 5.02945Z" fill="#FFE559"/>
<path d="M10.3467 12.348V10.6789C10.3467 10.5649 10.2534 10.4717 10.1394 10.4717H7.76963C7.65564 10.4717 7.56238 10.5649 7.56238 10.6789V12.348L10.3467 12.348Z" fill="#DD8858"/>
<path d="M8.52063 10.4717H7.76965C7.65565 10.4717 7.56238 10.5649 7.56238 10.6789V12.348H8.31335V10.6789C8.31337 10.5649 8.40665 10.4717 8.52063 10.4717Z" fill="#CB6C35"/>
<path d="M9.4801 11.306H8.42215C8.35303 11.306 8.297 11.2499 8.297 11.1808C8.297 11.1117 8.35303 11.0557 8.42215 11.0557H9.4801C9.54922 11.0557 9.60525 11.1117 9.60525 11.1808C9.60525 11.2499 9.54922 11.306 9.4801 11.306Z" fill="#CB6C35"/>
<path d="M9.4801 11.7738H8.42215C8.35303 11.7738 8.297 11.7177 8.297 11.6486C8.297 11.5795 8.35303 11.5234 8.42215 11.5234H9.4801C9.54922 11.5234 9.60525 11.5795 9.60525 11.6486C9.60525 11.7177 9.54922 11.7738 9.4801 11.7738Z" fill="#CB6C35"/>
<path d="M10.5407 12.3164H8.01856C7.92768 12.3538 7.86365 12.4432 7.86365 12.5475V12.8021C7.86365 12.9064 7.92768 12.9958 8.01856 13.0332H10.5407C10.6718 13.0332 10.7781 12.9269 10.7781 12.7957V12.5539C10.7781 12.4227 10.6718 12.3164 10.5407 12.3164Z" fill="#E39B74"/>
<path d="M7.87474 12.7957V12.5539C7.87474 12.4227 7.98107 12.3164 8.11222 12.3164H7.36126C7.2301 12.3164 7.12378 12.4227 7.12378 12.5539V12.7957C7.12378 12.9269 7.23011 13.0332 7.36126 13.0332H8.11224C7.98107 13.0332 7.87474 12.9269 7.87474 12.7957Z" fill="#DD8858"/>
<path d="M6.71687 13.3577V16.2337C6.71687 16.4301 6.8776 16.5908 7.07399 16.5908H11.1573C11.3537 16.5908 11.5144 16.4301 11.5144 16.2337V13.3578L6.71687 13.3577Z" fill="#DD8858"/>
<path d="M9.86326 16.5908H11.1573C11.3537 16.5908 11.5144 16.4301 11.5144 16.2337V13.3578H10.2204V16.2337C10.2204 16.4301 10.0597 16.5908 9.86326 16.5908Z" fill="#CB6C35"/>
<path d="M8.20752 15.1527H10.0304C10.1495 15.1527 10.2461 15.2492 10.2461 15.3683C10.2461 15.4874 10.1495 15.584 10.0304 15.584H8.20752C8.08841 15.584 7.99186 15.4874 7.99186 15.3683C7.99186 15.2492 8.08841 15.1527 8.20752 15.1527Z" fill="#CB6C35"/>
<path d="M8.20752 14.347H10.0304C10.1495 14.347 10.2461 14.4436 10.2461 14.5627C10.2461 14.6818 10.1495 14.7783 10.0304 14.7783H8.20752C8.08841 14.7783 7.99186 14.6818 7.99186 14.5627C7.99186 14.4436 8.08841 14.347 8.20752 14.347Z" fill="#CB6C35"/>
<path d="M6.38374 13.4121H10.7295C10.8861 13.3476 10.9965 13.1937 10.9965 13.0138V12.5753C10.9965 12.3955 10.8861 12.2415 10.7295 12.177H6.38374C6.15773 12.177 5.97453 12.3603 5.97453 12.5862V13.0029C5.97453 13.2289 6.15776 13.4121 6.38374 13.4121Z" fill="#E39B74"/>
<path d="M10.9762 12.5862V13.0029C10.9762 13.2289 10.793 13.4121 10.567 13.4121H11.8609C12.0869 13.4121 12.2701 13.2289 12.2701 13.0029V12.5862C12.2701 12.3603 12.0869 12.177 11.8609 12.177H10.5669C10.793 12.177 10.9762 12.3603 10.9762 12.5862Z" fill="#DD8858"/>
<path d="M5.76569 16.513V20.4809C5.76569 20.7519 5.98744 20.9736 6.25841 20.9736H11.8921C12.1631 20.9736 12.3848 20.7519 12.3848 20.4809V16.513L5.76569 16.513Z" fill="#DD8858"/>
<path d="M10.1067 20.9736H11.892C12.163 20.9736 12.3848 20.7519 12.3848 20.4809V16.513H10.5995V20.4809C10.5994 20.7519 10.3777 20.9736 10.1067 20.9736Z" fill="#CB6C35"/>
<path d="M7.81766 18.9909H10.3327C10.497 18.9909 10.6302 19.1241 10.6302 19.2884C10.6302 19.4527 10.497 19.5859 10.3327 19.5859H7.81766C7.65333 19.5859 7.52012 19.4527 7.52012 19.2884C7.52012 19.1241 7.65333 18.9909 7.81766 18.9909Z" fill="#CB6C35"/>
<path d="M7.81766 17.8766H10.3327C10.497 17.8766 10.6302 18.0098 10.6302 18.1741C10.6302 18.3385 10.497 18.4717 10.3327 18.4717H7.81766C7.65333 18.4717 7.52012 18.3385 7.52012 18.1741C7.52012 18.0098 7.65333 17.8766 7.81766 17.8766Z" fill="#CB6C35"/>
<path d="M5.30193 16.5869H11.2977C11.5138 16.498 11.666 16.2856 11.666 16.0374V15.4324C11.666 15.1843 11.5138 14.9719 11.2977 14.8829H5.30193C4.9901 14.8829 4.73735 15.1357 4.73735 15.4475V16.0223C4.73735 16.3342 4.99014 16.5869 5.30193 16.5869Z" fill="#E39B74"/>
<path d="M11.6406 15.4475V16.0223C11.6406 16.3342 11.3879 16.5869 11.0761 16.5869H12.8613C13.1732 16.5869 13.4259 16.3341 13.4259 16.0223V15.4475C13.4259 15.1357 13.1731 14.8829 12.8613 14.8829H11.076C11.3879 14.8829 11.6406 15.1357 11.6406 15.4475Z" fill="#DD8858"/>
<path d="M31.6136 6.08789H21.1474C20.6039 6.08789 20.1616 6.50121 20.1616 7.00921V8.47787C20.1616 8.72855 20.379 8.93167 20.6472 8.93167C20.9154 8.93167 21.1327 8.72855 21.1327 8.47787V7.00921C21.1327 7.00165 21.1393 6.99548 21.1474 6.99548H23.3417V8.47787C23.3417 8.72855 23.5591 8.93167 23.8273 8.93167C24.0955 8.93167 24.3128 8.72855 24.3128 8.47787V6.99548H28.5209V8.47787C28.5209 8.72855 28.7382 8.93167 29.0064 8.93167C29.2746 8.93167 29.4919 8.72855 29.4919 8.47787V6.99548H31.6136C31.6217 6.99548 31.6283 7.00165 31.6283 7.00921V8.47787C31.6283 8.72855 31.8457 8.93167 32.1139 8.93167C32.3821 8.93167 32.5994 8.72855 32.5994 8.47787V7.00921C32.5994 6.50121 32.1572 6.08789 31.6136 6.08789Z" fill="#FFEB7E"/>
<path d="M2.60723 6.08789H0.985781C0.442232 6.08789 0 6.50121 0 7.00921V8.47787C0 8.72855 0.217329 8.93167 0.485543 8.93167C0.753756 8.93167 0.971085 8.72855 0.971085 8.47787V7.00921C0.971085 7.00165 0.977689 6.99548 0.985781 6.99548H2.6073C2.61539 6.99548 2.622 7.00165 2.622 7.00921V8.47787C2.622 8.72855 2.83932 8.93167 3.10754 8.93167C3.37575 8.93167 3.59308 8.72855 3.59308 8.47787V7.00921C3.59302 6.50121 3.15078 6.08789 2.60723 6.08789Z" fill="#FFEB7E"/>
<path d="M7.25073 19.1269C13.8046 19.1269 19.1737 14.3863 19.6468 8.37391C19.6851 7.88635 20.1208 7.50977 20.6439 7.50977H30.0389C30.0389 13.9257 25.5096 20.095 18.6448 20.095L7.25073 19.1269Z" fill="#978ECB"/>
<path d="M28.8747 9.18412C28.0057 14.8061 22.8292 19.1256 16.5732 19.1256C10.3172 19.1256 5.14073 14.8061 4.27168 9.18412L2.07165 8.47656L0 9.18412V22.063C0 22.5793 0.447865 22.998 1.00041 22.998H32.146C32.6985 22.998 33.1465 22.5794 33.1465 22.063V9.18412L31.0748 8.47656L28.8747 9.18412Z" fill="#C2BCE0"/>
<path d="M4.17677 8.36901C4.13877 7.88333 3.70107 7.50977 3.18005 7.50977H0.323695C0.144951 7.50977 0 7.64524 0 7.8123V9.18542H4.27168C4.23011 8.91616 4.19826 8.64395 4.17677 8.36901Z" fill="#6E61B6"/>
<path d="M32.8243 7.50977H29.968C29.447 7.50977 29.0093 7.88339 28.9713 8.36901C28.9498 8.64389 28.918 8.91616 28.8763 9.18542H33.148V7.8123C33.148 7.64524 33.0031 7.50977 32.8243 7.50977Z" fill="#6E61B6"/>
<path d="M31.0747 8.47656L30.4787 8.66825V17.0764C30.4787 19.6584 28.2392 21.7514 25.4767 21.7514H0V22.063C0 22.5794 0.447865 22.998 1.00041 22.998H32.146C32.6985 22.998 33.1465 22.5794 33.1465 22.063V9.18412L31.0747 8.47656Z" fill="#ACA6D6"/>
<path d="M30.4777 7.50977V9.18542H33.1454V7.8123C33.1454 7.64524 33.0004 7.50977 32.8217 7.50977H30.4777Z" fill="#6354B1"/>
<path d="M26.9319 10.8715H21.7528C21.4845 10.8715 21.2672 10.6683 21.2672 10.4177C21.2672 10.167 21.4845 9.96387 21.7528 9.96387H26.9319C27.2001 9.96387 27.4174 10.167 27.4174 10.4177C27.4174 10.6683 27.2001 10.8715 26.9319 10.8715Z" fill="#8379C1"/>
<path d="M27.7537 1.14052L27.2723 1.22598L27.0525 0.743377C27.0102 0.650482 26.9343 0.576196 26.8392 0.534513C26.7441 0.49283 26.6362 0.486627 26.536 0.517072C26.4358 0.547518 26.3501 0.612509 26.2951 0.699806C26.2401 0.787102 26.2196 0.890676 26.2374 0.991015L26.3926 1.86513L25.8367 2.92977L26.4843 3.78075L26.9242 3.46117L27.1563 1.97104C27.2965 1.94621 27.4255 1.87906 27.5251 1.77914C27.6247 1.67921 27.6897 1.55157 27.7111 1.41433L27.7537 1.14052Z" fill="#FFC7CC"/>
<path d="M27.7484 1.13991L27.267 1.22537L27.0473 0.742767C27.0049 0.649873 26.9291 0.575587 26.8339 0.533903C26.7388 0.49222 26.631 0.486017 26.5307 0.516463C26.4305 0.546908 26.3448 0.6119 26.2898 0.699196C26.2348 0.786492 26.2143 0.890066 26.2321 0.990406L26.3873 1.86452L25.8314 2.92916L25.1509 3.29147C25.0958 3.33144 25.05 3.38229 25.0164 3.44064C24.9829 3.499 24.9624 3.56351 24.9563 3.62991C24.9503 3.6963 24.9588 3.76306 24.9813 3.82575C25.0038 3.88844 25.0397 3.94562 25.0868 3.99349L25.3171 4.22791L25.118 4.50475L24.5591 4.75036L24.1967 4.90979L24.3214 5.61212L25.1519 6.17525L25.1682 6.18626L25.4236 6.00085L25.8189 5.71363L26.4877 5.22753L26.0392 4.09971L26.9189 3.46056L27.151 1.97043C27.2912 1.9456 27.4203 1.87845 27.5198 1.77853C27.6194 1.6786 27.6845 1.55096 27.7058 1.41372L27.7484 1.13991Z" fill="#FFC7CC"/>
<path d="M29.3025 5.69361L28.2298 4.96637C28.1422 4.90674 28.0478 4.85686 27.9486 4.81767C27.7053 4.72119 27.4391 4.69069 27.1781 4.72937C26.9171 4.76805 26.671 4.87449 26.4656 5.03747L26.3473 5.13153L25.368 5.9091L25.1689 6.18594C24.9987 6.34433 24.8608 6.53263 24.7627 6.74072C24.7624 6.74107 24.7622 6.74171 24.762 6.74205C24.6138 7.05708 24.5612 7.40614 24.6107 7.7476C24.6601 8.08907 24.8095 8.40853 25.0409 8.66792L25.7507 9.46349L26.3897 8.86707L25.9404 8.27671C25.8485 8.15634 25.787 8.01643 25.7608 7.86817C25.7552 7.83681 25.7512 7.80517 25.7489 7.77338C25.7385 7.6362 25.7581 7.49813 25.8066 7.36836C25.855 7.2386 25.9312 7.1201 26.03 7.02076C26.0389 7.01163 26.0479 7.00279 26.0572 6.99419L26.6962 6.39777L27.0415 5.91779C27.1107 5.82133 27.2138 5.75283 27.331 5.72545C27.4483 5.69807 27.5713 5.71373 27.6766 5.76943L28.6635 6.29002L29.3025 5.69361Z" fill="#FFC7CC"/>
<path d="M27.5873 5.73374C27.4886 5.70461 27.3827 5.70684 27.2848 5.74012C27.1869 5.77339 27.1021 5.83599 27.0425 5.91889L26.6973 6.39886L26.0583 6.99528C26.0489 7.00388 26.04 7.01272 26.031 7.02185C25.9322 7.1212 25.8561 7.23969 25.8076 7.36946C25.7591 7.49923 25.7395 7.63729 25.75 7.77448L24.6581 7.96832C24.5449 7.56192 24.5821 7.12836 24.763 6.74315L24.7637 6.74182C24.8619 6.53372 24.9997 6.34542 25.1699 6.18704L25.369 5.91019L26.4666 5.03857C26.672 4.87559 26.9181 4.76915 27.1791 4.73047C27.4401 4.69178 27.7063 4.72228 27.9497 4.81876L27.5873 5.73374Z" fill="#FFD500"/>
<path d="M26.4791 3.78014L25.8314 2.92916L25.1509 3.29147C25.0958 3.33144 25.05 3.38229 25.0164 3.44064C24.9829 3.499 24.9624 3.56351 24.9563 3.62991C24.9503 3.6963 24.9588 3.76306 24.9813 3.82575C25.0038 3.88844 25.0397 3.94562 25.0868 3.9935L25.3171 4.22791L25.118 4.50475L24.5591 4.75036L24.1967 4.90979L24.3214 5.61212L25.1519 6.17525L25.1682 6.18626L25.4236 6.00085L25.8189 5.71363L26.4877 5.22753L26.0392 4.09971L26.4791 3.78014Z" fill="#FFD500"/>
<path d="M25.119 4.50559L25.3181 4.22875L24.712 3.61188L24.1475 3.22912L23.5916 4.29376L24.1977 4.91063L25.119 4.50559Z" fill="#FFC7CC"/>
<path d="M24.1982 4.91015L23.4262 4.89747C23.2789 4.89505 23.1344 4.85988 23.0038 4.79464C22.8732 4.72941 22.7599 4.63582 22.6725 4.52103C22.5629 4.37704 22.4983 4.20508 22.4862 4.0255C22.4741 3.84593 22.5151 3.66624 22.6043 3.5077C22.7266 3.29046 22.9304 3.12729 23.1726 3.05276C23.4148 2.97823 23.6763 2.99818 23.9019 3.10839L24.148 3.22865L23.5921 4.29329L24.1982 4.91015Z" fill="#FFD500"/>
<path d="M25.7478 8.94367L29.1561 5.616C29.2982 5.47728 29.4895 5.3973 29.6897 5.39296C29.8899 5.38862 30.0832 5.46026 30.2288 5.59274C30.3354 5.6897 30.416 5.81062 30.4637 5.94514C30.5115 6.07965 30.5249 6.22375 30.5029 6.36508C30.4739 6.55152 30.3845 6.7246 30.2479 6.85905L27.6068 9.45785C27.1303 9.92668 26.4896 10.202 25.8159 10.2273C25.7385 10.2303 25.6617 10.2152 25.5918 10.1835C25.5219 10.1517 25.4609 10.1042 25.4139 10.0448C25.3668 9.98532 25.335 9.91571 25.3211 9.84165C25.3072 9.76759 25.3116 9.69121 25.334 9.61879C25.4125 9.36426 25.5547 9.13221 25.7478 8.94367Z" fill="#FF6F35"/>
<path d="M29.8285 7.29157C30.0944 7.24437 30.3471 7.41574 30.393 7.67433C30.4389 7.93292 30.2606 8.18081 29.9947 8.22801C29.7288 8.27521 29.4761 8.10385 29.4302 7.84526C29.3843 7.58666 29.5626 7.33877 29.8285 7.29157Z" fill="#808080"/>
<path d="M27.7029 9.31794C27.9687 9.27074 28.2215 9.4421 28.2674 9.70069C28.3133 9.95929 28.135 10.2072 27.8691 10.2544C27.6032 10.3016 27.3505 10.1302 27.3046 9.87162C27.2587 9.61303 27.437 9.36514 27.7029 9.31794Z" fill="#808080"/>
<path d="M27.6618 9.08042C27.519 9.10578 27.3867 9.17175 27.2817 9.27001C27.1766 9.36826 27.1035 9.49438 27.0717 9.63242C27.0398 9.77046 27.0506 9.91421 27.1026 10.0455C27.1547 10.1768 27.2456 10.2897 27.3641 10.37C27.4825 10.4503 27.623 10.4944 27.7679 10.4966C27.9128 10.4988 28.0556 10.4591 28.1781 10.3826C28.3006 10.306 28.3974 10.1959 28.4562 10.0664C28.5151 9.93677 28.5333 9.79347 28.5087 9.65456C28.4754 9.46839 28.3675 9.30339 28.2088 9.19576C28.05 9.08812 27.8533 9.04664 27.6618 9.08042ZM27.8281 10.0169C27.7805 10.0253 27.7315 10.0198 27.6874 10.0011C27.6432 9.98245 27.6059 9.95137 27.58 9.91182C27.5542 9.87228 27.5411 9.82605 27.5423 9.77899C27.5436 9.73193 27.5591 9.68614 27.5869 9.64743C27.6148 9.60871 27.6537 9.5788 27.6988 9.56148C27.7439 9.54415 27.7931 9.5402 27.8402 9.55011C27.8874 9.56002 27.9303 9.58335 27.9636 9.61716C27.9969 9.65096 28.019 9.69372 28.0272 9.74002C28.0382 9.8021 28.0234 9.86611 27.986 9.91801C27.9487 9.96991 27.8919 10.0055 27.8281 10.0169Z" fill="#4D4D4D"/>
<path d="M29.7873 7.05698C29.6445 7.08234 29.5122 7.14831 29.4072 7.24657C29.3021 7.34482 29.229 7.47094 29.1971 7.60898C29.1653 7.74702 29.176 7.89077 29.2281 8.02207C29.2801 8.15336 29.3711 8.26629 29.4896 8.34659C29.608 8.42688 29.7485 8.47093 29.8934 8.47316C30.0383 8.47539 30.181 8.43571 30.3036 8.35913C30.4261 8.28254 30.5229 8.1725 30.5817 8.04292C30.6406 7.91333 30.6588 7.77003 30.6341 7.63112C30.6009 7.44495 30.493 7.27995 30.3343 7.17232C30.1755 7.06468 29.9788 7.02321 29.7873 7.05698ZM29.9536 7.99343C29.906 8.00188 29.857 7.99641 29.8128 7.97771C29.7687 7.95901 29.7314 7.92793 29.7055 7.88838C29.6797 7.84884 29.6666 7.80262 29.6678 7.75555C29.6691 7.70849 29.6846 7.66271 29.7124 7.62399C29.7403 7.58527 29.7792 7.55536 29.8243 7.53804C29.8694 7.52072 29.9186 7.51676 29.9657 7.52667C30.0129 7.53658 30.0558 7.55992 30.0891 7.59372C30.1224 7.62752 30.1445 7.67028 30.1527 7.71658C30.1637 7.77866 30.1489 7.84268 30.1115 7.89458C30.0742 7.94648 30.0174 7.98203 29.9536 7.99343Z" fill="#4D4D4D"/>
<path d="M26.4 8.71582L27.6127 9.94938L27.9671 9.61841L26.7544 8.38485L26.4 8.71582Z" fill="#808080"/>
<path d="M28.5419 6.7373L29.7401 7.92984L30.0909 7.59517L28.8926 6.40263L28.5419 6.7373Z" fill="#808080"/>
<path d="M26.4952 8.08552C26.7611 8.03831 27.0139 8.20968 27.0598 8.46827C27.1057 8.72686 26.9273 8.97476 26.6615 9.02196C26.3956 9.06916 26.1428 8.89779 26.0969 8.6392C26.051 8.38061 26.2293 8.13272 26.4952 8.08552Z" fill="#808080"/>
<path d="M28.6313 6.10212C28.8972 6.05492 29.15 6.22628 29.1959 6.48487C29.2418 6.74347 29.0635 6.99136 28.7976 7.03856C28.5317 7.08576 28.2789 6.91439 28.233 6.6558C28.1871 6.39721 28.3655 6.14932 28.6313 6.10212Z" fill="#808080"/>
<path d="M26.4488 7.84605C26.306 7.8714 26.1737 7.93738 26.0687 8.03563C25.9636 8.13389 25.8905 8.26001 25.8586 8.39804C25.8268 8.53608 25.8375 8.67984 25.8896 8.81113C25.9416 8.94242 26.0326 9.05536 26.1511 9.13565C26.2695 9.21594 26.41 9.25999 26.5549 9.26222C26.6998 9.26446 26.8425 9.22477 26.9651 9.14819C27.0876 9.07161 27.1844 8.96157 27.2432 8.83198C27.3021 8.7024 27.3203 8.55909 27.2956 8.42018C27.2624 8.23401 27.1545 8.06902 26.9958 7.96138C26.837 7.85375 26.6403 7.81227 26.4488 7.84605ZM26.6151 8.78249C26.5675 8.79094 26.5185 8.78547 26.4743 8.76677C26.4302 8.74808 26.3928 8.71699 26.367 8.67745C26.3412 8.6379 26.3281 8.59168 26.3293 8.54462C26.3306 8.49755 26.3461 8.45177 26.3739 8.41305C26.4018 8.37434 26.4407 8.34442 26.4858 8.3271C26.5309 8.30978 26.5801 8.30582 26.6272 8.31573C26.6744 8.32565 26.7173 8.34898 26.7506 8.38278C26.7839 8.41659 26.806 8.45934 26.8142 8.50565C26.8252 8.56773 26.8104 8.63174 26.773 8.68364C26.7357 8.73554 26.6789 8.77109 26.6151 8.78249Z" fill="#4D4D4D"/>
<path d="M28.5851 5.86558C28.4422 5.89093 28.3099 5.95691 28.2049 6.05516C28.0998 6.15342 28.0268 6.27954 27.9949 6.41758C27.963 6.55561 27.9738 6.69937 28.0258 6.83066C28.0779 6.96195 28.1689 7.07489 28.2873 7.15518C28.4057 7.23548 28.5463 7.27952 28.6912 7.28176C28.836 7.28399 28.9788 7.2443 29.1013 7.16772C29.2238 7.09114 29.3206 6.9811 29.3794 6.85151C29.4383 6.72193 29.4565 6.57862 29.4319 6.43971C29.3986 6.25355 29.2908 6.08855 29.132 5.98091C28.9733 5.87328 28.7766 5.8318 28.5851 5.86558ZM28.7513 6.80202C28.7037 6.81047 28.6547 6.805 28.6106 6.78631C28.5664 6.76761 28.5291 6.73652 28.5033 6.69698C28.4775 6.65743 28.4643 6.61121 28.4656 6.56415C28.4668 6.51709 28.4823 6.4713 28.5102 6.43258C28.538 6.39387 28.5769 6.36396 28.622 6.34663C28.6671 6.32931 28.7163 6.32536 28.7635 6.33527C28.8106 6.34518 28.8535 6.36851 28.8868 6.40231C28.9201 6.43612 28.9422 6.47887 28.9505 6.52518C28.9614 6.58726 28.9466 6.65127 28.9092 6.70317C28.8719 6.75507 28.8151 6.79062 28.7513 6.80202Z" fill="#4D4D4D"/>
<path d="M27.5772 7.02296L27.2204 6.54837L25.3692 5.91105L24.8083 5.02777C24.7516 4.93862 24.668 4.86885 24.5688 4.82789C24.4696 4.78692 24.3596 4.77674 24.2537 4.79871C24.1477 4.82067 24.0509 4.87374 23.9764 4.95073C23.9019 5.02772 23.8532 5.12492 23.8369 5.22919L23.833 5.25434C23.8226 5.32116 23.8258 5.3892 23.8424 5.45457C23.859 5.51994 23.8887 5.58135 23.9298 5.6353L24.7718 6.74158L26.5814 7.14479L26.7389 7.49717C26.7661 7.55792 26.8061 7.61229 26.8565 7.65673C26.9068 7.70116 26.9663 7.73468 27.0311 7.75507C27.0958 7.77547 27.1644 7.78229 27.2323 7.7751C27.3002 7.76791 27.366 7.74686 27.4252 7.71333C27.4845 7.6798 27.536 7.63454 27.5763 7.58051C27.6166 7.52647 27.6448 7.46487 27.6592 7.39973C27.6735 7.33459 27.6736 7.26736 27.6595 7.20244C27.6454 7.13752 27.6173 7.07636 27.5772 7.02296Z" fill="#FFC7CC"/>
<path d="M25.8195 5.71484L25.7841 5.65742L25.4231 5.08911L25.0069 5.34231L25.367 5.90927L25.4241 6.00206L25.8195 5.71484Z" fill="#FBC700"/>
<path d="M25.3663 5.90963L24.8054 5.02634C24.7487 4.9372 24.6651 4.86743 24.5659 4.82647C24.4667 4.7855 24.3567 4.77531 24.2508 4.79728C24.1448 4.81925 24.048 4.87232 23.9735 4.9493C23.899 5.02629 23.8503 5.12349 23.834 5.22777L23.8301 5.25291C23.8197 5.31974 23.8229 5.38778 23.8395 5.45315C23.8561 5.51851 23.8858 5.57993 23.9269 5.63388L24.5746 6.48486L25.3663 5.90963Z" fill="#FFD500"/>
<path d="M23.7841 3.34494C23.7712 3.37536 23.7361 3.38965 23.7057 3.37682C23.6752 3.36398 23.661 3.32889 23.6738 3.29847C23.6867 3.26801 23.7217 3.25374 23.7522 3.26658C23.7826 3.27941 23.7969 3.31448 23.7841 3.34494ZM23.7074 3.52683C23.6945 3.55729 23.6594 3.57154 23.629 3.55871C23.5986 3.54587 23.5843 3.51082 23.5971 3.48036C23.61 3.44994 23.645 3.43563 23.6755 3.44848C23.7059 3.4613 23.7202 3.49641 23.7074 3.52683ZM23.4719 3.32047C23.4304 3.4189 23.4766 3.53232 23.575 3.57382C23.6355 3.59933 23.7017 3.59168 23.7533 3.55919L23.7918 3.57542C23.8106 3.58333 23.8323 3.57455 23.8402 3.55578C23.8481 3.53701 23.8393 3.51537 23.8205 3.50745C23.8393 3.51537 23.8609 3.50659 23.8688 3.48781C23.8728 3.47841 23.8726 3.4683 23.869 3.45957C23.8654 3.45081 23.8586 3.44341 23.8491 3.43945C23.8679 3.44736 23.8896 3.43858 23.8975 3.41981C23.9054 3.40103 23.8966 3.37939 23.8778 3.37148L23.8393 3.35525C23.8265 3.29557 23.7858 3.24288 23.7253 3.21737C23.6269 3.17588 23.5134 3.22201 23.4719 3.32047Z" fill="white"/>
</svg>
