<svg width="24" height="23" viewBox="0 0 24 23" fill="none" xmlns="http://www.w3.org/2000/svg">
<path d="M23.0973 15.1681H21.5806C21.5073 15.1681 21.437 15.139 21.3852 15.0871C21.3333 15.0353 21.3042 14.965 21.3042 14.8917C21.3042 14.8184 21.3333 14.748 21.3852 14.6962C21.437 14.6444 21.5073 14.6152 21.5806 14.6152H23.0973C23.1706 14.6152 23.2409 14.6444 23.2928 14.6962C23.3446 14.748 23.3737 14.8184 23.3737 14.8917C23.3737 14.965 23.3446 15.0353 23.2928 15.0871C23.2409 15.139 23.1706 15.1681 23.0973 15.1681Z" fill="#004E7A"/>
<path d="M1.85463 15.1681H0.337953C0.264639 15.1681 0.194328 15.139 0.142488 15.0871C0.0906472 15.0353 0.0615234 14.965 0.0615234 14.8917C0.0615234 14.8184 0.0906472 14.748 0.142488 14.6962C0.194328 14.6444 0.264639 14.6152 0.337953 14.6152H1.85463C1.92794 14.6152 1.99826 14.6444 2.0501 14.6962C2.10194 14.748 2.13106 14.8184 2.13106 14.8917C2.13106 14.965 2.10194 15.0353 2.0501 15.0871C1.99826 15.139 1.92794 15.1681 1.85463 15.1681Z" fill="#004E7A"/>
<path d="M23.0973 16.6652H21.5806C21.5073 16.6652 21.437 16.636 21.3852 16.5842C21.3333 16.5323 21.3042 16.462 21.3042 16.3887V14.2618C21.3042 14.1885 21.3333 14.1182 21.3852 14.0663C21.437 14.0145 21.5073 13.9854 21.5806 13.9854C21.6539 13.9854 21.7243 14.0145 21.7761 14.0663C21.8279 14.1182 21.8571 14.1885 21.8571 14.2618V16.1123H22.8209V14.2618C22.8209 14.1885 22.85 14.1182 22.9018 14.0663C22.9537 14.0145 23.024 13.9854 23.0973 13.9854C23.1706 13.9854 23.2409 14.0145 23.2928 14.0663C23.3446 14.1182 23.3737 14.1885 23.3737 14.2618V16.3887C23.3737 16.462 23.3446 16.5323 23.2928 16.5842C23.2409 16.636 23.1706 16.6652 23.0973 16.6652Z" fill="#128EB7"/>
<path d="M1.85463 16.6652H0.337953C0.264639 16.6652 0.194328 16.636 0.142488 16.5842C0.0906472 16.5323 0.0615234 16.462 0.0615234 16.3887V14.2618C0.0615234 14.1885 0.0906472 14.1182 0.142488 14.0663C0.194328 14.0145 0.264639 13.9854 0.337953 13.9854C0.411267 13.9854 0.481578 14.0145 0.533419 14.0663C0.585259 14.1182 0.614383 14.1885 0.614383 14.2618V16.1123H1.5782V14.2618C1.5782 14.1885 1.60733 14.1182 1.65917 14.0663C1.71101 14.0145 1.78132 13.9854 1.85463 13.9854C1.92794 13.9854 1.99826 14.0145 2.0501 14.0663C2.10194 14.1182 2.13106 14.1885 2.13106 14.2618V16.3887C2.13106 16.462 2.10194 16.5323 2.0501 16.5842C1.99826 16.636 1.92794 16.6652 1.85463 16.6652Z" fill="#128EB7"/>
<path d="M22.5905 23H0.844741C0.63709 22.9998 0.43801 22.9172 0.291178 22.7704C0.144347 22.6235 0.0617551 22.4244 0.0615234 22.2168V16.3887C0.0615234 16.3154 0.0906472 16.2451 0.142488 16.1933C0.194328 16.1414 0.264639 16.1123 0.337953 16.1123H1.85463C1.91617 16.1123 1.97595 16.1328 2.02451 16.1706C2.07306 16.2085 2.10761 16.2614 2.12268 16.3211C2.48941 17.7785 3.33254 19.0716 4.51817 19.9951C5.70381 20.9185 7.16398 21.4195 8.66683 21.4182H14.7685C16.2713 21.4195 17.7315 20.9186 18.9171 19.9951C20.1027 19.0716 20.9459 17.7785 21.3126 16.3211C21.3277 16.2614 21.3622 16.2085 21.4108 16.1707C21.4593 16.1328 21.5191 16.1123 21.5807 16.1123H23.0973C23.1707 16.1123 23.241 16.1414 23.2928 16.1933C23.3446 16.2451 23.3738 16.3154 23.3738 16.3887V22.2168C23.3735 22.4244 23.2909 22.6235 23.1441 22.7704C22.9973 22.9172 22.7982 22.9998 22.5905 23Z" fill="#FF7687"/>
<path d="M13.2649 20.5926H10.1706C9.91996 20.5933 9.67164 20.5442 9.44005 20.4483C9.20846 20.3524 8.99819 20.2115 8.82142 20.0338C8.77028 19.9818 8.74176 19.9117 8.74207 19.8387C8.74237 19.7658 8.77148 19.696 8.82305 19.6444C8.87462 19.5929 8.94448 19.5638 9.0174 19.5635C9.09033 19.5632 9.16041 19.5917 9.21239 19.6429C9.33795 19.7691 9.48729 19.8692 9.65178 19.9373C9.81627 20.0054 9.99264 20.0402 10.1707 20.0397H13.2649C13.443 20.0402 13.6193 20.0054 13.7838 19.9373C13.9483 19.8692 14.0977 19.7691 14.2232 19.6429C14.2752 19.5917 14.3453 19.5632 14.4182 19.5635C14.4911 19.5638 14.561 19.5929 14.6126 19.6444C14.6641 19.696 14.6932 19.7658 14.6935 19.8387C14.6939 19.9117 14.6653 19.9818 14.6142 20.0338C14.4374 20.2115 14.2271 20.3524 13.9955 20.4483C13.7639 20.5443 13.5156 20.5933 13.2649 20.5926Z" fill="#FF3558"/>
<path d="M10.1974 21.434C10.4073 21.434 10.5774 21.2638 10.5774 21.0539C10.5774 20.844 10.4073 20.6738 10.1974 20.6738C9.98743 20.6738 9.81726 20.844 9.81726 21.0539C9.81726 21.2638 9.98743 21.434 10.1974 21.434Z" fill="#683762"/>
<path d="M13.238 21.434C13.4479 21.434 13.6181 21.2638 13.6181 21.0539C13.6181 20.844 13.4479 20.6738 13.238 20.6738C13.0281 20.6738 12.8579 20.844 12.8579 21.0539C12.8579 21.2638 13.0281 21.434 13.238 21.434Z" fill="#683762"/>
<path d="M8.05743 2.6546C7.92147 2.02918 7.83573 1.57118 7.81601 1.36496C7.74036 0.574052 7.15576 0 6.42598 0C5.69621 0 5.11161 0.574052 5.03596 1.36496C5.01619 1.5715 4.93045 2.02945 4.79454 2.6546C4.69553 3.10988 4.72709 3.74364 5.02075 4.13299C5.43042 4.67627 5.93822 4.75114 6.42594 4.75114C6.91365 4.75114 7.42154 4.67627 7.83112 4.13299C8.12487 3.74364 8.15639 3.10988 8.05743 2.6546Z" fill="#B7B442"/>
<path d="M18.5369 2.6546C18.401 2.02945 18.3152 1.5715 18.2955 1.36496C18.2198 0.574052 17.6352 0 16.9054 0C16.1756 0 15.5911 0.574052 15.5154 1.36496C15.4957 1.57118 15.41 2.02918 15.274 2.6546C15.175 3.10988 15.2065 3.74364 15.5002 4.13299C15.9099 4.67627 16.4177 4.75114 16.9054 4.75114C17.3931 4.75114 17.901 4.67627 18.3106 4.13299C18.6044 3.74364 18.6359 3.10988 18.5369 2.6546Z" fill="#B7B442"/>
<path d="M6.76758 2.55706L6.43126 2.89338C6.43056 2.89408 6.42972 2.89464 6.42881 2.89502C6.42789 2.8954 6.42691 2.8956 6.42592 2.8956C6.42492 2.8956 6.42394 2.8954 6.42302 2.89502C6.42211 2.89464 6.42127 2.89408 6.42057 2.89338L6.08425 2.55706C6.03319 2.50447 5.9638 2.47364 5.89055 2.47101C5.8173 2.46837 5.74587 2.49413 5.69116 2.54292C5.6642 2.56827 5.64261 2.59879 5.62766 2.63265C5.61272 2.66651 5.60473 2.70303 5.60416 2.74004C5.60359 2.77704 5.61046 2.81379 5.62436 2.84809C5.63826 2.8824 5.65891 2.91356 5.68508 2.93973C5.68508 2.93973 5.96068 3.20856 6.08895 3.32443C6.1081 3.34175 6.12341 3.36291 6.13386 3.38653C6.14431 3.41015 6.14968 3.43571 6.14962 3.46154V5.49919C6.14854 5.57247 6.17581 5.64333 6.22573 5.69697C6.27565 5.75062 6.34437 5.78291 6.41753 5.78709C6.45454 5.78824 6.49141 5.78193 6.52593 5.76855C6.56046 5.75517 6.59195 5.73499 6.61853 5.70921C6.64511 5.68342 6.66623 5.65256 6.68066 5.61846C6.69508 5.58435 6.7025 5.54769 6.70248 5.51066V3.46158C6.70245 3.43575 6.70783 3.4102 6.71829 3.38658C6.72875 3.36297 6.74405 3.34181 6.76321 3.32447C6.89147 3.20865 7.16702 2.93982 7.16702 2.93982C7.19319 2.91365 7.21384 2.88249 7.22774 2.84818C7.24164 2.81388 7.24852 2.77714 7.24795 2.74013C7.24738 2.70312 7.23939 2.6666 7.22444 2.63274C7.2095 2.59888 7.1879 2.56837 7.16094 2.54301C7.10625 2.49411 7.03475 2.46827 6.96143 2.47088C6.88811 2.4735 6.81865 2.50438 6.76758 2.55706Z" fill="#683762"/>
<path d="M17.6401 2.54281C17.5854 2.49402 17.514 2.46825 17.4408 2.47089C17.3675 2.47352 17.2981 2.50436 17.2471 2.55695L16.9108 2.89328C16.9094 2.8947 16.9074 2.8955 16.9054 2.8955C16.9034 2.8955 16.9015 2.8947 16.9 2.89328L16.5637 2.55695C16.5127 2.50436 16.4433 2.47352 16.37 2.47089C16.2968 2.46825 16.2254 2.49402 16.1707 2.54281C16.1437 2.56817 16.1221 2.59868 16.1072 2.63254C16.0922 2.6664 16.0842 2.70291 16.0837 2.73992C16.0831 2.77693 16.0899 2.81368 16.1038 2.84798C16.1177 2.88228 16.1384 2.91345 16.1646 2.93963C16.1646 2.93963 16.4402 3.20845 16.5684 3.32428C16.5875 3.34165 16.6028 3.36284 16.6131 3.38648C16.6235 3.41011 16.6289 3.43566 16.6288 3.46148V5.49918C16.6277 5.57245 16.655 5.64331 16.7049 5.69696C16.7548 5.75061 16.8235 5.7829 16.8967 5.78708C16.9337 5.78822 16.9706 5.78192 17.0051 5.76854C17.0396 5.75516 17.0711 5.73498 17.0977 5.70919C17.1243 5.68341 17.1454 5.65255 17.1598 5.61844C17.1742 5.58434 17.1816 5.54768 17.1816 5.51065V3.46148C17.1816 3.43565 17.187 3.4101 17.1974 3.38648C17.2079 3.36286 17.2232 3.3417 17.2424 3.32437C17.3706 3.2085 17.6462 2.93967 17.6462 2.93967C17.6724 2.9135 17.693 2.88233 17.707 2.84803C17.7209 2.81372 17.7277 2.77697 17.7272 2.73995C17.7266 2.70294 17.7186 2.66642 17.7037 2.63255C17.6887 2.59869 17.6671 2.56817 17.6401 2.54281Z" fill="#683762"/>
<path d="M13.4323 13.1865C13.4667 13.1864 13.5004 13.1963 13.5293 13.215C13.5581 13.2338 13.5809 13.2605 13.5947 13.292C14.6372 15.7089 17.5136 16.7336 18.9206 17.1004C18.9415 17.1059 18.9598 17.1188 18.9718 17.1368C18.9839 17.1547 18.989 17.1765 18.9862 17.1979C18.9833 17.2194 18.9728 17.2391 18.9565 17.2533C18.9402 17.2675 18.9192 17.2753 18.8976 17.2752H4.5371C4.51546 17.2753 4.49452 17.2675 4.47821 17.2533C4.4619 17.2391 4.45134 17.2194 4.44852 17.1979C4.44569 17.1765 4.45079 17.1547 4.46286 17.1368C4.47493 17.1188 4.49313 17.1059 4.51406 17.1004C5.92128 16.7337 8.79767 15.709 9.83994 13.292C9.85379 13.2605 9.87654 13.2338 9.90539 13.215C9.93424 13.1963 9.96794 13.1864 10.0023 13.1865H13.4323Z" fill="#FFCB97"/>
<path d="M14.2055 5.55756C14.1322 5.55756 14.0619 5.52844 14.0101 5.47659C13.9582 5.42475 13.9291 5.35444 13.9291 5.28113V3.7041C13.929 3.6583 13.9108 3.61439 13.8784 3.58201C13.846 3.54963 13.8021 3.53142 13.7563 3.53138H9.67895C9.63316 3.53145 9.58927 3.54967 9.5569 3.58205C9.52452 3.61442 9.5063 3.65831 9.50623 3.7041V5.28113C9.50623 5.35444 9.47711 5.42475 9.42526 5.47659C9.37342 5.52844 9.30311 5.55756 9.2298 5.55756C9.15649 5.55756 9.08617 5.52844 9.03433 5.47659C8.98249 5.42475 8.95337 5.35444 8.95337 5.28113V3.7041C8.9536 3.51172 9.03013 3.32728 9.16618 3.19126C9.30222 3.05523 9.48666 2.97872 9.67904 2.97852H13.7564C13.9487 2.97875 14.1332 3.05527 14.2692 3.19129C14.4052 3.32731 14.4817 3.51173 14.482 3.7041V5.28113C14.482 5.35444 14.4528 5.42475 14.401 5.47659C14.3492 5.52844 14.2788 5.55756 14.2055 5.55756Z" fill="#FF7687"/>
<path d="M14.528 4.52063H8.90729C8.83398 4.52063 8.76366 4.49151 8.71182 4.43967C8.65998 4.38783 8.63086 4.31752 8.63086 4.2442C8.63086 4.17089 8.65998 4.10058 8.71182 4.04874C8.76366 3.9969 8.83398 3.96777 8.90729 3.96777H14.528C14.6013 3.96777 14.6717 3.9969 14.7235 4.04874C14.7753 4.10058 14.8045 4.17089 14.8045 4.2442C14.8045 4.31752 14.7753 4.38783 14.7235 4.43967C14.6717 4.49151 14.6013 4.52063 14.528 4.52063Z" fill="#FF7687"/>
<path d="M22.7054 10.4858C22.6321 10.4858 22.5618 10.4567 22.5099 10.4049C22.4581 10.353 22.429 10.2827 22.429 10.2094V8.83795C22.429 8.76464 22.4581 8.69433 22.5099 8.64249C22.5618 8.59065 22.6321 8.56152 22.7054 8.56152C22.7787 8.56152 22.849 8.59065 22.9009 8.64249C22.9527 8.69433 22.9818 8.76464 22.9818 8.83795V10.2096C22.9818 10.2828 22.9526 10.3531 22.9008 10.4049C22.849 10.4567 22.7787 10.4858 22.7054 10.4858Z" fill="#F4731C"/>
<path d="M21.324 10.588C21.2507 10.588 21.1804 10.5589 21.1286 10.5071C21.0767 10.4552 21.0476 10.3849 21.0476 10.3116V9.02057C21.0476 8.94726 21.0767 8.87695 21.1286 8.8251C21.1804 8.77326 21.2507 8.74414 21.324 8.74414C21.3974 8.74414 21.4677 8.77326 21.5195 8.8251C21.5713 8.87695 21.6005 8.94726 21.6005 9.02057V10.3116C21.6005 10.3849 21.5713 10.4552 21.5195 10.5071C21.4677 10.5589 21.3974 10.588 21.324 10.588Z" fill="#F4731C"/>
<path d="M19.9426 10.691C19.8693 10.691 19.7989 10.6619 19.7471 10.61C19.6953 10.5582 19.6661 10.4879 19.6661 10.4146V9.21393C19.6661 9.14062 19.6953 9.07031 19.7471 9.01846C19.7989 8.96662 19.8693 8.9375 19.9426 8.9375C20.0159 8.9375 20.0862 8.96662 20.138 9.01846C20.1899 9.07031 20.219 9.14062 20.219 9.21393V10.4146C20.219 10.4879 20.1899 10.5582 20.138 10.61C20.0862 10.6619 20.0159 10.691 19.9426 10.691Z" fill="#F4731C"/>
<path d="M18.5611 10.7931C18.4878 10.7931 18.4175 10.7639 18.3656 10.7121C18.3138 10.6603 18.2847 10.59 18.2847 10.5166V9.40631C18.2847 9.333 18.3138 9.26269 18.3656 9.21085C18.4175 9.15901 18.4878 9.12988 18.5611 9.12988C18.6344 9.12988 18.7047 9.15901 18.7566 9.21085C18.8084 9.26269 18.8375 9.333 18.8375 9.40631V10.5166C18.8375 10.59 18.8084 10.6603 18.7566 10.7121C18.7047 10.7639 18.6344 10.7931 18.5611 10.7931Z" fill="#F4731C"/>
<path d="M17.1794 10.8959C17.1061 10.8959 17.0358 10.8667 16.9839 10.8149C16.9321 10.763 16.903 10.6927 16.903 10.6194V9.59967C16.903 9.52636 16.9321 9.45605 16.9839 9.40421C17.0358 9.35237 17.1061 9.32324 17.1794 9.32324C17.2527 9.32324 17.323 9.35237 17.3748 9.40421C17.4267 9.45605 17.4558 9.52636 17.4558 9.59967V10.6194C17.4558 10.6927 17.4267 10.763 17.3748 10.8149C17.323 10.8667 17.2527 10.8959 17.1794 10.8959Z" fill="#F4731C"/>
<path d="M15.7979 10.9978C15.7246 10.9978 15.6543 10.9687 15.6024 10.9169C15.5506 10.865 15.5215 10.7947 15.5215 10.7214V9.79205C15.5215 9.71874 15.5506 9.64843 15.6024 9.59659C15.6543 9.54475 15.7246 9.51562 15.7979 9.51562C15.8712 9.51562 15.9415 9.54475 15.9934 9.59659C16.0452 9.64843 16.0743 9.71874 16.0743 9.79205V10.7214C16.0743 10.7947 16.0452 10.865 15.9934 10.9169C15.9415 10.9687 15.8712 10.9978 15.7979 10.9978Z" fill="#F4731C"/>
<path d="M0.725282 10.4858C0.651969 10.4858 0.581658 10.4567 0.529817 10.4049C0.477976 10.353 0.448853 10.2827 0.448853 10.2094V8.83795C0.448853 8.76464 0.477976 8.69433 0.529817 8.64249C0.581658 8.59065 0.651969 8.56152 0.725282 8.56152C0.798596 8.56152 0.868907 8.59065 0.920748 8.64249C0.972588 8.69433 1.00171 8.76464 1.00171 8.83795V10.2096C1.00168 10.2828 0.972535 10.3531 0.920699 10.4049C0.868862 10.4567 0.798572 10.4858 0.725282 10.4858Z" fill="#F4731C"/>
<path d="M2.10675 10.588C2.03344 10.588 1.96313 10.5589 1.91129 10.5071C1.85945 10.4552 1.83032 10.3849 1.83032 10.3116V9.02057C1.83032 8.94726 1.85945 8.87695 1.91129 8.8251C1.96313 8.77326 2.03344 8.74414 2.10675 8.74414C2.18007 8.74414 2.25038 8.77326 2.30222 8.8251C2.35406 8.87695 2.38318 8.94726 2.38318 9.02057V10.3116C2.38318 10.3849 2.35406 10.4552 2.30222 10.5071C2.25038 10.5589 2.18007 10.588 2.10675 10.588Z" fill="#F4731C"/>
<path d="M3.4881 10.691C3.41479 10.691 3.34447 10.6619 3.29263 10.61C3.24079 10.5582 3.21167 10.4879 3.21167 10.4146V9.21393C3.21167 9.14062 3.24079 9.07031 3.29263 9.01846C3.34447 8.96662 3.41479 8.9375 3.4881 8.9375C3.56141 8.9375 3.63172 8.96662 3.68356 9.01846C3.73541 9.07031 3.76453 9.14062 3.76453 9.21393V10.4146C3.76453 10.4879 3.73541 10.5582 3.68356 10.61C3.63172 10.6619 3.56141 10.691 3.4881 10.691Z" fill="#F4731C"/>
<path d="M4.86957 10.7931C4.79626 10.7931 4.72594 10.7639 4.6741 10.7121C4.62226 10.6603 4.59314 10.59 4.59314 10.5166V9.40631C4.59314 9.333 4.62226 9.26269 4.6741 9.21085C4.72594 9.15901 4.79626 9.12988 4.86957 9.12988C4.94288 9.12988 5.01319 9.15901 5.06503 9.21085C5.11688 9.26269 5.146 9.333 5.146 9.40631V10.5166C5.146 10.59 5.11688 10.6603 5.06503 10.7121C5.01319 10.7639 4.94288 10.7931 4.86957 10.7931Z" fill="#F4731C"/>
<path d="M6.25141 10.8959C6.17809 10.8959 6.10778 10.8667 6.05594 10.8149C6.0041 10.763 5.97498 10.6927 5.97498 10.6194V9.59967C5.97498 9.52636 6.0041 9.45605 6.05594 9.40421C6.10778 9.35237 6.17809 9.32324 6.25141 9.32324C6.32472 9.32324 6.39503 9.35237 6.44687 9.40421C6.49871 9.45605 6.52784 9.52636 6.52784 9.59967V10.6194C6.52784 10.6927 6.49871 10.763 6.44687 10.8149C6.39503 10.8667 6.32472 10.8959 6.25141 10.8959Z" fill="#F4731C"/>
<path d="M7.63275 10.9978C7.55944 10.9978 7.48913 10.9687 7.43729 10.9169C7.38545 10.865 7.35632 10.7947 7.35632 10.7214V9.79205C7.35632 9.71874 7.38545 9.64843 7.43729 9.59659C7.48913 9.54475 7.55944 9.51562 7.63275 9.51562C7.70607 9.51562 7.77638 9.54475 7.82822 9.59659C7.88006 9.64843 7.90918 9.71874 7.90918 9.79205V10.7214C7.90918 10.7947 7.88006 10.865 7.82822 10.9169C7.77638 10.9687 7.70607 10.9978 7.63275 10.9978Z" fill="#F4731C"/>
<path d="M8.82355 10.7568C8.77933 10.7568 8.73574 10.7462 8.69646 10.7259C8.65718 10.7056 8.62335 10.6761 8.5978 10.64L8.50616 10.5105C8.42736 10.3995 8.32675 10.3057 8.21049 10.235C8.09422 10.1642 7.96475 10.1178 7.82997 10.0988L0.26298 9.04241C0.190369 9.03227 0.124761 8.99369 0.0805881 8.93518C0.0364156 8.87666 0.0172972 8.803 0.027439 8.73039C0.0375807 8.65778 0.0761517 8.59217 0.134667 8.548C0.193182 8.50382 0.266848 8.4847 0.339459 8.49485L7.90622 9.55127C8.11571 9.58087 8.31697 9.65287 8.49769 9.76288C8.67841 9.8729 8.8348 10.0186 8.9573 10.1911L9.04893 10.3207C9.0782 10.362 9.09554 10.4106 9.09905 10.4612C9.10257 10.5117 9.09212 10.5623 9.06886 10.6073C9.0456 10.6523 9.01042 10.69 8.96716 10.7164C8.92389 10.7428 8.87422 10.7567 8.82355 10.7568Z" fill="#FFAA39"/>
<path d="M14.6116 10.7568C14.561 10.7567 14.5113 10.7428 14.468 10.7164C14.4247 10.69 14.3896 10.6523 14.3663 10.6073C14.343 10.5623 14.3326 10.5117 14.3361 10.4612C14.3396 10.4106 14.357 10.362 14.3862 10.3207L14.4779 10.1911C14.6004 10.0186 14.7568 9.8729 14.9375 9.76288C15.1182 9.65287 15.3195 9.58086 15.529 9.55127L23.0957 8.49485C23.1317 8.48982 23.1683 8.49193 23.2034 8.50105C23.2385 8.51017 23.2715 8.52612 23.3005 8.54799C23.3295 8.56987 23.3539 8.59723 23.3723 8.62853C23.3907 8.65982 23.4027 8.69443 23.4077 8.73039C23.4128 8.76634 23.4106 8.80293 23.4015 8.83807C23.3924 8.87321 23.3765 8.9062 23.3546 8.93518C23.3327 8.96415 23.3053 8.98853 23.274 9.00693C23.2428 9.02533 23.2081 9.03739 23.1722 9.04241L15.6054 10.0988C15.4706 10.1178 15.3411 10.1642 15.2249 10.235C15.1086 10.3057 15.008 10.3995 14.9292 10.5105L14.8376 10.64C14.812 10.6762 14.7781 10.7056 14.7388 10.7259C14.6995 10.7462 14.6559 10.7568 14.6116 10.7568Z" fill="#FFAA39"/>
<path d="M23.1586 5.86829H0.27643C0.203116 5.86829 0.132805 5.83917 0.0809644 5.78732C0.0291238 5.73548 0 5.66517 0 5.59186C0 5.51855 0.0291238 5.44823 0.0809644 5.39639C0.132805 5.34455 0.203116 5.31543 0.27643 5.31543H23.1586C23.232 5.31543 23.3023 5.34455 23.3541 5.39639C23.4059 5.44823 23.4351 5.51855 23.4351 5.59186C23.4351 5.66517 23.4059 5.73548 23.3541 5.78732C23.3023 5.83917 23.232 5.86829 23.1586 5.86829Z" fill="#A59F32"/>
</svg>
