<svg width="23" height="23" viewBox="0 0 23 23" fill="none" xmlns="http://www.w3.org/2000/svg">
<path d="M20.6105 15.2944H2.38867V20.1272C2.38867 21.4376 3.45091 22.4998 4.76128 22.4998H18.2379C19.5482 22.4998 20.6105 21.4376 20.6105 20.1272V15.2944Z" fill="#6FCCFF"/>
<path d="M4.46484 18.9636C4.46484 20.4831 7.61348 20.283 11.4973 20.283C15.3815 20.283 18.5297 20.4831 18.5297 18.9636C18.5297 17.549 15.8017 15.143 12.2912 14.8173L10.8799 14.8027C10.3984 14.8373 9.93056 14.9117 9.48135 15.018C8.35943 15.2828 7.35538 15.7469 6.54505 16.2883H6.54469C5.26027 17.1467 4.46484 18.1998 4.46484 18.9636Z" fill="#F9CD46"/>
<path d="M6.32617 18.9636C6.32617 18.1998 7.12159 17.1467 8.40605 16.2884H8.4064C9.2167 15.7469 10.2208 15.2828 11.3427 15.0181C11.6943 14.9349 12.0575 14.8715 12.4295 14.8312C12.3842 14.8263 12.3388 14.8215 12.2932 14.8173L10.8819 14.8027C10.4004 14.8373 9.93255 14.9117 9.48334 15.0181C8.36142 15.2828 7.35737 15.7469 6.54703 16.2883H6.54668C5.26222 17.1466 4.4668 18.1997 4.4668 18.9636C4.4668 20.3215 6.98162 20.3061 10.2884 20.2875C7.94303 20.2583 6.32617 20.0524 6.32617 18.9636Z" fill="#DB9E00"/>
<path d="M13.3574 20.2827C13.0422 20.2827 12.732 20.2841 12.4277 20.2857C13.186 20.2897 13.9062 20.2955 14.5683 20.2872C14.1749 20.285 13.7703 20.2827 13.3574 20.2827Z" fill="#DB9E00"/>
<path d="M6.54883 16.2884C9.2196 16.0928 10.7539 17.0626 10.7539 17.0626H12.3582C11.7402 16.1452 10.5167 15.4621 9.48513 15.0181C8.36321 15.2828 7.35916 15.7469 6.54883 16.2884Z" fill="#DB9E00"/>
<path d="M18.7499 21.6726H17.6715C17.5175 21.6726 17.3926 21.5477 17.3926 21.3937C17.3926 21.2396 17.5175 21.1147 17.6715 21.1147H18.7499C18.904 21.1147 19.0288 21.2396 19.0288 21.3937C19.0288 21.5477 18.904 21.6726 18.7499 21.6726Z" fill="white"/>
<path d="M19.787 16.3913H18.7086C18.5546 16.3913 18.4297 16.2664 18.4297 16.1124C18.4297 15.9584 18.5546 15.8335 18.7086 15.8335H19.787C19.9411 15.8335 20.0659 15.9584 20.0659 16.1124C20.0659 16.2664 19.9411 16.3913 19.787 16.3913Z" fill="white"/>
<path d="M4.3202 17.0974H3.2418C3.08777 17.0974 2.96289 16.9725 2.96289 16.8185C2.96289 16.6644 3.08777 16.5396 3.2418 16.5396H4.32024C4.47427 16.5396 4.59915 16.6644 4.59915 16.8185C4.59915 16.9725 4.47423 17.0974 4.3202 17.0974Z" fill="white"/>
<path d="M9.00774 22.1565H7.92931C7.77527 22.1565 7.65039 22.0316 7.65039 21.8775C7.65039 21.7235 7.77527 21.5986 7.92931 21.5986H9.00774C9.16177 21.5986 9.28665 21.7235 9.28665 21.8775C9.28665 22.0316 9.16177 22.1565 9.00774 22.1565Z" fill="white"/>
<path d="M11.0917 21.4489H10.0133C9.85926 21.4489 9.73438 21.3241 9.73438 21.17C9.73438 21.016 9.85926 20.8911 10.0133 20.8911H11.0917C11.2458 20.8911 11.3706 21.016 11.3706 21.17C11.3706 21.3241 11.2458 21.4489 11.0917 21.4489Z" fill="white"/>
<mask id="mask0_1110_749" style="mask-type:luminance" maskUnits="userSpaceOnUse" x="3" y="0" width="17" height="18">
<path d="M3.0918 0.499876H19.6569V17.0649H3.0918V0.499876Z" fill="white"/>
</mask>
<g mask="url(#mask0_1110_749)">
<path d="M11.3677 3.31238C11.3389 3.31238 11.315 3.33467 11.313 3.3634L10.3655 16.9547C10.3613 17.0146 10.4088 17.0654 10.4688 17.0654H12.2667C12.3267 17.0654 12.3742 17.0146 12.37 16.9547L11.4225 3.3634C11.4204 3.33467 11.3965 3.31238 11.3677 3.31238Z" fill="#3EC3A4"/>
<path d="M11.3593 3.31244L11.2013 17.0112C11.201 17.0413 11.1765 17.0654 11.1465 17.0654H10.4688C10.4087 17.0654 10.3613 17.0146 10.3655 16.9547L11.3167 3.31244H11.3593Z" fill="#0BB494"/>
<path d="M14.6417 5.48988C15.5323 4.59928 15.9302 3.40281 15.8361 2.23866C14.6719 2.14451 13.4754 2.54246 12.5848 3.43303C11.6943 4.32363 11.2963 5.5201 11.3905 6.68424C12.5546 6.77839 13.7511 6.38044 14.6417 5.48988Z" fill="#3EC3A4"/>
<path d="M8.10439 5.49037C7.21379 4.59977 6.81587 3.4033 6.90999 2.23915C8.07417 2.145 9.27064 2.54295 10.1612 3.43351C11.0518 4.32411 11.4498 5.52058 11.3556 6.68473C10.1915 6.77888 8.99495 6.38093 8.10439 5.49037Z" fill="#3EC3A4"/>
<path d="M12.8058 3.5943C12.8058 4.81717 12.2651 5.91341 11.4099 6.65735C11.3982 6.66767 11.3866 6.67799 11.3746 6.68799C10.499 5.9434 9.94336 4.83383 9.94336 3.5943C9.94336 2.35509 10.499 1.24552 11.3746 0.500936C12.2501 1.24552 12.8058 2.35509 12.8058 3.5943Z" fill="#9BE69D"/>
<path d="M11.4099 6.65732C11.3982 6.66764 11.3866 6.67799 11.3746 6.68799C10.499 5.9434 9.94336 4.83383 9.94336 3.59427C9.94336 2.35506 10.499 1.24549 11.3746 0.500903C11.3746 0.500903 10.3173 3.01633 11.4099 6.65732Z" fill="#6FD7A3"/>
<path d="M18.3288 4.0949C18.0335 4.73582 17.5745 5.32909 16.9829 5.81841L15.828 5.16913L16.0987 6.41433C15.8637 6.542 15.6157 6.65498 15.3558 6.75165C14.5382 7.05561 13.7032 7.15892 12.921 7.08693C12.3694 7.03626 11.8438 6.89828 11.3691 6.68196C11.8968 5.53641 12.948 4.54351 14.3422 4.02524C15.1138 3.73859 15.9007 3.63027 16.6443 3.67925C17.2442 3.71927 17.8162 3.86124 18.3288 4.0949Z" fill="#9BE69D"/>
<path d="M16.6463 3.68089C14.3422 4.0262 12.921 6.21696 12.921 7.08624V7.08789C12.3694 7.03722 11.8438 6.89924 11.3691 6.68292C11.8968 5.53737 12.948 4.54447 14.3422 4.0262C15.1138 3.73955 15.9007 3.63123 16.6443 3.68021L16.6463 3.68089Z" fill="#6FD7A3"/>
<path d="M11.374 6.68208C10.2265 7.20469 8.78161 7.27004 7.38743 6.75174C5.99324 6.23379 4.94165 5.24056 4.41406 4.09502C5.56161 3.57237 7.00646 3.50705 8.40065 4.02533C9.79486 4.54363 10.8464 5.53653 11.374 6.68208Z" fill="#9BE69D"/>
<path d="M11.374 6.68208C10.2265 7.20469 8.78161 7.27004 7.38743 6.75174C5.99324 6.23379 4.94165 5.24056 4.41406 4.09502C4.41406 4.09502 7.38743 6.6121 11.374 6.68208Z" fill="#6FD7A3"/>
<path d="M10.8001 9.36963C10.1792 9.36963 9.15321 7.89325 9.15321 7.22476C8.53109 6.73563 8.13086 5.97641 8.13086 5.12552C8.13086 4.71845 8.46083 4.38842 8.8679 4.38842C9.27497 4.38842 9.60494 4.71845 9.60494 5.12552C9.60494 5.7845 10.1411 6.32065 10.8001 6.32065C11.2071 6.32065 11.5371 6.65062 11.5371 7.05769C11.5371 7.46476 11.2071 9.36963 10.8001 9.36963Z" fill="#FFD15B"/>
<path d="M12.1062 9.65967C12.7478 9.65967 14.0966 8.11031 13.7981 7.18841C14.3945 6.69847 14.7754 5.95561 14.7754 5.12539C14.7754 4.71838 14.4454 4.38835 14.0384 4.38835C13.6313 4.38835 13.3013 4.71838 13.3013 5.12539C13.3013 5.78443 12.7652 6.32058 12.1062 6.32058C11.6991 6.32058 11.3691 6.65055 11.3691 7.05762C11.3691 7.46468 11.6991 9.65967 12.1062 9.65967Z" fill="#FFD15B"/>
<path d="M11.485 4.10119H11.44C11.0287 4.10119 10.6953 4.43463 10.6953 4.84592V7.36708C10.6953 7.77843 11.0287 8.11182 11.44 8.11182H11.485C11.8963 8.11182 12.2297 7.77843 12.2297 7.36708V4.84592C12.2297 4.43463 11.8963 4.10119 11.485 4.10119Z" fill="#FFE177"/>
<path d="M10.8001 11.6865C10.1792 11.6865 9.15321 10.2101 9.15321 9.54165C8.53109 9.05252 8.13086 8.29331 8.13086 7.44241C8.13086 7.03534 8.46083 6.70532 8.8679 6.70532C9.27497 6.70532 9.60494 7.03534 9.60494 7.44241C9.60494 8.10139 10.1411 8.63754 10.8001 8.63754C11.2071 8.63754 11.5371 8.96752 11.5371 9.37458C11.5371 9.78165 11.2071 11.6865 10.8001 11.6865Z" fill="#FFC344"/>
<path d="M12.1062 11.9766C12.7478 11.9766 14.0966 10.4272 13.7981 9.5053C14.3945 9.01537 14.7754 8.2725 14.7754 7.44228C14.7754 7.03527 14.4454 6.70524 14.0384 6.70524C13.6313 6.70524 13.3013 7.03527 13.3013 7.44228C13.3013 8.10132 12.7652 8.63747 12.1062 8.63747C11.6991 8.63747 11.3691 8.96744 11.3691 9.37451C11.3691 9.78158 11.6991 11.9766 12.1062 11.9766Z" fill="#FFC344"/>
<path d="M11.485 6.41564H11.44C11.0287 6.41564 10.6953 6.74908 10.6953 7.16037V9.68154C10.6953 10.0929 11.0287 10.4263 11.44 10.4263H11.485C11.8963 10.4263 12.2297 10.0929 12.2297 9.68154V7.16037C12.2297 6.74908 11.8963 6.41564 11.485 6.41564Z" fill="#FFC344"/>
<path d="M10.8001 12.4272C9.32829 12.4272 8.13086 11.2298 8.13086 9.75798C8.13086 9.35097 8.46083 9.02094 8.8679 9.02094C9.27497 9.02094 9.60494 9.35097 9.60494 9.75798C9.60494 10.417 10.1411 10.9532 10.8001 10.9532C11.2071 10.9532 11.5371 11.2831 11.5371 11.6902C11.5371 12.0973 11.2071 12.4272 10.8001 12.4272Z" fill="#FFD15B"/>
<path d="M12.1062 12.4258C13.578 12.4258 14.7754 11.2284 14.7754 9.75652C14.7754 9.3495 14.4454 9.01948 14.0384 9.01948C13.6313 9.01948 13.3013 9.3495 13.3013 9.75652C13.3013 10.4156 12.7652 10.9517 12.1062 10.9517C11.6991 10.9517 11.3691 11.2817 11.3691 11.6887C11.3691 12.0958 11.6991 12.4258 12.1062 12.4258Z" fill="#FFD15B"/>
<path d="M11.485 8.734H11.44C11.0287 8.734 10.6953 9.06744 10.6953 9.47873V11.9999C10.6953 12.4112 11.0287 12.7446 11.44 12.7446H11.485C11.8963 12.7446 12.2297 12.4112 12.2297 11.9999V9.47873C12.2297 9.06744 11.8963 8.734 11.485 8.734Z" fill="#FFE177"/>
</g>
</svg>
