<svg width="24" height="24" viewBox="0 0 24 24" fill="none" xmlns="http://www.w3.org/2000/svg">
<path d="M21.9392 16.1401H2.0625V21.4119C2.0625 22.8412 3.22121 24 4.65059 24H19.3511C20.7805 24 21.9392 22.8412 21.9392 21.4119V16.1401Z" fill="#6FCCFF"/>
<path d="M4.32617 20.1433C4.32617 21.8007 7.76077 21.5825 11.9973 21.5825C16.2343 21.5825 19.6685 21.8008 19.6685 20.1433C19.6685 18.6002 16.6926 15.9757 12.8633 15.6203L11.3239 15.6045C10.7986 15.6422 10.2883 15.7234 9.79829 15.8394C8.57448 16.1282 7.47924 16.6344 6.5953 17.225H6.59492C5.19384 18.1613 4.32617 19.3101 4.32617 20.1433Z" fill="#F9CD46"/>
<path d="M6.36027 20.1433C6.36027 19.3101 7.22794 18.1613 8.62906 17.2251H8.62944C9.51334 16.6344 10.6086 16.1282 11.8324 15.8394C12.216 15.7486 12.6121 15.6795 13.0179 15.6356C12.9685 15.6302 12.919 15.625 12.8692 15.6203L11.3298 15.6045C10.8045 15.6422 10.2942 15.7234 9.80419 15.8394C8.58037 16.1282 7.48513 16.6344 6.6012 17.225H6.60081C5.1997 18.1613 4.33203 19.31 4.33203 20.1433C4.33203 21.6245 7.07525 21.6077 10.6824 21.5874C8.12399 21.5555 6.36027 21.331 6.36027 20.1433Z" fill="#DB9E00"/>
<path d="M14.0297 21.5825C13.6858 21.5825 13.3475 21.584 13.0156 21.5857C13.8428 21.5901 14.6284 21.5964 15.3506 21.5875C14.9215 21.585 14.4802 21.5825 14.0297 21.5825Z" fill="#DB9E00"/>
<path d="M6.60156 17.225C9.5149 17.0117 11.1886 18.0696 11.1886 18.0696H12.9386C12.2644 17.0689 10.9298 16.3237 9.80455 15.8394C8.58073 16.1282 7.4855 16.6344 6.60156 17.225Z" fill="#DB9E00"/>
<path d="M19.9103 23.0982H18.7339C18.5659 23.0982 18.4297 22.962 18.4297 22.794C18.4297 22.626 18.5659 22.4897 18.7339 22.4897H19.9103C20.0783 22.4897 20.2146 22.626 20.2146 22.794C20.2146 22.962 20.0783 23.0982 19.9103 23.0982Z" fill="white"/>
<path d="M21.0451 17.3375H19.8687C19.7007 17.3375 19.5645 17.2013 19.5645 17.0333C19.5645 16.8652 19.7007 16.729 19.8687 16.729H21.0451C21.2131 16.729 21.3493 16.8652 21.3493 17.0333C21.3493 17.2013 21.2131 17.3375 21.0451 17.3375Z" fill="white"/>
<path d="M4.17199 18.108H2.99565C2.82763 18.108 2.69141 17.9718 2.69141 17.8038C2.69141 17.6357 2.82763 17.4995 2.99565 17.4995H4.17203C4.34005 17.4995 4.47628 17.6357 4.47628 17.8038C4.47628 17.9718 4.34001 18.108 4.17199 18.108Z" fill="white"/>
<path d="M9.28531 23.6261H8.10893C7.94091 23.6261 7.80469 23.4898 7.80469 23.3218C7.80469 23.1538 7.94091 23.0176 8.10893 23.0176H9.28531C9.45333 23.0176 9.58956 23.1538 9.58956 23.3218C9.58956 23.4898 9.45333 23.6261 9.28531 23.6261Z" fill="white"/>
<path d="M11.5568 22.8541H10.3804C10.2124 22.8541 10.0762 22.7179 10.0762 22.5499C10.0762 22.3818 10.2124 22.2456 10.3804 22.2456H11.5568C11.7248 22.2456 11.861 22.3818 11.861 22.5499C11.861 22.7179 11.7248 22.8541 11.5568 22.8541Z" fill="white"/>
<mask id="mask0_1110_749" style="mask-type:luminance" maskUnits="userSpaceOnUse" x="2" y="0" width="19" height="19">
<path d="M2.83594 0.000757217H20.9055V18.0703H2.83594V0.000757217Z" fill="white"/>
</mask>
<g mask="url(#mask0_1110_749)">
<path d="M11.8631 3.06866C11.8317 3.06866 11.8056 3.09297 11.8034 3.12431L10.7698 17.95C10.7653 18.0153 10.817 18.0708 10.8825 18.0708H12.8437C12.9091 18.0708 12.9609 18.0153 12.9564 17.95L11.9228 3.12431C11.9206 3.09297 11.8945 3.06866 11.8631 3.06866Z" fill="#3EC3A4"/>
<path d="M11.8539 3.06873L11.6815 18.0117C11.6812 18.0445 11.6545 18.0708 11.6217 18.0708H10.8825C10.817 18.0708 10.7653 18.0153 10.7698 17.95L11.8074 3.06873H11.8539Z" fill="#0BB494"/>
<path d="M15.4362 5.44463C16.4077 4.47314 16.8418 3.168 16.7391 1.89812C15.4692 1.79542 14.1641 2.22952 13.1926 3.20097C12.2211 4.17245 11.787 5.47759 11.8897 6.74747C13.1596 6.85017 14.4648 6.41608 15.4362 5.44463Z" fill="#3EC3A4"/>
<path d="M8.30393 5.44463C7.33245 4.47314 6.89839 3.168 7.00106 1.89812C8.27097 1.79542 9.57611 2.22952 10.5476 3.20097C11.519 4.17245 11.9531 5.47759 11.8504 6.74747C10.5806 6.85017 9.27539 6.41608 8.30393 5.44463Z" fill="#3EC3A4"/>
<path d="M13.431 3.37631C13.431 4.71025 12.8412 5.90605 11.9083 6.71755C11.8956 6.72881 11.8829 6.74007 11.8698 6.75098C10.9147 5.93876 10.3086 4.72842 10.3086 3.37631C10.3086 2.02455 10.9147 0.81421 11.8698 0.00199714C12.8249 0.81421 13.431 2.02455 13.431 3.37631Z" fill="#9BE69D"/>
<path d="M11.9083 6.71752C11.8956 6.72878 11.8829 6.74007 11.8698 6.75098C10.9147 5.93876 10.3086 4.72842 10.3086 3.37627C10.3086 2.02452 10.9147 0.814174 11.8698 0.0019616C11.8698 0.0019616 10.7165 2.74585 11.9083 6.71752Z" fill="#6FD7A3"/>
<path d="M19.455 3.92223C19.1329 4.62137 18.6323 5.26852 17.9869 5.80228L16.7271 5.09404L17.0224 6.45232C16.7661 6.59158 16.4955 6.71482 16.212 6.82028C15.3201 7.15185 14.4094 7.26453 13.5561 7.18601C12.9544 7.13074 12.381 6.98022 11.8633 6.74426C12.4388 5.49467 13.5855 4.41159 15.1063 3.84625C15.948 3.53356 16.8064 3.4154 17.6176 3.46883C18.272 3.51249 18.8959 3.66735 19.455 3.92223Z" fill="#9BE69D"/>
<path d="M17.6197 3.47106C15.1064 3.84774 13.5561 6.23747 13.5561 7.1857V7.1875C12.9544 7.13223 12.381 6.98171 11.8633 6.74575C12.4388 5.49616 13.5855 4.41308 15.1064 3.84774C15.948 3.53505 16.8064 3.41689 17.6176 3.47032L17.6197 3.47106Z" fill="#6FD7A3"/>
<path d="M11.8714 6.74439C10.6196 7.31446 9.04352 7.38575 7.52271 6.82037C6.0019 6.25538 4.85481 5.17195 4.2793 3.92236C5.53107 3.35225 7.10715 3.281 8.62795 3.84634C10.1488 4.41172 11.2959 5.4948 11.8714 6.74439Z" fill="#9BE69D"/>
<path d="M11.8714 6.74439C10.6196 7.31446 9.04352 7.38575 7.52271 6.82037C6.0019 6.25538 4.85481 5.17195 4.2793 3.92236C4.2793 3.92236 7.52271 6.66805 11.8714 6.74439Z" fill="#6FD7A3"/>
<path d="M11.2437 9.67627C10.5664 9.67627 9.44723 8.0658 9.44723 7.3366C8.76861 6.80304 8.33203 5.97487 8.33203 5.0467C8.33203 4.60266 8.69197 4.24266 9.13601 4.24266C9.58005 4.24266 9.93999 4.60266 9.93999 5.0467C9.93999 5.76553 10.5248 6.35037 11.2437 6.35037C11.6877 6.35037 12.0476 6.71031 12.0476 7.15435C12.0476 7.59839 11.6877 9.67627 11.2437 9.67627Z" fill="#FFD15B"/>
<path d="M12.6673 9.99316C13.3672 9.99316 14.8384 8.30309 14.5129 7.29746C15.1634 6.76302 15.5789 5.95269 15.5789 5.04707C15.5789 4.60309 15.219 4.24309 14.7749 4.24309C14.3309 4.24309 13.9709 4.60309 13.9709 5.04707C13.9709 5.76596 13.3861 6.3508 12.6673 6.3508C12.2232 6.3508 11.8633 6.71075 11.8633 7.15478C11.8633 7.59882 12.2232 9.99316 12.6673 9.99316Z" fill="#FFD15B"/>
<path d="M11.9922 3.92931H11.9432C11.4945 3.92931 11.1309 4.29304 11.1309 4.74168V7.49183C11.1309 7.94053 11.4945 8.3042 11.9432 8.3042H11.9922C12.4409 8.3042 12.8046 7.94053 12.8046 7.49183V4.74168C12.8046 4.29304 12.4409 3.92931 11.9922 3.92931Z" fill="#FFE177"/>
<path d="M11.2437 12.2041C10.5664 12.2041 9.44723 10.5936 9.44723 9.86443C8.76861 9.33087 8.33203 8.5027 8.33203 7.57453C8.33203 7.13049 8.69197 6.77049 9.13601 6.77049C9.58005 6.77049 9.93999 7.13049 9.93999 7.57453C9.93999 8.29336 10.5248 8.87821 11.2437 8.87821C11.6877 8.87821 12.0476 9.23815 12.0476 9.68219C12.0476 10.1262 11.6877 12.2041 11.2437 12.2041Z" fill="#FFC344"/>
<path d="M12.6673 12.52C13.3672 12.52 14.8384 10.8299 14.5129 9.82431C15.1634 9.28988 15.5789 8.47955 15.5789 7.57392C15.5789 7.12994 15.219 6.76994 14.7749 6.76994C14.3309 6.76994 13.9709 7.12994 13.9709 7.57392C13.9709 8.29282 13.3861 8.87766 12.6673 8.87766C12.2232 8.87766 11.8633 9.2376 11.8633 9.68164C11.8633 10.1257 12.2232 12.52 12.6673 12.52Z" fill="#FFC344"/>
<path d="M11.9922 6.45421H11.9432C11.4945 6.45421 11.1309 6.81794 11.1309 7.26659V10.0167C11.1309 10.4654 11.4945 10.8291 11.9432 10.8291H11.9922C12.4409 10.8291 12.8046 10.4654 12.8046 10.0167V7.26659C12.8046 6.81794 12.4409 6.45421 11.9922 6.45421Z" fill="#FFC344"/>
<path d="M11.2437 13.0117C9.63821 13.0117 8.33203 11.7055 8.33203 10.1C8.33203 9.65604 8.69197 9.29604 9.13601 9.29604C9.58005 9.29604 9.93999 9.65604 9.93999 10.1C9.93999 10.8189 10.5248 11.4038 11.2437 11.4038C11.6877 11.4038 12.0476 11.7637 12.0476 12.2077C12.0476 12.6518 11.6877 13.0117 11.2437 13.0117Z" fill="#FFD15B"/>
<path d="M12.6673 13.0103C14.2727 13.0103 15.5789 11.7041 15.5789 10.0986C15.5789 9.65458 15.219 9.29458 14.7749 9.29458C14.3309 9.29458 13.9709 9.65458 13.9709 10.0986C13.9709 10.8174 13.3861 11.4023 12.6673 11.4023C12.2232 11.4023 11.8633 11.7622 11.8633 12.2063C11.8633 12.6503 12.2232 13.0103 12.6673 13.0103Z" fill="#FFD15B"/>
<path d="M11.9922 8.98253H11.9432C11.4945 8.98253 11.1309 9.34626 11.1309 9.79491V12.545C11.1309 12.9938 11.4945 13.3574 11.9432 13.3574H11.9922C12.4409 13.3574 12.8046 12.9938 12.8046 12.545V9.79491C12.8046 9.34626 12.4409 8.98253 11.9922 8.98253Z" fill="#FFE177"/>
</g>
</svg>
