<svg width="23" height="23" viewBox="0 0 23 23" fill="none" xmlns="http://www.w3.org/2000/svg">
<path d="M21.0239 15.4673H1.97461V20.5196C1.97461 21.8894 3.08509 22.9999 4.45496 22.9999H18.5436C19.9134 22.9999 21.0239 21.8894 21.0239 20.5196V15.4673Z" fill="#6FCCFF"/>
<path d="M4.14453 19.3034C4.14453 20.8919 7.43615 20.6828 11.4963 20.6828C15.5569 20.6828 18.8481 20.8919 18.8481 19.3034C18.8481 17.8246 15.9962 15.3093 12.3263 14.9688L10.851 14.9536C10.3475 14.9898 9.85846 15.0675 9.38885 15.1787C8.21598 15.4555 7.16634 15.9407 6.3192 16.5067H6.31883C4.97608 17.404 4.14453 18.5049 4.14453 19.3034Z" fill="#F9CD46"/>
<path d="M6.09225 19.3035C6.09225 18.505 6.92379 17.404 8.26658 16.5067H8.26695C9.11405 15.9407 10.1637 15.4555 11.3366 15.1787C11.7042 15.0918 12.0838 15.0255 12.4728 14.9834C12.4254 14.9782 12.378 14.9732 12.3303 14.9688L10.8549 14.9536C10.3515 14.9898 9.86241 15.0675 9.3928 15.1787C8.21993 15.4555 7.17028 15.9407 6.32314 16.5067H6.32277C4.97998 17.4039 4.14844 18.5049 4.14844 19.3034C4.14844 20.723 6.77746 20.7069 10.2345 20.6874C7.78254 20.6569 6.09225 20.4417 6.09225 19.3035Z" fill="#DB9E00"/>
<path d="M13.4426 20.6826C13.113 20.6826 12.7887 20.684 12.4707 20.6857C13.2634 20.6899 14.0163 20.6959 14.7085 20.6873C14.2972 20.685 13.8743 20.6826 13.4426 20.6826Z" fill="#DB9E00"/>
<path d="M6.32422 16.5067C9.11628 16.3022 10.7203 17.3161 10.7203 17.3161H12.3974C11.7513 16.3571 10.4723 15.6429 9.39387 15.1787C8.221 15.4555 7.17135 15.9406 6.32422 16.5067Z" fill="#DB9E00"/>
<path d="M19.0791 22.1354H17.9517C17.7907 22.1354 17.6602 22.0049 17.6602 21.8438C17.6602 21.6828 17.7907 21.5522 17.9517 21.5522H19.0791C19.2402 21.5522 19.3707 21.6828 19.3707 21.8438C19.3707 22.0049 19.2402 22.1354 19.0791 22.1354Z" fill="white"/>
<path d="M20.1651 16.6144H19.0377C18.8766 16.6144 18.7461 16.4839 18.7461 16.3228C18.7461 16.1618 18.8766 16.0312 19.0377 16.0312H20.1651C20.3261 16.0312 20.4567 16.1618 20.4567 16.3228C20.4567 16.4839 20.3261 16.6144 20.1651 16.6144Z" fill="white"/>
<path d="M3.99512 17.3527H2.86775C2.70673 17.3527 2.57617 17.2221 2.57617 17.0611C2.57617 16.9001 2.70673 16.7695 2.86775 16.7695H3.99516C4.15618 16.7695 4.28674 16.9001 4.28674 17.0611C4.28674 17.2221 4.15615 17.3527 3.99512 17.3527Z" fill="white"/>
<path d="M8.89555 22.6413H7.76814C7.60712 22.6413 7.47656 22.5107 7.47656 22.3497C7.47656 22.1887 7.60712 22.0581 7.76814 22.0581H8.89555C9.05658 22.0581 9.18713 22.1887 9.18713 22.3497C9.18713 22.5107 9.05658 22.6413 8.89555 22.6413Z" fill="white"/>
<path d="M11.0733 21.9015H9.94588C9.78485 21.9015 9.6543 21.771 9.6543 21.6099C9.6543 21.4489 9.78485 21.3184 9.94588 21.3184H11.0733C11.2343 21.3184 11.3649 21.4489 11.3649 21.6099C11.3649 21.771 11.2343 21.9015 11.0733 21.9015Z" fill="white"/>
<mask id="mask0_1110_749" style="mask-type:luminance" maskUnits="userSpaceOnUse" x="2" y="0" width="19" height="18">
<path d="M2.71289 0.00053215H20.0302V17.3179H2.71289V0.00053215Z" fill="white"/>
</mask>
<g mask="url(#mask0_1110_749)">
<path d="M11.3644 2.94074C11.3343 2.94074 11.3093 2.96404 11.3072 2.99408L10.3167 17.2026C10.3123 17.2652 10.3619 17.3184 10.4247 17.3184H12.3042C12.367 17.3184 12.4166 17.2652 12.4122 17.2026L11.4216 2.99408C11.4195 2.96404 11.3945 2.94074 11.3644 2.94074Z" fill="#3EC3A4"/>
<path d="M11.3556 2.9408L11.1905 17.2617C11.1901 17.2931 11.1645 17.3184 11.1331 17.3184H10.4247C10.3619 17.3184 10.3123 17.2652 10.3167 17.2026L11.311 2.9408H11.3556Z" fill="#0BB494"/>
<path d="M14.788 5.21725C15.719 4.28621 16.135 3.0354 16.0366 1.81838C14.8196 1.71996 13.5688 2.13598 12.6377 3.06699C11.7067 3.99804 11.2907 5.24884 11.3891 6.46586C12.6061 6.56428 13.857 6.14826 14.788 5.21725Z" fill="#3EC3A4"/>
<path d="M7.95416 5.21774C7.02312 4.28669 6.60713 3.03589 6.70552 1.81887C7.92257 1.72045 9.17338 2.13647 10.1044 3.06748C11.0354 3.99852 11.4515 5.24933 11.353 6.46635C10.136 6.56477 8.88517 6.14875 7.95416 5.21774Z" fill="#3EC3A4"/>
<path d="M12.8674 3.23554C12.8674 4.51395 12.3022 5.65997 11.4081 6.4377C11.3959 6.44849 11.3837 6.45928 11.3712 6.46973C10.4558 5.69133 9.875 4.53137 9.875 3.23554C9.875 1.94006 10.4558 0.7801 11.3712 0.00169922C12.2865 0.7801 12.8674 1.94006 12.8674 3.23554Z" fill="#9BE69D"/>
<path d="M11.4081 6.43766C11.3959 6.44845 11.3837 6.45928 11.3712 6.46973C10.4558 5.69133 9.875 4.53137 9.875 3.23551C9.875 1.94002 10.4558 0.780067 11.3712 0.00166587C11.3712 0.00166587 10.266 2.63133 11.4081 6.43766Z" fill="#6FD7A3"/>
<path d="M18.641 3.7588C18.3323 4.42884 17.8524 5.04905 17.234 5.56058L16.0266 4.88183L16.3096 6.18357C16.0639 6.31703 15.8047 6.43514 15.5329 6.53621C14.6782 6.85397 13.8053 6.96197 12.9876 6.88671C12.4109 6.83375 11.8614 6.68949 11.3652 6.46335C11.9168 5.26578 13.0158 4.22779 14.4733 3.68598C15.2799 3.38631 16.1026 3.27307 16.88 3.32428C17.5071 3.36612 18.1051 3.51453 18.641 3.7588Z" fill="#9BE69D"/>
<path d="M16.8821 3.32597C14.4733 3.68696 12.9876 5.97722 12.9876 6.88597V6.8877C12.4109 6.83473 11.8614 6.69047 11.3652 6.46433C11.9168 5.26676 13.0158 4.22877 14.4733 3.68696C15.2799 3.38729 16.1026 3.27405 16.88 3.32526L16.8821 3.32597Z" fill="#6FD7A3"/>
<path d="M11.3718 6.46348C10.1721 7.00982 8.6616 7.07814 7.2041 6.5363C5.7466 5.99483 4.64725 4.9565 4.0957 3.75893C5.29537 3.21255 6.80583 3.14426 8.26333 3.68607C9.72086 4.22792 10.8202 5.26591 11.3718 6.46348Z" fill="#9BE69D"/>
<path d="M11.3718 6.46348C10.1721 7.00982 8.6616 7.07814 7.2041 6.5363C5.7466 5.99483 4.64725 4.9565 4.0957 3.75893C4.0957 3.75893 7.2041 6.39032 11.3718 6.46348Z" fill="#6FD7A3"/>
<path d="M10.7709 9.27295C10.1218 9.27295 9.04924 7.72952 9.04924 7.03067C8.39887 6.51933 7.98047 5.72564 7.98047 4.8361C7.98047 4.41055 8.32543 4.06553 8.75098 4.06553C9.17653 4.06553 9.52149 4.41055 9.52149 4.8361C9.52149 5.52501 10.082 6.08551 10.7709 6.08551C11.1965 6.08551 11.5414 6.43046 11.5414 6.85602C11.5414 7.28157 11.1965 9.27295 10.7709 9.27295Z" fill="#FFD15B"/>
<path d="M12.1357 9.57666C12.8065 9.57666 14.2165 7.95694 13.9045 6.99317C14.5279 6.48099 14.9262 5.70439 14.9262 4.83647C14.9262 4.41097 14.5812 4.06595 14.1557 4.06595C13.7301 4.06595 13.3852 4.41097 13.3852 4.83647C13.3852 5.52543 12.8247 6.08593 12.1357 6.08593C11.7102 6.08593 11.3652 6.43089 11.3652 6.85644C11.3652 7.28199 11.7102 9.57666 12.1357 9.57666Z" fill="#FFD15B"/>
<path d="M11.4876 3.76524H11.4407C11.0106 3.76524 10.6621 4.11383 10.6621 4.5438V7.17945C10.6621 7.60948 11.0106 7.95801 11.4407 7.95801H11.4876C11.9176 7.95801 12.2662 7.60948 12.2662 7.17945V4.5438C12.2662 4.11383 11.9176 3.76524 11.4876 3.76524Z" fill="#FFE177"/>
<path d="M10.7709 11.6953C10.1218 11.6953 9.04924 10.1519 9.04924 9.45304C8.39887 8.94169 7.98047 8.148 7.98047 7.25846C7.98047 6.83291 8.32543 6.4879 8.75098 6.4879C9.17653 6.4879 9.52149 6.83291 9.52149 7.25846C9.52149 7.94737 10.082 8.50787 10.7709 8.50787C11.1965 8.50787 11.5414 8.85283 11.5414 9.27838C11.5414 9.70394 11.1965 11.6953 10.7709 11.6953Z" fill="#FFC344"/>
<path d="M12.1357 11.9985C12.8065 11.9985 14.2165 10.3788 13.9045 9.41505C14.5279 8.90286 14.9262 8.12626 14.9262 7.25834C14.9262 6.83284 14.5812 6.48783 14.1557 6.48783C13.7301 6.48783 13.3852 6.83284 13.3852 7.25834C13.3852 7.9473 12.8247 8.5078 12.1357 8.5078C11.7102 8.5078 11.3652 8.85276 11.3652 9.27831C11.3652 9.70387 11.7102 11.9985 12.1357 11.9985Z" fill="#FFC344"/>
<path d="M11.4876 6.18516H11.4407C11.0106 6.18516 10.6621 6.53375 10.6621 6.96372V9.59938C10.6621 10.0294 11.0106 10.3779 11.4407 10.3779H11.4876C11.9176 10.3779 12.2662 10.0294 12.2662 9.59938V6.96372C12.2662 6.53375 11.9176 6.18516 11.4876 6.18516Z" fill="#FFC344"/>
<path d="M10.7709 12.4697C9.23228 12.4697 7.98047 11.2179 7.98047 9.67924C7.98047 9.25374 8.32543 8.90873 8.75098 8.90873C9.17653 8.90873 9.52149 9.25374 9.52149 9.67924C9.52149 10.3682 10.082 10.9287 10.7709 10.9287C11.1965 10.9287 11.5414 11.2737 11.5414 11.6992C11.5414 12.1248 11.1965 12.4697 10.7709 12.4697Z" fill="#FFD15B"/>
<path d="M12.1357 12.4683C13.6744 12.4683 14.9262 11.2165 14.9262 9.67778C14.9262 9.25228 14.5812 8.90726 14.1557 8.90726C13.7301 8.90726 13.3852 9.25228 13.3852 9.67778C13.3852 10.3667 12.8247 10.9272 12.1357 10.9272C11.7102 10.9272 11.3652 11.2722 11.3652 11.6978C11.3652 12.1233 11.7102 12.4683 12.1357 12.4683Z" fill="#FFD15B"/>
<path d="M11.4876 8.6085H11.4407C11.0106 8.6085 10.6621 8.95709 10.6621 9.38706V12.0227C10.6621 12.4527 11.0106 12.8013 11.4407 12.8013H11.4876C11.9176 12.8013 12.2662 12.4527 12.2662 12.0227V9.38706C12.2662 8.95709 11.9176 8.6085 11.4876 8.6085Z" fill="#FFE177"/>
</g>
</svg>
