<svg width="19" height="23" viewBox="0 0 19 23" fill="none" xmlns="http://www.w3.org/2000/svg">
<path d="M12.2507 19.1751C11.9393 19.1751 11.6407 19.0514 11.4205 18.8313C11.2004 18.6111 11.0767 18.3125 11.0767 18.0011V17.1011H8.72868V18.0011C8.72868 18.3125 8.60499 18.6111 8.38483 18.8313C8.16466 19.0514 7.86605 19.1751 7.55469 19.1751L9.90268 19.5664L12.2507 19.1751Z" fill="#F4AA51"/>
<path d="M4.37345 13.306H3.25424C3.04686 13.3053 2.84814 13.2227 2.7015 13.076C2.55485 12.9294 2.4722 12.7307 2.47158 12.5233V10.1753C2.47158 10.0715 2.51281 9.97198 2.5862 9.89859C2.65958 9.8252 2.75912 9.78397 2.86291 9.78397H4.42824V8.21864H2.08025C1.76888 8.21864 1.47027 8.34233 1.25011 8.5625C1.02994 8.78267 0.90625 9.08128 0.90625 9.39264V12.5233C0.90625 13.146 1.15363 13.7432 1.59396 14.1836C2.03429 14.6239 2.63151 14.8713 3.25424 14.8713H5.2109L4.37345 13.306Z" fill="#F4AA51"/>
<path d="M15.439 13.3059H16.5582C16.7656 13.3052 16.9643 13.2226 17.111 13.0759C17.2576 12.9293 17.3403 12.7306 17.3409 12.5232V10.1752C17.3409 10.0714 17.2997 9.97188 17.2263 9.89849C17.1529 9.8251 17.0533 9.78387 16.9496 9.78387H15.3842V8.21854H17.7322C18.0436 8.21854 18.3422 8.34223 18.5624 8.5624C18.7825 8.78257 18.9062 9.08118 18.9062 9.39254V12.5232C18.9062 13.1459 18.6588 13.7431 18.2185 14.1835C17.7782 14.6238 17.1809 14.8712 16.5582 14.8712H14.6016L15.439 13.3059Z" fill="#F4AA51"/>
<path d="M15.779 7.82777V11.3498C15.779 12.9066 15.1606 14.3996 14.0597 15.5005C12.9589 16.6013 11.4659 17.2197 9.90904 17.2197C8.35222 17.2197 6.85917 16.6013 5.75834 15.5005C4.6575 14.3996 4.03906 12.9066 4.03906 11.3498V7.82777H15.779Z" fill="#F9C55D"/>
<path d="M14.2109 21.9169V19.9602C14.2109 19.7526 14.1284 19.5536 13.9816 19.4068C13.8348 19.26 13.6358 19.1775 13.4282 19.1775H6.38423C6.17665 19.1775 5.97758 19.26 5.8308 19.4068C5.68402 19.5536 5.60156 19.7526 5.60156 19.9602V21.9169H14.2109Z" fill="#416572"/>
<path d="M14.9956 21.134H4.82102C4.60489 21.134 4.42969 21.3092 4.42969 21.5253V22.308C4.42969 22.5241 4.60489 22.6993 4.82102 22.6993H14.9956C15.2118 22.6993 15.387 22.5241 15.387 22.308V21.5253C15.387 21.3092 15.2118 21.134 14.9956 21.134Z" fill="#324E56"/>
<path d="M6.00144 6.65433C5.5133 6.08573 5.23679 5.36584 5.21878 4.61666C5.21552 3.86948 5.48919 3.14759 5.98696 2.59035C6.0192 2.55286 6.06169 2.5256 6.1092 2.51192C6.15671 2.49823 6.20718 2.49871 6.25443 2.51329C6.30167 2.52787 6.34363 2.55593 6.37515 2.59402C6.40668 2.63211 6.42641 2.67857 6.43191 2.72771C6.49922 3.23252 6.68158 3.96353 7.17544 4.21477C7.07413 3.63888 7.17452 3.04568 7.45967 2.53519C7.74482 2.0247 8.19728 1.62816 8.74076 1.41244C9.54222 1.12933 10.273 0.676244 10.8829 0.0842593C10.91 0.0540658 10.9439 0.0308072 10.9818 0.0164391C11.0197 0.00207109 11.0605 -0.00298634 11.1007 0.00169202C11.141 0.00637037 11.1795 0.0206477 11.2131 0.0433237C11.2467 0.0659997 11.2744 0.0964114 11.2938 0.132002C12.1129 1.62611 11.115 3.09321 11.4801 4.21633C11.8722 4.19569 12.2434 4.03296 12.5243 3.75856C12.8051 3.48417 12.9765 3.11689 13.0063 2.72536C13.0131 2.67834 13.0331 2.6342 13.0639 2.59803C13.0947 2.56186 13.1351 2.53513 13.1805 2.5209C13.2258 2.50667 13.2743 2.50553 13.3202 2.51761C13.3662 2.52969 13.4078 2.55449 13.4403 2.58917C14.171 3.3519 14.5888 4.36124 14.6107 5.41733C14.6139 5.83569 14.5567 6.25232 14.4409 6.65433L9.91476 7.04566L6.00144 6.65433Z" fill="#C74C5E"/>
<path d="M16.1718 6.65516H3.64914C3.43302 6.65516 3.25781 6.83036 3.25781 7.04649V7.82915C3.25781 8.04528 3.43302 8.22049 3.64914 8.22049H16.1718C16.3879 8.22049 16.5631 8.04528 16.5631 7.82915V7.04649C16.5631 6.83036 16.3879 6.65516 16.1718 6.65516Z" fill="#FFD37B"/>
</svg>
