<svg width="25" height="23" viewBox="0 0 25 23" fill="none" xmlns="http://www.w3.org/2000/svg">
<path d="M9.86526 5.32689C9.7885 5.25561 9.68657 5.21774 9.58189 5.22161C9.47721 5.22548 9.37835 5.27078 9.30706 5.34753L4.21002 10.8366L2.79321 11.6867L2.4933 9.58719L4.05453 3.34205C4.06753 3.29158 4.07042 3.23905 4.06302 3.18746C4.05563 3.13588 4.0381 3.08627 4.01145 3.04149C3.9848 2.99671 3.94955 2.95764 3.90773 2.92655C3.86591 2.89545 3.81836 2.87293 3.7678 2.86029C3.71725 2.84766 3.66469 2.84515 3.61316 2.85291C3.56163 2.86068 3.51214 2.87856 3.46756 2.90553C3.42297 2.9325 3.38416 2.96803 3.35336 3.01007C3.32256 3.05211 3.30039 3.09982 3.28811 3.15047L1.70806 9.47067C1.69566 9.52023 1.693 9.57172 1.70021 9.6223L2.08801 12.337L0.908854 22.5566C0.896849 22.6607 0.926675 22.7652 0.991771 22.8473C1.05687 22.9294 1.1519 22.9822 1.25597 22.9943C1.27116 22.996 1.28645 22.9969 1.30174 22.9969C1.39859 22.9968 1.49201 22.9611 1.56426 22.8966C1.63651 22.8321 1.68256 22.7433 1.69364 22.6471L2.85661 12.5701L4.66458 11.4852C4.69648 11.4661 4.72551 11.4426 4.75079 11.4153L9.88595 5.88514C9.92125 5.84712 9.94871 5.80253 9.96678 5.7539C9.98484 5.70528 9.99315 5.65357 9.99123 5.60173C9.98931 5.54989 9.97719 5.49894 9.95558 5.45178C9.93397 5.40462 9.90328 5.36218 9.86526 5.32689Z" fill="#AD6643"/>
<path d="M14.7303 20.6268L5.25 22.6018V20.6268L14.7303 18.6517V20.6268Z" fill="#7A4830"/>
<path d="M10.7812 20.6268L20.2615 22.6018V20.6268L10.7812 18.6517V20.6268Z" fill="#7A4830"/>
<path d="M6.8293 5.22147L4.45963 7.59114C4.13243 7.91834 4.13243 8.44883 4.45963 8.77603L6.43438 10.7508C6.76157 11.078 7.29207 11.078 7.61927 10.7508L9.98894 8.3811C10.3161 8.0539 10.3161 7.52341 9.98894 7.19621L8.01419 5.22147C7.687 4.89427 7.1565 4.89427 6.8293 5.22147Z" fill="#F7CCA9"/>
<path d="M5.25189 4.03622C5.04387 4.40028 4.44212 4.61887 4.06686 4.43124L2.48681 3.64121C2.13041 3.48849 1.99773 3.22739 2.09179 2.85119L2.88182 0.481111C3.01859 0.0252179 3.6319 -0.10721 4.06686 0.0860992L6.0275 0.876124C6.45787 1.06055 6.66446 1.65188 6.43693 2.06116L5.25189 4.03622Z" fill="#F7CCA9"/>
<path d="M15.6498 5.3268C15.7265 5.25552 15.8285 5.21765 15.9332 5.22152C16.0378 5.22539 16.1367 5.27068 16.208 5.34743L21.305 10.8365L22.7218 11.6866L23.0218 9.5871L21.4605 3.34196C21.4475 3.29149 21.4446 3.23896 21.452 3.18737C21.4594 3.13579 21.4769 3.08618 21.5036 3.0414C21.5302 2.99661 21.5655 2.95755 21.6073 2.92645C21.6491 2.89536 21.6967 2.87284 21.7472 2.8602C21.7978 2.84757 21.8504 2.84506 21.9019 2.85282C21.9534 2.86058 22.0029 2.87847 22.0475 2.90544C22.0921 2.93241 22.1309 2.96794 22.1617 3.00998C22.1925 3.05202 22.2147 3.09973 22.2269 3.15038L23.807 9.47057C23.8194 9.52013 23.8221 9.57163 23.8148 9.62221L23.427 12.3369L24.6062 22.5565C24.6126 22.6082 24.6087 22.6608 24.5947 22.711C24.5807 22.7612 24.5569 22.8082 24.5247 22.8492C24.4924 22.8902 24.4524 22.9244 24.4069 22.9498C24.3614 22.9752 24.3112 22.9914 24.2594 22.9974C24.2076 23.0034 24.1552 22.999 24.1051 22.9846C24.0549 22.9702 24.0082 22.946 23.9674 22.9135C23.9267 22.8809 23.8928 22.8406 23.8678 22.7949C23.8427 22.7491 23.827 22.6989 23.8214 22.6471L22.6585 12.57L20.8503 11.4851C20.8184 11.466 20.7893 11.4425 20.7641 11.4152L15.6289 5.88505C15.5936 5.84702 15.5662 5.80242 15.5481 5.75378C15.5301 5.70515 15.5218 5.65343 15.5237 5.6016C15.5257 5.54976 15.5378 5.49881 15.5594 5.45166C15.581 5.40451 15.6117 5.36208 15.6498 5.3268Z" fill="#AD6643"/>
<path d="M15.5223 8.38427L17.8919 10.7539C18.2191 11.0811 18.7496 11.0811 19.0768 10.7539L21.0516 8.77919C21.3788 8.45199 21.3788 7.9215 21.0516 7.59431L18.6819 5.22463C18.3547 4.89743 17.8242 4.89743 17.497 5.22463L15.5223 7.19938C15.1951 7.52657 15.1951 8.05707 15.5223 8.38427Z" fill="#F7CCA9"/>
<path d="M20.2631 4.03622C20.4711 4.40028 21.0729 4.61887 21.4481 4.43124L23.0282 3.64121C23.3846 3.48849 23.517 3.22739 23.4232 2.85119L22.6332 0.481111C22.4964 0.0252179 21.8831 -0.10721 21.4481 0.0860992L19.4874 0.876124C19.0571 1.06055 18.8505 1.65188 19.078 2.06116L20.2631 4.03622Z" fill="#F7CCA9"/>
<path d="M11.1757 17.0717C10.085 17.0717 8.80565 15.657 8.80565 13.9116C8.80565 13.8237 8.80812 13.603 8.81256 13.5166C8.30892 14.2691 8.01562 15.308 8.01562 16.2817C8.01562 17.5388 8.51503 18.7445 9.40398 19.6335C10.2929 20.5224 11.4986 21.0218 12.7558 21.0218C14.0129 21.0218 15.2186 20.5224 16.1076 19.6335C16.9965 18.7445 17.4959 17.5388 17.4959 16.2817C17.4959 15.0418 17.091 13.5714 16.3109 12.7265C16.0808 13.8963 15.2444 15.0966 14.3358 15.0966C13.2451 15.0966 12.3608 14.2538 12.3608 12.7265C12.3608 11.9587 13.1612 10.3631 13.1508 10.3678C8.80565 12.3315 11.1757 17.0717 11.1757 17.0717Z" fill="#EB423F"/>
<path d="M15.1224 20.3893C14.4672 20.7662 13.7315 20.9813 12.9764 21.0166C12.2213 21.0519 11.4688 20.9064 10.7812 20.5922C10.8129 18.6517 13.569 18.6379 13.1503 16.2816C13.1503 16.2816 15.037 17.0361 15.1224 20.3893Z" fill="#F7B030"/>
<path d="M12.7553 22.6026C13.4098 22.6026 13.9404 21.9836 13.9404 21.2201C13.9404 20.4565 13.4098 19.8375 12.7553 19.8375C12.1009 19.8375 11.5703 20.4565 11.5703 21.2201C11.5703 21.9836 12.1009 22.6026 12.7553 22.6026Z" fill="#AD6643"/>
<path d="M20.2588 22.6026C20.6951 22.6026 21.0488 22.1605 21.0488 21.6151C21.0488 21.0697 20.6951 20.6276 20.2588 20.6276C19.8225 20.6276 19.4688 21.0697 19.4688 21.6151C19.4688 22.1605 19.8225 22.6026 20.2588 22.6026Z" fill="#AD6643"/>
<path d="M5.25096 22.6026C5.68728 22.6026 6.04099 22.1605 6.04099 21.6151C6.04099 21.0697 5.68728 20.6276 5.25096 20.6276C4.81464 20.6276 4.46094 21.0697 4.46094 21.6151C4.46094 22.1605 4.81464 22.6026 5.25096 22.6026Z" fill="#AD6643"/>
</svg>
