<svg width="24" height="24" viewBox="0 0 24 24" fill="none" xmlns="http://www.w3.org/2000/svg">
<path d="M18.4727 2.02148L17.5742 2.69531L18.4727 3.36914V6.06445H6.34375V3.36914L7.04768 2.86018L6.34375 2.02148V0H11.7344L12.4082 0.934824L12.4307 0.96582L13.082 0H18.4727V2.02148Z" fill="#FF6C6C"/>
<path d="M18.4707 2.02148L17.5723 2.69531L18.4707 3.36914V6.06445H12.4062V0.934824L12.4287 0.96582L13.0801 0H18.4707V2.02148Z" fill="#E63950"/>
<path d="M18.4727 2.02148V3.36914H16.2266V6.06445H14.8789V3.36914H9.9375V6.06445H8.58984V3.36914H6.34375V2.02148H11.7344V0H13.082V2.02148H18.4727Z" fill="#FFD396"/>
<path d="M18.4707 2.02148V3.36914H16.2246V6.06445H14.877V3.36914H12.4062V0H13.0801V2.02148H18.4707Z" fill="#FFB64C"/>
<path d="M22.5117 8.75977V23H19.8164L12.4043 21.6074L4.99219 23H2.29688V8.75977H22.5117Z" fill="#FF6C6C"/>
<path d="M22.5137 8.75977V23H19.8184L12.4062 21.6074V8.75977H22.5137Z" fill="#E63950"/>
<path d="M19.8164 12.2188V23H4.99219V12.2188H7.53656C7.91885 12.2188 8.27957 12.1285 8.5801 11.9578C9.29301 11.5517 10.7381 10.8711 12.4043 10.8711C14.0704 10.8711 15.5156 11.5517 16.2285 11.9578C16.529 12.1285 16.8897 12.2188 17.272 12.2188H19.8164Z" fill="#61729B"/>
<path d="M19.8184 12.2188V23H12.4062V10.8711C14.0724 10.8711 15.5175 11.5517 16.2304 11.9578C16.531 12.1285 16.8917 12.2188 17.274 12.2188H19.8184Z" fill="#47568C"/>
<path d="M0.90625 5.39062V9.43359H23.9062V5.39062H0.90625Z" fill="#E63950"/>
<path d="M12.4062 5.39062H23.9062V9.43359H12.4062V5.39062Z" fill="#AE2538"/>
<path d="M12.3941 13.7637C12.1728 13.6792 12.1594 13.6811 11.0465 13.3082V14.637C11.0465 15.4811 10.5743 16.3058 9.75093 16.8997C8.70739 17.6526 8.18854 18.9149 8.39698 20.1943C8.65708 21.7953 10.148 23.0028 11.8645 23.0028H13.0114C14.9457 23.0028 16.4748 21.4089 16.4357 19.5038C16.3832 16.9442 14.7709 14.6707 12.3941 13.7637Z" fill="#FFD396"/>
<path d="M16.4479 19.501C16.487 21.4062 14.9578 23 13.0235 23H12.4062V13.7609C14.7831 14.6679 16.3953 16.9414 16.4479 19.501Z" fill="#FFB64C"/>
<path d="M13.4691 19.1325C12.9193 18.5184 12.9238 18.4717 12.4121 17.8846C11.9467 18.4699 11.8726 18.6159 11.1983 19.3284C10.7832 19.7673 10.3906 20.1823 10.3906 20.9752C10.3906 22.0897 11.2976 22.9967 12.4121 22.9967C13.5266 22.9967 14.4336 22.0897 14.4336 20.9752C14.4336 20.2093 14.1115 19.8495 13.4691 19.1325Z" fill="#FFB64C"/>
<path d="M13.4633 19.1358C12.9134 18.5217 12.9179 18.475 12.4062 17.8879V23C13.5208 23 14.4277 22.093 14.4277 20.9785C14.4277 20.2126 14.1056 19.8527 13.4633 19.1358Z" fill="#FF9100"/>
</svg>
