<svg width="30" height="23" viewBox="0 0 30 23" fill="none" xmlns="http://www.w3.org/2000/svg">
<g opacity="0.5">
<path d="M6.64346 14.0154C6.64346 13.2828 6.36953 12.4776 5.95077 11.8457L4.00246 10.8174L1.89613 12.0514C1.49604 12.2133 1.23645 12.6955 1.23645 13.4092C1.23645 14.6013 1.96103 15.986 2.85525 16.5022C3.27652 16.7454 3.66044 16.7522 3.94827 16.5666C3.94827 16.5666 3.94827 16.5666 3.94804 16.5669L6.01635 15.3595L6.01202 15.3502C6.39366 15.1756 6.64346 14.7092 6.64346 14.0154Z" fill="#CECECE"/>
<path d="M17.6281 20.3191C17.6281 19.6104 17.3719 18.8337 16.9761 18.2118C16.9761 18.2118 15.0121 17.1206 14.9914 17.1311L14.9871 17.1211L12.8807 18.3551C12.881 18.3548 12.8814 18.3548 12.8816 18.3548C12.4811 18.5163 12.2208 18.9988 12.2208 19.7129C12.2208 20.905 12.9456 22.2897 13.8399 22.8059C14.2611 23.0491 14.6448 23.0559 14.9329 22.8704L17.0007 21.6633L16.9966 21.6539C17.3783 21.4793 17.6281 21.0129 17.6281 20.3191Z" fill="#CECECE"/>
<path d="M29.8456 14.2221C29.818 13.5358 29.2984 12.8747 28.4561 12.8747L12.9138 3.9013L11.7664 2.57648C9.42507 -0.126917 5.49454 -0.78842 2.3972 0.9998C0.79047 1.9275 -0.0497857 3.61575 0.00281572 5.30742V6.75316L0.00577597 6.75408C0.03424 7.8143 0.409281 8.87703 1.17052 9.75623L2.06224 10.7857C2.3865 11.1603 2.77133 11.4782 3.20034 11.7257L17.7705 20.1378C17.9827 20.2603 18.2236 20.325 18.4686 20.325C21.6177 20.325 24.7109 19.4961 27.438 17.9217L29.1504 16.9332C29.6438 16.6481 29.8542 16.1752 29.8422 15.7107L29.8467 15.712V14.2226L29.8456 14.2221Z" fill="#2E373D"/>
<path d="M4.47406 15.2785C4.47406 16.4706 3.74925 17.0185 2.85525 16.5022C1.96126 15.9862 1.23645 14.6013 1.23645 13.4092C1.23645 12.2172 1.96126 11.6693 2.85525 12.1855C3.74925 12.7017 4.47406 14.0864 4.47406 15.2785Z" fill="#EDEDED"/>
<path d="M3.65138 14.8038C3.65138 15.39 3.29501 15.6593 2.85553 15.4054C2.41582 15.1518 2.05945 14.4709 2.05945 13.8848C2.05945 13.2987 2.41582 13.0293 2.85553 13.2829C3.29501 13.5368 3.65138 14.2177 3.65138 14.8038Z" fill="#CECECE"/>
<path d="M3.28719 14.5933C3.28719 14.9112 3.09386 15.0574 2.85545 14.9196C2.61703 14.7821 2.42371 14.4128 2.42371 14.0949C2.42371 13.777 2.61703 13.631 2.85545 13.7686C3.09386 13.9063 3.28719 14.2754 3.28719 14.5933Z" fill="#627681"/>
<path d="M15.4587 21.5822C15.4587 22.7743 14.7339 23.3222 13.8399 22.8062C12.9456 22.29 12.2208 20.9052 12.2208 19.7129C12.2208 18.5209 12.9456 17.973 13.8399 18.4892C14.7339 19.0054 15.4587 20.3902 15.4587 21.5822Z" fill="#EDEDED"/>
<path d="M14.6361 21.1066C14.6361 21.6927 14.2798 21.9621 13.84 21.7082C13.4006 21.4545 13.0442 20.7737 13.0442 20.1875C13.0442 19.6014 13.4006 19.332 13.84 19.5857C14.2798 19.8396 14.6361 20.5204 14.6361 21.1066Z" fill="#CECECE"/>
<path d="M14.2718 20.8961C14.2718 21.214 14.0785 21.3601 13.8403 21.2226C13.6019 21.0848 13.4086 20.7155 13.4086 20.3976C13.4086 20.0797 13.6019 19.9338 13.8403 20.0713C14.0787 20.2091 14.2718 20.5782 14.2718 20.8961Z" fill="#627681"/>
<path d="M29.8452 14.2221C29.8641 14.6933 29.6508 15.1763 29.15 15.4652L27.4378 16.4537C24.7108 18.0283 21.6175 18.8572 18.4685 18.8572C18.2235 18.8572 17.9826 18.7925 17.7703 18.67L3.20021 10.2579C2.7712 10.0102 2.38637 9.6925 2.06211 9.31791L1.17039 8.2882C0.40232 7.40149 0.0250013 6.32737 0.00268555 5.25781V6.7532L0.0056458 6.75411C0.0341098 7.81456 0.409151 8.87729 1.17039 9.75626L2.06211 10.786C2.38637 11.1603 2.7712 11.4782 3.20021 11.726L17.7703 20.1379C17.9826 20.2606 18.2235 20.325 18.4685 20.325C21.6175 20.325 24.7108 19.4962 27.4378 17.9218L29.1502 16.9333C29.6437 16.6484 29.8541 16.1752 29.842 15.7107L29.8466 15.7121V14.2226L29.8452 14.2221Z" fill="#E7934A"/>
<path d="M11.7664 2.57669C9.42502 -0.12693 5.49449 -0.788432 2.39716 0.999788C-0.209914 2.50496 -0.80037 6.01263 1.17047 8.28816L2.06219 9.31787C2.22956 9.51142 2.41446 9.6879 2.61189 9.84935L12.9136 3.90152L11.7664 2.57669Z" fill="#525E65"/>
<path d="M18.4687 18.8572C21.6175 18.8572 24.711 18.0283 27.4378 16.4539L29.1502 15.4652C30.3801 14.7552 29.8764 12.875 28.4562 12.875L18.1641 18.8169C18.264 18.8395 18.3654 18.8572 18.4687 18.8572Z" fill="#525E65"/>
</g>
</svg>
