<svg width="24" height="24" viewBox="0 0 24 24" fill="none" xmlns="http://www.w3.org/2000/svg">
<g clip-path="url(#clip0_656_103423)">
<path d="M18.5537 8.56012L9.70742 17.4064L9.10227 17.487L8.66398 18.4498L7.0557 20.0581L6.53961 20.0239L6.01227 21.1015L3.36477 23.749C3.22742 23.8864 3.04742 23.9548 2.86742 23.9548C2.68742 23.9548 2.50742 23.8864 2.37008 23.749L1.30977 22.6887H1.3093L0.248984 21.6279C-0.0257031 21.3532 -0.0257031 20.9079 0.248984 20.6332L3.88789 16.9943L4.66602 16.6648L4.93133 15.9509L6.53961 14.3426L7.23523 14.112L7.58305 13.2992L15.4379 5.44434L16.996 7.00246L18.5537 8.56012Z" fill="#FC90B4"/>
<path d="M18.5525 5.44434V8.56012L9.70625 17.4064L9.10109 17.487L8.66281 18.4498L7.05453 20.0581L6.53844 20.0239L6.01109 21.1015L3.36359 23.749C3.22625 23.8864 3.04625 23.9548 2.86625 23.9548C2.68625 23.9548 2.50625 23.8864 2.36891 23.749L1.30859 22.6887L16.9948 7.00246L18.5525 5.44434Z" fill="#EF6391"/>
<path d="M23.747 9.7969L20.5061 6.55644L22.5241 2.41362C22.6553 2.14409 22.6014 1.82065 22.3891 1.60878C22.1772 1.39644 21.8538 1.34253 21.5842 1.47378L17.4414 3.49175L14.2009 0.250811C13.997 0.0469046 13.6891 -0.0116892 13.4247 0.102686C13.1599 0.21753 12.992 0.481905 13.0009 0.770186L13.135 5.01003L9.13329 7.72081C8.90313 7.87644 8.78641 8.153 8.83516 8.42581C8.88391 8.69909 9.08829 8.91847 9.35782 8.9855L13.8869 10.111L15.0123 14.64C15.0794 14.9096 15.2988 15.1139 15.572 15.1627C15.6128 15.1702 15.6541 15.1735 15.6948 15.1735C15.9255 15.1735 16.1449 15.06 16.277 14.8646L18.9878 10.8628L23.2277 10.9969C23.5155 11.0058 23.7803 10.838 23.8952 10.5732C24.0095 10.3088 23.9509 10.0008 23.747 9.7969Z" fill="#FFD953"/>
<path d="M13.8867 10.1111L15.0122 14.6401C15.0792 14.9097 15.2986 15.114 15.5719 15.1628C15.6127 15.1703 15.6539 15.1736 15.6947 15.1736C15.9253 15.1736 16.1447 15.0601 16.2769 14.8647L18.9877 10.8629L23.2275 10.997C23.5153 11.0059 23.7802 10.8381 23.895 10.5733C24.0094 10.3089 23.9508 10.0009 23.7469 9.79701L20.5059 6.55654L22.5239 2.41373C22.6552 2.1442 22.6012 1.82076 22.3889 1.60889L13.8867 10.1111Z" fill="#FDC125"/>
<path d="M21.7969 19.5454C20.5819 19.5454 19.5938 20.5335 19.5938 21.7485C19.5938 22.9635 20.5819 23.9517 21.7969 23.9517C23.0119 23.9517 24 22.9635 24 21.7485C24 20.5335 23.0119 19.5454 21.7969 19.5454Z" fill="#FABE2C"/>
<path d="M4.875 1.35742H4.26562V0.748047C4.26562 0.359734 3.95081 0.0449219 3.5625 0.0449219C3.17419 0.0449219 2.85938 0.359734 2.85938 0.748047V1.35742H2.25C1.86169 1.35742 1.54688 1.67223 1.54688 2.06055C1.54688 2.44886 1.86169 2.76367 2.25 2.76367H2.85938V3.37305C2.85938 3.76136 3.17419 4.07617 3.5625 4.07617C3.95081 4.07617 4.26562 3.76136 4.26562 3.37305V2.76367H4.875C5.26331 2.76367 5.57812 2.44886 5.57812 2.06055C5.57812 1.67223 5.26331 1.35742 4.875 1.35742Z" fill="#FED843"/>
<path d="M9.70687 17.406L8.66344 18.4495L6.53906 14.3423L7.5825 13.2988L9.70687 17.406Z" fill="#FED843"/>
<path d="M8.66398 18.4496L9.70742 17.4061L8.64523 15.3525L7.60156 16.3962L8.66398 18.4496Z" fill="#FABE2C"/>
<path d="M7.05453 20.0579L6.01109 21.1013L3.88672 16.9941L4.93016 15.9507L7.05453 20.0579Z" fill="#FED843"/>
<path d="M6.01117 21.1017L7.0546 20.0582L5.99265 18.0044L4.94922 19.0478L6.01117 21.1017Z" fill="#FABE2C"/>
<path d="M0.703125 6.32616C1.09145 6.32616 1.40625 6.01137 1.40625 5.62304C1.40625 5.23472 1.09145 4.91992 0.703125 4.91992C0.3148 4.91992 0 5.23472 0 5.62304C0 6.01137 0.3148 6.32616 0.703125 6.32616Z" fill="#FFD953"/>
<path d="M6 10.0762C6.38833 10.0762 6.70312 9.76137 6.70312 9.37305C6.70312 8.98472 6.38833 8.66992 6 8.66992C5.61167 8.66992 5.29688 8.98472 5.29688 9.37305C5.29688 9.76137 5.61167 10.0762 6 10.0762Z" fill="#D599ED"/>
<path d="M9 3.70117C9.38833 3.70117 9.70312 3.38637 9.70312 2.99805C9.70312 2.60972 9.38833 2.29492 9 2.29492C8.61167 2.29492 8.29688 2.60972 8.29688 2.99805C8.29688 3.38637 8.61167 3.70117 9 3.70117Z" fill="#FC90B4"/>
<path d="M15.375 20.2017C15.7633 20.2017 16.0781 19.8869 16.0781 19.4985C16.0781 19.1102 15.7633 18.7954 15.375 18.7954C14.9867 18.7954 14.6719 19.1102 14.6719 19.4985C14.6719 19.8869 14.9867 20.2017 15.375 20.2017Z" fill="#FFD953"/>
<path d="M20.625 16.0761C21.0133 16.0761 21.328 15.7613 21.328 15.373C21.328 14.9847 21.0133 14.6699 20.625 14.6699C20.2367 14.6699 19.9219 14.9847 19.9219 15.373C19.9219 15.7613 20.2367 16.0761 20.625 16.0761Z" fill="#FFD953"/>
</g>
<defs>
<clipPath id="clip0_656_103423">
<rect width="24" height="24" fill="white"/>
</clipPath>
</defs>
</svg>
