<svg width="23" height="23" viewBox="0 0 23 23" fill="none" xmlns="http://www.w3.org/2000/svg">
<g opacity="0.5">
<g clip-path="url(#clip0_1585_26457)">
<path d="M19.8338 3.5726L18.6441 4.36574L16.6612 3.96917L15.4714 3.5726L13.8851 3.96917L12.6953 3.5726L13.4885 1.98627H15.0748L16.6294 1.20898C17.8283 1.80186 18.913 2.60215 19.8338 3.5726Z" fill="#473737"/>
<path d="M10.7098 1.98603L10.3132 3.17579L9.12347 3.57236L7.93371 5.55526L5.95081 6.74502L3.17477 7.14159V8.33135L3.96791 9.12449V10.7108L2.77824 9.91763L1.58848 9.12449L0.898438 7.0504C2.08617 4.21995 4.35662 1.98244 7.20404 0.835938L8.33033 1.58946L10.7098 1.98603Z" fill="#473737"/>
<path d="M11.5 13.0907L11.1035 15.0736L9.51715 16.6599V17.8497L7.93082 19.0394V21.0223L6.74111 20.6257L5.94792 18.6428V14.677L3.96502 14.2805L3.17188 12.6941V11.5044L3.96502 10.7112L5.15478 9.52148L5.94792 11.1078H8.72396L9.91372 13.0907H11.5Z" fill="#473737"/>
<path d="M21.5371 5.88401C23.7021 9.74631 23.4554 14.5088 20.9026 18.1264L19.8319 17.0556V15.4693L19.0387 13.883L18.2456 12.2967V10.7103L17.0558 9.91719L15.4695 10.3138L12.6934 9.124L12.2969 6.34796L13.4866 5.1582H15.8661L16.6592 6.34796L19.0387 6.74453L21.4182 5.95139L21.5371 5.88401Z" fill="#473737"/>
<path d="M13.8787 3.96768L15.465 3.57111L16.6548 3.96768L18.6377 4.36426L19.8274 3.57111C20.4917 4.26633 21.0648 5.04321 21.5327 5.88316L21.4138 5.95059L19.0343 6.74373L16.6548 6.34716L15.8617 5.1574H13.4822L12.2924 6.34716L12.689 9.1232L15.4651 10.313L17.0514 9.91639L18.2411 10.7095V12.2959L19.0343 13.8822L19.8274 15.4685V17.0548L20.8982 18.1256C17.2358 23.3153 10.0596 24.553 4.87039 20.8906C0.463189 17.7798 -1.19016 12.0242 0.894664 7.04911L1.58471 9.1232L2.77447 9.91634L3.96423 10.7095L3.17104 11.5027V12.6924L3.96418 14.2788L5.94708 14.6753V18.6411L6.74022 20.624L7.92998 21.0206V19.0377L9.51631 17.8479V16.6582L11.1026 15.0719L11.4992 13.089H9.91288L8.72313 11.1061H5.94708L5.15394 9.51972L3.96423 10.7095L3.96418 9.12315L3.17104 8.33006V7.1403L5.94708 6.74373L7.92998 5.55397L9.11974 3.57107L10.3095 3.1745L10.7061 1.98474L8.3266 1.58817L7.20032 0.834647C10.25 -0.393565 13.6796 -0.257945 16.6231 1.20745L15.0684 1.98474H13.4821L12.689 3.57107L13.8787 3.96768Z" fill="#686868"/>
</g>
</g>
<defs>
<clipPath id="clip0_1585_26457">
<rect width="23" height="23" fill="white"/>
</clipPath>
</defs>
</svg>
