<svg width="24" height="24" viewBox="0 0 24 24" fill="none" xmlns="http://www.w3.org/2000/svg">
<path d="M19.5574 10.2111C19.5574 12.3482 19.8876 14.3317 18.765 15.9716C17.5044 17.8137 15.6561 19.2215 13.4898 19.9246C12.4958 20.2476 11.4352 19.9754 10.3331 19.9754C9.23149 19.9754 8.17052 20.2476 7.17654 19.9246C5.82794 19.487 4.60258 18.7757 3.56505 17.8573C1.45338 15.9864 1.76636 13.2543 1.76636 10.2111C1.76636 6.89016 1.70735 3.9398 4.16252 2.07511C5.87641 0.772922 8.0148 0 10.3331 0C13.3291 0 16.0238 1.29023 17.8923 3.34561C19.5396 5.15939 19.5574 7.56773 19.5574 10.2111V10.2111Z" fill="#B1E4F9"/>
<path d="M12.7382 20.137C11.9669 20.3236 11.1616 20.112 10.3332 20.112C9.23146 20.112 8.17049 20.2478 7.17646 19.9249C5.82786 19.487 4.60232 18.776 3.56511 17.8572C1.45325 15.9865 1.76638 13.2542 1.76638 10.2111C1.76638 6.8903 1.70727 3.9397 4.1623 2.07478C5.87638 0.772781 8.01449 0 10.3332 0C11.1615 0 11.9669 0.098625 12.7382 0.285188C8.25932 1.36589 4.93176 5.40019 4.93176 10.2111C4.93176 15.022 8.25932 19.0563 12.7382 20.137V20.137Z" fill="#90D8F9"/>
<path d="M2.81092 8.38799C3.24648 8.38799 3.64094 8.56466 3.92655 8.85027C4.21211 9.13584 4.38883 9.53076 4.38883 9.96632C4.38883 10.8379 3.68247 11.5446 2.81092 11.5446H6.45897C6.89495 11.5446 7.28941 11.7213 7.57502 12.0069C7.86058 12.2925 8.0373 12.687 8.0373 13.123C8.0373 13.9945 7.33094 14.7013 6.45897 14.7013H5.18842C5.53975 14.7013 5.86436 14.8163 6.12653 15.0103C6.18939 15.0567 6.24897 15.108 6.30447 15.1635C6.53336 15.392 6.69194 15.6903 6.74622 16.0244C6.75977 16.107 6.76675 16.1924 6.76675 16.2792C6.76675 17.1511 6.05997 17.8574 5.18847 17.8574H3.56411C1.45244 15.9865 0.121094 13.2544 0.121094 10.2112C0.121094 6.89024 1.70636 3.93988 4.16158 2.0752H6.23378C6.66934 2.0752 7.06422 2.25187 7.34983 2.53748C7.52692 2.71457 7.66211 2.93362 7.73894 3.17849C7.78661 3.32807 7.81206 3.48791 7.81206 3.65352C7.81206 4.52507 7.10528 5.23143 6.23378 5.23143H7.31983C7.75581 5.23143 8.15027 5.4081 8.43588 5.69371C8.72144 5.97927 8.89816 6.3742 8.89816 6.80976C8.89816 7.68173 8.1918 8.38809 7.31988 8.38809H2.81092V8.38799Z" fill="#9BD069"/>
<path d="M6.74622 16.0243C6.75977 16.1069 6.76675 16.1924 6.76675 16.2791C6.76675 17.151 6.05997 17.8573 5.18847 17.8573H3.56411C1.45244 15.9865 0.121094 13.2544 0.121094 10.2112C0.121094 6.89024 1.70636 3.93988 4.16158 2.0752H6.23378C6.66934 2.0752 7.06422 2.25187 7.34983 2.53748C7.52692 2.71457 7.66211 2.93362 7.73894 3.17849C6.39611 4.59163 5.45345 6.38854 5.09308 8.38799H2.81092C3.24648 8.38799 3.64094 8.56466 3.92655 8.85027C4.21211 9.13584 4.38883 9.53076 4.38883 9.96632C4.38883 10.8379 3.68247 11.5446 2.81092 11.5446H5.01709C5.16297 12.664 5.49044 13.7262 5.96833 14.7013H5.18842C5.53975 14.7013 5.86436 14.8163 6.12653 15.0103C6.31352 15.3611 6.52061 15.6997 6.74622 16.0243V16.0243Z" fill="#6EC17D"/>
<path d="M20.5431 10.2112C20.5431 12.3483 19.8865 14.3318 18.7638 15.9717H16.7894C16.3534 15.9717 15.959 15.795 15.6734 15.5094C15.3878 15.2239 15.2111 14.8294 15.2111 14.3934C15.2111 13.5218 15.9175 12.8151 16.7894 12.8151H18.8185C18.3825 12.8151 17.9881 12.6384 17.7025 12.3528C17.4169 12.0676 17.2402 11.6732 17.2402 11.2372C17.2402 10.3652 17.947 9.65892 18.8185 9.65892H15.9281C15.4921 9.65892 15.0977 9.48225 14.8125 9.19664C14.5269 8.91108 14.3502 8.51658 14.3502 8.08059C14.3502 7.20905 15.0565 6.50231 15.9281 6.50231H14.801C14.3654 6.50231 13.9705 6.32564 13.6849 6.04003C13.3994 5.75447 13.2227 5.35997 13.2227 4.92398C13.2227 4.05244 13.9294 3.3457 14.801 3.3457H17.891C19.5384 5.15948 20.5431 7.56783 20.5431 10.2112V10.2112Z" fill="#9BD069"/>
<path d="M13.489 19.5559V19.924C13.2424 20.0041 12.9918 20.0752 12.7374 20.1365C12.7354 20.1369 12.7333 20.1373 12.7313 20.1381C11.962 20.3234 11.1591 20.4216 10.3324 20.4216C9.23073 20.4216 8.16976 20.247 7.17578 19.924V19.5559C7.17578 19.1199 7.35245 18.7254 7.63806 18.4398C7.87431 18.2036 8.185 18.042 8.53178 17.9931C8.60453 17.9829 8.67845 17.9775 8.75406 17.9775C9.50274 17.9775 10.1298 18.4986 10.2917 19.1979C10.3184 19.313 10.3324 19.433 10.3324 19.5558C10.3324 19.4465 10.3435 19.3397 10.3644 19.237C10.512 18.5179 11.1485 17.9775 11.9107 17.9775C12.7822 17.9776 13.489 18.6839 13.489 19.5559V19.5559Z" fill="#F6F9F9"/>
<path d="M12.7375 20.1365C12.7354 20.1369 12.7333 20.1373 12.7313 20.1381C11.9621 20.3234 11.1591 20.4217 10.3324 20.4217C9.23074 20.4217 8.16977 20.247 7.17578 19.924V19.5559C7.17578 19.1199 7.35245 18.7254 7.63806 18.4398C7.87431 18.2036 8.185 18.0421 8.53178 17.9932C9.07296 18.453 9.66218 18.8577 10.2917 19.1979C10.3184 19.313 10.3324 19.433 10.3324 19.5558C10.3324 19.4465 10.3435 19.3397 10.3645 19.237C11.1062 19.6302 11.9017 19.9347 12.7375 20.1365Z" fill="#DDDAEC"/>
<path d="M23.4772 23.6012C22.945 24.1334 22.0821 24.1334 21.5499 23.6012L17.6055 19.6568L19.5328 17.7295L23.4772 21.6739C24.0094 22.2061 24.0094 23.069 23.4772 23.6012Z" fill="#FFD03B"/>
<path d="M23.7943 23.1026C23.7289 23.2846 23.623 23.4552 23.4774 23.6007C22.945 24.1332 22.0823 24.1332 21.5499 23.6007L17.6055 19.6563L18.421 18.8408L22.3654 22.7853C22.7518 23.1717 23.3128 23.2779 23.7943 23.1026V23.1026Z" fill="#DAAA13"/>
<path d="M16.4599 22.2324C19.5789 22.2324 22.1074 19.704 22.1074 16.585C22.1074 13.466 19.5789 10.9375 16.4599 10.9375C13.3409 10.9375 10.8125 13.466 10.8125 16.585C10.8125 19.704 13.3409 22.2324 16.4599 22.2324Z" fill="#FFD03B"/>
<path d="M16.4593 20.3531C18.5402 20.3531 20.2271 18.6662 20.2271 16.5852C20.2271 14.5043 18.5402 12.8174 16.4593 12.8174C14.3783 12.8174 12.6914 14.5043 12.6914 16.5852C12.6914 18.6662 14.3783 20.3531 16.4593 20.3531Z" fill="#F6F9F9"/>
<path d="M16.4581 20.7151C15.355 20.7151 14.3178 20.2855 13.5378 19.5055C12.7577 18.7254 12.3281 17.6883 12.3281 16.5851C12.3281 15.4819 12.7577 14.4448 13.5378 13.6647C14.3178 12.8847 15.355 12.4551 16.4581 12.4551C17.5613 12.4551 18.5985 12.8847 19.3785 13.6647C20.1585 14.4448 20.5882 15.4819 20.5882 16.5851C20.5882 17.6883 20.1585 18.7254 19.3785 19.5055C18.5985 20.2855 17.5613 20.7151 16.4581 20.7151ZM16.4581 13.1794C15.5485 13.1794 14.6933 13.5337 14.05 14.1769C13.4067 14.8202 13.0525 15.6754 13.0525 16.5851C13.0525 17.4948 13.4067 18.35 14.05 18.9933C14.6933 19.6365 15.5485 19.9908 16.4581 19.9908C17.3678 19.9908 18.223 19.6365 18.8663 18.9933C19.5096 18.35 19.8638 17.4948 19.8638 16.5851C19.8638 15.6754 19.5096 14.8202 18.8663 14.1769C18.223 13.5337 17.3678 13.1794 16.4581 13.1794Z" fill="#DAAA13"/>
</svg>
