<svg width="24" height="24" viewBox="0 0 24 24" fill="none" xmlns="http://www.w3.org/2000/svg">
<g clip-path="url(#clip0_656_126354)">
<path d="M20.6992 3.4502H17.9492V8.2502H20.6992V3.4502Z" fill="#F05540"/>
<path d="M21.7485 1H16.8984V3.60002H21.7485V1Z" fill="#F3705A"/>
<path d="M2.10156 12.9494V23.9994H21.7015V12.9494C17.8516 9.09944 15.7015 6.94943 11.9015 3.14941C8.10156 6.9994 5.95155 9.14941 2.10156 12.9494Z" fill="#FFD15C"/>
<path d="M21.7516 12.9494C17.9016 9.09945 15.7516 6.94943 11.9515 3.14941C10.0015 5.0494 8.50155 6.5494 7.00155 8.0494C5.50155 9.5494 4.00155 11.0494 2.10156 12.9494V15.1994C5.95155 11.3494 8.10156 9.19938 11.9016 5.39937C15.7516 9.24935 17.9016 11.3994 21.7016 15.1994V15.4994V12.9494H21.7516V12.9494Z" fill="#F7B64C"/>
<path d="M10.15 24H4.25V18.2C4.25 16.55 5.6 15.25 7.19999 15.25C8.84999 15.25 10.15 16.6 10.15 18.2V24Z" fill="#415A6B"/>
<path d="M19.5985 15.25H11.8984V22H19.5985V15.25Z" fill="#344A5E"/>
<path d="M15.3492 16.0498H12.6992V21.1998H15.3492V16.0498Z" fill="#8AD7F8"/>
<path d="M18.7984 16.0498H16.1484V21.1998H18.7984V16.0498Z" fill="#8AD7F8"/>
<path d="M23.55 10.9L13.1 0.45C12.5 -0.15 11.45 -0.15 10.85 0.45L0.45 10.9C-0.15 11.5 -0.15 12.55 0.45 13.15C1.05 13.75 2.1 13.75 2.7 13.15L12 3.84998L21.3 13.15C21.9 13.75 22.95 13.75 23.55 13.15C24.15 12.5 24.15 11.5 23.55 10.9Z" fill="#F3705A"/>
</g>
<defs>
<clipPath id="clip0_656_126354">
<rect width="24" height="24" fill="white"/>
</clipPath>
</defs>
</svg>
