<svg width="19" height="24" viewBox="0 0 19 24" fill="none" xmlns="http://www.w3.org/2000/svg">
<path d="M10.9223 17.1621C10.6611 17.1621 10.2335 17.1621 9.97228 17.1621H9.02792C8.76665 17.1621 8.33912 17.1621 8.07785 17.1621H4.27191C4.01064 17.1621 3.79688 17.3759 3.79688 17.6371V23.3375C3.79688 23.5988 4.01064 23.8125 4.27191 23.8125H14.7226C14.9839 23.8125 15.1976 23.5988 15.1976 23.3375V17.6371C15.1976 17.3759 14.9839 17.1621 14.7226 17.1621H10.9223Z" fill="#656D78"/>
<path d="M3.32522 9.08831C1.49208 9.08831 0 7.59625 0 5.76311C0 5.50042 0.212339 5.28809 0.475032 5.28809C0.737725 5.28809 0.950064 5.50042 0.950064 5.76311C0.950064 7.07277 2.01556 8.13826 3.32522 8.13826C3.58792 8.13826 3.80026 8.3506 3.80026 8.61329C3.80026 8.87598 3.58792 9.08831 3.32522 9.08831Z" fill="#F6BB42"/>
<path d="M0.475031 6.23759C0.212339 6.23759 0 6.02525 0 5.76256V1.96136C0 1.69867 0.212339 1.48633 0.475031 1.48633C0.737723 1.48633 0.950062 1.69867 0.950062 1.96136V5.76256C0.950062 6.02525 0.737723 6.23759 0.475031 6.23759Z" fill="#F6BB42"/>
<path d="M3.32141 2.43639H0.47503C0.212338 2.43639 0 2.22405 0 1.96136C0 1.69867 0.212338 1.48633 0.47503 1.48633H3.32141C3.5841 1.48633 3.79644 1.69867 3.79644 1.96136C3.79644 2.22405 3.5841 2.43639 3.32141 2.43639Z" fill="#F6BB42"/>
<path d="M3.62159 9.08774H3.32659C3.0639 9.08774 2.85156 8.8754 2.85156 8.61272C2.85156 8.35003 3.0639 8.1377 3.32659 8.1377H3.62159C3.88428 8.1377 4.09662 8.35003 4.09662 8.61272C4.09662 8.8754 3.88428 9.08774 3.62159 9.08774Z" fill="#F6BB42"/>
<path d="M15.6742 9.08831C15.4116 9.08831 15.1992 8.87598 15.1992 8.61329C15.1992 8.3506 15.4116 8.13826 15.6742 8.13826C16.9839 8.13826 18.0494 7.07277 18.0494 5.76311C18.0494 5.50042 18.2617 5.28809 18.5244 5.28809C18.7871 5.28809 18.9995 5.50042 18.9995 5.76311C18.9995 7.59625 17.5074 9.08831 15.6742 9.08831Z" fill="#F6BB42"/>
<path d="M18.5258 6.23759C18.2631 6.23759 18.0508 6.02525 18.0508 5.76256V1.96136C18.0508 1.69867 18.2631 1.48633 18.5258 1.48633C18.7885 1.48633 19.0008 1.69867 19.0008 1.96136V5.76256C19.0008 6.02525 18.7885 6.23759 18.5258 6.23759Z" fill="#F6BB42"/>
<path d="M18.5245 2.43639H15.6782C15.4155 2.43639 15.2031 2.22405 15.2031 1.96136C15.2031 1.69867 15.4155 1.48633 15.6782 1.48633H18.5245C18.7872 1.48633 18.9996 1.69867 18.9996 1.96136C18.9996 2.22405 18.7872 2.43639 18.5245 2.43639Z" fill="#F6BB42"/>
<path d="M15.6724 9.08774H15.3774C15.1147 9.08774 14.9023 8.8754 14.9023 8.61272C14.9023 8.35003 15.1147 8.1377 15.3774 8.1377H15.6724C15.9351 8.1377 16.1474 8.35003 16.1474 8.61272C16.1474 8.8754 15.9351 9.08774 15.6724 9.08774Z" fill="#F6BB42"/>
<path d="M10.4452 12.8154V17.162H8.55078V12.8154C8.8586 12.8634 9.1726 12.8867 9.49514 12.8867C9.81911 12.8867 10.1374 12.8629 10.4452 12.8154Z" fill="#F6BB42"/>
<path d="M9.49862 3.3916C11.0715 3.3916 12.3488 4.66943 12.3488 6.24178C12.3488 7.8146 11.0715 9.09195 9.49862 9.09195C7.92675 9.09195 6.64844 7.8146 6.64844 6.24178C6.64844 4.66943 7.92722 3.3916 9.49862 3.3916Z" fill="#F6BB42"/>
<path d="M15.6768 1.96094V6.71125C15.6768 7.37155 15.5718 8.01284 15.3771 8.61138C14.674 10.8013 12.7739 12.4544 10.4458 12.8154C10.138 12.8634 9.81969 12.8867 9.49571 12.8867C9.17269 12.8867 8.85917 12.8629 8.55135 12.8154C6.2237 12.4591 4.32785 10.8018 3.62006 8.61138C3.42529 8.01284 3.32031 7.37155 3.32031 6.71125V1.96094V1.01562H4.27608H14.7268H15.6768V1.96094ZM12.3459 6.24097C12.3459 4.66862 11.0685 3.39078 9.49571 3.39078C7.92384 3.39078 6.64553 4.66862 6.64553 6.24097C6.64553 7.8138 7.92384 9.09116 9.49571 9.09116C11.0685 9.09116 12.3459 7.81333 12.3459 6.24097Z" fill="#FFCE54"/>
<path d="M12.8262 19.5375V21.4377C12.5597 21.4377 12.3512 21.6514 12.3512 21.9127H6.65081C6.65081 21.6514 6.43657 21.4377 6.17578 21.4377V19.5375C6.43657 19.5375 6.65081 19.3238 6.65081 19.0625H12.3512C12.3512 19.3238 12.5597 19.5375 12.8262 19.5375Z" fill="#FFCE54"/>
<path d="M15.2008 1.4901H3.79534C3.53265 1.4901 3.32031 1.27776 3.32031 1.01507C3.32031 0.752378 3.53265 0.540039 3.79534 0.540039H15.2008C15.4635 0.540039 15.6758 0.752378 15.6758 1.01507C15.6758 1.27776 15.4635 1.4901 15.2008 1.4901Z" fill="#FFCE54"/>
<path d="M9.49848 7.18723C9.23578 7.18723 9.02344 6.97489 9.02344 6.7122V5.76214C9.02344 5.49945 9.23578 5.28711 9.49848 5.28711C9.76117 5.28711 9.97352 5.49945 9.97352 5.76214V6.7122C9.97352 6.97489 9.76117 7.18723 9.49848 7.18723Z" fill="#FFCE54"/>
</svg>
