<svg width="24" height="23" viewBox="0 0 24 23" fill="none" xmlns="http://www.w3.org/2000/svg">
<path d="M19.1002 13.7186C18.7894 14.0092 18.6466 14.4295 18.7174 14.8417L19.7841 20.5381C19.8741 21.021 19.6629 21.5096 19.2441 21.7886C18.8338 22.078 18.2879 22.1128 17.8403 21.8812L12.5262 19.2067C12.3414 19.1117 12.1363 19.0608 11.9263 19.055H11.6011C11.4883 19.0712 11.378 19.1059 11.2772 19.1592L5.96187 21.8465C5.69911 21.9738 5.40155 22.019 5.10998 21.9738C4.39968 21.8442 3.92574 21.1912 4.04212 20.5023L5.10998 14.8058C5.18077 14.3901 5.03799 13.9675 4.72723 13.6723L0.394599 9.61993C0.0322468 9.28069 -0.0937368 8.77125 0.0718416 8.3116C0.232621 7.8531 0.642967 7.51849 1.1385 7.44323L7.10172 6.60845C7.55526 6.56329 7.95361 6.297 8.15759 5.90334L10.7852 0.704737C10.8476 0.588955 10.928 0.482436 11.0252 0.392127L11.1332 0.311079C11.1896 0.250873 11.2544 0.201087 11.3264 0.160563L11.4572 0.11425L11.6611 0.0332031H12.1663C12.6174 0.078358 13.0146 0.338867 13.2221 0.727894L15.8846 5.90334C16.0766 6.28194 16.4497 6.54477 16.8804 6.60845L22.8437 7.44323C23.3476 7.5127 23.7687 7.84847 23.9355 8.3116C24.0927 8.77588 23.9571 9.28532 23.5876 9.61993L19.1002 13.7186Z" fill="white"/>
</svg>
