<svg width="23" height="25" viewBox="0 0 23 25" fill="none" xmlns="http://www.w3.org/2000/svg">
<path d="M8.01441 22.7721V19.1029C8.01441 18.1662 8.75244 17.4069 9.66285 17.4069H12.9908C13.428 17.4069 13.8473 17.5856 14.1565 17.9036C14.4656 18.2217 14.6393 18.6531 14.6393 19.1029V22.7721C14.6365 23.1615 14.7849 23.536 15.0516 23.8123C15.3183 24.0887 15.6811 24.2441 16.0596 24.2441H18.3301C19.3906 24.2469 20.4085 23.8155 21.1593 23.0451C21.9101 22.2747 22.332 21.2285 22.332 20.1375V9.68437C22.332 8.80309 21.9523 7.96715 21.2953 7.40174L13.5714 1.05518C12.2278 -0.0575852 10.3028 -0.0216567 8.99933 1.14051L1.45173 7.40174C0.763626 7.95048 0.352355 8.7889 0.332031 9.68437V20.1269C0.332031 22.4008 2.12374 24.2441 4.33392 24.2441H6.55258C7.33871 24.2441 7.97761 23.5916 7.9833 22.7828L8.01441 22.7721Z" fill="white"/>
</svg>
