<svg width="15" height="23" viewBox="0 0 15 23" fill="none" xmlns="http://www.w3.org/2000/svg">
<g opacity="0.5">
<path d="M13.1509 0.937012H11.3602V1.86648H13.1509C13.3319 1.86648 13.4793 2.01381 13.4793 2.19489V3.57117C13.4793 3.87088 13.3948 4.16388 13.2351 4.41856C12.7794 5.1448 11.8381 6.22134 10.4194 6.78094C10.0147 7.31066 9.49721 7.74924 8.90283 8.0617C10.0864 7.97896 11.2346 7.5858 12.1918 6.88944C13.0892 6.23662 13.6826 5.45407 14.0223 4.91255C14.2751 4.50971 14.4088 4.04586 14.4088 3.57117V2.19489C14.4088 1.50128 13.8445 0.937012 13.1509 0.937012Z" fill="#FFEB7E"/>
<path d="M11.9577 1.64514V1.1593C11.9577 1.0368 12.057 0.9375 12.1795 0.9375H11.3568V1.86696H12.1795C12.057 1.86693 11.9577 1.76764 11.9577 1.64514Z" fill="#FFE559"/>
<path d="M10.6976 7.15579C10.9164 6.9252 11.1692 6.7285 11.4534 6.58609C12.6303 5.99647 13.4253 5.06778 13.8325 4.41882C13.9923 4.16414 14.0767 3.87114 14.0767 3.57142V2.19511C14.0767 2.01374 13.9297 1.8667 13.7483 1.8667H13.1475C13.3285 1.8667 13.4759 2.01403 13.4759 2.19511V3.57139C13.4759 3.8711 13.3914 4.1641 13.2317 4.41879C12.7759 5.14502 11.8346 6.22156 10.416 6.78116C10.0113 7.31088 9.49379 7.74946 8.89941 8.06192C9.16333 8.04348 9.42533 8.00871 9.68401 7.95946C10.059 7.73987 10.4003 7.46899 10.6976 7.15579Z" fill="#FFE559"/>
<path d="M3.98932 6.78094C2.57069 6.22131 1.62937 5.1448 1.1737 4.41856C1.0139 4.16388 0.929464 3.87088 0.929464 3.57117V2.19489C0.929464 2.01381 1.0768 1.86648 1.25787 1.86648H3.04854V0.937012H1.25787C0.5643 0.937012 0 1.50128 0 2.19489V3.57117C0 4.04586 0.133621 4.50971 0.386416 4.91255C0.726173 5.45407 1.31959 6.23662 2.21693 6.88944C3.17414 7.5858 4.32236 7.97896 5.50593 8.0617C4.91156 7.74924 4.39404 7.31063 3.98932 6.78094Z" fill="#FFEB7E"/>
<path d="M2.81779 6.88944C1.92042 6.23662 1.32703 5.45407 0.987278 4.91255C0.734482 4.50971 0.600861 4.04586 0.600861 3.57117V2.19489C0.600861 1.50131 1.16516 0.937012 1.85874 0.937012H1.25787C0.5643 0.937012 0 1.50128 0 2.19489V3.57117C0 4.04586 0.133621 4.50971 0.386416 4.91255C0.726173 5.45407 1.31959 6.23662 2.21693 6.88944C3.17414 7.5858 4.32236 7.97896 5.50593 8.0617C5.44377 8.029 5.38263 7.99465 5.3222 7.95924C4.42083 7.78765 3.56158 7.43051 2.81779 6.88944Z" fill="#FFE559"/>
<path d="M7.91153 10.0041V8.37988C7.44486 8.48391 6.9641 8.48391 6.49744 8.37988V10.0041H7.91153Z" fill="#FBC700"/>
<path d="M7.2284 8.45758C6.98356 8.4594 6.73863 8.43364 6.49744 8.37988V10.0041H7.2284V8.45758Z" fill="#EAB900"/>
<path d="M9.17079 11.4121V10.9695C9.17079 10.4118 8.71451 9.95557 8.15682 9.95557H6.252C5.69432 9.95557 5.23804 10.4118 5.23804 10.9695V11.4121H9.17079Z" fill="#FFEB7E"/>
<path d="M7.51131 9.95557H6.252C5.69432 9.95557 5.23804 10.4118 5.23804 10.9695V11.4121H6.49735V10.9695C6.49735 10.4118 6.95363 9.95557 7.51131 9.95557Z" fill="#FFE559"/>
<path d="M11.3854 0.838111H3.01992C3.00675 0.838111 2.99377 0.837312 2.98096 0.835938V3.99716C2.98096 5.98652 4.2466 7.68015 6.01658 8.31706C6.78418 8.59325 7.62118 8.59325 8.38877 8.31706C10.1588 7.68018 11.4244 5.98655 11.4244 3.99716V0.835938C11.4116 0.837312 11.3986 0.838111 11.3854 0.838111Z" fill="#FFD500"/>
<path d="M7.98296 8.31706C6.21297 7.68018 4.94733 5.98655 4.94733 3.99716V0.838111H3.01992C3.00675 0.838111 2.99377 0.837312 2.98096 0.835938V3.99716C2.98096 5.98652 4.2466 7.68015 6.01658 8.31706C6.71709 8.56912 7.47526 8.59038 8.18587 8.38239C8.11783 8.36245 8.05004 8.34119 7.98296 8.31706Z" fill="#FBC700"/>
<path d="M11.3872 0H3.02166C2.82256 0 2.66113 0.161425 2.66113 0.36053V0.576349C2.66113 0.775454 2.82256 0.936878 3.02166 0.936878H11.3872C11.5863 0.936878 11.7478 0.775454 11.7478 0.576349V0.36053C11.7477 0.161425 11.5863 0 11.3872 0Z" fill="#FFEB7E"/>
<path d="M4.53777 0.576349V0.36053C4.53777 0.161425 4.69919 0 4.8983 0H3.02166C2.82256 0 2.66113 0.161425 2.66113 0.36053V0.576349C2.66113 0.775454 2.82256 0.936878 3.02166 0.936878H4.8983C4.69919 0.936878 4.53777 0.775454 4.53777 0.576349Z" fill="#FFE559"/>
<path d="M9.95093 15.0147V11.7219C9.95093 11.497 9.76691 11.313 9.54205 11.313H4.86689C4.642 11.313 4.45801 11.497 4.45801 11.7219V15.0147L9.95093 15.0147Z" fill="#DD8858"/>
<path d="M6.34848 11.313H4.86692C4.64203 11.313 4.45801 11.497 4.45801 11.7219V15.0147H5.93956V11.7219C5.9396 11.497 6.12362 11.313 6.34848 11.313Z" fill="#CB6C35"/>
<path d="M8.24788 12.9621H6.16073C6.02436 12.9621 5.91382 12.8515 5.91382 12.7152C5.91382 12.5788 6.02436 12.4683 6.16073 12.4683H8.24788C8.38425 12.4683 8.4948 12.5788 8.4948 12.7152C8.4948 12.8515 8.38425 12.9621 8.24788 12.9621Z" fill="#CB6C35"/>
<path d="M8.248 13.8825H6.16086C6.02449 13.8825 5.91394 13.772 5.91394 13.6356C5.91394 13.4992 6.02449 13.3887 6.16086 13.3887H8.248C8.38437 13.3887 8.49492 13.4992 8.49492 13.6356C8.49492 13.772 8.38437 13.8825 8.248 13.8825Z" fill="#CB6C35"/>
<path d="M10.3393 14.9487H5.36361C5.18432 15.0226 5.05798 15.1988 5.05798 15.4047V15.9068C5.05798 16.1127 5.18432 16.289 5.36361 16.3628H10.3393C10.5981 16.3628 10.8078 16.153 10.8078 15.8943V15.4172C10.8078 15.1585 10.598 14.9487 10.3393 14.9487Z" fill="#E39B74"/>
<path d="M5.0826 15.8943V15.4172C5.0826 15.1585 5.29238 14.9487 5.55112 14.9487H4.06959C3.81082 14.9487 3.60107 15.1585 3.60107 15.4172V15.8943C3.60107 16.153 3.81085 16.3628 4.06959 16.3628H5.55115C5.29238 16.3628 5.0826 16.153 5.0826 15.8943Z" fill="#DD8858"/>
<path d="M9.25939 22.6801C8.11795 23.3391 6.65321 22.9466 5.99421 21.8052C5.3352 20.6637 5.72768 19.199 6.86912 18.54C8.01055 17.881 9.47529 18.2735 10.1343 19.4149C10.7933 20.5563 10.4008 22.0211 9.25939 22.6801Z" fill="#FCD249"/>
<path d="M6.72931 21.379C6.22693 20.5089 6.47443 19.4082 7.2699 18.8301C7.20789 18.8577 7.14672 18.8887 7.08665 18.9234C6.15644 19.4604 5.83657 20.6542 6.37363 21.5844C6.91069 22.5146 8.10442 22.8345 9.03463 22.2974C9.09469 22.2627 9.15216 22.2253 9.20706 22.1853C8.30866 22.5852 7.23169 22.2492 6.72931 21.379Z" fill="#E59C1C"/>
<path d="M7.42477 17.23H2.82721C2.71392 17.23 2.62122 17.3227 2.62122 17.436V17.601C2.62122 17.7143 2.71391 17.807 2.82721 17.807H7.42476C7.53805 17.807 7.63075 17.7144 7.63075 17.601V17.436C7.63075 17.3227 7.53806 17.23 7.42477 17.23Z" fill="#E59C1C"/>
<path d="M7.8403 16.6528H3.24274C3.12945 16.6528 3.03674 16.7455 3.03674 16.8588V17.0239C3.03674 17.1372 3.12943 17.2299 3.24274 17.2299H7.8403C7.95359 17.2299 8.04629 17.1372 8.04629 17.0239V16.8588C8.04628 16.7455 7.95359 16.6528 7.8403 16.6528Z" fill="#F9B938"/>
<path d="M7.42843 16.0757H2.83087C2.71758 16.0757 2.62488 16.1684 2.62488 16.2817V16.4468C2.62488 16.56 2.71757 16.6527 2.83087 16.6527H7.42842C7.54171 16.6527 7.63441 16.5601 7.63441 16.4468V16.2817C7.63441 16.1684 7.54172 16.0757 7.42843 16.0757Z" fill="#E59C1C"/>
<path d="M3.24274 22.4233C3.12945 22.4233 3.03674 22.516 3.03674 22.6293V22.7944C3.03674 22.9077 3.12943 23.0004 3.24274 23.0004H6.6994C6.10581 23.0004 5.76694 22.7828 5.34855 22.4233H3.24274Z" fill="#F9B938"/>
<path d="M4.85922 21.8462H2.83087C2.71758 21.8462 2.62488 21.9389 2.62488 22.0522V22.2172C2.62488 22.3305 2.71757 22.4232 2.83087 22.4232H5.34866C5.15671 22.2583 4.99111 22.0636 4.85922 21.8462Z" fill="#E59C1C"/>
<path d="M4.60641 21.269H3.24274C3.12945 21.269 3.03674 21.3617 3.03674 21.475V21.6401C3.03674 21.7534 3.12943 21.8461 3.24274 21.8461H4.85909C4.75081 21.6676 4.66526 21.4739 4.60641 21.269Z" fill="#F9B938"/>
<path d="M4.51552 20.6919H3.62006C3.50677 20.6919 3.41406 20.7846 3.41406 20.8979V21.063C3.41406 21.1763 3.50675 21.269 3.62006 21.269H4.60644C4.55349 21.0847 4.5223 20.8913 4.51552 20.6919Z" fill="#E59C1C"/>
<path d="M4.56573 20.1152H2.83087C2.71758 20.1152 2.62488 20.2079 2.62488 20.3212V20.4863C2.62488 20.5996 2.71757 20.6923 2.83087 20.6923H4.51562C4.50909 20.5002 4.52484 20.3087 4.56573 20.1152Z" fill="#F9B938"/>
<path d="M4.76825 19.5381H3.24274C3.12945 19.5381 3.03674 19.6308 3.03674 19.7441V19.9092C3.03674 20.0224 3.12943 20.1151 3.24274 20.1151H4.56561C4.60854 19.9122 4.67728 19.7186 4.76825 19.5381Z" fill="#E59C1C"/>
<path d="M5.17898 18.9609H3.24628C3.13299 18.9609 3.04028 19.0536 3.04028 19.1669V19.332C3.04028 19.4453 3.13297 19.538 3.24628 19.538H4.77178C4.87878 19.3257 5.01641 19.1313 5.17898 18.9609Z" fill="#F9B938"/>
<path d="M7.63784 18.1777C7.63668 18.0218 7.64711 17.9774 7.61288 17.9147C7.57789 17.8505 7.50975 17.8066 7.43185 17.8066C6.86524 17.8066 3.40083 17.8066 2.83429 17.8066C2.72101 17.8066 2.62831 17.8993 2.62831 18.0126C2.63462 18.1303 2.61393 18.1898 2.64669 18.2621C2.67909 18.3336 2.75106 18.3837 2.8343 18.3837C3.01248 18.3837 7.24949 18.3837 7.43185 18.3837C7.51509 18.3837 7.58705 18.3336 7.61946 18.2621C7.62513 18.2496 7.62961 18.2364 7.6327 18.2227C7.63553 18.2107 7.63784 18.193 7.63784 18.1777Z" fill="#F9B938"/>
<path d="M6.03362 18.3838H3.62006C3.50677 18.3838 3.41406 18.4765 3.41406 18.5898V18.7549C3.41406 18.8681 3.50675 18.9609 3.62006 18.9609H5.17546C5.41415 18.7107 5.70643 18.5122 6.03362 18.3838Z" fill="#E59C1C"/>
<path d="M3.43149 17.601V17.436C3.43149 17.3227 3.52419 17.23 3.63748 17.23H2.83087C2.71758 17.23 2.62488 17.3227 2.62488 17.436V17.601C2.62488 17.7143 2.71757 17.807 2.83087 17.807H3.63747C3.52418 17.807 3.43149 17.7144 3.43149 17.601Z" fill="#D88D16"/>
<path d="M3.84335 17.0239V16.8588C3.84335 16.7455 3.93604 16.6528 4.04933 16.6528H3.24274C3.12945 16.6528 3.03674 16.7455 3.03674 16.8588V17.0239C3.03674 17.1372 3.12943 17.2299 3.24274 17.2299H4.04933C3.93604 17.2299 3.84335 17.1372 3.84335 17.0239Z" fill="#E59C1C"/>
<path d="M3.43149 16.4468V16.2817C3.43149 16.1684 3.52419 16.0757 3.63748 16.0757H2.83087C2.71758 16.0757 2.62488 16.1684 2.62488 16.2817V16.4468C2.62488 16.56 2.71757 16.6527 2.83087 16.6527H3.63747C3.52418 16.6527 3.43149 16.56 3.43149 16.4468Z" fill="#D88D16"/>
<path d="M3.84335 22.7944V22.6293C3.84335 22.516 3.93604 22.4233 4.04933 22.4233H3.24274C3.12945 22.4233 3.03674 22.516 3.03674 22.6293V22.7944C3.03674 22.9077 3.12945 23.0004 3.24274 23.0004H4.04933C3.93604 23.0004 3.84335 22.9077 3.84335 22.7944Z" fill="#E59C1C"/>
<path d="M3.43149 22.2172V22.0522C3.43149 21.9389 3.52419 21.8462 3.63748 21.8462H2.83087C2.71758 21.8462 2.62488 21.9389 2.62488 22.0522V22.2172C2.62488 22.3305 2.71757 22.4232 2.83087 22.4232H3.63747C3.52418 22.4232 3.43149 22.3305 3.43149 22.2172Z" fill="#D88D16"/>
<path d="M3.84335 21.6401V21.475C3.84335 21.3617 3.93604 21.269 4.04933 21.269H3.24274C3.12945 21.269 3.03674 21.3617 3.03674 21.475V21.6401C3.03674 21.7534 3.12945 21.8461 3.24274 21.8461H4.04933C3.93604 21.8461 3.84335 21.7534 3.84335 21.6401Z" fill="#E59C1C"/>
<path d="M4.22066 21.063V20.8979C4.22066 20.7846 4.31335 20.6919 4.42664 20.6919H3.62006C3.50677 20.6919 3.41406 20.7846 3.41406 20.8979V21.063C3.41406 21.1763 3.50677 21.269 3.62006 21.269H4.42665C4.31336 21.2689 4.22066 21.1763 4.22066 21.063Z" fill="#D88D16"/>
<path d="M3.43149 20.4863V20.3212C3.43149 20.2079 3.52419 20.1152 3.63748 20.1152H2.83087C2.71758 20.1152 2.62488 20.2079 2.62488 20.3212V20.4863C2.62488 20.5996 2.71757 20.6923 2.83087 20.6923H3.63747C3.52418 20.6923 3.43149 20.5996 3.43149 20.4863Z" fill="#E59C1C"/>
<path d="M3.84335 19.9091V19.7441C3.84335 19.6308 3.93604 19.5381 4.04933 19.5381H3.24274C3.12945 19.5381 3.03674 19.6308 3.03674 19.7441V19.9092C3.03674 20.0224 3.12945 20.1151 3.24274 20.1151H4.04933C3.93604 20.1151 3.84335 20.0224 3.84335 19.9091Z" fill="#D88D16"/>
<path d="M3.84689 19.332V19.1669C3.84689 19.0536 3.93958 18.9609 4.05287 18.9609H3.24628C3.13299 18.9609 3.04028 19.0536 3.04028 19.1669V19.332C3.04028 19.4453 3.13299 19.538 3.24628 19.538H4.05287C3.93958 19.538 3.84689 19.4453 3.84689 19.332Z" fill="#E59C1C"/>
<path d="M3.45327 18.2621C3.42052 18.1898 3.44119 18.1303 3.43489 18.0126C3.43489 17.8993 3.5276 17.8066 3.64089 17.8066C3.26181 17.8066 2.96769 17.8066 2.83429 17.8066C2.72102 17.8066 2.62831 17.8993 2.62831 18.0126C2.63461 18.1303 2.61394 18.1898 2.64669 18.2621C2.6791 18.3336 2.75107 18.3837 2.83431 18.3837C2.88019 18.3837 3.19525 18.3837 3.6409 18.3837C3.55763 18.3837 3.48568 18.3336 3.45327 18.2621Z" fill="#E59C1C"/>
<path d="M4.22066 18.7549V18.5898C4.22066 18.4765 4.31335 18.3838 4.42664 18.3838H3.62006C3.50677 18.3838 3.41406 18.4765 3.41406 18.5898V18.7549C3.41406 18.8681 3.50677 18.9609 3.62006 18.9609H4.42665C4.31336 18.9609 4.22066 18.8682 4.22066 18.7549Z" fill="#D88D16"/>
<path d="M5.36811 21.3786C4.86572 20.5084 5.11322 19.4077 5.9087 18.8296C5.84668 18.8572 5.78551 18.8882 5.72544 18.9229C4.79523 19.4599 4.47537 20.6537 5.01242 21.5839C5.54948 22.5141 6.74322 22.834 7.67343 22.2969C7.73348 22.2622 7.79095 22.2248 7.84585 22.1849C6.94747 22.5847 5.8705 22.2487 5.36811 21.3786Z" fill="#E59C1C"/>
<path d="M4.93275 22.1044C6.07419 22.7634 7.53893 22.3709 8.19793 21.2295C8.85693 20.088 8.46446 18.6233 7.32302 17.9643C6.18159 17.3053 4.71685 17.6978 4.05784 18.8392C3.39886 19.9806 3.79133 21.4454 4.93275 22.1044Z" fill="#FCD249"/>
<path d="M7.45721 20.8034C7.9596 19.9332 7.7121 18.8325 6.91662 18.2544C6.97863 18.282 7.0398 18.313 7.09988 18.3477C8.03008 18.8848 8.34995 20.0785 7.81289 21.0087C7.27584 21.9389 6.0821 22.2588 5.15189 21.7217C5.09184 21.687 5.03437 21.6496 4.97946 21.6097C5.87786 22.0095 6.95484 21.6735 7.45721 20.8034Z" fill="#E59C1C"/>
<path d="M6.76175 16.6543H11.3593C11.4726 16.6543 11.5653 16.747 11.5653 16.8603V17.0254C11.5653 17.1387 11.4726 17.2314 11.3593 17.2314H6.76177C6.64848 17.2314 6.55577 17.1387 6.55577 17.0254V16.8603C6.55577 16.747 6.64846 16.6543 6.76175 16.6543Z" fill="#E59C1C"/>
<path d="M6.35172 16.0771H10.9493C11.0626 16.0771 11.1553 16.1698 11.1553 16.2831V16.4482C11.1553 16.5615 11.0626 16.6542 10.9493 16.6542H6.35172C6.23843 16.6542 6.14572 16.5615 6.14572 16.4482V16.2831C6.14574 16.1698 6.23843 16.0771 6.35172 16.0771Z" fill="#F9B938"/>
<path d="M6.7637 15.5H11.3613C11.4746 15.5 11.5673 15.5927 11.5673 15.706V15.8711C11.5673 15.9844 11.4746 16.0771 11.3613 16.0771H6.76372C6.65043 16.0771 6.55772 15.9844 6.55772 15.8711V15.706C6.55772 15.5927 6.65041 15.5 6.7637 15.5Z" fill="#E59C1C"/>
<path d="M10.9493 21.8477C11.0626 21.8477 11.1553 21.9403 11.1553 22.0536V22.2187C11.1553 22.332 11.0626 22.4247 10.9493 22.4247H7.49262C8.08621 22.4247 8.42507 22.2071 8.84347 21.8477H10.9493Z" fill="#F9B938"/>
<path d="M9.33292 21.2705H11.3613C11.4746 21.2705 11.5673 21.3632 11.5673 21.4765V21.6416C11.5673 21.7549 11.4746 21.8476 11.3613 21.8476H8.84348C9.03542 21.6826 9.20103 21.4879 9.33292 21.2705Z" fill="#E59C1C"/>
<path d="M9.58561 20.6934H10.9493C11.0626 20.6934 11.1553 20.786 11.1553 20.8994V21.0644C11.1553 21.1777 11.0626 21.2704 10.9493 21.2704H9.33292C9.44121 21.0919 9.52676 20.8983 9.58561 20.6934Z" fill="#F9B938"/>
<path d="M9.67662 20.1162H10.5721C10.6854 20.1162 10.7781 20.2089 10.7781 20.3222V20.4873C10.7781 20.6006 10.6854 20.6933 10.5721 20.6933H9.5857C9.63865 20.509 9.66984 20.3157 9.67662 20.1162Z" fill="#E59C1C"/>
<path d="M9.6264 19.5396H11.3613C11.4746 19.5396 11.5673 19.6322 11.5673 19.7455V19.9106C11.5673 20.0239 11.4746 20.1166 11.3613 20.1166H9.67652C9.68305 19.9246 9.6673 19.733 9.6264 19.5396Z" fill="#F9B938"/>
<path d="M9.42376 18.9624H10.9493C11.0626 18.9624 11.1553 19.0551 11.1553 19.1684V19.3335C11.1553 19.4468 11.0626 19.5395 10.9493 19.5395H9.62641C9.58348 19.3365 9.51474 19.1429 9.42376 18.9624Z" fill="#E59C1C"/>
<path d="M9.01547 18.3853H10.9482C11.0615 18.3853 11.1542 18.4779 11.1542 18.5912V18.7563C11.1542 18.8696 11.0615 18.9623 10.9482 18.9623H9.42268C9.31567 18.75 9.17805 18.5556 9.01547 18.3853Z" fill="#F9B938"/>
<path d="M6.55662 17.602C6.55778 17.4462 6.54735 17.4018 6.58157 17.339C6.61656 17.2748 6.68471 17.231 6.76261 17.231C7.32921 17.231 10.7936 17.231 11.3602 17.231C11.4734 17.231 11.5662 17.3236 11.5662 17.437C11.5598 17.5547 11.5805 17.6141 11.5478 17.6864C11.5154 17.7579 11.4434 17.808 11.3602 17.808C11.182 17.808 6.94496 17.808 6.76261 17.808C6.67937 17.808 6.6074 17.7579 6.575 17.6864C6.56932 17.6739 6.56484 17.6607 6.56175 17.647C6.55892 17.635 6.55662 17.6173 6.55662 17.602Z" fill="#F9B938"/>
<path d="M8.15852 17.8081H10.5721C10.6854 17.8081 10.7781 17.9008 10.7781 18.0141V18.1792C10.7781 18.2925 10.6854 18.3852 10.5721 18.3852H9.01668C8.77799 18.135 8.48571 17.9365 8.15852 17.8081Z" fill="#E59C1C"/>
<path d="M10.7607 17.0254V16.8603C10.7607 16.747 10.6679 16.6543 10.5547 16.6543H11.3613C11.4746 16.6543 11.5673 16.747 11.5673 16.8603V17.0254C11.5673 17.1387 11.4746 17.2314 11.3613 17.2314H10.5547C10.668 17.2314 10.7607 17.1387 10.7607 17.0254Z" fill="#D88D16"/>
<path d="M10.3487 16.4482V16.2831C10.3487 16.1699 10.256 16.0771 10.1427 16.0771H10.9493C11.0626 16.0771 11.1553 16.1698 11.1553 16.2831V16.4482C11.1553 16.5615 11.0626 16.6542 10.9493 16.6542H10.1427C10.256 16.6542 10.3487 16.5615 10.3487 16.4482Z" fill="#E59C1C"/>
<path d="M10.7607 15.8711V15.706C10.7607 15.5927 10.6679 15.5 10.5547 15.5H11.3613C11.4746 15.5 11.5673 15.5927 11.5673 15.706V15.8711C11.5673 15.9844 11.4746 16.0771 11.3613 16.0771H10.5547C10.668 16.0771 10.7607 15.9844 10.7607 15.8711Z" fill="#D88D16"/>
<path d="M10.3487 22.2187V22.0537C10.3487 21.9404 10.256 21.8477 10.1427 21.8477H10.9493C11.0626 21.8477 11.1553 21.9403 11.1553 22.0537V22.2187C11.1553 22.332 11.0626 22.4247 10.9493 22.4247H10.1427C10.256 22.4247 10.3487 22.332 10.3487 22.2187Z" fill="#E59C1C"/>
<path d="M10.7607 21.6416V21.4765C10.7607 21.3632 10.6679 21.2705 10.5547 21.2705H11.3613C11.4746 21.2705 11.5673 21.3632 11.5673 21.4765V21.6416C11.5673 21.7549 11.4746 21.8475 11.3613 21.8475H10.5547C10.668 21.8475 10.7607 21.7549 10.7607 21.6416Z" fill="#D88D16"/>
<path d="M10.3487 21.0644V20.8994C10.3487 20.7861 10.256 20.6934 10.1427 20.6934H10.9493C11.0626 20.6934 11.1553 20.786 11.1553 20.8994V21.0644C11.1553 21.1777 11.0626 21.2704 10.9493 21.2704H10.1427C10.256 21.2704 10.3487 21.1777 10.3487 21.0644Z" fill="#E59C1C"/>
<path d="M9.97148 20.4873V20.3222C9.97148 20.2089 9.87879 20.1162 9.7655 20.1162H10.5721C10.6854 20.1162 10.7781 20.2089 10.7781 20.3222V20.4873C10.7781 20.6006 10.6854 20.6933 10.5721 20.6933H9.76549C9.87878 20.6933 9.97148 20.6006 9.97148 20.4873Z" fill="#D88D16"/>
<path d="M10.7607 19.9106V19.7455C10.7607 19.6323 10.6679 19.5396 10.5547 19.5396H11.3613C11.4746 19.5396 11.5673 19.6322 11.5673 19.7455V19.9106C11.5673 20.0239 11.4746 20.1166 11.3613 20.1166H10.5547C10.668 20.1166 10.7607 20.0239 10.7607 19.9106Z" fill="#E59C1C"/>
<path d="M10.3487 19.3335V19.1684C10.3487 19.0551 10.256 18.9624 10.1427 18.9624H10.9493C11.0626 18.9624 11.1553 19.0551 11.1553 19.1684V19.3335C11.1553 19.4468 11.0626 19.5395 10.9493 19.5395H10.1427C10.256 19.5395 10.3487 19.4468 10.3487 19.3335Z" fill="#D88D16"/>
<path d="M10.3476 18.7563V18.5912C10.3476 18.478 10.2549 18.3853 10.1416 18.3853H10.9482C11.0615 18.3853 11.1542 18.4779 11.1542 18.5912V18.7563C11.1542 18.8696 11.0615 18.9623 10.9482 18.9623H10.1416C10.2549 18.9623 10.3476 18.8696 10.3476 18.7563Z" fill="#E59C1C"/>
<path d="M10.7412 17.6864C10.7739 17.6141 10.7533 17.5547 10.7596 17.437C10.7596 17.3236 10.6669 17.231 10.5536 17.231C10.9327 17.231 11.2268 17.231 11.3602 17.231C11.4734 17.231 11.5661 17.3236 11.5661 17.437C11.5598 17.5547 11.5805 17.6141 11.5478 17.6864C11.5154 17.7579 11.4434 17.808 11.3602 17.808C11.3143 17.808 10.9992 17.808 10.5536 17.808C10.6368 17.808 10.7088 17.7579 10.7412 17.6864Z" fill="#E59C1C"/>
<path d="M9.97148 18.1792V18.0141C9.97148 17.9008 9.87879 17.8081 9.7655 17.8081H10.5721C10.6854 17.8081 10.7781 17.9008 10.7781 18.0141V18.1792C10.7781 18.2925 10.6854 18.3852 10.5721 18.3852H9.76549C9.87878 18.3852 9.97148 18.2925 9.97148 18.1792Z" fill="#D88D16"/>
<path d="M8.82391 20.8029C9.3263 19.9327 9.0788 18.832 8.28332 18.2539C8.34533 18.2815 8.4065 18.3125 8.46657 18.3472C9.39678 18.8843 9.71665 20.078 9.17959 21.0082C8.64253 21.9384 7.4488 22.2583 6.51859 21.7212C6.45854 21.6866 6.40107 21.6491 6.34616 21.6092C7.24455 22.009 8.32152 21.673 8.82391 20.8029Z" fill="#E59C1C"/>
<path d="M10.3389 22.6801C9.19742 23.3391 7.73268 22.9466 7.07368 21.8052C6.41467 20.6637 6.80715 19.199 7.94858 18.54C9.09002 17.881 10.5548 18.2735 11.2138 19.4149C11.8728 20.5563 11.4803 22.0211 10.3389 22.6801Z" fill="#FCD249"/>
<path d="M7.45647 21.5837C6.83475 20.5068 7.14904 19.1423 8.14502 18.438C8.07857 18.4686 8.01292 18.5023 7.94834 18.5396C6.80691 19.1986 6.41443 20.6634 7.07343 21.8048C7.73243 22.9462 9.19719 23.3387 10.3386 22.6797C10.4032 22.6424 10.4652 22.6024 10.525 22.5602C9.41703 23.0706 8.07819 22.6605 7.45647 21.5837Z" fill="#F9B938"/>
<path d="M8.16942 18.9227C7.23919 19.4598 6.91934 20.6535 7.4564 21.5837C7.99345 22.5139 9.18719 22.8338 10.1174 22.2967C11.0476 21.7597 11.3675 20.5659 10.8304 19.6357C10.2934 18.7055 9.09962 18.3856 8.16942 18.9227Z" fill="#F9B938"/>
<path d="M7.80939 21.379C7.307 20.5089 7.5545 19.4082 8.34998 18.8301C8.28797 18.8577 8.2268 18.8887 8.16673 18.9234C7.23652 19.4604 6.91665 20.6542 7.45371 21.5844C7.99077 22.5146 9.1845 22.8345 10.1147 22.2974C10.1748 22.2627 10.2322 22.2253 10.2871 22.1853C9.38874 22.5852 8.31176 22.2492 7.80939 21.379Z" fill="#E59C1C"/>
<path d="M8.50485 17.23H3.90729C3.794 17.23 3.70129 17.3227 3.70129 17.436V17.601C3.70129 17.7143 3.79398 17.807 3.90729 17.807H8.50484C8.61812 17.807 8.71083 17.7144 8.71083 17.601V17.436C8.71083 17.3227 8.61814 17.23 8.50485 17.23Z" fill="#E59C1C"/>
<path d="M8.91977 16.6528H4.32221C4.20892 16.6528 4.11621 16.7455 4.11621 16.8588V17.0239C4.11621 17.1372 4.2089 17.2299 4.32221 17.2299H8.91977C9.03306 17.2299 9.12576 17.1372 9.12576 17.0239V16.8588C9.12575 16.7455 9.03306 16.6528 8.91977 16.6528Z" fill="#F9B938"/>
<path d="M8.50778 16.0757H3.91022C3.79693 16.0757 3.70422 16.1684 3.70422 16.2817V16.4468C3.70422 16.56 3.79691 16.6527 3.91022 16.6527H8.50776C8.62105 16.6527 8.71376 16.5601 8.71376 16.4468V16.2817C8.71376 16.1684 8.62107 16.0757 8.50778 16.0757Z" fill="#E59C1C"/>
<path d="M4.32221 22.4233C4.20892 22.4233 4.11621 22.516 4.11621 22.6293V22.7944C4.11621 22.9077 4.2089 23.0004 4.32221 23.0004H7.77887C7.18527 23.0004 6.84641 22.7828 6.42801 22.4233H4.32221Z" fill="#F9B938"/>
<path d="M5.93857 21.8462H3.91022C3.79693 21.8462 3.70422 21.9389 3.70422 22.0522V22.2172C3.70422 22.3305 3.79691 22.4232 3.91022 22.4232H6.428C6.23606 22.2583 6.07045 22.0636 5.93857 21.8462Z" fill="#E59C1C"/>
<path d="M5.68588 21.269H4.32221C4.20892 21.269 4.11621 21.3617 4.11621 21.475V21.6401C4.11621 21.7534 4.2089 21.8461 4.32221 21.8461H5.93856C5.83027 21.6676 5.74472 21.4739 5.68588 21.269Z" fill="#F9B938"/>
<path d="M5.59499 20.6919H4.69953C4.58624 20.6919 4.49353 20.7846 4.49353 20.8979V21.063C4.49353 21.1763 4.58622 21.269 4.69953 21.269H5.6859C5.63296 21.0847 5.60176 20.8913 5.59499 20.6919Z" fill="#E59C1C"/>
<path d="M5.64508 20.1152H3.91022C3.79693 20.1152 3.70422 20.2079 3.70422 20.3212V20.4863C3.70422 20.5996 3.79691 20.6923 3.91022 20.6923H5.59497C5.58844 20.5002 5.60419 20.3087 5.64508 20.1152Z" fill="#F9B938"/>
<path d="M5.84772 19.5381H4.32221C4.20892 19.5381 4.11621 19.6308 4.11621 19.7441V19.9092C4.11621 20.0224 4.2089 20.1151 4.32221 20.1151H5.64508C5.688 19.9122 5.75674 19.7186 5.84772 19.5381Z" fill="#E59C1C"/>
<path d="M6.25125 18.9609H4.31854C4.20525 18.9609 4.11255 19.0536 4.11255 19.1669V19.332C4.11255 19.4453 4.20524 19.538 4.31854 19.538H5.84405C5.95105 19.3257 6.08867 19.1313 6.25125 18.9609Z" fill="#F9B938"/>
<path d="M8.71011 18.1777C8.70895 18.0218 8.71938 17.9774 8.68515 17.9147C8.65016 17.8505 8.58201 17.8066 8.50411 17.8066C7.93751 17.8066 4.47309 17.8066 3.90655 17.8066C3.79328 17.8066 3.70057 17.8993 3.70057 18.0126C3.70689 18.1303 3.6862 18.1898 3.71895 18.2621C3.75136 18.3336 3.82333 18.3837 3.90657 18.3837C4.08475 18.3837 8.32176 18.3837 8.50411 18.3837C8.58735 18.3837 8.65932 18.3336 8.69173 18.2621C8.6974 18.2496 8.70188 18.2364 8.70497 18.2227C8.7078 18.2107 8.71011 18.193 8.71011 18.1777Z" fill="#F9B938"/>
<path d="M7.11309 18.3838H4.69953C4.58624 18.3838 4.49353 18.4765 4.49353 18.5898V18.7549C4.49353 18.8681 4.58622 18.9609 4.69953 18.9609H6.25492C6.49362 18.7107 6.78589 18.5122 7.11309 18.3838Z" fill="#E59C1C"/>
<path d="M4.51083 17.601V17.436C4.51083 17.3227 4.60354 17.23 4.71683 17.23H3.91022C3.79693 17.23 3.70422 17.3227 3.70422 17.436V17.601C3.70422 17.7143 3.79691 17.807 3.91022 17.807H4.71681C4.60352 17.807 4.51083 17.7144 4.51083 17.601Z" fill="#D88D16"/>
<path d="M4.92282 17.0239V16.8588C4.92282 16.7455 5.01551 16.6528 5.1288 16.6528H4.32221C4.20892 16.6528 4.11621 16.7455 4.11621 16.8588V17.0239C4.11621 17.1372 4.2089 17.2299 4.32221 17.2299H5.1288C5.01551 17.2299 4.92282 17.1372 4.92282 17.0239Z" fill="#E59C1C"/>
<path d="M4.51083 16.4468V16.2817C4.51083 16.1684 4.60354 16.0757 4.71683 16.0757H3.91022C3.79693 16.0757 3.70422 16.1684 3.70422 16.2817V16.4468C3.70422 16.56 3.79691 16.6527 3.91022 16.6527H4.71681C4.60352 16.6527 4.51083 16.56 4.51083 16.4468Z" fill="#D88D16"/>
<path d="M4.92282 22.7944V22.6293C4.92282 22.516 5.01551 22.4233 5.1288 22.4233H4.32221C4.20892 22.4233 4.11621 22.516 4.11621 22.6293V22.7944C4.11621 22.9077 4.20892 23.0004 4.32221 23.0004H5.1288C5.01551 23.0004 4.92282 22.9077 4.92282 22.7944Z" fill="#E59C1C"/>
<path d="M4.51083 22.2172V22.0522C4.51083 21.9389 4.60354 21.8462 4.71683 21.8462H3.91022C3.79693 21.8462 3.70422 21.9389 3.70422 22.0522V22.2172C3.70422 22.3305 3.79691 22.4232 3.91022 22.4232H4.71681C4.60352 22.4232 4.51083 22.3305 4.51083 22.2172Z" fill="#D88D16"/>
<path d="M4.92282 21.6401V21.475C4.92282 21.3617 5.01551 21.269 5.1288 21.269H4.32221C4.20892 21.269 4.11621 21.3617 4.11621 21.475V21.6401C4.11621 21.7534 4.20892 21.8461 4.32221 21.8461H5.1288C5.01551 21.8461 4.92282 21.7534 4.92282 21.6401Z" fill="#E59C1C"/>
<path d="M5.30013 21.063V20.8979C5.30013 20.7846 5.39282 20.6919 5.50611 20.6919H4.69953C4.58624 20.6919 4.49353 20.7846 4.49353 20.8979V21.063C4.49353 21.1763 4.58624 21.269 4.69953 21.269H5.50612C5.39283 21.2689 5.30013 21.1763 5.30013 21.063Z" fill="#D88D16"/>
<path d="M4.51083 20.4863V20.3212C4.51083 20.2079 4.60354 20.1152 4.71683 20.1152H3.91022C3.79693 20.1152 3.70422 20.2079 3.70422 20.3212V20.4863C3.70422 20.5996 3.79691 20.6923 3.91022 20.6923H4.71681C4.60352 20.6923 4.51083 20.5996 4.51083 20.4863Z" fill="#E59C1C"/>
<path d="M4.92282 19.9091V19.7441C4.92282 19.6308 5.01551 19.5381 5.1288 19.5381H4.32221C4.20892 19.5381 4.11621 19.6308 4.11621 19.7441V19.9092C4.11621 20.0224 4.20892 20.1151 4.32221 20.1151H5.1288C5.01551 20.1151 4.92282 20.0224 4.92282 19.9091Z" fill="#D88D16"/>
<path d="M4.91916 19.332V19.1669C4.91916 19.0536 5.01185 18.9609 5.12514 18.9609H4.31854C4.20525 18.9609 4.11255 19.0536 4.11255 19.1669V19.332C4.11255 19.4453 4.20525 19.538 4.31854 19.538H5.12514C5.01185 19.538 4.91916 19.4453 4.91916 19.332Z" fill="#E59C1C"/>
<path d="M4.52554 18.2621C4.49278 18.1898 4.51346 18.1303 4.50716 18.0126C4.50716 17.8993 4.59986 17.8066 4.71315 17.8066C4.33407 17.8066 4.03996 17.8066 3.90656 17.8066C3.79328 17.8066 3.70058 17.8993 3.70058 18.0126C3.70688 18.1303 3.6862 18.1898 3.71896 18.2621C3.75137 18.3336 3.82333 18.3837 3.90657 18.3837C3.95245 18.3837 4.26752 18.3837 4.71317 18.3837C4.6299 18.3837 4.55794 18.3336 4.52554 18.2621Z" fill="#E59C1C"/>
<path d="M5.30013 18.7549V18.5898C5.30013 18.4765 5.39282 18.3838 5.50611 18.3838H4.69953C4.58624 18.3838 4.49353 18.4765 4.49353 18.5898V18.7549C4.49353 18.8681 4.58624 18.9609 4.69953 18.9609H5.50612C5.39283 18.9609 5.30013 18.8682 5.30013 18.7549Z" fill="#D88D16"/>
<path d="M8.97411 22.6801C7.83269 23.3391 6.36793 22.9466 5.70893 21.8052C5.04993 20.6637 5.4424 19.199 6.58384 18.54C7.72527 17.881 9.19001 18.2735 9.84902 19.4149C10.508 20.5563 10.1155 22.0211 8.97411 22.6801Z" fill="#FCD249"/>
<path d="M6.09417 21.5837C5.47245 20.5068 5.78673 19.1423 6.78272 18.438C6.71627 18.4686 6.65062 18.5023 6.58604 18.5396C5.4446 19.1986 5.05212 20.6634 5.71113 21.8048C6.37013 22.9462 7.83489 23.3387 8.97631 22.6797C9.04089 22.6424 9.10293 22.6024 9.16267 22.5602C8.05472 23.0706 6.71589 22.6605 6.09417 21.5837Z" fill="#F9B938"/>
<path d="M6.80711 18.9227C5.87689 19.4598 5.55704 20.6535 6.09409 21.5837C6.63115 22.5139 7.82489 22.8338 8.75509 22.2967C9.68532 21.7597 10.0052 20.5659 9.46811 19.6357C8.93105 18.7055 7.73733 18.3856 6.80711 18.9227Z" fill="#F9B938"/>
<path d="M6.44758 21.3786C5.94519 20.5084 6.19269 19.4077 6.98817 18.8296C6.92615 18.8572 6.86498 18.8882 6.80491 18.9229C5.8747 19.4599 5.55484 20.6537 6.09189 21.5839C6.62895 22.5141 7.82269 22.834 8.75289 22.2969C8.81295 22.2622 8.87042 22.2248 8.92532 22.1849C8.02694 22.5847 6.94996 22.2487 6.44758 21.3786Z" fill="#E59C1C"/>
<path d="M7.89712 20.5126V20.025C8.05106 20.0549 8.16064 20.1334 8.1621 20.1345C8.21448 20.1734 8.28848 20.1625 8.32744 20.1101C8.36636 20.0577 8.35547 19.9837 8.30309 19.9448C8.2929 19.9372 8.12832 19.8175 7.89712 19.7849V19.6621C7.89712 19.5968 7.84422 19.5439 7.77895 19.5439C7.7137 19.5439 7.66079 19.5968 7.66079 19.6621V19.7864C7.06098 19.8827 6.99163 20.5506 7.66079 20.7076V21.1953C7.50776 21.1654 7.39863 21.0876 7.39599 21.0856C7.34363 21.047 7.26987 21.058 7.23102 21.1102C7.19209 21.1626 7.20299 21.2366 7.25536 21.2756C7.26554 21.2831 7.42983 21.4028 7.66079 21.4355V21.5583C7.66079 21.6235 7.71368 21.6764 7.77895 21.6764C7.84421 21.6764 7.89712 21.6235 7.89712 21.5583V21.4339C8.49821 21.3378 8.56552 20.6702 7.89712 20.5126ZM7.6608 20.0275V20.4623C7.31195 20.3524 7.36991 20.0952 7.6608 20.0275ZM7.89712 21.193V20.758C8.24672 20.8686 8.18593 21.1261 7.89712 21.193Z" fill="#F2F0F0"/>
</g>
</svg>
