<svg width="25" height="24" viewBox="0 0 25 24" fill="none" xmlns="http://www.w3.org/2000/svg">
<g opacity="0.5">
<path d="M5.97909 11.7988C6.1472 12.4974 6.10237 13.5397 6.35267 14.0403C6.36121 14.0586 6.37121 14.076 6.38256 14.0926C4.80976 14.272 4.48474 13.2932 4.48474 13.2932C4.81516 12.947 5.04393 12.5166 5.14599 12.0491L5.97909 11.7988Z" fill="#CB8252"/>
<path d="M16.5249 12.0491C16.627 12.5166 16.8557 12.947 17.1861 13.2932C17.1861 13.2932 16.8611 14.272 15.2883 14.0926C15.2997 14.076 15.3097 14.0586 15.3182 14.0403C15.5685 13.5397 15.5237 12.4974 15.6918 11.7988L16.5249 12.0491Z" fill="#CB8252"/>
<path d="M16.4104 9.26272C16.6171 9.14403 16.8692 9.13519 17.0837 9.23909C17.2982 9.343 17.4476 9.54622 17.4826 9.78201C17.7309 10.6703 17.3306 11.612 16.5188 12.0497C16.3378 12.1348 16.1396 12.1769 15.9397 12.173L16.4104 9.26272Z" fill="#F9C795"/>
<path d="M5.71885 12.173C5.51892 12.1769 5.32076 12.1348 5.13979 12.0497C4.32795 11.612 3.92768 10.6703 4.17594 9.78201C4.21098 9.54622 4.3603 9.343 4.57484 9.23909C4.78938 9.13519 5.0414 9.14403 5.24813 9.26272L5.71885 12.173Z" fill="#F9C795"/>
<path d="M12.569 15.9609C12.5054 16.7529 12.5465 18.0904 13.6075 18.4602C13.2526 18.8973 12.4158 20.0181 10.8318 20.0181C9.24777 20.0181 8.41094 18.8973 8.05603 18.4602C9.11702 18.0904 9.15811 16.7529 9.0946 15.9609H12.569Z" fill="#F9C795"/>
<path d="M10.8328 2.0856C10.6265 2.0856 10.4592 1.91834 10.4592 1.71202V1.33843C10.4592 1.1321 10.6265 0.964844 10.8328 0.964844C11.0391 0.964844 11.2064 1.1321 11.2064 1.33843V1.71202C11.2064 1.91834 11.0391 2.0856 10.8328 2.0856Z" fill="#C03A2B"/>
<path d="M16.8098 19.0819V21.1366H2.875C3.69315 18.6261 6.27464 18.8316 7.83249 18.5215C7.90883 18.5066 7.9838 18.4853 8.05664 18.458C8.7485 19.2614 9.77365 19.6988 10.8324 19.6423C11.8911 19.6988 12.9163 19.2614 13.6081 18.458C13.681 18.4853 13.756 18.5066 13.8323 18.5215C14.6766 18.6896 15.8123 18.7046 16.8098 19.0819Z" fill="#3B97D3"/>
<path d="M16.4335 8.80967C16.4335 8.91801 16.4261 9.07118 16.4111 9.26171C16.3223 10.2416 16.165 11.214 15.9404 12.172C15.7989 12.8153 15.5885 13.4416 15.3128 14.0399C15.3042 14.0581 15.2943 14.0756 15.2829 14.0922C14.8047 14.9925 13.6429 15.6127 12.5669 15.9601C12.006 16.1487 11.4211 16.2569 10.8297 16.2814C10.2384 16.2569 9.65355 16.1487 9.09257 15.9601C8.01664 15.6127 6.85479 14.9925 6.3766 14.0922C6.36524 14.0756 6.35525 14.0581 6.34671 14.0399C6.07104 13.4416 5.86062 12.8153 5.71909 12.172C5.4945 11.214 5.33721 10.2416 5.24837 9.26171C5.23342 9.07118 5.22595 8.91801 5.22595 8.80967L10.8297 8.0625L16.4335 8.80967Z" fill="#FDD7AD"/>
<path d="M16.8063 6.1969V8.43842C16.8063 8.64475 16.6391 8.81201 16.4327 8.81201H5.22515C5.01882 8.81201 4.85156 8.64475 4.85156 8.43842V6.1969C4.85156 6.06988 4.8553 5.9466 4.86651 5.82332C5.06078 3.5001 7.00327 1.71353 9.3346 1.71387H12.3233C14.6546 1.71353 16.5971 3.5001 16.7914 5.82332C16.8026 5.9466 16.8063 6.06988 16.8063 6.1969Z" fill="#E64C3C"/>
<path d="M11.9506 6.19434H9.70909C9.29643 6.19434 8.96191 6.52886 8.96191 6.94151C8.96191 7.35416 9.29643 7.68868 9.70909 7.68868H11.9506C12.3633 7.68868 12.6978 7.35416 12.6978 6.94151C12.6978 6.52886 12.3633 6.19434 11.9506 6.19434Z" fill="#805333"/>
<path d="M7.84025 6.1939C7.84025 6.40022 7.67299 6.56749 7.46667 6.56749H4.85156V6.1939C4.85156 6.06688 4.8553 5.9436 4.86651 5.82031H7.46667C7.67299 5.82031 7.84025 5.98757 7.84025 6.1939Z" fill="#C03A2B"/>
<path d="M16.8096 6.1939V6.56749H14.1945C13.9882 6.56749 13.8209 6.40022 13.8209 6.1939C13.8209 5.98757 13.9882 5.82031 14.1945 5.82031H16.7947C16.8059 5.9436 16.8096 6.06688 16.8096 6.1939Z" fill="#C03A2B"/>
<path d="M8.21842 11.7972C8.83739 11.7972 9.33917 11.2954 9.33917 10.6764C9.33917 10.0574 8.83739 9.55566 8.21842 9.55566C7.59944 9.55566 7.09766 10.0574 7.09766 10.6764C7.09766 11.2954 7.59944 11.7972 8.21842 11.7972Z" fill="white"/>
<path d="M8.40669 11.2379C8.71618 11.2379 8.96707 10.9871 8.96707 10.6776C8.96707 10.3681 8.71618 10.1172 8.40669 10.1172C8.0972 10.1172 7.84631 10.3681 7.84631 10.6776C7.84631 10.9871 8.0972 11.2379 8.40669 11.2379Z" fill="#547580"/>
<path d="M8.96559 12.171H7.47124C7.26492 12.171 7.09766 12.0037 7.09766 11.7974C7.09766 11.5911 7.26492 11.4238 7.47124 11.4238H8.96559C9.17191 11.4238 9.33917 11.5911 9.33917 11.7974C9.33917 12.0037 9.17191 12.171 8.96559 12.171Z" fill="#F9C795"/>
<path d="M11.1983 12.545H10.4511C10.2448 12.545 10.0775 12.3778 10.0775 12.1714C10.0775 11.9651 10.2448 11.7979 10.4511 11.7979H11.1983C11.4046 11.7979 11.5719 11.9651 11.5719 12.1714C11.5719 12.3778 11.4046 12.545 11.1983 12.545Z" fill="#CBB292"/>
<path d="M10.826 14.0384C10.3196 14.0601 9.82408 13.8873 9.4411 13.5553C9.30759 13.4087 9.31191 13.1833 9.45094 13.0419C9.58996 12.9005 9.81524 12.8923 9.96412 13.0233C10.2101 13.2129 10.5159 13.308 10.826 13.2912C11.1353 13.3076 11.4402 13.2124 11.6852 13.023C11.8343 12.8828 12.0681 12.8876 12.2112 13.0338C12.3552 13.1784 12.3552 13.4122 12.2112 13.5568C11.8279 13.8884 11.3323 14.0607 10.826 14.0384Z" fill="#CBB292"/>
<path d="M11.1983 15.1612H10.4511C10.2448 15.1612 10.0775 14.994 10.0775 14.7876C10.0775 14.5813 10.2448 14.4141 10.4511 14.4141H11.1983C11.4046 14.4141 11.5719 14.5813 11.5719 14.7876C11.5719 14.994 11.4046 15.1612 11.1983 15.1612Z" fill="#CBB292"/>
<path d="M24.28 17.7769V22.6335C24.28 22.8398 24.1127 23.0071 23.9064 23.0071H16.8082V17.7769C16.8082 15.7136 18.4808 14.041 20.5441 14.041C22.6074 14.041 24.28 15.7136 24.28 17.7769Z" fill="#F29C1F"/>
<path d="M19.8015 20.0177H19.4279C19.2216 20.0177 19.0543 19.8504 19.0543 19.6441C19.0543 19.4378 19.2216 19.2705 19.4279 19.2705H19.8015C20.0078 19.2705 20.1751 19.4378 20.1751 19.6441C20.1751 19.8504 20.0078 20.0177 19.8015 20.0177Z" fill="#BDC3C7"/>
<path d="M21.6658 20.0177H21.2922C21.0858 20.0177 20.9186 19.8504 20.9186 19.6441C20.9186 19.4378 21.0858 19.2705 21.2922 19.2705H21.6658C21.8721 19.2705 22.0393 19.4378 22.0393 19.6441C22.0393 19.8504 21.8721 20.0177 21.6658 20.0177Z" fill="#BDC3C7"/>
<path d="M19.4256 19.2687C19.4256 18.856 19.0911 18.5215 18.6784 18.5215C18.2658 18.5215 17.9313 18.856 17.9313 19.2687V20.0158C17.9313 20.4285 18.2658 20.763 18.6784 20.763C19.0911 20.763 19.4256 20.4285 19.4256 20.0158V19.2687Z" fill="#F5EFCA"/>
<path d="M23.1616 19.2687C23.1616 18.856 22.8271 18.5215 22.4144 18.5215C22.0018 18.5215 21.6672 18.856 21.6672 19.2687V20.0158C21.6672 20.4285 22.0018 20.763 22.4144 20.763C22.8271 20.763 23.1616 20.4285 23.1616 20.0158V19.2687Z" fill="#F5EFCA"/>
<path d="M13.4442 11.7972C14.0632 11.7972 14.565 11.2954 14.565 10.6764C14.565 10.0574 14.0632 9.55566 13.4442 9.55566C12.8253 9.55566 12.3235 10.0574 12.3235 10.6764C12.3235 11.2954 12.8253 11.7972 13.4442 11.7972Z" fill="white"/>
<path d="M13.2583 11.2379C13.5677 11.2379 13.8186 10.9871 13.8186 10.6776C13.8186 10.3681 13.5677 10.1172 13.2583 10.1172C12.9488 10.1172 12.6979 10.3681 12.6979 10.6776C12.6979 10.9871 12.9488 11.2379 13.2583 11.2379Z" fill="#547580"/>
<path d="M14.1914 12.171H12.6971C12.4907 12.171 12.3235 12.0037 12.3235 11.7974C12.3235 11.5911 12.4907 11.4238 12.6971 11.4238H14.1914C14.3977 11.4238 14.565 11.5911 14.565 11.7974C14.565 12.0037 14.3977 12.171 14.1914 12.171Z" fill="#F9C795"/>
<mask id="mask0_1572_23741" style="mask-type:luminance" maskUnits="userSpaceOnUse" x="0" y="0" width="23" height="23">
<path d="M0 0.000392914H22.0416V22.042H0V0.000392914Z" fill="white"/>
</mask>
<g mask="url(#mask0_1572_23741)">
<path d="M13.8089 18.0474V18.2342C13.8089 19.4628 13.0202 20.5322 11.8463 20.8951C11.5806 20.9778 11.3034 21.0195 11.0227 21.0195C9.48668 21.0195 8.23694 19.7698 8.23694 18.2342V18.0482C8.38632 18.0189 8.53829 17.9966 8.69198 17.9806C8.73632 17.9759 8.78023 17.9716 8.825 17.9681C8.97051 17.9561 9.11774 17.9501 9.26669 17.9501H12.7791C12.9737 17.9501 13.1653 17.9604 13.3539 17.9802C13.5075 17.9961 13.6591 18.0189 13.8089 18.0474Z" fill="#F9C5AC"/>
<path d="M8.825 17.967C8.78023 17.9704 8.73632 17.9747 8.69198 17.9795C8.53829 17.9954 8.38632 18.0178 8.23694 18.0471V18.233C8.23694 18.2866 8.23883 18.3398 8.24185 18.3926C8.53902 18.1164 8.8842 17.9489 9.26669 17.9489C9.11774 17.9489 8.97051 17.9549 8.825 17.967Z" fill="#EFB29A"/>
<path d="M12.9492 15.8696V18.2317C12.9492 19.0966 12.379 19.8275 11.5936 20.0703C11.4138 20.1261 11.2222 20.1562 11.0241 20.1562C9.96113 20.1562 9.09961 19.2947 9.09961 18.2317V15.8696H12.9492Z" fill="#EFB29A"/>
<path d="M12.9447 18.0822V18.2318C12.9447 19.0966 12.3745 19.8275 11.5891 20.0703C10.8805 19.8525 10.3477 19.2363 10.2493 18.4824C10.3779 18.4903 10.5071 18.4943 10.6371 18.4943C11.0012 18.4943 11.3581 18.4654 11.7059 18.4083C12.1344 18.3394 12.5484 18.2292 12.9447 18.0822Z" fill="#F9C5AC"/>
<path d="M5.70137 11.9803C5.70137 12.8627 5.05679 13.5944 4.21275 13.7302C4.12049 13.7451 4.02561 13.7529 3.92879 13.7529C2.94962 13.7529 2.15625 12.9596 2.15625 11.9803C2.15625 11.0011 2.94962 10.2078 3.92879 10.2078C4.02561 10.2078 4.12049 10.2156 4.21275 10.2305C5.05679 10.3663 5.70137 11.098 5.70137 11.9803Z" fill="#F9C5AC"/>
<path d="M5.7055 11.9777C5.7055 12.8601 5.06091 13.5918 4.21687 13.7275C4.06353 13.17 3.98169 12.5833 3.98169 11.9777C3.98169 11.3721 4.06353 10.7854 4.21687 10.2279C5.06091 10.3637 5.7055 11.0953 5.7055 11.9777Z" fill="#EFB29A"/>
<path d="M4.55867 11.9759C4.55867 11.626 4.27502 11.3423 3.92515 11.3423C3.57524 11.3423 3.29163 11.626 3.29163 11.9759C3.29163 12.3257 3.57524 12.6094 3.92515 12.6094C4.27502 12.6094 4.55867 12.3257 4.55867 11.9759Z" fill="#EFB29A"/>
<path d="M16.33 11.9803C16.33 12.8627 16.9745 13.5944 17.8186 13.7302C17.9108 13.7451 18.0057 13.7529 18.1025 13.7529C19.0817 13.7529 19.8751 12.9596 19.8751 11.9803C19.8751 11.0011 19.0817 10.2078 18.1025 10.2078C18.0057 10.2078 17.9108 10.2156 17.8186 10.2305C16.9745 10.3663 16.33 11.098 16.33 11.9803Z" fill="#F9C5AC"/>
<path d="M16.33 11.9777C16.33 12.8601 16.9745 13.5918 17.8186 13.7275C17.9719 13.17 18.0538 12.5833 18.0538 11.9777C18.0538 11.3721 17.9719 10.7854 17.8186 10.2279C16.9745 10.3637 16.33 11.0953 16.33 11.9777Z" fill="#EFB29A"/>
<path d="M17.4725 11.9759C17.4725 11.626 17.7561 11.3423 18.1061 11.3423C18.4559 11.3423 18.7396 11.626 18.7396 11.9759C18.7396 12.3257 18.4559 12.6094 18.1061 12.6094C17.7561 12.6094 17.4725 12.3257 17.4725 11.9759Z" fill="#EFB29A"/>
<path d="M11.0299 18.5684C9.02803 18.5684 7.13947 17.773 5.71214 16.3287C4.29068 14.8904 3.50781 12.9935 3.50781 10.9874V8.28479C3.50781 4.13774 6.88168 0.763914 11.0287 0.763914C15.1758 0.763914 18.5496 4.13774 18.5496 8.28479V11.0474C18.5496 12.8452 17.9051 14.5852 16.7348 15.947C15.5772 17.294 13.979 18.1905 12.2345 18.4715C11.854 18.5339 11.4584 18.5666 11.0611 18.5683L11.0299 18.5684Z" fill="#3B5559"/>
<path d="M17.6823 11.0462C17.6823 14.3604 15.2612 17.1096 12.0913 17.6201C11.7527 17.6757 11.4054 17.7045 11.0512 17.706C7.37248 17.7214 4.36255 14.6649 4.36255 10.9861V8.28351C4.36255 4.60536 7.34428 1.62359 11.0224 1.62359C14.7006 1.62359 17.6823 4.60536 17.6823 8.28351V11.0462Z" fill="#F9C5AC"/>
<path d="M12.2898 17.585C12.2239 17.5979 12.1576 17.6096 12.0913 17.6203C11.7525 17.6759 11.4055 17.7047 11.0512 17.706C7.3726 17.7215 4.36255 14.6649 4.36255 10.9863V8.28364C4.36255 4.60545 7.34419 1.62381 11.0224 1.62381C11.4533 1.62381 11.8743 1.66471 12.2825 1.74306C9.20653 2.33155 6.88227 5.03638 6.88227 8.28364V10.9863C6.88227 14.2271 9.21816 16.9853 12.2898 17.585Z" fill="#EFB29A"/>
<path d="M11.0129 14.5508C10.4552 14.5508 9.89754 14.411 9.3892 14.1316C9.2458 14.0528 9.19345 13.8727 9.27232 13.7293C9.35115 13.5859 9.53131 13.5336 9.67467 13.6123C10.5126 14.073 11.5132 14.073 12.3511 13.6123C12.4944 13.5335 12.6746 13.5858 12.7534 13.7293C12.8323 13.8727 12.7799 14.0528 12.6365 14.1316C12.1282 14.411 11.5705 14.5508 11.0129 14.5508Z" fill="#DD9F8A"/>
<path d="M12.1034 10.7294C12.1034 11.4683 12.7024 12.0674 13.4414 12.0674C14.1803 12.0674 14.7793 11.4683 14.7793 10.7294" fill="#EFB29A"/>
<path d="M14.411 10.7271C14.411 10.1972 13.9814 9.76761 13.4515 9.76761C12.9216 9.76761 12.4921 10.1972 12.4921 10.7271C12.4921 11.257 12.9216 11.6865 13.4515 11.6865C13.9814 11.6865 14.411 11.257 14.411 10.7271Z" fill="#3B5559"/>
<path d="M14.263 10.5596C14.263 10.3325 14.0789 10.1484 13.8518 10.1484C13.6248 10.1484 13.4407 10.3325 13.4407 10.5596C13.4407 10.7866 13.6248 10.9707 13.8518 10.9707C14.0789 10.9707 14.263 10.7866 14.263 10.5596Z" fill="white"/>
<path d="M7.25195 10.7294C7.25195 11.4683 7.85099 12.0674 8.58995 12.0674C9.32886 12.0674 9.9279 11.4683 9.9279 10.7294" fill="#EFB29A"/>
<path d="M9.55958 10.7271C9.55958 10.1972 9.12998 9.76761 8.60012 9.76761C8.07022 9.76761 7.64062 10.1972 7.64062 10.7271C7.64062 11.257 8.07022 11.6865 8.60012 11.6865C9.12998 11.6865 9.55958 11.257 9.55958 10.7271Z" fill="#3B5559"/>
<path d="M8.8245 11.6598C8.75261 11.6775 8.67727 11.6865 8.60021 11.6865C8.07026 11.6865 7.64062 11.2569 7.64062 10.7269C7.64062 10.197 8.07026 9.76735 8.60021 9.76735C8.67727 9.76735 8.75261 9.7764 8.8245 9.79405C8.40261 9.89478 8.08964 10.2745 8.08964 10.7269C8.08964 11.1794 8.40261 11.5591 8.8245 11.6598Z" fill="#263B3D"/>
<path d="M13.6759 11.6598C13.604 11.6775 13.5287 11.6865 13.4516 11.6865C12.9217 11.6865 12.4921 11.2569 12.4921 10.7269C12.4921 10.197 12.9217 9.76735 13.4516 9.76735C13.5287 9.76735 13.604 9.7764 13.6759 9.79405C13.2541 9.89478 12.9411 10.2745 12.9411 10.7269C12.9411 11.1794 13.2541 11.5591 13.6759 11.6598Z" fill="#263B3D"/>
<path d="M9.40429 10.5596C9.40429 10.3325 9.2202 10.1484 8.99316 10.1484C8.76607 10.1484 8.58203 10.3325 8.58203 10.5596C8.58203 10.7866 8.76607 10.9707 8.99316 10.9707C9.2202 10.9707 9.40429 10.7866 9.40429 10.5596Z" fill="white"/>
<path d="M11.7697 12.5635H10.2587C10.0788 12.5635 9.93286 12.4176 9.93286 12.2376C9.93286 12.0576 10.0788 11.9117 10.2587 11.9117H11.7697C11.9497 11.9117 12.0956 12.0576 12.0956 12.2376C12.0956 12.4176 11.9497 12.5635 11.7697 12.5635Z" fill="#EFB29A"/>
<path d="M12.203 0.00361061H9.82277C6.21174 0.00361061 3.28442 2.93092 3.28442 6.54196V9.3291H18.7413V6.54196C18.7413 2.93092 15.814 0.00361061 12.203 0.00361061Z" fill="#75CEF9"/>
<path d="M12.5591 0.0135117C9.11382 0.198196 6.37671 3.05026 6.37671 6.54204V9.3291H3.28442V6.54204C3.28442 2.93101 6.21182 0.00361061 9.82286 0.00361061H12.2031C12.3223 0.00361061 12.4412 0.00662327 12.5591 0.0135117Z" fill="#5EA5EC"/>
<path d="M8.13497 5.40187C8.13497 4.82074 7.66388 4.34965 7.08275 4.34965C6.50161 4.34965 6.03052 4.82074 6.03052 5.40187C6.03052 5.98301 6.50161 6.4541 7.08275 6.4541C7.66388 6.4541 8.13497 5.98301 8.13497 5.40187Z" fill="#3B5559"/>
<path d="M7.34053 6.42224C7.25787 6.44291 7.17177 6.4541 7.08266 6.4541C6.50148 6.4541 6.03052 5.98313 6.03052 5.40196C6.03052 4.82078 6.50148 4.34982 7.08266 4.34982C7.17177 4.34982 7.25787 4.36101 7.34053 4.38167C6.88377 4.49619 6.54583 4.90947 6.54583 5.40196C6.54583 5.89445 6.88377 6.30773 7.34053 6.42224Z" fill="#5EA5EC"/>
<path d="M13.9003 5.40187C13.9003 4.82074 14.3714 4.34965 14.9525 4.34965C15.5336 4.34965 16.0047 4.82074 16.0047 5.40187C16.0047 5.98301 15.5336 6.4541 14.9525 6.4541C14.3714 6.4541 13.9003 5.98301 13.9003 5.40187Z" fill="#3B5559"/>
<path d="M14.7057 6.42224C14.7883 6.44291 14.8744 6.4541 14.9636 6.4541C15.5447 6.4541 16.0157 5.98313 16.0157 5.40196C16.0157 4.82078 15.5447 4.34982 14.9636 4.34982C14.8744 4.34982 14.7883 4.36101 14.7057 4.38167C15.1624 4.49619 15.5004 4.90947 15.5004 5.40196C15.5004 5.89445 15.1624 6.30773 14.7057 6.42224Z" fill="#5EA5EC"/>
<path d="M11.9602 6.05888C11.6442 6.05888 11.3876 5.8023 11.3876 5.48631C11.3876 5.16989 11.6442 4.91375 11.9602 4.91375C12.2766 4.91375 12.5327 5.16989 12.5327 5.48631C12.5327 5.8023 12.2766 6.05888 11.9602 6.05888ZM10.0707 6.05888C9.75428 6.05888 9.49813 5.8023 9.49813 5.48631C9.49813 5.16989 9.75428 4.91375 10.0707 4.91375C10.3867 4.91375 10.6433 5.16989 10.6433 5.48631C10.6433 5.8023 10.3867 6.05888 10.0707 6.05888ZM11.0152 3.21456C9.99277 3.21456 9.16406 4.0437 9.16406 5.06614C9.16406 5.69467 9.47747 6.24959 9.95618 6.58452V6.98445C9.95618 7.17947 10.1142 7.33789 10.3092 7.33789C10.5042 7.33789 10.6622 7.17947 10.6622 6.98445C10.6622 7.17947 10.8202 7.33789 11.0152 7.33789C11.1129 7.33789 11.2012 7.29828 11.2649 7.23414C11.329 7.17043 11.3687 7.08217 11.3687 6.98445C11.3687 7.17947 11.5266 7.33789 11.7217 7.33789C11.9167 7.33789 12.0747 7.17947 12.0747 6.98445V6.58452C12.5534 6.24959 12.8668 5.69467 12.8668 5.06614C12.8668 4.0437 12.0381 3.21456 11.0152 3.21456Z" fill="white"/>
<path d="M17.9839 3.88775L18.757 3.62209C18.9892 3.54228 18.9892 3.21393 18.757 3.13412L17.9839 2.86846C17.9087 2.84263 17.8496 2.78352 17.8238 2.70831L17.5581 1.93522C17.4783 1.70305 17.15 1.70305 17.0702 1.93522L16.8045 2.70831C16.7787 2.78352 16.7196 2.84263 16.6444 2.86846L15.8713 3.13412C15.6391 3.21393 15.6391 3.54228 15.8713 3.62209L16.6444 3.88775C16.7196 3.91358 16.7787 3.97269 16.8045 4.0479L17.0702 4.82099C17.15 5.05316 17.4783 5.05316 17.5581 4.82099L17.8238 4.0479C17.8496 3.97269 17.9087 3.91358 17.9839 3.88775Z" fill="#F6F9F9"/>
</g>
</g>
</svg>
