<svg width="21" height="20" viewBox="0 0 21 20" fill="none" xmlns="http://www.w3.org/2000/svg">
<mask id="path-1-inside-1_44_4394" fill="white">
<path d="M10.5412 0C15.8495 0 20.1528 4.20819 20.1528 9.39926C20.1528 11.849 19.1944 14.0799 17.6243 15.7529L20.7122 18.7636C21.0016 19.0459 21.0023 19.5043 20.7136 19.7873C20.4511 20.0446 20.0399 20.0685 19.7499 19.8586L19.6667 19.7886L16.5424 16.7417C14.8978 18.0288 12.8114 18.7985 10.5412 18.7985C5.23292 18.7985 0.929688 14.5903 0.929688 9.39926C0.929688 4.20819 5.23292 0 10.5412 0ZM10.5412 1.44774C6.05054 1.44774 2.41012 5.00776 2.41012 9.39926C2.41012 13.7908 6.05054 17.3508 10.5412 17.3508C15.0319 17.3508 18.6723 13.7908 18.6723 9.39926C18.6723 5.00776 15.0319 1.44774 10.5412 1.44774Z"/>
</mask>
<path d="M10.5412 0C15.8495 0 20.1528 4.20819 20.1528 9.39926C20.1528 11.849 19.1944 14.0799 17.6243 15.7529L20.7122 18.7636C21.0016 19.0459 21.0023 19.5043 20.7136 19.7873C20.4511 20.0446 20.0399 20.0685 19.7499 19.8586L19.6667 19.7886L16.5424 16.7417C14.8978 18.0288 12.8114 18.7985 10.5412 18.7985C5.23292 18.7985 0.929688 14.5903 0.929688 9.39926C0.929688 4.20819 5.23292 0 10.5412 0ZM10.5412 1.44774C6.05054 1.44774 2.41012 5.00776 2.41012 9.39926C2.41012 13.7908 6.05054 17.3508 10.5412 17.3508C15.0319 17.3508 18.6723 13.7908 18.6723 9.39926C18.6723 5.00776 15.0319 1.44774 10.5412 1.44774Z" fill="black"/>
<path d="M17.6243 15.7529L16.5305 14.7264L15.5234 15.7996L16.5771 16.827L17.6243 15.7529ZM20.7122 18.7636L21.7596 17.6898L21.7593 17.6896L20.7122 18.7636ZM20.7136 19.7873L21.7637 20.8584V20.8584L20.7136 19.7873ZM19.7499 19.8586L18.7837 21.0061L18.8259 21.0415L18.8705 21.0738L19.7499 19.8586ZM19.6667 19.7886L18.6195 20.8625L18.6587 20.9008L18.7006 20.9361L19.6667 19.7886ZM16.5424 16.7417L17.5897 15.6678L16.6507 14.7522L15.6179 15.5605L16.5424 16.7417ZM10.5412 1.5C15.0529 1.5 18.6528 5.06802 18.6528 9.39926H21.6528C21.6528 3.34836 16.6462 -1.5 10.5412 -1.5V1.5ZM18.6528 9.39926C18.6528 11.4486 17.853 13.3173 16.5305 14.7264L18.718 16.7794C20.5358 14.8426 21.6528 12.2495 21.6528 9.39926H18.6528ZM16.5771 16.827L19.6651 19.8376L21.7593 17.6896L18.6714 14.6789L16.5771 16.827ZM19.6648 19.8374C19.3519 19.5322 19.3512 19.0224 19.6634 18.7162L21.7637 20.8584C22.6534 19.9861 22.6514 18.5597 21.7596 17.6898L19.6648 19.8374ZM19.6634 18.7162C19.9332 18.4518 20.3385 18.433 20.6292 18.6434L18.8705 21.0738C19.7413 21.704 20.9691 21.6375 21.7637 20.8584L19.6634 18.7162ZM20.716 18.7112L20.6329 18.6412L18.7006 20.9361L18.7837 21.0061L20.716 18.7112ZM20.714 18.7148L17.5897 15.6678L15.4951 17.8156L18.6195 20.8625L20.714 18.7148ZM15.6179 15.5605C14.2302 16.6465 12.4675 17.2985 10.5412 17.2985V20.2985C13.1554 20.2985 15.5654 19.4111 17.4669 17.923L15.6179 15.5605ZM10.5412 17.2985C6.02959 17.2985 2.42969 13.7305 2.42969 9.39926H-0.570312C-0.570312 15.4502 4.43625 20.2985 10.5412 20.2985V17.2985ZM2.42969 9.39926C2.42969 5.06802 6.02959 1.5 10.5412 1.5V-1.5C4.43625 -1.5 -0.570312 3.34836 -0.570312 9.39926H2.42969ZM10.5412 -0.0522611C5.25387 -0.0522611 0.910123 4.14792 0.910123 9.39926H3.91012C3.91012 5.86759 6.84721 2.94774 10.5412 2.94774V-0.0522611ZM0.910123 9.39926C0.910123 14.6506 5.25387 18.8508 10.5412 18.8508V15.8508C6.84721 15.8508 3.91012 12.9309 3.91012 9.39926H0.910123ZM10.5412 18.8508C15.8286 18.8508 20.1723 14.6506 20.1723 9.39926H17.1723C17.1723 12.9309 14.2352 15.8508 10.5412 15.8508V18.8508ZM20.1723 9.39926C20.1723 4.14792 15.8286 -0.0522611 10.5412 -0.0522611V2.94774C14.2352 2.94774 17.1723 5.86759 17.1723 9.39926H20.1723Z" fill="black" mask="url(#path-1-inside-1_44_4394)"/>
</svg>
