<svg width="23" height="23" viewBox="0 0 23 23" fill="none" xmlns="http://www.w3.org/2000/svg">
<path d="M20.5837 18.5535C22.0983 16.6059 23.0006 14.1585 23.0006 11.5003C23.0006 5.14884 17.8517 -1.90735e-06 11.5003 -1.90735e-06C5.14889 -1.90735e-06 0 5.14884 0 11.5003C0 14.4252 1.09253 17.0945 2.89094 19.1239L20.5837 18.5535Z" fill="#603F42"/>
<path d="M18.063 20.1075C18.0051 20.064 17.9435 20.0255 17.884 19.9882C17.5017 19.749 17.4585 19.6442 17.6288 19.1666C17.6994 18.9684 17.7725 18.7634 17.7297 18.5458C17.6543 18.1625 17.3083 18.0085 16.9738 17.8596C16.6246 17.7043 16.5118 17.6457 16.3327 17.4271C16.1464 17.2001 15.9796 17.0633 15.5915 17.0633C15.0802 17.0633 14.52 17.321 14.2727 17.0018C14.1515 16.8452 14.172 16.6179 14.1937 16.3773C14.2632 15.6056 14.0626 15.1755 14.0114 14.5082C13.9443 13.635 14.2476 12.7504 14.8192 12.0923C13.8711 11.7567 12.8509 11.5734 11.7878 11.5734C10.9939 11.5734 10.224 11.6755 9.49002 11.8669C9.40168 12.0266 9.3247 12.1935 9.26983 12.3692C9.09986 12.9139 9.1844 13.4751 9.49035 13.834C9.84113 14.2453 10.4662 14.4159 10.5606 14.8648C10.614 15.1188 10.4745 15.3684 10.327 15.6327C10.1778 15.8998 10.0235 16.176 10.0455 16.492C10.0739 16.8999 10.3716 17.1739 10.6595 17.4387C11.3498 18.074 11.1486 18.1621 11.2767 18.5038C11.4256 18.9009 11.8929 19.0387 12.0438 19.3428C12.3666 19.9933 11.141 21.379 9.10521 21.596C8.79043 21.6285 8.46467 21.6547 8.22307 21.8639C7.99832 22.0584 8.05216 22.1686 7.60449 22.3236C8.81902 22.7599 10.1279 22.9982 11.4927 22.9982C14.1134 22.9982 16.5289 22.121 18.4629 20.6449C18.3779 20.4316 18.2426 20.2423 18.063 20.1075Z" fill="#2EBCF6"/>
<path d="M12.1902 21.1844C12.0643 20.8953 11.8456 20.6645 11.5781 20.5212C11.0676 21.0204 10.205 21.4788 9.10521 21.596C8.79043 21.6285 8.46467 21.6547 8.22307 21.8639C7.99832 22.0584 8.05221 22.1686 7.60449 22.3236C8.81906 22.7599 10.1279 22.9982 11.4927 22.9982C12.2755 22.9982 13.0398 22.9193 13.7786 22.7702C12.9 22.4236 12.4336 21.7435 12.1902 21.1844Z" fill="#00ADF4"/>
<path d="M11.3973 18.4615C11.3556 18.3504 11.3517 18.2289 11.3222 18.1139C11.1539 17.456 10.2209 17.1623 10.1738 16.4848C10.1331 15.9004 10.8071 15.4139 10.6865 14.8407C10.5784 14.3261 9.93031 14.1545 9.58911 13.7545C9.28184 13.3942 9.25166 12.86 9.39276 12.408C9.45674 12.2031 9.5509 12.0111 9.66083 11.8269C6.17484 12.6651 3.47161 15.5134 2.84656 19.0774C4.16275 20.5786 5.86311 21.7345 7.7945 22.3907C7.8903 22.35 7.98005 22.2994 8.05779 22.2281C8.1481 22.1453 8.21597 22.04 8.30854 21.9598C8.52582 21.7717 8.83633 21.7522 9.12215 21.7217C10.1976 21.6071 11.2898 21.1681 11.9383 20.3025C12.1569 20.0107 12.3214 19.6153 12.1594 19.2888C11.9908 18.949 11.5305 18.8167 11.3973 18.4615Z" fill="#85D249"/>
<path d="M11.6927 20.5884C11.4806 20.4477 11.2298 20.3658 10.9652 20.3613C7.28539 20.2983 8.97668 16.4512 7.60815 15.5519C6.65156 14.9233 6.70056 13.7693 6.85349 13.0345C4.78011 14.3803 3.29009 16.5486 2.84656 19.0775C4.16275 20.5786 5.86311 21.7345 7.7945 22.3907C7.8903 22.35 7.98005 22.2994 8.05774 22.2282C8.1481 22.1454 8.21597 22.04 8.30854 21.9598C8.52582 21.7717 8.83633 21.7522 9.1221 21.7218C10.0718 21.6205 11.034 21.2659 11.6927 20.5884Z" fill="#60B550"/>
<path d="M14.7026 12.0491C14.1318 12.7281 13.8281 13.6327 13.8961 14.5187C13.94 15.0892 14.1272 15.6498 14.0905 16.2207C14.0716 16.5153 14.0025 16.8458 14.1833 17.0791C14.5888 17.6028 15.5393 16.9216 16.0672 17.3217C16.1825 17.4091 16.2585 17.538 16.3618 17.6393C16.7464 18.0166 17.5124 18.0421 17.6164 18.5708C17.6944 18.9674 17.2948 19.3766 17.4561 19.7471C17.5521 19.9677 17.8049 20.0639 17.9972 20.2082C18.1708 20.3385 18.2961 20.5205 18.3706 20.7233C19.2192 20.0904 19.977 19.3427 20.6223 18.5039C19.8855 15.4725 17.6276 13.0362 14.7026 12.0491Z" fill="#85D249"/>
<path d="M20.378 17.6798C19.6499 15.577 18.1714 13.8249 16.2624 12.744C15.8753 13.3407 15.3638 14.5105 16.5505 15.3614C18.0575 16.442 17.9031 17.9311 20.378 17.6798Z" fill="#A3EA6E"/>
<path d="M21.5277 5.87268C21.0372 6.90512 19.9291 8.4609 17.5609 9.12313C17.0941 9.25362 16.758 9.66078 16.7286 10.1446L16.7282 10.1517C16.7014 10.5926 16.9336 11.0093 17.3237 11.2164C18.2335 11.6993 19.9058 12.7882 20.9707 14.6917C21.3239 15.3229 21.7245 15.6901 22.1316 15.8822C22.6889 14.5316 22.997 13.0517 22.997 11.4997C22.997 9.45546 22.463 7.53618 21.5277 5.87268Z" fill="#725057"/>
<path d="M5.70504 11.7317L5.70457 11.7243C5.67387 11.219 5.32294 10.7938 4.83547 10.6575C2.45843 9.9929 1.29747 8.46646 0.755874 7.39149C0.268027 8.66704 0 10.0513 0 11.4985C0 13.3341 0.430486 15.0689 1.19551 16.6082C1.22208 16.5643 1.24846 16.5194 1.27451 16.4729C2.38666 14.4851 4.13297 13.3479 5.08308 12.8436C5.49057 12.6273 5.73306 12.1922 5.70504 11.7317Z" fill="#725057"/>
<path d="M8.96404 10.7652V12.9464H8.04895V10.7649" fill="#C97523"/>
<path d="M8.45712 10.7652V12.9464H8.04895V10.7649" fill="#A85613"/>
<path d="M8.50948 11.2425C9.73559 11.2425 10.7295 9.67993 10.7295 7.75239C10.7295 5.82485 9.73559 4.26227 8.50948 4.26227C7.28338 4.26227 6.28943 5.82485 6.28943 7.75239C6.28943 9.67993 7.28338 11.2425 8.50948 11.2425Z" fill="#8CC928"/>
<path d="M8.50948 11.2425C7.28327 11.2425 6.28943 9.67983 6.28943 7.75239C6.28943 5.82495 7.28327 4.26227 8.50948 4.26227C7.9666 4.26227 7.52672 5.82495 7.52672 7.75239C7.52672 9.67983 7.9666 11.2425 8.50948 11.2425Z" fill="#82B20B"/>
<path d="M15.8553 9.02627V13.47H10.0255V9.02627L12.9568 6.18272L15.8553 9.02627Z" fill="#E9EAEF"/>
<path d="M14.428 7.46027V6.63945H15.8854V8.84826" fill="#9EB1B7"/>
<path d="M14.428 7.46027V6.63945H14.778V8.84826" fill="#879BA0"/>
<path d="M13.5218 12.5411H16.443C16.6082 12.5411 16.7422 12.675 16.7422 12.8403V13.4723H13.2227V12.8403C13.2227 12.675 13.3566 12.5411 13.5218 12.5411Z" fill="#85C10D"/>
<path d="M6.58874 12.5411H9.97704C10.1423 12.5411 10.2762 12.675 10.2762 12.8403V13.4723H6.28955V12.8403C6.28955 12.675 6.42349 12.5411 6.58874 12.5411Z" fill="#85C10D"/>
<path d="M15.8553 9.20052V10.0311L12.9404 7.248L10.0255 10.0311V9.20052L12.7089 6.64485L12.9404 6.42981L13.1717 6.64485L15.8553 9.20052Z" fill="#D2D4D8"/>
<path d="M12.9398 6.78753L9.62105 9.95613L9.15698 9.56655L12.7084 6.18429L12.9398 5.96935L13.1713 6.18429L16.7227 9.56655L16.2586 9.95613L12.9398 6.78753Z" fill="#EA4756"/>
<path d="M12.6594 10.1434H10.7368V13.4727H12.6594V10.1434Z" fill="#C97523"/>
<path d="M12.8013 13.4726H12.5246V10.2816H10.8787V13.4726H10.6021V10.1433C10.6021 10.0668 10.664 10.0049 10.7404 10.0049H12.663C12.7394 10.0049 12.8013 10.0668 12.8013 10.1433L12.8013 13.4726Z" fill="#8E480E"/>
<path d="M15.412 10.1434H13.2225V12.066H15.412V10.1434Z" fill="#A0D9F2"/>
<path d="M15.412 10.1434H13.2225V10.7276H15.412V10.1434Z" fill="#C97523"/>
<path d="M15.4031 12.2028H13.2138C13.1374 12.2028 13.0754 12.1409 13.0754 12.0645V10.1419C13.0754 10.0655 13.1374 10.0036 13.2138 10.0036H15.4031C15.4796 10.0036 15.5415 10.0655 15.5415 10.1419V12.0645C15.5415 12.1408 15.4795 12.2028 15.4031 12.2028ZM13.3521 11.9261H15.2648V10.2802H13.3521V11.9261Z" fill="#8E480E"/>
<path d="M12.2274 11.9349H11.9484C11.872 11.9349 11.8101 11.873 11.8101 11.7965C11.8101 11.7201 11.872 11.6582 11.9484 11.6582H12.2274C12.3039 11.6582 12.3658 11.7201 12.3658 11.7965C12.3658 11.873 12.3038 11.9349 12.2274 11.9349Z" fill="#8E480E"/>
<path d="M12.9413 9.1915C13.2367 9.1915 13.4761 8.95206 13.4761 8.6567C13.4761 8.36134 13.2367 8.1219 12.9413 8.1219C12.6459 8.1219 12.4065 8.36134 12.4065 8.6567C12.4065 8.95206 12.6459 9.1915 12.9413 9.1915Z" fill="#413740"/>
<path d="M15.412 10.5889H13.2225V10.8656H15.412V10.5889Z" fill="#8E480E"/>
<path d="M12.9374 9.32981C12.5662 9.32981 12.2642 9.02781 12.2642 8.65661C12.2642 8.2854 12.5661 7.9834 12.9374 7.9834C13.3086 7.9834 13.6106 8.2854 13.6106 8.65661C13.6106 9.02781 13.3086 9.32981 12.9374 9.32981ZM12.9374 8.26005C12.7187 8.26005 12.5408 8.43795 12.5408 8.65661C12.5408 8.87526 12.7187 9.05316 12.9374 9.05316C13.156 9.05316 13.3339 8.87526 13.3339 8.65661C13.3339 8.43795 13.156 8.26005 12.9374 8.26005Z" fill="#EA4756"/>
<path d="M7.24616 12.8039C7.158 12.8039 7.08655 12.7324 7.08655 12.6442V12.2404C7.08655 12.1523 7.158 12.0808 7.24616 12.0808C7.33432 12.0808 7.40577 12.1523 7.40577 12.2404V12.6442C7.40577 12.7324 7.3343 12.8039 7.24616 12.8039Z" fill="#85C10D"/>
<path d="M6.73701 12.8039C6.64884 12.8039 6.57739 12.7324 6.57739 12.6442V12.2404C6.57739 12.1523 6.64884 12.0808 6.73701 12.0808C6.82517 12.0808 6.89662 12.1523 6.89662 12.2404V12.6442C6.89662 12.7324 6.82517 12.8039 6.73701 12.8039Z" fill="#85C10D"/>
<path d="M9.49982 12.8039C9.41166 12.8039 9.34021 12.7324 9.34021 12.6442V12.2404C9.34021 12.1523 9.41166 12.0808 9.49982 12.0808C9.58799 12.0808 9.65944 12.1523 9.65944 12.2404V12.6442C9.65944 12.7324 9.58801 12.8039 9.49982 12.8039Z" fill="#85C10D"/>
</svg>
