<svg width="49" height="33" viewBox="0 0 49 33" fill="none" xmlns="http://www.w3.org/2000/svg">
<g clip-path="url(#clip0_1690_5217)">
<path d="M30.9099 32.1616C30.5178 32.1616 30.1271 32.0021 29.8433 31.6883L10.345 10.1293C9.81247 9.54047 9.85811 8.63143 10.4469 8.09891C11.0356 7.5664 11.9446 7.61197 12.4772 8.20081L31.9756 29.7599C32.5081 30.3486 32.4625 31.2577 31.8737 31.7902C31.5987 32.039 31.2536 32.1616 30.9099 32.1616Z" fill="#F4DAB5"/>
<path d="M5.32715 3.4967C5.32715 3.4967 6.47789 1.01267 8.9119 1.33442C11.2454 1.6429 11.9594 3.88722 11.9594 3.88722C11.9594 3.88722 16.7797 4.34703 20.0539 6.49686C24.067 9.13183 20.0663 12.7767 20.0663 12.7767L16.6811 14.384L5.32715 3.4967Z" fill="#9781DD"/>
<path d="M10.5129 14.6516L13.0485 19.0146L19.8118 13.1643L13.9978 6.79457C13.7474 6.54784 13.2109 6.04885 12.7343 5.63416C13.1857 5.40174 13.5433 4.91769 13.6806 4.19505C13.9065 3.00582 12.9647 1.52978 12.5945 1.45946C12.2242 1.38914 10.8069 2.41717 10.5811 3.6064C10.5269 3.8916 10.5187 4.15463 10.5486 4.39234C8.39849 3.92827 6.1579 5.49938 4.6624 8.18766C2.74318 11.6374 2.88175 15.3211 4.44274 16.3416C6.05252 17.394 8.51193 16.6387 10.5129 14.6516Z" fill="#E8C2D8"/>
<path d="M3.4789 11.6143C3.4789 11.6143 2.6133 14.882 4.72755 16.5018C6.84181 18.1216 9.40692 15.039 9.40692 15.039L3.4789 11.6143Z" fill="#D789B9"/>
<path d="M10.0054 15.0785C10.4114 14.8171 10.7911 14.5385 11.1251 14.2544L10.6213 13.3718C10.4539 13.0786 10.05 13.0243 9.81649 13.2681C9.45884 13.6415 9.04151 13.9734 8.59375 14.2583C9.0611 14.537 9.54057 14.7954 10.0054 15.0785Z" fill="#D392D8"/>
<path d="M7.94672 14.627C6.38012 15.4215 4.61965 15.6512 3.7155 15.0601C3.59162 14.9792 3.47831 14.8785 3.37512 14.7615C3.57725 15.2785 4.06541 16.0952 4.44272 16.3419C5.51806 17.0448 7.5948 16.4568 9.37049 15.4603C8.8954 15.1832 8.41175 14.9208 7.94672 14.627Z" fill="#C668B9"/>
<path d="M13.9978 6.79457C13.7474 6.54784 13.211 6.04891 12.7343 5.63415C13.1857 5.40174 13.5434 4.91769 13.6806 4.19504C13.9065 3.00582 12.9648 1.52978 12.5945 1.45946C12.3276 1.4088 11.5172 1.92855 11.0006 2.66789C11.3589 2.98616 11.9153 4.05073 11.7348 4.92195C11.704 5.0707 11.6624 5.20735 11.6114 5.33168C11.3581 5.9501 11.4932 6.65851 11.9619 7.13488L11.9683 7.14133L15.874 11.5656C16.3989 12.1602 16.33 13.0707 15.7217 13.5795L11.7974 16.8618L13.0485 19.0145L19.8119 13.1642L13.9978 6.79457Z" fill="#D392D8"/>
<path d="M16.0808 16.6943L18.2821 14.7179L19.8449 16.4585L17.6436 18.4349L16.0808 16.6943Z" fill="#DBA2B3"/>
<path d="M0.705458 1.29652L5.70786 7.87429C6.35419 8.40209 8.98085 5.18543 8.33452 4.65763L1.07819 0.869457C0.807552 0.731721 0.532402 1.04703 0.705458 1.29652Z" fill="white"/>
<path d="M27.9216 11.6575L28.4829 13.2361C28.507 13.3037 28.5546 13.3572 28.6146 13.3843L30.0171 14.0162C30.2153 14.1054 30.2153 14.4211 30.0171 14.5104L28.6146 15.1423C28.5546 15.1693 28.507 15.2229 28.4829 15.2905L27.9216 16.869C27.8422 17.092 27.5618 17.092 27.4824 16.869L26.9211 15.2905C26.897 15.2228 26.8494 15.1693 26.7894 15.1423L25.3869 14.5104C25.1887 14.4211 25.1887 14.1054 25.3869 14.0162L26.7894 13.3843C26.8494 13.3572 26.897 13.3036 26.9211 13.2361L27.4824 11.6575C27.5618 11.4345 27.8423 11.4345 27.9216 11.6575Z" fill="#E9C3D9"/>
<path d="M8.08291 24.4219L8.49934 25.5929C8.51719 25.6431 8.55245 25.6828 8.59698 25.7029L9.63732 26.1716C9.78427 26.2378 9.78427 26.472 9.63732 26.5382L8.59698 27.0069C8.55245 27.0269 8.51713 27.0667 8.49934 27.1169L8.08291 28.2878C8.02406 28.4533 7.81601 28.4533 7.75716 28.2878L7.34073 27.1169C7.32287 27.0667 7.28762 27.027 7.24308 27.0069L6.20274 26.5382C6.05579 26.472 6.05579 26.2378 6.20274 26.1716L7.24308 25.7029C7.28762 25.6828 7.32294 25.6431 7.34073 25.5929L7.75716 24.4219C7.81601 24.2565 8.02406 24.2565 8.08291 24.4219Z" fill="#E9C3D9"/>
<path d="M4.40417 21.6372C4.40417 21.9292 4.16743 22.1659 3.8754 22.1659C3.58336 22.1659 3.34656 21.9292 3.34656 21.6372C3.34656 21.3451 3.58329 21.1084 3.8754 21.1084C4.16743 21.1084 4.40417 21.3451 4.40417 21.6372Z" fill="#D88ABA"/>
<path d="M16.1864 24.1433C16.2258 23.6328 15.8439 23.187 15.3334 23.1476C14.8229 23.1081 14.377 23.49 14.3376 24.0005C14.2982 24.511 14.6801 24.9568 15.1906 24.9962C15.7011 25.0356 16.1469 24.6538 16.1864 24.1433Z" fill="#D88ABA"/>
<path d="M32.4599 29.3222L19.1475 14.6029L20.2391 13.6587C20.2936 13.6115 20.3388 13.5559 20.3746 13.4949C21.1785 12.8399 22.4322 11.566 22.5587 9.91385C22.6621 8.56221 22.0069 7.27553 20.6113 6.0894C18.5374 4.32686 15.9835 3.49271 14.2896 3.1087C14.2025 2.70271 14.0601 2.35466 13.9495 2.12489C13.7786 1.77001 13.3163 0.93231 12.7163 0.818422C12.2197 0.724062 11.6288 1.12586 11.2761 1.4188C10.5744 0.943139 9.67345 0.571051 8.61397 0.645623C6.94102 0.764088 5.91048 1.64175 5.33988 2.35782L1.38052 0.290808C1.37852 0.289777 1.37646 0.288682 1.37446 0.287715C0.987745 0.0909394 0.518526 0.181754 0.233386 0.508596C-0.0518194 0.835437 -0.0783741 1.31258 0.168868 1.66901C0.174282 1.67687 0.17989 1.68454 0.18569 1.69215L4.43966 7.28584C4.32029 7.47443 4.20389 7.66882 4.09161 7.87062C2.09647 11.4569 2.09363 15.5866 4.08536 16.8886C5.7623 17.9849 8.20959 17.4906 10.3556 15.6812L12.4837 19.3432C12.5814 19.5113 12.749 19.6271 12.9407 19.6592C12.9766 19.6652 13.0126 19.6682 13.0483 19.6682C13.2041 19.6682 13.356 19.6124 13.4756 19.5091L15.9845 17.3389L29.3589 32.1269C29.7545 32.5643 30.3198 32.8151 30.9099 32.8151C31.4288 32.8151 31.9267 32.6233 32.3117 32.2751C32.7259 31.9006 32.9694 31.3871 32.9974 30.8294C33.0253 30.2716 32.8344 29.7364 32.4599 29.3222ZM14.2915 4.45777C15.8381 4.8392 18.0208 5.60207 19.7654 7.08468C20.8228 7.98329 21.3245 8.9002 21.2565 9.80989C21.1814 10.8152 20.4487 11.6786 19.8423 12.2294L14.4801 6.35475C14.4724 6.34624 14.4644 6.33793 14.4561 6.32987C14.2936 6.16977 14.0256 5.91705 13.7301 5.64783C13.9928 5.32788 14.1837 4.92415 14.2915 4.45777ZM8.7062 1.94848C9.34351 1.90304 9.91566 2.11212 10.3918 2.40436C10.1913 2.71257 10.0167 3.0775 9.93932 3.48511C9.92817 3.54402 9.9185 3.60267 9.91038 3.66093C9.37832 3.64617 8.844 3.7337 8.31793 3.91256L6.52717 2.97767C6.95527 2.51812 7.65317 2.02305 8.7062 1.94848ZM2.21132 2.19798L7.75223 5.09063C7.67083 5.31719 7.45304 5.7362 7.02062 6.26574C6.59446 6.78762 6.23178 7.08385 6.0245 7.21198L2.21132 2.19798ZM4.80002 15.7954C4.12403 15.3535 3.72604 13.9439 3.98075 12.1227L8.81699 15.2066C7.33715 16.1968 5.80504 16.4523 4.80002 15.7954ZM13.2171 18.0056L11.0774 14.3239C10.9758 14.149 10.7988 14.0311 10.5982 14.0046C10.5697 14.0009 10.5412 13.999 10.5128 13.999C10.3415 13.999 10.1757 14.0664 10.0526 14.1887C9.86726 14.3728 9.67802 14.5442 9.48641 14.7039L4.13725 11.293C4.34434 10.4147 4.69754 9.46822 5.23308 8.50562C5.2557 8.46488 5.27923 8.42608 5.30217 8.38606C5.41522 8.47655 5.61393 8.59089 5.89836 8.59089C6.03185 8.59089 6.18415 8.56569 6.35489 8.50091C7.37563 8.11387 8.9024 6.24421 9.07758 5.16669C9.08435 5.12499 9.08873 5.08515 9.09195 5.04622C9.53578 4.946 9.97896 4.93807 10.4107 5.03127C10.6178 5.076 10.8336 5.01754 10.9897 4.87439C11.1459 4.73131 11.2229 4.52138 11.1965 4.31127C11.1741 4.13376 11.1829 3.93776 11.2226 3.7288C11.3524 3.04521 12.0781 2.3894 12.4589 2.17316C12.734 2.51393 13.1687 3.39017 13.0389 4.07376C12.9481 4.55226 12.7336 4.90043 12.4352 5.05409C12.2427 5.15322 12.1118 5.34136 12.0859 5.55637C12.0599 5.77139 12.1422 5.98531 12.3056 6.12743C12.7479 6.51221 13.2692 6.99503 13.5273 7.24833L18.8772 13.1096L13.2171 18.0056ZM31.6928 30.7638C31.6823 30.9731 31.5909 31.1657 31.4355 31.3062C31.291 31.4369 31.1044 31.5088 30.9098 31.5088C30.685 31.5088 30.4782 31.4171 30.3276 31.2505L16.9726 16.4841L18.1593 15.4576L31.4911 30.1983C31.6317 30.3537 31.7033 30.5546 31.6928 30.7638Z" fill="#3C122C"/>
<path d="M10.0055 10.1614C10.3189 9.88479 10.3487 9.40644 10.0721 9.09301C9.79545 8.77958 9.31709 8.74977 9.00367 9.02642C8.69024 9.30307 8.66043 9.78143 8.93708 10.0949C9.21373 10.4083 9.69208 10.4381 10.0055 10.1614Z" fill="#3C122C"/>
<path d="M5.18967 15.2961C4.90705 15.2961 4.64653 15.1112 4.56312 14.8262C4.48133 14.5467 4.42887 14.2407 4.40702 13.9167C4.38278 13.5568 4.65491 13.2454 5.01481 13.2212C5.37407 13.197 5.65193 13.473 5.71026 13.829C5.75196 14.0837 5.78728 14.2897 5.81674 14.4595C5.87835 14.8149 5.71948 15.1684 5.3733 15.2697C5.31213 15.2876 5.25039 15.2961 5.18967 15.2961Z" fill="white"/>
<path d="M5.39448 11.716C5.34259 11.716 5.28987 11.7098 5.23728 11.6968C4.8871 11.6102 4.67344 11.2562 4.75994 10.9061C4.81098 10.6996 4.86293 10.5112 4.91869 10.3302C5.02484 9.98549 5.39035 9.79201 5.73505 9.89829C6.07974 10.0044 6.2731 10.37 6.16695 10.7147C6.11848 10.8719 6.07304 11.037 6.02799 11.2194C5.95438 11.517 5.68774 11.716 5.39448 11.716Z" fill="white"/>
</g>
<path d="M13.6135 32.1616C14.0057 32.1616 14.3963 32.0021 14.6801 31.6883L34.1785 10.1293C34.711 9.54047 34.6653 8.63143 34.0766 8.09891C33.4878 7.5664 32.5788 7.61197 32.0462 8.20081L12.5479 29.7599C12.0153 30.3486 12.061 31.2577 12.6498 31.7902C12.9248 32.039 13.2698 32.1616 13.6135 32.1616Z" fill="#F4DAB5"/>
<path d="M39.1963 3.4967C39.1963 3.4967 38.0455 1.01267 35.6115 1.33442C33.278 1.6429 32.564 3.88722 32.564 3.88722C32.564 3.88722 27.7437 4.34703 24.4695 6.49686C20.4565 9.13183 24.4571 12.7767 24.4571 12.7767L27.8423 14.384L39.1963 3.4967Z" fill="#9781DD"/>
<path d="M34.0106 14.6516L31.475 19.0146L24.7116 13.1643L30.5256 6.79457C30.776 6.54784 31.3125 6.04885 31.7892 5.63416C31.3378 5.40174 30.9801 4.91769 30.8428 4.19505C30.617 3.00582 31.5587 1.52978 31.929 1.45946C32.2993 1.38914 33.7165 2.41717 33.9424 3.6064C33.9965 3.8916 34.0048 4.15463 33.9748 4.39234C36.1249 3.92827 38.3655 5.49938 39.861 8.18766C41.7803 11.6374 41.6417 15.3211 40.0807 16.3416C38.4709 17.394 36.0115 16.6387 34.0106 14.6516Z" fill="#E8C2D8"/>
<path d="M41.0445 11.6143C41.0445 11.6143 41.9101 14.882 39.7959 16.5018C37.6816 18.1216 35.1165 15.039 35.1165 15.039L41.0445 11.6143Z" fill="#D789B9"/>
<path d="M34.518 15.0785C34.112 14.8171 33.7324 14.5385 33.3984 14.2544L33.9022 13.3718C34.0696 13.0786 34.4734 13.0243 34.7069 13.2681C35.0646 13.6415 35.4819 13.9734 35.9297 14.2583C35.4623 14.537 34.9829 14.7954 34.518 15.0785Z" fill="#D392D8"/>
<path d="M36.5767 14.627C38.1433 15.4215 39.9038 15.6512 40.8079 15.0601C40.9318 14.9792 41.0451 14.8785 41.1483 14.7615C40.9462 15.2785 40.458 16.0952 40.0807 16.3419C39.0054 17.0448 36.9286 16.4568 35.153 15.4603C35.628 15.1832 36.1117 14.9208 36.5767 14.627Z" fill="#C668B9"/>
<path d="M30.5256 6.79457C30.776 6.54784 31.3125 6.04891 31.7892 5.63415C31.3377 5.40174 30.9801 4.91769 30.8428 4.19504C30.617 3.00582 31.5587 1.52978 31.929 1.45946C32.1958 1.4088 33.0062 1.92855 33.5228 2.66789C33.1645 2.98616 32.6082 4.05073 32.7886 4.92195C32.8195 5.0707 32.8611 5.20735 32.9121 5.33168C33.1654 5.9501 33.0303 6.65851 32.5615 7.13488L32.5551 7.14133L28.6494 11.5656C28.1245 12.1602 28.1934 13.0707 28.8018 13.5795L32.7261 16.8618L31.475 19.0145L24.7116 13.1642L30.5256 6.79457Z" fill="#D392D8"/>
<path d="M28.4426 16.6943L26.2413 14.7179L24.6785 16.4585L26.8798 18.4349L28.4426 16.6943Z" fill="#DBA2B3"/>
<path d="M43.818 1.29652L38.8156 7.87429C38.1692 8.40209 35.5426 5.18543 36.1889 4.65763L43.4452 0.869457C43.7159 0.731721 43.991 1.04703 43.818 1.29652Z" fill="white"/>
<path d="M16.6019 11.6575L16.0405 13.2361C16.0164 13.3037 15.9689 13.3572 15.9088 13.3843L14.5063 14.0162C14.3082 14.1054 14.3082 14.4211 14.5063 14.5104L15.9088 15.1423C15.9689 15.1693 16.0164 15.2229 16.0405 15.2905L16.6019 16.869C16.6812 17.092 16.9617 17.092 17.041 16.869L17.6024 15.2905C17.6264 15.2228 17.674 15.1693 17.7341 15.1423L19.1366 14.5104C19.3347 14.4211 19.3347 14.1054 19.1366 14.0162L17.7341 13.3843C17.674 13.3572 17.6264 13.3036 17.6024 13.2361L17.041 11.6575C16.9617 11.4345 16.6812 11.4345 16.6019 11.6575Z" fill="#E9C3D9"/>
<path d="M36.4405 24.4219L36.0241 25.5929C36.0062 25.6431 35.971 25.6828 35.9265 25.7029L34.8861 26.1716C34.7392 26.2378 34.7392 26.472 34.8861 26.5382L35.9265 27.0069C35.971 27.0269 36.0063 27.0667 36.0241 27.1169L36.4405 28.2878C36.4994 28.4533 36.7074 28.4533 36.7663 28.2878L37.1827 27.1169C37.2006 27.0667 37.2358 27.027 37.2804 27.0069L38.3207 26.5382C38.4676 26.472 38.4676 26.2378 38.3207 26.1716L37.2804 25.7029C37.2358 25.6828 37.2005 25.6431 37.1827 25.5929L36.7663 24.4219C36.7074 24.2565 36.4994 24.2565 36.4405 24.4219Z" fill="#E9C3D9"/>
<path d="M40.1193 21.6372C40.1193 21.9292 40.356 22.1659 40.648 22.1659C40.9401 22.1659 41.1769 21.9292 41.1769 21.6372C41.1769 21.3451 40.9401 21.1084 40.648 21.1084C40.356 21.1084 40.1193 21.3451 40.1193 21.6372Z" fill="#D88ABA"/>
<path d="M28.3371 24.1433C28.2976 23.6328 28.6795 23.187 29.1901 23.1476C29.7006 23.1081 30.1464 23.49 30.1858 24.0005C30.2252 24.511 29.8433 24.9568 29.3328 24.9962C28.8223 25.0356 28.3765 24.6538 28.3371 24.1433Z" fill="#D88ABA"/>
<path d="M12.0636 29.3222L25.376 14.6029L24.2844 13.6587C24.2299 13.6115 24.1846 13.5559 24.1488 13.4949C23.3449 12.8399 22.0912 11.566 21.9648 9.91385C21.8613 8.56221 22.5165 7.27553 23.9121 6.0894C25.9861 4.32686 28.5399 3.49271 30.2339 3.1087C30.3209 2.70271 30.4634 2.35466 30.574 2.12489C30.7448 1.77001 31.2071 0.93231 31.8072 0.818422C32.3037 0.724062 32.8946 1.12586 33.2474 1.4188C33.9491 0.943139 34.85 0.571051 35.9095 0.645623C37.5824 0.764088 38.613 1.64175 39.1836 2.35782L43.1429 0.290808C43.1449 0.289777 43.147 0.288682 43.149 0.287715C43.5357 0.0909394 44.0049 0.181754 44.2901 0.508596C44.5753 0.835437 44.6018 1.31258 44.3546 1.66901C44.3492 1.67687 44.3435 1.68454 44.3377 1.69215L40.0838 7.28584C40.2031 7.47443 40.3195 7.66882 40.4318 7.87062C42.427 11.4569 42.4298 15.5866 40.4381 16.8886C38.7611 17.9849 36.3138 17.4906 34.1679 15.6812L32.0397 19.3432C31.942 19.5113 31.7745 19.6271 31.5827 19.6592C31.5468 19.6652 31.5109 19.6682 31.4751 19.6682C31.3194 19.6682 31.1674 19.6124 31.0478 19.5091L28.5389 17.3389L15.1645 32.1269C14.7689 32.5643 14.2036 32.8151 13.6136 32.8151C13.0946 32.8151 12.5967 32.6233 12.2117 32.2751C11.7976 31.9006 11.5541 31.3871 11.5261 30.8294C11.4982 30.2716 11.689 29.7364 12.0636 29.3222ZM30.2319 4.45777C28.6853 4.8392 26.5027 5.60207 24.758 7.08468C23.7006 7.98329 23.1989 8.9002 23.2669 9.80989C23.342 10.8152 24.0747 11.6786 24.6812 12.2294L30.0433 6.35475C30.0511 6.34624 30.0591 6.33793 30.0673 6.32987C30.2298 6.16977 30.4979 5.91705 30.7933 5.64783C30.5307 5.32788 30.3397 4.92415 30.2319 4.45777ZM35.8172 1.94848C35.1799 1.90304 34.6078 2.11212 34.1317 2.40436C34.3321 2.71257 34.5067 3.0775 34.5841 3.48511C34.5953 3.54402 34.6049 3.60267 34.6131 3.66093C35.1451 3.64617 35.6794 3.7337 36.2055 3.91256L37.9963 2.97767C37.5682 2.51812 36.8703 2.02305 35.8172 1.94848ZM42.3121 2.19798L36.7712 5.09063C36.8526 5.31719 37.0704 5.7362 37.5028 6.26574C37.929 6.78762 38.2917 7.08385 38.4989 7.21198L42.3121 2.19798ZM39.7234 15.7954C40.3994 15.3535 40.7974 13.9439 40.5427 12.1227L35.7064 15.2066C37.1863 16.1968 38.7184 16.4523 39.7234 15.7954ZM31.3064 18.0056L33.446 14.3239C33.5476 14.149 33.7246 14.0311 33.9252 14.0046C33.9537 14.0009 33.9823 13.999 34.0107 13.999C34.1819 13.999 34.3477 14.0664 34.4708 14.1887C34.6562 14.3728 34.8454 14.5442 35.037 14.7039L40.3862 11.293C40.1791 10.4147 39.8259 9.46822 39.2904 8.50562C39.2677 8.46488 39.2442 8.42608 39.2213 8.38606C39.1082 8.47655 38.9095 8.59089 38.6251 8.59089C38.4916 8.59089 38.3393 8.56569 38.1686 8.50091C37.1478 8.11387 35.621 6.24421 35.4459 5.16669C35.4391 5.12499 35.4347 5.08515 35.4315 5.04622C34.9877 4.946 34.5445 4.93807 34.1127 5.03127C33.9057 5.076 33.6898 5.01754 33.5337 4.87439C33.3776 4.73131 33.3005 4.52138 33.327 4.31127C33.3493 4.13376 33.3406 3.93776 33.3009 3.7288C33.1711 3.04521 32.4454 2.3894 32.0645 2.17316C31.7894 2.51393 31.3547 3.39017 31.4845 4.07376C31.5754 4.55226 31.7898 4.90043 32.0882 5.05409C32.2808 5.15322 32.4117 5.34136 32.4376 5.55637C32.4635 5.77139 32.3812 5.98531 32.2179 6.12743C31.7756 6.51221 31.2543 6.99503 30.9961 7.24833L25.6462 13.1096L31.3064 18.0056ZM12.8307 30.7638C12.8412 30.9731 12.9325 31.1657 13.088 31.3062C13.2324 31.4369 13.4191 31.5088 13.6137 31.5088C13.8385 31.5088 14.0452 31.4171 14.1959 31.2505L27.5509 16.4841L26.3641 15.4576L13.0324 30.1983C12.8918 30.3537 12.8202 30.5546 12.8307 30.7638Z" fill="#3C122C"/>
<path fill-rule="evenodd" clip-rule="evenodd" d="M27.3734 11.6014V11.6014H30.4185C30.7568 11.6014 31.0696 11.7549 31.2766 12.0225C31.4837 12.29 31.5537 12.6313 31.4688 12.9588L30.7252 15.8279C30.3304 17.3508 29.1378 18.537 27.6129 18.9236C27.6029 18.9261 27.5929 18.9284 27.5829 18.9304L24.7843 19.4993C24.4559 19.7702 24.1006 20.0136 23.7211 20.2252C23.6939 20.2403 23.6665 20.2549 23.6389 20.269C23.8445 21.8324 24.9572 23.1515 26.5037 23.5975L26.8599 23.7002H27.6677C27.9885 23.7002 28.2485 23.9603 28.2485 24.281V26.6711H28.7678C29.1235 26.6711 29.4119 26.9595 29.4119 27.3152C29.4119 27.6709 29.1235 27.9592 28.7678 27.9592H27.0826H27.0815H16.3159C15.9602 27.9592 15.6719 27.6709 15.6719 27.3152C15.6719 26.9595 15.9602 26.6711 16.3159 26.6711H16.8359V24.281C16.8359 23.9602 17.096 23.7002 17.4168 23.7002H18.228C19.8587 23.2106 21.0576 21.8661 21.391 20.2432L21.375 20.2345L21.3776 20.2331L21.3632 20.2252C20.9839 20.0137 20.6288 19.7705 20.3006 19.4999L17.4993 18.9304C17.4893 18.9284 17.4793 18.9261 17.4694 18.9236C15.9444 18.537 14.7518 17.3508 14.3571 15.8279L13.6134 12.9588C13.5285 12.6313 13.5985 12.29 13.8056 12.0225C14.0126 11.7549 14.3254 11.6014 14.6637 11.6014H17.7109V11.6014H17.2807C16.8581 11.6014 16.5156 11.2589 16.5156 10.8363C16.5156 10.4138 16.8581 10.0713 17.2807 10.0713H26.2307L26.2416 10.0768V10.0713H27.8057C28.2283 10.0713 28.5708 10.4138 28.5708 10.8363C28.5708 11.2589 28.2283 11.6014 27.8058 11.6014H27.3734ZM27.3734 12.8888V14.0075C27.3734 15.4124 26.9594 16.7573 26.2187 17.8941L27.3107 17.6721C28.3734 17.3973 29.2035 16.5681 29.4791 15.5049L30.1572 12.8888L27.3734 12.8888ZM17.7109 14.0075C17.7109 15.4125 18.125 16.7577 18.8659 17.8946L17.7716 17.6721C16.7089 17.3973 15.8788 16.5681 15.6032 15.5049L14.9251 12.8887H17.7109V14.0075Z" fill="url(#paint0_linear_1690_5217)"/>
<path d="M25.9264 25.1116H19.1647C19.0133 25.1116 18.8906 24.9889 18.8906 24.8375C18.8906 24.6862 19.0133 24.5635 19.1647 24.5635H25.9264C26.0777 24.5635 26.2004 24.6862 26.2004 24.8375C26.2004 24.9889 26.0777 25.1116 25.9264 25.1116Z" fill="white"/>
<path d="M22.7459 13.0654L23.1501 14.1728C23.1812 14.2579 23.2609 14.3158 23.3516 14.3191L24.5296 14.3613C24.7374 14.3688 24.8227 14.6315 24.6591 14.7596L23.7308 15.4862C23.6594 15.5422 23.6289 15.6358 23.6539 15.723L23.9777 16.8564C24.0348 17.0563 23.8114 17.2187 23.6389 17.1026L22.661 16.4444C22.5857 16.3937 22.4873 16.3937 22.4121 16.4444L21.4341 17.1026C21.2617 17.2187 21.0382 17.0563 21.0953 16.8564L21.4192 15.723C21.4441 15.6358 21.4137 15.5421 21.3423 15.4862L20.414 14.7596C20.2503 14.6315 20.3356 14.3688 20.5434 14.3613L21.7215 14.3191C21.8122 14.3158 21.8918 14.258 21.9229 14.1728L22.3272 13.0654C22.3984 12.8701 22.6746 12.8701 22.7459 13.0654Z" fill="white"/>
<path d="M34.5179 10.1614C34.2045 9.88479 34.1747 9.40644 34.4513 9.09301C34.728 8.77958 35.2063 8.74977 35.5198 9.02642C35.8332 9.30307 35.863 9.78143 35.5864 10.0949C35.3097 10.4083 34.8314 10.4381 34.5179 10.1614Z" fill="#3C122C"/>
<path d="M39.3338 15.2961C39.6164 15.2961 39.8769 15.1112 39.9603 14.8262C40.0421 14.5467 40.0946 14.2407 40.1164 13.9167C40.1407 13.5568 39.8685 13.2454 39.5086 13.2212C39.1494 13.197 38.8715 13.473 38.8132 13.829C38.7715 14.0837 38.7362 14.2897 38.7067 14.4595C38.6451 14.8149 38.804 15.1684 39.1501 15.2697C39.2113 15.2876 39.2731 15.2961 39.3338 15.2961Z" fill="white"/>
<path d="M39.129 11.716C39.1808 11.716 39.2336 11.7098 39.2862 11.6968C39.6363 11.6102 39.85 11.2562 39.7635 10.9061C39.7125 10.6996 39.6605 10.5112 39.6048 10.3302C39.4986 9.98549 39.1331 9.79201 38.7884 9.89829C38.4437 10.0044 38.2503 10.37 38.3565 10.7147C38.405 10.8719 38.4504 11.037 38.4954 11.2194C38.5691 11.517 38.8357 11.716 39.129 11.716Z" fill="white"/>
<defs>
<linearGradient id="paint0_linear_1690_5217" x1="15.5619" y1="17.9535" x2="31.5078" y2="17.9535" gradientUnits="userSpaceOnUse">
<stop stop-color="#90053E"/>
<stop offset="0.4375" stop-color="#E21EAD"/>
<stop offset="1" stop-color="#90033F"/>
</linearGradient>
<clipPath id="clip0_1690_5217">
<rect width="33" height="33" fill="white"/>
</clipPath>
</defs>
</svg>
